<svg width="42" height="42" viewBox="0 0 42 42" fill="none" xmlns="http://www.w3.org/2000/svg">
<g clip-path="url(#clip0)">
<path d="M29.0837 8.26427L12.6083 8.46392C12.0849 8.47026 11.6605 8.90512 11.6668 9.42852L11.8194 22.0213C11.8489 24.4587 13.8652 26.4344 16.3103 26.4048L25.8175 26.2895C28.2548 26.26 30.2305 24.2437 30.2009 21.7986L30.0483 9.20578C30.0419 8.68238 29.6071 8.25793 29.0837 8.26427Z" fill="#554431"/>
<path d="M34.1053 34.5179L34.1573 38.8145C34.1661 39.541 33.5873 40.134 32.8608 40.1428L9.92502 40.4207C9.19851 40.4295 8.60551 39.8507 8.59671 39.1242L8.54464 34.8276C8.50034 31.1717 11.4252 28.1751 15.0812 28.1308L27.4084 27.9814C31.0644 27.9371 34.061 30.8619 34.1053 34.5179Z" fill="#96C8EF"/>
<path d="M34.1053 34.5179L34.1573 38.8145C34.1661 39.541 33.5873 40.134 32.8608 40.1428L12.1827 40.3934C11.4562 40.4022 10.8632 39.8234 10.8544 39.0969L10.8023 34.8003C10.758 31.1443 13.6828 28.1477 17.3388 28.1034L27.4084 27.9814C31.0644 27.9371 34.061 30.8619 34.1053 34.5179Z" fill="#B3D8F4"/>
<path d="M24.1551 21.9266L24.2376 28.7386C24.2575 30.3791 22.9301 31.7391 21.2896 31.759C19.6491 31.7788 18.2892 30.4515 18.2693 28.811L18.1868 21.999C18.1804 21.4756 18.6049 21.0407 19.1283 21.0343L23.1905 20.9851C23.7139 20.9788 24.1488 21.4032 24.1551 21.9266Z" fill="#FFB655"/>
<path d="M24.1551 21.9266L24.2008 25.6998C23.2996 26.117 22.2945 26.3479 21.2399 26.3607L20.9352 26.3644C19.9821 26.376 19.0738 26.2073 18.2338 25.8815L18.1867 21.9911C18.1803 21.4677 18.6048 21.0329 19.1282 21.0265L23.1904 20.9773C23.7139 20.9788 24.1488 21.4032 24.1551 21.9266Z" fill="#FFA733"/>
<path d="M11.41 16.6041C11.426 17.9243 12.5091 18.9737 13.8215 18.9578L13.7637 14.1926C12.4513 14.2085 11.3941 15.2917 11.41 16.6041Z" fill="#FFB655"/>
<path d="M28.1143 14.0188L28.172 18.7841C29.4922 18.7681 30.5417 17.685 30.5258 16.3726C30.5099 15.0602 29.4345 14.0028 28.1143 14.0188Z" fill="#FFB655"/>
<path d="M28.3565 6.28086L28.491 17.3816C28.5377 21.2407 25.5688 24.4644 21.7835 24.7994C21.5962 24.8172 21.4088 24.8273 21.2213 24.8296L20.9166 24.8333C16.8701 24.8823 13.5177 21.6102 13.4686 17.5636L13.3341 6.46289L28.3565 6.28086Z" fill="#FFB655"/>
<path d="M28.3565 6.28072L28.491 17.3815C28.5377 21.2406 25.5688 24.4643 21.7835 24.7992C17.9912 24.5561 14.945 21.4053 14.8982 17.5462L14.7637 6.44543L28.3565 6.28072Z" fill="#FFC477"/>
<path d="M30.6886 5.30716L30.7551 10.7989C30.7586 11.088 30.7073 11.3621 30.6166 11.621C30.2914 12.5078 29.4476 13.1509 28.4477 13.163L28.3539 13.1641C27.0728 13.1797 26.0054 12.1378 25.9899 10.8567L25.9425 6.95072C25.8749 7.81879 25.5722 8.62721 25.1038 9.30481C24.2364 10.581 22.7778 11.4269 21.1216 11.447L12.6691 11.5494C11.927 11.5584 11.3182 10.9642 11.3092 10.222L11.2638 6.4723C11.242 4.67555 12.1995 3.09352 13.6422 2.22442C14.3636 1.79377 15.2042 1.53356 16.0948 1.52277L21.0007 1.46333C23.5395 1.43256 25.6647 3.36789 25.9214 5.84934L25.9155 5.365C25.9044 4.451 26.4261 3.65556 27.187 3.2635C27.3112 3.19949 27.4434 3.1432 27.5835 3.10243C27.7859 3.03748 28.0042 3.00358 28.223 3.00093L28.3167 2.99979C29.6057 2.98417 30.6731 4.026 30.6886 5.30716Z" fill="#5F4D37"/>
<path d="M21.0008 1.4712L16.0949 1.53065C15.1965 1.54154 14.3557 1.79393 13.6423 2.2323C13.0973 3.03583 12.7808 4.00068 12.7934 5.03966L12.8388 8.78939C12.8478 9.53152 13.4566 10.1257 14.1988 10.1168L22.6513 10.0143C23.5496 10.0034 24.3904 9.75105 25.1039 9.31269C25.5722 8.62728 25.8671 7.81896 25.9426 6.9586L25.9293 5.85712C25.6648 3.37577 23.5396 1.44044 21.0008 1.4712Z" fill="#806749"/>
<path d="M25.195 25.8596C24.9177 25.5426 24.4107 25.6113 24.212 25.9809L21.4483 31.3116C21.3796 31.4453 21.1921 31.4476 21.128 31.3155L18.2359 26.0533C18.0362 25.6885 17.5276 25.6322 17.2503 25.9559L15.4093 28.1268L17.1351 33.8563C17.3752 34.33 17.9785 34.4711 18.4123 34.1611L20.5032 32.6279C20.9756 32.2784 21.624 32.2705 22.1047 32.6085L24.2322 34.0906C24.6655 34.3901 25.2652 34.2343 25.5016 33.7549L27.0881 27.9852L25.195 25.8596Z" fill="#78B9EB"/>
<path d="M13.4319 14.5325L13.4735 17.962C13.4798 18.4854 13.0554 18.9202 12.532 18.9266L11.2664 18.9419C10.743 18.9483 10.3082 18.5238 10.3018 18.0004L10.2603 14.571C10.2539 14.0476 10.6784 13.6127 11.2018 13.6064L12.4673 13.591C12.9907 13.5847 13.4256 14.0091 13.4319 14.5325Z" fill="#1D1D1F"/>
<path d="M31.6259 14.312L31.6674 17.7414C31.6738 18.2648 31.2493 18.6997 30.7337 18.706L30.7444 19.5887C30.7616 21.0027 29.6271 22.1649 28.2132 22.1821L23.0651 22.2444C22.8729 22.5046 22.5625 22.6724 22.2187 22.6766L20.1486 22.7017C19.8517 22.7053 19.5846 22.5835 19.387 22.3984C19.1894 22.2055 19.069 21.9413 19.0654 21.6444C19.0582 21.0507 19.5366 20.5605 20.1304 20.5533L22.2005 20.5282C22.5989 20.5234 22.9453 20.738 23.1367 21.056L28.2066 20.9946C28.9644 20.9854 29.574 20.3608 29.5648 19.603L29.5541 18.7202L29.476 18.7212C28.9526 18.7275 28.5178 18.3031 28.5114 17.7797L28.4699 14.3502C28.4635 13.8268 28.888 13.392 29.4114 13.3856L30.6769 13.3703C31.1847 13.3642 31.6195 13.7886 31.6259 14.312Z" fill="#1D1D1F"/>
<path d="M18.4676 16.1591C18.8947 16.1539 19.2368 15.8035 19.2316 15.3763C19.2264 14.9492 18.876 14.6072 18.4489 14.6123C18.0217 14.6175 17.6797 14.968 17.6849 15.3951C17.69 15.8222 18.0405 16.1643 18.4676 16.1591Z" fill="black"/>
<path d="M23.4672 16.0985C23.8944 16.0934 24.2364 15.7429 24.2313 15.3158C24.2261 14.8887 23.8756 14.5466 23.4485 14.5518C23.0214 14.557 22.6793 14.9074 22.6845 15.3345C22.6897 15.7617 23.0401 16.1037 23.4672 16.0985Z" fill="black"/>
<path d="M33.7743 31.0607C33.6145 30.7735 33.254 30.6763 32.9668 30.8361C32.6797 30.9958 32.5825 31.3564 32.7422 31.6435C33.2372 32.5204 33.4992 33.5095 33.5115 34.5251L33.5723 39.5403L21.9794 39.6808L21.9005 33.1656L23.8942 34.5713C24.1464 34.7479 24.4444 34.8381 24.7412 34.8345C24.8584 34.8331 24.9754 34.816 25.0922 34.7833C25.505 34.6768 25.8453 34.3914 26.0359 33.9984L27.5171 28.5738L27.5406 28.5735C28.9393 28.5878 30.297 29.087 31.3705 29.9882C31.623 30.1961 31.9977 30.1681 32.2056 29.9155C32.4135 29.663 32.3855 29.2883 32.133 29.0804C30.8148 27.9713 29.1432 27.3665 27.4168 27.3874L26.9177 26.8231C29.3587 26.4498 31.2159 24.3256 31.1852 21.7867L31.1542 19.2322C31.8003 19.0368 32.2618 18.4375 32.2533 17.7344L32.2118 14.305C32.2032 13.6019 31.7195 13.0139 31.0767 12.8342L31.0675 12.0765C31.2503 11.6914 31.3466 11.2527 31.3411 10.7996L31.2745 5.30003C31.2549 3.68296 29.9266 2.38646 28.3095 2.40605L28.2157 2.40719C27.1924 2.41959 26.2926 2.96178 25.7789 3.76494C24.8437 2.02614 22.9934 0.853164 20.8842 0.878723L16.0955 0.936751C13.0645 0.973479 10.6335 3.46405 10.6702 6.48727L10.7156 10.237C10.7213 10.7057 10.8984 11.1411 11.1837 11.4736L11.2024 13.0125L11.1946 13.0126C10.3431 13.023 9.65623 13.7266 9.66655 14.5781L9.70811 18.0076C9.71843 18.8591 10.4221 19.5459 11.2736 19.5356L11.2814 19.5355L11.3116 22.0275C11.342 24.5351 13.2188 26.6063 15.6293 26.9443L15.1287 27.5363L15.074 27.537C11.0977 27.5852 7.90275 30.8585 7.95093 34.8348L7.95917 35.5144C7.96315 35.8425 8.23197 36.1049 8.56007 36.1009C8.88817 36.097 9.15056 35.8281 9.14658 35.5L9.13835 34.8204C9.09859 31.5394 11.6987 28.828 14.9634 28.7259L16.5992 34.1206C16.7913 34.5011 17.1462 34.7781 17.5615 34.8746C17.6791 34.9044 17.7964 34.9186 17.9136 34.9172C18.2105 34.9136 18.5062 34.8163 18.754 34.6336L20.7133 33.2035L20.792 39.6952L9.19912 39.8357L9.17536 37.8749C9.17138 37.5468 8.90256 37.2844 8.57446 37.2884C8.24636 37.2923 7.98397 37.5612 7.98795 37.8893L8.0189 40.4437C8.02288 40.7719 8.2917 41.0342 8.6198 41.0303L34.1804 40.7205C34.5085 40.7166 34.7709 40.4477 34.7669 40.1196L34.699 34.5107C34.6843 33.2998 34.3651 32.1083 33.7743 31.0607ZM26.41 28.1184L24.944 33.5116C24.8979 33.5825 24.8279 33.6068 24.789 33.6229C24.7424 33.6391 24.6565 33.6479 24.5698 33.5865L21.8984 31.7046L24.7454 26.1541L26.4249 28.0636L26.41 28.1184ZM29.9977 21.8011C30.0234 23.9181 28.3179 25.6655 26.2008 25.6911L25.9196 25.6945L24.8737 24.4884C25.9217 23.9287 26.834 23.1364 27.5412 22.1824L28.2131 22.1743C28.9083 22.1659 29.5455 21.8769 30.0009 21.4182L30.0056 21.801L29.9977 21.8011ZM28.269 20.986C28.536 20.4515 28.7401 19.8865 28.8813 19.291C28.8813 19.291 29.0233 19.3986 29.5541 19.361L29.557 19.6031C29.558 20.3297 28.9872 20.9383 28.269 20.986ZM30.6685 13.9643C30.8638 13.9619 31.0298 14.1239 31.0322 14.3192L31.0737 17.7487C31.0761 17.944 30.914 18.11 30.7187 18.1124L29.4532 18.1277C29.3048 18.1295 29.1786 18.0373 29.1223 17.9051C29.1062 17.8663 29.0979 17.8195 29.0973 17.7726L29.0557 14.3432C29.0534 14.1479 29.2154 13.9819 29.4107 13.9795L30.6685 13.9643ZM26.517 5.35767C26.5136 5.07645 26.5806 4.80218 26.7025 4.55068C26.9545 4.06322 27.4424 3.70572 27.9804 3.62107C28.2923 3.57041 28.6207 3.58987 28.9189 3.69564C29.0601 3.7408 29.1937 3.8095 29.312 3.89401C29.6349 4.10887 29.897 4.45728 30.0187 4.83083C30.0674 4.9865 30.093 5.15808 30.095 5.32213L30.1615 10.8139C30.1659 11.1733 30.0605 11.5027 29.8841 11.7783C29.6848 12.0932 29.383 12.3313 29.0329 12.4605C28.6674 12.5978 28.2144 12.6111 27.8459 12.5062C27.1246 12.2961 26.5931 11.6385 26.5835 10.8495L26.517 5.35767ZM27.8529 13.7249L27.8973 17.3887C27.9133 18.7167 27.5455 19.9557 26.8941 21.0027L23.7693 21.0406C23.5348 20.3871 22.9119 19.918 22.1776 19.9269L20.1074 19.952C19.1856 19.9632 18.4448 20.7222 18.4559 21.644C18.4671 22.5658 19.2261 23.3067 20.1479 23.2955L22.2181 23.2704C22.9056 23.2621 23.4941 22.8331 23.7447 22.2362L25.9633 22.2094C25.6006 22.581 25.1983 22.9062 24.7641 23.1849C24.392 23.4238 23.996 23.6239 23.5838 23.7852C22.744 24.1157 21.8627 24.2436 20.9643 24.2545C20.2378 24.2633 19.5021 24.155 18.8119 23.9368C18.3962 23.809 17.9956 23.6341 17.6181 23.4278C15.5654 22.3119 14.1486 20.1649 14.0717 17.6812L14.0334 14.5252C14.0333 14.5174 14.0332 14.5096 14.0331 14.5018L14.0045 12.1348L21.0274 12.0497C22.8163 12.028 24.4072 11.1415 25.3911 9.80133L25.404 10.8716C25.4059 12.317 26.4751 13.5072 27.8529 13.7249ZM22.6822 21.5928C22.6854 21.8584 22.4693 22.0798 22.2037 22.083L20.1336 22.1081C19.868 22.1113 19.6466 21.8953 19.6433 21.6296C19.6401 21.364 19.8562 21.1427 20.1218 21.1394L22.192 21.1144C22.4654 21.111 22.679 21.3272 22.6822 21.5928ZM11.8576 6.47288C11.8289 4.10587 13.735 2.15294 16.1021 2.12426L20.8908 2.06623C22.0157 2.0526 23.1227 2.49234 23.9291 3.2795C24.9015 4.22092 25.332 5.57517 25.2232 6.91253C25.2031 7.18623 25.1518 7.46031 25.0768 7.71905C24.957 8.15022 24.7743 8.5509 24.5365 8.91318C23.777 10.0709 22.4738 10.8446 20.9895 10.8626L12.662 10.9635C12.5527 10.9648 12.4508 10.9426 12.3644 10.9046C12.0974 10.7906 11.9067 10.5273 11.903 10.2226L11.8576 6.47288ZM12.8092 12.1493L12.8199 13.032C12.7024 13.0022 12.5851 12.9958 12.4601 12.9973L12.382 12.9983L12.3716 12.1389C12.3794 12.1388 12.583 12.1754 12.8092 12.1493ZM11.2592 18.3482C11.0639 18.3506 10.8979 18.1885 10.8955 17.9932L10.854 14.5638C10.8516 14.3685 11.0137 14.2024 11.209 14.2001L11.2168 14.2L12.4823 14.1846C12.6776 14.1823 12.8436 14.3443 12.846 14.5396L12.8876 17.9691C12.8881 18.0159 12.8809 18.0629 12.8657 18.1021C12.8127 18.2356 12.6888 18.3309 12.5404 18.3327L11.2592 18.3482ZM12.499 22.0131L12.4688 19.5211L12.547 19.5202C12.7032 19.5183 12.8513 19.493 12.9914 19.4445C13.0384 19.4595 13.0854 19.4668 13.1325 19.4818C13.7389 21.8106 15.3794 23.7283 17.5321 24.7101L16.5999 25.7996L16.389 25.8022C14.2642 25.8358 12.5247 24.1302 12.499 22.0131ZM18.0548 33.6732C17.9696 33.7368 17.8836 33.73 17.8365 33.7149C17.7974 33.7076 17.7267 33.6772 17.679 33.6075L16.0671 28.2516L17.7001 26.3254L20.68 31.7428L18.0548 33.6732ZM21.2568 30.3373L18.3408 25.0363C18.4977 25.0891 18.6545 25.1341 18.8191 25.179C20.3708 25.5664 22.0737 25.538 23.5991 25.0429C23.7547 24.9941 23.9103 24.9376 24.0658 24.8732L21.272 30.3059L21.2568 30.3373Z" fill="black"/>
<path d="M25.2385 37.1881C24.9104 37.1921 24.648 37.4609 24.652 37.789C24.656 38.1171 24.9248 38.3795 25.2529 38.3755L30.7213 38.3093C31.0494 38.3053 31.3118 38.0365 31.3078 37.7084C31.3038 37.3803 31.035 37.1179 30.7069 37.1219L25.2385 37.1881Z" fill="black"/>
</g>
<defs>
<clipPath id="clip0">
<rect width="40" height="40" fill="white" transform="translate(0.916916 1.12073) rotate(-0.694254)"/>
</clipPath>
</defs>
</svg>
