<svg width="512" height="512" viewBox="0 0 512 512" fill="none" xmlns="http://www.w3.org/2000/svg">
<path d="M488.8 323.1H425.6C422.8 323.1 420.6 325.4 420.6 328.1V339.5C420.6 341.1 421.4 342.6 422.6 343.5C423.4 342.9 424.5 342.5 425.6 342.5H488.8C489.9 342.5 490.9 342.9 491.8 343.5C493 342.6 493.8 341.1 493.8 339.5V328.1C493.8 325.3 491.6 323.1 488.8 323.1Z" fill="white"/>
<path d="M493.6 360.1C493.7 359.7 493.8 359.2 493.8 358.8V347.4C493.8 344.6 491.5 342.4 488.8 342.4H425.6C422.8 342.4 420.6 344.7 420.6 347.4V358.8C420.6 359.3 420.7 359.7 420.8 360.1H493.6Z" fill="#B1E8FF"/>
<path d="M409.9 426.9V447.7C409.9 450.5 412.2 452.7 414.9 452.7H423.9C426.7 452.7 428.9 450.4 428.9 447.7V426.9H409.9Z" fill="#FFAF68"/>
<path d="M485.5 447.7C485.5 450.5 487.8 452.7 490.5 452.7H499.5C502.3 452.7 504.5 450.4 504.5 447.7V426.9H485.5V447.7Z" fill="#FFAF68"/>
<path d="M504.5 405.7H409.9V426.9H504.5V405.7Z" fill="#CB7C52"/>
<path d="M499.4 360.1H415C412.2 360.1 409.9 362.4 409.9 365.2V405.7H504.5V365.2C504.5 362.4 502.2 360.1 499.4 360.1Z" fill="#AB5436"/>
<path d="M75.8 447.6V429.2H20.1C17.3 429.2 15.1 431.5 15.1 434.2V447.8C15.1 450.6 17.4 452.8 20.1 452.8H76.1C77 452.8 77.8 452.5 78.5 452.1C76.9 451.2 75.8 449.5 75.8 447.6Z" fill="#63C3EA"/>
<g opacity="0.1">
<path opacity="0.1" d="M37 447.7V434.1C37 431.3 39.3 429.1 42 429.1H20.1C17.3 429.1 15.1 431.4 15.1 434.1V447.7C15.1 450.5 17.4 452.7 20.1 452.7H42C39.3 452.7 37 450.5 37 447.7Z" fill="black"/>
</g>
<path d="M88.8 230.9C88.8 233.7 86.5 235.9 83.8 235.9H12.5C9.7 235.9 7.5 233.6 7.5 230.9V140.1C7.5 137.3 9.8 135.1 12.5 135.1H83.8C86.6 135.1 88.8 137.4 88.8 140.1V230.9Z" fill="#FF9F3D"/>
<g opacity="0.1">
<path opacity="0.1" d="M29 230.9V140.1C29 137.3 31.3 135.1 34 135.1H12.5C9.7 135.1 7.5 137.4 7.5 140.1V230.9C7.5 233.7 9.8 235.9 12.5 235.9H34C31.3 235.9 29 233.6 29 230.9Z" fill="black"/>
</g>
<path d="M361.8 268.1H121.4C115.9 268.1 111.4 272.6 111.4 278.1V338C116.5 338.5 120.6 342.9 120.6 348.1V375.5H362.7V348.1C362.7 342.8 366.7 338.5 371.9 338V278.1C371.8 272.6 367.3 268.1 361.8 268.1Z" fill="#FFBB4A"/>
<path opacity="0.1" d="M120.5 375.6H134.4C133.5 374.1 133 372.4 133 370.5V278.1C133 272.6 137.5 268.1 143 268.1H121.4C115.9 268.1 111.4 272.6 111.4 278.1V338C116.5 338.5 120.6 342.9 120.6 348.1V375.6H120.5Z" fill="black"/>
<path d="M154.1 375.6H203C204.8 374.8 206 373.1 206 371V326C206 323.2 203.7 321 201 321H156.1C153.3 321 151.1 323.3 151.1 326V371C151.1 373 152.3 374.8 154.1 375.6Z" fill="#3EAF91"/>
<path d="M284.3 375.6H333.2C335 374.8 336.2 373.1 336.2 371V326C336.2 323.2 333.9 321 331.2 321H286.3C283.5 321 281.3 323.3 281.3 326V371C281.3 373 282.5 374.8 284.3 375.6Z" fill="#3EAF91"/>
<path d="M362.6 375.6H120.5V427.1H362.6V375.6Z" fill="#FF9F3D"/>
<path d="M110.4 338H86C80.4 338 75.8 342.6 75.8 348.2V447.6C75.8 450.4 78.1 452.7 80.9 452.7H115.5C118.3 452.7 120.6 450.4 120.6 447.6V348.2C120.5 342.6 116 338 110.4 338Z" fill="#FCC96C"/>
<g opacity="0.1">
<path opacity="0.1" d="M97.2 447.6V348.2C97.2 342.6 101.8 338 107.4 338H86C80.4 338 75.8 342.6 75.8 348.2V447.6C75.8 450.4 78.1 452.7 80.9 452.7H102.4C99.5 452.7 97.2 450.4 97.2 447.6Z" fill="black"/>
</g>
<path d="M397.2 338H372.8C367.2 338 362.6 342.6 362.6 348.2V447.6C362.6 450.4 364.9 452.7 367.7 452.7H402.3C405.1 452.7 407.4 450.4 407.4 447.6V348.2C407.4 342.6 402.8 338 397.2 338Z" fill="#FCC96C"/>
<g opacity="0.1">
<path opacity="0.1" d="M379 447.6V348.2C379 342.6 383.6 338 389.2 338H372.8C367.2 338 362.6 342.6 362.6 348.2V447.6C362.6 450.4 364.9 452.7 367.7 452.7H384.1C381.3 452.7 379 450.4 379 447.6Z" fill="black"/>
</g>
<path d="M354 82.3H129.2C126.3 82.3 123.9 84.7 123.9 87.6V211.7C123.9 214.6 126.3 217 129.2 217H354C356.9 217 359.3 214.6 359.3 211.7V87.6C359.3 84.7 356.9 82.3 354 82.3Z" fill="#AB5436"/>
<path d="M338 103.5H145.1V195.8H338V103.5Z" fill="#B1E8FF"/>
<path d="M330 195.8C331.6 195.8 332.3 194.7 331.4 193.3L300.5 146.1C299.6 144.7 298.1 144.7 297.2 146.1L266.3 193.3C265.4 194.7 266 195.8 267.7 195.8H330Z" fill="#86D5B5"/>
<g opacity="0.1">
<path opacity="0.1" d="M162 103.5H145.1V195.8H162V103.5Z" fill="black"/>
</g>
<path d="M409.8 268C408.6 268 407.6 267.2 407.3 266.1C403.1 252.6 400.3 249.7 386.9 245.4C385.8 245 385 244 385 242.8C385 241.6 385.8 240.6 386.9 240.2C400.3 236 403.2 233.1 407.3 219.5C407.6 218.4 408.7 217.6 409.8 217.6C411 217.6 412 218.4 412.3 219.5C416.5 233.1 419.3 235.9 432.7 240.2C433.8 240.6 434.6 241.6 434.6 242.8C434.6 244 433.8 245 432.7 245.4C419.3 249.6 416.4 252.5 412.3 266.1C412 267.2 411 268 409.8 268Z" fill="#FFBB4A"/>
<path d="M446.5 161C445.2 161 444.1 160.2 443.7 158.9C439.1 143.9 435.9 140.7 421.1 136C419.9 135.6 419 134.5 419 133.2C419 131.9 419.8 130.7 421.1 130.4C435.9 125.7 439.1 122.5 443.7 107.5C444.1 106.3 445.2 105.4 446.5 105.4C447.8 105.4 448.9 106.3 449.3 107.5C453.9 122.5 457.1 125.7 471.9 130.4C473.1 130.8 474 131.9 474 133.2C474 134.5 473.2 135.7 471.9 136C457.1 140.7 453.9 143.9 449.3 158.9C448.9 160.2 447.8 161 446.5 161Z" fill="#FFBB4A"/>
<path d="M77 100.9C76 100.9 75.2 100.3 74.9 99.3001C71.4 88.1001 69.1 85.7 58 82.2C57.1 81.9 56.5 81 56.5 80.1C56.5 79.1 57.1 78.3 58 78C69.1 74.5 71.5 72.1001 74.9 60.9001C75.2 60.0001 76 59.3 77 59.3C78 59.3 78.8 59.9001 79.1 60.9001C82.6 72.1001 84.9 74.5 96 78C96.9 78.3 97.5 79.2 97.5 80.1C97.5 81.1 96.9 81.9 96 82.2C84.9 85.7 82.6 88.1001 79.1 99.3001C78.8 100.2 78 100.9 77 100.9Z" fill="#FFBB4A"/>
<path d="M242.9 123.7C242 122.3 240.5 122.3 239.6 123.7L194.1 193.3C193.2 194.7 193.8 195.8 195.5 195.8H287C288.6 195.8 289.3 194.7 288.4 193.3L242.9 123.7Z" fill="#3EAF91"/>
<path d="M186.6 145.1C185.7 143.7 184.2 143.7 183.3 145.1L151.8 193.3C150.9 194.7 151.5 195.8 153.2 195.8H216.8C218.4 195.8 219.1 194.7 218.2 193.3L186.6 145.1Z" fill="#86D5B5"/>
<path d="M447.5 393.8H466.8C470.9 393.8 474.3 390.4 474.3 386.3C474.3 382.2 470.9 378.8 466.8 378.8H447.5C443.4 378.8 440 382.2 440 386.3C440 390.4 443.4 393.8 447.5 393.8Z" fill="black"/>
<path d="M501.3 352.8V328.1C501.3 321.2 495.7 315.6 488.8 315.6H425.6C418.7 315.6 413.1 321.2 413.1 328.1C413.1 328.1 413.1 340.2 413.1 340.6C410.2 334.7 404.2 330.6 397.2 330.6H379.3V278.2C379.3 268.6 371.4 260.7 361.8 260.7H121.4C111.8 260.7 103.9 268.6 103.9 278.2V330.6H86C76.3 330.6 68.3 338.5 68.3 348.3V421.8H55.6V243.4H83.7C90.6 243.4 96.2 237.8 96.2 230.9V202C96.2 197.9 92.8 194.5 88.7 194.5C84.6 194.5 81.2 197.9 81.2 202V228.4H15V142.6H81.3V165C81.3 169.1 84.7 172.5 88.8 172.5C92.9 172.5 96.3 169.1 96.3 165V140.1C96.3 133.2 90.7 127.6 83.8 127.6H12.5C5.6 127.6 0 133.2 0 140.1V230.9C0 237.8 5.6 243.4 12.5 243.4H40.6V421.7H20.1C13.2 421.7 7.6 427.3 7.6 434.2V447.8C7.6 454.7 13.2 460.3 20.1 460.3L115.4 460.2C122.3 460.2 128 454.6 128 447.6V434.6H294C298.1 434.6 301.5 431.2 301.5 427.1C301.5 423 298.1 419.6 294 419.6H128V383.2H355.1V419.6H334C329.9 419.6 326.5 423 326.5 427.1C326.5 431.2 329.9 434.6 334 434.6H355.1V447.6C355.1 454.5 360.7 460.2 367.7 460.2H423.9C430.8 460.2 436.4 454.6 436.4 447.7V434.4H478V447.7C478 454.6 483.6 460.2 490.5 460.2H499.5C506.4 460.2 512 454.6 512 447.7V426.9V404.5V365.2C512 358.9 507.4 353.7 501.3 352.8ZM68.3 445.2H22.6V436.6H68.3V445.2V445.2ZM113 445.2H83.3V348.2C83.3 346.7 84.5 345.5 86 345.5H110.4C111.8 345.5 113.1 346.7 113.1 348.2C113 348.2 113 445.2 113 445.2ZM198.5 368.1H158.6V328.6H198.5V368.1ZM328.7 368.1H288.8V328.6H328.7V368.1ZM343.7 368.1V326.1C343.7 319.2 338.1 313.6 331.2 313.6H286.3C279.4 313.6 273.8 319.2 273.8 326.1V368.1H249.1V325C249.1 320.9 245.7 317.5 241.6 317.5C237.5 317.5 234.1 320.9 234.1 325V368.1H213.5V326.1C213.5 319.2 207.9 313.6 201 313.6H156.1C149.2 313.6 143.6 319.2 143.6 326.1V368.1H128V348.2C128 341.5 124.3 335.7 118.8 332.7V278.1C118.8 276.7 119.9 275.6 121.3 275.6H234V292C234 296.1 237.4 299.5 241.5 299.5C245.6 299.5 249 296.1 249 292V275.6H361.7C363.1 275.6 364.2 276.7 364.2 278.1V332.7C358.7 335.7 355 341.5 355 348.2V368.1H343.7ZM399.9 445.2H370.1V348.2C370.1 346.7 371.3 345.5 372.8 345.5H397.2C398.6 345.5 399.9 346.7 399.9 348.2V445.2V445.2ZM428.1 330.6H486.3V334.9H428.1V330.6ZM428.1 349.9H486.3V352.6H428.1V349.9ZM421.4 445.2H417.4V434.4H421.4V445.2ZM497 445.2H493V434.4H497V445.2ZM497 419.4H417.4V413.2H497V419.4ZM497 398.2H417.4V367.6H497V398.2Z" fill="black"/>
<path d="M129.2 224.5H354C361.1 224.5 366.8 218.8 366.8 211.7V87.6C366.8 80.5 361.1 74.8 354 74.8H129.2C122.1 74.8 116.4 80.5 116.4 87.6V211.7C116.4 218.8 122.2 224.5 129.2 224.5ZM131.4 89.8H351.7V209.5H131.4V89.8Z" fill="black"/>
<path d="M384.6 252.6C395.6 256.1 396.7 257.1 400.1 268.3C401.4 272.6 405.3 275.5 409.8 275.5C414.3 275.5 418.2 272.6 419.5 268.3C423 257.1 424 256.1 435 252.6C439.3 251.3 442.1 247.4 442.1 242.9C442.1 238.4 439.2 234.5 435 233.2C424 229.7 422.9 228.7 419.5 217.5C418.2 213.2 414.3 210.3 409.8 210.3C405.3 210.3 401.4 213.2 400.1 217.5C396.6 228.7 395.6 229.7 384.6 233.2C380.3 234.5 377.5 238.5 377.5 242.9C377.5 247.3 380.4 251.3 384.6 252.6ZM409.8 233.4C412.2 237.6 415.1 240.5 419.3 242.9C415.1 245.3 412.2 248.2 409.8 252.4C407.4 248.2 404.5 245.3 400.3 242.9C404.6 240.5 407.5 237.6 409.8 233.4Z" fill="black"/>
<path d="M418.8 143.2C431.3 147.1 432.6 148.5 436.5 161.1C437.8 165.5 441.9 168.5 446.5 168.5C451.1 168.5 455.1 165.5 456.5 161.1C460.4 148.4 461.7 147.1 474.2 143.2C478.6 141.8 481.5 137.8 481.5 133.2C481.5 128.6 478.6 124.6 474.2 123.2C461.7 119.3 460.4 117.9 456.5 105.3C455.1 100.9 451.1 97.9 446.5 97.9C441.9 97.9 437.9 100.9 436.5 105.3C432.6 118 431.3 119.3 418.8 123.2C414.4 124.6 411.5 128.6 411.5 133.2C411.5 137.8 414.4 141.8 418.8 143.2ZM446.5 121C449.4 126.7 453 130.2 458.6 133.2C452.9 136.1 449.4 139.7 446.5 145.4C443.6 139.7 440 136.2 434.4 133.2C440 130.3 443.6 126.7 446.5 121Z" fill="black"/>
<path d="M55.7 89.3C64.4 92 65 92.6 67.7 101.4C69 105.5 72.7 108.3 77 108.3C81.3 108.3 85 105.5 86.3 101.4C89 92.6 89.6 92 98.3 89.2C102.4 87.9 105.1 84.2 105.1 79.9C105.1 75.6 102.4 71.9 98.3 70.6C89.6 67.9 89 67.3 86.3 58.4C85 54.3 81.3 51.6 77 51.6C72.7 51.6 69 54.4 67.7 58.5C65 67.3 64.4 67.9 55.7 70.7C51.6 72 48.9 75.7 48.9 80C48.9 84.3 51.7 88.1 55.7 89.3ZM77 74.6C78.5 76.8 80.2 78.5 82.4 80C80.2 81.5 78.5 83.2 77 85.4C75.5 83.2 73.8 81.5 71.6 80C73.8 78.6 75.5 76.8 77 74.6Z" fill="black"/>
<path d="M338.1 96H145.1C141 96 137.6 99.4 137.6 103.5V195.8C137.6 199.9 141 203.3 145.1 203.3H338C342.1 203.3 345.5 199.9 345.5 195.8V103.5C345.6 99.4 342.2 96 338.1 96ZM164 188.3L185 156.3L206 188.3H164ZM223.8 188.3L215 174.9L241.2 134.9L276.1 188.3H223.8ZM294.1 188.3L286.3 176.4L298.8 157.2L319.1 188.2L294.1 188.3ZM330.6 178.4L306.8 142C305 139.2 302 137.6 298.9 137.6C295.8 137.6 292.8 139.3 291 142L277.4 162.8L249.2 119.6C247.4 116.8 244.4 115.2 241.3 115.2C238.2 115.2 235.2 116.9 233.4 119.6L206.2 161.2L192.9 141C191.1 138.2 188.1 136.6 185 136.6C181.9 136.6 178.9 138.3 177.1 141L152.7 178.4V111H330.6V178.4Z" fill="black"/>
<path d="M283.9 491.6L261.7 503.3C258.1 505.2 253.9 505.2 250.3 503.3L228.1 491.6C106.1 427.5 30.9 309.1 30.9 181V102.8C30.9 96.6 35.5 91.3 41.7 90.7C83.8 86.3 117.2 56.1 122.5 18.1C123.4 12 128.5 7.40002 134.6 7.40002H377.4C383.6 7.40002 388.7 12 389.5 18.1C394.8 56.2 428.3 86.3 470.3 90.7C476.5 91.3 481.1 96.6 481.1 102.8V181C481.1 309.1 405.9 427.5 283.9 491.6Z" fill="#E1E6E9"/>
<path d="M470.3 90.6C428.2 86.2 394.8 56 389.5 18C388.6 11.9 383.5 7.30005 377.4 7.30005H360.9C363.3 60.1 400.9 97.6 441.6 101.9C447.8 102.5 452.4 107.8 452.4 114V192.2C452.4 320.3 377.2 438.6 255.2 502.8L252.6 504.1C255.6 505 258.9 504.7 261.7 503.2L283.9 491.5C405.9 427.4 481.1 309 481.1 180.9V102.7C481.1 96.6 476.5 91.3 470.3 90.6Z" fill="#CBCBCB"/>
<path d="M247.8 460.2C192.5 431.1 146.4 389.3 114.7 339.3C83.3 289.9 66.7 233.7 66.7 176.9V132.5C66.7 126.1 70.6 120.3 76.6 117.9C109.5 104.9 136.1 80.4 150.6 49.9C153.2 44.5 158.7 41 164.7 41H347.3C353.3 41 358.9 44.4 361.4 49.9C375.9 80.4 402.5 104.9 435.4 117.9C441.4 120.3 445.3 126.1 445.3 132.5V176.9C445.3 233.7 428.7 289.9 397.3 339.3C365.6 389.3 319.5 431.1 264.2 460.2L263.3 460.7C258.7 463.1 253.2 463.1 248.7 460.7L247.8 460.2Z" fill="#4AD194"/>
<path d="M435.4 117.9C435.1 117.8 434.9 117.7 434.6 117.6C434.2 117.4 433.7 117.3 433.3 117.1C432.6 116.8 431.8 116.5 431.1 116.2C430.7 116 430.3 115.8 429.9 115.7C429.1 115.4 428.4 115 427.6 114.7C427.3 114.5 426.9 114.4 426.6 114.2C425.5 113.7 424.4 113.1 423.3 112.6C423.2 112.6 423.1 112.5 423.1 112.5C422.1 112 421.1 111.5 420.1 110.9C419.8 110.7 419.4 110.5 419.1 110.3C418.4 109.9 417.7 109.5 417 109.1C416.6 108.9 416.2 108.6 415.8 108.4C415.1 108 414.5 107.6 413.8 107.2C413.4 107 413 106.7 412.7 106.5C412 106.1 411.3 105.6 410.6 105.2C410.3 105 409.9 104.8 409.6 104.6C408.7 104 407.7 103.4 406.8 102.7C406.7 102.7 406.7 102.6 406.6 102.6C405.6 101.9 404.6 101.2 403.7 100.5C403.4 100.3 403.1 100.1 402.8 99.8C402.1 99.3 401.5 98.8 400.8 98.3C400.4 98 400.1 97.8 399.8 97.5C399.2 97 398.6 96.6 398 96.1C397.7 95.8 397.3 95.5 397 95.3C396.4 94.8 395.8 94.3 395.2 93.8C394.9 93.5 394.6 93.3 394.3 93C393.6 92.4 392.8 91.7 392.1 91C392 90.9 391.8 90.7 391.6 90.6C390.7 89.8 389.9 89 389 88.2C388.8 88 388.5 87.7 388.3 87.5C387.7 86.9 387.1 86.3 386.5 85.7C386.2 85.4 385.9 85.1 385.6 84.8C385.1 84.3 384.5 83.7 384 83.1C383.7 82.8 383.4 82.4 383.1 82.1C382.6 81.5 382.1 81 381.6 80.4C381.3 80.1 381 79.8 380.8 79.5C380.2 78.8 379.6 78.1 379 77.4C378.8 77.2 378.7 77 378.5 76.8C377.8 75.9 377 75 376.3 74.1C376.1 73.9 375.9 73.6 375.8 73.4C375.3 72.7 374.7 72 374.2 71.3C374 71 373.7 70.6 373.5 70.3C373.1 69.7 372.6 69.1 372.2 68.4C371.9 68 371.7 67.7 371.4 67.3C371 66.7 370.6 66 370.1 65.4C369.9 65 369.6 64.7 369.4 64.3C368.9 63.6 368.5 62.9 368 62.1C367.8 61.8 367.7 61.6 367.5 61.3C366.9 60.3 366.3 59.3 365.7 58.3C365.6 58.1 365.5 57.9 365.3 57.7C364.8 56.9 364.4 56.1 364 55.3C363.8 54.9 363.6 54.6 363.4 54.2C363 53.5 362.7 52.8 362.3 52.1C362.1 51.7 361.9 51.3 361.7 50.9C361.6 50.6 361.4 50.3 361.3 50C358.7 44.6 353.2 41.1 347.2 41.1H256V462.5C258.5 462.5 261 461.9 263.3 460.7L264.2 460.2C319.5 431.1 365.6 389.3 397.3 339.3C428.7 289.9 445.3 233.7 445.3 176.9V132.5C445.3 126.1 441.4 120.3 435.4 117.9Z" fill="#35B79E"/>
<path d="M435.4 117.9C435.1 117.8 434.9 117.7 434.6 117.6C434.2 117.4 433.7 117.3 433.3 117.1C432.6 116.8 431.8 116.5 431.1 116.2C430.7 116 430.3 115.8 429.9 115.7C429.1 115.4 428.4 115 427.6 114.7C427.3 114.5 426.9 114.4 426.6 114.2C425.5 113.7 424.4 113.1 423.3 112.6C423.2 112.6 423.1 112.5 423.1 112.5C422.1 112 421.1 111.5 420.1 110.9C419.8 110.7 419.4 110.5 419.1 110.3C418.4 109.9 417.7 109.5 417 109.1C416.6 108.9 416.2 108.6 415.8 108.4C415.1 108 414.5 107.6 413.8 107.2C413.4 107 413 106.7 412.7 106.5C412 106.1 411.3 105.6 410.6 105.2C410.3 105 409.9 104.8 409.6 104.6C408.7 104 407.7 103.4 406.8 102.7C406.7 102.7 406.7 102.6 406.6 102.6C405.6 101.9 404.6 101.2 403.7 100.5C403.4 100.3 403.1 100.1 402.8 99.8C402.1 99.3 401.5 98.8 400.8 98.3C400.4 98 400.1 97.8 399.8 97.5C399.2 97 398.6 96.6 398 96.1C397.7 95.8 397.3 95.5 397 95.3C396.4 94.8 395.8 94.3 395.2 93.8C394.9 93.5 394.6 93.3 394.3 93C393.6 92.4 392.8 91.7 392.1 91C392 90.9 391.8 90.7 391.6 90.6C390.7 89.8 389.9 89 389 88.2C388.8 88 388.5 87.7 388.3 87.5C387.7 86.9 387.1 86.3 386.5 85.7C386.2 85.4 385.9 85.1 385.6 84.8C385.1 84.3 384.5 83.7 384 83.1C383.7 82.8 383.4 82.4 383.1 82.1C382.6 81.5 382.1 81 381.6 80.4C381.3 80.1 381 79.8 380.8 79.5C380.2 78.8 379.6 78.1 379 77.4C378.8 77.2 378.7 77 378.5 76.8C377.8 75.9 377 75 376.3 74.1C376.1 73.9 375.9 73.6 375.8 73.4C375.3 72.7 374.7 72 374.2 71.3C374 71 373.7 70.6 373.5 70.3C373.1 69.7 372.6 69.1 372.2 68.4C371.9 68 371.7 67.7 371.4 67.3C371 66.7 370.6 66 370.1 65.4C369.9 65 369.6 64.7 369.4 64.3C368.9 63.6 368.5 62.9 368 62.1C367.8 61.8 367.7 61.6 367.5 61.3C366.9 60.3 366.3 59.3 365.7 58.3C365.6 58.1 365.5 57.9 365.3 57.7C364.8 56.9 364.4 56.1 364 55.3C363.8 54.9 363.6 54.6 363.4 54.2C363 53.5 362.7 52.8 362.3 52.1C362.1 51.7 361.9 51.3 361.7 50.9C361.6 50.6 361.4 50.3 361.3 50C358.7 44.6 353.2 41.1 347.2 41.1H322C325.3 45.2 328.9 50.7 333.1 57.9C333.3 58.2 333.4 58.5 333.5 58.8C333.7 59.2 333.9 59.6 334.1 60C334.4 60.7 334.8 61.4 335.2 62.1C335.4 62.5 335.6 62.8 335.8 63.2C336.2 64 336.7 64.8 337.1 65.6C337.2 65.8 337.3 66 337.5 66.2C338.1 67.2 338.7 68.2 339.3 69.2C339.5 69.5 339.6 69.7 339.8 70C340.2 70.7 340.7 71.5 341.2 72.2C341.4 72.6 341.7 72.9 341.9 73.3C342.3 73.9 342.7 74.6 343.2 75.2C343.5 75.6 343.7 75.9 344 76.3C344.4 76.9 344.9 77.5 345.3 78.2C345.5 78.5 345.8 78.9 346 79.2C346.5 79.9 347 80.6 347.6 81.3C347.8 81.5 348 81.8 348.1 82C348.8 82.9 349.6 83.8 350.3 84.7C350.5 84.9 350.6 85.1 350.8 85.3C351.4 86 352 86.7 352.6 87.4C352.9 87.7 353.1 88 353.4 88.3C353.9 88.9 354.4 89.5 354.9 90C355.2 90.3 355.5 90.7 355.8 91C356.3 91.6 356.8 92.1 357.4 92.7C357.7 93 358 93.3 358.3 93.6C358.9 94.2 359.5 94.8 360.1 95.4C360.3 95.6 360.6 95.9 360.8 96.1C361.6 96.9 362.5 97.7 363.4 98.5C363.5 98.6 363.7 98.8 363.9 98.9C364.6 99.6 365.4 100.2 366.1 100.9C366.4 101.2 366.7 101.4 367 101.7C367.6 102.2 368.2 102.7 368.8 103.2C369.1 103.5 369.5 103.8 369.8 104C370.4 104.5 371 105 371.6 105.4C371.9 105.7 372.3 105.9 372.6 106.2C373.3 106.7 373.9 107.2 374.6 107.7C374.9 107.9 375.2 108.1 375.5 108.4C376.5 109.1 377.4 109.8 378.4 110.5C378.5 110.5 378.5 110.6 378.6 110.6C379.5 111.2 380.4 111.9 381.4 112.5C381.7 112.7 382.1 112.9 382.4 113.1C383.1 113.5 383.8 114 384.5 114.4C384.9 114.6 385.3 114.9 385.6 115.1C386.3 115.5 386.9 115.9 387.6 116.3C388 116.5 388.4 116.8 388.8 117C389.5 117.4 390.2 117.8 390.9 118.2C391.2 118.4 391.6 118.6 391.9 118.8C392.9 119.3 393.9 119.8 394.9 120.4C395 120.4 395.1 120.5 395.1 120.5C396.2 121 397.3 121.6 398.4 122.1C398.7 122.3 399.1 122.4 399.4 122.6C400.2 123 400.9 123.3 401.7 123.6C402.1 123.8 402.5 124 402.9 124.1C403.6 124.4 404.3 124.7 405.1 125C405.5 125.2 406 125.4 406.4 125.5C406.7 125.6 406.9 125.7 407.2 125.8C413.2 128.2 417.1 134 417.1 140.4V184.8C417.1 241.6 400.5 297.8 369.1 347.2C341.2 391 302.4 432.9 256 462.1V462.5C258.5 462.5 261 461.9 263.3 460.7L264.2 460.2C319.5 431.1 365.6 389.3 397.3 339.3C428.7 289.9 445.3 233.7 445.3 176.9V132.5C445.3 126.1 441.4 120.3 435.4 117.9Z" fill="#1E9690"/>
<path d="M247.4 356.6L149.6 254C145.6 249.8 145.8 243.2 150 239.2L175.5 214.9C179.7 210.9 186.3 211.1 190.3 215.3L240.7 268.2C245.3 273 253.1 272.4 256.9 267L356.4 124.9C359.7 120.2 366.3 119 371 122.3L399.9 142.5C404.6 145.8 405.8 152.4 402.5 157.1L263.6 355.3C259.8 360.8 252 361.4 247.4 356.6Z" fill="#FFD278"/>
<path d="M469.9 266.3C466 265.2 462 267.4 460.8 271.3C434.2 362.1 370.2 438 280.5 485.1L258.3 496.8C256.9 497.5 255.2 497.6 253.7 496.8L231.5 485.1C142.4 438.2 78.5 362.8 51.6 272.6C50.4 268.7 46.4 266.5 42.5 267.7C38.6 268.9 36.4 272.9 37.6 276.8C51.4 323 74.6 365.7 106.5 403.7C138.8 442.1 178.6 473.9 224.7 498.1L246.9 509.8C249.7 511.3 252.9 512 256 512C259.1 512 262.2 511.3 265.1 509.8L287.3 498.1C333.6 473.8 373.5 441.8 405.9 403.1C438 364.8 461.1 321.9 474.8 275.4C476 271.5 473.8 267.4 469.9 266.3Z" fill="black"/>
<path d="M471.1 83.4C432.2 79.3 401.6 52 396.7 17C395.3 7.3 387 0 377.3 0H134.6C124.9 0 116.6 7.3 115.2 17C110.3 52 79.7 79.3 40.8 83.4C30.9 84.4 23.5 92.8 23.5 102.8V181C23.5 200.2 25.2 219.5 28.5 238.5C29.1 242.1 32.2 244.6 35.7 244.6C36.1 244.6 36.5 244.6 37 244.5C41 243.8 43.6 240 43 236C39.8 217.9 38.2 199.4 38.2 181.1V102.9C38.2 100.4 40.1 98.3 42.4 98.1C88 93.1 123.9 60.7 129.8 19C130.2 16.5 132.2 14.6 134.7 14.6H377.5C380 14.6 382 16.4 382.4 19C388.2 60.7 424.1 93.1 469.7 97.9C472.1 98.1 473.9 100.3 473.9 102.7V181C473.9 198.8 472.4 216.7 469.4 234.3C468.7 238.3 471.4 242.1 475.4 242.7C479.4 243.4 483.2 240.7 483.8 236.7C486.9 218.3 488.5 199.6 488.5 181V102.8C488.4 92.8 481 84.4 471.1 83.4Z" fill="black"/>
<path d="M244.4 466.7L245.3 467.2C248.7 469 252.3 469.8 256 469.8C259.7 469.8 263.4 468.9 266.7 467.2L267.6 466.7C324.1 437 371.1 394.3 403.5 343.2C435.6 292.6 452.6 235.1 452.6 176.9V132.5C452.6 123 446.9 114.6 438.1 111.1C406.7 98.7001 381.9 75.8 368 46.8C364.2 38.9 356.1 33.8 347.2 33.8H164.7C155.9 33.8 147.7 38.9 143.9 46.8C130.1 75.9 105.2 98.7001 73.8 111.1C65 114.6 59.3 123 59.3 132.5V176.9C59.3 235.1 76.3 292.6 108.4 343.2C140.9 394.3 187.9 437 244.4 466.7ZM74 176.9V132.5C74 129 76.1 126 79.3 124.7C114.1 110.9 141.8 85.5 157.2 53C158.6 50.1 161.5 48.3 164.7 48.3H347.3C350.5 48.3 353.5 50.1 354.8 53C370.2 85.4001 397.9 110.9 432.7 124.7C435.9 126 438 129 438 132.5V176.9C438 232.3 421.8 287.1 391.2 335.4C360.1 384.3 315.1 425.2 260.9 453.7L260 454.2C257.6 455.5 254.6 455.5 252.2 454.2L251.3 453.7C197.1 425.2 152 384.3 121 335.4C90.2 287.2 74 232.4 74 176.9Z" fill="black"/>
<path d="M255 367.1C255.4 367.1 255.9 367.1 256.4 367C261.7 366.6 266.6 363.8 269.7 359.5L408.6 161.2C411.3 157.3 412.4 152.6 411.6 147.9C410.8 143.2 408.2 139.1 404.3 136.4L375.4 116.2C371.5 113.5 366.8 112.4 362.1 113.2C357.4 114 353.3 116.6 350.6 120.5L251.1 262.6C250.3 263.7 249.3 263.9 248.7 263.9C248.1 263.9 247.1 263.9 246.2 262.9L195.8 210C189 202.9 177.7 202.6 170.6 209.4L145 233.8C141.6 237.1 139.6 241.5 139.5 246.3C139.4 251.1 141.1 255.6 144.4 259L242.2 361.6C245.5 365.2 250.1 367.1 255 367.1ZM154.1 246.6C154.1 246.1 154.3 245.2 155.1 244.4L180.6 220.1C181.2 219.5 182 219.2 182.8 219.2C183.6 219.2 184.5 219.5 185.1 220.2L235.5 273.1C239.2 277 244.4 279 249.7 278.6C255 278.2 259.9 275.4 263 271.1L362.5 129C363.5 127.6 365.5 127.2 366.9 128.2L395.8 148.4C396.7 149.1 397 150 397.1 150.4C397.2 150.9 397.2 151.8 396.6 152.8L257.6 351.1C256.8 352.2 255.8 352.4 255.2 352.4C254.6 352.4 253.6 352.4 252.7 351.4L154.9 248.8C154.1 248.1 154.1 247.1 154.1 246.6Z" fill="black"/>
</svg>
