<svg width="30" height="30" viewBox="0 0 30 30" fill="none" xmlns="http://www.w3.org/2000/svg">
<g clip-path="url(#clip0)">
<path d="M28.2129 1.38281H27.8437V1.01367C27.8437 0.738281 27.6211 0.515625 27.3457 0.515625C27.0703 0.515625 26.8476 0.738281 26.8476 1.01367V1.38281H26.4785C26.2031 1.38281 25.9805 1.60547 25.9805 1.88086C25.9805 2.15625 26.2031 2.37891 26.4785 2.37891H26.8476V2.74805C26.8476 3.02344 27.0703 3.24609 27.3457 3.24609C27.6211 3.24609 27.8437 3.02344 27.8437 2.74805V2.37891H28.2129C28.4883 2.37891 28.7109 2.15625 28.7109 1.88086C28.7051 1.60547 28.4883 1.38281 28.2129 1.38281Z" fill="#FFDA88"/>
<path d="M27.1699 5.16797H26.8008V4.79883C26.8008 4.52344 26.5781 4.30078 26.3027 4.30078C26.0273 4.30078 25.8047 4.52344 25.8047 4.79883V5.16797H25.4355C25.1602 5.16797 24.9375 5.39062 24.9375 5.66602C24.9375 5.94141 25.1602 6.16406 25.4355 6.16406H25.8047V6.5332C25.8047 6.80859 26.0273 7.03125 26.3027 7.03125C26.5781 7.03125 26.8008 6.80859 26.8008 6.5332V6.16406H27.1699C27.4453 6.16406 27.668 5.94141 27.668 5.66602C27.6621 5.39062 27.4453 5.16797 27.1699 5.16797Z" fill="#FFDA88"/>
<path d="M25.084 3.84375C25.084 4.16601 24.8262 4.42383 24.5039 4.42383C24.1816 4.42383 23.9238 4.16601 23.9238 3.84375C23.9238 3.52148 24.1816 3.26367 24.5039 3.26367C24.8262 3.26367 25.084 3.52148 25.084 3.84375Z" fill="#FFDA88"/>
<path d="M13.5352 17.291H3.25781C2.5957 17.291 2.05664 17.8301 2.05664 18.4922C2.05664 19.1543 2.5957 19.6934 3.25781 19.6934L4.57031 29.4551H12.2285L13.5352 19.6934C14.1973 19.6934 14.7363 19.1543 14.7363 18.4922C14.7363 17.8301 14.1973 17.291 13.5352 17.291Z" fill="#8EC0D6"/>
<path d="M3.42773 18.4922C3.42773 17.8301 3.9668 17.291 4.62891 17.291H3.25781C2.5957 17.291 2.05664 17.8301 2.05664 18.4922C2.05664 19.1543 2.5957 19.6934 3.25781 19.6934L4.57031 29.4551H5.94141L4.62891 19.6934C3.9668 19.6934 3.42773 19.1543 3.42773 18.4922Z" fill="#A9D2E0"/>
<path d="M7.96876 25.8809C7.84571 25.8809 7.7168 25.834 7.62305 25.7344L6.4629 24.5742C6.26954 24.3809 6.26954 24.0703 6.4629 23.877C6.65626 23.6836 6.9668 23.6836 7.16016 23.877L7.97462 24.6914L9.73829 22.9277C9.93165 22.7344 10.2422 22.7344 10.4356 22.9277C10.6289 23.1211 10.6289 23.4316 10.4356 23.625L8.32618 25.7344C8.22071 25.834 8.09766 25.8809 7.96876 25.8809Z" fill="#FFDA88"/>
<path d="M19.8633 1.62305C19.8633 1.00781 20.3613 0.515625 20.9707 0.515625C21.5859 0.515625 22.0781 1.01367 22.0781 1.62305V19.7578H19.8633V1.62305Z" fill="#8EC0D6"/>
<path d="M21.5273 0.667969C21.3633 0.574219 21.1758 0.515625 20.9707 0.515625C20.3555 0.515625 19.8633 1.01367 19.8633 1.62305V19.7578H20.9766V1.62305C20.9766 1.21289 21.1992 0.861328 21.5273 0.667969Z" fill="#A9D2E0"/>
<path d="M26.1094 20.6016C26.1094 21.0703 25.7285 21.4453 25.2656 21.4453H16.6816C16.2188 21.4453 15.8379 21.0645 15.8379 20.6016C15.8379 20.1328 16.2188 19.7578 16.6816 19.7578H25.2656C25.7344 19.7578 26.1094 20.1328 26.1094 20.6016Z" fill="#FFDA88"/>
<path d="M16.9453 20.6016C16.9453 20.1328 17.3262 19.7578 17.7891 19.7578H16.6816C16.2188 19.7578 15.8379 20.1387 15.8379 20.6016C15.8379 21.0703 16.2188 21.4453 16.6816 21.4453H17.7891C17.3262 21.4453 16.9453 21.0703 16.9453 20.6016Z" fill="#FFE2A9"/>
<path d="M25.2656 21.4453H16.6816V24.0645H25.2656V21.4453Z" fill="#8EC0D6"/>
<path d="M16.6816 24.0645C16.6816 24.0645 16.6816 26.5723 16.6816 27.416C16.6816 28.2598 16.8574 29.4551 18.3633 29.4551C19.8691 29.4551 24.7734 29.4551 25.6172 29.4551C26.4609 29.4551 26.9883 28.5 26.2442 27.7148C25.4942 26.9297 25.2656 26.8652 25.2656 24.0645H16.6816Z" fill="#FFDA88"/>
<path d="M17.9531 27.416C17.9531 26.5723 17.9531 24.0645 17.9531 24.0645H16.6816C16.6816 24.0645 16.6816 26.5723 16.6816 27.416C16.6816 28.2598 16.8574 29.4551 18.3633 29.4551C18.709 29.4551 19.0195 29.4551 19.6348 29.4551C18.1289 29.4551 17.9531 28.2598 17.9531 27.416Z" fill="#FFE2A9"/>
<path d="M24.0469 29.4492C24.0469 29.291 23.9766 29.1387 23.8476 29.0332C23.2676 28.5644 23.1445 27.0234 23.2031 26.1562C23.2266 25.8574 22.998 25.5996 22.6992 25.5762C22.4062 25.5586 22.1426 25.7812 22.1191 26.0801C22.1016 26.332 21.9902 28.3066 22.7695 29.4492H24.0469Z" fill="#FFC67B"/>
<path d="M20.9883 29.4492C20.9883 29.291 20.918 29.1387 20.7891 29.0332C20.209 28.5644 20.0859 27.0234 20.1445 26.1562C20.168 25.8574 19.9395 25.5996 19.6406 25.5762C19.3477 25.5586 19.084 25.7812 19.0606 26.0801C19.043 26.332 18.9316 28.3066 19.7109 29.4492H20.9883Z" fill="#FFC67B"/>
<path d="M17.9531 21.4453H16.6816V24.0645H17.9531V21.4453Z" fill="#A9D2E0"/>
<path d="M6.52734 14.4141C6.52734 14.7891 6.22266 15.0879 5.85352 15.0879C5.47852 15.0879 5.17969 14.7832 5.17969 14.4141C5.17969 14.0391 5.48437 13.7402 5.85352 13.7402C6.22852 13.7402 6.52734 14.0391 6.52734 14.4141Z" fill="#F4F4F4"/>
<path d="M8.81836 12.3105C8.81836 12.7383 8.47266 13.084 8.04492 13.084C7.61719 13.084 7.27148 12.7383 7.27148 12.3105C7.27148 11.8828 7.61719 11.5371 8.04492 11.5371C8.47266 11.5371 8.81836 11.8828 8.81836 12.3105Z" fill="#F4F4F4"/>
<path d="M11.1562 14.4141C11.1562 14.6895 10.9336 14.9121 10.6582 14.9121C10.3828 14.9121 10.1602 14.6895 10.1602 14.4141C10.1602 14.1387 10.3828 13.916 10.6582 13.916C10.9336 13.916 11.1562 14.1387 11.1562 14.4141Z" fill="#F4F4F4"/>
<path d="M28.2129 1.38281H27.8438V1.01367C27.8438 0.738281 27.6211 0.515625 27.3457 0.515625C27.0703 0.515625 26.8477 0.738281 26.8477 1.01367V1.38281H26.4785C26.2031 1.38281 25.9805 1.60547 25.9805 1.88086C25.9805 2.15625 26.2031 2.37891 26.4785 2.37891H26.8477V2.74805C26.8477 3.02344 27.0703 3.24609 27.3457 3.24609C27.6211 3.24609 27.8438 3.02344 27.8438 2.74805V2.37891H28.2129C28.4883 2.37891 28.7109 2.15625 28.7109 1.88086C28.7051 1.60547 28.4883 1.38281 28.2129 1.38281Z" fill="#161616"/>
<path d="M27.1699 5.16797H26.8008V4.79883C26.8008 4.52344 26.5781 4.30078 26.3027 4.30078C26.0273 4.30078 25.8047 4.52344 25.8047 4.79883V5.16797H25.4355C25.1602 5.16797 24.9375 5.39062 24.9375 5.66602C24.9375 5.94141 25.1602 6.16406 25.4355 6.16406H25.8047V6.5332C25.8047 6.80859 26.0273 7.03125 26.3027 7.03125C26.5781 7.03125 26.8008 6.80859 26.8008 6.5332V6.16406H27.1699C27.4453 6.16406 27.668 5.94141 27.668 5.66602C27.6621 5.39062 27.4453 5.16797 27.1699 5.16797Z" fill="#161616"/>
<path d="M25.084 3.84375C25.084 4.16601 24.8262 4.42383 24.5039 4.42383C24.1816 4.42383 23.9238 4.16601 23.9238 3.84375C23.9238 3.52148 24.1816 3.26367 24.5039 3.26367C24.8262 3.26367 25.084 3.52148 25.084 3.84375Z" fill="#161616"/>
<path d="M13.5352 20.2383H3.25781C2.29688 20.2383 1.51172 19.459 1.51172 18.4922C1.51172 17.5313 2.29102 16.7461 3.25781 16.7461H13.5352C14.4961 16.7461 15.2754 17.5254 15.2754 18.4922C15.2754 19.4531 14.4961 20.2383 13.5352 20.2383ZM3.25781 17.8359C2.89453 17.8359 2.60156 18.1289 2.60156 18.4922C2.60156 18.8555 2.89453 19.1484 3.25781 19.1484H13.5352C13.8984 19.1484 14.1914 18.8555 14.1914 18.4922C14.1914 18.1289 13.8984 17.8359 13.5352 17.8359H3.25781Z" fill="#161616"/>
<path d="M12.2227 30H4.56445C4.29492 30 4.06054 29.8008 4.02538 29.5313L3.8496 28.2129C3.80859 27.9141 4.01953 27.6445 4.31249 27.6035C4.60546 27.5625 4.88085 27.7734 4.92187 28.0664L5.0332 28.916H11.7422L12.9082 20.2383H3.8789L4.55859 25.3125C4.5996 25.6113 4.38867 25.8809 4.0957 25.9219C3.79687 25.9629 3.52734 25.752 3.48632 25.459L2.7246 19.7695C2.70117 19.6172 2.74804 19.459 2.85351 19.3418C2.95898 19.2246 3.10546 19.1543 3.26367 19.1543H13.5352C13.6934 19.1543 13.8398 19.2246 13.9453 19.3418C14.0508 19.459 14.0977 19.6172 14.0742 19.7695L12.7617 29.5313C12.7266 29.8008 12.498 30 12.2227 30Z" fill="#161616"/>
<path d="M6.52734 14.4141C6.52734 14.7891 6.22266 15.0879 5.85352 15.0879C5.47852 15.0879 5.17969 14.7832 5.17969 14.4141C5.17969 14.0391 5.48437 13.7402 5.85352 13.7402C6.22852 13.7402 6.52734 14.0391 6.52734 14.4141Z" fill="#161616"/>
<path d="M8.81836 12.3105C8.81836 12.7383 8.47266 13.084 8.04492 13.084C7.61719 13.084 7.27148 12.7383 7.27148 12.3105C7.27148 11.8828 7.61719 11.5371 8.04492 11.5371C8.47266 11.5371 8.81836 11.8828 8.81836 12.3105Z" fill="#161616"/>
<path d="M11.1562 14.4141C11.1562 14.6895 10.9336 14.9121 10.6582 14.9121C10.3828 14.9121 10.1602 14.6895 10.1602 14.4141C10.1602 14.1387 10.3828 13.916 10.6582 13.916C10.9336 13.916 11.1562 14.1387 11.1562 14.4141Z" fill="#161616"/>
<path d="M7.96875 25.8809C7.8457 25.8809 7.7168 25.834 7.62305 25.7344L6.46289 24.5742C6.26953 24.3809 6.26953 24.0703 6.46289 23.877C6.65625 23.6836 6.9668 23.6836 7.16016 23.877L7.97461 24.6914L9.73828 22.9277C9.93164 22.7344 10.2422 22.7344 10.4355 22.9277C10.6289 23.1211 10.6289 23.4316 10.4355 23.625L8.32617 25.7344C8.2207 25.834 8.09766 25.8809 7.96875 25.8809Z" fill="#161616"/>
<path d="M22.084 20.3027H19.8633C19.5645 20.3027 19.3184 20.0625 19.3184 19.7578V1.62305C19.3184 0.708984 20.0566 -0.0292969 20.9707 -0.0292969C21.8789 -0.0292969 22.623 0.708984 22.623 1.62305V13.7871C22.623 14.0859 22.3828 14.332 22.0781 14.332C21.7793 14.332 21.5332 14.0918 21.5332 13.7871V1.62305C21.5332 1.3125 21.2812 1.05469 20.9648 1.05469C20.6543 1.05469 20.3965 1.30664 20.3965 1.62305V19.2129H21.5332V16.541C21.5332 16.2422 21.7734 15.9961 22.0781 15.9961C22.377 15.9961 22.623 16.2363 22.623 16.541V19.7578C22.623 20.0566 22.3828 20.3027 22.084 20.3027Z" fill="#161616"/>
<path d="M25.2656 21.9902H16.6816C15.9141 21.9902 15.293 21.3691 15.293 20.6016C15.293 19.834 15.9141 19.2129 16.6816 19.2129H25.2656C26.0332 19.2129 26.6543 19.834 26.6543 20.6016C26.6543 21.3691 26.0332 21.9902 25.2656 21.9902ZM16.6816 20.3027C16.5176 20.3027 16.3828 20.4375 16.3828 20.6074C16.3828 20.7715 16.5176 20.9121 16.6816 20.9121H25.2656C25.4297 20.9121 25.5645 20.7773 25.5645 20.6074C25.5645 20.4434 25.4297 20.3027 25.2656 20.3027H16.6816Z" fill="#161616"/>
<path d="M25.2656 24.6094H16.6816C16.3828 24.6094 16.1367 24.3691 16.1367 24.0645V21.4453C16.1367 21.1465 16.377 20.9004 16.6816 20.9004H25.2656C25.5645 20.9004 25.8105 21.1406 25.8105 21.4453V24.0645C25.8105 24.3633 25.5645 24.6094 25.2656 24.6094ZM17.2207 23.5195H24.7207V21.9844H17.2207V23.5195Z" fill="#161616"/>
<path d="M25.6172 30H18.3633C17.5313 30 16.1367 29.666 16.1367 27.416V24.0645C16.1367 23.7656 16.377 23.5195 16.6816 23.5195H25.2656C25.5645 23.5195 25.8106 23.7598 25.8106 24.0645C25.8106 26.4844 25.957 26.6367 26.5137 27.2109L26.6426 27.3457C27.1348 27.8613 27.2813 28.5176 27.0352 29.0977C26.7891 29.6426 26.2383 30 25.6172 30ZM17.2207 24.6094V27.416C17.2207 28.6582 17.6777 28.916 18.3633 28.916H25.6172C25.8047 28.916 25.9629 28.8223 26.0273 28.6699C26.0977 28.5 26.0332 28.2891 25.8516 28.0957L25.7285 27.9668C25.002 27.2168 24.7559 26.8535 24.7266 24.6094H17.2207Z" fill="#161616"/>
<path d="M24.0469 29.4492C24.0469 29.291 23.9766 29.1387 23.8477 29.0332C23.2676 28.5644 23.1445 27.0234 23.2031 26.1562C23.2266 25.8574 22.998 25.5996 22.6992 25.5762C22.4062 25.5586 22.1426 25.7812 22.1191 26.0801C22.1016 26.332 21.9902 28.3066 22.7695 29.4492H24.0469Z" fill="#161616"/>
<path d="M20.9883 29.4492C20.9883 29.291 20.918 29.1387 20.7891 29.0332C20.209 28.5644 20.0859 27.0234 20.1445 26.1562C20.168 25.8574 19.9394 25.5996 19.6406 25.5762C19.3477 25.5586 19.084 25.7812 19.0605 26.0801C19.043 26.332 18.9316 28.3066 19.7109 29.4492H20.9883Z" fill="#161616"/>
</g>
<defs>
<clipPath id="clip0">
<rect width="30" height="30" fill="white"/>
</clipPath>
</defs>
</svg>
