<?xml version="1.0" encoding="utf-8"?>
<!-- Generator: Adobe Illustrator 23.0.1, SVG Export Plug-In . SVG Version: 6.00 Build 0)  -->
<svg version="1.1" id="Capa_1" xmlns="http://www.w3.org/2000/svg" xmlns:xlink="http://www.w3.org/1999/xlink" x="0px" y="0px"
	 viewBox="0 0 512 512" style="enable-background:new 0 0 512 512;" xml:space="preserve">
<style type="text/css">
	.st0{fill:#6EBA9E;}
	.st1{fill:#FFC853;}
	.st2{fill:#4BA07D;}
	.st3{fill:#D7DCDD;}
	.st4{fill:#9FE0FE;}
	.st5{fill:#7ED0ED;}
</style>
<path class="st0" d="M471.8,146.7H359.3v-44.1c0-2.8-2.2-5-5-5h-18.2V44.4c0-2.8-2.2-5-5-5H180.9c-2.8,0-5,2.2-5,5v53.3h-18.2
	c-2.8,0-5,2.2-5,5v44.1H40.2c-2.8,0-5,2.2-5,5v347.7c0,2.8,2.2,5,5,5h112.5h206.6h112.5c2.8,0,5-2.2,5-5V151.7
	C476.8,149,474.5,146.7,471.8,146.7z"/>
<g>
	<path class="st1" d="M442.7,504.5h-49.4v-26.5c0-13.6,11.1-24.7,24.7-24.7l0,0c13.6,0,24.7,11.1,24.7,24.7L442.7,504.5L442.7,504.5
		z"/>
	<path class="st1" d="M118.7,504.5H69.3v-26.5c0-13.6,11.1-24.7,24.7-24.7l0,0c13.6,0,24.7,11.1,24.7,24.7V504.5z"/>
</g>
<rect x="119" y="146.7" class="st2" width="33.7" height="357.8"/>
<g>
	<path class="st3" d="M114,232.7H74c-2.8,0-5-2.2-5-5v-40c0-2.8,2.2-5,5-5h40c2.8,0,5,2.2,5,5v40C119,230.4,116.7,232.7,114,232.7z"
		/>
	<path class="st3" d="M114,324.4H74c-2.8,0-5-2.2-5-5v-40c0-2.8,2.2-5,5-5h40c2.8,0,5,2.2,5,5v40C119,322.2,116.7,324.4,114,324.4z"
		/>
	<path class="st3" d="M114,416.2H74c-2.8,0-5-2.2-5-5v-40c0-2.8,2.2-5,5-5h40c2.8,0,5,2.2,5,5v40C119,414,116.7,416.2,114,416.2z"/>
</g>
<path class="st2" d="M471.8,504.5H443V146.7h28.7c2.8,0,5,2.2,5,5v347.7C476.8,502.2,474.5,504.5,471.8,504.5z"/>
<g>
	<path class="st3" d="M438,232.7h-40c-2.8,0-5-2.2-5-5v-40c0-2.8,2.2-5,5-5h40c2.8,0,5,2.2,5,5v40C443,230.4,440.8,232.7,438,232.7z
		"/>
	<path class="st3" d="M438,324.4h-40c-2.8,0-5-2.2-5-5v-40c0-2.8,2.2-5,5-5h40c2.8,0,5,2.2,5,5v40C443,322.2,440.8,324.4,438,324.4z
		"/>
	<path class="st3" d="M438,416.2h-40c-2.8,0-5-2.2-5-5v-40c0-2.8,2.2-5,5-5h40c2.8,0,5,2.2,5,5v40C443,414,440.8,416.2,438,416.2z"
		/>
</g>
<path class="st4" d="M316.8,164.3H195.2c-2.8,0-5-2.2-5-5v-25.6c0-2.8,2.2-5,5-5h121.6c2.8,0,5,2.2,5,5v25.6
	C321.8,162.1,319.6,164.3,316.8,164.3z"/>
<path class="st5" d="M321.8,133.7v25.6c0,2.8-2.2,5-5,5h-20.4v-35.6h20.4C319.6,128.7,321.8,130.9,321.8,133.7z"/>
<path class="st4" d="M316.8,237.5H195.2c-2.8,0-5-2.2-5-5v-25.6c0-2.8,2.2-5,5-5h121.6c2.8,0,5,2.2,5,5v25.6
	C321.8,235.2,319.6,237.5,316.8,237.5z"/>
<path class="st5" d="M321.8,206.9v25.6c0,2.8-2.2,5-5,5h-20.4v-35.6h20.4C319.6,201.8,321.8,204.1,321.8,206.9z"/>
<g>
	<path class="st4" d="M316.8,310.6H195.2c-2.8,0-5-2.2-5-5V280c0-2.8,2.2-5,5-5h121.6c2.8,0,5,2.2,5,5v25.6
		C321.8,308.4,319.6,310.6,316.8,310.6z"/>
	<path class="st4" d="M316.8,383.8H195.2c-2.8,0-5-2.2-5-5v-25.6c0-2.8,2.2-5,5-5h121.6c2.8,0,5,2.2,5,5v25.6
		C321.8,381.5,319.6,383.8,316.8,383.8z"/>
	<path class="st4" d="M316.8,456.9H195.2c-2.8,0-5-2.2-5-5v-25.6c0-2.8,2.2-5,5-5h121.6c2.8,0,5,2.2,5,5v25.6
		C321.8,454.7,319.6,456.9,316.8,456.9z"/>
</g>
<g>
	<path class="st2" d="M359.3,504.5h-37.5V97.7h32.5c2.8,0,5,2.2,5,5V504.5z"/>
	<path class="st2" d="M336.1,97.7h-28.6V39.4h23.5c2.8,0,5,2.2,5,5L336.1,97.7L336.1,97.7z"/>
</g>
<g>
	<path class="st5" d="M321.8,353.2v25.6c0,2.8-2.2,5-5,5h-20.4v-35.6h20.4C319.6,348.2,321.8,350.4,321.8,353.2z"/>
	<path class="st5" d="M321.8,426.3v25.6c0,2.8-2.2,5-5,5h-20.4v-35.6h20.4C319.6,421.3,321.8,423.6,321.8,426.3z"/>
</g>
<rect x="204.5" y="59.5" width="103.1" height="18"/>
<path d="M114,240.2H74c-6.9,0-12.5-5.6-12.5-12.5v-40c0-6.9,5.6-12.5,12.5-12.5h40c6.9,0,12.5,5.6,12.5,12.5v40
	C126.5,234.6,120.9,240.2,114,240.2z M76.5,225.2h35v-35h-35V225.2z"/>
<path d="M114,332H74c-6.9,0-12.5-5.6-12.5-12.5v-40c0-6.9,5.6-12.5,12.5-12.5h40c6.9,0,12.5,5.6,12.5,12.5v40
	C126.5,326.3,120.9,332,114,332z M76.5,316.9h35v-35h-35V316.9z"/>
<path d="M114,423.7H74c-6.9,0-12.5-5.6-12.5-12.5v-40c0-6.9,5.6-12.5,12.5-12.5h40c6.9,0,12.5,5.6,12.5,12.5v40
	C126.5,418.1,120.9,423.7,114,423.7z M76.5,408.7h35v-35h-35V408.7z"/>
<path d="M438,240.2h-40c-6.9,0-12.5-5.6-12.5-12.5v-40c0-6.9,5.6-12.5,12.5-12.5h40c6.9,0,12.5,5.6,12.5,12.5v40
	C450.6,234.6,444.9,240.2,438,240.2z M400.5,225.2h35v-35h-35V225.2z"/>
<path d="M438,332h-40c-6.9,0-12.5-5.6-12.5-12.5v-40c0-6.9,5.6-12.5,12.5-12.5h40c6.9,0,12.5,5.6,12.5,12.5v40
	C450.6,326.3,444.9,332,438,332z M400.5,316.9h35v-35h-35V316.9z"/>
<path d="M438,423.7h-40c-6.9,0-12.5-5.6-12.5-12.5v-40c0-6.9,5.6-12.5,12.5-12.5h40c6.9,0,12.5,5.6,12.5,12.5v40
	C450.6,418.1,444.9,423.7,438,423.7z M400.5,408.7h35v-35h-35V408.7z"/>
<path d="M476.8,240.2c4.2,0,7.5-3.4,7.5-7.5v-80.9c0-6.9-5.6-12.5-12.5-12.5h-105v-36.6c0-6.9-5.6-12.5-12.5-12.5h-10.7V44.4
	c0-6.9-5.6-12.5-12.5-12.5h-67.6V7.5c0-4.2-3.4-7.5-7.5-7.5s-7.5,3.4-7.5,7.5v24.3h-67.6c-6.9,0-12.5,5.6-12.5,12.5v45.8h-10.7
	c-6.9,0-12.5,5.6-12.5,12.5v36.6h-105c-6.9,0-12.5,5.6-12.5,12.5v347.7c0,6.9,5.6,12.5,12.5,12.5h29h49.4h34.1h22.1
	c4.2,0,7.5-3.4,7.5-7.5s-3.4-7.5-7.5-7.5h-14.6V146.7v-41.6h15.7h160.2h15.7v41.6V497H227.4c-4.2,0-7.5,3.4-7.5,7.5s3.4,7.5,7.5,7.5
	h131.9h34.1h49.4h29c6.9,0,12.5-5.6,12.5-12.5V286.1c0-4.2-3.4-7.5-7.5-7.5s-7.5,3.4-7.5,7.5V497h-19v-19
	c0-17.8-14.4-32.2-32.2-32.2s-32.2,14.4-32.2,32.2v19h-19V154.2h102.4v78.4C469.3,236.8,472.6,240.2,476.8,240.2z M111.1,497H76.8
	v-19c0-9.5,7.7-17.2,17.2-17.2s17.2,7.7,17.2,17.2V497z M145.2,497h-19v-19c0-17.8-14.4-32.2-32.2-32.2s-32.2,14.4-32.2,32.2v19h-19
	V154.2h102.4L145.2,497L145.2,497z M328.6,90.1H183.4V46.9h145.1V90.1z M400.9,477.9c0-9.5,7.7-17.2,17.2-17.2s17.2,7.7,17.2,17.2
	v19h-34.3L400.9,477.9L400.9,477.9z"/>
<path d="M316.8,171.8H195.2c-6.9,0-12.5-5.6-12.5-12.5v-25.6c0-6.9,5.6-12.5,12.5-12.5h121.6c6.9,0,12.5,5.6,12.5,12.5v25.6
	C329.3,166.2,323.7,171.8,316.8,171.8z M197.7,156.8h116.6v-20.6H197.7V156.8z"/>
<path d="M316.8,245H195.2c-6.9,0-12.5-5.6-12.5-12.5v-25.6c0-6.9,5.6-12.5,12.5-12.5h121.6c6.9,0,12.5,5.6,12.5,12.5v25.6
	C329.3,239.4,323.7,245,316.8,245z M197.7,229.9h116.6v-20.6H197.7V229.9z"/>
<path d="M316.8,318.1H195.2c-6.9,0-12.5-5.6-12.5-12.5V280c0-6.9,5.6-12.5,12.5-12.5h121.6c6.9,0,12.5,5.6,12.5,12.5v25.6
	C329.3,312.5,323.7,318.1,316.8,318.1z M197.7,303.1h116.6v-20.6H197.7V303.1z"/>
<path d="M316.8,391.3H195.2c-6.9,0-12.5-5.6-12.5-12.5v-25.6c0-6.9,5.6-12.5,12.5-12.5h121.6c6.9,0,12.5,5.6,12.5,12.5v25.6
	C329.3,385.7,323.7,391.3,316.8,391.3z M197.7,376.3h116.6v-20.6H197.7V376.3z"/>
<path d="M316.8,464.4H195.2c-6.9,0-12.5-5.6-12.5-12.5v-25.6c0-6.9,5.6-12.5,12.5-12.5h121.6c6.9,0,12.5,5.6,12.5,12.5v25.6
	C329.3,458.8,323.7,464.4,316.8,464.4z M197.7,449.4h116.6v-20.6H197.7V449.4z"/>
</svg>
