<?xml version="1.0" encoding="utf-8"?>
<!-- Generator: Adobe Illustrator 23.0.1, SVG Export Plug-In . SVG Version: 6.00 Build 0)  -->
<svg version="1.1" id="Capa_1" xmlns="http://www.w3.org/2000/svg" xmlns:xlink="http://www.w3.org/1999/xlink" x="0px" y="0px"
	 viewBox="0 0 512 512" style="enable-background:new 0 0 512 512;" xml:space="preserve">
<style type="text/css">
	.st0{fill:#61AFF6;}
	.st1{fill:#55A2F0;}
	.st2{fill:#FFB125;}
	.st3{fill:#FFFFFF;}
	.st4{fill:#B6FA4D;}
	.st5{fill:#FF901D;}
	.st6{fill:#77DD00;}
	.st7{fill:#6EC102;}
	.st8{fill:#E1EFFB;}
</style>
<polygon class="st0" points="417.4,504.4 94.9,504.4 94.6,30 417.1,30 "/>
<polygon class="st1" points="417.1,30 372.4,30 372.7,504.4 417.4,504.4 "/>
<path class="st2" d="M295.8,504.4h-79.5V354.8c0-2.8,2.3-5.1,5.1-5.1h69.3c2.8,0,5.1,2.3,5.1,5.1L295.8,504.4L295.8,504.4z"/>
<g>
	<path class="st3" d="M181.5,417h-48.6c-1.6,0-2.9-1.3-2.9-2.9v-61.4c0-1.6,1.3-2.9,2.9-2.9h48.6c1.6,0,2.9,1.3,2.9,2.9V414
		C184.5,415.7,183.1,417,181.5,417z"/>
	<path class="st3" d="M379.1,417h-48.6c-1.6,0-2.9-1.3-2.9-2.9v-61.4c0-1.6,1.3-2.9,2.9-2.9h48.6c1.6,0,2.9,1.3,2.9,2.9V414
		C382,415.7,380.7,417,379.1,417z"/>
</g>
<path class="st2" d="M433.3,7.3H78.7c-1.2,0-2.2,1-2.2,2.2v25c0,1.2,1,2.2,2.2,2.2h354.6c1.2,0,2.2-1,2.2-2.2v-25
	C435.5,8.3,434.5,7.3,433.3,7.3z"/>
<g>
	<path class="st3" d="M181.5,278.1h-48.6c-1.6,0-2.9-1.3-2.9-2.9v-61.4c0-1.6,1.3-2.9,2.9-2.9h48.6c1.6,0,2.9,1.3,2.9,2.9v61.4
		C184.5,276.8,183.1,278.1,181.5,278.1z"/>
	<path class="st3" d="M280.3,278.1h-48.6c-1.6,0-2.9-1.3-2.9-2.9v-61.4c0-1.6,1.3-2.9,2.9-2.9h48.6c1.6,0,2.9,1.3,2.9,2.9v61.4
		C283.3,276.8,281.9,278.1,280.3,278.1z"/>
	<path class="st3" d="M379.1,278.1h-48.6c-1.6,0-2.9-1.3-2.9-2.9v-61.4c0-1.6,1.3-2.9,2.9-2.9h48.6c1.6,0,2.9,1.3,2.9,2.9v61.4
		C382,276.8,380.7,278.1,379.1,278.1z"/>
	<path class="st3" d="M181.5,150.4h-48.6c-1.6,0-2.9-1.3-2.9-2.9V86c0-1.6,1.3-2.9,2.9-2.9h48.6c1.6,0,2.9,1.3,2.9,2.9v61.4
		C184.5,149.1,183.1,150.4,181.5,150.4z"/>
	<path class="st3" d="M280.3,150.4h-48.6c-1.6,0-2.9-1.3-2.9-2.9V86c0-1.6,1.3-2.9,2.9-2.9h48.6c1.6,0,2.9,1.3,2.9,2.9v61.4
		C283.3,149.1,281.9,150.4,280.3,150.4z"/>
	<path class="st3" d="M379.1,150.4h-48.6c-1.6,0-2.9-1.3-2.9-2.9V86c0-1.6,1.3-2.9,2.9-2.9h48.6c1.6,0,2.9,1.3,2.9,2.9v61.4
		C382,149.1,380.7,150.4,379.1,150.4z"/>
</g>
<g>
	<path class="st4" d="M156.4,483.6c-0.3-14.5-11.3-26.4-25.5-27.8c-6.6-10.5-18.2-17.5-31.5-17.5c-20.5,0-37.2,16.6-37.2,37.2
		c0,2.8,0.3,5.5,0.9,8.2L156.4,483.6L156.4,483.6z"/>
	<path class="st4" d="M355.6,483.6c0.3-14.5,11.3-26.4,25.5-27.8c6.6-10.5,18.2-17.5,31.5-17.5c20.5,0,37.2,16.6,37.2,37.2
		c0,2.8-0.3,5.5-0.9,8.2L355.6,483.6L355.6,483.6z"/>
</g>
<path class="st5" d="M434.4,7.6h-43.7v29.1h42.6c1.2,0,2.2-1,2.2-2.2v-25C435.5,8.7,435,8,434.4,7.6z"/>
<path class="st6" d="M468.3,479.4H43.7c-7,0-12.7,5.7-12.7,12.7l0,0c0,7,5.7,12.7,12.7,12.7h424.6c7,0,12.7-5.7,12.7-12.7l0,0
	C480.9,485.1,475.3,479.4,468.3,479.4z"/>
<path class="st7" d="M478.6,499.4c0.1-0.2,0.2-0.3,0.3-0.5c0.1-0.2,0.2-0.3,0.3-0.5c0.1-0.2,0.2-0.3,0.3-0.5
	c0.1-0.2,0.2-0.4,0.3-0.5c0.1-0.2,0.2-0.4,0.2-0.5c0.1-0.2,0.1-0.4,0.2-0.6c0.1-0.2,0.1-0.4,0.2-0.6c0.1-0.2,0.1-0.4,0.2-0.6
	c0-0.2,0.1-0.4,0.1-0.6c0-0.2,0.1-0.4,0.1-0.6c0-0.2,0.1-0.4,0.1-0.6l0,0l0,0c0-0.4,0.1-0.8,0.1-1.3c0-0.3,0-0.7-0.1-1v-0.3
	c0-0.1,0-0.1,0-0.2c0-0.2,0-0.3-0.1-0.5c0-0.3-0.1-0.6-0.2-1c0-0.2-0.1-0.3-0.1-0.5c-0.1-0.4-0.2-0.7-0.4-1.1c0-0.1,0-0.1-0.1-0.2
	c-0.2-0.4-0.4-0.8-0.6-1.2c0,0,0-0.1-0.1-0.1c0,0,0,0,0,0c-2.1-4-6.3-6.6-11.1-6.6h-32.2l0,0c0,7.3-5.9,13.3-13.3,13.3H43.7
	c-4.8,0-9-2.7-11.1-6.6c-1.1,2.1-1.7,4.5-1.5,7c0.5,6.6,6.3,11.6,13,11.6h392h32.2c0.4,0,0.8,0,1.3-0.1c0.1,0,0.3,0,0.4-0.1
	c0.3,0,0.5-0.1,0.8-0.1c0.2,0,0.3-0.1,0.5-0.1c0.2-0.1,0.5-0.1,0.7-0.2c0.2,0,0.3-0.1,0.5-0.2c0.2-0.1,0.4-0.1,0.6-0.2
	c0.2-0.1,0.3-0.1,0.5-0.2c0.2-0.1,0.4-0.2,0.6-0.3c0.2-0.1,0.3-0.2,0.5-0.3c0.2-0.1,0.4-0.2,0.5-0.3c0.2-0.1,0.3-0.2,0.5-0.3
	c0.2-0.1,0.3-0.2,0.5-0.4c0.1-0.1,0.3-0.2,0.4-0.4c0.2-0.1,0.3-0.3,0.5-0.4c0.1-0.1,0.3-0.3,0.4-0.4c0.1-0.1,0.3-0.3,0.4-0.4
	c0.1-0.1,0.3-0.3,0.4-0.4C478.3,499.7,478.4,499.6,478.6,499.4z"/>
<g>
	<path class="st8" d="M181.5,83.1h-24.3v67.3h24.3c1.6,0,2.9-1.3,2.9-2.9V86C184.5,84.4,183.1,83.1,181.5,83.1z"/>
	<path class="st8" d="M280.3,83.1H256v67.3h24.3c1.6,0,2.9-1.3,2.9-2.9V86C283.3,84.4,281.9,83.1,280.3,83.1z"/>
	<path class="st8" d="M379.1,83.1h-24.3v67.3h24.3c1.6,0,2.9-1.3,2.9-2.9V86C382,84.4,380.7,83.1,379.1,83.1z"/>
	<path class="st8" d="M181.5,210.8h-24.3v67.3h24.3c1.6,0,2.9-1.3,2.9-2.9v-61.4C184.5,212.1,183.1,210.8,181.5,210.8z"/>
	<path class="st8" d="M280.3,210.8H256v67.3h24.3c1.6,0,2.9-1.3,2.9-2.9v-61.4C283.3,212.1,281.9,210.8,280.3,210.8z"/>
	<path class="st8" d="M379.1,210.8h-24.3v67.3h24.3c1.6,0,2.9-1.3,2.9-2.9v-61.4C382,212.1,380.7,210.8,379.1,210.8z"/>
	<path class="st8" d="M181.5,349.7h-24.3V417h24.3c1.6,0,2.9-1.3,2.9-2.9v-61.4C184.5,351,183.1,349.7,181.5,349.7z"/>
	<path class="st8" d="M379.1,349.7h-24.3V417h24.3c1.6,0,2.9-1.3,2.9-2.9v-61.4C382,351,380.7,349.7,379.1,349.7z"/>
</g>
<path d="M275.2,400.8c-4,0-7.3,3.3-7.3,7.3v15.1c0,4,3.3,7.3,7.3,7.3c4,0,7.3-3.3,7.3-7.3v-15.1C282.5,404,279.2,400.8,275.2,400.8z
	"/>
<path d="M122.7,414c0,5.6,4.6,10.2,10.2,10.2h48.6c5.6,0,10.2-4.6,10.2-10.2v-61.4c0-5.6-4.6-10.2-10.2-10.2h-48.6
	c-5.6,0-10.2,4.6-10.2,10.2L122.7,414L122.7,414z M137.3,357h39.9v52.7h-39.9V357z"/>
<path d="M320.2,414c0,5.6,4.6,10.2,10.2,10.2h48.6c5.6,0,10.2-4.6,10.2-10.2v-61.4c0-5.6-4.6-10.2-10.2-10.2h-48.6
	c-5.6,0-10.2,4.6-10.2,10.2V414z M334.8,357h39.9v52.7h-39.9V357z"/>
<path d="M122.7,275.2c0,5.6,4.6,10.2,10.2,10.2h48.6c5.6,0,10.2-4.6,10.2-10.2v-61.4c0-5.6-4.6-10.2-10.2-10.2h-48.6
	c-5.6,0-10.2,4.6-10.2,10.2L122.7,275.2L122.7,275.2z M137.3,218.1h39.9v52.7h-39.9V218.1z"/>
<path d="M221.4,275.2c0,5.6,4.6,10.2,10.2,10.2h48.6c5.6,0,10.2-4.6,10.2-10.2v-61.4c0-5.6-4.6-10.2-10.2-10.2h-48.6
	c-5.6,0-10.2,4.6-10.2,10.2V275.2z M236,218.1H276v52.7H236L236,218.1L236,218.1z"/>
<path d="M320.2,275.2c0,5.6,4.6,10.2,10.2,10.2h48.6c5.6,0,10.2-4.6,10.2-10.2v-61.4c0-5.6-4.6-10.2-10.2-10.2h-48.6
	c-5.6,0-10.2,4.6-10.2,10.2V275.2z M334.8,218.1h39.9v52.7h-39.9V218.1z"/>
<path d="M132.9,157.7h48.6c5.6,0,10.2-4.6,10.2-10.2V86c0-5.6-4.6-10.2-10.2-10.2h-48.6c-5.6,0-10.2,4.6-10.2,10.2v61.4
	C122.7,153.1,127.2,157.7,132.9,157.7z M137.3,90.4h39.9v52.7h-39.9V90.4z"/>
<path d="M231.7,157.7h48.6c5.6,0,10.2-4.6,10.2-10.2V86c0-5.6-4.6-10.2-10.2-10.2h-48.6c-5.6,0-10.2,4.6-10.2,10.2v61.4
	C221.4,153.1,226,157.7,231.7,157.7z M236,90.4H276v52.7H236L236,90.4L236,90.4z"/>
<path d="M330.5,157.7h48.6c5.6,0,10.2-4.6,10.2-10.2V86c0-5.6-4.6-10.2-10.2-10.2h-48.6c-5.6,0-10.2,4.6-10.2,10.2v61.4
	C320.2,153.1,324.8,157.7,330.5,157.7z M334.8,90.4h39.9v52.7h-39.9V90.4z"/>
<path d="M468.3,472.1H457c-1.4-18.8-14.6-34.4-32.3-39.4L424.4,44h8.9c5.2,0,9.5-4.3,9.5-9.5v-25c0-5.2-4.3-9.5-9.5-9.5h-50.8
	c-4,0-7.3,3.3-7.3,7.3s3.3,7.3,7.3,7.3h45.7v14.8h-11H94.6H83.8V14.6h253c4,0,7.3-3.3,7.3-7.3S340.9,0,336.8,0H78.7
	c-5.2,0-9.5,4.3-9.5,9.5v25c0,5.2,4.3,9.5,9.5,9.5h8.6l0.2,245.5c0,4,3.3,7.3,7.3,7.3c0,0,0,0,0,0c4,0,7.3-3.3,7.3-7.3L101.9,44
	h307.9l0.2,387.1c0,0,0,0-0.1,0c-0.3,0-0.5,0-0.8,0.1c-0.6,0-1.2,0.1-1.8,0.2c-0.3,0-0.6,0.1-1,0.1c-0.5,0.1-1,0.1-1.6,0.2
	c-0.3,0.1-0.7,0.1-1,0.2c-0.5,0.1-1,0.2-1.4,0.3c-0.4,0.1-0.7,0.2-1.1,0.3c-0.5,0.1-0.9,0.2-1.4,0.4c-0.4,0.1-0.7,0.2-1.1,0.3
	c-0.4,0.1-0.9,0.3-1.3,0.4c-0.4,0.1-0.7,0.3-1.1,0.4c-0.4,0.2-0.9,0.3-1.3,0.5c-0.3,0.1-0.7,0.3-1,0.5c-0.4,0.2-0.8,0.4-1.2,0.6
	c-0.3,0.2-0.7,0.3-1,0.5c-0.4,0.2-0.8,0.4-1.2,0.7c-0.3,0.2-0.7,0.4-1,0.6c-0.4,0.2-0.8,0.5-1.2,0.7c-0.3,0.2-0.6,0.4-0.9,0.6
	c-0.4,0.3-0.8,0.5-1.1,0.8c-0.3,0.2-0.6,0.4-0.9,0.7c-0.4,0.3-0.7,0.6-1.1,0.9c-0.3,0.2-0.6,0.5-0.8,0.7c-0.4,0.3-0.7,0.6-1.1,1
	c-0.3,0.2-0.5,0.5-0.8,0.7c-0.4,0.4-0.7,0.7-1.1,1.1c-0.2,0.2-0.5,0.5-0.7,0.7c-0.4,0.4-0.8,0.9-1.1,1.3c-0.2,0.2-0.4,0.4-0.5,0.6
	c-0.5,0.7-1.1,1.3-1.6,2c-0.8,0.2-1.7,0.4-2.5,0.6c-0.3,0.1-0.5,0.2-0.8,0.2c-0.5,0.2-1.1,0.3-1.6,0.5c-0.3,0.1-0.6,0.2-0.9,0.3
	c-0.5,0.2-1,0.4-1.4,0.6c-0.3,0.1-0.6,0.3-0.9,0.4c-0.5,0.2-0.9,0.5-1.4,0.7c-0.3,0.2-0.6,0.3-0.8,0.5c-0.5,0.3-1,0.6-1.4,0.9
	c-0.2,0.1-0.5,0.3-0.7,0.4c-0.7,0.5-1.4,0.9-2,1.4c0,0-0.1,0.1-0.1,0.1c-0.6,0.5-1.2,1-1.8,1.5c-0.2,0.2-0.4,0.4-0.6,0.6
	c-0.4,0.4-0.8,0.7-1.2,1.1c-0.2,0.2-0.4,0.5-0.7,0.7c-0.4,0.4-0.7,0.8-1,1.1c-0.2,0.2-0.4,0.5-0.6,0.8c-0.3,0.4-0.6,0.8-1,1.2
	c-0.2,0.3-0.4,0.5-0.6,0.8c-0.3,0.5-0.6,0.9-0.9,1.4c-0.1,0.2-0.3,0.4-0.4,0.7c-0.4,0.7-0.8,1.4-1.2,2.2c0,0.1,0,0.1-0.1,0.2
	c-0.4,0.7-0.7,1.4-1,2.1c-0.1,0.3-0.2,0.5-0.3,0.8c-0.2,0.4-0.3,0.8-0.5,1.2h-47.3V354.8c0-6.8-5.6-12.4-12.4-12.4h-69.3
	c-6.8,0-12.4,5.6-12.4,12.4v117.3h-47.3c-0.1-0.4-0.3-0.8-0.5-1.2c-0.1-0.3-0.2-0.5-0.3-0.8c-0.3-0.7-0.6-1.4-1-2.1
	c0-0.1-0.1-0.1-0.1-0.2c-0.4-0.7-0.8-1.5-1.2-2.2c-0.1-0.2-0.3-0.5-0.4-0.7c-0.3-0.5-0.6-0.9-0.9-1.4c-0.2-0.3-0.4-0.5-0.6-0.8
	c-0.3-0.4-0.6-0.8-0.9-1.2c-0.2-0.3-0.4-0.5-0.6-0.8c-0.3-0.4-0.7-0.8-1-1.1c-0.2-0.2-0.4-0.5-0.7-0.7c-0.4-0.4-0.8-0.8-1.2-1.1
	c-0.2-0.2-0.4-0.4-0.6-0.6c-0.6-0.5-1.2-1-1.8-1.5c0,0-0.1-0.1-0.1-0.1c-0.7-0.5-1.3-1-2-1.4c-0.2-0.2-0.5-0.3-0.7-0.4
	c-0.5-0.3-0.9-0.6-1.4-0.9c-0.3-0.2-0.6-0.3-0.8-0.5c-0.5-0.2-0.9-0.5-1.4-0.7c-0.3-0.1-0.6-0.3-0.9-0.4c-0.5-0.2-1-0.4-1.4-0.6
	c-0.3-0.1-0.6-0.2-0.9-0.3c-0.5-0.2-1.1-0.4-1.6-0.5c-0.3-0.1-0.5-0.2-0.8-0.2c-0.8-0.2-1.6-0.4-2.5-0.6c-0.5-0.7-1-1.4-1.6-2
	c-0.2-0.2-0.4-0.4-0.5-0.6c-0.4-0.4-0.7-0.9-1.1-1.3c-0.2-0.2-0.5-0.5-0.7-0.7c-0.4-0.4-0.7-0.7-1.1-1.1c-0.3-0.2-0.5-0.5-0.8-0.7
	c-0.4-0.3-0.7-0.7-1.1-1c-0.3-0.2-0.6-0.5-0.8-0.7c-0.4-0.3-0.7-0.6-1.1-0.9c-0.3-0.2-0.6-0.4-0.9-0.7c-0.4-0.3-0.8-0.5-1.1-0.8
	c-0.3-0.2-0.6-0.4-0.9-0.6c-0.4-0.2-0.8-0.5-1.2-0.7c-0.3-0.2-0.6-0.4-1-0.6c-0.4-0.2-0.8-0.4-1.2-0.7c-0.3-0.2-0.7-0.3-1-0.5
	c-0.4-0.2-0.8-0.4-1.2-0.6c-0.3-0.2-0.7-0.3-1-0.5c-0.4-0.2-0.9-0.4-1.3-0.5c-0.3-0.1-0.7-0.3-1-0.4c-0.4-0.2-0.9-0.3-1.3-0.4
	c-0.3-0.1-0.7-0.2-1-0.3c-0.5-0.1-0.9-0.3-1.4-0.4c-0.3-0.1-0.7-0.2-1-0.3c-0.5-0.1-1-0.2-1.5-0.3c-0.3-0.1-0.6-0.1-0.9-0.2
	c-0.6-0.1-1.2-0.2-1.8-0.3c-0.2,0-0.5-0.1-0.7-0.1c-0.8-0.1-1.7-0.2-2.5-0.2l-0.1-95.4c0-4-3.3-7.3-7.3-7.3c0,0,0,0,0,0
	c-4,0-7.3,3.3-7.3,7.3l0.1,96.9c-17.7,4.9-31,20.6-32.5,39.5H43.7c-11,0-19.9,8.9-19.9,19.9c0,11,8.9,19.9,19.9,19.9h424.6
	c11,0,19.9-8.9,19.9-19.9C488.2,481,479.3,472.1,468.3,472.1z M367.3,471.3C367.3,471.2,367.3,471.2,367.3,471.3
	c0.3-0.4,0.7-0.8,1-1.2c0.1-0.1,0.2-0.2,0.3-0.3c0.3-0.4,0.7-0.7,1-1c0,0,0,0,0.1-0.1c0.4-0.3,0.7-0.7,1.1-1
	c0.1-0.1,0.2-0.2,0.3-0.2c0.4-0.3,0.8-0.6,1.2-0.9c0,0,0,0,0.1,0c0.4-0.3,0.8-0.5,1.3-0.8c0.1-0.1,0.2-0.1,0.3-0.2
	c0.4-0.2,0.9-0.5,1.3-0.7c0,0,0,0,0.1,0c0.5-0.2,0.9-0.4,1.4-0.6c0.1,0,0.2-0.1,0.4-0.1c0.5-0.2,0.9-0.3,1.4-0.5c0,0,0,0,0,0
	c0.5-0.1,1-0.3,1.5-0.4c0.1,0,0.3,0,0.4-0.1c0.5-0.1,1-0.2,1.5-0.2c2.2-0.2,4.2-1.5,5.4-3.4c5.5-8.8,15-14.1,25.4-14.1
	c0.6,0,1.2,0,1.8,0.1c0,0,0.1,0,0.1,0c0.6,0,1.3,0.1,1.9,0.2c0,0,0.1,0,0.1,0c13.5,1.8,24.2,12.6,25.8,26.2h-75.6
	C366.9,471.8,367,471.5,367.3,471.3z M223.5,357h64.9v115.1h-64.9L223.5,357L223.5,357z M95.7,445.8
	C95.7,445.8,95.7,445.8,95.7,445.8c0.7-0.1,1.3-0.1,1.8-0.2c0,0,0.1,0,0.1,0c0.6,0,1.2-0.1,1.8-0.1c10.4,0,19.8,5.3,25.4,14.1
	c0.8,1.2,1.9,2.2,3.2,2.8c0.7,0.3,1.4,0.5,2.2,0.6c0,0,0,0,0,0c0.5,0.1,1,0.1,1.5,0.2c0.1,0,0.3,0,0.4,0.1c0.5,0.1,1,0.2,1.5,0.4
	c0,0,0,0,0,0c0.5,0.1,1,0.3,1.4,0.5c0.1,0,0.2,0.1,0.4,0.1c0.5,0.2,0.9,0.4,1.4,0.6c0,0,0,0,0,0c0.4,0.2,0.9,0.4,1.3,0.7
	c0.1,0.1,0.2,0.1,0.3,0.2c0.4,0.3,0.9,0.5,1.3,0.8c0,0,0,0,0,0c0.4,0.3,0.8,0.6,1.2,0.9c0.1,0.1,0.2,0.2,0.3,0.2
	c0.4,0.3,0.8,0.6,1.1,1c0,0,0,0,0,0c0.4,0.3,0.7,0.7,1,1c0.1,0.1,0.2,0.2,0.3,0.3c0.3,0.4,0.7,0.8,1,1.1c0,0,0,0,0,0.1
	c0.2,0.3,0.4,0.6,0.6,0.8H69.7C71.2,458.4,82.1,447.5,95.7,445.8z M468.3,497.4H43.7c-3,0-5.4-2.4-5.4-5.4s2.4-5.4,5.4-5.4h18.7H156
	h60.2h79.5H356h93.6h18.7c3,0,5.4,2.4,5.4,5.4C473.6,495,471.2,497.4,468.3,497.4z"/>
</svg>
