<?xml version="1.0" encoding="utf-8"?>
<!-- Generator: Adobe Illustrator 23.0.1, SVG Export Plug-In . SVG Version: 6.00 Build 0)  -->
<svg version="1.1" id="Capa_1" xmlns="http://www.w3.org/2000/svg" xmlns:xlink="http://www.w3.org/1999/xlink" x="0px" y="0px"
	 viewBox="0 0 512 512" style="enable-background:new 0 0 512 512;" xml:space="preserve">
<style type="text/css">
	.st0{fill:#E1EFFB;}
	.st1{fill:#CCDFED;}
	.st2{fill:#FF6D3A;}
	.st3{fill:#ED5729;}
</style>
<path class="st0" d="M487.6,58.7H98.5v-6c0-24.5-19.4-45-43.9-45.4C29.6,6.9,9.2,27,9.2,51.9v408.1c0,24.7,20,44.6,44.6,44.6h433.8
	c8.4,0,15.2-6.8,15.2-15.2V73.8C502.8,65.4,496,58.7,487.6,58.7z"/>
<path class="st1" d="M487.6,58.7h-29.3v390.9c0,14.9-12.1,26.9-26.9,26.9H53.9c-24.7,0-44.6-20-44.6-44.6v28.2
	c0,24.7,20,44.6,44.6,44.6h404.5h29.3c8.4,0,15.2-6.8,15.2-15.2v-28.2V73.8C502.8,65.4,496,58.7,487.6,58.7z"/>
<path class="st2" d="M98.5,444.9V52.7c0-24.5-19.4-45-43.9-45.4C29.6,6.9,9.2,27,9.2,51.9v408.1c0-24.7,20-44.6,44.6-44.6
	c19.5,0,36.1,12.5,42.2,29.9c0.2,0.5,0.7,0.9,1.2,0.9l0,0C97.9,446.2,98.5,445.7,98.5,444.9z"/>
<path class="st3" d="M98.5,415.3c0,0.2-0.1,0.4-0.2,0.6V48.6c-2-22.9-21-41.4-44.4-41.4c0,0,0,0,0,0V362c0,11.9-7,22.8-17.9,27.5
	c-15.8,6.9-26.8,22.6-26.8,40.9v29.6c0-24.7,20-44.6,44.6-44.6c19.5,0,36.1,12.5,42.2,29.9c0.2,0.5,0.7,0.9,1.2,0.9
	c0.2,0,0.3,0,0.4-0.1c0.1,0,0.1,0,0.2-0.1c0.1,0,0.1-0.1,0.2-0.1c0.1-0.1,0.3-0.2,0.4-0.4v0l0,0c0.1-0.2,0.2-0.4,0.2-0.6V415.3z"/>
<path d="M449.1,275.3v61H416c-4,0-7.3,3.3-7.3,7.3s3.3,7.3,7.3,7.3h33.1v77.9c0,2-1.6,3.5-3.5,3.5H274.9v-81.5h70.7
	c4,0,7.3-3.3,7.3-7.3s-3.3-7.3-7.3-7.3H213.1c-4,0-7.3,3.3-7.3,7.3s3.3,7.3,7.3,7.3h47.2v81.5H142.9c-2,0-3.5-1.6-3.5-3.5v-77.9H163
	c4,0,7.3-3.3,7.3-7.3s-3.3-7.3-7.3-7.3h-23.7v-107h110.8c4,0,7.3-3.3,7.3-7.3v-33.8c0-4-3.3-7.3-7.3-7.3c-4,0-7.3,3.3-7.3,7.3v26.5
	H139.3v-88.6c0-2,1.6-3.5,3.5-3.5h100v20.5c0,4,3.3,7.3,7.3,7.3c4,0,7.3-3.3,7.3-7.3v-20.5h90.9c4.9,0,9.7,0,14.6,0h82.6
	c2,0,3.5,1.6,3.5,3.5v22.5c0,4,3.3,7.3,7.3,7.3s7.3-3.3,7.3-7.3v-22.5c0-10-8.1-18.1-18.1-18.1H142.9c-10,0-18.1,8.1-18.1,18.1
	v302.6c0,10,8.1,18.1,18.1,18.1h302.6c10,0,18.1-8.1,18.1-18.1V211.8c0-4-3.3-7.3-7.3-7.3s-7.3,3.3-7.3,7.3v48.9"/>
<path d="M487.6,51.4h-52.2c-4,0-7.3,3.3-7.3,7.3s3.3,7.3,7.3,7.3h52.2c4.3,0,7.9,3.5,7.9,7.9v415.7c0,4.3-3.5,7.9-7.9,7.9H53.9
	c-20.6,0-37.4-16.8-37.4-37.4c0-20.6,16.8-37.4,37.4-37.4c15.9,0,30,10.1,35.3,25c1.2,3.4,4.5,5.8,8.1,5.8c4.7,0,8.6-3.8,8.6-8.6
	v-379h284.4c4,0,7.3-3.3,7.3-7.3s-3.3-7.3-7.3-7.3H105.8c0-0.2,0-0.5,0-0.7c0-0.4,0-0.8-0.1-1.3c0-0.5-0.1-0.9-0.1-1.4
	c0-0.4-0.1-0.8-0.1-1.2c-0.1-0.4-0.1-0.9-0.2-1.3c-0.1-0.4-0.1-0.8-0.2-1.2c-0.1-0.4-0.1-0.9-0.2-1.3c-0.1-0.4-0.2-0.8-0.2-1.2
	c-0.1-0.4-0.2-0.9-0.3-1.3c-0.1-0.4-0.2-0.8-0.3-1.2c-0.1-0.4-0.2-0.8-0.3-1.3c-0.1-0.4-0.2-0.8-0.4-1.2c-0.1-0.4-0.3-0.8-0.4-1.2
	c-0.1-0.4-0.3-0.8-0.4-1.2c-0.1-0.4-0.3-0.8-0.5-1.2c-0.2-0.4-0.3-0.8-0.5-1.2c-0.2-0.4-0.3-0.8-0.5-1.2c-0.2-0.4-0.3-0.8-0.5-1.1
	c-0.2-0.4-0.4-0.8-0.6-1.1c-0.2-0.4-0.4-0.7-0.6-1.1c-0.2-0.4-0.4-0.7-0.6-1.1c-0.2-0.4-0.4-0.7-0.6-1.1c-0.2-0.4-0.4-0.7-0.7-1.1
	c-0.2-0.3-0.4-0.7-0.7-1c-0.2-0.3-0.5-0.7-0.7-1c-0.2-0.3-0.5-0.7-0.7-1c-0.2-0.3-0.5-0.7-0.8-1c-0.3-0.3-0.5-0.6-0.8-1
	c-0.3-0.3-0.5-0.6-0.8-1c-0.3-0.3-0.5-0.6-0.8-0.9c-0.3-0.3-0.6-0.6-0.8-0.9c-0.3-0.3-0.6-0.6-0.8-0.9c-0.3-0.3-0.6-0.6-0.9-0.9
	c-0.3-0.3-0.6-0.6-0.9-0.8c-0.3-0.3-0.6-0.6-0.9-0.8c-0.3-0.3-0.6-0.5-0.9-0.8c-0.3-0.3-0.7-0.5-1-0.8c-0.3-0.3-0.6-0.5-0.9-0.8
	c-0.3-0.3-0.7-0.5-1-0.8c-0.3-0.2-0.6-0.5-1-0.7C82.7,9,82.4,8.7,82,8.5c-0.3-0.2-0.7-0.4-1-0.7c-0.4-0.2-0.7-0.4-1.1-0.7
	c-0.3-0.2-0.7-0.4-1-0.6c-0.4-0.2-0.8-0.4-1.1-0.6c-0.3-0.2-0.7-0.4-1-0.6c-0.4-0.2-0.8-0.4-1.2-0.6c-0.4-0.2-0.7-0.3-1.1-0.5
	c-0.4-0.2-0.8-0.3-1.2-0.5c-0.4-0.1-0.7-0.3-1.1-0.4c-0.4-0.2-0.9-0.3-1.3-0.5c-0.4-0.1-0.7-0.3-1.1-0.4c-0.4-0.1-0.9-0.3-1.3-0.4
	c-0.4-0.1-0.7-0.2-1.1-0.3c-0.5-0.1-0.9-0.2-1.4-0.3c-0.4-0.1-0.7-0.2-1.1-0.3c-0.5-0.1-1-0.2-1.4-0.3c-0.3-0.1-0.7-0.1-1-0.2
	c-0.5-0.1-1-0.2-1.6-0.2c-0.3,0-0.6-0.1-1-0.1c-0.6-0.1-1.2-0.1-1.8-0.2c-0.3,0-0.5-0.1-0.8-0.1C56.5,0.1,55.6,0,54.7,0
	c-14-0.2-27.3,5.1-37.3,14.9c-10,9.8-15.5,23-15.5,37v273.7c0,4,3.3,7.3,7.3,7.3s7.3-3.3,7.3-7.3V51.9c0-10.1,4-19.6,11.2-26.6
	c7.2-7.1,16.7-10.9,26.8-10.7C74.7,14.9,91.2,32,91.2,52.7v6V424c-9.6-9.9-23-15.9-37.4-15.9c-14.7,0-27.9,6.1-37.4,15.9V371
	c0-4-3.3-7.3-7.3-7.3s-7.3,3.3-7.3,7.3v89.1c0,28.6,23.3,51.9,51.9,51.9h433.8c12.4,0,22.4-10.1,22.4-22.4V73.8
	C510.1,61.4,500,51.4,487.6,51.4z"/>
</svg>
