<svg width="159" height="95" viewBox="0 0 159 95" fill="none" xmlns="http://www.w3.org/2000/svg">
<g clip-path="url(#clip0)">
<path d="M96.5086 61.7016V23.5782H0.427734V89.0756H73.4076" stroke="currentColo"/>
<rect x="0.5" y="9.57559" width="96" height="14.1072" stroke="currentColo"/>
<circle cx="9" cy="16.6292" r="2.5" stroke="currentColo"/>
<circle cx="87" cy="16.6292" r="2.5" stroke="currentColo"/>
<circle cx="86.5" cy="76.5" r="18" stroke="currentColo"/>
<rect x="12.5" y="30.5" width="17.5325" height="11.5758" stroke="currentColo"/>
<rect x="12.5" y="50.0911" width="17.5325" height="11.5758" stroke="currentColo"/>
<rect x="12.5" y="70.0911" width="17.5325" height="11.5758" stroke="currentColo"/>
<rect x="39.0322" y="30.5" width="17.5325" height="11.5758" stroke="currentColo"/>
<rect x="39.0322" y="50.0911" width="17.5325" height="11.5758" stroke="currentColo"/>
<rect x="39.0322" y="70.0911" width="17.5325" height="11.5758" stroke="currentColo"/>
<rect x="65.5645" y="30.5" width="17.5325" height="11.5758" stroke="currentColo"/>
<path d="M83.597 58.5V49.5911H65.0645V62.1669H75.5" stroke="currentColo"/>
<path d="M70 69.5911H65.0645V82.1669H69.5" stroke="currentColo"/>
<path d="M86 62V78H99" stroke="currentColo"/>
</g>
</svg>
