<svg width="100" height="120" viewBox="0 0 100 120" fill="none" xmlns="http://www.w3.org/2000/svg">
<path d="M25.8576 4.79663H6.07422V2.69781C6.07422 1.20615 7.28398 -3.33786e-06 8.77583 -3.33786e-06H23.1538C24.6457 -3.33786e-06 25.8576 1.20615 25.8576 2.69781V4.79663ZM48.5493 4.79663H28.7659V2.69781C28.7659 1.20615 29.9774 -3.33786e-06 31.4692 -3.33786e-06H45.8477C47.34 -3.33786e-06 48.5493 1.20615 48.5493 2.69781V4.79663ZM71.2431 4.79663H51.4619V2.69781C51.4619 1.20615 52.6695 -3.33786e-06 54.1618 -3.33786e-06H68.5433C70.0355 -3.33786e-06 71.2431 1.20615 71.2431 2.69781V4.79663ZM93.9374 4.79663H74.1541V2.69781C74.1541 1.20615 75.3634 -3.33786e-06 76.8578 -3.33786e-06H91.2358C92.7277 -3.33786e-06 93.9374 1.20615 93.9374 2.69781V4.79663Z" fill="#7BB53B"/>
<path d="M29.6123 115.533H94.4918V13.5226H29.6123V115.533Z" fill="#323457"/>
<path d="M96.9308 13.5227V2.43516H3.14209V115.533H29.612V13.5227H96.9308Z" fill="#D7BFA3"/>
<path d="M29.6123 89.9102H30.6791V13.5226H29.6123V89.9102ZM38.659 89.9102H39.7258V13.5226H38.659V89.9102ZM47.7053 89.9102H48.7717V13.5226H47.7053V89.9102ZM56.7494 89.9102H57.8182V13.5226H56.7494V89.9102ZM65.7978 89.9102H66.8624V13.5226H65.7978V89.9102ZM74.842 89.9102H75.907V13.5226H74.842V89.9102ZM83.8865 89.9102H84.9528V13.5226H83.8865V89.9102Z" fill="#1C1C31"/>
<path d="M1.36865 117.77H98.7049V115.533H1.36865V117.77Z" fill="#657D68"/>
<path d="M98.7049 117.77H31.3715V117.136C31.3715 116.97 31.244 116.85 31.0876 116.85H26.8223C26.6659 116.85 26.5384 116.97 26.5384 117.136V117.77H20.9496V117.136C20.9496 116.97 20.8239 116.85 20.6649 116.85H16.3978C16.2454 116.85 16.1157 116.97 16.1157 117.136V117.77H10.5269V117.136C10.5269 116.97 10.3994 116.85 10.2452 116.85H5.97771C5.82138 116.85 5.69605 116.97 5.69605 117.136V117.77H1.36865V116.796H7.57766V116.85H8.64659V116.796H17.9999V116.85H19.0689V116.796H28.4201V116.85H29.4911V116.796H98.7049V117.77Z" fill="#556757"/>
<path d="M0 120H100V117.77H0V120Z" fill="#202E3B"/>
<path d="M48.3643 115.533H49.1662V93.887H48.3643V115.533Z" fill="#E9EAE9"/>
<path d="M30.416 115.533H39.0027V93.887H30.416V115.533ZM39.7737 115.533H48.3637V93.887H39.7737V115.533Z" fill="#323457"/>
<path d="M33.4165 113.218H32.6042C32.6473 113.079 32.6774 112.934 32.6938 112.785L32.6912 112.785C32.7201 112.525 32.7059 112.254 32.6413 111.981L31.5181 107.247V107.173H33.4165V113.218ZM41.5079 103.571H42.7774V101.234H41.5079V103.571ZM40.8718 80.8401H42.1415V78.4941H40.8718V80.8401Z" fill="#58597A"/>
<path d="M29.6123 93.8871H95.7291V89.9103H29.6123V93.8871ZM29.6123 68.4467H95.7291V64.4773H29.6123V68.4467ZM29.6123 42.6773H95.7291V38.701H29.6123V42.6773ZM29.6123 17.4918H95.7291V13.5227H29.6123V17.4918Z" fill="#DDE0F1"/>
<path d="M29.6123 115.533H30.4165V93.887H29.6123V115.533ZM39.0031 115.533H39.8064V93.887H39.0031V115.533Z" fill="#E9EAE9"/>
<path d="M39.0028 115.533H36.5074V96.2674H30.416V95.3437H39.0028V115.533ZM38.6587 89.9102H36.1638V70.8309H30.6787V69.9072H38.6587V89.9102ZM47.7049 89.9102H45.2079V70.8309H39.7254V69.9072H47.7049V89.9102ZM56.7491 89.9102H54.2546V70.8309H48.7713V69.9072H56.7491V89.9102ZM65.7975 89.9102H63.3022V70.8309H57.818V69.9072H65.7975V89.9102ZM74.8416 89.9102H72.3467V70.8309H66.8621V69.9072H74.8416V89.9102ZM83.8862 89.9102H81.3908V70.8309H75.9067V69.9072H83.8862V89.9102ZM94.4915 89.9102H91.997V70.8309H84.9525V69.9072H94.4915V89.9102ZM38.6587 38.7008H36.1638V19.876H30.6787V18.9523H38.6587V38.7008ZM47.7049 38.7008H45.2079V19.876H39.7254V18.9523H47.7049V38.7008ZM56.7491 38.7008H54.2546V19.876H48.7713V18.9523H56.7491V38.7008ZM65.7975 38.7008H63.3022V19.876H57.818V18.9523H65.7975V38.7008ZM74.8416 38.7008H72.3467V19.876H66.8621V18.9523H74.8416V38.7008ZM83.8862 38.7008H81.3908V19.876H75.9067V18.9523H83.8862V38.7008ZM94.4915 38.7008H91.997V19.876H84.9525V18.9523H94.4915V38.7008ZM38.6587 64.4771H36.1638V45.0615H30.6787V44.1378H38.6587V64.4771ZM47.7049 64.4771H45.2079V45.0615H39.7254V44.1378H47.7049V64.4771ZM56.7491 64.4771H54.2546V45.0615H48.7713V44.1378H56.7491V64.4771ZM65.7975 64.4771H63.3022V45.0615H57.818V44.1378H65.7975V64.4771ZM74.8416 64.4771H72.3467V45.0615H66.8621V44.1378H74.8416V64.4771ZM83.8862 64.4771H81.3908V45.0615H75.9067V44.1378H83.8862V64.4771ZM94.4915 64.4771H91.997V45.39H84.9525V44.1378H94.4915V64.4771ZM48.3639 115.533H45.8647V96.2674H39.806V95.3437H48.3639V115.533Z" fill="#58597A"/>
<path d="M67.1079 115.533H67.9136V93.887H67.1079V115.533Z" fill="#E9EAE9"/>
<path d="M49.166 115.533H57.7502V93.887H49.166V115.533ZM58.5232 115.533H67.1079V93.887H58.5232V115.533Z" fill="#323457"/>
<path d="M50.2679 113.218H52.1654V107.173H50.2679V113.218ZM32.811 57.9735H34.7087V51.9332H32.811V57.9735ZM60.2531 103.571H61.5227V101.234H60.2531V103.571Z" fill="#58597A"/>
<path d="M57.7505 115.533H58.5545V93.887H57.7505V115.533Z" fill="#E9EAE9"/>
<path d="M57.7502 115.533H55.2574V96.2674H49.166V95.3437H57.7502V115.533ZM67.1078 115.533H64.6147V96.2674H58.5542V95.3437H67.1078V115.533Z" fill="#58597A"/>
<path d="M85.8574 115.533H86.6616V93.887H85.8574V115.533ZM93.6883 115.533H94.492V93.887H93.6883V115.533Z" fill="#E9EAE9"/>
<path d="M67.9141 115.533H76.4982V93.887H67.9141V115.533ZM77.2717 115.533H85.8576V93.887H77.2717V115.533Z" fill="#323457"/>
<path d="M69.0116 113.218H70.9152V107.173H69.0116V113.218ZM68.0624 87.8312H69.9624V81.7908H68.0624V87.8312ZM32.811 88.1132H34.7087V82.0691H32.811V88.1132ZM79.0028 103.571H80.2724V101.234H79.0028V103.571ZM78.3671 81.2109H79.6388V78.873H78.3671V81.2109ZM87.5758 111.591H88.8471V109.245H87.5758V111.591ZM88.9031 108.22H90.1748V105.883H88.9031V108.22ZM86.9707 87.8312H88.242V85.4932H86.9707V87.8312ZM50.5789 82.0691H51.8507V79.7235H50.5789V82.0691ZM59.6174 61.7913H60.889V59.4497H59.6174V61.7913ZM49.9449 53.1036H51.2166V50.7658H49.9449V53.1036ZM87.4539 31.8372H88.7235V29.4907H87.4539V31.8372ZM85.8307 56.13H87.102V53.784H85.8307V56.13ZM77.194 36.0262H78.4636V33.6764H77.194V36.0262ZM69.6727 28.096H70.9423V25.7578H69.6727V28.096ZM52.125 31.8372H53.3946V29.4907H52.125V31.8372ZM32.811 31.8372H34.0829V29.4907H32.811V31.8372ZM89.087 78.1229H90.3583V75.7851H89.087V78.1229Z" fill="#58597A"/>
<path d="M76.498 115.533H77.3044V93.887H76.498V115.533Z" fill="#E9EAE9"/>
<path d="M76.4982 115.533H74.0038V96.2674H67.9141V95.3437H76.4982V115.533ZM85.8576 115.533H83.3631V96.2674H77.3044V95.3437H85.8576V115.533ZM93.6885 115.533H91.1936V96.2674H86.6617V95.3437H93.6885V115.533Z" fill="#58597A"/>
<path d="M93.6882 95.3436H94.4918V93.8869H93.6882V95.3436ZM85.8573 95.3436H86.6614V93.8869H85.8573V95.3436ZM48.3642 95.3436H49.1662V93.8869H48.3642V95.3436ZM29.6123 95.3436H30.4165V93.8869H29.6123V95.3436ZM39.0031 95.3436H39.8064V93.8869H39.0031V95.3436Z" fill="#C4C2C2"/>
<path d="M30.416 95.3436H39.0027V93.8869H30.416V95.3436ZM39.806 95.3436H48.3637V93.8869H39.806V95.3436Z" fill="#4A4A67"/>
<path d="M67.1081 95.3436H67.9138V93.8869H67.1081V95.3436ZM57.7505 95.3436H58.5545V93.8869H57.7505V95.3436Z" fill="#C4C2C2"/>
<path d="M49.166 95.3436H57.7502V93.8869H49.166V95.3436ZM58.5542 95.3436H67.108V93.8869H58.5542V95.3436Z" fill="#4A4A67"/>
<path d="M76.498 95.3436H77.3044V93.8869H76.498V95.3436Z" fill="#C4C2C2"/>
<path d="M67.9141 95.3436H76.4982V93.8869H67.9141V95.3436ZM77.3044 95.3436H85.8575V93.8869H77.3044V95.3436ZM86.6617 95.3436H93.6885V93.8869H86.6617V95.3436Z" fill="#4A4A67"/>
<path d="M29.612 14.1489H24.9491V13.5227H7.8036V14.1489H3.14209V13.5227H29.612V14.1489ZM24.9491 18.9524H29.612V18.3263H24.9491V18.9524ZM3.14209 18.9524H7.8036V18.3263H3.14209V18.9524ZM24.9491 34.3065H29.612V33.6763H24.9491V34.3065ZM3.14209 34.3065H7.8036V33.6763H3.14209V34.3065ZM24.9491 39.11H29.612V38.4839H24.9491V39.11Z" fill="#B4A289"/>
<path d="M3.14209 39.1099H7.8036V38.4838H3.14209V39.1099ZM24.9491 54.9549H29.612V54.3327H24.9491V54.9549ZM3.14209 54.9549H7.8036V54.3327H3.14209V54.9549ZM8.43153 99.814C8.32773 99.7778 8.2192 99.7593 8.11067 99.7593C8.00688 99.7593 7.90309 99.7761 7.8036 99.8092V81.2109H8.43153V99.814ZM8.43153 75.7851H7.8036V59.7584H8.43153V75.7851ZM8.43153 54.3327H7.8036V39.1099H8.43153V54.3327ZM8.43153 33.6764H7.8036V18.9523H8.43153V33.6764ZM16.6892 115.533H16.0635V114.53C16.2621 114.614 16.474 114.661 16.6892 114.669V115.533ZM16.0635 106.864V81.2109H16.6892V104.225L16.3723 105.562L16.0635 106.864ZM16.6892 75.7851H16.0635V59.7584H16.6892V75.7851ZM16.6892 54.3327H16.0635V39.1099H16.6892V54.3327ZM16.6892 33.6764H16.0635V18.9523H16.6892V33.6764ZM24.3229 115.533H24.9491V81.2109H24.3229V115.533ZM24.9491 75.7851H24.3229V59.7584H24.9491V75.7851ZM24.9491 54.3327H24.3229V39.1099H24.9491V54.3327ZM24.9491 33.6764H24.3229V18.9523H24.9491V33.6764ZM24.9491 59.7584H29.612V59.1323H24.9491V59.7584ZM3.14209 59.7584H7.8036V59.1323H3.14209V59.7584ZM24.9491 76.4035H29.612V75.7851H24.9491V76.4035ZM3.14209 76.4035H7.8036V75.7851H3.14209V76.4035ZM24.9491 81.2109H29.612V80.589H24.9491V81.2109ZM3.14209 81.2109H7.8036V80.589H3.14209V81.2109Z" fill="#B4A289"/>
<path d="M7.80371 81.2108H24.9492V75.785H7.80371V81.2108ZM7.80371 59.7584H24.9492V54.3326H7.80371V59.7584ZM7.80371 39.1099H24.9492V33.6763H7.80371V39.1099ZM7.80371 18.9523H24.9492V13.5226H7.80371V18.9523Z" fill="#323457"/>
<path fill-rule="evenodd" clip-rule="evenodd" d="M7.57764 116.85H8.6464V114.671H7.57764V116.85Z" fill="#593117"/>
<path fill-rule="evenodd" clip-rule="evenodd" d="M8.11277 114.671H6.33882C5.04982 114.671 4.11078 113.318 4.43741 111.931L5.95036 105.562L7.12696 100.6C7.39225 99.4794 8.82984 99.4794 9.0947 100.6L10.2756 105.562L11.7985 111.981C12.1189 113.337 11.1972 114.671 9.9315 114.671H8.11277Z" fill="#7BB53B"/>
<path d="M9.93382 114.671H8.64697H9.93727H9.93382ZM9.94071 114.671C10.9481 114.666 11.7358 113.816 11.849 112.785C11.7375 113.822 10.9481 114.667 9.94071 114.671Z" fill="#B4A289"/>
<path d="M9.93173 114.671H6.34294C5.05394 114.671 4.11102 113.318 4.44152 111.931L5.9506 105.562L7.04278 100.971L6.67929 104.407L5.98935 110.945C5.84981 112.257 6.78265 113.38 7.93255 113.38C8.02643 113.38 8.12161 113.372 8.21765 113.357L9.97222 113.082L11.7737 112.8L11.8487 112.785C11.7354 113.816 10.9477 114.666 9.94034 114.671H9.93173Z" fill="#679833"/>
<path fill-rule="evenodd" clip-rule="evenodd" d="M10.5267 117.77H5.6958V117.136C5.6958 116.97 5.82113 116.85 5.97746 116.85H10.245C10.3992 116.85 10.5267 116.97 10.5267 117.136V117.77Z" fill="#E9EAE9"/>
<path d="M5.6958 117.77H10.5266V117.53H5.6958V117.77Z" fill="#C4C2C2"/>
<path fill-rule="evenodd" clip-rule="evenodd" d="M17.9995 116.85H19.0684V114.671H17.9995V116.85Z" fill="#593117"/>
<path fill-rule="evenodd" clip-rule="evenodd" d="M18.5312 114.671H16.7629C15.4721 114.671 14.5328 113.318 14.8614 111.931L16.3727 105.562L17.5497 100.6C17.8163 99.4794 19.2521 99.4794 19.5174 100.6L20.6958 105.562L22.219 111.981C22.5412 113.337 21.6178 114.671 20.3538 114.671H18.5312Z" fill="#7BB53B"/>
<path d="M20.3561 114.671H19.0688H20.3591H20.3561ZM20.3626 114.671C21.3682 114.666 22.1568 113.817 22.27 112.785H22.2709C22.1572 113.822 21.3682 114.667 20.3626 114.671Z" fill="#B4A289"/>
<path d="M20.3537 114.671H16.7628C15.4738 114.671 14.5327 113.318 14.8613 111.931L16.3726 105.562L17.4643 100.971L17.1008 104.407L16.4131 110.945C16.274 112.257 17.2051 113.38 18.3545 113.38C18.448 113.38 18.5432 113.372 18.6392 113.357L20.3946 113.082L22.1953 112.8L22.2698 112.785C22.1565 113.817 21.3679 114.666 20.3623 114.671H20.3537Z" fill="#679833"/>
<path fill-rule="evenodd" clip-rule="evenodd" d="M20.9496 117.77H16.1157V117.136C16.1157 116.97 16.2454 116.85 16.3978 116.85H20.6649C20.8238 116.85 20.9496 116.97 20.9496 117.136V117.77Z" fill="#E9EAE9"/>
<path d="M16.1157 117.77H20.9497V117.53H16.1157V117.77Z" fill="#C4C2C2"/>
<path fill-rule="evenodd" clip-rule="evenodd" d="M28.4204 116.85H29.4914V114.671H28.4204V116.85Z" fill="#593117"/>
<path fill-rule="evenodd" clip-rule="evenodd" d="M28.956 114.671H27.1837C25.893 114.671 24.9537 113.318 25.2823 111.931L26.7953 105.562L27.9723 100.6C28.2389 99.4794 29.6748 99.4794 29.9418 100.6L31.1184 105.562L32.6412 111.981C32.9625 113.337 32.0387 114.671 30.7743 114.671H28.956Z" fill="#7BB53B"/>
<path d="M30.7756 114.671H30.416H30.7786H30.7756ZM30.7821 114.671C31.643 114.667 32.345 114.044 32.6008 113.218H32.6034C32.348 114.048 31.6447 114.668 30.7821 114.671Z" fill="#2C2C48"/>
<path d="M32.6036 113.218H32.6011C32.6439 113.079 32.6739 112.934 32.6902 112.785L32.6928 112.785C32.6769 112.932 32.647 113.077 32.6036 113.218Z" fill="#4A4A67"/>
<path d="M30.7744 114.671H27.186C25.8948 114.671 24.9555 113.318 25.2859 111.931L26.7975 105.562L27.8854 100.971L27.5241 104.407L26.8337 110.945C26.695 112.257 27.6244 113.38 28.7765 113.38C28.8704 113.38 28.966 113.372 29.0624 113.357L30.8174 113.082L32.6163 112.8L32.6913 112.785C32.6752 112.932 32.6453 113.077 32.6017 113.218C32.3459 114.044 31.6439 114.667 30.783 114.671H30.7744Z" fill="#679833"/>
<path fill-rule="evenodd" clip-rule="evenodd" d="M31.3711 117.77H26.5381V117.136C26.5381 116.97 26.6656 116.85 26.8219 116.85H31.0873C31.2436 116.85 31.3711 116.97 31.3711 117.136V117.77Z" fill="#E9EAE9"/>
<path d="M26.5381 117.77H31.371V117.53H26.5381V117.77Z" fill="#C4C2C2"/>
<path d="M60.3574 8.04654C60.3574 8.30577 60.388 8.53358 60.45 8.74242C60.512 8.94309 60.6029 9.12093 60.7188 9.27164C60.8385 9.41891 60.9815 9.53476 61.1537 9.61184C61.3239 9.69279 61.5189 9.73155 61.7412 9.73155C61.9552 9.73155 62.1525 9.69279 62.3226 9.61184C62.497 9.53476 62.6395 9.41891 62.7593 9.27164C62.8773 9.12093 62.9686 8.94309 63.0319 8.74242C63.0918 8.53358 63.1249 8.30577 63.1249 8.04654C63.1249 7.78731 63.0918 7.55994 63.0319 7.35497C62.9686 7.14612 62.8773 6.96053 62.7593 6.81369C62.6395 6.67073 62.497 6.55488 62.3226 6.47393C62.1525 6.39642 61.9552 6.35766 61.7412 6.35766C61.5189 6.35766 61.3239 6.39642 61.1537 6.47738C60.9815 6.55833 60.8385 6.67417 60.7188 6.82187C60.6029 6.97216 60.512 7.15 60.45 7.35842C60.388 7.56727 60.3574 7.79549 60.3574 8.04654ZM64.3347 8.04654C64.3347 8.49094 64.2688 8.88496 64.1353 9.22514C64.0039 9.56146 63.8205 9.84738 63.5922 10.0752C63.3583 10.3034 63.0862 10.4735 62.7675 10.5893C62.4483 10.7017 62.1042 10.7633 61.7412 10.7633C61.3854 10.7633 61.0491 10.7017 60.7338 10.5893C60.4169 10.4735 60.1386 10.3034 59.9031 10.0752C59.6696 9.84738 59.4836 9.56146 59.3484 9.22514C59.2131 8.88496 59.1455 8.49094 59.1455 8.04654C59.1455 7.60214 59.2149 7.20813 59.3544 6.87182C59.4952 6.53163 59.6864 6.24958 59.9242 6.01748C60.1623 5.78581 60.4362 5.61184 60.7515 5.49945C61.0667 5.38361 61.3932 5.32203 61.7412 5.32203C62.0965 5.32203 62.4311 5.38361 62.7498 5.49945C63.0629 5.61184 63.3411 5.78581 63.575 6.01748C63.8127 6.24958 63.9962 6.53163 64.1336 6.87182C64.2688 7.20813 64.3347 7.60214 64.3347 8.04654ZM66.8179 10.6591V5.44562H70.3081V6.4313H67.9928V7.52119H70.0527V8.50644H67.9928V10.6591H66.8179ZM72.6385 10.6591V5.44562H76.1287V6.4313H73.8134V7.52119H75.8758V8.50644H73.8134V10.6591H72.6385ZM78.4638 5.44562H79.6386V10.6591H78.4638V5.44562ZM84.7232 10.7633C83.8743 10.7633 83.2287 10.5239 82.7825 10.0524C82.342 9.58471 82.118 8.91208 82.118 8.04654C82.118 7.61377 82.1856 7.22751 82.3209 6.89077C82.4578 6.55489 82.6413 6.26895 82.8773 6.03298C83.115 5.80131 83.3932 5.62346 83.7197 5.50375C84.0483 5.38361 84.4001 5.32203 84.7809 5.32203C85.0031 5.32203 85.2042 5.34141 85.3821 5.37586C85.5655 5.40729 85.7219 5.44174 85.8571 5.48437C85.9945 5.53088 86.1048 5.57308 86.1978 5.61571C86.2865 5.66222 86.352 5.6971 86.3907 5.72768L86.0509 6.67072C85.892 6.58546 85.7068 6.51225 85.4919 6.45024C85.2791 6.39254 85.038 6.36541 84.7654 6.36541C84.5858 6.36541 84.4079 6.39254 84.2378 6.45024C84.0638 6.51225 83.9092 6.60914 83.7761 6.74436C83.6426 6.87569 83.5379 7.04579 83.457 7.25808C83.3756 7.46693 83.3368 7.72573 83.3368 8.02717C83.3368 8.26702 83.3627 8.49093 83.4165 8.69978C83.4686 8.90433 83.5539 9.08606 83.6714 9.2372C83.7894 9.38749 83.9419 9.50332 84.1336 9.59246C84.3265 9.68117 84.5548 9.72767 84.8269 9.72767C84.9971 9.72767 85.1517 9.71604 85.2852 9.69279C85.4221 9.67772 85.5423 9.65059 85.6469 9.62346C85.7533 9.59634 85.8455 9.56146 85.9247 9.52658C86.0061 9.4917 86.0776 9.465 86.1431 9.43012L86.4678 10.3693C86.302 10.4735 86.0677 10.5626 85.7684 10.6436C85.4669 10.7207 85.1168 10.7633 84.7232 10.7633ZM88.7232 10.6591V5.44562H92.2444V6.4313H89.896V7.45143H91.9813V8.41774H89.896V9.67341H92.4163V10.6591H88.7232Z" fill="#F4F4F5"/>
<path d="M24.9492 18.9523H22.4543V15.9031H7.80371V13.5226H24.9492V18.9523ZM24.9492 39.1099H22.4543V36.065H7.80371V33.6763H24.9492V39.1099ZM24.9492 59.7584H22.4543V56.7169H7.80371V54.3326H24.9492V59.7584ZM24.9492 81.2108H22.4543V78.1616H7.80371V75.785H24.9492V81.2108Z" fill="#58597A"/>
<path d="M83.8865 18.9523H84.9528V17.4917H83.8865V18.9523ZM74.842 18.9523H75.907V17.4917H74.842V18.9523ZM65.7978 18.9523H66.8624V17.4917H65.7978V18.9523ZM56.7494 18.9523H57.8182V17.4917H56.7494V18.9523ZM47.7053 18.9523H48.7717V17.4917H47.7053V18.9523ZM38.659 18.9523H39.7258V17.4917H38.659V18.9523ZM29.6123 18.9523H30.6791V17.4917H29.6123V18.9523Z" fill="#191A29"/>
<path d="M30.6792 18.9523H38.6593V17.4917H30.6792V18.9523ZM39.7259 18.9523H47.7053V17.4917H39.7259V18.9523ZM48.7717 18.9523H56.7496V17.4917H48.7717V18.9523ZM57.8185 18.9523H65.798V17.4917H57.8185V18.9523ZM66.8626 18.9523H74.8421V17.4917H66.8626V18.9523ZM75.9071 18.9523H83.8867V17.4917H75.9071V18.9523ZM84.953 18.9523H94.492V17.4917H84.953V18.9523Z" fill="#4A4A67"/>
<path d="M29.6123 14.9794H95.7291V13.5225H29.6123V14.9794Z" fill="#B8BBCC"/>
<path d="M84.9526 44.1378V42.6772H94.4916V43.0096H84.9526V44.1378Z" fill="#2C2C48"/>
<path d="M83.8865 44.1378H84.9528V42.6771H83.8865V44.1378ZM74.842 44.1378H75.907V42.6771H74.842V44.1378ZM65.7978 44.1378H66.8624V42.6771H65.7978V44.1378ZM56.7494 44.1378H57.8182V42.6771H56.7494V44.1378ZM47.7053 44.1378H48.7717V42.6771H47.7053V44.1378ZM38.659 44.1378H39.7258V42.6771H38.659V44.1378ZM29.6123 44.1378H30.6791V42.6771H29.6123V44.1378Z" fill="#191A29"/>
<path d="M30.6792 44.1378H38.6593V42.6771H30.6792V44.1378ZM39.7259 44.1378H47.7053V42.6771H39.7259V44.1378ZM48.7717 44.1378H56.7496V42.6771H48.7717V44.1378ZM57.8185 44.1378H65.798V42.6771H57.8185V44.1378ZM66.8626 44.1378H74.8421V42.6771H66.8626V44.1378ZM75.9071 44.1378H83.8867V42.6771H75.9071V44.1378ZM84.953 44.1378H94.492V43.0096H84.953V44.1378Z" fill="#4A4A67"/>
<path d="M83.8865 69.9071H84.9528V68.4464H83.8865V69.9071ZM29.6123 69.9071H30.6791V68.4464H29.6123V69.9071ZM38.659 69.9071H39.7258V68.4464H38.659V69.9071ZM47.7053 69.9071H48.7717V68.4464H47.7053V69.9071ZM56.7494 69.9071H57.8182V68.4464H56.7494V69.9071ZM65.7978 69.9071H66.8624V68.4464H65.7978V69.9071ZM74.842 69.9071H75.907V68.4464H74.842V69.9071Z" fill="#191A29"/>
<path d="M30.6792 69.9071H38.6593V68.4464H30.6792V69.9071ZM39.7259 69.9071H47.7053V68.4464H39.7259V69.9071ZM48.7717 69.9071H56.7496V68.4464H48.7717V69.9071ZM57.8185 69.9071H65.798V68.4464H57.8185V69.9071ZM66.8626 69.9071H74.8421V68.4464H66.8626V69.9071ZM75.9071 69.9071H83.8867V68.4464H75.9071V69.9071ZM84.953 69.9071H94.492V68.4464H84.953V69.9071Z" fill="#4A4A67"/>
</svg>
