<svg width="32" height="32" viewBox="0 0 32 32" fill="none" xmlns="http://www.w3.org/2000/svg">
<path d="M16.0001 0C7.16358 0 0 7.19353 0 16.067C0 24.0254 5.76835 30.6164 13.3316 31.8927V19.419H9.47191V14.9302H13.3316V11.6204C13.3316 7.78002 15.6674 5.68724 19.0795 5.68724C20.7137 5.68724 22.1181 5.80952 22.5258 5.86338V9.87759L20.1593 9.87874C18.304 9.87874 17.9464 10.7638 17.9464 12.0631V14.9279H22.3731L21.7957 19.4167H17.9464V32C25.8627 31.0325 32 24.2736 32 16.0624C32 7.19353 24.8364 0 16.0001 0Z" fill="#010002"/>
</svg>
