<svg width="140" height="110" viewBox="0 0 140 110" fill="none" xmlns="http://www.w3.org/2000/svg">
<rect x="9.22534" y="3.59839" width="4.21964" height="105.902" stroke="currentColor"/>
<rect x="6.35474" y="37.7253" width="2.77408" height="31.8934" stroke="currentColor"/>
<rect x="110.547" y="69.6187" width="2.77408" height="31.8934" transform="rotate(-180 110.547 69.6187)" stroke="currentColor"/>
<rect x="3.37817" y="44.8943" width="2.77408" height="17.5555" stroke="currentColor"/>
<rect x="113.523" y="62.4497" width="2.77408" height="17.5555" transform="rotate(-180 113.523 62.4497)" stroke="currentColor"/>
<rect x="103.5" y="3.59839" width="4.21964" height="105.902" stroke="currentColor"/>
<rect x="0.499756" y="48.738" width="2.77408" height="9.86824" stroke="currentColor"/>
<rect x="116.402" y="58.606" width="2.77408" height="9.86824" transform="rotate(-180 116.402 58.606)" stroke="currentColor"/>
<rect x="3.37817" y="70.3208" width="5.79752" height="1.79306" stroke="currentColor"/>
<rect x="107.773" y="70.3208" width="5.79752" height="1.79306" stroke="currentColor"/>
<rect x="103.5" y="9.5" width="4" height="90" transform="rotate(90 103.5 9.5)" stroke="currentColor"/>
<rect x="103.5" y="52.5" width="2" height="90" transform="rotate(90 103.5 52.5)" stroke="currentColor"/>
<rect x="103.5" y="80.5" width="5" height="90" transform="rotate(90 103.5 80.5)" stroke="currentColor"/>
<rect x="80.4998" y="75.5" width="5" height="45" transform="rotate(90 80.4998 75.5)" stroke="currentColor"/>
</svg>
