<svg width="160" height="97" viewBox="0 0 160 97" fill="none" xmlns="http://www.w3.org/2000/svg">
<path d="M11.7583 94.5001L8.90794 25.9579H70.5237L67.6734 94.5001H11.7583Z" stroke="currentColor"/>
<rect x="5.5" y="21.5" width="68" height="4" stroke="currentColor"/>
<path d="M67.6579 21C67.6579 37.7415 54.9582 51.3133 39.2923 51.3133C23.6264 51.3133 10.9268 37.7415 10.9268 21" stroke="currentColor" stroke-width="4"/>
<rect x="83.8223" y="29.5033" width="12.3666" height="2.16814" stroke="currentColor"/>
<rect x="85.9883" y="23.6" width="8.03324" height="5.65328" stroke="currentColor"/>
<mask id="path-6-inside-1" fill="white">
<path fill-rule="evenodd" clip-rule="evenodd" d="M96.6934 31.3824H83.2895L76.211 42.8635H76.2033V42.8761L76.1592 42.9476H76.2033V43.3635V94.4209V94.9209H76.7033H91.5181V93.9209H77.2033V43.8635H102.74V76.8237H103.74V43.3635V42.9476H103.774L103.74 42.8922V42.8635H103.722L96.6934 31.3824Z"/>
</mask>
<path d="M83.2895 31.3824V30.3824H82.7313L82.4383 30.8576L83.2895 31.3824ZM96.6934 31.3824L97.5463 30.8603L97.2537 30.3824H96.6934V31.3824ZM76.211 42.8635V43.8635H76.7693L77.0622 43.3883L76.211 42.8635ZM76.2033 42.8635V41.8635H75.2033V42.8635H76.2033ZM76.2033 42.8761L77.0545 43.4009L77.2033 43.1596V42.8761H76.2033ZM76.1592 42.9476L75.308 42.4228L74.3679 43.9476H76.1592V42.9476ZM76.2033 42.9476H77.2033V41.9476H76.2033V42.9476ZM76.2033 94.9209H75.2033V95.9209H76.2033V94.9209ZM91.5181 94.9209V95.9209H92.5181V94.9209H91.5181ZM91.5181 93.9209H92.5181V92.9209H91.5181V93.9209ZM77.2033 93.9209H76.2033V94.9209H77.2033V93.9209ZM77.2033 43.8635V42.8635H76.2033V43.8635H77.2033ZM102.74 43.8635H103.74V42.8635H102.74V43.8635ZM102.74 76.8237H101.74V77.8237H102.74V76.8237ZM103.74 76.8237V77.8237H104.74V76.8237H103.74ZM103.74 42.9476V41.9476H102.74V42.9476H103.74ZM103.774 42.9476V43.9476H105.558L104.627 42.4254L103.774 42.9476ZM103.74 42.8922H102.74V43.174L102.887 43.4143L103.74 42.8922ZM103.74 42.8635H104.74V41.8635H103.74V42.8635ZM103.722 42.8635L102.869 43.3857L103.162 43.8635H103.722V42.8635ZM83.2895 32.3824H96.6934V30.3824H83.2895V32.3824ZM77.0622 43.3883L84.1407 31.9073L82.4383 30.8576L75.3598 42.3387L77.0622 43.3883ZM76.2033 43.8635H76.211V41.8635H76.2033V43.8635ZM77.2033 42.8761V42.8635H75.2033V42.8761H77.2033ZM77.0104 43.4724L77.0545 43.4009L75.352 42.3513L75.308 42.4228L77.0104 43.4724ZM76.2033 41.9476H76.1592V43.9476H76.2033V41.9476ZM77.2033 43.3635V42.9476H75.2033V43.3635H77.2033ZM77.2033 94.4209V43.3635H75.2033V94.4209H77.2033ZM77.2033 94.9209V94.4209H75.2033V94.9209H77.2033ZM76.7033 93.9209H76.2033V95.9209H76.7033V93.9209ZM91.5181 93.9209H76.7033V95.9209H91.5181V93.9209ZM90.5181 93.9209V94.9209H92.5181V93.9209H90.5181ZM77.2033 94.9209H91.5181V92.9209H77.2033V94.9209ZM76.2033 43.8635V93.9209H78.2033V43.8635H76.2033ZM102.74 42.8635H77.2033V44.8635H102.74V42.8635ZM103.74 76.8237V43.8635H101.74V76.8237H103.74ZM103.74 75.8237H102.74V77.8237H103.74V75.8237ZM102.74 43.3635V76.8237H104.74V43.3635H102.74ZM102.74 42.9476V43.3635H104.74V42.9476H102.74ZM103.774 41.9476H103.74V43.9476H103.774V41.9476ZM102.887 43.4143L102.921 43.4697L104.627 42.4254L104.593 42.37L102.887 43.4143ZM102.74 42.8635V42.8922H104.74V42.8635H102.74ZM103.722 43.8635H103.74V41.8635H103.722V43.8635ZM95.8405 31.9046L102.869 43.3857L104.575 42.3414L97.5463 30.8603L95.8405 31.9046Z" fill="currentColor" mask="url(#path-6-inside-1)"/>
<path d="M119.378 52.9119L120.336 55.298L120.422 55.5109L120.639 55.5849L123.095 56.4218L120.639 57.2588L120.422 57.3328L120.336 57.5456L119.378 59.9317L118.419 57.5456L118.333 57.3328L118.116 57.2588L115.66 56.4218L118.116 55.5849L118.333 55.5109L118.419 55.298L119.378 52.9119Z" stroke="currentColor"/>
<rect x="76.6992" y="52.6006" width="26.5274" height="21.465" stroke="currentColor"/>
<rect x="109.149" y="89.5865" width="5.92389" height="4.83437" stroke="currentColor"/>
<path d="M88.4609 85.2756C88.4609 83.6618 90.4379 81.1513 92.5946 79.7168C95.2905 77.9236 97.4472 77.7443 101.94 77.3857C105.535 77.0987 120.212 77.2661 127.102 77.3857V79.3582C127.102 79.3582 122.069 79.1788 119.194 79.7168C118.462 79.8536 117.645 80.0574 116.774 80.2745L116.774 80.2745C114.177 80.9221 111.102 81.6885 108.41 81.1513C105.368 80.5443 102.479 80.972 100.862 82.5859C99.8229 83.6226 99.6413 84.1506 99.424 84.7826L99.424 84.7826C99.3707 84.9377 99.3152 85.099 99.2444 85.2756L135.908 85.2756V89.5793H88.4609V85.2756Z" stroke="currentColor"/>
<path d="M89.8984 89.5793L91.1565 94.4209H101.041V89.5793" stroke="currentColor"/>
<path d="M101.761 89.5793L102.48 94.4209H103.378V89.5793" stroke="currentColor"/>
<path d="M105.354 89.5793V94.4209H123.507L124.945 89.5793" stroke="currentColor"/>
<path d="M126.382 89.5793L124.944 94.4209H128.719L130.336 89.5793" stroke="currentColor"/>
<path d="M130.517 94.4209L131.954 89.5793H133.572V94.4209H130.517Z" stroke="currentColor"/>
</svg>
