<svg width="339" height="699" viewBox="0 0 339 699" fill="none" xmlns="http://www.w3.org/2000/svg">
<path d="M29.3358 372.656L36.3278 363.288L28.9335 357.893L21.8331 367.413L29.3358 372.656ZM40.2037 358.097L47.2403 348.672L44.9927 347.031C43.5496 345.978 43.2303 343.954 44.2839 342.504C44.9224 341.636 45.9058 341.176 46.9083 341.176C47.566 341.176 48.2364 341.38 48.8175 341.802L51.1163 343.475L62.1054 328.757C62.3864 325.117 62.6481 321.471 62.8652 317.825L42.7131 339.439L32.8158 352.702L40.2037 358.097Z" fill="#FCFFFF"/>
<path d="M294.808 514.174C295.102 514.002 295.395 513.823 295.689 513.644C295.421 513.746 295.159 513.848 294.897 513.951C294.865 514.027 294.84 514.104 294.808 514.174Z" fill="#CDDDE2"/>
<path d="M237.091 610.477H240.36C242.665 598.505 250.998 588.741 261.942 584.725H254.529C245.545 590.197 239.019 599.52 237.091 610.477Z" fill="#B7D4D8"/>
<path d="M304.174 604.711H307.597C302.884 590.932 290.618 580.785 275.925 579.617V582.867C288.824 583.997 299.653 592.739 304.174 604.711Z" fill="#B7D4D8"/>
<path d="M200.329 412.896C202.034 412.264 203.637 411.683 205.188 411.14V287.558H200.329V412.896Z" fill="#C6E3E7"/>
<path d="M125.877 414.486C125.838 413.956 125.864 413.439 125.928 412.928C123.45 411.414 120.973 409.901 118.495 408.388C117.633 407.864 116.663 407.328 115.698 407.328C115.437 407.328 115.181 407.366 114.926 407.456C113.572 407.922 113.048 409.512 112.135 410.623L116.714 413.962C116.292 413.126 116.062 412.174 116.26 411.268C116.484 410.24 117.391 409.314 118.444 409.314C118.451 409.314 118.457 409.314 118.463 409.314C119.638 409.327 120.494 410.355 121.33 411.178C122.633 412.468 124.204 413.522 125.877 414.486Z" fill="#DBEDE7"/>
<path d="M300.764 555.608C301.76 555.608 302.744 555.142 303.382 554.274C304.436 552.831 304.123 550.806 302.674 549.746L293.951 543.374C293.67 545.845 293.249 548.227 292.706 550.494L298.855 554.982C299.43 555.404 300.1 555.608 300.764 555.608Z" fill="#BDD9DD"/>
<path d="M197.954 481.309C197.967 479.112 197.98 476.909 198.005 474.713C196.415 475.836 194.813 476.871 193.197 477.829L197.954 481.309ZM151.226 442.933C150.728 441.368 150.256 439.766 149.809 438.131L145.85 435.232C144.318 434.683 142.83 434.032 141.419 433.221C141.534 434.319 141.597 435.43 141.585 436.535C141.987 436.305 142.396 436.088 142.811 435.877L151.226 442.933ZM123.463 425.756C124.236 425.756 125.161 425.59 126.477 425.29C126.183 423.055 123.508 420.392 121.752 418.975C119.996 417.564 118.042 416.261 116.905 414.32C116.835 414.199 116.771 414.084 116.714 413.963L112.135 410.623L59.4948 372.183C59.4948 372.918 59.4948 373.652 59.5012 374.386C59.5076 375.938 59.4245 377.936 59.2648 380.037L108.866 416.255C108.866 416.236 108.866 416.223 108.866 416.204C109.428 416.632 109.945 417.027 110.424 417.391L120.162 424.505C121.477 425.38 122.301 425.756 123.463 425.756Z" fill="#BDD9DD"/>
<path d="M59.2623 380.037C59.422 377.936 59.5051 375.938 59.4987 374.386C59.4923 373.652 59.4923 372.917 59.4923 372.183L40.2022 358.097L36.3263 363.288L59.2623 380.037Z" fill="#D5DDDD"/>
<path d="M36.3257 363.288L40.2017 358.097L32.8138 352.701L28.9315 357.893L36.3257 363.288Z" fill="#DBDDDD"/>
<path d="M132.108 445.812C134.592 441.891 137.721 438.756 141.584 436.534C141.597 435.429 141.533 434.318 141.418 433.22C141.246 433.118 141.08 433.016 140.907 432.914C137.517 430.819 134.797 427.818 132.121 424.855C129.746 422.218 127.307 419.479 126.202 416.107C126.017 415.545 125.915 415.009 125.876 414.486C124.203 413.521 122.633 412.468 121.33 411.178C120.494 410.354 119.638 409.326 118.463 409.313C118.457 409.313 118.45 409.313 118.444 409.313C117.39 409.313 116.483 410.239 116.26 411.267C116.062 412.174 116.292 413.126 116.713 413.962C116.771 414.083 116.835 414.198 116.905 414.32C118.042 416.261 119.995 417.563 121.751 418.974C123.507 420.392 126.183 423.055 126.477 425.29C125.161 425.59 124.235 425.756 123.463 425.756C122.301 425.756 121.477 425.379 120.162 424.504C119.964 424.376 119.753 424.23 119.523 424.07C115.487 421.28 113.929 420.079 110.424 417.391C109.945 417.027 109.428 416.631 108.866 416.203C108.866 416.222 108.866 416.235 108.866 416.254C108.553 419.658 106.835 422.078 107.902 425.328C109.006 428.699 111.446 431.439 113.821 434.076C116.49 437.039 119.21 440.04 122.607 442.134C125.512 443.928 128.782 444.976 132.108 445.812Z" fill="#DEF0E9"/>
<path d="M252.792 396.677C252.837 396.671 252.882 396.671 252.92 396.671L254.567 390.203C254.133 390.235 253.712 390.247 253.303 390.247C253.124 390.247 252.952 390.247 252.779 390.241C250.909 392.744 248.546 394.743 246.024 396.23C248.476 396.384 250.736 396.524 252.792 396.677Z" fill="#DEF0E9"/>
<path d="M246.019 396.23C248.542 394.742 250.904 392.744 252.775 390.241C252.239 390.221 251.721 390.17 251.23 390.094L246.032 388.861C245.719 389.768 245.381 390.656 244.998 391.53C244.302 393.114 243.465 394.634 242.437 396.007C242.52 396.013 242.603 396.019 242.68 396.026C243.835 396.096 244.947 396.166 246.019 396.23ZM227.668 393.957C230.241 393.957 232.795 393.408 235.26 392.616C237.891 391.773 240.49 390.662 242.712 389.015C243.088 388.74 243.459 388.446 243.816 388.14C241.971 387.208 240.822 385.554 240.183 383.638C239.302 381.091 239.366 378.064 239.94 375.65C239.94 375.65 242.91 367.164 243.746 364.361C237.999 363.761 232.31 362.892 226.761 361.449L223.492 365.446V371.711L225.618 372.988C225.388 373.888 224.418 376.8 223.492 379.507V393.414C224.673 393.746 225.899 393.919 227.119 393.951C227.304 393.957 227.483 393.957 227.668 393.957ZM227.464 357.854C227.425 357.452 227.387 357.011 227.361 356.564C227.968 354.655 228.645 352.912 229.411 351.29C230.177 351.533 230.943 351.756 231.754 352.005C232.227 352.146 232.795 352.312 233.434 352.484L229.539 351.016C229.494 351.105 229.449 351.194 229.411 351.29C228.645 352.918 227.974 354.649 227.349 356.558C227.381 357.011 227.419 357.446 227.464 357.854Z" fill="#DEF0E9"/>
<path d="M226.762 361.449L227.791 360.185C227.791 360.185 227.612 359.195 227.465 357.854C227.605 359.195 227.791 360.178 227.791 360.178L226.762 361.449Z" fill="#D2F5FA"/>
<path d="M243.75 364.361C243.827 364.112 243.885 363.914 243.923 363.761L241.516 362.318C239.868 361.436 239.37 359.304 240.487 357.829L242.16 355.779L233.438 352.484C232.799 352.312 232.231 352.146 231.759 352.005C230.948 351.756 230.182 351.533 229.415 351.29C228.649 352.912 227.972 354.655 227.366 356.564C227.391 357.011 227.43 357.452 227.468 357.854C227.615 359.195 227.793 360.185 227.793 360.185L226.765 361.449C232.314 362.892 238.004 363.761 243.75 364.361Z" fill="#D9ECE6"/>
<path d="M232.549 399.225C233.82 398.925 235.142 398.65 236.54 398.395C237.453 396.396 239.107 395.969 241.157 395.969C241.572 395.969 242 395.981 242.44 396.007C243.468 394.634 244.305 393.114 245.001 391.531C245.384 390.656 245.722 389.768 246.035 388.862L245.288 388.689C244.752 388.549 244.266 388.37 243.819 388.14C243.462 388.447 243.092 388.74 242.715 389.015C240.493 390.662 237.894 391.773 235.263 392.616C232.798 393.408 230.244 393.957 227.671 393.957C227.486 393.957 227.307 393.957 227.122 393.951C225.902 393.919 224.676 393.747 223.495 393.414V395.777C224.357 396.773 225.506 397.533 226.981 397.91L232.549 399.225Z" fill="#D9ECE6"/>
<path d="M133.166 547.333L139.506 541.414C139.883 538.853 140.177 536.906 140.355 535.68C132.074 538.227 125.74 541.024 122.285 543.412C122.387 543.387 122.521 543.374 122.668 543.374C124.316 543.374 128.543 545.002 133.166 547.333Z" fill="#ABDBE6"/>
<path d="M138.258 550.098C138.737 546.739 139.158 543.808 139.509 541.414L133.169 547.333C134.848 548.176 136.578 549.115 138.258 550.098Z" fill="#CCDFE6"/>
<path d="M113.13 610.477H130.326C130.492 609.047 130.658 607.623 130.83 606.186H113.66C113.481 607.61 113.303 609.041 113.13 610.477ZM119.892 559.727L133.167 547.333C128.544 545.002 124.317 543.374 122.67 543.374C122.523 543.374 122.389 543.386 122.287 543.412C122.28 543.412 121.323 549.734 119.892 559.727Z" fill="#ABDBE6"/>
<path d="M113.659 606.186H130.829C133.358 585.083 136.276 563.954 138.255 550.097C136.576 549.114 134.846 548.175 133.166 547.333L119.891 559.727C118.205 571.546 115.862 588.493 113.659 606.186Z" fill="#CCDFE6"/>
<path d="M206.854 478.544L214.861 471.066L208.22 466.22C207.869 466.552 207.511 466.89 207.16 467.216C206.924 471.041 206.822 474.821 206.854 478.544ZM216.317 464.106C216.336 461.961 216.361 459.809 216.387 457.676C215.212 459.011 214.031 460.313 212.843 461.571L216.317 464.106ZM201.694 422.321C205.391 417.717 209.28 413.171 213.309 408.675C210.519 409.371 207.926 410.189 205.187 411.14C203.635 411.683 202.033 412.264 200.328 412.896C199.945 413.037 199.555 413.177 199.153 413.324L201.694 422.321ZM236.539 398.395C240.9 397.603 246.015 397.035 252.79 396.677C250.733 396.524 248.473 396.383 246.021 396.23C244.948 396.166 243.837 396.096 242.682 396.026C242.605 396.019 242.522 396.013 242.439 396.007C241.998 395.981 241.571 395.969 241.155 395.969C239.106 395.969 237.452 396.396 236.539 398.395Z" fill="#ABDBE6"/>
<path d="M211.326 511.773C213.127 511.754 214.946 511.735 216.76 511.722C216.638 508.97 216.536 505.982 216.453 502.814C216.294 496.212 216.23 488.831 216.23 481.143C216.23 478.161 216.236 475.128 216.255 472.082L214.863 471.067L206.856 478.544C206.958 490.433 208.44 501.697 211.326 511.773Z" fill="#CCDFE6"/>
<path d="M11.0346 381.876L19.0864 371.091C19.0417 369.539 19.0225 367.771 19.0545 365.472L13.8505 361.832L3.23159 376.053L0.000732422 373.633L11.0346 381.876Z" fill="#BDD9DD"/>
<path d="M19.0571 365.472C19.0635 365.255 19.0635 365.032 19.0699 364.802L42.7148 339.439L52.1523 326.803L41.1185 318.566L10.5392 359.521L41.1185 318.566L44.3495 320.979L13.8531 361.833L19.0571 365.472Z" fill="#D5DDDD"/>
<path d="M19.0858 371.091L21.8315 367.413L19.0539 365.472C19.0219 367.771 19.0411 369.54 19.0858 371.091Z" fill="#D5DDDD"/>
<path d="M21.8348 367.413L28.9352 357.893L32.8176 352.701L42.7148 339.439L19.0699 364.802C19.0635 365.032 19.0635 365.255 19.0572 365.472L21.8348 367.413Z" fill="#DBDDDD"/>
<path d="M3.23072 376.052L13.8496 361.832L10.5357 359.521L-0.000142097 373.632L3.23072 376.052Z" fill="#B7D4D8"/>
<path d="M13.8493 361.833L44.3457 320.979L41.1147 318.566L10.5354 359.521L13.8493 361.833Z" fill="#D0D7D8"/>
<path d="M212.748 516.326L214.23 514.263C214.281 514.193 214.332 514.123 214.39 514.059C214.677 513.727 215.041 513.484 215.437 513.35C215.686 513.267 215.954 513.216 216.228 513.216C216.388 513.216 216.548 513.235 216.714 513.267C216.752 513.274 216.79 513.286 216.829 513.293C216.803 512.782 216.778 512.252 216.758 511.722C214.945 511.735 213.125 511.754 211.325 511.773C211.765 513.325 212.238 514.838 212.748 516.326Z" fill="#D8D8D8"/>
<path d="M223.246 584.725H262.592C265.408 581.034 268.875 577.899 272.815 575.505H266.973C266.96 575.518 266.947 575.524 266.941 575.537C266.941 575.537 252.274 575.69 232.536 575.894L223.246 584.725ZM266.787 584.725H275.925V582.867V579.617V577.452C272.483 579.317 269.393 581.788 266.787 584.725Z" fill="#C4DDDE"/>
<path d="M209.809 584.725H223.243L232.534 575.894C225.229 575.971 217.235 576.048 209.03 576.137L208.315 576.82C208.87 579.304 209.362 581.948 209.809 584.725Z" fill="#E5E1DE"/>
<path d="M208.319 576.82L209.034 576.137C208.746 576.143 208.459 576.143 208.165 576.143C208.216 576.367 208.268 576.597 208.319 576.82Z" fill="#C4DDDE"/>
<path d="M161.844 485.497C166.403 483.837 170.374 482.017 173.963 479.961C163.28 469.17 155.924 457.555 151.225 442.932L142.809 435.877C142.394 436.088 141.985 436.304 141.583 436.534C137.72 438.756 134.591 441.892 132.107 445.812C131.871 446.195 131.635 446.579 131.405 446.974L161.844 485.497ZM187.072 442.754C191.427 435.768 196.356 428.974 201.694 422.321L199.153 413.324C192.04 421.056 185.271 428.904 179.154 436.969L187.072 442.754Z" fill="#ABDBE6"/>
<path d="M198.381 519.173C198.42 519.173 198.458 519.173 198.496 519.167L198.151 512.035C198.215 514.538 198.292 516.926 198.381 519.173Z" fill="#CDDDE2"/>
<path d="M197.93 486.876L206.857 478.543C206.825 474.821 206.927 471.041 207.164 467.216C204.169 469.993 201.117 472.503 198.007 474.712C197.969 478.78 197.943 482.86 197.93 486.876Z" fill="#ACD9E2"/>
<path d="M198.151 512.035C202.435 511.92 206.854 511.831 211.324 511.773C208.438 501.697 206.956 490.433 206.854 478.544L197.927 486.877C197.927 488.045 197.927 489.207 197.927 490.363C197.927 498.051 197.991 505.433 198.151 512.035Z" fill="#CDDDE2"/>
<path d="M198.494 519.167C199.841 519.071 201.189 518.982 202.555 518.912C205.352 518.777 208.187 518.695 211.041 518.695L212.746 516.326C212.235 514.838 211.763 513.324 211.322 511.773C206.852 511.83 202.434 511.92 198.149 512.035L198.494 519.167Z" fill="#D7D7D7"/>
<path d="M159.82 493.192C167.061 491.557 173.912 488.141 180.477 483.371C179.698 483.594 178.912 483.792 178.127 483.971C176.684 482.643 175.298 481.308 173.964 479.961C170.375 482.017 166.403 483.837 161.844 485.497L131.405 446.975C136.475 466.009 145.536 480.019 159.82 493.192Z" fill="#ACD9E2"/>
<path d="M232.537 575.894C252.274 575.69 266.941 575.537 266.941 575.537C266.948 575.524 266.96 575.518 266.973 575.505H232.946L232.537 575.894Z" fill="#C1DBDC"/>
<path d="M209.031 576.137C217.236 576.047 225.231 575.971 232.536 575.894L232.944 575.505H209.695L209.031 576.137Z" fill="#E2DFDC"/>
<path d="M208.165 576.143C208.459 576.143 208.746 576.143 209.034 576.137L209.698 575.505H208.018C208.07 575.716 208.114 575.926 208.165 576.143Z" fill="#C1DBDC"/>
<path d="M245.215 352.044L239.436 349.86L245.215 352.044ZM239.283 349.803L242.546 341.163L247.303 342.964C247.437 342.658 247.571 342.364 247.711 342.07C249.193 338.929 250.961 336.323 252.915 334.21C252.909 334.21 252.903 334.21 252.896 334.21C254.55 331.847 256.683 329.785 259.064 328.093C257.449 327.85 255.846 327.729 254.269 327.729C243.548 327.729 233.785 333.386 228.389 345.691L239.283 349.803Z" fill="#DAD8D1"/>
<path d="M242.159 355.779L245.064 352.229L245.217 352.044L239.439 349.86L239.285 349.803L228.392 345.69L223.494 343.832V348.73L229.541 351.016L233.436 352.484L242.159 355.779Z" fill="#D2D5D1"/>
<path d="M245.216 352.044L246.09 350.959C246.09 350.959 245.905 349.962 245.765 348.609C245.72 348.206 245.682 347.779 245.656 347.338C246.167 345.774 246.703 344.331 247.304 342.964L242.547 341.163L239.284 349.803L239.437 349.86L245.216 352.044Z" fill="#D2D5D1"/>
<path d="M290.035 515.642C301.873 511.92 314.235 505.062 327.038 495.618C329.726 493.645 332.427 491.551 335.154 489.348C337.81 487.196 339.151 483.811 338.685 480.44C335.262 455.314 326.776 434.708 315.416 415.757L304.453 440.672L304.306 441.432L290.035 515.642Z" fill="#006080"/>
<path d="M294.892 513.95C305.243 510.004 315.977 503.778 327.036 495.618L314.4 488.026V441.502C311.73 461.233 305.492 485.312 297.823 506.262C296.865 508.88 295.888 511.447 294.892 513.95Z" fill="#035570"/>
<path d="M254.776 607.975H258.013C258.013 588.978 272.987 573.526 291.383 573.526C309.786 573.526 324.753 588.978 324.753 607.975H327.997C327.997 587.19 311.573 570.288 291.383 570.288C271.199 570.288 254.776 587.19 254.776 607.975Z" fill="#3C3C3B"/>
<path d="M253.699 604.712L264.905 677.99H317.846L329.078 604.712H253.699Z" fill="#C44217"/>
<path d="M272.957 604.712L284.182 677.99H317.846L329.078 604.712H272.957Z" fill="#E94E1B"/>
<path d="M264.902 677.99H284.179L282.864 669.363C277.309 672.958 271.332 675.851 264.902 677.99Z" fill="#B13C15"/>
<path d="M284.182 677.99H317.846L329.078 604.712C318.044 633.548 303.281 656.165 282.867 669.363L284.182 677.99Z" fill="#D24719"/>
<path d="M225 538H217V0H225V538Z" fill="#878787"/>
<path d="M130.421 401.422C131.341 400.311 131.864 398.702 133.224 398.229C134.431 397.814 135.708 398.504 136.794 399.168C140.574 401.479 144.354 403.784 148.134 406.096C149.2 406.747 150.388 407.584 150.471 408.835C150.548 409.927 149.73 410.859 148.964 411.651C148.019 412.622 146.978 413.65 145.637 413.861C144.501 414.046 143.364 413.599 142.291 413.171C137.994 411.415 133.684 409.659 129.572 407.501C128.812 407.105 128.001 406.62 127.727 405.809C127.439 404.947 127.873 404.002 128.474 403.318C129.074 402.642 129.847 402.118 130.421 401.422Z" fill="#EDBB86"/>
<path d="M319.063 546.381C320.059 546.381 321.049 545.921 321.681 545.053C322.735 543.61 322.422 541.579 320.979 540.526L48.8167 341.801C47.3672 340.741 45.343 341.061 44.2831 342.504C43.2295 343.953 43.5488 345.977 44.9919 347.031L317.154 545.762C317.729 546.183 318.399 546.381 319.063 546.381Z" fill="#575756"/>
<path d="M144.782 416.063C141.174 416.893 140.516 416.708 137.828 414.85C133.237 411.677 131.852 410.566 127.171 406.983C126.871 410.412 125.128 412.839 126.201 416.108C127.305 419.479 129.744 422.219 132.12 424.856C134.795 427.819 137.515 430.82 140.906 432.914C144.814 435.321 149.379 436.381 153.849 437.409C154.647 437.595 155.509 437.773 156.276 437.486C157.118 437.167 157.661 436.35 158.07 435.551C160.311 431.145 160.164 425.897 159.296 421.031C158.804 418.247 158.044 415.412 156.276 413.209C152.202 408.139 144.258 406.53 139.629 401.958C138.799 401.134 137.937 400.106 136.768 400.094C135.702 400.081 134.789 401.013 134.559 402.048C134.329 403.088 134.668 404.18 135.204 405.093C136.347 407.047 138.294 408.343 140.05 409.755C141.813 411.166 144.482 413.828 144.782 416.063Z" fill="#FFC990"/>
<path d="M165.562 698.263H212.692C213.363 687.848 211.696 679.873 209.206 672.919C201.288 668.328 190.778 669.503 178.135 675.422L171.041 680.512C167.599 682.97 165.562 686.942 165.562 691.169V698.263Z" fill="#1F1F1F"/>
<path d="M165.56 560.634C169.768 590.191 170.757 635.546 175.904 664.434C176.574 668.15 177.309 671.821 178.132 675.423C183.017 676.355 187.487 674.976 191.931 673.59C197.493 671.853 203.003 670.123 209.21 672.926C215.346 639.205 213.916 572.319 200.589 558.124C189.964 546.509 184.269 550.698 169.933 558.341C168.561 559.076 167.105 559.848 165.56 560.634Z" fill="#004B63"/>
<path d="M253.163 398.312L282.357 402.743L285.78 374.22L260.736 367.611L253.163 398.312Z" fill="#FFC990"/>
<path d="M240.182 383.638C240.974 386.02 242.564 387.999 245.284 388.689L251.229 390.094C253.195 390.407 255.577 390.241 258.061 389.621H258.074C264.861 387.853 272.434 382.521 274.542 373.594L274.861 373.671L274.95 373.69C279.337 374.673 285.026 380.81 286.603 376.697C288.347 372.157 295.332 366.711 297.548 360.702C304.272 333.137 286.91 329.982 276.764 327.179C268.488 325.276 259.542 327.026 252.927 334.197C250.967 336.31 249.192 338.922 247.71 342.07C246.944 343.692 246.274 345.428 245.654 347.338C245.782 349.279 246.089 350.965 246.089 350.965L245.061 352.223L240.482 357.829C239.365 359.304 239.863 361.436 241.51 362.318L243.918 363.761C243.451 365.6 239.94 375.65 239.94 375.65C239.365 378.064 239.301 381.091 240.182 383.638Z" fill="#FFC990"/>
<path d="M272.162 348.174C271.441 353.25 269.206 359.955 267.252 368.614C269.934 369.565 269.934 369.565 272.89 370.459C274.793 369.118 280.208 364.201 280.878 363.588C279.703 364.929 265.464 381.799 284.23 382.859C287.634 379.117 290.265 376.04 292.384 373.307C294.396 370.682 295.903 368.39 297.078 366.379C299.926 361.411 300.43 357.944 301.266 353.474C303.833 339.516 292.665 331.802 280.374 324.657C272.947 320.353 259.315 325.046 252.897 334.209C264.627 334.937 269.876 337.057 271.664 341.131C272.501 343.034 272.558 345.377 272.162 348.174Z" fill="#131313"/>
<path d="M283.55 366.181C282.343 370.465 277.344 374.386 274.547 373.601C271.75 372.815 273.033 369.431 274.196 365.14C274.962 362.299 275.377 358.071 278.697 358.046C281.603 358.014 285.312 359.904 283.55 366.181Z" fill="#FFC990"/>
<path d="M245.065 352.229V352.223L245.217 352.045L245.065 352.229Z" fill="#BDC0BC"/>
<path d="M245.218 352.044L246.092 350.965C246.092 350.965 245.913 349.962 245.767 348.609C245.907 349.962 246.092 350.959 246.092 350.959L245.218 352.044Z" fill="#BDC0BC"/>
<path d="M270.478 355.875C271.136 353.34 271.685 351.073 272.03 349.043L269.252 347.753H269.233C268.543 347.587 254.764 344.183 250.058 342.785C249.247 342.536 248.481 342.312 247.721 342.07C246.948 343.685 246.278 345.435 245.665 347.344C245.69 347.785 245.729 348.212 245.767 348.608C245.914 349.962 246.092 350.965 246.092 350.965L245.218 352.044L245.065 352.223V352.229C253.314 354.374 261.871 355.243 270.478 355.875Z" fill="#E6B582"/>
<path d="M290.011 357.394L289.2 357.011L288.613 356.922L288.575 356.718L272.03 349.043C271.685 351.073 271.136 353.34 270.478 355.875C276.998 356.36 283.549 356.711 290.011 357.394Z" fill="#121211"/>
<path d="M253.302 390.247C253.71 390.247 254.132 390.235 254.566 390.203L254.802 389.264C255.703 387.195 257.375 386.748 259.463 386.748C259.872 386.748 260.3 386.761 260.747 386.787C261.769 385.414 262.611 383.894 263.301 382.311C264.559 379.45 265.344 376.398 266.136 373.377C265.147 375.976 263.256 378.16 261.015 379.795C258.793 381.442 256.201 382.553 253.563 383.396C251.105 384.188 248.545 384.737 245.971 384.737C245.786 384.737 245.607 384.737 245.428 384.731C243.634 384.686 241.84 384.328 240.186 383.639C240.825 385.554 241.974 387.208 243.819 388.14C244.266 388.37 244.752 388.549 245.288 388.689L246.035 388.862L251.233 390.094C251.724 390.171 252.242 390.222 252.778 390.241C252.95 390.247 253.123 390.247 253.302 390.247Z" fill="#E6B582"/>
<path d="M90.1043 698.263H157.738C159.315 691.616 159.513 684.975 157.738 678.36C149.514 670.353 138.793 666.987 125.645 668.099C121.757 674.414 105.678 680.007 98.1691 683.347C93.2651 685.524 90.1043 690.371 90.1043 695.741V698.263Z" fill="#3C3C3B"/>
<path d="M140.586 534.192L148.204 567.6C148.479 567.644 159.123 567.568 174.365 567.421C176.178 567.402 178.056 567.383 180.003 567.37C187.148 567.287 195.066 567.223 203.233 567.146H203.884C209.516 567.095 215.288 567.031 221.003 566.98C253.779 566.642 285.24 566.316 285.24 566.316C292.545 558.252 297.391 538.649 292.072 520.744C291.574 519.027 258.057 518.771 236.041 518.752H236.022C228.959 518.739 223.078 518.771 219.854 518.771C218.136 518.784 217.166 518.784 217.166 518.784C212.243 518.624 207.351 518.675 202.556 518.912C187.972 519.659 174.314 522.104 163.331 525.105C152.757 527.992 144.673 531.376 140.586 534.192Z" fill="#006080"/>
<path d="M125.651 668.105C130.669 670.225 135.126 672.103 139.986 673.756C145.075 675.506 150.617 677.013 157.724 678.36C158.082 677.498 158.439 676.643 158.778 675.729C169.166 648.841 177.25 594.182 174.383 567.498L174.364 567.422C173.783 561.892 172.71 557.569 171.095 554.964V554.945C169.326 551.931 167.64 549.549 165.891 547.716C160.221 541.676 143.21 533.496 140.586 534.192C140.554 534.192 125.261 635.834 125.651 668.105Z" fill="#006080"/>
<path d="M216.453 502.815C216.619 508.938 216.83 514.378 217.168 518.784L217.232 518.803C221.396 519.595 225.527 520.31 229.626 520.923C230.859 521.102 232.091 521.262 233.304 521.428C254.005 524.212 273.711 524.263 292.075 520.745C294.054 516.179 295.983 511.32 297.828 506.263C309.398 474.655 317.706 435.941 315.42 415.757C309.749 411.428 300.599 406.537 286.475 399.085L285.128 390.382C282.101 387.936 273.883 387.617 260.991 386.806C258.201 386.627 255.921 386.704 254.804 389.264L252.92 396.671C235.149 397.61 228.802 399.928 217.462 404.104C217.392 408.644 216.875 426.606 216.536 447.639C216.492 450.921 216.421 454.292 216.389 457.677C216.198 473.282 216.134 489.61 216.453 502.815Z" fill="#006080"/>
<path d="M18.3027 364.412L29.3366 372.656L70.4517 317.582L59.4179 309.345L18.3027 364.412Z" fill="#575756"/>
<path d="M18.2989 364.412L21.5363 366.826L62.645 311.752L59.4142 309.345L18.2989 364.412Z" fill="#3C3C3B"/>
<path d="M203.237 567.146H221.058L221.007 566.98C215.516 550.864 214.175 534.773 219.858 518.771C218.14 518.784 217.169 518.784 217.169 518.784C212.246 518.624 207.355 518.675 202.56 518.912C199.125 536.165 199.578 552.058 203.237 567.146Z" fill="#3C3C3B"/>
<path d="M275.781 540.271L277.397 540.169C283.067 539.479 287.926 536.325 290.391 531.727C292.83 527.181 293.411 522.047 293.916 517.52L288.36 516.9C287.888 521.121 287.402 525.489 285.474 529.084C283.865 532.085 280.589 534.154 276.726 534.626C274.625 534.888 272.25 534.709 270.29 529.435C268.962 525.853 268.125 522.111 267.819 518.305L262.257 518.752C262.602 523.069 263.547 527.321 265.054 531.382C267.257 537.289 270.852 540.271 275.781 540.271Z" fill="#3C3C3B"/>
<path d="M239.647 540.207C245.215 540.207 250.752 537.007 253.931 531.874C256.779 527.276 257.443 522.117 258.031 517.571L252.488 516.855C251.952 521.038 251.39 525.367 249.181 528.937C247.316 531.938 243.568 534.843 239.149 534.613C235.81 534.421 232.445 532.218 230.574 529.007C228.722 525.814 228.23 521.957 227.892 518.273L222.33 518.784C222.726 523.087 223.32 527.64 225.74 531.81C228.575 536.682 233.594 539.887 238.837 540.187L239.647 540.207Z" fill="#3C3C3B"/>
<path d="M216.452 502.814C248.711 501.952 288.658 502.616 297.827 506.262C295.982 511.32 294.053 516.179 292.074 520.744L217.231 518.803L216.452 502.814Z" fill="#3C3C3B"/>
<path d="M200.222 573.213C201.275 573.213 202.24 572.517 202.552 571.457L218.561 516.326C218.937 515.036 218.197 513.689 216.907 513.312C215.617 512.942 214.27 513.682 213.899 514.972L197.885 570.097C197.508 571.387 198.249 572.74 199.539 573.111L200.222 573.213Z" fill="#878787"/>
<path d="M176.907 572.715C177.66 572.715 178.407 572.37 178.879 571.706L218.2 517.067C218.986 515.981 218.737 514.461 217.645 513.676C216.559 512.891 215.04 513.14 214.254 514.231L174.933 568.864C174.154 569.956 174.397 571.476 175.489 572.261L176.907 572.715Z" fill="#878787"/>
<path d="M294.226 575.505H172.456V566.057H294.226V575.505Z" fill="#7B6A58"/>
<path d="M149.712 437.754C154.782 456.789 163.837 470.804 178.127 483.971C192.092 480.81 204.626 471.047 216.388 457.676C219.906 453.679 223.374 449.35 226.79 444.784C227.307 444.069 227.824 443.373 228.348 442.664L227.549 439.842L226.011 434.414L217.461 404.103C204.952 417.698 193.516 431.643 184.8 446.515L161.116 426.656C156.289 429.083 152.547 432.856 149.712 437.754Z" fill="#006080"/>
<path d="M187.955 527.717C192.367 527.717 196.786 527.475 201.217 526.996C201.568 524.34 202.015 521.645 202.558 518.912C187.974 519.659 174.316 522.105 163.333 525.106C171.5 526.868 179.711 527.717 187.955 527.717ZM218.228 524.071C219.754 523.714 221.286 523.324 222.819 522.916C222.653 521.856 222.531 520.796 222.429 519.755C221.516 519.595 220.603 519.429 219.684 519.263C219.128 520.866 218.643 522.469 218.228 524.071ZM228.24 521.358C228.7 521.217 229.166 521.07 229.625 520.923C229.134 520.853 228.642 520.776 228.151 520.7C228.183 520.917 228.208 521.134 228.24 521.358Z" fill="#035570"/>
<path d="M229.625 520.923C231.298 520.393 232.958 519.838 234.625 519.256L227.972 519.084C228.029 519.62 228.086 520.157 228.15 520.7C228.642 520.776 229.134 520.853 229.625 520.923ZM222.429 519.755C222.397 519.48 222.372 519.205 222.346 518.937L219.824 518.867C219.773 519.001 219.728 519.129 219.683 519.263C220.603 519.429 221.516 519.595 222.429 519.755ZM216.97 513.331L216.452 502.814C216.555 506.594 216.676 510.113 216.829 513.293C216.874 513.305 216.919 513.318 216.97 513.331ZM216.452 502.814C220.737 502.699 225.162 502.61 229.625 502.552C224.811 485.727 223.904 465.594 226.79 444.784C223.374 449.35 219.907 453.679 216.388 457.676C216.293 465.479 216.229 473.461 216.229 481.142C216.229 488.83 216.293 496.212 216.452 502.814Z" fill="#035570"/>
<path d="M201.216 526.996C202.621 526.849 204.032 526.677 205.443 526.479L211.043 518.695C208.189 518.695 205.354 518.778 202.557 518.912C202.014 521.645 201.567 524.34 201.216 526.996ZM216.177 524.537C216.86 524.391 217.543 524.231 218.226 524.071C218.641 522.469 219.127 520.866 219.682 519.263C219.727 519.129 219.772 519.001 219.823 518.867L217.837 518.816L216.177 524.537Z" fill="#363635"/>
<path d="M222.82 522.915C224.627 522.43 226.434 521.913 228.241 521.357C228.209 521.134 228.184 520.917 228.152 520.7C228.088 520.157 228.031 519.621 227.973 519.084L222.348 518.937C222.373 519.205 222.399 519.48 222.43 519.755C222.533 520.795 222.654 521.855 222.82 522.915Z" fill="#363635"/>
<path d="M234.623 519.256C235.089 519.09 235.555 518.924 236.021 518.752H236.041C233.429 513.822 231.29 508.389 229.623 502.552C225.16 502.61 220.735 502.699 216.45 502.814L216.968 513.331C217.031 513.356 217.102 513.382 217.165 513.407H217.172C217.178 513.414 217.178 513.414 217.185 513.414C217.529 513.561 217.823 513.778 218.053 514.046C218.238 514.257 218.379 514.487 218.481 514.742C218.487 514.748 218.487 514.755 218.487 514.755C218.634 515.119 218.692 515.521 218.64 515.923C218.64 515.923 218.64 515.923 218.64 515.93V515.936C218.621 516.089 218.589 516.236 218.545 516.383L217.836 518.816L219.822 518.867L222.344 518.937L227.97 519.084L234.623 519.256Z" fill="#363635"/>
<path d="M212.242 525.349C213.551 525.1 214.86 524.831 216.176 524.538L217.836 518.816L218.545 516.384C218.468 516.62 218.353 516.856 218.2 517.067L217.146 518.535C217.153 518.618 217.159 518.701 217.165 518.784C217.102 518.784 217.031 518.784 216.968 518.778L212.242 525.349ZM218.64 515.937V515.93V515.937ZM218.64 515.924C218.691 515.522 218.634 515.119 218.487 514.755C218.634 515.126 218.685 515.528 218.64 515.924ZM218.053 514.047C217.823 513.778 217.529 513.561 217.185 513.414C217.344 513.485 217.497 513.574 217.644 513.676C217.798 513.785 217.932 513.912 218.053 514.047ZM217.172 513.408H217.165H217.172Z" fill="#767676"/>
<path d="M205.445 526.478C207.705 526.159 209.972 525.782 212.245 525.348L216.97 518.778C215.112 518.72 213.26 518.695 211.415 518.695C211.293 518.695 211.166 518.695 211.045 518.695L205.445 526.478ZM217.149 518.535L218.202 517.066C218.356 516.856 218.471 516.619 218.547 516.383C218.592 516.236 218.624 516.09 218.643 515.936V515.93C218.643 515.924 218.643 515.923 218.643 515.923C218.688 515.528 218.637 515.125 218.49 514.755C218.49 514.755 218.49 514.749 218.483 514.742C218.381 514.487 218.241 514.257 218.056 514.046C217.934 513.912 217.8 513.784 217.647 513.676C217.5 513.574 217.347 513.484 217.187 513.414C217.181 513.414 217.181 513.414 217.174 513.408H217.168C217.104 513.382 217.034 513.357 216.97 513.331C216.919 513.318 216.874 513.306 216.83 513.293C216.919 515.164 217.028 516.92 217.149 518.535Z" fill="#767676"/>
<path d="M227.549 439.842C228.117 436.324 228.813 432.812 229.611 429.294C228.379 431.062 227.179 432.78 226.01 434.415L227.549 439.842Z" fill="#035570"/>
<path d="M178.126 483.971C185.074 482.4 191.676 479.188 198.004 474.712C201.114 472.503 204.166 469.993 207.161 467.216C207.512 466.89 207.869 466.552 208.22 466.22C209.778 464.738 211.317 463.187 212.843 461.571C214.031 460.313 215.212 459.011 216.387 457.676C219.906 453.679 223.373 449.35 226.789 444.784C227.019 443.13 227.261 441.496 227.549 439.842L226.01 434.414C222.575 439.337 219.484 443.711 216.534 447.638C205.775 461.91 196.899 470.166 180.151 476.277L149.712 437.754C154.782 456.789 163.836 470.804 178.126 483.971Z" fill="#035570"/>
<path d="M174.207 566.055H176.966L177.151 565.787C176.174 565.851 175.184 565.908 174.201 565.959C174.201 565.991 174.207 566.023 174.207 566.055ZM182.949 566.055H199.059L199.653 564.018C194.353 564.555 188.938 565.001 183.434 565.385L182.949 566.055ZM220.692 566.055H285.478C288.53 562.556 291.129 557.039 292.706 550.494C293.249 548.227 293.67 545.845 293.951 543.374C294.194 541.203 294.322 538.962 294.328 536.689C294.328 532.583 293.907 528.362 292.974 524.186C292.457 526.747 291.691 529.314 290.395 531.727C287.93 536.325 283.071 539.479 277.401 540.169L277.311 540.175C263.576 551.356 243.22 557.729 219.307 561.515C219.728 563.028 220.194 564.542 220.692 566.055Z" fill="#035570"/>
<path d="M172.553 566.055H174.207C174.207 566.023 174.2 565.991 174.2 565.959C173.651 565.991 173.102 566.023 172.553 566.055Z" fill="#035570"/>
<path d="M204.123 566.055H220.693C220.195 564.542 219.729 563.028 219.307 561.515C214.627 562.256 209.806 562.901 204.876 563.463L204.123 566.055Z" fill="#363635"/>
<path d="M277.309 540.175L277.398 540.169C283.069 539.479 287.928 536.325 290.393 531.727C291.689 529.314 292.455 526.747 292.972 524.186C292.71 523.037 292.417 521.887 292.072 520.744C288.866 528.471 283.835 534.862 277.309 540.175Z" fill="#363635"/>
<path d="M199.059 566.055H204.122L204.875 563.463C203.145 563.654 201.408 563.839 199.652 564.018L199.059 566.055Z" fill="#767676"/>
<path d="M176.965 566.055H182.948L183.433 565.385C181.351 565.525 179.257 565.666 177.15 565.787L176.965 566.055Z" fill="#767676"/>
<path d="M180.001 567.37C187.146 567.287 195.064 567.223 203.231 567.147H203.882C209.514 567.096 215.286 567.032 221.001 566.981C253.777 566.642 285.237 566.317 285.237 566.317C285.314 566.234 285.397 566.144 285.474 566.055H220.688H204.118H199.055H182.944H176.961H174.203H172.549C172.517 566.055 172.485 566.055 172.453 566.061L180.001 567.37Z" fill="#6C5D4E"/>
<path d="M157.727 678.36C158.084 677.498 158.442 676.643 158.78 675.729C163.793 662.761 168.263 643.33 171.232 623.689C173.562 608.262 174.967 592.707 174.967 580.064C174.967 578.5 174.948 576.974 174.903 575.505H172.809C165.127 614.411 155.269 649.198 139.988 673.756C145.078 675.506 150.62 677.013 157.727 678.36Z" fill="#035570"/>
<path d="M172.809 575.505H174.903C174.82 572.632 174.648 569.943 174.386 567.498L174.367 567.421C173.856 570.135 173.339 572.829 172.809 575.505Z" fill="#6C5D4E"/>
<path d="M268.478 343.871L269.538 345.097L272.163 348.174L272.558 348.621L272.667 348.73H272.724L275.853 352.414L292.385 373.307C294.396 370.683 295.903 368.39 297.078 366.379L296.74 366.098L289.09 357.388L285.961 353.755L282.775 350.071L273.561 339.458L271.664 341.131L270.1 342.472L268.478 343.871Z" fill="#EDEDED"/>
<path d="M302.569 360.026L302.607 359.943C308.526 344.273 303.648 327.946 284.945 320.877C269.276 314.958 252.904 319.868 245.861 338.501L245.835 338.59L302.569 360.026Z" fill="#E94E1B"/>
<path d="M303.468 362.816L237.802 338.003L239.417 333.718L305.084 358.531L303.468 362.816Z" fill="#C44217"/>
<path d="M267.881 334.599L260.851 331.943L257.588 340.582L264.618 343.238L267.881 334.599Z" fill="#C44217"/>
<path d="M294.805 344.777L287.774 342.121L284.511 350.754L291.542 353.41L294.805 344.777Z" fill="#C44217"/>
</svg>
