<svg width="90" height="76" viewBox="0 0 90 76" fill="none" xmlns="http://www.w3.org/2000/svg">
<path d="M79.5001 35.5938V34.25C79.5001 30.6033 77.7617 27.1059 74.6673 24.5273C71.573 21.9487 67.3762 20.5 63.0001 20.5C58.624 20.5 54.4272 21.9487 51.3328 24.5273C48.2385 27.1059 46.5001 30.6033 46.5001 34.25V39.25H40.5001C40.1023 39.25 39.7207 39.3817 39.4394 39.6161C39.1581 39.8505 39.0001 40.1685 39.0001 40.5V45.5C39.0001 45.8315 39.1581 46.1495 39.4394 46.3839C39.7207 46.6183 40.1023 46.75 40.5001 46.75H40.6501L42.0706 58H36.0001V4.25C36.0001 3.25544 35.526 2.30161 34.6821 1.59835C33.8382 0.895088 32.6936 0.5 31.5001 0.5C30.3066 0.5 29.162 0.895088 28.3181 1.59835C27.4742 2.30161 27.0001 3.25544 27.0001 4.25V58H12.0001C11.2047 58.0008 10.4422 58.2644 9.8798 58.7331C9.3174 59.2018 9.00103 59.8372 9.00008 60.5V64.0961L6.04489 73.9469C5.98962 74.1312 5.98547 74.3235 6.03276 74.5093C6.08005 74.6952 6.17754 74.8696 6.31782 75.0193C6.4581 75.169 6.63748 75.2901 6.84234 75.3734C7.04719 75.4567 7.27214 75.5 7.50008 75.5H78.0001C78.3979 75.5 78.7794 75.3683 79.0607 75.1339C79.342 74.8995 79.5001 74.5815 79.5001 74.25V69.3156L81.6173 52.5544C82.3425 52.2229 82.9468 51.7343 83.3662 51.1402C83.7857 50.5461 84.0047 49.8686 84.0001 49.1794V40.1875C83.9986 39.1073 83.5502 38.0605 82.7304 37.2237C81.9107 36.3869 80.7698 35.8112 79.5001 35.5938ZM49.5001 34.25C49.5001 32.7726 49.8493 31.3097 50.5277 29.9448C51.2062 28.5799 52.2006 27.3397 53.4541 26.295C54.7077 25.2504 56.196 24.4217 57.8339 23.8564C59.4717 23.291 61.2272 23 63.0001 23C64.7729 23 66.5284 23.291 68.1663 23.8564C69.8042 24.4217 71.2924 25.2504 72.546 26.295C73.7996 27.3397 74.794 28.5799 75.4725 29.9448C76.1509 31.3097 76.5001 32.7726 76.5001 34.25V35.5H62.6251C61.3288 35.5012 60.0727 35.8749 59.0685 36.558C58.0644 37.2411 57.3736 38.1919 57.1126 39.25H49.5001V34.25ZM42.0001 41.75H57.0001V44.25H42.0001V41.75ZM43.6662 46.75H57.0001V49.1813C57.0026 49.6914 57.1261 50.1962 57.3635 50.6665C57.6008 51.1368 57.9473 51.5634 58.3831 51.9217C58.8009 52.2695 59.2981 52.5441 59.8453 52.7292C60.3924 52.9144 60.9786 53.0064 61.5691 52.9998C62.6522 52.9838 63.6923 52.6441 64.5001 52.0427C65.3243 52.659 66.3927 52.9999 67.5001 52.9999C68.6075 52.9999 69.6759 52.659 70.5001 52.0427C71.3241 52.6587 72.392 52.9996 73.499 52.9998C74.6061 53.0001 75.6742 52.6597 76.4986 52.0439C77.0804 52.4797 77.7897 52.7801 78.5551 52.9148L76.6501 68H55.1712L54.0001 64.0961V60.5C53.9991 59.8372 53.6828 59.2018 53.1204 58.7331C52.558 58.2644 51.7954 58.0008 51.0001 58H45.0867L43.6662 46.75ZM30.0001 4.25C30.0001 3.91848 30.1581 3.60054 30.4394 3.36612C30.7207 3.1317 31.1023 3 31.5001 3C31.8979 3 32.2794 3.1317 32.5607 3.36612C32.842 3.60054 33.0001 3.91848 33.0001 4.25V58H30.0001V4.25ZM12.0001 60.5H51.0001V63H12.0001V60.5ZM15.4212 73L17.6712 65.5H20.579L18.329 73H15.4212ZM11.6712 65.5H14.579L12.329 73H9.42121L11.6712 65.5ZM23.6712 65.5H26.801L25.676 73H21.4212L23.6712 65.5ZM28.6992 73L29.8242 65.5H33.176L34.301 73H28.6992ZM37.3242 73L36.1992 65.5H39.329L41.579 73H37.3242ZM44.6712 73L42.4212 65.5H45.329L47.579 73H44.6712ZM50.6712 73L48.4212 65.5H51.329L53.579 73H50.6712ZM76.5001 73H56.6712L55.9212 70.5H76.5001V73ZM81.0001 45.5V49.1794C81.007 49.5087 80.8638 49.828 80.5994 50.0728C80.3349 50.3176 79.9689 50.4697 79.5751 50.4984C79.372 50.5069 79.169 50.4809 78.9784 50.422C78.7878 50.3631 78.6136 50.2725 78.4663 50.1557C78.319 50.039 78.2017 49.8985 78.1216 49.7428C78.0414 49.5871 78.0001 49.4194 78.0001 49.25V44.25H75.0001V49.25C75.0001 49.5815 74.842 49.8995 74.5607 50.1339C74.2794 50.3683 73.8979 50.5 73.5001 50.5C73.1023 50.5 72.7207 50.3683 72.4394 50.1339C72.1581 49.8995 72.0001 49.5815 72.0001 49.25V44.25H69.0001V49.25C69.0001 49.5815 68.842 49.8995 68.5607 50.1339C68.2794 50.3683 67.8979 50.5 67.5001 50.5C67.1023 50.5 66.7207 50.3683 66.4394 50.1339C66.1581 49.8995 66.0001 49.5815 66.0001 49.25V44.25H63.0001V49.25C63.0005 49.5782 62.8459 49.8934 62.5696 50.1273C62.2933 50.3613 61.9175 50.4952 61.5237 50.5H61.5031C61.1211 50.4968 60.7562 50.3676 60.4883 50.1406C60.3353 50.0154 60.2134 49.8661 60.1298 49.7015C60.0461 49.5369 60.0023 49.3602 60.0008 49.1814V40.1875C60.0016 39.6075 60.2784 39.0515 60.7705 38.6414C61.2626 38.2313 61.9299 38.0006 62.6258 38H78.3758C79.0718 38.0006 79.739 38.2313 80.2312 38.6414C80.7233 39.0515 81.0001 39.6075 81.0008 40.1875L81.0001 45.5Z" fill="white"/>
<path d="M73.5 59.25H70.5V65.5H73.5V59.25Z" fill="white"/>
<path d="M73.5 54.25H70.5V56.75H73.5V54.25Z" fill="white"/>
<path d="M15.0771 40.8953C15.1767 41.1441 15.3677 41.3606 15.6231 41.5139C15.8785 41.6673 16.1853 41.7498 16.5 41.7498C16.8148 41.7498 17.1216 41.6673 17.377 41.5139C17.6324 41.3606 17.8234 41.1441 17.923 40.8953C18.3177 39.9163 18.9792 39.0267 19.8556 38.2964C20.732 37.5661 21.7995 37.0149 22.9744 36.6859C23.2732 36.603 23.533 36.4438 23.7171 36.231C23.9013 36.0181 24.0004 35.7624 24.0004 35.5C24.0004 35.2376 23.9013 34.9819 23.7171 34.769C23.533 34.5562 23.2732 34.397 22.9744 34.3141C21.7995 33.9851 20.732 33.4339 19.8556 32.7036C18.9792 31.9733 18.3177 31.0837 17.923 30.1047C17.8234 29.8559 17.6324 29.6394 17.377 29.4861C17.1216 29.3327 16.8148 29.2502 16.5 29.2502C16.1853 29.2502 15.8785 29.3327 15.6231 29.4861C15.3677 29.6394 15.1767 29.8559 15.0771 30.1047C14.6824 31.0837 14.0208 31.9733 13.1444 32.7036C12.268 33.4339 11.2005 33.9851 10.0257 34.3141C9.72693 34.397 9.46708 34.5562 9.28294 34.769C9.0988 34.9819 8.99971 35.2376 8.99971 35.5C8.99971 35.7624 9.0988 36.0181 9.28294 36.231C9.46708 36.4438 9.72693 36.603 10.0257 36.6859C11.2005 37.0149 12.268 37.5661 13.1444 38.2964C14.0208 39.0267 14.6824 39.9163 15.0771 40.8953ZM16.5 33.2448C17.2386 34.1214 18.1542 34.8845 19.206 35.5C18.1542 36.1155 17.2386 36.8786 16.5 37.7552C15.7615 36.8786 14.8459 36.1155 13.794 35.5C14.8459 34.8845 15.7615 34.1214 16.5 33.2448Z" fill="white"/>
<path d="M88.9744 19.3141C87.7995 18.9851 86.7321 18.4339 85.8556 17.7036C84.9792 16.9733 84.3177 16.0837 83.923 15.1047C83.8234 14.8559 83.6324 14.6394 83.377 14.4861C83.1216 14.3327 82.8148 14.2502 82.5 14.2502C82.1853 14.2502 81.8785 14.3327 81.6231 14.4861C81.3677 14.6394 81.1767 14.8559 81.0771 15.1047C80.6824 16.0837 80.0208 16.9733 79.1444 17.7036C78.268 18.4339 77.2005 18.9851 76.0257 19.3141C75.7269 19.397 75.4671 19.5562 75.2829 19.769C75.0988 19.9819 74.9997 20.2376 74.9997 20.5C74.9997 20.7624 75.0988 21.0181 75.2829 21.231C75.4671 21.4438 75.7269 21.603 76.0257 21.6859C77.2005 22.0149 78.268 22.5661 79.1444 23.2964C80.0208 24.0267 80.6824 24.9163 81.0771 25.8953C81.1767 26.1441 81.3677 26.3606 81.6231 26.5139C81.8785 26.6673 82.1853 26.7498 82.5 26.7498C82.8148 26.7498 83.1216 26.6673 83.377 26.5139C83.6324 26.3606 83.8234 26.1441 83.923 25.8953C84.3177 24.9163 84.9792 24.0267 85.8556 23.2964C86.7321 22.5661 87.7995 22.0149 88.9744 21.6859C89.2732 21.603 89.533 21.4438 89.7171 21.231C89.9013 21.0181 90.0004 20.7624 90.0004 20.5C90.0004 20.2376 89.9013 19.9819 89.7171 19.769C89.533 19.5562 89.2732 19.397 88.9744 19.3141ZM82.5 22.7552C81.7615 21.8786 80.8459 21.1155 79.794 20.5C80.8459 19.8845 81.7615 19.1214 82.5 18.2448C83.2386 19.1214 84.1542 19.8845 85.206 20.5C84.1542 21.1155 83.2386 21.8786 82.5 22.7552Z" fill="white"/>
<path d="M7.50004 56.75C7.81485 56.75 8.12167 56.6674 8.37705 56.514C8.63243 56.3606 8.82343 56.1442 8.92298 55.8953C9.31773 54.9163 9.97924 54.0267 10.8556 53.2964C11.7321 52.5661 12.7995 52.0149 13.9744 51.6859C14.2732 51.603 14.533 51.4438 14.7171 51.231C14.9013 51.0181 15.0004 50.7624 15.0004 50.5C15.0004 50.2376 14.9013 49.9819 14.7171 49.769C14.533 49.5562 14.2732 49.397 13.9744 49.3141C12.7995 48.9851 11.7321 48.4339 10.8556 47.7036C9.97924 46.9733 9.31773 46.0837 8.92298 45.1047C8.82339 44.8559 8.63237 44.6394 8.377 44.4861C8.12162 44.3327 7.81482 44.2502 7.50004 44.2502C7.18527 44.2502 6.87847 44.3327 6.62309 44.4861C6.36771 44.6394 6.1767 44.8559 6.07711 45.1047C5.68236 46.0837 5.02085 46.9733 4.14444 47.7036C3.26803 48.4339 2.20055 48.9851 1.02567 49.3141C0.726928 49.397 0.467079 49.5562 0.28294 49.769C0.0988003 49.9819 -0.000289917 50.2376 -0.000289917 50.5C-0.000289917 50.7624 0.0988003 51.0181 0.28294 51.231C0.467079 51.4438 0.726928 51.603 1.02567 51.6859C2.20055 52.0149 3.26803 52.5661 4.14444 53.2964C5.02085 54.0267 5.68236 54.9163 6.07711 55.8953C6.17666 56.1442 6.36766 56.3606 6.62304 56.514C6.87842 56.6674 7.18524 56.75 7.50004 56.75ZM7.50004 48.2448C8.23858 49.1214 9.15418 49.8845 10.206 50.5C9.15418 51.1155 8.23858 51.8786 7.50004 52.7552C6.76151 51.8786 5.8459 51.1155 4.79404 50.5C5.8459 49.8845 6.76151 49.1214 7.50004 48.2448Z" fill="white"/>
</svg>
