<svg width="80" height="88" viewBox="0 0 80 88" fill="none" xmlns="http://www.w3.org/2000/svg">
<path d="M73.3417 16.7015C72.9307 16.142 72.1682 16.0401 71.6385 16.4741C71.1087 16.9081 71.0124 17.7134 71.4232 18.2729C75.1529 23.3512 77.299 29.572 77.5477 35.949L61.247 31.3361C61.9276 26.7741 62.1958 22.1401 62.0421 17.5432C61.9532 14.8823 61.7203 12.2074 61.3509 9.56163C63.6412 10.7611 65.7855 12.2811 67.7045 14.078C68.2063 14.5478 68.9733 14.4989 69.4181 13.9693C69.8629 13.4394 69.8167 12.6292 69.3151 12.1596C66.1439 9.19035 62.4331 6.95258 58.4309 5.52608L59.6038 2.05514C59.8293 1.38831 59.4999 0.654803 58.8687 0.416854C58.2373 0.178906 57.5427 0.526427 57.3174 1.19326L56.0961 4.80745C42.3546 1.20643 27.9542 7.80505 20.9959 20.9238C20.9022 21.1076 20.8144 21.3423 20.8332 21.6568L21.2634 28.3401C21.3457 29.616 22.1867 30.6956 23.3564 31.0267L35.3443 34.419C36.4954 34.7452 37.7506 34.2661 38.4286 33.1975L39.987 30.7474L40.1765 33.6922C40.2587 34.9681 41.0998 36.0478 42.2695 36.3789L47.0904 37.7431L40.3018 64.4999L28.9465 64.4652H28.9429C28.2741 64.4652 27.7311 65.0368 27.729 65.7436C27.7271 66.4517 28.269 67.0274 28.9395 67.0293L52.7131 67.1019H52.7249C53.9136 67.1019 55.0718 66.5883 55.9041 65.6913L64.4601 56.471C66.2256 54.5683 68.9123 53.8828 71.3054 54.7257L73.9074 55.6416L57.6832 72.8946C57.0046 73.6165 56.0627 74.0305 55.0993 74.0305H8.10795C7.9851 72.0821 8.49608 70.1857 9.8238 68.7883C10.9256 67.6286 12.3873 66.9907 13.9416 66.9907H13.9617L23.2734 67.0266H23.2779C23.9462 67.0266 24.4893 66.4556 24.4918 65.7491C24.4943 65.0411 23.9527 64.465 23.2823 64.4624L13.9701 64.4266C11.7531 64.4177 9.67684 65.3226 8.10989 66.9722C6.13603 69.0501 5.68008 71.9002 5.68008 74.7997C5.68008 75.7894 6.44243 76.5946 7.37959 76.5946H10.299L7.78779 82.4231C7.38169 83.3659 7.36793 84.3925 7.67206 85.2992H1.21393C0.543519 85.2992 0 85.873 0 86.5812C0 87.2894 0.543519 87.8633 1.21393 87.8633H75.9151C76.5855 87.8633 77.129 87.2894 77.129 86.5812C77.129 85.873 76.5855 85.2992 75.9151 85.2992H64.5187C64.8228 84.3925 64.809 83.3657 64.4029 82.423L60.5515 73.4833L76.4575 56.5683C77.3378 55.6464 76.9545 54.0001 75.7888 53.6009L72.073 52.2929C68.8055 51.1428 65.1366 52.078 62.7259 54.676L54.1699 63.8963C53.7917 64.304 53.2652 64.5375 52.725 64.5375H52.7197L42.8132 64.5072L49.4353 38.4064L54.257 39.7708C55.408 40.0973 56.6635 39.6177 57.3415 38.5493L58.8999 36.0992L59.0895 39.044C59.1717 40.3199 60.0127 41.3996 61.1824 41.7307L73.1701 45.123C74.3213 45.4491 75.5766 44.9702 76.2546 43.9014L79.7912 38.3408C79.8956 38.1625 79.9976 37.9349 79.9974 37.6206C80.0889 30.0989 77.7259 22.6705 73.3417 16.7015ZM11.1022 85.2992C10.9283 85.2992 10.7593 85.2602 10.5997 85.1836C9.99051 84.8908 9.72037 84.1288 9.9978 83.4848L12.9666 76.5944H15.6356L12.2083 84.5477C12.0116 85.0043 11.5775 85.2992 11.1022 85.2992ZM35.0256 85.2992H14.5518L18.3029 76.5946H37.2336L35.0256 85.2992ZM37.539 85.2992L39.7471 76.5946H53.8881L57.6392 85.2992H37.539ZM62.1931 83.4848C62.4703 84.1289 62.2004 84.891 61.5887 85.1847C61.4315 85.2606 61.264 85.2992 61.0903 85.2992C60.6148 85.2992 60.1797 85.0036 59.9826 84.5477L56.4811 76.4221C57.2752 76.2242 58.029 75.8597 58.6887 75.3508L62.1931 83.4848ZM36.413 31.7674C36.3167 31.9191 36.1395 31.9891 35.9724 31.942L23.9846 28.5497C23.8175 28.5025 23.6974 28.3481 23.6856 28.1659L23.3707 23.2722L39.0026 27.6958L36.413 31.7674ZM40.1948 25.3785L23.9069 20.7693C29.7862 10.9384 40.3618 5.50249 51.1168 6.51565C49.2292 8.69052 47.4959 11.018 45.9508 13.464C43.6045 17.1777 41.6719 21.1811 40.1948 25.3785ZM55.3261 37.1196C55.2296 37.2714 55.0526 37.3414 54.8854 37.2941L42.8977 33.9018C42.7306 33.8546 42.6105 33.7002 42.5987 33.518L42.2837 28.6244L57.9157 33.0479L55.3261 37.1196ZM58.8881 30.6685L42.551 26.0454C43.9522 22.1168 45.771 18.3686 47.9705 14.8873C49.7577 12.0584 51.8083 9.39531 54.0662 6.95702C55.6435 7.28044 57.2027 7.74881 58.7088 8.3495C59.2058 11.4151 59.5124 14.5343 59.616 17.6338C59.761 21.9768 59.5155 26.3548 58.8881 30.6685ZM74.239 42.4717C74.1426 42.6233 73.9655 42.6936 73.7983 42.6462L61.8106 39.2539C61.6436 39.2067 61.5233 39.0524 61.5117 38.8702L61.1967 33.9767L76.8286 38.4002L74.239 42.4717Z" fill="white"/>
</svg>
