<svg width="313" height="440" viewBox="0 0 313 440" fill="none" xmlns="http://www.w3.org/2000/svg">
<path d="M307.967 355.549L307.255 361.67L305.202 379.149L304.623 384.101L298.201 439.007H236.738L234.881 419.424L234.843 419.001L229.407 361.67L228.829 355.549H307.967Z" fill="#E94E1B"/>
<path d="M227.551 361.671H309.771V355.55H227.551V361.671Z" fill="#D94919"/>
<path d="M310.236 386.99L267.023 364.701C265.188 363.758 264.591 361.421 265.746 359.714L265.87 359.526C266.893 358.015 268.916 357.564 270.486 358.496L312.441 383.448L310.236 386.99Z" fill="#3C3C3B"/>
<path d="M298.202 439.001H249.606V432.89C249.606 428.955 247.708 425.263 244.51 422.967L240.159 421.177C240.62 418.634 241.002 416.028 241.304 413.372V413.356V413.372L241.318 414.106C243.343 407.281 245.131 400.465 246.644 393.703C260.008 413.398 277.828 427.737 298.204 439.001H298.202Z" fill="#D4491B"/>
<path d="M236.302 87.6378L232.96 123.596V123.61L232.025 133.533L231.327 140.996L229.128 164.699L225.167 207.198V245.049H142.527V207.198L141.265 193.664L140.292 183.246V183.229L139.606 175.876L135.093 127.335L134.841 124.689L131.407 87.7429L131.392 87.6378L166.758 79.7039L168.573 79.2952L168.811 79.3641L180.314 82.5056H180.326L183.854 83.4704L187.777 82.3885L198.818 79.3739L199.122 79.2952L200.793 79.6635L235.893 87.5451L236.013 87.571L236.302 87.6378Z" fill="#006080"/>
<path d="M118.09 439.492H161.958C162.581 429.792 162.088 425.625 159.769 419.155C152.4 414.873 139.825 415.447 128.057 420.964L123.188 422.967C119.987 425.263 118.09 428.955 118.09 432.889V439.492Z" fill="#3C3C3B"/>
<path d="M184.367 242.983C184.289 243.641 184.184 244.315 184.09 244.982L184.078 245.05L183.997 245.692L183.854 246.734C183.34 250.369 182.879 253.932 182.393 257.434C179.128 282.245 176.563 303.608 170.166 321.924L165.981 321.624L160.203 321.199L150.252 320.479L142.711 319.935L137.566 319.567C133.998 289.918 137.249 265.082 141.936 246.469C142.053 245.998 142.173 245.536 142.29 245.075V245.05L142.5 244.838L142.526 244.802L142.555 244.786C145.397 241.704 148.541 239.55 151.951 238.203C157.729 235.889 164.178 235.915 171.087 237.732C173.745 238.415 176.47 239.378 179.248 240.56V240.576C179.958 240.865 180.655 241.181 181.365 241.509C182.183 241.891 183.01 242.299 183.854 242.72L184.367 242.983Z" fill="#006080"/>
<path d="M170.168 321.924C170.168 357.104 162.139 421.297 161.403 424.637H161.388V424.62C154.375 416.992 137.936 416.541 127.552 421.238L127.538 421.177C127.117 418.873 126.761 416.516 126.472 414.107L126.46 414.056C122.736 383.811 128.394 346.709 137.568 319.567C138.436 316.99 139.832 315.281 141.41 314.162C143.095 312.95 144.976 312.422 146.675 312.24C151.071 311.696 156.072 314.342 162.469 317.817C163.64 318.451 164.85 319.108 166.114 319.78C167.391 320.464 168.734 321.19 170.168 321.924Z" fill="#006080"/>
<path d="M249.607 439.492H205.741C205.118 429.792 205.61 425.625 207.928 419.155C215.298 414.873 227.874 415.447 239.642 420.964L244.511 422.967C247.71 425.263 249.607 428.955 249.607 432.889V439.492Z" fill="#3C3C3B"/>
<path d="M230.133 319.567L225.077 319.935L217.445 320.479L207.496 321.199L201.716 321.624L197.532 321.924C191.136 303.608 188.569 282.245 185.306 257.434C184.818 253.932 184.357 250.369 183.857 246.734L183.714 245.692L183.62 245.05L183.606 244.982C183.515 244.315 183.41 243.641 183.331 242.983L183.857 242.72C184.687 242.299 185.514 241.891 186.331 241.509C187.041 241.181 187.739 240.865 188.449 240.576V240.56C191.136 239.415 193.768 238.484 196.347 237.8C203.363 235.929 209.903 235.852 215.747 238.203C219.142 239.55 222.276 241.695 225.144 244.759L225.17 244.786L225.209 244.828L225.421 245.05V245.075L225.644 245.957V245.981C230.381 264.647 233.737 289.655 230.133 319.567Z" fill="#006080"/>
<path d="M241.306 413.357V413.373C241.004 416.029 240.621 418.634 240.161 421.177L240.148 421.238C238.516 420.504 236.739 419.897 234.882 419.425C224.841 416.858 212.231 418.189 206.31 424.62V424.637H206.296C205.559 421.297 197.532 357.104 197.532 321.924C198.967 321.19 200.308 320.464 201.585 319.78C202.703 319.191 203.795 318.594 204.835 318.03C211.43 314.451 216.536 311.686 221.025 312.24C222.749 312.437 224.671 312.96 226.368 314.212C227.919 315.331 229.263 317.031 230.133 319.567C233.778 330.35 236.857 342.692 239.03 355.55C239.371 357.581 239.687 359.622 239.976 361.672C241.174 370.004 241.977 378.452 242.266 386.799V386.811C242.596 395.945 242.319 404.905 241.306 413.357Z" fill="#006080"/>
<path d="M168.561 60.1958L168.613 64.8039V64.8143L168.692 71.8844L168.785 79.1653L168.811 79.3637C169.443 84.9915 175.182 87.9185 181.471 88.4406C182.169 88.5094 182.867 88.5338 183.579 88.5338C184.722 88.5338 185.867 88.4566 186.986 88.3111C193.12 87.4835 198.503 84.4006 198.818 79.3735L198.832 79.1513L198.964 71.7813V71.7653L199.081 65.0794V65.0691L199.148 61.0555L168.561 60.1958Z" fill="#EDBB86"/>
<path d="M211.155 43.1337C210.41 46.3845 208.814 50.7523 207.016 51.4136C204.861 52.2008 204.199 50.8554 204.076 50.8129C203.123 55.4899 202.731 59.6956 201.052 62.1757C199.065 65.1173 197.554 67.3286 196.126 68.9854C192.919 72.7762 190.249 73.7027 184.101 73.7452H184.059H184.018C177.87 73.7856 175.2 72.8752 171.929 69.1511C170.481 67.4944 168.929 65.3032 166.92 62.3824C165.223 59.9183 164.768 55.739 163.754 51.0615C163.629 51.1039 162.987 52.4717 160.815 51.7052C158.992 51.0615 157.358 46.7123 156.57 43.4854C155.869 40.6676 156.591 38.436 157.936 37.5463C158.371 37.2144 158.869 37.0486 159.427 37.0486H159.447C159.965 37.0486 160.546 37.1921 161.124 37.524C160.732 35.6405 160.503 33.8383 160.36 31.9568C160.09 28.4368 160.4 25.271 161.167 22.4325C162.117 18.959 163.775 16.0174 165.99 13.6409L166.03 13.5984C169.86 9.45538 175.386 7.0379 181.597 6.56041H181.68C182.321 6.52001 182.962 6.47756 183.624 6.47756C194.471 6.43665 203.558 12.0448 206.372 22.4325C207.119 25.1876 207.428 28.2488 207.222 31.6471C207.099 33.5265 206.89 35.3287 206.518 37.2345C207.119 36.9031 207.677 36.7369 208.215 36.7369C208.856 36.7369 209.437 36.9456 209.933 37.3578C211.155 38.333 211.776 40.4615 211.155 43.1337Z" fill="#FFC990"/>
<path d="M208.217 36.7358C206.789 37.523 205.836 38.4982 205.134 41.0612C204.802 42.2202 204.534 43.7334 204.285 45.7019C202.794 46.1146 202.132 46.2136 200.787 46.6688C201.117 45.3275 201.408 44.0431 201.675 42.8007C203.126 35.9916 203.581 30.7133 203.415 26.6329C203.352 25.0632 203.186 23.6551 202.96 22.4314C201.137 12.8506 194.783 12.458 192.464 12.0028C189.567 11.4424 177.747 11.5051 174.87 12.1064C172.781 12.5409 167.44 12.9759 165.162 20.0709C164.936 20.7949 164.729 21.5613 164.584 22.4314C163.734 26.8598 163.9 33.2769 165.992 42.635C166.281 43.982 166.613 45.4103 167.005 46.8972C165.64 46.4461 164.978 46.3591 163.487 45.9484C163.176 43.6909 162.824 42.0767 162.431 40.8322C161.707 38.6639 160.775 37.7918 159.449 37.0476H159.429C158.622 30.776 158.582 26.2223 159.243 22.4314C159.988 18.2117 161.602 14.9584 163.983 11.4425C170.234 2.1268 193.955 0.225151 203.352 11.1737C206.231 14.5239 207.906 17.9222 208.59 22.4314C209.15 26.2021 208.982 30.776 208.217 36.7358Z" fill="#3C3C3B"/>
<path d="M175.465 6.53368C173.727 6.54974 172.188 7.20122 170.663 8.04071C168.555 9.1961 163.166 17.0068 164.291 18.8432C168.852 26.3023 182.987 28.4302 192.96 28.7094C191.864 27.8657 189.986 26.1826 189.618 24.5927C195.001 26.9698 201.195 27.4675 206.891 25.9744C205.11 21.097 203.204 16.0316 199.411 12.479C196.33 9.60057 192.238 7.98425 188.087 7.22349C183.935 6.46065 179.685 6.49743 175.465 6.53368Z" fill="#3C3C3B"/>
<path d="M184.077 46.8782C178.118 46.8782 172.089 45.4908 165.992 42.6362C163.9 33.2781 163.735 26.861 164.584 22.4326H167.689C173.904 27.0226 184.82 28.4835 192.962 28.7098C191.866 27.8662 189.989 26.1831 189.62 24.5932C192.964 26.0702 196.624 26.8206 200.279 26.8206C201.327 26.8206 202.375 26.7579 203.415 26.6342C203.581 30.7146 203.126 35.9928 201.675 42.8019C195.882 45.5006 190.013 46.8782 184.077 46.8782Z" fill="#E7B683"/>
<path d="M201.675 42.8006C203.126 35.9915 203.581 30.7133 203.415 26.6329C204.588 26.4936 205.749 26.2751 206.893 25.9736C206.461 24.7981 206.025 23.609 205.555 22.4313H208.59C208.813 23.9342 208.92 25.565 208.921 27.3574C208.921 30.0659 208.679 33.153 208.218 36.7357C206.789 37.5229 205.836 38.4981 205.135 41.0611C204.534 41.3925 203.933 41.7022 203.332 42.014C202.774 42.303 202.235 42.5722 201.675 42.8006ZM165.992 42.6349C165.474 42.4283 164.979 42.1797 164.461 41.9306C163.777 41.5991 163.113 41.2268 162.432 40.8322C161.708 38.6638 160.775 37.7917 159.45 37.0475H159.429C158.994 33.6652 158.782 30.7863 158.782 28.2533C158.782 26.0891 158.938 24.1771 159.244 22.4313H164.584C163.735 26.8597 163.9 33.2768 165.992 42.6349Z" fill="#383837"/>
<path d="M192.961 28.7094C184.819 28.483 173.903 27.0221 167.688 22.4321H205.554C206.024 23.6098 206.46 24.7989 206.892 25.9744C205.748 26.2759 204.587 26.4944 203.414 26.6337C202.374 26.7575 201.326 26.8201 200.279 26.8201C196.623 26.8201 192.963 26.0697 189.619 24.5927C189.988 26.1826 191.865 27.8657 192.961 28.7094Z" fill="#383837"/>
<path d="M187.423 1.33514e-05H180.216C168.059 1.33514e-05 158.206 9.84959 158.206 22.0038L158.685 29.5799C175.637 26.3592 191.785 26.1106 208.98 29.2805L209.433 22.0038C209.433 9.84959 199.577 1.33514e-05 187.423 1.33514e-05Z" fill="#006080"/>
<path d="M160.341 28.8592C160.909 30.767 160.879 30.2533 161.146 30.8743C162.793 34.732 166.895 37.095 170.686 36.3643C172.983 35.9236 175.016 34.5093 177.174 33.5367C179.284 32.5838 181.544 32.0555 183.82 31.9566C186.095 32.0555 188.357 32.5838 190.467 33.5367C192.624 34.5093 194.658 35.9236 196.955 36.3643C200.746 37.095 204.848 34.732 206.495 30.8743C206.762 30.2533 206.732 30.767 207.3 28.8592C199.87 19.776 168.071 19.8227 160.341 28.8592Z" fill="#006D91"/>
<path d="M176.683 78.6915C173.376 77.1944 170.59 74.403 168.567 71.7203L166.74 79.7413C167.557 86.5105 176.274 91.0782 181.58 89.0533L180.646 83.6378C180.263 81.4146 178.736 79.618 176.683 78.6915Z" fill="#006080"/>
<path d="M191.761 78.2689C195.052 77.0167 197.599 74.7696 198.987 71.7188L200.812 79.7397C199.995 86.5089 192.271 90.5546 186.965 88.5339L187.494 83.6969C187.766 81.2229 189.434 79.155 191.761 78.2689Z" fill="#006080"/>
<path d="M185.236 208.304H182.458V168.739L185.236 163.882V208.304ZM182.458 146.921V88.534H183.28C183.379 88.534 183.478 88.534 183.579 88.534C183.67 88.534 183.763 88.534 183.856 88.534H185.236V142.074L185.078 142.353L184.774 142.865L184.698 142.994L184.394 143.549L182.894 146.154L182.458 146.921Z" fill="#06536C"/>
<path d="M170.193 124.149H152.617C151.737 124.149 151.025 123.435 151.025 122.561V116.858C151.025 115.978 151.737 115.268 152.617 115.268H170.193C171.071 115.268 171.783 115.978 171.783 116.858V122.561C171.783 123.435 171.071 124.149 170.193 124.149Z" fill="white"/>
<path d="M225.169 244.786V207.199L229.13 164.7L231.329 140.997L232.027 133.534L232.961 123.611V123.597V123.611L242.396 131.758L240.804 142.271L239.554 150.485L236.975 167.425C234.291 166.555 231.683 165.649 229.13 164.7L225.169 207.199V244.786Z" fill="#DDDDDD"/>
<path d="M225.167 244.786L225.141 244.759C223.654 226.929 220.166 211.91 212.005 203.448C219.06 196.354 222.153 185.246 223.47 171.857C224.773 163.923 199.793 156.42 191.118 153.608L192.106 151.869L198.502 140.708C201.858 139.666 206.044 139.025 211.006 138.138C227.022 135.284 224.259 119.966 224.311 116.149V116.135L232.959 123.597V123.611L232.025 133.534L231.327 140.997L229.128 164.7L225.167 207.199V244.786Z" fill="#045671"/>
<path d="M225.168 245.034L225.142 244.759L225.168 244.786L225.207 244.828L225.168 245.034Z" fill="#045671"/>
<path d="M142.503 244.837L141.793 239.812L142.529 238.517V244.801L142.503 244.837Z" fill="#DDDDDD"/>
<path d="M142.529 244.801V238.518L143.452 236.913C143.083 239.466 142.78 242.086 142.557 244.785L142.529 244.801Z" fill="#045671"/>
<path d="M142.529 245.049L142.502 244.837L142.529 244.801L142.557 244.785L142.529 245.049Z" fill="#045671"/>
<path d="M142.527 209.937L140.896 208.709C137.751 206.328 135.815 203.142 137.026 200.827L136.854 200.18L136.171 199.666V199.656L136.092 199.118L134.184 185.467L131.407 165.698C134.223 168.988 136.948 172.384 139.606 175.876L135.093 127.335L127.603 138.51L126.655 131.757L134.841 124.688L135.093 127.335L139.606 175.876L140.292 183.229V183.246L141.265 193.664L142.527 207.198V209.937Z" fill="#DDDDDD"/>
<path d="M142.529 216.7V207.198L141.267 193.665L140.294 183.246V183.23L139.608 175.876L135.095 127.335L134.844 124.689L139.649 120.546L143.61 117.123C143.951 143.535 142.634 169.005 147.965 186.942V186.954C149.242 191.221 150.874 195.048 153.018 198.378L145.242 211.962L142.529 216.7Z" fill="#045671"/>
<path d="M147.163 109.328L139.649 120.545L135.096 127.335L127.606 138.51L118.657 151.855L112.129 161.592C107.797 168.071 99.0318 169.791 92.5562 165.449L92.3196 165.29C88.32 162.607 86.121 158.225 86.0687 153.736L86.0806 153.316C86.121 150.696 86.8979 148.066 88.4639 145.734L123.486 93.47C125.434 90.559 128.29 88.6128 131.41 87.7469C135.239 86.6645 139.489 87.2192 143.058 89.6019L143.295 89.7557C149.77 94.1013 151.494 102.868 147.163 109.328Z" fill="#006080"/>
<path d="M264.772 171.841L264.511 171.96C257.39 175.12 249.057 171.91 245.897 164.789L220.384 107.284C217.224 100.163 220.436 91.828 227.555 88.67L227.816 88.5571C234.937 85.3908 243.27 88.6037 246.429 95.7246L271.945 153.23C275.103 160.351 271.893 168.683 264.772 171.841Z" fill="#006080"/>
<path d="M152.814 193.381C150.977 192.495 150.203 190.287 151.089 188.448L151.094 188.439C151.457 187.684 152.108 187.103 152.903 186.828C153.696 186.553 154.566 186.606 155.32 186.974L166.277 192.349C168.01 193.182 168.741 195.264 167.905 197L167.859 197.093C167.072 198.736 165.108 199.423 163.471 198.63L152.814 193.381Z" fill="#FAC48E"/>
<path d="M203.098 135.854C204.763 136.946 207.002 136.485 208.099 134.818L208.107 134.808C208.558 134.124 208.716 133.285 208.548 132.481C208.378 131.68 207.896 130.977 207.206 130.53L197.195 124.046C195.623 123.016 193.511 123.451 192.477 125.019L192.418 125.108C191.442 126.589 191.852 128.583 193.337 129.562L203.098 135.854Z" fill="#FAC48E"/>
<path d="M223.313 97.338L219.405 104.169L205.098 129.163L204.833 129.623L201.768 134.994L198.503 140.706L192.107 151.867L191.119 153.607L185.237 163.882L182.459 168.739L167.956 194.075L166.981 195.772L166.955 195.841L165.179 198.942L163.546 201.8L163.52 201.843L160.362 207.351L160.231 207.59L160.19 207.657L160.111 207.803L157.295 212.712L156.834 213.525L156.755 213.671H156.743L153.992 218.492L143.45 236.903V236.913L142.527 238.517L141.791 239.812L62.5738 378.252L60.5727 381.754L51.1762 376.347L53.0717 373.027L139.343 222.277V222.267L142.527 216.699L145.241 211.962L153.017 198.377L155.204 194.56L158.244 189.247L158.612 188.6L181.998 147.734L182.459 146.921L182.894 146.154L184.395 143.549L184.699 142.994L184.775 142.865L185.079 142.353L185.237 142.074L187.988 137.273L188.067 137.128L188.198 136.889L188.225 136.863L191.33 131.425L191.344 131.399L192.712 129.018L194.686 125.558L194.712 125.506L195.845 123.527L213.928 91.9323L220.442 95.6813L223.313 97.338Z" fill="#3C3C3B"/>
<path d="M191.424 131.472C193.261 132.245 195.379 131.385 196.154 129.546L196.168 129.516C196.83 127.946 196.095 126.138 194.528 125.48L189.276 123.265C187.542 122.528 185.545 123.342 184.813 125.077L184.773 125.175C184.081 126.807 184.847 128.697 186.484 129.387L191.424 131.472Z" fill="#FAC48E"/>
<path d="M190.079 138.194C190.833 138.526 191.691 138.542 192.456 138.236C193.224 137.931 193.835 137.33 194.157 136.568L194.173 136.531C194.94 134.715 194.106 132.617 192.302 131.824L185.586 128.868C184.88 128.556 184.081 128.54 183.364 128.826C182.648 129.111 182.076 129.669 181.776 130.379L181.529 130.97C180.846 132.586 181.586 134.456 183.194 135.166L190.079 138.194Z" fill="#FAC48E"/>
<path d="M186.497 143.761C188.334 144.538 190.452 143.678 191.227 141.839L191.241 141.809C191.559 141.053 191.565 140.209 191.257 139.448C190.949 138.692 190.353 138.091 189.6 137.769L184.349 135.554C182.615 134.824 180.616 135.637 179.886 137.371L179.639 137.955C179.362 138.609 179.358 139.349 179.625 140.013C179.894 140.671 180.412 141.198 181.069 141.473L186.497 143.761Z" fill="#FAC48E"/>
<path d="M184.66 148.854C185.864 149.362 187.284 148.719 187.83 147.424L188.012 146.995C188.558 145.7 188.027 144.239 186.823 143.726L182.415 141.867C181.29 141.395 179.965 141.992 179.455 143.198L179.081 144.088C178.604 145.219 179.067 146.491 180.116 146.932L184.66 148.854Z" fill="#FAC48E"/>
<path d="M220.593 142.328L211.344 138.62L211.01 138.145L210.971 137.072L210.968 137.014C210.684 134.52 209.464 132.245 207.494 130.801C207.087 130.506 198.599 127.087 194.907 125.606L193.052 124.772C191.462 124.057 189.589 124.797 188.867 126.423L188.838 126.48C188.116 128.107 188.82 130.002 190.41 130.712C188.82 130.002 186.945 130.738 186.222 132.365L186.196 132.422C185.472 134.048 186.176 135.944 187.766 136.658L188.632 137.046C187.044 136.332 185.168 137.072 184.446 138.693L184.42 138.755C183.698 140.38 184.4 142.271 185.99 142.985L186.927 143.406C185.514 142.773 183.849 143.431 183.208 144.871L183.184 144.924C182.543 146.368 182.978 148.071 184.387 148.702L185.466 149.143H185.464L196.23 153.552C199.821 154.99 203.46 155.01 204.789 152.835L205.421 152.645L214.924 156.456L215.614 156.165L220.888 143.018L220.593 142.328Z" fill="#FFCF9F"/>
<path d="M162.8 201.313C161.153 200.112 160.793 197.803 161.997 196.157L162.019 196.124C162.513 195.453 163.253 194.995 164.079 194.872C164.904 194.743 165.748 194.945 166.421 195.44L171.131 198.88C172.685 200.014 173.024 202.195 171.89 203.749L171.825 203.836C170.752 205.302 168.695 205.622 167.229 204.55L162.8 201.313Z" fill="#FAC48E"/>
<path d="M157.61 206.033C156.92 205.545 156.457 204.805 156.32 203.971C156.184 203.138 156.388 202.282 156.886 201.605L156.913 201.568C158.102 199.935 160.38 199.563 162.029 200.728L168.156 205.063C168.799 205.519 169.232 206.213 169.36 206.996C169.487 207.772 169.297 208.569 168.832 209.201L168.445 209.735C167.385 211.185 165.356 211.517 163.889 210.475L157.61 206.033Z" fill="#FAC48E"/>
<path d="M154.606 212.105C152.959 210.9 152.601 208.59 153.805 206.943L153.825 206.917C154.319 206.239 155.059 205.788 155.884 205.658C156.712 205.535 157.555 205.737 158.229 206.228L162.938 209.672C164.49 210.807 164.83 212.987 163.695 214.541L163.311 215.063C162.882 215.654 162.237 216.048 161.516 216.155C160.796 216.271 160.062 216.095 159.473 215.664L154.606 212.105Z" fill="#FAC48E"/>
<path d="M151.114 216.395C150.034 215.609 149.848 214.029 150.696 212.863L150.979 212.481C151.828 211.32 153.39 211.015 154.471 211.801L158.421 214.692C159.429 215.426 159.605 216.903 158.812 217.991L158.229 218.783C157.491 219.798 156.127 220.063 155.187 219.373L151.114 216.395Z" fill="#FAC48E"/>
<path d="M168.573 200.905L168.535 200.958C167.495 202.449 165.456 202.827 163.993 201.802L164.889 202.765L164.982 202.91C165.535 203.962 165.494 205.287 164.758 206.343L164.717 206.41C163.704 207.83 161.796 208.249 160.362 207.359L160.178 207.249L159.375 206.695L160.23 207.591L160.336 207.778L160.479 208.069C160.902 209.068 160.809 210.264 160.137 211.237L160.099 211.289C159.427 212.236 158.361 212.74 157.295 212.714C156.69 212.697 156.085 212.517 155.557 212.149L154.69 211.542L155.624 212.647L155.741 212.936C156.045 213.792 155.925 214.779 155.361 215.582L155.335 215.618C154.4 216.95 152.689 217.464 151.386 216.557L150.808 216.12L150.437 215.847L149.464 215.121L145.24 211.963L142.527 209.938L140.897 208.71C137.751 206.329 135.815 203.143 137.027 200.829L136.855 200.181L136.171 199.668V199.657L135.829 199.409L128.512 193.851L128.407 193.09L134.185 185.468L137.158 181.547L137.921 181.444L140.29 183.231V183.247L146.041 187.602L146.634 187.643L147.384 187.234L147.595 187.115L147.647 187.089L147.963 186.955V186.943C150.083 186.073 152.411 185.944 154.505 186.706L154.926 186.866C155.124 186.955 156.48 187.928 158.244 189.249C160.797 191.145 164.191 193.708 166.113 195.168L166.981 195.773L167.825 196.364L168.073 196.566L168.403 196.892C169.35 197.984 169.455 199.643 168.573 200.905Z" fill="#FFCF9F"/>
<path d="M273.22 160.739L273.181 161.014C272.206 168.74 265.152 174.214 257.412 173.241L256.097 172.899C255.518 172.769 254.938 172.608 254.371 172.464C248.345 170.9 242.527 169.227 236.974 167.425C234.289 166.555 231.682 165.649 229.129 164.7C222.115 162.106 215.625 159.226 209.795 155.989L210.111 154.524L213.441 139.459L213.624 138.625L231.328 140.997L235.592 141.577L240.803 142.271L260.992 144.97C265.324 145.512 268.955 147.972 271.128 151.397C272.825 154.063 273.654 157.342 273.22 160.739Z" fill="#006080"/>
<path d="M147.61 186.995L147.386 187.233L141.266 193.664L136.093 199.118L135.831 199.408L133.921 201.406C119.996 194.038 105.02 179.558 89.66 163.447C87.1861 160.672 86.0027 157.186 86.0675 153.737L86.0794 153.316C86.2777 149.697 87.8578 146.145 90.7667 143.535L90.977 143.337C96.7809 138.138 105.704 138.64 110.904 144.446C113.535 146.853 116.129 149.313 118.656 151.855C123.063 156.264 127.328 160.884 131.409 165.699C134.224 168.988 136.949 172.385 139.608 175.876C142.359 179.481 145.017 183.177 147.61 186.995Z" fill="#006080"/>
<path d="M78.6573 430.814L0 387.591L4.67103 381.34L10.7299 373.22L12.5789 370.723L86.1199 411.138L85.0075 414.033L81.431 423.521L78.6573 430.814Z" fill="#F9B233"/>
<path d="M87.2176 415.232L8.5686 372.015L11.0245 367.544C13.7373 362.61 19.9377 360.808 24.8738 363.516L85.6458 396.914C90.5823 399.628 92.3845 405.827 89.6718 410.763L87.2176 415.232Z" fill="#3C3C3B"/>
<path d="M65.8279 380.041L49.7409 371.2L47.2162 375.792L63.3032 384.633L65.8279 380.041Z" fill="#575756"/>
<path d="M4.6731 423.521H85.0095V373.22H4.6731V423.521Z" fill="#E3A331"/>
<path d="M183.856 242.719C183.013 242.298 182.185 241.889 181.368 241.507C180.658 241.179 179.96 240.864 179.25 240.575V240.559C176.472 239.377 173.748 238.414 171.09 237.73L166.892 233.008C172.649 236.006 178.263 237.451 183.739 237.451C189.375 237.451 194.868 235.924 200.228 233.008L196.346 237.799C193.767 238.483 191.135 239.413 188.448 240.559V240.575C187.738 240.864 187.04 241.179 186.33 241.507C185.513 241.889 184.686 242.298 183.856 242.719Z" fill="#045671"/>
<path d="M170.168 321.924C168.734 321.189 167.391 320.463 166.114 319.779C164.85 319.108 163.64 318.45 162.469 317.817C170.049 304.498 174.603 275.108 179.434 247.1L177.605 245.05L171.089 237.732C173.747 238.415 176.472 239.378 179.25 240.56V240.576C179.96 240.865 180.657 241.181 181.367 241.509C182.185 241.891 183.012 242.3 183.856 242.72L183.33 242.983C183.409 243.641 183.514 244.315 183.605 244.982L183.619 245.05L183.712 245.692L183.856 246.734C183.342 250.369 182.881 253.932 182.395 257.434C179.13 282.245 176.565 303.608 170.168 321.924Z" fill="#045671"/>
<path d="M161.402 424.637C163.967 382.231 168.614 334.297 160.204 321.2C160.994 320.227 161.744 319.098 162.468 317.817C163.64 318.451 164.849 319.108 166.113 319.78C167.39 320.464 168.733 321.19 170.167 321.924C170.167 357.104 162.138 421.297 161.402 424.637Z" fill="#045671"/>
<path d="M197.532 321.924C191.136 303.608 188.569 282.245 185.306 257.434C184.818 253.932 184.357 250.369 183.857 246.734L183.714 245.692L183.62 245.05L183.606 244.982C183.515 244.315 183.41 243.641 183.331 242.983L183.857 242.72C184.687 242.299 185.514 241.891 186.331 241.509C187.041 241.181 187.739 240.865 188.449 240.576V240.56C191.136 239.415 193.768 238.484 196.347 237.8L190.464 245.05L188.977 246.878C193.136 274.135 196.084 305.145 204.835 318.029C203.795 318.594 202.703 319.191 201.585 319.779C200.308 320.463 198.967 321.189 197.532 321.924Z" fill="#045671"/>
<path d="M206.296 424.637C205.559 421.297 197.532 357.104 197.532 321.924C198.967 321.19 200.308 320.464 201.585 319.78C202.703 319.191 203.795 318.594 204.835 318.03C205.664 319.252 206.547 320.32 207.496 321.2C199.335 333.391 204.414 383.584 206.296 424.637Z" fill="#045671"/>
<path d="M137.569 319.566C136.509 310.764 136.052 302.389 136.054 294.471C136.058 275.718 138.643 259.555 141.939 246.468L142.53 245.05C140.359 271.792 138.595 297.749 141.411 314.161C139.833 315.28 138.437 316.989 137.569 319.566Z" fill="#045671"/>
<path d="M126.471 414.107L126.46 414.056C125.667 407.613 125.298 400.865 125.301 393.966C125.303 368.467 130.348 340.93 137.568 319.567C138.436 316.99 139.831 315.281 141.409 314.162C141.766 316.254 142.2 318.176 142.712 319.935L142.911 320.583C132.447 347.685 126.88 378.782 126.471 414.107Z" fill="#045671"/>
<path d="M246.643 393.702C245.124 391.465 243.665 389.161 242.263 386.777C241.974 378.441 241.171 369.999 239.973 361.67H251.858C250.845 372.251 249.08 382.926 246.647 393.692C246.645 393.696 246.645 393.702 246.643 393.702Z" fill="#CB471B"/>
<path d="M251.861 361.671H239.975C239.686 359.622 239.37 357.581 239.028 355.55H252.36C252.228 357.591 252.056 359.632 251.861 361.671Z" fill="#BD4219"/>
<path d="M241.318 414.107L241.304 413.373V413.356C242.318 404.905 242.595 395.945 242.265 386.811V386.799C242.265 386.789 242.265 386.785 242.265 386.778C243.667 389.162 245.126 391.466 246.645 393.703C245.131 400.466 243.343 407.281 241.318 414.107Z" fill="#B9421B"/>
<path d="M230.133 319.566C229.263 317.03 227.92 315.33 226.368 314.212C229.198 297.801 227.434 271.818 225.263 245.05L225.644 245.956V245.981C228.994 259.177 231.654 275.546 231.65 294.574C231.648 302.462 231.189 310.805 230.133 319.566Z" fill="#045671"/>
<path d="M241.305 413.356C241.161 402.357 240.502 391.76 239.357 381.573C238.594 374.754 237.607 368.118 236.395 361.671C236.015 359.606 235.606 357.564 235.171 355.55C232.566 343.235 229.131 331.573 224.88 320.582L225.077 319.935C225.59 318.185 226.011 316.279 226.367 314.212C227.919 315.33 229.262 317.03 230.132 319.567C233.777 330.349 236.856 342.691 239.029 355.55C239.371 357.58 239.686 359.622 239.975 361.671C241.173 370 241.977 378.442 242.266 386.778C242.266 386.784 242.266 386.788 242.266 386.798V386.811C242.595 395.944 242.318 404.904 241.305 413.356Z" fill="#045671"/>
</svg>
