<svg width="74" height="16" viewBox="0 0 74 16" fill="none" xmlns="http://www.w3.org/2000/svg">
    <path d="M9.36053 6.36256H4.07183V0.795305H0V15.9532H4.07183V10.4327H9.36053V15.9532H13.4324V0.795305H9.36053V6.36256Z" fill="#D3C7B2"/>
    <path d="M46.5217 8.14034L40.4842 0.795305H38.5185V15.9532H42.6371V9.02922L46.5217 13.7544L50.4064 9.02922V15.9532H54.4782V0.795305H52.5593L46.5217 8.14034Z" fill="#D3C7B2"/>
    <path d="M66.7874 0.795305H64.8216L58.0353 15.9532H62.3411L63.1836 13.9883H68.4723L69.3147 15.9532H73.5737L66.7874 0.795305ZM64.5876 10.6199L65.8045 7.76607L67.0214 10.6199H64.5876Z" fill="#D3C7B2"/>
    <path d="M25.9756 0C21.5762 0 17.9724 3.55556 17.9724 8C17.9724 12.3977 21.5294 16 25.9756 16C30.3751 16 33.9789 12.4444 33.9789 8C33.9789 3.55556 30.3751 0 25.9756 0ZM25.9756 11.883C23.8227 11.883 22.091 10.152 22.091 8C22.091 5.84795 23.8227 4.11696 25.9756 4.11696C28.1285 4.11696 29.8602 5.84795 29.8602 8C29.8602 10.152 28.1285 11.883 25.9756 11.883Z" fill="#D3C7B2"/>
</svg>
