<svg width="138" height="120" viewBox="0 0 138 120" fill="none" xmlns="http://www.w3.org/2000/svg">
<path d="M124.994 116.45H7.896V24.5006H124.994V116.45Z" fill="#FAB989"/>
<path d="M35.2444 54.5177H17.5537V33.4495H35.2444V54.5177Z" fill="#E58E47"/>
<path d="M59.6375 54.5177H41.9468V33.4495H59.6375V54.5177Z" fill="#E58E47"/>
<path d="M112.026 54.5177H80.0972V33.4495H112.026V54.5177Z" fill="#E58E47"/>
<path d="M33.7861 53.4362H19.0127V34.5312H33.7861V53.4362Z" fill="white"/>
<path d="M32.3219 52.1963H20.4756V35.7712H32.3219V52.1963Z" fill="#959CB7"/>
<path d="M58.1786 53.4362H43.4053V34.5312H58.1786V53.4362Z" fill="white"/>
<path d="M56.7174 52.1963H44.8711V35.7712H56.7174V52.1963Z" fill="#959CB7"/>
<path d="M110.446 53.4362H81.5532V34.5312H110.446V53.4362Z" fill="white"/>
<path d="M94.8634 52.1963H83.0171V35.7712H94.8634V52.1963Z" fill="#959CB7"/>
<path d="M108.895 52.1963H97.0483V35.7712H108.895V52.1963Z" fill="#959CB7"/>
<path d="M49.753 105.915H17.8218V85.9302H49.753V105.915Z" fill="#E58E47"/>
<path d="M48.1736 104.834H19.2803V85.9304H48.1736V104.834Z" fill="white"/>
<path d="M32.5909 103.595H20.7446V87.1688H32.5909V103.595Z" fill="#959CB7"/>
<path d="M46.6208 103.595H34.7744V87.1688H46.6208V103.595Z" fill="#959CB7"/>
<path d="M8.05139 11.1666L2.5415 27.772H132.892L127.619 11.1666H8.05139Z" fill="#78372C"/>
<path d="M127.62 11.1666L126.883 8.84653H6.00775L0 27.772H2.54194L8.05183 11.1666H127.62Z" fill="#92493A"/>
<path d="M132.885 116.45H56.7173V81.1377H132.885V116.45Z" fill="#F8AD7B"/>
<path d="M132.892 29.0206H0V27.7719H132.892V29.0206Z" fill="#3C231C"/>
<path d="M136.376 81.1377H53.3525V79.8875H136.376V81.1377Z" fill="#3C231C"/>
<path d="M124.994 30.5391H7.896V29.0207H124.994V30.5391Z" fill="#E58E47"/>
<path d="M55.4819 79.8875H136.376L132.885 63.1311H58.2417L55.4819 79.8875Z" fill="#78372C"/>
<path d="M56.4255 61.7725L53.3525 79.8875H55.4822L58.242 63.1311H132.885L132.601 61.7725H56.4255Z" fill="#92493A"/>
<path d="M52.162 85.9302H15.3589V82.615H52.162V85.9302Z" fill="#E58E47"/>
<path d="M85.0546 116.45H62.311V84.2726H85.0546V116.45Z" fill="#E58E47"/>
<path d="M83.3205 116.45H63.8735V85.4304H83.3205V116.45Z" fill="white"/>
<path d="M72.8532 99.0986H65.2856V86.5443H72.8532V99.0986Z" fill="#959CB7"/>
<path d="M81.6789 99.0986H74.1113V86.5443H81.6789V99.0986Z" fill="#959CB7"/>
<path d="M114.739 105.581H97.0483V84.513H114.739V105.581Z" fill="#E58E47"/>
<path d="M113.28 104.5H98.5068V85.5946H113.28V104.5Z" fill="white"/>
<path d="M111.817 103.26H99.9688V86.8345H111.817V103.26Z" fill="#959CB7"/>
<path d="M37.2927 14.7954H27.8872V7.43866e-05H37.2927V14.7954Z" fill="#FAB989"/>
<path d="M37.2927 12.7538H27.8872V14.7954H37.2927V12.7538Z" fill="#E58E47"/>
<path d="M33.0689 47.8977H19.6978V47.0433H33.0689V47.8977Z" fill="white"/>
<path d="M25.8315 53.1504V34.9153H26.9674V53.1504H25.8315Z" fill="white"/>
<path d="M57.4785 47.8977H44.1074V47.0433H57.4785V47.8977Z" fill="white"/>
<path d="M50.2427 53.1504V34.9153H51.3766V53.1504H50.2427Z" fill="white"/>
<path d="M112.578 99.2468H99.2065V98.3924H112.578V99.2468Z" fill="white"/>
<path d="M105.343 104.5V86.2644H106.477V104.5H105.343Z" fill="white"/>
<path d="M95.6265 47.8491H82.2554V46.9947H95.6265V47.8491Z" fill="white"/>
<path d="M88.3892 53.1005V34.8653H89.523V53.1005H88.3892Z" fill="white"/>
<path d="M109.658 47.8491H96.2866V46.9947H109.658V47.8491Z" fill="white"/>
<path d="M102.42 53.1005V34.8653H103.554V53.1005H102.42Z" fill="white"/>
<path d="M47.3833 99.2468H34.0122V98.3924H47.3833V99.2468Z" fill="white"/>
<path d="M40.146 104.5V86.2644H41.2799V104.5H40.146Z" fill="white"/>
<path d="M33.6529 99.2468H20.2817V98.3924H33.6529V99.2468Z" fill="white"/>
<path d="M26.4155 104.5V86.2644H27.5494V104.5H26.4155Z" fill="white"/>
<path d="M132.939 116.45H6.38726C2.91758 116.45 1.32471 120 1.32471 120H36.3269H102.998H138C138 120 136.407 116.45 132.939 116.45Z" fill="#82C328"/>
</svg>
