<svg width="74" height="73" viewBox="0 0 74 73" fill="none" xmlns="http://www.w3.org/2000/svg">
<path d="M74 36.5C74 56.647 57.425 73 37 73C16.575 73 0 56.647 0 36.5C0 16.353 16.575 0 37 0C57.425 0 74 16.353 74 36.5Z" fill="#0054F0"/>
<path d="M32.2369 26.6228C32.1717 26.8191 32.3022 27.0153 32.4979 27.0153L35.6302 26.9499C35.6302 26.9499 31.3886 43.9571 30.5403 47.4239C29.4962 51.7411 27.7343 56.1237 26.4944 57.6936C25.3851 59.0673 24.6673 59.5252 23.8842 59.5252C22.8401 59.5252 22.318 58.7402 21.9918 57.4974C21.796 56.5816 21.2087 55.3388 19.9036 55.3388C18.5332 55.3388 16.7061 56.8433 16.7061 58.7402C16.7061 61.2259 20.8824 61.8146 22.2528 61.8146C24.9935 61.8146 28.5826 60.0485 30.9318 57.3011C33.9988 53.8343 35.6955 49.5171 37.2616 43.4338L41.1117 26.8845L45.1576 26.9499C45.4838 26.9499 45.6143 26.6882 45.6796 26.5574L46.2017 25.0529C46.2669 24.8567 46.1364 24.6605 45.9406 24.6605H41.7643C42.7431 21.1282 44.244 15.9606 47.1152 13.1479C47.3763 12.8863 48.0941 12.2976 48.7466 12.2976C49.856 12.2976 50.1822 12.9517 50.7043 13.9983C51.1611 15.0449 51.0958 16.811 52.662 16.811C54.4891 16.811 55.8595 14.7832 55.8595 13.4096C55.8595 11.5126 52.5967 10.2698 49.9212 10.2698C46.8542 10.2698 43.8524 11.578 41.699 13.7366C38.632 16.8764 37.1964 21.5207 36.2175 24.7259L33.0852 24.6605C32.8895 24.6605 32.6937 24.8567 32.6285 24.9875L32.2369 26.6228ZM48.4856 43.8916C48.4203 44.742 47.9636 47.0314 45.4186 47.0314C43.9177 47.0314 42.8084 46.0502 42.9389 44.2841C43.0041 42.518 44.244 41.0789 46.0059 41.0135C47.1805 41.0789 48.6161 41.8639 48.4856 43.8916ZM57.5561 43.8916C57.4909 44.742 57.0341 47.0314 54.4891 47.0314C52.9882 47.0314 51.8789 46.0502 52.0094 44.2841C52.0747 42.518 53.3145 41.0789 55.0764 41.0135C56.1858 41.0789 57.6214 41.8639 57.5561 43.8916ZM66.5614 43.8916C66.4962 44.742 66.0394 47.0314 63.4944 47.0314C61.9935 47.0314 60.8842 46.0502 61.0147 44.2841C61.08 42.518 62.3198 41.0789 64.0817 41.0135C65.2563 41.0789 66.6267 41.8639 66.5614 43.8916ZM27.7343 13.2787C25.8419 13.3441 24.5367 14.8486 24.4062 16.7456C24.2757 18.5771 25.3851 19.6237 27.0165 19.6237C29.7572 19.6237 30.3445 17.1381 30.3445 16.2223C30.475 14.1291 29.0394 13.2787 27.7343 13.2787Z" fill="white"/>
<path d="M23.2314 37.5467L26.1026 30.5476C26.6899 29.1739 27.4077 27.3424 27.4077 26.0996C27.4077 24.5297 26.2331 24.1372 25.3848 24.1372C21.4695 24.1372 17.2931 28.7161 15.7269 30.5476C15.5964 30.6784 15.5312 30.9401 15.7922 31.1363L16.51 31.8558C16.6405 31.9867 16.9016 31.9867 17.0321 31.7904C17.0321 31.7904 18.9245 29.6972 19.6423 29.1739C19.8381 29.0431 20.0991 28.8469 20.2949 28.8469C20.5559 28.8469 20.6864 29.2394 20.6864 29.4356C20.6864 30.0897 20.0338 31.6596 19.7075 32.4446L16.7058 40.0978C15.6617 42.6489 15.1396 44.0225 15.1396 45.1345C15.1396 46.4428 15.8575 47.4894 17.6846 47.4894C21.861 47.4894 27.0814 41.2098 27.0814 41.2098C27.2772 40.9481 27.212 40.7519 27.0814 40.6211L26.2984 39.9015C26.1679 39.7707 25.9068 39.7053 25.7111 39.9015C25.7111 39.9015 22.9051 43.0413 21.9262 43.0413C21.4695 43.0413 21.5347 42.518 21.5347 42.4526C21.5347 41.9947 21.7957 41.1444 21.9915 40.7519L23.2314 37.5467Z" fill="white"/>
</svg>
