<svg width="181" height="77" viewBox="0 0 181 77" fill="none" xmlns="http://www.w3.org/2000/svg">
<path d="M26.1158 68.2551H27.5103V76.215H26.1158V72.7422H22.7556V76.215H21.3477V68.2551H22.7422V71.4161H26.1024L26.1158 68.2551Z" fill="#383C41"/>
<path d="M34.1804 76.4158C31.882 76.4158 30.1885 74.6561 30.1885 72.2119C30.1885 69.6745 31.9022 68.051 34.1804 68.051C36.4587 68.051 38.2127 69.6638 38.2127 72.2119C38.2026 74.6741 36.499 76.4158 34.1804 76.4158ZM36.6972 72.2119C36.6972 70.5992 35.6623 69.3986 34.1905 69.3986C32.7187 69.3986 31.6905 70.6386 31.6905 72.2119C31.6905 73.8462 32.6986 75.0468 34.1905 75.0468C35.6824 75.0468 36.6972 73.8462 36.6972 72.2119Z" fill="#383C41"/>
<path d="M40.0838 68.2551H46.0045V69.5776H43.7464V76.215H42.3385V69.5776H40.0703L40.0838 68.2551Z" fill="#383C41"/>
<path d="M50.3261 69.5776V71.4376H53.72V72.7637H50.3261V74.8853H54.0997V76.215H48.9316V68.2551H53.9081V69.5776H50.3261Z" fill="#383C41"/>
<path d="M58.7173 74.8853H61.8625V76.215H57.3262V68.2551H58.7173V74.8853Z" fill="#383C41"/>
<path d="M64.4893 68.2551H65.8838V76.215H64.4893V68.2551Z" fill="#383C41"/>
<path d="M71.0019 69.5776V71.4376H74.3958V72.7637H71.0019V74.8853H74.7721V76.215H69.6074V68.2551H74.5974V69.5776H71.0019Z" fill="#383C41"/>
<path d="M81.6905 72.6992L83.673 76.215H81.9929V76.1935L80.2927 72.8712H79.3955V76.215H78.001V68.2551H80.5984C82.0433 68.2551 83.3673 68.8787 83.3673 70.556C83.3639 71.6706 82.7355 72.4375 81.6905 72.6992ZM81.9694 70.5488C81.9694 69.7424 81.2436 69.5525 80.5379 69.5525H79.3921V71.6312H80.4271C81.1058 71.6168 81.9694 71.5021 81.9694 70.5345V70.5488Z" fill="#383C41"/>
<path d="M89.795 71.4878C90.8031 71.7458 92.1909 72.1616 92.1909 73.8603C92.1909 75.6846 90.7594 76.4157 89.2675 76.4157C88.2224 76.4157 86.9455 76.2795 85.9072 74.9068H85.924L87.0799 74.0467C87.3488 74.4051 87.957 75.0896 89.2708 75.0896C90.0874 75.0896 90.7124 74.7814 90.7124 74.0145C90.7124 73.5163 90.4536 73.269 89.5699 73.0468L88.2728 72.7171C87.2379 72.4626 86.1828 72.0935 86.1828 70.5417C86.1828 68.9898 87.379 68.058 89.1297 68.058C89.6851 68.0347 90.2376 68.1548 90.7402 68.4081C91.2427 68.6615 91.6805 69.0405 92.0161 69.5131L90.8837 70.4162C90.6879 70.0889 90.4153 69.8218 90.0929 69.6414C89.7705 69.461 89.4095 69.3735 89.0457 69.3876C88.2964 69.3876 87.6411 69.746 87.6411 70.3553C87.6411 71.0327 88.3367 71.1187 89.0154 71.2907L89.795 71.4878Z" fill="#383C41"/>
<path d="M103.432 71.4878C104.44 71.7458 105.831 72.1616 105.831 73.8603C105.831 75.6846 104.399 76.4157 102.904 76.4157C101.859 76.4157 100.586 76.2795 99.5439 74.9068H99.5641L100.717 74.0467C100.985 74.4051 101.594 75.0896 102.908 75.0896C103.724 75.0896 104.352 74.7814 104.352 74.0145C104.352 73.5163 104.094 73.269 103.207 73.0468L101.913 72.7171C100.878 72.4626 99.8228 72.0935 99.8228 70.5417C99.8228 68.9898 101.016 68.058 102.77 68.058C103.325 68.0347 103.878 68.1548 104.38 68.4081C104.883 68.6615 105.321 69.0405 105.656 69.5131L104.504 70.4091C104.308 70.087 104.037 69.8245 103.718 69.6474C103.399 69.4702 103.042 69.3844 102.682 69.3984C101.936 69.3984 101.278 69.7568 101.278 70.3661C101.278 71.0434 101.977 71.1294 102.652 71.3014L103.432 71.4878Z" fill="#383C41"/>
<path d="M108.871 68.2551H110.266V76.215H108.871V68.2551Z" fill="#383C41"/>
<path d="M114.971 70.3015V76.215H113.576V68.2551H115.387L118.781 73.9894V68.2551H120.166V76.215H118.442L114.971 70.3015Z" fill="#383C41"/>
<path d="M129.5 74.0827C129.258 74.7768 128.82 75.3739 128.246 75.7917C127.673 76.2095 126.992 76.4275 126.298 76.4158C124.315 76.4158 122.793 74.8783 122.793 72.2119C122.793 69.5454 124.436 68.051 126.348 68.051C127.011 68.0089 127.668 68.2073 128.211 68.614C128.755 69.0208 129.154 69.6118 129.342 70.2909L127.998 70.7783C127.933 70.3829 127.733 70.027 127.438 69.7785C127.142 69.53 126.771 69.4062 126.395 69.4308C125.172 69.4308 124.325 70.4808 124.325 72.1904C124.325 74.0074 125.222 75.036 126.405 75.036C127.511 75.036 127.978 74.0612 128.169 73.6024L129.5 74.0827Z" fill="#383C41"/>
<path d="M133.738 69.5776V71.4376H137.135V72.7637H133.738V74.8853H137.512V76.215H132.33V68.2551H137.307V69.5776H133.738Z" fill="#383C41"/>
<path d="M146.751 69.8786L145.259 70.8642L144.543 69.7066L146.751 68.2551H148.145V76.215H146.751V69.8786Z" fill="#383C41"/>
<path d="M153.589 76.4157C152.037 76.4157 150.901 75.5591 150.901 74.122C150.882 73.6731 151.004 73.2304 151.248 72.8637C151.491 72.497 151.842 72.2273 152.245 72.0971C151.9 71.9393 151.608 71.6722 151.409 71.3319C151.21 70.9916 151.114 70.5945 151.133 70.194C151.133 68.8895 152.198 68.0437 153.589 68.0437C154.981 68.0437 156.079 68.8716 156.079 70.194C156.089 70.6015 155.982 71.0023 155.772 71.3426C155.561 71.6829 155.258 71.9462 154.903 72.0971C155.316 72.22 155.679 72.4855 155.935 72.8519C156.191 73.2184 156.326 73.6651 156.318 74.122C156.318 75.5663 155.162 76.4157 153.589 76.4157ZM154.913 74.0181C154.896 73.6601 154.751 73.3227 154.508 73.0758C154.264 72.8288 153.941 72.6911 153.605 72.6911C153.269 72.6911 152.945 72.8288 152.702 73.0758C152.458 73.3227 152.313 73.6601 152.296 74.0181C152.296 74.7348 152.823 75.2079 153.6 75.2079C154.376 75.2079 154.907 74.7277 154.907 74.0181H154.913ZM154.675 70.3553C154.66 70.0636 154.54 69.7893 154.341 69.5886C154.142 69.3879 153.879 69.276 153.605 69.276C153.331 69.276 153.067 69.3879 152.868 69.5886C152.669 69.7893 152.55 70.0636 152.534 70.3553C152.524 70.5097 152.544 70.6647 152.593 70.8102C152.642 70.9558 152.72 71.0888 152.82 71.2006C152.921 71.3123 153.042 71.4004 153.176 71.4592C153.31 71.5179 153.455 71.546 153.6 71.5416C153.745 71.5448 153.889 71.516 154.023 71.457C154.158 71.3979 154.279 71.31 154.38 71.1987C154.481 71.0873 154.559 70.9549 154.61 70.8098C154.661 70.6647 154.683 70.51 154.675 70.3553V70.3553Z" fill="#383C41"/>
<path d="M161.291 73.3588C159.611 73.624 158.525 72.3194 158.525 70.7784C158.525 69.0151 159.779 68.051 161.251 68.051C162.783 68.051 163.908 69.0294 163.908 70.7784C163.908 71.8822 163.371 72.6169 162.564 73.8784L161.079 76.2151H159.379L161.291 73.3588ZM161.23 72.2836C161.412 72.2836 161.591 72.2438 161.757 72.1666C161.924 72.0894 162.073 71.9765 162.197 71.8349C162.32 71.6934 162.415 71.5262 162.476 71.3438C162.536 71.1614 162.561 70.9677 162.548 70.7748C162.562 70.5828 162.54 70.3895 162.481 70.2074C162.422 70.0252 162.329 69.858 162.206 69.7165C162.083 69.575 161.935 69.4622 161.769 69.3852C161.603 69.3083 161.424 69.2689 161.244 69.2696C161.064 69.2732 160.886 69.3153 160.722 69.3935C160.557 69.4717 160.409 69.5843 160.286 69.7247C160.164 69.8651 160.068 70.0304 160.007 70.2108C159.945 70.3912 159.918 70.583 159.927 70.7748C159.947 71.66 160.458 72.2764 161.234 72.2764L161.23 72.2836Z" fill="#383C41"/>
<path d="M165.944 68.2551H171.119V69.3661L168.243 76.215H166.751L169.667 69.5776H165.944V68.2551Z" fill="#383C41"/>
<path d="M117.645 15.0776C116.301 15.0776 114.409 17.3534 114.409 18.4429C114.409 18.9841 114.782 19.2206 115.239 19.2206C116.617 19.2206 118.488 17.2459 118.488 15.9449C118.488 15.8284 118.466 15.7132 118.423 15.606C118.38 15.4988 118.317 15.402 118.239 15.3211C118.16 15.2402 118.067 15.177 117.965 15.1352C117.863 15.0934 117.754 15.0738 117.645 15.0776Z" fill="#383C41"/>
<path d="M174.759 15.0776C173.415 15.0776 171.52 17.3534 171.52 18.4429C171.52 18.9841 171.896 19.2206 172.353 19.2206C173.731 19.2206 175.606 17.2459 175.606 15.9449C175.605 15.8282 175.582 15.7129 175.539 15.6057C175.495 15.4986 175.433 15.4017 175.354 15.3209C175.275 15.2401 175.181 15.1769 175.079 15.1351C174.977 15.0933 174.868 15.0738 174.759 15.0776Z" fill="#383C41"/>
<path d="M81.7511 0C69.5972 0 50.5615 17.5611 40.2456 25.1661C43.1354 18.9552 45.874 12.9809 48.8075 8.42573C50.1113 6.408 49.745 5.82383 49.1872 5.82383C48.6294 5.82383 46.5528 6.66963 38.579 7.74479C30.7295 8.81996 26.499 13.3428 26.499 18.6183C26.499 21.1271 27.507 23.177 28.6697 24.1375C29.0762 24.4959 29.466 24.2773 29.0258 23.6035C28.4479 22.7183 27.6381 21.0697 27.6381 19.4534C27.6381 16.0021 29.7953 12.8124 33.5722 11.3108C36.8014 10.0313 39.6946 10.017 44.4694 9.26795C37.7255 21.3421 26.5897 55.6758 12.0298 55.6758C10.1219 55.7021 8.2435 55.1723 6.59725 54.1434C4.951 53.1146 3.59944 51.6257 2.6884 49.8376C2.23477 48.9667 2.01636 48.6227 1.28719 48.6227C1.12058 48.6102 0.953362 48.6349 0.796183 48.6951C0.639003 48.7553 0.495307 48.8498 0.374242 48.9726C0.253178 49.0953 0.1574 49.2435 0.0930057 49.4079C0.0286115 49.5723 -0.00298699 49.7491 0.000222093 49.9272C0.000222093 53.5971 6.77444 56.7366 11.7005 56.7366C24.9028 56.7366 32.7355 41.2434 39.624 26.485C43.6092 38.043 47.4533 54.6472 60.3667 54.6472C65.612 54.6472 70.9715 50.5186 73.3808 47.2178C73.9924 46.3827 73.774 45.881 73.1053 46.63C71.0522 48.9237 66.3143 52.9198 61.1227 52.9198C53.5152 52.9198 48.3539 45.2287 43.1119 25.8327C51.6066 18.6649 72.0569 1.50882 81.9359 1.50882C84.1907 1.50882 85.78 2.18976 85.78 3.30077C85.78 4.58738 84.399 5.75932 84.399 6.08187C84.4082 6.16616 84.4328 6.24769 84.4716 6.32179C84.5103 6.39589 84.5624 6.46111 84.6249 6.51371C84.6873 6.56631 84.7588 6.60526 84.8354 6.62832C84.912 6.65139 84.992 6.65812 85.071 6.64812C86.3378 6.64812 87.524 5.06046 87.524 3.4943C87.5173 1.50882 84.8728 0 81.7511 0Z" fill="#383C41"/>
<path d="M179.873 26.9472C179.715 26.9472 179.537 27.1372 179.305 27.5207C177.793 30.1333 171.718 37.3405 168.216 37.3405C167.292 37.3405 166.808 36.4087 166.808 35.3909C166.808 31.807 170.488 27.2877 170.488 26.0728C170.488 25.7323 170.115 25.5029 169.705 25.5029C168.3 25.5029 167.874 25.7502 166.906 27.2232C164.991 30.1333 161.866 37.233 158.606 37.233C156.204 37.233 154.725 32.3697 154.355 28.1371C155.458 27.0619 160.794 23.1698 162.313 22.5426C163.092 22.2165 162.702 20.9048 161.832 20.9048C161.231 20.9048 153.868 26.6068 151.882 28.1192C155.306 20.5285 160.017 10.3646 162.605 5.86679C163.358 4.55867 165.481 2.35816 165.481 1.13247C165.481 0.727486 165.32 0.512451 164.977 0.512451C162.585 0.512451 158.371 9.02061 147.554 17.1166C146.247 18.0914 142.544 20.5034 142.306 23.5963C139.355 23.6608 137.443 25.2592 136.872 27.1802C134.584 32.6026 130.068 37.0431 127.877 37.0431C127.376 37.0431 127.252 36.5915 127.252 36.1614C127.252 34.0111 130.612 29.0402 130.612 27.2017C130.612 26.1265 129.866 25.4958 128.788 25.4958C126.456 25.4958 124.537 27.0476 122.084 29.585C122.322 28.8682 123.115 26.8146 123.283 26.3595C123.549 25.6642 123.005 25.4886 122.595 25.4886C121.529 25.4886 120.491 26.1588 120.242 26.9401C117.716 31.2407 112.433 37.0825 110.498 37.0825C110.108 37.0825 109.917 36.7241 109.917 36.0754C109.917 34.0434 113.922 27.1157 114.251 26.3487C114.554 25.632 113.915 25.4886 113.579 25.4886C113.14 25.4862 112.707 25.5936 112.315 25.8021C111.922 26.0106 111.58 26.3145 111.318 26.6892C111.247 26.7931 111.16 26.9329 111.059 27.0942C108.667 30.524 103.559 34.9071 99.315 36.7707C102.222 34.4376 104.748 30.9791 104.748 28.0977C104.748 26.424 103.542 25.4707 101.936 25.4707C100.148 25.4707 98.2095 26.4347 96.4723 27.8755C97.5912 25.5961 98.8547 23.3598 99.0327 22.9369C99.3352 22.2201 98.6967 22.0767 98.3607 22.0767C97.5879 22.0767 96.2841 22.5785 95.7868 23.5497C94.4091 26.2412 92.608 30.3304 91.4857 32.9825C89.6712 35.6633 86.9326 37.0072 85.9413 37.0072C85.5549 37.0072 85.3398 36.7026 85.3398 36.122C85.3398 34.0075 88.7236 28.9829 88.7236 27.1623C88.7236 26.0871 87.944 25.4635 86.9662 25.4635C84.7383 25.4635 83.0549 26.786 80.6154 29.2911C81.1967 26.9222 80.444 25.4635 78.7504 25.4635C76.4453 25.4635 74.1368 27.6139 72.2383 30.1226C72.6281 28.9757 72.9406 28.2733 72.9406 27.1479C72.9406 26.0226 72.3055 25.4778 71.3915 25.4778C66.2605 25.4778 62.655 37.6918 56.7006 37.6918C55.0474 37.6918 54.2712 36.4661 54.2712 34.9465C54.2723 34.5775 54.3038 34.2094 54.3653 33.8462C58.2799 33.3875 64.3922 29.5456 64.3922 25.9115C64.3922 24.6715 63.3505 24.0228 62.04 24.0228C57.2013 24.0228 51.2705 30.6028 51.2705 35.1544C51.2705 37.9749 53.1254 39.6808 55.4439 39.6808C59.8592 39.6808 63.4916 35.3192 66.0857 31.5991C67.6953 29.2983 69.0663 27.9902 69.5232 27.9902C69.6409 27.9902 69.7249 28.0547 69.7249 28.2805C69.7249 29.714 66.0286 37.6559 66.0286 38.577C66.0286 39.0716 66.4789 39.0716 66.8922 39.0716C68.5992 39.0716 69.1503 38.1147 70.1718 35.8461C71.153 33.6957 75.1583 27.4239 77.3324 27.4239C77.7558 27.4239 77.9003 27.7321 77.9003 28.1694C77.9003 30.4881 73.9621 37.4875 73.9621 38.5626C73.9621 39.0572 74.4124 39.0572 74.8257 39.0572C76.8855 39.0572 77.4198 37.3298 78.9722 33.9394C80.5246 30.5491 83.9588 27.4562 85.3163 27.4562C85.6288 27.4562 85.7363 27.5816 85.7363 27.9006C85.7363 29.1657 82.1846 34.8748 82.1846 37.1004C82.1846 38.3942 83.028 39.1002 84.3318 39.1002C85.7263 39.1002 88.0784 38.2222 90.2088 36.1148C85.9144 46.6837 83.6429 53.7978 74.5535 58.7722C74.2948 58.9156 74.2914 59.1306 74.6241 59.1306C75.3744 59.0198 76.0996 58.7648 76.7645 58.378C85.239 53.9411 88.5455 47.5618 92.5979 38.3655C95.4272 31.9504 98.0717 27.0189 100.783 27.0189C101.543 27.0189 101.791 27.7357 101.791 28.4095C101.791 30.2014 99.231 34.1831 96.7243 36.1722C95.2458 37.3441 94.446 37.7025 94.446 38.3225C94.446 38.7848 94.9299 39.0716 95.4071 39.0716C99.1436 39.0716 104.396 35.9034 108.475 31.8464C107.591 33.7065 106.859 35.6346 106.859 36.8639C106.859 38.3906 107.904 39.0572 109.053 39.0572C111.886 39.0572 115.629 35.2225 118.774 31.2013C117.369 34.5917 115.669 37.7885 115.669 38.5591C115.669 39.0536 116.123 39.0536 116.536 39.0536C118.596 39.0536 119.13 37.3262 120.683 33.9358C122.235 30.5455 125.8 27.4562 127.161 27.4562C127.47 27.4562 127.655 27.5816 127.655 27.9006C127.655 29.1657 124.1 34.8748 124.1 37.1004C124.1 38.3942 124.947 39.1002 126.251 39.1002C129.947 39.1002 134.416 34.606 137.027 29.8179C137.837 31.7747 139.9 33.7316 139.9 35.5522C139.899 35.8317 139.845 36.1081 139.743 36.3654C139.64 36.6226 139.491 36.8556 139.303 37.0507C139.116 37.2458 138.894 37.3992 138.65 37.5018C138.406 37.6045 138.146 37.6545 137.884 37.6488C135.797 37.6488 135.589 35.8066 134.638 35.8066C133.821 35.8066 133.331 36.312 133.294 36.8137C133.21 37.9892 135.495 39.0751 137.054 39.0751C139.665 39.0751 142.43 37.018 142.43 34.0864C142.43 31.1547 139.261 29.1406 139.261 26.9186C139.261 25.8721 139.984 25.0872 141.358 25.0872C141.956 25.1192 142.536 25.3195 143.038 25.6678C143.716 26.3225 144.604 26.673 145.518 26.6462C146.696 26.561 147.813 26.0561 148.69 25.2126C149.144 24.6966 148.892 24.288 148.455 24.546C147.876 24.8294 147.244 24.9667 146.607 24.9474C145.525 24.9474 144.591 24.288 144.591 22.858C144.591 19.5178 151.16 16.7654 157.111 10.3144C153.364 17.8657 147.165 31.8178 145.4 35.76C144.799 37.1147 144.329 38.1505 144.329 38.534C144.329 39.0357 144.665 39.068 145.182 39.068C146.318 39.068 147.228 38.6737 148.062 36.742C148.603 35.4912 149.9 32.5417 151.543 28.8933C152.155 35.0182 154.201 39.068 157.659 39.068C160.011 39.068 161.993 37.4409 163.895 34.5558C163.838 37.423 165.179 39.0644 167.652 39.0644C172.746 39.0644 180.118 30.1262 180.118 27.1587C180.112 27.0962 180.082 27.039 180.036 26.9995C179.99 26.96 179.932 26.9412 179.873 26.9472ZM60.8203 25.7896C61.2638 25.7896 61.5326 26.0405 61.5326 26.6605C61.5326 28.3091 57.6919 32.083 54.6173 32.8141C55.7329 29.0976 59.335 25.7896 60.8203 25.7896Z" fill="#383C41"/>
</svg>
