<svg width="512" height="512" viewBox="0 0 512 512" fill="none" xmlns="http://www.w3.org/2000/svg">
<path d="M283.9 491.6L261.7 503.3C258.1 505.2 253.9 505.2 250.3 503.3L228.1 491.6C106.1 427.5 30.9 309.1 30.9 181V102.8C30.9 96.6 35.5 91.3 41.7 90.7C83.8 86.3 117.2 56.1 122.5 18.1C123.4 12 128.5 7.40002 134.6 7.40002H377.4C383.6 7.40002 388.7 12 389.5 18.1C394.8 56.2 428.3 86.3 470.3 90.7C476.5 91.3 481.1 96.6 481.1 102.8V181C481.1 309.1 405.9 427.5 283.9 491.6Z" fill="#E1E6E9"/>
<path d="M470.3 90.6C428.2 86.2 394.8 56 389.5 18C388.6 11.9 383.5 7.30005 377.4 7.30005H360.9C363.3 60.1 400.9 97.6 441.6 101.9C447.8 102.5 452.4 107.8 452.4 114V192.2C452.4 320.3 377.2 438.6 255.2 502.8L252.6 504.1C255.6 505 258.9 504.7 261.7 503.2L283.9 491.5C405.9 427.4 481.1 309 481.1 180.9V102.7C481.1 96.6 476.5 91.3 470.3 90.6Z" fill="#CBCBCB"/>
<path d="M247.8 460.2C192.5 431.1 146.4 389.3 114.7 339.3C83.3 289.9 66.7 233.7 66.7 176.9V132.5C66.7 126.1 70.6 120.3 76.6 117.9C109.5 104.9 136.1 80.4 150.6 49.9C153.2 44.5 158.7 41 164.7 41H347.3C353.3 41 358.9 44.4 361.4 49.9C375.9 80.4 402.5 104.9 435.4 117.9C441.4 120.3 445.3 126.1 445.3 132.5V176.9C445.3 233.7 428.7 289.9 397.3 339.3C365.6 389.3 319.5 431.1 264.2 460.2L263.3 460.7C258.7 463.1 253.2 463.1 248.7 460.7L247.8 460.2Z" fill="#4AD194"/>
<path d="M435.4 117.9C435.1 117.8 434.9 117.7 434.6 117.6C434.2 117.4 433.7 117.3 433.3 117.1C432.6 116.8 431.8 116.5 431.1 116.2C430.7 116 430.3 115.8 429.9 115.7C429.1 115.4 428.4 115 427.6 114.7C427.3 114.5 426.9 114.4 426.6 114.2C425.5 113.7 424.4 113.1 423.3 112.6C423.2 112.6 423.1 112.5 423.1 112.5C422.1 112 421.1 111.5 420.1 110.9C419.8 110.7 419.4 110.5 419.1 110.3C418.4 109.9 417.7 109.5 417 109.1C416.6 108.9 416.2 108.6 415.8 108.4C415.1 108 414.5 107.6 413.8 107.2C413.4 107 413 106.7 412.7 106.5C412 106.1 411.3 105.6 410.6 105.2C410.3 105 409.9 104.8 409.6 104.6C408.7 104 407.7 103.4 406.8 102.7C406.7 102.7 406.7 102.6 406.6 102.6C405.6 101.9 404.6 101.2 403.7 100.5C403.4 100.3 403.1 100.1 402.8 99.8C402.1 99.3 401.5 98.8 400.8 98.3C400.4 98 400.1 97.8 399.8 97.5C399.2 97 398.6 96.6 398 96.1C397.7 95.8 397.3 95.5 397 95.3C396.4 94.8 395.8 94.3 395.2 93.8C394.9 93.5 394.6 93.3 394.3 93C393.6 92.4 392.8 91.7 392.1 91C392 90.9 391.8 90.7 391.6 90.6C390.7 89.8 389.9 89 389 88.2C388.8 88 388.5 87.7 388.3 87.5C387.7 86.9 387.1 86.3 386.5 85.7C386.2 85.4 385.9 85.1 385.6 84.8C385.1 84.3 384.5 83.7 384 83.1C383.7 82.8 383.4 82.4 383.1 82.1C382.6 81.5 382.1 81 381.6 80.4C381.3 80.1 381 79.8 380.8 79.5C380.2 78.8 379.6 78.1 379 77.4C378.8 77.2 378.7 77 378.5 76.8C377.8 75.9 377 75 376.3 74.1C376.1 73.9 375.9 73.6 375.8 73.4C375.3 72.7 374.7 72 374.2 71.3C374 71 373.7 70.6 373.5 70.3C373.1 69.7 372.6 69.1 372.2 68.4C371.9 68 371.7 67.7 371.4 67.3C371 66.7 370.6 66 370.1 65.4C369.9 65 369.6 64.7 369.4 64.3C368.9 63.6 368.5 62.9 368 62.1C367.8 61.8 367.7 61.6 367.5 61.3C366.9 60.3 366.3 59.3 365.7 58.3C365.6 58.1 365.5 57.9 365.3 57.7C364.8 56.9 364.4 56.1 364 55.3C363.8 54.9 363.6 54.6 363.4 54.2C363 53.5 362.7 52.8 362.3 52.1C362.1 51.7 361.9 51.3 361.7 50.9C361.6 50.6 361.4 50.3 361.3 50C358.7 44.6 353.2 41.1 347.2 41.1H256V462.5C258.5 462.5 261 461.9 263.3 460.7L264.2 460.2C319.5 431.1 365.6 389.3 397.3 339.3C428.7 289.9 445.3 233.7 445.3 176.9V132.5C445.3 126.1 441.4 120.3 435.4 117.9Z" fill="#35B79E"/>
<path d="M435.4 117.9C435.1 117.8 434.9 117.7 434.6 117.6C434.2 117.4 433.7 117.3 433.3 117.1C432.6 116.8 431.8 116.5 431.1 116.2C430.7 116 430.3 115.8 429.9 115.7C429.1 115.4 428.4 115 427.6 114.7C427.3 114.5 426.9 114.4 426.6 114.2C425.5 113.7 424.4 113.1 423.3 112.6C423.2 112.6 423.1 112.5 423.1 112.5C422.1 112 421.1 111.5 420.1 110.9C419.8 110.7 419.4 110.5 419.1 110.3C418.4 109.9 417.7 109.5 417 109.1C416.6 108.9 416.2 108.6 415.8 108.4C415.1 108 414.5 107.6 413.8 107.2C413.4 107 413 106.7 412.7 106.5C412 106.1 411.3 105.6 410.6 105.2C410.3 105 409.9 104.8 409.6 104.6C408.7 104 407.7 103.4 406.8 102.7C406.7 102.7 406.7 102.6 406.6 102.6C405.6 101.9 404.6 101.2 403.7 100.5C403.4 100.3 403.1 100.1 402.8 99.8C402.1 99.3 401.5 98.8 400.8 98.3C400.4 98 400.1 97.8 399.8 97.5C399.2 97 398.6 96.6 398 96.1C397.7 95.8 397.3 95.5 397 95.3C396.4 94.8 395.8 94.3 395.2 93.8C394.9 93.5 394.6 93.3 394.3 93C393.6 92.4 392.8 91.7 392.1 91C392 90.9 391.8 90.7 391.6 90.6C390.7 89.8 389.9 89 389 88.2C388.8 88 388.5 87.7 388.3 87.5C387.7 86.9 387.1 86.3 386.5 85.7C386.2 85.4 385.9 85.1 385.6 84.8C385.1 84.3 384.5 83.7 384 83.1C383.7 82.8 383.4 82.4 383.1 82.1C382.6 81.5 382.1 81 381.6 80.4C381.3 80.1 381 79.8 380.8 79.5C380.2 78.8 379.6 78.1 379 77.4C378.8 77.2 378.7 77 378.5 76.8C377.8 75.9 377 75 376.3 74.1C376.1 73.9 375.9 73.6 375.8 73.4C375.3 72.7 374.7 72 374.2 71.3C374 71 373.7 70.6 373.5 70.3C373.1 69.7 372.6 69.1 372.2 68.4C371.9 68 371.7 67.7 371.4 67.3C371 66.7 370.6 66 370.1 65.4C369.9 65 369.6 64.7 369.4 64.3C368.9 63.6 368.5 62.9 368 62.1C367.8 61.8 367.7 61.6 367.5 61.3C366.9 60.3 366.3 59.3 365.7 58.3C365.6 58.1 365.5 57.9 365.3 57.7C364.8 56.9 364.4 56.1 364 55.3C363.8 54.9 363.6 54.6 363.4 54.2C363 53.5 362.7 52.8 362.3 52.1C362.1 51.7 361.9 51.3 361.7 50.9C361.6 50.6 361.4 50.3 361.3 50C358.7 44.6 353.2 41.1 347.2 41.1H322C325.3 45.2 328.9 50.7 333.1 57.9C333.3 58.2 333.4 58.5 333.5 58.8C333.7 59.2 333.9 59.6 334.1 60C334.4 60.7 334.8 61.4 335.2 62.1C335.4 62.5 335.6 62.8 335.8 63.2C336.2 64 336.7 64.8 337.1 65.6C337.2 65.8 337.3 66 337.5 66.2C338.1 67.2 338.7 68.2 339.3 69.2C339.5 69.5 339.6 69.7 339.8 70C340.2 70.7 340.7 71.5 341.2 72.2C341.4 72.6 341.7 72.9 341.9 73.3C342.3 73.9 342.7 74.6 343.2 75.2C343.5 75.6 343.7 75.9 344 76.3C344.4 76.9 344.9 77.5 345.3 78.2C345.5 78.5 345.8 78.9 346 79.2C346.5 79.9 347 80.6 347.6 81.3C347.8 81.5 348 81.8 348.1 82C348.8 82.9 349.6 83.8 350.3 84.7C350.5 84.9 350.6 85.1 350.8 85.3C351.4 86 352 86.7 352.6 87.4C352.9 87.7 353.1 88 353.4 88.3C353.9 88.9 354.4 89.5 354.9 90C355.2 90.3 355.5 90.7 355.8 91C356.3 91.6 356.8 92.1 357.4 92.7C357.7 93 358 93.3 358.3 93.6C358.9 94.2 359.5 94.8 360.1 95.4C360.3 95.6 360.6 95.9 360.8 96.1C361.6 96.9 362.5 97.7 363.4 98.5C363.5 98.6 363.7 98.8 363.9 98.9C364.6 99.6 365.4 100.2 366.1 100.9C366.4 101.2 366.7 101.4 367 101.7C367.6 102.2 368.2 102.7 368.8 103.2C369.1 103.5 369.5 103.8 369.8 104C370.4 104.5 371 105 371.6 105.4C371.9 105.7 372.3 105.9 372.6 106.2C373.3 106.7 373.9 107.2 374.6 107.7C374.9 107.9 375.2 108.1 375.5 108.4C376.5 109.1 377.4 109.8 378.4 110.5C378.5 110.5 378.5 110.6 378.6 110.6C379.5 111.2 380.4 111.9 381.4 112.5C381.7 112.7 382.1 112.9 382.4 113.1C383.1 113.5 383.8 114 384.5 114.4C384.9 114.6 385.3 114.9 385.6 115.1C386.3 115.5 386.9 115.9 387.6 116.3C388 116.5 388.4 116.8 388.8 117C389.5 117.4 390.2 117.8 390.9 118.2C391.2 118.4 391.6 118.6 391.9 118.8C392.9 119.3 393.9 119.8 394.9 120.4C395 120.4 395.1 120.5 395.1 120.5C396.2 121 397.3 121.6 398.4 122.1C398.7 122.3 399.1 122.4 399.4 122.6C400.2 123 400.9 123.3 401.7 123.6C402.1 123.8 402.5 124 402.9 124.1C403.6 124.4 404.3 124.7 405.1 125C405.5 125.2 406 125.4 406.4 125.5C406.7 125.6 406.9 125.7 407.2 125.8C413.2 128.2 417.1 134 417.1 140.4V184.8C417.1 241.6 400.5 297.8 369.1 347.2C341.2 391 302.4 432.9 256 462.1V462.5C258.5 462.5 261 461.9 263.3 460.7L264.2 460.2C319.5 431.1 365.6 389.3 397.3 339.3C428.7 289.9 445.3 233.7 445.3 176.9V132.5C445.3 126.1 441.4 120.3 435.4 117.9Z" fill="#1E9690"/>
<path d="M247.4 356.6L149.6 254C145.6 249.8 145.8 243.2 150 239.2L175.5 214.9C179.7 210.9 186.3 211.1 190.3 215.3L240.7 268.2C245.3 273 253.1 272.4 256.9 267L356.4 124.9C359.7 120.2 366.3 119 371 122.3L399.9 142.5C404.6 145.8 405.8 152.4 402.5 157.1L263.6 355.3C259.8 360.8 252 361.4 247.4 356.6Z" fill="#FFD278"/>
<path d="M469.9 266.3C466 265.2 462 267.4 460.8 271.3C434.2 362.1 370.2 438 280.5 485.1L258.3 496.8C256.9 497.5 255.2 497.6 253.7 496.8L231.5 485.1C142.4 438.2 78.5 362.8 51.6 272.6C50.4 268.7 46.4 266.5 42.5 267.7C38.6 268.9 36.4 272.9 37.6 276.8C51.4 323 74.6 365.7 106.5 403.7C138.8 442.1 178.6 473.9 224.7 498.1L246.9 509.8C249.7 511.3 252.9 512 256 512C259.1 512 262.2 511.3 265.1 509.8L287.3 498.1C333.6 473.8 373.5 441.8 405.9 403.1C438 364.8 461.1 321.9 474.8 275.4C476 271.5 473.8 267.4 469.9 266.3Z" fill="black"/>
<path d="M471.1 83.4C432.2 79.3 401.6 52 396.7 17C395.3 7.3 387 0 377.3 0H134.6C124.9 0 116.6 7.3 115.2 17C110.3 52 79.7 79.3 40.8 83.4C30.9 84.4 23.5 92.8 23.5 102.8V181C23.5 200.2 25.2 219.5 28.5 238.5C29.1 242.1 32.2 244.6 35.7 244.6C36.1 244.6 36.5 244.6 37 244.5C41 243.8 43.6 240 43 236C39.8 217.9 38.2 199.4 38.2 181.1V102.9C38.2 100.4 40.1 98.3 42.4 98.1C88 93.1 123.9 60.7 129.8 19C130.2 16.5 132.2 14.6 134.7 14.6H377.5C380 14.6 382 16.4 382.4 19C388.2 60.7 424.1 93.1 469.7 97.9C472.1 98.1 473.9 100.3 473.9 102.7V181C473.9 198.8 472.4 216.7 469.4 234.3C468.7 238.3 471.4 242.1 475.4 242.7C479.4 243.4 483.2 240.7 483.8 236.7C486.9 218.3 488.5 199.6 488.5 181V102.8C488.4 92.8 481 84.4 471.1 83.4Z" fill="black"/>
<path d="M244.4 466.7L245.3 467.2C248.7 469 252.3 469.8 256 469.8C259.7 469.8 263.4 468.9 266.7 467.2L267.6 466.7C324.1 437 371.1 394.3 403.5 343.2C435.6 292.6 452.6 235.1 452.6 176.9V132.5C452.6 123 446.9 114.6 438.1 111.1C406.7 98.7001 381.9 75.8 368 46.8C364.2 38.9 356.1 33.8 347.2 33.8H164.7C155.9 33.8 147.7 38.9 143.9 46.8C130.1 75.9 105.2 98.7001 73.8 111.1C65 114.6 59.3 123 59.3 132.5V176.9C59.3 235.1 76.3 292.6 108.4 343.2C140.9 394.3 187.9 437 244.4 466.7ZM74 176.9V132.5C74 129 76.1 126 79.3 124.7C114.1 110.9 141.8 85.5 157.2 53C158.6 50.1 161.5 48.3 164.7 48.3H347.3C350.5 48.3 353.5 50.1 354.8 53C370.2 85.4001 397.9 110.9 432.7 124.7C435.9 126 438 129 438 132.5V176.9C438 232.3 421.8 287.1 391.2 335.4C360.1 384.3 315.1 425.2 260.9 453.7L260 454.2C257.6 455.5 254.6 455.5 252.2 454.2L251.3 453.7C197.1 425.2 152 384.3 121 335.4C90.2 287.2 74 232.4 74 176.9Z" fill="black"/>
<path d="M255 367.1C255.4 367.1 255.9 367.1 256.4 367C261.7 366.6 266.6 363.8 269.7 359.5L408.6 161.2C411.3 157.3 412.4 152.6 411.6 147.9C410.8 143.2 408.2 139.1 404.3 136.4L375.4 116.2C371.5 113.5 366.8 112.4 362.1 113.2C357.4 114 353.3 116.6 350.6 120.5L251.1 262.6C250.3 263.7 249.3 263.9 248.7 263.9C248.1 263.9 247.1 263.9 246.2 262.9L195.8 210C189 202.9 177.7 202.6 170.6 209.4L145 233.8C141.6 237.1 139.6 241.5 139.5 246.3C139.4 251.1 141.1 255.6 144.4 259L242.2 361.6C245.5 365.2 250.1 367.1 255 367.1ZM154.1 246.6C154.1 246.1 154.3 245.2 155.1 244.4L180.6 220.1C181.2 219.5 182 219.2 182.8 219.2C183.6 219.2 184.5 219.5 185.1 220.2L235.5 273.1C239.2 277 244.4 279 249.7 278.6C255 278.2 259.9 275.4 263 271.1L362.5 129C363.5 127.6 365.5 127.2 366.9 128.2L395.8 148.4C396.7 149.1 397 150 397.1 150.4C397.2 150.9 397.2 151.8 396.6 152.8L257.6 351.1C256.8 352.2 255.8 352.4 255.2 352.4C254.6 352.4 253.6 352.4 252.7 351.4L154.9 248.8C154.1 248.1 154.1 247.1 154.1 246.6Z" fill="black"/>
</svg>
