<svg width="512" height="512" viewBox="0 0 512 512" fill="none" xmlns="http://www.w3.org/2000/svg">
<path d="M360 285.2C305.6 344.5 217.9 355.1 151.7 314.6C142.7 309.1 134.1 302.6 126 295.2C114.1 284.3 104.1 272 96.2 258.8C91.4 250.8 87.2 242.4 83.9 233.8C77.9 218.5 74.2 202.5 73 186.3C69.5 142 83.7 96.5 116.1 61.2C172.7 -0.39996 265.1 -9.39996 332 36.8C338.3 41.1 344.3 45.9 350.1 51.2C356.5 57.1 362.4 63.4 367.7 70C373.6 77.4 378.7 85.1 383.2 93.2C396.2 116.8 403.1 142.9 403.7 169.2C404.5 210.6 390.1 252.3 360 285.2Z" fill="#FFD422"/>
<path d="M408.5 475.6V477.6C408.5 477.9 408.5 478.1 408.5 478.4C408.1 492.7 396.3 504.2 381.9 504.2H107C92.4 504.2 80.4 492.2 80.4 477.6V475.6C80.4 461 92.4 449 107 449H381.9C396.5 448.9 408.5 460.9 408.5 475.6Z" fill="#CCA400"/>
<path d="M408.5 475.6V477.6C408.5 477.9 408.5 478.1 408.5 478.4H142C127.4 478.4 115.4 466.4 115.4 451.8V449.8C115.4 449.5 115.4 449.3 115.4 449H381.9C396.5 448.9 408.5 460.9 408.5 475.6Z" fill="#EEBF00"/>
<path d="M440.9 420.5V422.5C440.9 423.8 440.8 425.1 440.6 426.3C438.7 439.1 427.6 449.1 414.3 449.1H139.4C124.8 449.1 112.8 437.1 112.8 422.5V420.5C112.8 405.9 124.8 393.9 139.4 393.9H414.3C428.9 393.9 440.9 405.8 440.9 420.5Z" fill="#DDB200"/>
<path d="M440.9 420.5V422.5C440.9 423.8 440.8 425.1 440.6 426.3H171.4C156.8 426.3 144.8 414.3 144.8 399.7V397.7C144.8 396.4 144.9 395.1 145.1 393.9H414.4C428.9 393.9 440.9 405.8 440.9 420.5Z" fill="#FFCD00"/>
<path d="M408.5 365.4V367.4C408.5 368.2 408.5 368.9 408.4 369.7C407.2 383.3 395.8 394 381.9 394H107C92.4 394 80.4 382 80.4 367.4V365.4C80.4 350.8 92.4 338.8 107 338.8H381.9C396.5 338.8 408.5 350.7 408.5 365.4Z" fill="#EEBF00"/>
<path d="M408.5 365.4V367.4C408.5 368.2 408.5 368.9 408.4 369.7H138.9C124.3 369.7 112.3 357.7 112.3 343.1V341.1C112.3 340.3 112.3 339.6 112.4 338.8H381.8C396.5 338.8 408.5 350.7 408.5 365.4Z" fill="#FFD422"/>
<path d="M367.5 70L330.8 91.2L120.4 212.7L83.7 233.9C77.7 218.6 74 202.6 72.8 186.4L114.4 162.4L290.2 60.8L331.8 36.8C338.1 41.1 344.1 45.9001 349.9 51.2001C356.4 57.1001 362.2 63.4 367.5 70Z" fill="#EEBF00"/>
<path d="M403.5 169.2L360.1 194.3L195.1 289.6L151.7 314.7C142.7 309.2 134.1 302.7 126 295.3C114.1 284.4 104.1 272.1 96.2 258.9L132.3 238L346.9 114.1L383 93.2001C396 116.8 402.9 142.9 403.5 169.2Z" fill="#EEBF00"/>
<path d="M360.1 194.2C356.2 216.9 346 238.8 329.2 257C294.2 295.1 240.8 306.3 195 289.5C180.3 284.1 166.3 275.8 154.1 264.5C145.4 256.5 138.1 247.6 132.2 237.9C127.3 229.9 123.3 221.4 120.4 212.6C114.9 196.4 113 179.2 114.5 162.2C116.8 135.9 127.5 110.2 146.6 89.3C184 48.5 242.5 38.5 290.2 60.7C301.5 65.9 312.1 73 321.7 81.8C324.9 84.8 328 87.9 330.8 91.1C337.1 98.2 342.4 105.9 346.8 113.9C360.3 138.7 364.7 167.1 360.1 194.2Z" fill="#FFDA44"/>
<path d="M330.9 91.2L120.4 212.7C114.9 196.5 113 179.3 114.5 162.3L290.2 60.8C301.5 66 312.1 73.1001 321.7 81.9001C325 84.9001 328 88 330.9 91.2Z" fill="#FFE477"/>
<path d="M360.1 194.2L195.1 289.5C180.4 284.1 166.4 275.8 154.2 264.5C145.5 256.5 138.2 247.6 132.3 237.9L346.9 114C360.3 138.7 364.7 167.1 360.1 194.2Z" fill="#FFE477"/>
<path d="M237.9 271.8C242.1 271.8 245.5 268.4 245.5 264.2V245.6C264 242.1 278.1 225.8 278.1 206.3C278.1 184.3 260.2 166.4 238.2 166.3H237.7H237.6C224.2 166 213.3 154.6 213.3 140.7C213.3 127.2 224.3 116 237.7 115.9H237.9C251.5 116 262.5 127.1 262.5 140.7C262.5 144.9 265.9 148.3 270.1 148.3C274.3 148.3 277.7 144.9 277.7 140.7C277.7 121.4 263.8 105.1 245.5 101.5V82.3C245.5 78.1 242.1 74.7 237.9 74.7C233.7 74.7 230.3 78.1 230.3 82.3V101.5C212 105.2 198.1 121.4 198.1 140.7C198.1 162.7 215.7 181 237.2 181.5H237.8C237.9 181.5 238 181.5 238.1 181.5C251.8 181.5 262.9 192.6 262.9 206.3C262.9 220 251.8 231.1 238.1 231.1H237.7C224 231.1 212.9 220 212.9 206.3C212.9 202.1 209.5 198.7 205.3 198.7C201.1 198.7 197.7 202.1 197.7 206.3C197.7 225.8 211.8 242.1 230.3 245.6V264.2C230.3 268.4 233.7 271.8 237.9 271.8Z" fill="black"/>
<path d="M99 271C100.4 271 101.9 270.6 103.1 269.8C106.6 267.5 107.6 262.8 105.3 259.3C88.7 233.7 79.9 203.9 79.9 173.2C79.9 133.5 94.7 95.6 121.5 66.4C133 53.8 146.4 43.3 161.2 35.1C164.9 33.1 166.2 28.4 164.1 24.8C162.1 21.1 157.4 19.8 153.8 21.8C137.6 30.8 122.9 42.4 110.3 56.1C80.9 88.1 64.7 129.7 64.7 173.2C64.7 206.9 74.3 239.5 92.6 267.6C94.1 269.8 96.5 271 99 271Z" fill="black"/>
<path d="M187.7 23.4C203.9 18 220.8 15.2 238 15.2C277.7 15.2 315.6 30 344.8 56.8C367.3 77.5 383.3 104 390.9 133.4C391.8 136.8 394.9 139.1 398.3 139.1C398.9 139.1 399.6 139 400.2 138.8C404.3 137.8 406.7 133.6 405.7 129.5C397.3 97.2 379.9 68.1 355.2 45.5C323 16.2 281.5 0 238 0C219.2 0 200.7 3 182.9 8.9C178.9 10.2 176.8 14.5 178.1 18.5C179.5 22.5 183.8 24.7 187.7 23.4Z" fill="black"/>
<path d="M149 270.1C173.3 292.4 204.9 304.7 237.9 304.7C274.7 304.7 310 289.2 334.8 262.1C357.1 237.8 369.4 206.2 369.4 173.2C369.4 143.7 359.4 114.8 341.2 91.6999C338.6 88.3999 333.8 87.7999 330.5 90.4999C327.2 93.0999 326.6 97.8999 329.2 101.2C345.3 121.6 354.2 147.2 354.2 173.3C354.2 202.5 343.3 230.4 323.6 251.9C301.6 275.8 270.4 289.6 237.9 289.6C208.7 289.6 180.8 278.7 159.3 259C141.3 242.5 129.1 221.1 124.1 197.3C123.2 193.2 119.2 190.6 115.1 191.4C111 192.3 108.4 196.3 109.2 200.4C114.9 227.3 128.6 251.4 149 270.1Z" fill="black"/>
<path d="M319.7 79.8C322.3 76.5 321.7 71.6999 318.3 69.0999C295.5 51.3999 267 41.7 238 41.7C201.2 41.7 165.9 57.2 141.1 84.3C120 107.3 107.7 137.1 106.5 168.3C106.3 172.5 109.6 176 113.8 176.2C113.9 176.2 114 176.2 114.1 176.2C118.2 176.2 121.5 173 121.7 168.9C122.7 141.3 133.6 115 152.3 94.5999C174.3 70.6999 205.5 56.9 238 56.9C264 56.9 288.6 65.2999 309.1 81.1999C312.4 83.6999 317.2 83.1 319.7 79.8Z" fill="black"/>
<path d="M442 423.3C438 422 433.7 424.3 432.5 428.3C430 436.1 422.6 441.6 414.4 441.6H382H350.8H320.4H215.6H185.2H139.4C128.9 441.6 120.4 433.1 120.4 422.6V420.6C120.4 410.1 128.9 401.6 139.4 401.6H206.7H237H414.2C419.4 401.6 424.3 403.7 427.9 407.5C429.4 409.1 431.4 409.8 433.4 409.8C435.3 409.8 437.2 409.1 438.7 407.7C441.7 404.8 441.8 400 438.9 397C432.5 390.3 423.5 386.4 414.2 386.4H410.2C413.8 381 416 374.4 416 367.4V365.4C416 346.5 400.7 331.2 381.8 331.2H308.9C330.1 321.7 349.5 307.8 365.5 290.4C394.9 258.4 411.1 216.8 411.1 173.3C411.1 169.2 411 165.1 410.7 161C410.4 156.8 406.8 153.7 402.6 154C398.4 154.3 395.3 157.9 395.5 162.1C395.8 165.8 395.9 169.6 395.9 173.3C395.9 213 381.1 250.9 354.3 280.1C325.5 311.4 285 329.9 242.6 331.2H233.2C195.2 330.1 159.1 315.4 131 289.7C128.3 287.2 125.7 284.7 123.2 282.1C120.3 279.1 115.5 278.9 112.4 281.8C109.4 284.7 109.2 289.5 112.1 292.5C114.8 295.4 117.7 298.2 120.6 300.9C134.4 313.5 149.9 323.7 166.6 331.2H123.5C119.3 331.2 115.9 334.6 115.9 338.8C115.9 343 119.3 346.4 123.5 346.4H233H242.7H381.8C392.3 346.4 400.8 354.9 400.8 365.4V367.4C400.8 377.9 392.3 386.4 381.8 386.4H107C96.5 386.4 88 377.9 88 367.4V365.4C88 358.6 91.7 352.3 97.6 348.9C101.2 346.8 102.5 342.2 100.4 338.5C98.3 334.9 93.7 333.6 90 335.7C79.4 341.8 72.8 353.2 72.8 365.4V367.4C72.8 386.3 88.1 401.6 107 401.6H111C107.4 407 105.2 413.6 105.2 420.6V422.6C105.2 429.6 107.3 436.2 111 441.6H107C88.1 441.6 72.8 456.9 72.8 475.8V477.8C72.8 484.1 74.6 490.3 77.9 495.7C79.3 498 81.8 499.3 84.4 499.3C85.8 499.3 87.1 498.9 88.4 498.2C92 496 93.1 491.3 90.9 487.7C89.1 484.7 88.1 481.3 88.1 477.8V475.8C88.1 465.3 96.6 456.8 107.1 456.8H139.5H185.3H215.7H320.3H350.7H381.9C392.4 456.8 400.9 465.3 400.9 475.8V477.8C400.9 488.3 392.4 496.8 381.9 496.8H110.2C106 496.8 102.6 500.2 102.6 504.4C102.6 508.6 106 512 110.2 512H381.8C400.7 512 416 496.7 416 477.8V475.8C416 468.8 413.9 462.2 410.2 456.8H414.2C429.2 456.8 442.3 447.2 446.8 432.9C448.2 428.9 446 424.6 442 423.3Z" fill="black"/>
</svg>
