<svg width="512" height="512" viewBox="0 0 512 512" fill="none" xmlns="http://www.w3.org/2000/svg">
<path d="M280.3 111.2H93.9V458.9H280.3V111.2Z" fill="#FFB125"/>
<path d="M280.3 111.2H187.1V458.9H280.3V111.2Z" fill="#FF901D"/>
<path d="M202 283.9H142.2V189.3C142.2 186.6 144.4 184.3 147.2 184.3H197C199.7 184.3 202 186.5 202 189.3V283.9Z" fill="white"/>
<path d="M276.9 127.8H76.9C75 127.8 73.5 126.3 73.5 124.4V105.1C73.5 103.2 75 101.7 76.9 101.7H276.9C278.8 101.7 280.3 103.2 280.3 105.1V124.4C280.3 126.3 278.8 127.8 276.9 127.8Z" fill="#AF8A82"/>
<path d="M23.3 466.9H280.3V291H35.5C28.8 291 23.3 296.5 23.3 303.2V466.9Z" fill="#FF6D3A"/>
<path d="M280.3 291H187.1V466.9H280.3V291Z" fill="#ED5729"/>
<path d="M472.2 466.9H233V38.5L472.2 105.1V466.9Z" fill="#61AFF6"/>
<path d="M425.2 92V466.9H472.2V105.1L425.2 92Z" fill="#55A2F0"/>
<path d="M211.3 54.3L492.5 132.6C494.2 133.1 495.9 131.8 495.9 130V110.1C495.9 108.9 495.1 107.8 493.9 107.5L212.7 29.3C211 28.8 209.3 30.1 209.3 31.9V51.8C209.3 52.9 210.1 54 211.3 54.3Z" fill="#AF8A82"/>
<path d="M440.5 352.9H389.2C387 352.9 385.1 354.7 385.1 357V466.9H444.5V356.9C444.6 354.7 442.7 352.9 440.5 352.9Z" fill="#FFB125"/>
<path d="M348.2 414.7H267.8V359.8C267.8 357.6 269.6 355.7 271.9 355.7H344.2C346.4 355.7 348.3 357.5 348.3 359.8V414.7H348.2Z" fill="white"/>
<path d="M344.2 355.8H308V414.7H348.2V359.8C348.2 357.6 346.4 355.8 344.2 355.8Z" fill="#E6E6E6"/>
<path d="M423.8 271.9H281.4V180.4C281.4 176.2 284.8 172.8 289 172.8H416.3C420.5 172.8 423.9 176.2 423.9 180.4V271.9H423.8Z" fill="white"/>
<path d="M202 283.9H142.2V189.3C142.2 186.6 144.4 184.3 147.2 184.3H197C199.7 184.3 202 186.5 202 189.3V283.9Z" fill="white"/>
<path d="M423.8 271.9H281.4V180.4C281.4 176.2 284.8 172.8 289 172.8H416.3C420.5 172.8 423.9 176.2 423.9 180.4V271.9H423.8Z" fill="white"/>
<path d="M423.8 271.9H352.6V172.8H416.2C420.4 172.8 423.8 176.2 423.8 180.4V271.9V271.9Z" fill="#E6E6E6"/>
<path d="M472.2 266.4H93.9V290.9H472.2V266.4Z" fill="#AF8A82"/>
<path d="M472.2 266.4H93.9V290.9H472.2V266.4Z" fill="#AF8A82"/>
<path d="M472.2 266.4H425.2V290.9H472.2V266.4Z" fill="#927266"/>
<path d="M188.3 352.2H66.8C64.6 352.2 62.9 354 62.9 356.1V380.8H192.2V356.1C192.2 353.9 190.4 352.2 188.3 352.2Z" fill="#CCDFED"/>
<path d="M192.2 380.8H62.9V409.5H192.2V380.8Z" fill="#E6E6E6"/>
<path d="M192.2 409.5H62.9V438.2H192.2V409.5Z" fill="#CCDFED"/>
<path d="M192.2 438.2H62.9V466.9H192.2V438.2Z" fill="#E6E6E6"/>
<path d="M492.5 459.1H19.5C13 459.1 7.6 464.4 7.6 471C7.6 477.5 12.9 482.9 19.5 482.9H492.5C499 482.9 504.4 477.6 504.4 471C504.3 464.5 499 459.1 492.5 459.1Z" fill="#77DD00"/>
<path d="M504.3 469.8C504.3 469.5 504.2 469.2 504.2 468.9C504.2 468.8 504.2 468.8 504.2 468.7C503.1 463.3 498.3 459.1 492.6 459.1H457.4V462C457.4 468.6 452 474 445.4 474H19.5C14.5 474 10.3 470.9 8.5 466.6C8 468 7.6 469.5 7.6 471C7.6 477.5 12.9 482.9 19.5 482.9H457.3H492.5C499 482.9 504.4 477.6 504.4 471C504.3 470.6 504.3 470.2 504.3 469.8Z" fill="#6EC102"/>
<path d="M495.7 109.3C495.4 108.5 494.8 107.9 493.9 107.6L448.7 95V120.5L492.5 132.7C493.9 133.1 495.3 132.3 495.7 131V109.3Z" fill="#927266"/>
<path d="M426.7 426.5C430.9 426.5 434.4 423.1 434.4 418.8V408.6C434.4 404.4 431 400.9 426.7 400.9C422.4 400.9 419 404.3 419 408.6V418.8C419 423 422.4 426.5 426.7 426.5Z" fill="black"/>
<path d="M492.5 451.5H479.9V291V266.5V210.5C479.9 206.3 476.5 202.8 472.2 202.8C467.9 202.8 464.5 206.2 464.5 210.5V258.9H431.4V180.5C431.4 172.1 424.6 165.3 416.2 165.3H289C280.6 165.3 273.8 172.1 273.8 180.5V258.9H240.7V127.8V101.7V70.5L464.6 132.9V162.8C464.6 167 468 170.5 472.3 170.5C476.6 170.5 480 167.1 480 162.8V137.2L490.6 140.1C491.5 140.4 492.5 140.5 493.4 140.5C495.6 140.5 497.8 139.8 499.6 138.4C502.2 136.4 503.7 133.4 503.7 130.2V110.3C503.7 105.7 500.6 101.6 496.1 100.3L214.8 21.9C211.7 21 208.4 21.7 205.8 23.6C203.2 25.6 201.7 28.6 201.7 31.8V51.7C201.7 56.3 204.8 60.4 209.3 61.7L225.4 66.2V94.1H76.8C70.7 94.1 65.7 99.1 65.7 105.2V124.5C65.7 130.6 70.7 135.6 76.8 135.6H86.2V266.5V283.4H35.5C24.5 283.4 15.6 292.3 15.6 303.3V452C6.7 453.7 0 461.6 0 471C0 481.8 8.8 490.5 19.5 490.5H492.5C503.3 490.5 512 481.7 512 471C512 460.2 503.2 451.5 492.5 451.5ZM289.1 180.5H416.2V258.8H289.1V180.5ZM217 47.9V38.4L488.2 114V123.5L474.3 119.6L340.4 82.3L217 47.9ZM233 274.1H281.4H423.8H464.5V283.3H233H101.6V274.1H142.3H202H233ZM440.5 345.2H389.2C382.7 345.2 377.5 350.5 377.5 356.9V451.4H240.7V298.6H464.6V451.4H452.3V356.9C452.2 350.5 447 345.2 440.5 345.2ZM436.9 360.6V451.5H392.8V360.6H436.9ZM197 176.7H147.2C140.2 176.7 134.6 182.4 134.6 189.3V258.7H101.6V135.5H225.4V258.8H209.8V189.4C209.7 182.3 204 176.7 197 176.7ZM194.3 192V258.7H149.9V192H194.3ZM81.1 120.1V109.4H225.3V120.1H93.9H81.1ZM30.9 303.2C30.9 300.7 32.9 298.7 35.4 298.7H93.8H225.2V451.5H199.8V438.2V409.5V380.8V356.1C199.8 349.7 194.6 344.5 188.2 344.5H66.8C60.4 344.5 55.2 349.7 55.2 356.1V380.8V409.5V438.2V451.5H30.9V303.2ZM131.7 388.5H184.5V401.8H70.6V388.5H84C88.2 388.5 91.7 385.1 91.7 380.8C91.7 376.5 88.3 373.1 84 373.1H70.6V359.8H184.5V373.1H131.7C127.5 373.1 124 376.5 124 380.8C124 385.1 127.5 388.5 131.7 388.5ZM70.6 430.5V417.2H184.5V430.5H70.6ZM184.5 445.9V451.5H70.6V445.9H184.5ZM492.5 475.2H19.5C17.2 475.2 15.3 473.3 15.3 471C15.3 468.7 17.2 466.8 19.5 466.8H23.2H62.9H192.2H233H385.1H444.5H472.2H492.5C494.8 466.8 496.7 468.7 496.7 471C496.7 473.3 494.8 475.2 492.5 475.2Z" fill="black"/>
<path d="M360.1 407H355.9V359.8C355.9 353.3 350.6 348.1 344.2 348.1H271.9C265.4 348.1 260.2 353.4 260.2 359.8V407H256C251.8 407 248.3 410.4 248.3 414.7C248.3 419 251.7 422.4 256 422.4H267.8H348.2H360.1C364.3 422.4 367.8 419 367.8 414.7C367.8 410.4 364.3 407 360.1 407ZM340.5 407H275.4V363.4H340.5V407Z" fill="black"/>
</svg>
