<svg width="40" height="29" viewBox="0 0 40 29" fill="none" xmlns="http://www.w3.org/2000/svg">
<path d="M38.2119 21.5605L35.792 20.8691C35.6875 20.8393 35.6145 20.7426 35.6145 20.6339V19.8262C35.8114 19.6898 35.9992 19.5371 36.1748 19.3667C37.0255 18.5411 37.4941 17.4337 37.4941 16.2484V15.1338L37.728 14.6659C37.9848 14.1522 38.1205 13.5771 38.1205 13.0029V9.98336C38.1205 9.65977 37.8582 9.39742 37.5346 9.39742H31.8961C29.8458 9.39742 28.1777 11.0655 28.1777 13.1159V13.1508C28.1777 13.6283 28.2905 14.1065 28.5041 14.5335L28.8041 15.1337V16.0907C28.8041 17.6074 29.5516 18.9683 30.6837 19.7872L30.6838 20.6338C30.6838 20.7643 30.6838 20.8184 30.2 20.9566L29.0192 21.294L25.6035 20.052C25.6158 19.8908 25.5614 19.7269 25.4438 19.6034L24.3523 18.4566V16.5316C24.4677 16.4366 24.5815 16.3389 24.6917 16.2356C26.0687 14.945 26.8584 13.1228 26.8584 11.2363V9.69899C27.2741 8.79422 27.4848 7.8368 27.4848 6.85078V0.585938C27.4848 0.262344 27.2225 0 26.8989 0H18.1279C15.0412 0 12.53 2.51125 12.53 5.59789V6.85094C12.53 7.83695 12.7407 8.79438 13.1565 9.69914V11.0219C13.1565 13.2122 14.1304 15.1855 15.6625 16.4864V18.4567L14.571 19.6034C14.4534 19.727 14.3991 19.8909 14.4113 20.052L10.8063 21.3629C10.545 21.4579 10.3023 21.5866 10.0819 21.7424L9.51578 21.4594C11.2009 20.7259 11.7348 19.6942 11.7604 19.643C11.8429 19.478 11.8429 19.2838 11.7604 19.1189C11.338 18.2741 11.2868 16.7255 11.2457 15.4813C11.232 15.0671 11.2191 14.6758 11.1943 14.3273C10.9945 11.5169 8.85797 9.39742 6.22437 9.39742C3.59078 9.39742 1.45414 11.5168 1.25445 14.3273C1.22969 14.6759 1.21672 15.0672 1.20305 15.4815C1.16195 16.7256 1.1107 18.274 0.688359 19.1188C0.605859 19.2838 0.605859 19.478 0.688359 19.6429C0.713984 19.6941 1.24672 20.7237 2.93523 21.458L1.36281 22.2442C0.522187 22.6648 0 23.5098 0 24.4495V28.7784C0 29.102 0.262344 29.3643 0.585938 29.3643C0.909531 29.3643 1.17188 29.102 1.17188 28.7784V24.4495C1.17188 23.9564 1.44586 23.513 1.88688 23.2925L3.84492 22.3135L4.52602 22.9608C5.00227 23.4134 5.6132 23.6395 6.22437 23.6395C6.83539 23.6395 7.44664 23.4132 7.92273 22.9608L8.60375 22.3136L9.24219 22.6328C8.94156 23.1138 8.77094 23.6779 8.77094 24.2688V28.7785C8.77094 29.1021 9.03328 29.3645 9.35687 29.3645C9.68047 29.3645 9.94281 29.1021 9.94281 28.7785V24.2688C9.94281 23.4644 10.4507 22.7392 11.2067 22.4643L15.0077 21.0822L16.5899 23.4557C16.7922 23.7591 17.1163 23.9538 17.4792 23.9897C17.5197 23.9937 17.5599 23.9956 17.6001 23.9956C17.9202 23.9956 18.2269 23.8696 18.4561 23.6405L19.4214 22.6752V28.7786C19.4214 29.1022 19.6838 29.3645 20.0073 29.3645C20.3309 29.3645 20.5933 29.1022 20.5933 28.7786V22.6752L21.5586 23.6405C21.7877 23.8697 22.0944 23.9957 22.4146 23.9957C22.4547 23.9957 22.495 23.9938 22.5354 23.9898C22.8984 23.9538 23.2225 23.7592 23.4248 23.4558L25.0071 21.0823L28.808 22.4645C29.5639 22.7394 30.0719 23.4645 30.0719 24.2689V28.7787C30.0719 29.1023 30.3342 29.3646 30.6578 29.3646C30.9814 29.3646 31.2438 29.1023 31.2438 28.7787V24.2689C31.2438 23.4542 30.9201 22.6902 30.3771 22.1251L30.5219 22.0838C30.6679 22.042 30.8671 21.9849 31.0671 21.8869L32.5631 23.3829V28.7787C32.5631 29.1023 32.8255 29.3646 33.1491 29.3646C33.4727 29.3646 33.735 29.1023 33.735 28.7787V23.3829L35.2206 21.8973C35.2996 21.9374 35.3826 21.9713 35.4699 21.9963L37.8899 22.6877C38.4423 22.8455 38.8281 23.357 38.8281 23.9315V28.7787C38.8281 29.1023 39.0905 29.3646 39.4141 29.3646C39.7377 29.3646 40 29.1023 40 28.7787V23.9315C40 22.8363 39.2647 21.8614 38.2119 21.5605ZM3.75898 20.5256C2.66297 20.1313 2.1132 19.6055 1.87852 19.3184C2.03852 18.9001 2.14227 18.421 2.2125 17.9153C2.53562 18.6901 3.0768 19.3515 3.75898 19.8234V20.5256ZM7.11563 22.1114C6.61586 22.5863 5.83297 22.5862 5.33336 22.1113L4.78844 21.5935C4.88039 21.4213 4.93094 21.2259 4.93094 21.0213V20.3968C5.33969 20.5245 5.77422 20.5934 6.22453 20.5934C6.6743 20.5934 7.10859 20.5242 7.51805 20.3972L7.51797 21.0213C7.51797 21.2259 7.56844 21.4213 7.66047 21.5937L7.11563 22.1114ZM6.22469 19.4216C4.475 19.4216 3.05164 17.9981 3.05164 16.2485C3.05164 15.9249 2.7893 15.6626 2.4657 15.6626C2.43289 15.6626 2.40086 15.6659 2.36953 15.6712C2.37125 15.6208 2.37289 15.5703 2.37461 15.5204C2.38766 15.1175 2.40023 14.737 2.42344 14.4105C2.49828 13.3577 2.91898 12.3876 3.60805 11.6787C4.30328 10.9634 5.2325 10.5695 6.22453 10.5695C7.21656 10.5695 8.1457 10.9634 8.84102 11.6787C9.53008 12.3876 9.95078 13.3577 10.0256 14.4105C10.0487 14.7369 10.0614 15.1173 10.0747 15.5202C10.0759 15.5548 10.077 15.5898 10.0782 15.6247C9.4407 14.6425 8.45617 13.9187 7.18406 13.5099C6.00883 13.1323 4.99805 13.1557 4.95539 13.1568C4.80195 13.1611 4.65633 13.2253 4.54984 13.3358L3.49266 14.4322C3.26805 14.6652 3.27477 15.0361 3.50773 15.2607C3.7407 15.4853 4.11164 15.4785 4.33625 15.2456L5.21594 14.3334C5.97352 14.3704 8.41078 14.6538 9.35867 16.7411C9.12016 18.2792 7.79813 19.4216 6.22469 19.4216ZM8.68976 20.5276L8.68984 19.8288C9.37148 19.3595 9.91344 18.6993 10.2368 17.9187C10.307 18.4232 10.4107 18.9012 10.5704 19.3185C10.337 19.6029 9.78469 20.1334 8.68976 20.5276ZM14.3284 11.0218V9.56805C14.3284 9.47985 14.3084 9.39274 14.2701 9.31328C13.893 8.5325 13.7019 7.70406 13.7019 6.85094V5.59797C13.7019 3.15742 15.6874 1.17195 18.1279 1.17195H26.313V6.85102C26.313 7.70414 26.1218 8.53258 25.7448 9.31336C25.7064 9.39281 25.6865 9.47992 25.6865 9.56813V11.2365C25.6865 12.8233 25.0486 14.2951 23.8903 15.3808C23.7457 15.5163 23.5956 15.6433 23.4405 15.7616C23.437 15.764 23.4338 15.7666 23.4304 15.769C22.3453 16.5928 21.0163 16.9932 19.6283 16.9033C16.6563 16.7109 14.3284 14.1274 14.3284 11.0218ZM17.6275 22.8117C17.6234 22.8158 17.614 22.8254 17.5948 22.8234C17.5758 22.8215 17.5683 22.8103 17.5651 22.8055L15.7428 20.072L16.3292 19.4559L19.0937 21.3455L17.6275 22.8117ZM20.0074 20.5505L16.8344 18.3816V17.2879C17.6554 17.7317 18.5747 18.0093 19.5524 18.0726C19.7069 18.0826 19.8604 18.0875 20.0134 18.0875C21.1338 18.0875 22.2121 17.8197 23.1805 17.3113V18.3816L20.0074 20.5505ZM22.4498 22.8056C22.4466 22.8105 22.4391 22.8216 22.42 22.8235C22.4009 22.8259 22.3915 22.8159 22.3873 22.8119L20.9212 21.3457L23.6856 19.456L24.2721 20.0722L22.4498 22.8056ZM33.1491 22.3113L31.8194 20.9816C31.8426 20.8763 31.8557 20.7609 31.8556 20.6336L31.8555 20.3863C32.2245 20.5074 32.6134 20.5793 33.0159 20.5913C33.061 20.5927 33.1058 20.5934 33.1508 20.5934C33.5955 20.5934 34.0295 20.5262 34.4427 20.398V20.6339C34.4427 20.7508 34.4573 20.8653 34.485 20.9754L33.1491 22.3113ZM35.3587 18.5258C34.7377 19.1284 33.9173 19.4467 33.0511 19.42C31.3555 19.3691 29.976 17.8756 29.976 16.0909V14.9955C29.976 14.9045 29.9548 14.8148 29.9141 14.7334L29.5522 14.0095C29.4196 13.7443 29.3495 13.4474 29.3495 13.1509V13.1159C29.3495 11.7117 30.492 10.5694 31.8961 10.5694H36.9487V13.003C36.9487 13.3963 36.8557 13.7901 36.6798 14.1419L36.3841 14.7334C36.3434 14.8148 36.3222 14.9045 36.3222 14.9955V16.2484C36.3222 17.1141 35.98 17.9228 35.3587 18.5258Z" fill="currentColor"/>
</svg>
