<svg width="38" height="40" viewBox="0 0 38 40" fill="none" xmlns="http://www.w3.org/2000/svg">
<path d="M16.6435 36.5586C15.1376 36.5586 13.62 36.2896 12.1627 35.7357L12.1559 35.7331C12.5207 37.3309 13.5919 38.7386 15.1594 39.4709C19.0908 41.0449 23.7944 38.9852 25.3194 34.9069L26.1495 32.7229C26.2105 32.5623 26.009 32.4324 25.8879 32.5542L25.6126 32.8313C23.1992 35.2602 19.9507 36.5586 16.6435 36.5586Z" fill="black"/>
<path d="M15.1595 39.4711H15.1594L15.159 39.4709L15.1595 39.4711Z" fill="black"/>
<path d="M23.945 31.1743C24.0403 31.0809 23.9849 30.9194 23.8522 30.9026C22.7585 30.7632 21.4368 30.391 19.8387 29.6314C16.7684 28.1178 12.9537 29.8493 12.1731 33.2246L12.998 33.5381C16.7893 34.9794 21.0862 34.0514 23.945 31.1743Z" fill="black"/>
<path d="M12.1731 33.2248L10.3036 32.5142C9.69666 32.2834 9.01782 32.5885 8.78725 33.1954C8.55659 33.8022 8.86155 34.4811 9.46843 34.7117L12.1559 35.7333C11.9712 34.9247 11.9679 34.0679 12.1731 33.2248Z" fill="black"/>
<path d="M22.0988 0.552246L22.0993 0.552402L22.0988 0.552246Z" fill="black"/>
<path d="M22.0988 0.552406C17.9956 -1.0903 13.0863 1.05934 11.4947 5.31597L10.5589 7.77815C10.4978 7.93872 10.6993 8.06866 10.8205 7.94685L11.2263 7.53844C14.8522 3.88931 20.3023 2.71236 25.1109 4.54001L25.266 4.59893C24.9183 2.87145 23.7823 1.33883 22.0988 0.552406Z" fill="black"/>
<path d="M12.8939 9.19523C12.7791 9.28305 12.8169 9.46909 12.9667 9.48753C14.12 9.62716 15.5191 10.0156 17.2167 10.8227C20.4124 12.3979 24.385 10.6027 25.2104 7.09254L24.2757 6.73727C20.3337 5.23919 15.8662 6.20384 12.8939 9.19523Z" fill="black"/>
<path d="M27.9013 5.60036L25.266 4.59875C25.4285 5.40628 25.4174 6.25623 25.2104 7.09266L27.0661 7.79798C28.546 8.29375 29.3363 6.21161 27.9013 5.60036Z" fill="black"/>
<path d="M4.09759 14.9904H1.51055C-0.0490236 15.0525 -0.0478516 17.2797 1.51055 17.3413H2.92213V25.1642C2.98425 26.7238 5.21148 26.7226 5.27305 25.1642V16.1658C5.27305 15.5167 4.74674 14.9904 4.09759 14.9904Z" fill="black"/>
<path d="M12.2553 26.3398C13.5789 26.3398 14.8054 25.7077 15.7087 24.56C17.4295 22.4591 17.4296 18.7784 15.7086 16.6776C13.9198 14.3165 10.5908 14.3164 8.80192 16.6776C7.08116 18.7784 7.08116 22.4592 8.80192 24.56C9.70524 25.7077 10.9317 26.3398 12.2553 26.3398ZM12.2553 17.2486C13.5574 17.2486 14.6574 18.7919 14.6574 20.6188C14.6574 22.4456 13.5574 23.9889 12.2553 23.9889C10.9533 23.9889 9.8533 22.4456 9.8533 20.6188C9.8533 18.7919 10.9533 17.2486 12.2553 17.2486Z" fill="black"/>
<path d="M23.7876 14.8976C22.464 14.8976 21.2375 15.5297 20.3342 16.6774C18.6134 18.7782 18.6135 22.459 20.3342 24.5598C22.1234 26.921 25.4519 26.9208 27.241 24.5598C28.9617 22.459 28.9617 18.7782 27.241 16.6774C26.3376 15.5297 25.1112 14.8976 23.7876 14.8976ZM23.7876 23.9887C22.4854 23.9887 21.3855 22.4454 21.3855 20.6186C21.3855 18.7917 22.4854 17.2484 23.7876 17.2484C25.0897 17.2484 26.1897 18.7917 26.1897 20.6186C26.1897 22.4454 25.0897 23.9887 23.7876 23.9887Z" fill="black"/>
<path d="M36.4279 15.0559C35.8421 14.7756 35.1404 15.0231 34.8602 15.6087L30.5008 24.7181C30.2206 25.3036 30.4681 26.0056 31.0536 26.2858C31.6261 26.5636 32.3403 26.3245 32.6213 25.733L36.9807 16.6236C37.261 16.038 37.0135 15.3361 36.4279 15.0559Z" fill="black"/>
<path d="M32.1818 16.1163C32.1818 15.467 31.6555 14.9408 31.0063 14.9408C29.4472 15.0027 29.4475 17.23 31.0063 17.2917C31.6555 17.2917 32.1818 16.7654 32.1818 16.1163Z" fill="black"/>
<path d="M36.4833 24.0502C35.8341 24.0502 35.3078 24.5764 35.3078 25.2256C35.3697 26.7848 37.597 26.7844 37.6588 25.2256C37.6588 24.5764 37.1324 24.0502 36.4833 24.0502Z" fill="black"/>
</svg>
