<svg width="38" height="40" viewBox="0 0 38 40" fill="none" xmlns="http://www.w3.org/2000/svg">
<path d="M33.6667 28H32.6227C31.8905 28.0007 31.1685 28.1711 30.5133 28.498C29.5601 28.9718 28.4399 28.9718 27.4867 28.498C27.1064 28.3114 26.7028 28.1768 26.2867 28.098L27.586 18H29C29.3682 18 29.6667 17.7015 29.6667 17.3333V14.6667C29.6667 14.2985 29.3682 14 29 14H26.3333V12C26.3333 11.8232 26.263 11.6537 26.138 11.5287L23 8.39067V6.32L24.0107 5.512L25.7367 8.96467L26.93 8.36867L25.0753 4.66L25.9 4H28.3333C28.7015 4 29 3.7015 29 3.33333V0.666667C29 0.2985 28.7015 0 28.3333 0H21.6667C18.3547 0.004 15.6707 2.688 15.6667 6C15.6667 6.36817 15.9652 6.66667 16.3333 6.66667H17.6667V8.39067L15.862 10.1953C15.737 10.3203 15.6667 10.4898 15.6667 10.6667V14H14.3333V8.66667C14.3323 8.58408 14.3158 8.5025 14.2847 8.426C14.2725 8.40008 14.2587 8.37492 14.2433 8.35067C14.2273 8.31575 14.2086 8.28208 14.1873 8.25L11.6667 5.1V0.666667C11.6667 0.2985 11.3682 0 11 0H6.99999C6.63183 0 6.33333 0.2985 6.33333 0.666667V5.1L3.81266 8.25C3.79141 8.28208 3.77266 8.31575 3.75666 8.35067C3.74133 8.37492 3.72749 8.40008 3.71533 8.426C3.68416 8.5025 3.66766 8.58408 3.66666 8.66667V14H0.999995C0.631828 14 0.333328 14.2985 0.333328 14.6667V17.3333C0.333328 17.7015 0.631828 18 0.999995 18H2.41399L5.00533 38.0853C5.04824 38.4178 5.33141 38.6668 5.66666 38.6667H21.36C22.1161 39.5142 23.1976 39.9992 24.3333 40H25.3773C26.1095 39.9993 26.8315 39.8289 27.4867 39.502C28.4399 39.0282 29.5601 39.0282 30.5133 39.502C31.1685 39.8289 31.8905 39.9993 32.6227 40H33.6667C35.8749 39.9978 37.6645 38.2083 37.6667 36V32C37.6645 29.7917 35.8749 28.0022 33.6667 28ZM26.3333 1.33333H27.6667V2.66667H26.3333V1.33333ZM28.3333 15.3333V16.6667H19V15.3333H28.3333ZM17.0473 5.33333C17.3817 3.03875 19.3478 1.33625 21.6667 1.33333H25V3.01333L22.0993 5.33333H17.0473ZM21.6667 6.66667V8H19V6.66667H21.6667ZM17 10.9427L18.6093 9.33333H22.0573L25 12.276V14H17V10.9427ZM16.3333 15.3333H17.6667V20C17.6652 20.2539 17.8082 20.4865 18.0353 20.6L22.0353 22.6C22.2304 22.6962 22.3782 22.8671 22.4453 23.074C22.5144 23.2961 22.4904 23.5367 22.3787 23.7407C22.1868 24.1256 21.7193 24.2821 21.3344 24.0902C21.3338 24.0899 21.3332 24.0896 21.3327 24.0893L18.626 22.736C18.2952 22.5743 17.896 22.7115 17.7343 23.0423C17.6901 23.133 17.6669 23.2325 17.6667 23.3333V30C17.6667 30.7364 17.0697 31.3333 16.3333 31.3333V25.3333H15V31.3333H13.6667V25.3333H12.3333V31.3333H11V25.3333H9.66666V31.3333C8.93024 31.3333 8.33333 30.7364 8.33333 30V15.3333H16.3333ZM7.66666 1.33333H10.3333V4.66667H7.66666V1.33333ZM7.31999 6H10.68L12.28 8H5.71999L7.31999 6ZM4.99999 9.33333H13V14H4.99999V9.33333ZM1.66666 16.6667V15.3333H6.99999V16.6667H1.66666ZM20.3333 32V36C20.3345 36.4545 20.4134 36.9054 20.5667 37.3333H6.25266L3.75799 18H6.99999V30C6.99999 31.4728 8.19391 32.6667 9.66666 32.6667H16.3333C17.8061 32.6667 19 31.4728 19 30V24.412L20.7413 25.2827C21.7936 25.802 23.0676 25.37 23.5869 24.3177C23.5891 24.3134 23.5912 24.309 23.5933 24.3047C23.8516 23.7928 23.8955 23.199 23.7153 22.6547C23.5377 22.1101 23.1485 21.6599 22.6353 21.4053L19 19.588V18H26.242L24.9513 28H24.3333C22.1251 28.0022 20.3355 29.7917 20.3333 32ZM36.3333 36C36.3333 37.4728 35.1394 38.6667 33.6667 38.6667H32.6227C32.0976 38.6659 31.5798 38.5437 31.11 38.3093C29.7808 37.6489 28.2192 37.6489 26.89 38.3093C26.4202 38.5437 25.9024 38.6659 25.3773 38.6667H24.3333C22.8606 38.6667 21.6667 37.4728 21.6667 36V34.9733C22.3977 35.6339 23.348 35.9998 24.3333 36H25.3773C26.1095 35.9993 26.8315 35.8289 27.4867 35.502C28.4399 35.0282 29.5601 35.0282 30.5133 35.502C31.1685 35.8289 31.8905 35.9993 32.6227 36H33.6667C34.652 35.9998 35.6022 35.6339 36.3333 34.9733V36ZM33.6667 34.6667H32.6227C32.0976 34.6659 31.5798 34.5437 31.11 34.3093C29.7808 33.6489 28.2192 33.6489 26.89 34.3093C26.4202 34.5437 25.9024 34.6659 25.3773 34.6667H24.3333C22.8606 34.6667 21.6667 33.4728 21.6667 32C21.6667 30.5273 22.8606 29.3333 24.3333 29.3333H25.3773C25.9024 29.3341 26.4202 29.4563 26.89 29.6907C28.2192 30.3507 29.7807 30.3507 31.11 29.6907C31.5798 29.4563 32.0976 29.3341 32.6227 29.3333H33.6667C35.1394 29.3333 36.3333 30.5273 36.3333 32C36.3333 33.4728 35.1394 34.6667 33.6667 34.6667Z" fill="black"/>
</svg>
