<svg width="40" height="40" viewBox="0 0 40 40" fill="none" xmlns="http://www.w3.org/2000/svg">
<g clip-path="url(#clip0)">
<path d="M20 9.375C19.5687 9.375 19.2188 9.725 19.2188 10.1562C19.2188 10.5875 19.5687 10.9375 20 10.9375C20.4312 10.9375 20.7812 10.5875 20.7812 10.1562C20.7812 9.725 20.4312 9.375 20 9.375Z" fill="black"/>
<path d="M0.385203 18.6421C0.643797 18.7943 0.966453 18.7848 1.21567 18.618C3.74317 16.9274 7.54559 16.9034 10.1108 18.5473C10.2493 18.6723 10.4323 18.7491 10.6336 18.7491C10.6365 18.7491 10.6393 18.7487 10.6421 18.7487C10.7985 18.7518 10.9556 18.709 11.0915 18.618C13.5514 16.9725 16.698 16.9009 19.2188 18.4006C19.2188 19.183 19.2188 34.7567 19.2188 36.0938C19.2188 38.2519 20.967 40 23.125 40C25.279 40 27.0313 38.2477 27.0313 36.0938V32.9688C27.0313 32.5373 26.6815 32.1875 26.25 32.1875C25.8186 32.1875 25.4688 32.5373 25.4688 32.9688V36.0938C25.4688 37.3861 24.4174 38.4375 23.125 38.4375C21.8304 38.4375 20.7813 37.3884 20.7813 36.0938C20.7813 34.7463 20.7813 19.1756 20.7813 18.4006C23.302 16.9008 26.4487 16.9726 28.9086 18.6181C29.0402 18.7062 29.1916 18.75 29.343 18.75C29.3483 18.75 29.3536 18.749 29.3589 18.7488C29.3615 18.7488 29.3639 18.7492 29.3665 18.7492C29.5677 18.7492 29.7506 18.6724 29.8891 18.5474C32.4543 16.9035 36.2568 16.9276 38.7845 18.618C39.0338 18.7848 39.3566 18.7941 39.615 18.6421C39.8735 18.4901 40.0221 18.2034 39.9975 17.9045C39.173 7.90812 30.2792 0 20.0001 0C9.72661 0 0.827781 7.90203 0.00278104 17.9045C-0.0218283 18.2034 0.126765 18.4901 0.385203 18.6421ZM20.7814 16.633V13.2812C20.7814 12.8498 20.4315 12.5 20.0001 12.5C19.5687 12.5 19.2189 12.8498 19.2189 13.2812V16.633C16.7633 15.4798 13.933 15.4738 11.4737 16.6159C11.9783 8.71414 15.2609 2.38188 19.2189 1.63687V7.03125C19.2189 7.46266 19.5687 7.8125 20.0001 7.8125C20.4315 7.8125 20.7814 7.46266 20.7814 7.03125V1.63687C24.7393 2.38188 28.022 8.71422 28.5265 16.6159C26.0672 15.4738 23.2371 15.4799 20.7814 16.633ZM38.2516 16.563C37.0471 16.0477 35.6875 15.7712 34.2968 15.7691C34.2916 15.7691 34.2866 15.7691 34.2815 15.7691C32.8018 15.7691 31.3566 16.081 30.0952 16.6601C29.8056 11.7539 28.3064 5.64953 24.8505 2.22344C31.6266 4.09414 37.0593 9.73664 38.2516 16.563ZM15.1497 2.22336C11.6932 5.65016 10.1947 11.7531 9.90497 16.66C7.38247 15.5021 4.28888 15.4763 1.74856 16.563C2.94098 9.73664 8.37372 4.09414 15.1497 2.22336Z" fill="black"/>
<path d="M8.67188 33.6945C8.33805 33.6945 7.97774 33.4845 7.65735 33.1035C7.37969 32.7731 6.8868 32.7306 6.55665 33.0082C6.22634 33.2859 6.18376 33.7787 6.46141 34.1089C6.87907 34.6058 7.37016 34.952 7.89063 35.1265V36.0382C7.89063 36.4696 8.2404 36.8195 8.67188 36.8195C9.10336 36.8195 9.45313 36.4696 9.45313 36.0382V35.1226C10.3624 34.8001 11.0156 33.9317 11.0156 32.9132C11.0156 31.6209 9.96422 30.5695 8.67188 30.5695C8.2411 30.5695 7.89063 30.219 7.89063 29.7882C7.89063 29.3574 8.2411 29.007 8.67188 29.007C8.9486 29.007 9.24086 29.1482 9.51688 29.4153C9.82696 29.7154 10.3216 29.7072 10.6216 29.3972C10.9216 29.087 10.9134 28.5925 10.6034 28.2924C10.2069 27.9088 9.81016 27.6918 9.45305 27.5733V26.6632C9.45305 26.2318 9.10328 25.882 8.6718 25.882C8.24032 25.882 7.89055 26.2318 7.89055 26.6632V27.5788C6.98126 27.9013 6.32805 28.7697 6.32805 29.7882C6.32805 31.0806 7.37946 32.132 8.6718 32.132C9.10258 32.132 9.45305 32.4824 9.45305 32.9132C9.45305 33.344 9.10266 33.6945 8.67188 33.6945Z" fill="black"/>
<path d="M8.59375 40C13.3323 40 17.1875 36.1448 17.1875 31.4062C17.1875 26.6677 13.3323 22.8125 8.59375 22.8125C3.85516 22.8125 0 26.6677 0 31.4062C0 36.1448 3.85516 40 8.59375 40ZM8.59375 24.375C12.4708 24.375 15.625 27.5292 15.625 31.4062C15.625 35.2833 12.4708 38.4375 8.59375 38.4375C4.71672 38.4375 1.5625 35.2833 1.5625 31.4062C1.5625 27.5292 4.71672 24.375 8.59375 24.375Z" fill="black"/>
</g>
<defs>
<clipPath id="clip0">
<rect width="40" height="40" fill="white"/>
</clipPath>
</defs>
</svg>
