<svg width="512" height="512" viewBox="0 0 512 512" fill="none" xmlns="http://www.w3.org/2000/svg">
<path d="M498 15.2H105.2C101.7 15.2 98.8 18.1 98.8 21.6V476C98.8 479.5 101.7 482.4 105.2 482.4H498C501.5 482.4 504.4 479.5 504.4 476V21.7C504.5 18.1 501.6 15.2 498 15.2Z" fill="#E6E9ED"/>
<path d="M175.3 391.6L159.9 407C157.9 409 154.8 409 152.8 407L136.4 390.6L144.2 382.8C146.2 380.8 146.2 377.7 144.2 375.7L128.5 360C126.5 358 123.4 358 121.4 360L113.6 367.8L98.8 353V476C98.8 479.5 101.7 482.4 105.2 482.4H209L237.6 453.8L175.3 391.6Z" fill="#B1E8FF"/>
<path d="M498 15.2H350.7L105.1 260.8L267.9 423.6L504.5 187V21.7C504.5 18.1 501.6 15.2 498 15.2Z" fill="#B1E8FF"/>
<g opacity="0.1">
<path opacity="0.1" d="M128.4 284.1V21.7C128.4 18.2 131.3 15.3 134.8 15.3H105.2C101.7 15.3 98.8 18.2 98.8 21.7V254.5L128.4 284.1Z" fill="black"/>
<path opacity="0.1" d="M128.4 476.1V398.6L98.8 428.2V476C98.8 479.5 101.7 482.4 105.2 482.4H134.8C131.3 482.5 128.4 479.6 128.4 476.1Z" fill="black"/>
</g>
<path d="M276.1 431.7L72.6 228.2C70.6 226.2 67.5 226.2 65.5 228.2L42.2 251.5C40.2 253.5 40.2 256.6 42.2 258.6L112.7 329.1L122.4 319.4C124.4 317.4 127.5 317.4 129.5 319.4L185 374.9C187 376.9 187 380 185 382L175.3 391.7L245.8 462.2C247.8 464.2 250.9 464.2 252.9 462.2L276.2 438.9C278.1 436.9 278.1 433.7 276.1 431.7Z" fill="#08375E"/>
<g opacity="0.1">
<path opacity="0.1" d="M58.6 274.8C56.6 272.8 56.6 269.7 58.6 267.7L81.9 244.4C83.6 242.7 86.2 242.5 88.2 243.7L72.6 228.1C70.6 226.1 67.5 226.1 65.5 228.1L42.2 251.4C40.2 253.4 40.2 256.5 42.2 258.5L58.6 274.8Z" fill="black"/>
</g>
<path d="M185 374.8L129.5 319.3C127.5 317.3 124.4 317.3 122.4 319.3L97.2 344.5C95.2 346.5 95.2 349.6 97.2 351.6L113.6 368L121.4 360.2C123.4 358.2 126.5 358.2 128.5 360.2L144.2 375.9C146.2 377.9 146.2 381 144.2 383L136.4 390.8L152.8 407.2C154.8 409.2 157.9 409.2 159.9 407.2L185.1 382C187 380 187 376.8 185 374.8Z" fill="#FFBB4A"/>
<path d="M31.8 495.3C29.8 497.3 26.7 497.3 24.7 495.3L9 479.6C7 477.6 7 474.5 9 472.5L121.4 360.1C123.4 358.1 126.5 358.1 128.5 360.1L144.2 375.8C146.2 377.8 146.2 380.9 144.2 382.9L31.8 495.3Z" fill="#FB8276"/>
<g opacity="0.1">
<path opacity="0.1" d="M19.9 483.4L132.3 371C134.3 369 137.4 369 139.4 371L144.2 375.8L128.5 360.1C126.5 358.1 123.4 358.1 121.4 360.1L9 472.5C7 474.5 7 477.6 9 479.6L19.9 490.5C17.9 488.5 17.9 485.4 19.9 483.4Z" fill="black"/>
</g>
<path d="M339.5 136.6C337.7 136.6 336.1 135.4 335.6 133.7C329.2 113 324.7 108.6 304.1 102.2C302.4 101.7 301.2 100.1 301.2 98.3C301.2 96.5 302.4 94.9 304.1 94.4C324.8 88 329.2 83.5 335.6 62.9C336.1 61.2 337.7 60 339.5 60C341.3 60 342.9 61.2 343.4 62.9C349.8 83.6 354.3 88 374.9 94.4C376.6 94.9 377.8 96.5 377.8 98.3C377.8 100.1 376.6 101.7 374.9 102.2C354.2 108.6 349.8 113.1 343.4 133.7C342.9 135.4 341.3 136.6 339.5 136.6Z" fill="#FCC96C"/>
<path d="M38.8 209.1C37.4 209.1 36.2 208.2 35.7 206.8C30.7 190.7 27.2 187.2 11.1 182.2C9.8 181.8 8.8 180.5 8.8 179.1C8.8 177.7 9.7 176.5 11.1 176C27.2 171 30.7 167.5 35.7 151.4C36.1 150.1 37.4 149.1 38.8 149.1C40.2 149.1 41.4 150 41.9 151.4C46.9 167.5 50.4 171 66.5 176C67.8 176.4 68.8 177.7 68.8 179.1C68.8 180.5 67.9 181.7 66.5 182.2C50.4 187.2 46.9 190.7 41.9 206.8C41.5 208.2 40.2 209.1 38.8 209.1Z" fill="#FCC96C"/>
<path d="M349.1 281.1C348 281.1 347 280.4 346.7 279.3C342.7 266.4 339.9 263.7 327.1 259.7C326 259.4 325.3 258.4 325.3 257.3C325.3 256.2 326 255.2 327.1 254.9C340 250.9 342.7 248.1 346.7 235.3C347 234.2 348 233.5 349.1 233.5C350.2 233.5 351.2 234.2 351.5 235.3C355.5 248.2 358.3 250.9 371.1 254.9C372.2 255.2 372.9 256.2 372.9 257.3C372.9 258.4 372.2 259.4 371.1 259.7C358.2 263.7 355.5 266.5 351.5 279.3C351.2 280.4 350.2 281.1 349.1 281.1Z" fill="#FCC96C"/>
<path d="M498 7.69995H105.2C97.5 7.69995 91.3 14 91.3 21.6V236.2L77.9 222.8C75.5 220.4 72.4 219.1 69 219.1C65.6 219.1 62.5 220.4 60.1 222.8L36.8 246.1C34.4 248.5 33.1 251.6 33.1 255C33.1 258.4 34.4 261.5 36.8 263.9L91.2 318.3V339.8C89.2 342.1 88.2 344.9 88.2 348C88.2 351.1 89.3 353.9 91.2 356.2V379.6L3.7 467.2C1.3 469.6 0 472.7 0 476.1C0 479.5 1.3 482.6 3.7 485L19.4 500.7C21.8 503.1 25.1 504.4 28.3 504.4C31.5 504.4 34.7 503.2 37.2 500.7L46.5 491.4C49.4 488.5 49.4 483.7 46.5 480.8C43.6 477.9 38.8 477.9 35.9 480.8L28.4 488.3L16.3 476.2L125 367.2L137.1 379.3L61.9 454.5C59 457.4 59 462.2 61.9 465.1C64.8 468 69.6 468 72.5 465.1L91.3 446.3V476C91.3 483.7 97.6 490 105.2 490H378.4C382.6 490 385.9 486.6 385.9 482.5C385.9 478.4 382.5 475 378.4 475H227.1L237.5 464.6L240.4 467.5C242.8 469.9 245.9 471.2 249.3 471.2C252.7 471.2 255.8 469.9 258.2 467.5L281.5 444.2C286.4 439.3 286.4 431.3 281.5 426.4L278.6 423.5L497 205.1V475H425.7C421.5 475 418.2 478.4 418.2 482.5C418.2 486.6 421.6 490 425.7 490H498.1C505.8 490 512 483.7 512 476V21.7C512 14 505.7 7.69995 498 7.69995ZM133.9 354.8C131.5 352.4 128.4 351.1 125 351.1C121.6 351.1 118.5 352.4 116.1 354.8L113.6 357.3L104.3 348L125.9 326.4L177.9 378.4L156.3 400L147 390.7L149.5 388.2C154.4 383.3 154.4 375.3 149.5 370.4L133.9 354.8ZM205.8 475H106.3V431.4L136.3 401.4L147.4 412.4C149.8 414.8 152.9 416.1 156.3 416.1C159.7 416.1 162.8 414.8 165.2 412.4L175.3 402.3L226.9 453.9L205.8 475ZM249.3 455L185.9 391.6L190.3 387.2C192.7 384.8 194 381.7 194 378.3C194 374.9 192.7 371.8 190.3 369.4L134.8 314C132.4 311.6 129.3 310.3 125.9 310.3C122.5 310.3 119.4 311.6 117 314L112.6 318.4L49.3 255L69 235.3L269 435.3L249.3 455ZM496.9 183.9L267.9 412.9L245.9 390.9L312 324.8C314.9 321.9 314.9 317.1 312 314.2C309.1 311.3 304.3 311.3 301.4 314.2L235.3 380.3L137.2 282.2L173.1 246.3C176 243.4 176 238.6 173.1 235.7C170.2 232.8 165.4 232.8 162.5 235.7L126.6 271.6L115.8 260.8L236.7 139.9C239.6 137 239.6 132.2 236.7 129.3C233.8 126.4 229 126.4 226.1 129.3L106.3 248.9V22.8H332.4L255.8 99.4C252.9 102.3 252.9 107.1 255.8 110C258.7 112.9 263.5 112.9 266.4 110L353.6 22.8H496.8L496.9 183.9Z" fill="black"/>
<path d="M9 189.4C22.7 193.7 24.4 195.3 28.6 209C30 213.5 34.1 216.5 38.9 216.5C43.6 216.5 47.7 213.5 49.1 209C53.4 195.3 55 193.6 68.7 189.4C73.2 188 76.2 183.9 76.2 179.1C76.2 174.4 73.2 170.3 68.7 168.9C55 164.6 53.3 163 49.1 149.3C47.7 144.8 43.6 141.8 38.9 141.8C34.2 141.8 30.1 144.8 28.7 149.3C24.3 163 22.7 164.7 9 168.9C4.5 170.3 1.5 174.4 1.5 179.1C1.4 183.9 4.5 188 9 189.4ZM38.8 164.8C42.1 171.8 46.3 175.9 53.2 179.2C46.2 182.5 42.1 186.7 38.8 193.6C35.5 186.6 31.3 182.5 24.4 179.2C31.4 175.8 35.5 171.7 38.8 164.8Z" fill="black"/>
<path d="M339.5 52.3C334.4 52.3 329.9 55.6 328.4 60.5C322.7 78.9 320.2 81.4 301.8 87.1C296.9 88.6 293.6 93.1 293.6 98.2C293.6 103.3 296.9 107.8 301.8 109.3C320.2 115 322.7 117.5 328.4 135.9C329.9 140.8 334.4 144.1 339.5 144.1C344.6 144.1 349.1 140.8 350.6 135.9C356.3 117.5 358.8 115 377.2 109.3C382.1 107.8 385.4 103.3 385.4 98.2C385.4 93.1 382.1 88.6 377.2 87.1C358.8 81.4 356.3 78.9 350.6 60.5C349.1 55.6 344.6 52.3 339.5 52.3ZM363.3 98.2C350.5 103.3 344.6 109.2 339.5 122C334.4 109.2 328.5 103.3 315.7 98.2C328.5 93.1 334.4 87.2001 339.5 74.4001C344.6 87.2001 350.5 93.1 363.3 98.2Z" fill="black"/>
<path d="M373.4 247.6C362.9 244.3 362 243.4 358.7 232.9C357.4 228.7 353.5 225.8 349.1 225.8C344.7 225.8 340.8 228.6 339.5 232.9C336.2 243.4 335.3 244.3 324.8 247.6C320.6 248.9 317.7 252.8 317.7 257.2C317.7 261.6 320.6 265.5 324.8 266.8C335.3 270.1 336.2 271 339.5 281.5C340.8 285.7 344.7 288.6 349.1 288.6C353.5 288.6 357.4 285.8 358.7 281.5C362 271 362.9 270.1 373.4 266.8C377.6 265.5 380.5 261.6 380.5 257.2C380.5 252.8 377.6 249 373.4 247.6ZM349.1 265.6C347 262 344.4 259.4 340.8 257.3C344.4 255.2 347 252.6 349.1 249C351.2 252.6 353.8 255.2 357.4 257.3C353.8 259.4 351.2 262 349.1 265.6Z" fill="black"/>
<path d="M355.7 162.7C352.8 159.8 348 159.8 345.1 162.7L236 271.8C233.1 274.7 233.1 279.5 236 282.4C237.5 283.9 239.4 284.6 241.3 284.6C243.2 284.6 245.2 283.9 246.6 282.4L355.7 173.3C358.7 170.4 358.7 165.6 355.7 162.7Z" fill="black"/>
</svg>
