<?xml version="1.0" encoding="utf-8"?>
<!-- Generator: Adobe Illustrator 23.0.1, SVG Export Plug-In . SVG Version: 6.00 Build 0)  -->
<svg version="1.1" id="Layer_1" xmlns="http://www.w3.org/2000/svg" xmlns:xlink="http://www.w3.org/1999/xlink" x="0px" y="0px"
	 viewBox="0 0 1500 460.22" style="enable-background:new 0 0 1500 460.22;" xml:space="preserve">
<style type="text/css">
	.st0{fill:#FFFFFF;}
	.st1{fill:#F5F6F6;}
	.st2{fill:url(#SVGID_1_);}
	.st3{fill:url(#SVGID_2_);}
</style>
<g>
	<path class="st0" d="M344.6,379.11c0,7.35-6.34,13.86-20.62,13.86c-8.7,0-16.99-3.1-21.13-7.51l1.52-1.86
		c3.8,3.95,11.32,7.04,19.52,7.04c12.42,0,17.91-5.19,17.91-11.46c0-17.34-37.27-7.04-37.27-27.09c0-7.28,6.08-13.93,20.2-13.93
		c6.51,0,13.1,1.94,17.49,4.95l-1.27,2.09c-4.73-3.17-10.82-4.72-16.14-4.72c-12,0-17.49,5.26-17.49,11.61
		C307.34,369.51,344.6,359.44,344.6,379.11z M323.39,334.05l-10.48-8.75h3.13l9.13,6.97l9.13-6.97h3.13l-10.48,8.75H323.39z"/>
	<path class="st0" d="M395.89,352.48l-20.03,40.17h-2.79l-20.03-40.17h3.04l18.42,37.31l18.42-37.31H395.89z"/>
	<path class="st0" d="M439.24,366.64v26.01h-2.7v-8.05c-2.7,5.03-8.28,8.28-16.31,8.28c-9.89,0-15.72-4.57-15.72-11.3
		c0-5.88,4.06-10.99,15.97-10.99h15.97v-3.95c0-7.97-4.65-12.15-13.52-12.15c-6.34,0-11.92,2.17-15.63,5.42l-1.52-1.86
		c4.23-3.64,10.56-5.88,17.24-5.88C433.49,352.17,439.24,357.2,439.24,366.64z M436.45,381.04v-8.36h-15.97
		c-9.55,0-13.18,3.72-13.18,8.75c0,5.73,4.9,9.29,13.1,9.29C428.51,390.72,433.75,387.23,436.45,381.04z"/>
	<path class="st0" d="M481.49,352.17v2.55h-0.76c-10.23,0-16.22,6.27-16.22,16.57v21.36h-2.79v-40.17h2.7v9.68
		C466.95,355.81,472.87,352.17,481.49,352.17z"/>
	<path class="st0" d="M492.55,372.53c0-11.92,9.21-20.36,21.55-20.36c12.42,0,21.55,8.44,21.55,20.36s-9.13,20.36-21.55,20.36
		C501.77,392.88,492.55,384.45,492.55,372.53z M532.86,372.53c0-10.68-8.03-17.96-18.76-17.96c-10.73,0-18.76,7.28-18.76,17.96
		s8.03,18.04,18.76,18.04C524.83,390.56,532.86,383.21,532.86,372.53z"/>
	<path class="st0" d="M546.89,387.54l1.35-2.01c3.3,2.71,9.21,5.11,16.06,5.11c9.89,0,13.86-3.41,13.86-8.36
		c0-12.69-29.66-3.71-29.66-19.43c0-5.73,5.07-10.68,16.06-10.68c5.41,0,11.32,1.63,14.7,4.1l-1.44,2.01
		c-3.55-2.55-8.54-3.79-13.35-3.79c-9.13,0-13.1,3.64-13.1,8.28c0,13.08,29.58,4.26,29.58,19.51c0,6.27-5.66,10.61-16.73,10.61
		C557.03,392.88,550.27,390.64,546.89,387.54z"/>
	<path class="st0" d="M666.28,372.6c0,11.92-9.3,20.28-21.46,20.28c-8.45,0-15.55-4.18-18.84-10.99v25.78h-2.79v-55.19h2.7v10.99
		c3.3-7.04,10.31-11.3,18.93-11.3C656.99,352.17,666.28,360.6,666.28,372.6z M663.5,372.6c0-10.68-8.03-18.04-18.76-18.04
		s-18.76,7.35-18.76,18.04c0,10.68,8.03,17.96,18.76,17.96S663.5,383.29,663.5,372.6z"/>
	<path class="st0" d="M704.05,352.17v2.55h-0.76c-10.23,0-16.22,6.27-16.22,16.57v21.36h-2.79v-40.17h2.7v9.68
		C689.52,355.81,695.43,352.17,704.05,352.17z"/>
	<path class="st0" d="M715.12,372.53c0-11.92,9.21-20.36,21.55-20.36c12.42,0,21.55,8.44,21.55,20.36s-9.13,20.36-21.55,20.36
		C724.33,392.88,715.12,384.45,715.12,372.53z M755.43,372.53c0-10.68-8.03-17.96-18.76-17.96c-10.73,0-18.76,7.28-18.76,17.96
		s8.03,18.04,18.76,18.04C747.4,390.56,755.43,383.21,755.43,372.53z"/>
	<path class="st0" d="M779.76,345.67v6.81h14.45v2.25h-14.45v37.93h-2.79v-37.93h-8.28v-2.25h8.28v-7.12
		c0-6.27,4.06-10.37,11.24-10.37c3.21,0,6.59,0.85,8.7,2.71l-1.44,1.94c-1.86-1.55-4.39-2.4-7.1-2.4
		C782.64,337.23,779.76,340.17,779.76,345.67z"/>
	<path class="st0" d="M842.63,372.91h-38.45c0.17,10.45,8.37,17.65,19.52,17.65c5.75,0,11.15-1.94,14.53-5.96l1.78,1.7
		c-3.97,4.33-9.89,6.58-16.31,6.58c-12.93,0-22.22-8.44-22.22-20.36s8.79-20.36,20.62-20.36c11.66,0,20.53,8.28,20.53,20.05V372.91z
		 M804.27,370.82h35.75c-0.68-9.44-8.03-16.33-17.92-16.33C812.12,354.49,804.86,361.38,804.27,370.82z"/>
	<path class="st0" d="M853.87,387.54l1.35-2.01c3.3,2.71,9.21,5.11,16.06,5.11c9.89,0,13.86-3.41,13.86-8.36
		c0-12.69-29.66-3.71-29.66-19.43c0-5.73,5.07-10.68,16.05-10.68c5.41,0,11.32,1.63,14.7,4.1l-1.44,2.01
		c-3.55-2.55-8.54-3.79-13.35-3.79c-9.13,0-13.1,3.64-13.1,8.28c0,13.08,29.58,4.26,29.58,19.51c0,6.27-5.66,10.61-16.73,10.61
		C864.01,392.88,857.25,390.64,853.87,387.54z"/>
	<path class="st0" d="M903.13,339.47c0-1.39,1.27-2.55,2.79-2.55c1.52,0,2.79,1.16,2.79,2.48c0,1.39-1.27,2.55-2.79,2.55
		C904.39,341.95,903.13,340.79,903.13,339.47z M904.56,352.48h2.79v40.17h-2.79V352.48z"/>
	<path class="st0" d="M925.35,372.53c0-11.92,9.21-20.36,21.55-20.36c12.42,0,21.55,8.44,21.55,20.36s-9.13,20.36-21.55,20.36
		C934.56,392.88,925.35,384.45,925.35,372.53z M965.66,372.53c0-10.68-8.03-17.96-18.76-17.96c-10.73,0-18.76,7.28-18.76,17.96
		s8.03,18.04,18.76,18.04C957.63,390.56,965.66,383.21,965.66,372.53z"/>
	<path class="st0" d="M1024.81,369.04v23.61h-2.79V369.2c0-9.6-5.58-14.63-15.13-14.63c-10.99,0-17.66,6.5-17.66,16.41v21.67h-2.79
		v-40.17h2.7v9.83c2.79-6.19,9.13-10.14,18-10.14C1017.88,352.17,1024.81,357.97,1024.81,369.04z"/>
	<path class="st0" d="M1077.87,366.64v26.01h-2.7v-8.05c-2.7,5.03-8.28,8.28-16.31,8.28c-9.89,0-15.72-4.57-15.72-11.3
		c0-5.88,4.06-10.99,15.97-10.99h15.97v-3.95c0-7.97-4.65-12.15-13.52-12.15c-6.34,0-11.92,2.17-15.63,5.42l-1.52-1.86
		c4.22-3.64,10.56-5.88,17.24-5.88C1072.12,352.17,1077.87,357.2,1077.87,366.64z M1075.08,381.04v-8.36h-15.97
		c-9.55,0-13.18,3.72-13.18,8.75c0,5.73,4.9,9.29,13.1,9.29C1067.14,390.72,1072.38,387.23,1075.08,381.04z"/>
	<path class="st0" d="M1100.35,335.22h2.79v57.44h-2.79V335.22z"/>
	<path class="st0" d="M1156.71,366.64v26.01h-2.7v-8.05c-2.7,5.03-8.28,8.28-16.31,8.28c-9.89,0-15.72-4.57-15.72-11.3
		c0-5.88,4.06-10.99,15.97-10.99h15.97v-3.95c0-7.97-4.65-12.15-13.52-12.15c-6.34,0-11.92,2.17-15.63,5.42l-1.52-1.86
		c4.22-3.64,10.56-5.88,17.24-5.88C1150.96,352.17,1156.71,357.2,1156.71,366.64z M1153.92,381.04v-8.36h-15.97
		c-9.55,0-13.18,3.72-13.18,8.75c0,5.73,4.9,9.29,13.1,9.29C1145.97,390.72,1151.21,387.23,1153.92,381.04z"/>
	<path class="st0" d="M1177.74,339.47c0-1.39,1.27-2.55,2.79-2.55c1.52,0,2.79,1.16,2.79,2.48c0,1.39-1.27,2.55-2.79,2.55
		C1179.01,341.95,1177.74,340.79,1177.74,339.47z M1179.18,352.48h2.79v40.17h-2.79V352.48z"/>
</g>
<g>
	<path class="st1" d="M47.89,202.3c0-56.5,43.38-96.93,101.75-96.93c32.4,0,59.44,11.78,77.12,33.2l-27.85,25.71
		c-12.58-14.46-28.38-21.96-47.13-21.96c-35.08,0-59.98,24.63-59.98,59.98c0,35.34,24.9,59.98,59.98,59.98
		c18.74,0,34.54-7.5,47.13-22.22l27.85,25.71c-17.67,21.69-44.72,33.47-77.38,33.47C91.27,299.23,47.89,258.8,47.89,202.3z"/>
	<path class="st1" d="M270.66,108.59h43.38v152.09h93.98v35.34H270.66V108.59z"/>
	<path class="st1" d="M592.24,261.21v34.81H447.11V108.59h141.65v34.81h-98.54v40.7h87.02v33.74h-87.02v43.38H592.24z"/>
	<path class="st1" d="M764.94,255.86h-87.02l-16.6,40.16h-44.45l83.54-187.43h42.84l83.81,187.43h-45.52L764.94,255.86z
		 M751.28,222.92l-29.72-71.76l-29.72,71.76H751.28z"/>
	<path class="st1" d="M1033.23,108.59v187.43h-35.61l-93.45-113.8v113.8h-42.84V108.59h35.88l93.18,113.8v-113.8H1033.23z"/>
</g>
<g>
	<linearGradient id="SVGID_1_" gradientUnits="userSpaceOnUse" x1="1078.0043" y1="202.6836" x2="1259.5463" y2="202.6836">
		<stop  offset="0" style="stop-color:#71C9C1"/>
		<stop  offset="1" style="stop-color:#46C7F0"/>
	</linearGradient>
	<path class="st2" d="M1216.44,199.74h39.63v76.04c-20.62,15.53-49,23.83-75.78,23.83c-58.91,0-102.28-40.43-102.28-96.93
		c0-56.5,43.38-96.93,103.09-96.93c32.93,0,60.25,11.25,78.45,32.4l-27.85,25.71c-13.66-14.46-29.45-21.15-48.46-21.15
		c-36.42,0-61.32,24.37-61.32,59.98c0,35.08,24.9,59.98,60.78,59.98c11.78,0,22.76-2.14,33.74-8.03V199.74z"/>
</g>
<linearGradient id="SVGID_2_" gradientUnits="userSpaceOnUse" x1="1409.8536" y1="110.6691" x2="1342.3668" y2="305.4901">
	<stop  offset="0" style="stop-color:#71C9C1"/>
	<stop  offset="1" style="stop-color:#46C7F0"/>
</linearGradient>
<path class="st3" d="M1430.67,155.92l0.02-0.01c-0.12-0.19-0.25-0.36-0.38-0.54c-5.47-8.5-12.02-17.29-19.72-26.5
	c-11.21-14.88-24.22-22.74-37.64-22.74c-13.62,0-27.38,8.14-39.74,23.48c-28.29,34.03-40.9,62.26-40.9,91.51
	c0,44.06,35.84,79.9,79.9,79.9c44.06,0,79.9-35.84,79.9-79.9C1452.11,199.75,1445.36,178.89,1430.67,155.92z M1301.41,221.12
	c0-26.98,11.97-53.41,38.84-85.75c10.62-13.18,21.93-20.15,32.7-20.15c9.79,0,19.26,5.51,28.18,16.35
	c-2.58-0.84-5.19-1.41-7.83-1.71c-11.92-1.33-23.6,3.06-33.77,12.68c-29.61,28-53.43,70.85-31.51,107.14
	c9.28,15.36,24.06,22.29,37.61,22.29c5.86,0,11.49-1.3,16.34-3.76c15.1-7.68,26.23-27.82,12.16-61.33l0,0
	c-2.77-8.81-8.04-18.45-16.04-29.41c4.47-4.35,9.26-5.68,14.28-3.92c11.95,4.2,24.67,25.7,24.68,57.25
	c0.01,17.8-7.27,34.56-19.96,45.97c-11.32,10.17-25.45,14.97-39.83,13.52C1325.38,283.43,1301.41,255.02,1301.41,221.12z
	 M1372.21,184.88c10.33,14.55,15.17,26.16,15.17,36.24c0,8.37-6.81,15.17-15.17,15.17c-8.37,0-15.17-6.81-15.17-15.17
	C1357.04,211.04,1361.88,199.44,1372.21,184.88z M1399.98,286.23c1.08-0.86,2.15-1.74,3.19-2.68
	c14.61-13.14,22.99-32.37,22.98-52.75c-0.01-31.89-12.95-59.57-30.77-65.84c-8.05-2.83-16.24-0.83-22.8,5.2
	c-16.62,15.3-24.66,37.67-24.66,50.95c0,13.38,10.89,24.27,24.27,24.27c7.8,0,14.74-3.7,19.19-9.43
	c-0.3,12.48-6.23,20.42-13.56,24.14c-12.37,6.29-31.47,2.35-42.03-15.12c-24.69-40.87,20.63-86.99,29.97-95.82
	c8.17-7.73,17.34-11.27,26.51-10.25c10.99,1.23,21.77,8.85,30.43,21.49c13.89,21.62,20.28,41.04,20.28,60.71
	C1443.01,250.3,1425.26,275.41,1399.98,286.23z"/>
</svg>
