<svg width="1500" height="461" viewBox="0 0 1500 461" fill="none" xmlns="http://www.w3.org/2000/svg">
<path d="M344.6 379.11C344.6 386.46 338.26 392.97 323.98 392.97C315.28 392.97 306.99 389.87 302.85 385.46L304.37 383.6C308.17 387.55 315.69 390.64 323.89 390.64C336.31 390.64 341.8 385.45 341.8 379.18C341.8 361.84 304.53 372.14 304.53 352.09C304.53 344.81 310.61 338.16 324.73 338.16C331.24 338.16 337.83 340.1 342.22 343.11L340.95 345.2C336.22 342.03 330.13 340.48 324.81 340.48C312.81 340.48 307.32 345.74 307.32 352.09C307.34 369.51 344.6 359.44 344.6 379.11ZM323.39 334.05L312.91 325.3H316.04L325.17 332.27L334.3 325.3H337.43L326.95 334.05H323.39Z" fill="white"/>
<path d="M395.89 352.48L375.86 392.65H373.07L353.04 352.48H356.08L374.5 389.79L392.92 352.48H395.89Z" fill="white"/>
<path d="M439.24 366.64V392.65H436.54V384.6C433.84 389.63 428.26 392.88 420.23 392.88C410.34 392.88 404.51 388.31 404.51 381.58C404.51 375.7 408.57 370.59 420.48 370.59H436.45V366.64C436.45 358.67 431.8 354.49 422.93 354.49C416.59 354.49 411.01 356.66 407.3 359.91L405.78 358.05C410.01 354.41 416.34 352.17 423.02 352.17C433.49 352.17 439.24 357.2 439.24 366.64ZM436.45 381.04V372.68H420.48C410.93 372.68 407.3 376.4 407.3 381.43C407.3 387.16 412.2 390.72 420.4 390.72C428.51 390.72 433.75 387.23 436.45 381.04Z" fill="white"/>
<path d="M481.49 352.17V354.72H480.73C470.5 354.72 464.51 360.99 464.51 371.29V392.65H461.72V352.48H464.42V362.16C466.95 355.81 472.87 352.17 481.49 352.17Z" fill="white"/>
<path d="M492.55 372.53C492.55 360.61 501.76 352.17 514.1 352.17C526.52 352.17 535.65 360.61 535.65 372.53C535.65 384.45 526.52 392.89 514.1 392.89C501.77 392.88 492.55 384.45 492.55 372.53ZM532.86 372.53C532.86 361.85 524.83 354.57 514.1 354.57C503.37 354.57 495.34 361.85 495.34 372.53C495.34 383.21 503.37 390.57 514.1 390.57C524.83 390.56 532.86 383.21 532.86 372.53Z" fill="white"/>
<path d="M546.89 387.54L548.24 385.53C551.54 388.24 557.45 390.64 564.3 390.64C574.19 390.64 578.16 387.23 578.16 382.28C578.16 369.59 548.5 378.57 548.5 362.85C548.5 357.12 553.57 352.17 564.56 352.17C569.97 352.17 575.88 353.8 579.26 356.27L577.82 358.28C574.27 355.73 569.28 354.49 564.47 354.49C555.34 354.49 551.37 358.13 551.37 362.77C551.37 375.85 580.95 367.03 580.95 382.28C580.95 388.55 575.29 392.89 564.22 392.89C557.03 392.88 550.27 390.64 546.89 387.54Z" fill="white"/>
<path d="M666.28 372.6C666.28 384.52 656.98 392.88 644.82 392.88C636.37 392.88 629.27 388.7 625.98 381.89V407.67H623.19V352.48H625.89V363.47C629.19 356.43 636.2 352.17 644.82 352.17C656.99 352.17 666.28 360.6 666.28 372.6ZM663.5 372.6C663.5 361.92 655.47 354.56 644.74 354.56C634.01 354.56 625.98 361.91 625.98 372.6C625.98 383.28 634.01 390.56 644.74 390.56C655.47 390.56 663.5 383.29 663.5 372.6Z" fill="white"/>
<path d="M704.05 352.17V354.72H703.29C693.06 354.72 687.07 360.99 687.07 371.29V392.65H684.28V352.48H686.98V362.16C689.52 355.81 695.43 352.17 704.05 352.17Z" fill="white"/>
<path d="M715.12 372.53C715.12 360.61 724.33 352.17 736.67 352.17C749.09 352.17 758.22 360.61 758.22 372.53C758.22 384.45 749.09 392.89 736.67 392.89C724.33 392.88 715.12 384.45 715.12 372.53ZM755.43 372.53C755.43 361.85 747.4 354.57 736.67 354.57C725.94 354.57 717.91 361.85 717.91 372.53C717.91 383.21 725.94 390.57 736.67 390.57C747.4 390.56 755.43 383.21 755.43 372.53Z" fill="white"/>
<path d="M779.76 345.67V352.48H794.21V354.73H779.76V392.66H776.97V354.73H768.69V352.48H776.97V345.36C776.97 339.09 781.03 334.99 788.21 334.99C791.42 334.99 794.8 335.84 796.91 337.7L795.47 339.64C793.61 338.09 791.08 337.24 788.37 337.24C782.64 337.23 779.76 340.17 779.76 345.67Z" fill="white"/>
<path d="M842.63 372.91H804.18C804.35 383.36 812.55 390.56 823.7 390.56C829.45 390.56 834.85 388.62 838.23 384.6L840.01 386.3C836.04 390.63 830.12 392.88 823.7 392.88C810.77 392.88 801.48 384.44 801.48 372.52C801.48 360.6 810.27 352.16 822.1 352.16C833.76 352.16 842.63 360.44 842.63 372.21V372.91V372.91ZM804.27 370.82H840.02C839.34 361.38 831.99 354.49 822.1 354.49C812.12 354.49 804.86 361.38 804.27 370.82Z" fill="white"/>
<path d="M853.87 387.54L855.22 385.53C858.52 388.24 864.43 390.64 871.28 390.64C881.17 390.64 885.14 387.23 885.14 382.28C885.14 369.59 855.48 378.57 855.48 362.85C855.48 357.12 860.55 352.17 871.53 352.17C876.94 352.17 882.85 353.8 886.23 356.27L884.79 358.28C881.24 355.73 876.25 354.49 871.44 354.49C862.31 354.49 858.34 358.13 858.34 362.77C858.34 375.85 887.92 367.03 887.92 382.28C887.92 388.55 882.26 392.89 871.19 392.89C864.01 392.88 857.25 390.64 853.87 387.54Z" fill="white"/>
<path d="M903.13 339.47C903.13 338.08 904.4 336.92 905.92 336.92C907.44 336.92 908.71 338.08 908.71 339.4C908.71 340.79 907.44 341.95 905.92 341.95C904.39 341.95 903.13 340.79 903.13 339.47ZM904.56 352.48H907.35V392.65H904.56V352.48Z" fill="white"/>
<path d="M925.35 372.53C925.35 360.61 934.56 352.17 946.9 352.17C959.32 352.17 968.45 360.61 968.45 372.53C968.45 384.45 959.32 392.89 946.9 392.89C934.56 392.88 925.35 384.45 925.35 372.53ZM965.66 372.53C965.66 361.85 957.63 354.57 946.9 354.57C936.17 354.57 928.14 361.85 928.14 372.53C928.14 383.21 936.17 390.57 946.9 390.57C957.63 390.56 965.66 383.21 965.66 372.53Z" fill="white"/>
<path d="M1024.81 369.04V392.65H1022.02V369.2C1022.02 359.6 1016.44 354.57 1006.89 354.57C995.9 354.57 989.23 361.07 989.23 370.98V392.65H986.44V352.48H989.14V362.31C991.93 356.12 998.27 352.17 1007.14 352.17C1017.88 352.17 1024.81 357.97 1024.81 369.04Z" fill="white"/>
<path d="M1077.87 366.64V392.65H1075.17V384.6C1072.47 389.63 1066.89 392.88 1058.86 392.88C1048.97 392.88 1043.14 388.31 1043.14 381.58C1043.14 375.7 1047.2 370.59 1059.11 370.59H1075.08V366.64C1075.08 358.67 1070.43 354.49 1061.56 354.49C1055.22 354.49 1049.64 356.66 1045.93 359.91L1044.41 358.05C1048.63 354.41 1054.97 352.17 1061.65 352.17C1072.12 352.17 1077.87 357.2 1077.87 366.64ZM1075.08 381.04V372.68H1059.11C1049.56 372.68 1045.93 376.4 1045.93 381.43C1045.93 387.16 1050.83 390.72 1059.03 390.72C1067.14 390.72 1072.38 387.23 1075.08 381.04Z" fill="white"/>
<path d="M1100.35 335.22H1103.14V392.66H1100.35V335.22Z" fill="white"/>
<path d="M1156.71 366.64V392.65H1154.01V384.6C1151.31 389.63 1145.73 392.88 1137.7 392.88C1127.81 392.88 1121.98 388.31 1121.98 381.58C1121.98 375.7 1126.04 370.59 1137.95 370.59H1153.92V366.64C1153.92 358.67 1149.27 354.49 1140.4 354.49C1134.06 354.49 1128.48 356.66 1124.77 359.91L1123.25 358.05C1127.47 354.41 1133.81 352.17 1140.49 352.17C1150.96 352.17 1156.71 357.2 1156.71 366.64ZM1153.92 381.04V372.68H1137.95C1128.4 372.68 1124.77 376.4 1124.77 381.43C1124.77 387.16 1129.67 390.72 1137.87 390.72C1145.97 390.72 1151.21 387.23 1153.92 381.04Z" fill="white"/>
<path d="M1177.74 339.47C1177.74 338.08 1179.01 336.92 1180.53 336.92C1182.05 336.92 1183.32 338.08 1183.32 339.4C1183.32 340.79 1182.05 341.95 1180.53 341.95C1179.01 341.95 1177.74 340.79 1177.74 339.47ZM1179.18 352.48H1181.97V392.65H1179.18V352.48Z" fill="white"/>
<path d="M47.8899 202.3C47.8899 145.8 91.2699 105.37 149.64 105.37C182.04 105.37 209.08 117.15 226.76 138.57L198.91 164.28C186.33 149.82 170.53 142.32 151.78 142.32C116.7 142.32 91.7999 166.95 91.7999 202.3C91.7999 237.64 116.7 262.28 151.78 262.28C170.52 262.28 186.32 254.78 198.91 240.06L226.76 265.77C209.09 287.46 182.04 299.24 149.38 299.24C91.2699 299.23 47.8899 258.8 47.8899 202.3Z" fill="#F5F6F6"/>
<path d="M270.66 108.59H314.04V260.68H408.02V296.02H270.66V108.59Z" fill="#F5F6F6"/>
<path d="M592.24 261.21V296.02H447.11V108.59H588.76V143.4H490.22V184.1H577.24V217.84H490.22V261.22H592.24V261.21Z" fill="#F5F6F6"/>
<path d="M764.94 255.86H677.92L661.32 296.02H616.87L700.41 108.59H743.25L827.06 296.02H781.54L764.94 255.86ZM751.28 222.92L721.56 151.16L691.84 222.92H751.28V222.92Z" fill="#F5F6F6"/>
<path d="M1033.23 108.59V296.02H997.62L904.17 182.22V296.02H861.33V108.59H897.21L990.39 222.39V108.59H1033.23V108.59Z" fill="#F5F6F6"/>
<path d="M1216.44 199.74H1256.07V275.78C1235.45 291.31 1207.07 299.61 1180.29 299.61C1121.38 299.61 1078.01 259.18 1078.01 202.68C1078.01 146.18 1121.39 105.75 1181.1 105.75C1214.03 105.75 1241.35 117 1259.55 138.15L1231.7 163.86C1218.04 149.4 1202.25 142.71 1183.24 142.71C1146.82 142.71 1121.92 167.08 1121.92 202.69C1121.92 237.77 1146.82 262.67 1182.7 262.67C1194.48 262.67 1205.46 260.53 1216.44 254.64V199.74V199.74Z" fill="url(#paint0_linear)"/>
<path d="M1430.67 155.92L1430.69 155.91C1430.57 155.72 1430.44 155.55 1430.31 155.37C1424.84 146.87 1418.29 138.08 1410.59 128.87C1399.38 113.99 1386.37 106.13 1372.95 106.13C1359.33 106.13 1345.57 114.27 1333.21 129.61C1304.92 163.64 1292.31 191.87 1292.31 221.12C1292.31 265.18 1328.15 301.02 1372.21 301.02C1416.27 301.02 1452.11 265.18 1452.11 221.12C1452.11 199.75 1445.36 178.89 1430.67 155.92ZM1301.41 221.12C1301.41 194.14 1313.38 167.71 1340.25 135.37C1350.87 122.19 1362.18 115.22 1372.95 115.22C1382.74 115.22 1392.21 120.73 1401.13 131.57C1398.55 130.73 1395.94 130.16 1393.3 129.86C1381.38 128.53 1369.7 132.92 1359.53 142.54C1329.92 170.54 1306.1 213.39 1328.02 249.68C1337.3 265.04 1352.08 271.97 1365.63 271.97C1371.49 271.97 1377.12 270.67 1381.97 268.21C1397.07 260.53 1408.2 240.39 1394.13 206.88C1391.36 198.07 1386.09 188.43 1378.09 177.47C1382.56 173.12 1387.35 171.79 1392.37 173.55C1404.32 177.75 1417.04 199.25 1417.05 230.8C1417.06 248.6 1409.78 265.36 1397.09 276.77C1385.77 286.94 1371.64 291.74 1357.26 290.29C1325.38 283.43 1301.41 255.02 1301.41 221.12ZM1372.21 184.88C1382.54 199.43 1387.38 211.04 1387.38 221.12C1387.38 229.49 1380.57 236.29 1372.21 236.29C1363.84 236.29 1357.04 229.48 1357.04 221.12C1357.04 211.04 1361.88 199.44 1372.21 184.88ZM1399.98 286.23C1401.06 285.37 1402.13 284.49 1403.17 283.55C1417.78 270.41 1426.16 251.18 1426.15 230.8C1426.14 198.91 1413.2 171.23 1395.38 164.96C1387.33 162.13 1379.14 164.13 1372.58 170.16C1355.96 185.46 1347.92 207.83 1347.92 221.11C1347.92 234.49 1358.81 245.38 1372.19 245.38C1379.99 245.38 1386.93 241.68 1391.38 235.95C1391.08 248.43 1385.15 256.37 1377.82 260.09C1365.45 266.38 1346.35 262.44 1335.79 244.97C1311.1 204.1 1356.42 157.98 1365.76 149.15C1373.93 141.42 1383.1 137.88 1392.27 138.9C1403.26 140.13 1414.04 147.75 1422.7 160.39C1436.59 182.01 1442.98 201.43 1442.98 221.1C1443.01 250.3 1425.26 275.41 1399.98 286.23Z" fill="url(#paint1_linear)"/>
<defs>
<linearGradient id="paint0_linear" x1="1078" y1="202.684" x2="1259.55" y2="202.684" gradientUnits="userSpaceOnUse">
<stop stop-color="#71C9C1"/>
<stop offset="1" stop-color="#46C7F0"/>
</linearGradient>
<linearGradient id="paint1_linear" x1="1409.85" y1="110.669" x2="1342.37" y2="305.49" gradientUnits="userSpaceOnUse">
<stop stop-color="#71C9C1"/>
<stop offset="1" stop-color="#46C7F0"/>
</linearGradient>
</defs>
</svg>
