<svg width="90" height="99" viewBox="0 0 90 99" fill="none" xmlns="http://www.w3.org/2000/svg">
<path d="M68.7156 79.9472C68.7156 78.8537 67.8344 77.9662 66.7449 77.9662H62.1112C61.9814 77.9662 61.6902 77.9813 61.2843 78.0071C64.5073 79.5413 66.6952 82.5112 66.6952 85.9234C66.6952 90.9137 62.0252 94.9574 56.2658 94.9574C55.7181 94.9574 55.1839 94.9105 54.6588 94.8393L55.2744 96.4643C55.2744 97.5548 56.1556 98.4408 57.245 98.4408L71.6126 98.4423C72.7005 98.4423 73.5832 97.5548 73.5832 96.4643L68.7156 79.9472ZM35.7284 78.4251C35.9638 79.4489 36.1026 80.5121 36.1026 81.6116C36.1026 88.9827 30.4986 94.9574 23.5865 94.9574C22.0142 94.9574 20.5159 94.6348 19.1292 94.0699L18.4231 96.4643C18.4231 97.5548 19.3058 98.4423 20.3952 98.4423H34.7627C35.8506 98.4423 36.7333 97.5548 36.7333 96.4643L42.9907 79.9472C42.9907 79.3353 39.2305 78.787 35.7284 78.4251ZM19.6845 24.0515C18.9029 24.0681 16.0194 24.7481 16.8961 26.0582C17.7727 27.3652 21.0334 29.6339 22.749 33.9094C24.4646 38.1833 24.8117 40.6262 24.8117 41.759C24.8117 42.8934 25.5072 44.5518 28.9837 43.9414C32.4602 43.3296 39.0661 39.928 38.9785 35.7404C38.891 31.5528 31.8521 23.7895 19.6845 24.0515Z" fill="#DA5656"/>
<path d="M84.2574 55.9861C83.2827 54.2838 83.7655 52.1302 84.0794 51.2154C84.2559 50.6944 85.0436 50.1856 85.8644 50.1856C85.9791 50.1856 86.0952 50.1962 86.2084 50.2159C87.3884 50.4339 87.5921 51.7395 87.5543 52.7935C87.5091 54.0824 87.0745 55.0168 86.2265 55.6469C85.8191 55.9513 85.1416 56.2406 84.606 56.3996C84.4868 56.2451 84.3555 56.1557 84.2574 55.9861ZM85.8584 58.0731C86.3367 57.9277 87.2073 57.5233 87.4668 57.3295C88.8399 56.3087 89.6351 54.8094 89.6381 52.8693C89.6441 49.5964 87.5498 48.6892 86.8014 48.5499C84.9319 48.2001 82.7712 49.6191 82.2129 51.2563C81.7014 52.7572 81.4162 54.5125 82.5433 56.6631C81.9383 56.6858 81.3317 56.6616 80.7538 56.6146C77.73 42.0572 62.2157 30.968 43.5192 30.968C39.4527 30.968 35.5387 31.4981 31.8691 32.4689C28.7472 29.1294 23.0949 26.0504 15.3604 26.217C14.5788 26.2337 11.6968 26.9152 12.572 28.2237C13.4472 29.5323 16.7094 31.801 18.4234 36.0749C18.7343 36.8488 18.9878 37.544 19.2141 38.2013C13.3868 42.2041 9.06385 47.6185 7.03441 53.7992C5.99479 53.6629 5.27203 53.5841 5.05475 53.5841L2.32368 52.8314C1.03962 52.8314 0 53.8749 0 55.1637V68.3036C0 69.5909 1.03962 70.6374 2.32368 70.6374H3.30897C4.88425 70.6374 6.22262 70.483 7.16114 70.1664C7.22904 70.3618 7.29242 70.5572 7.36484 70.7525C6.81259 71.3311 6.05514 71.8702 5.01703 72.1913C1.04415 73.409 5.24789 75.5672 5.24789 75.5672C5.24789 75.5672 7.80091 74.9538 9.64325 75.446C12.3623 79.9335 16.3774 83.8015 21.2933 86.726L19.1296 94.0698C20.5163 94.6347 22.0146 94.9574 23.5868 94.9574C26.9501 94.9574 29.9966 93.5367 32.2448 91.2332C35.8057 92.1434 39.5915 92.6326 43.5192 92.6326C46.9443 92.6326 50.2608 92.2524 53.4159 91.5558L54.6592 94.8393C55.1843 94.9104 55.7185 94.9574 56.2662 94.9574C61.9381 94.9574 66.5432 91.0333 66.682 86.1475C75.5708 80.5059 81.2955 71.7021 81.2955 61.8003C81.2955 60.7659 81.2306 59.7466 81.1099 58.7395C82.0484 58.791 83.076 58.7758 84.0809 58.6229C85.1794 59.5922 86.6324 60.2661 88.4204 60.6251C88.4204 60.6251 86.059 58.9879 85.8584 58.0731Z" fill="#F37D6A"/>
<path d="M16.495 28.6493C15.9412 28.5993 13.8514 28.8492 14.3659 29.8443C14.8805 30.8378 17.0035 32.6991 17.8771 35.8553C18.7493 39.0115 18.8021 40.7638 18.7115 41.565C18.6225 42.3646 18.9816 43.5914 21.4849 43.4369C23.9896 43.2839 28.9237 41.4075 29.1937 38.4436C29.4638 35.4797 25.1077 29.4353 16.495 28.6493Z" fill="#DA5656"/>
<path d="M19.3572 52.2575C19.3572 55.2199 17.3625 57.6219 14.9015 57.6219C12.4405 57.6219 10.4458 55.2199 10.4458 52.2575C10.4458 49.2937 12.4405 46.8917 14.9015 46.8917C17.3625 46.8917 19.3572 49.2937 19.3572 52.2575Z" fill="white"/>
<path d="M16.1335 51.3624C16.1335 52.9465 15.1664 54.2324 13.9713 54.2324C12.7778 54.2324 11.8091 52.9465 11.8091 51.3624C11.8091 49.7782 12.7778 48.4969 13.9713 48.4969C15.1664 48.4969 16.1335 49.7782 16.1335 51.3624Z" fill="#51636D"/>
<path d="M71.5878 46.3085C71.3584 47.3596 70.1921 47.9957 68.9865 47.7291L35.2298 40.2611C34.0242 39.9946 33.2335 38.9253 33.4644 37.8743L34.0513 35.1966C34.2822 34.1471 35.447 33.511 36.6526 33.7776L70.4109 41.2456C71.6165 41.5121 72.4071 42.5798 72.1762 43.6309L71.5878 46.3085Z" fill="#DA5656"/>
<path d="M64.1029 63.9932C64.1029 70.4753 56.901 75.7291 48.0182 75.7291C39.1354 75.7291 31.9351 70.4753 31.9351 63.9932C31.9351 57.5111 39.1354 52.2573 48.0182 52.2573C56.901 52.2573 64.1029 57.5111 64.1029 63.9932Z" fill="#F9AF89"/>
<path d="M1.66569 63.9933C1.31261 63.9933 1.02441 62.3501 1.02441 60.3237C1.02441 58.2972 1.31261 56.654 1.66569 56.654C2.02027 56.654 2.30848 58.2972 2.30848 60.3237C2.30848 62.3501 2.02027 63.9933 1.66569 63.9933ZM25.0035 88.4344C25.0035 88.4344 32.2265 91.309 34.0538 91.6543C35.8825 91.9996 32.978 92.8159 32.978 92.8159C32.978 92.8159 28.3864 91.0863 25.0035 88.4344ZM58.9096 90.838C58.9096 90.838 65.7116 87.0683 67.139 85.8704C68.5664 84.6739 67.3487 87.4439 67.3487 87.4439C67.3487 87.4439 63.0997 89.902 58.9096 90.838Z" fill="#DA5656"/>
<path d="M3.38669 55.3151C3.38669 55.3151 4.73713 63.0921 3.06982 65.6229C3.78503 65.1609 6.6881 60.6401 3.38669 55.3151Z" fill="#F9AF89"/>
<path d="M70.5925 44.9561C70.4431 45.6361 69.4231 45.9875 68.3111 45.7421L37.2161 38.8632C36.1056 38.6179 35.327 37.8682 35.4764 37.1882L35.8551 35.4586C36.0045 34.7786 37.026 34.4273 38.1365 34.6726L69.2315 41.5515C70.342 41.7968 71.1221 42.5465 70.9727 43.2265L70.5925 44.9561Z" fill="#A53333"/>
<path d="M36.4846 37.6576L68.1892 44.8105C68.672 44.6727 69.1006 44.5137 69.4582 44.332L70.6894 3.83118C70.7166 2.93005 70.0119 2.17886 69.1141 2.1516L38.932 1.22776C38.0357 1.19898 37.2858 1.90625 37.2586 2.80587L36.2582 35.7054C36.1949 36.4959 36.1798 36.6338 36.1798 36.6338C36.1239 36.9367 36.1496 37.391 36.4846 37.6576Z" fill="#2A8341"/>
<path d="M77.8444 7.40086L48.5495 0.0494614C47.6804 -0.170143 46.7962 0.361443 46.5789 1.2338L37.4517 37.8772L68.3384 44.8455C69.6074 44.4199 70.4041 43.8262 70.5444 43.0644C70.5489 43.0447 70.5489 43.0265 70.552 43.0069L70.905 41.7498C70.9201 41.7771 70.9292 41.8043 70.9428 41.8331L79.0258 9.3788C79.2446 8.50494 78.715 7.61744 77.8444 7.40086Z" fill="#2C9646"/>
<path d="M75.2478 7.94911L44.7473 2.29547C43.842 2.12736 42.9698 2.72862 42.8023 3.63884L36.542 37.6712L68.3492 44.8469C69.8913 45.0014 70.2534 44.335 70.4179 43.4279L76.5862 9.89979C76.7537 8.99109 76.1546 8.11722 75.2478 7.94911Z" fill="#4EB64A"/>
<path d="M66.6709 44.4699L72.0048 15.4762C71.4163 15.7322 70.7479 15.8215 70.0704 15.6958C68.2461 15.3581 67.0436 13.5997 67.3801 11.7687C67.5143 11.0372 67.8749 10.4117 68.3744 9.93613L50.9815 6.71175C51.2803 7.33421 51.3934 8.05058 51.2591 8.78057C50.9227 10.6116 49.1708 11.8217 47.3466 11.484C46.4262 11.3128 45.6642 10.7767 45.1768 10.0558L39.9546 38.4422L66.6709 44.4699Z" fill="#ABD167"/>
<path d="M57.3357 20.2576C63.8526 21.4661 68.3536 26.6942 67.3894 31.9389C66.4237 37.1822 60.3595 40.4535 53.8427 39.2464C47.3273 38.0379 42.8264 32.8083 43.792 27.5635C44.7562 22.3203 50.8204 19.0505 57.3357 20.2576ZM58.8718 11.2402C60.5466 11.5522 61.6526 13.1666 61.3448 14.8462C61.034 16.5289 59.4255 17.639 57.7522 17.3285C56.0773 17.018 54.9698 15.4051 55.2791 13.724C55.5885 12.0429 57.1969 10.9312 58.8718 11.2402Z" fill="#4EB64A"/>
</svg>
