<?xml version="1.0" encoding="utf-8"?>
<!-- Generator: Adobe Illustrator 23.0.1, SVG Export Plug-In . SVG Version: 6.00 Build 0)  -->
<svg version="1.1" id="Capa_1" xmlns="http://www.w3.org/2000/svg" xmlns:xlink="http://www.w3.org/1999/xlink" x="0px" y="0px"
	 viewBox="0 0 762 512" style="enable-background:new 0 0 762 512;" xml:space="preserve">
<style type="text/css">
	.st0{fill:#FFB125;}
	.st1{fill:#FF901D;}
	.st2{fill:#E1EFFB;}
	.st3{fill:#CCDFED;}
	.st4{fill:#FF4C4C;}
	.st5{fill:#2D5872;}
	.st6{fill:#1D4859;}
	.st7{fill:#F33939;}
</style>
<rect x="167.4" y="49.8" class="st0" width="86.8" height="87"/>
<rect x="210.7" y="49.8" class="st1" width="43.4" height="87"/>
<path class="st0" d="M268.1,58.5H153.4c-1.8,0-3.2-1-3.2-2.2V34.2c0-1.2,1.5-2.2,3.2-2.2h114.7c1.8,0,3.2,1,3.2,2.2v22.1
	C271.4,57.6,269.9,58.5,268.1,58.5z"/>
<polygon class="st2" points="656.5,186.8 380.9,63.6 105.4,186.8 105.4,478.8 656.6,478.8 656.6,186.8 "/>
<polygon class="st3" points="656.5,186.8 380.9,63.6 347.7,78.5 590,186.8 590.1,186.8 590.1,478.8 656.6,478.8 656.6,186.8 "/>
<path class="st4" d="M53.8,218.9L376.3,74.8c2.8-1.3,6.5-1.3,9.3,0l322.5,144.1c9.1,4.1,20.9,4.1,30,0l0,0
	c16.1-7.2,16.1-23.1,0-30.3L385.7,31.1c-2.8-1.3-6.5-1.3-9.3,0L23.9,188.6c-16.1,7.2-16.1,23.1,0,30.3l0,0
	C32.9,223,44.8,223,53.8,218.9z"/>
<path class="st5" d="M729.1,452.2H32.9c-12.2,0-22,6.6-22,14.8l0,0c0,8.2,9.9,14.8,22,14.8h696.2c12.2,0,22-6.6,22-14.8l0,0
	C751.2,458.9,741.3,452.2,729.1,452.2z"/>
<path class="st6" d="M751.1,465.7c0-0.1,0-0.2,0-0.3c-0.1-0.4-0.2-0.8-0.3-1.2c0-0.1-0.1-0.2-0.1-0.3c-0.1-0.3-0.2-0.6-0.4-1
	c-0.1-0.1-0.1-0.2-0.2-0.4c-0.2-0.3-0.3-0.7-0.5-1c-0.1-0.2-0.2-0.3-0.3-0.5c-0.2-0.3-0.4-0.6-0.7-0.9c-3.7-4.7-11-7.9-19.5-7.9
	h-36.9v2c0,7.6-9.2,13.8-20.6,13.8H32.9c-8.5,0-15.8-3.2-19.5-7.9c-1.8,2.2-2.7,4.8-2.5,7.6c0.5,8,10.7,14.2,22.6,14.2h658.7h36.9
	c12.2,0,22-6.6,22-14.8C751.2,466.6,751.1,466.1,751.1,465.7z"/>
<path class="st7" d="M750.2,203.1c0,0,0-0.1,0-0.1c0,0,0,0,0,0c0-0.5-0.1-0.9-0.2-1.4c0-0.1,0-0.2-0.1-0.3c-0.1-0.5-0.2-1-0.4-1.6
	c0-0.1,0-0.1-0.1-0.2c-0.2-0.5-0.4-1.1-0.7-1.6c0,0,0,0,0,0c-0.3-0.5-0.6-1-0.9-1.5c0-0.1-0.1-0.1-0.1-0.2c-0.3-0.4-0.5-0.8-0.8-1.1
	c0,0,0,0,0,0l0,0c-0.1-0.1-0.2-0.2-0.3-0.3c-0.1-0.1-0.1-0.2-0.2-0.2c-0.4-0.5-0.9-0.9-1.4-1.4c0,0,0,0,0,0c0,0,0,0,0,0
	c-1.8-1.7-4.1-3.2-6.9-4.5L705.5,174l-2,2c-5.6,5.6-14.7,8.7-24.1,8.7L385.7,53.4c-2.8-1.3-6.5-1.3-9.3,0L53.8,197.6
	c-9.1,4.1-20.9,4.1-30,0l0,0c-2.8-1.3-5.1-2.8-6.9-4.5c-0.7,0.6-1.3,1.3-1.8,2c0,0,0,0,0,0c-0.2,0.2-0.4,0.5-0.5,0.8
	c-0.1,0.2-0.3,0.4-0.4,0.6c-0.2,0.4-0.4,0.7-0.6,1.1c-0.1,0.2-0.2,0.4-0.3,0.5c-0.2,0.5-0.4,0.9-0.6,1.4c0,0.1-0.1,0.2-0.1,0.2
	c-0.2,0.6-0.3,1.1-0.5,1.7c0,0.2,0,0.4-0.1,0.6c-0.1,0.4-0.1,0.8-0.1,1.2c0,0.2,0,0.5,0,0.7c0,0.3,0,0.7,0,1c0,0.2,0.1,0.5,0.1,0.7
	c0,0.3,0.1,0.7,0.2,1c0.1,0.3,0.1,0.5,0.2,0.7c0.1,0.3,0.2,0.6,0.3,0.9c0.1,0.3,0.2,0.5,0.3,0.7c0.1,0.3,0.3,0.6,0.4,0.9
	c0.1,0.2,0.3,0.5,0.4,0.7c0.2,0.3,0.4,0.6,0.6,0.9c0.2,0.2,0.3,0.5,0.5,0.7c0.2,0.3,0.5,0.6,0.7,0.9c0.2,0.2,0.4,0.4,0.6,0.7
	c0.3,0.3,0.6,0.6,0.9,0.8c0.2,0.2,0.4,0.4,0.7,0.6c0.3,0.3,0.7,0.6,1.1,0.8c0.2,0.2,0.5,0.4,0.7,0.5c0.4,0.3,0.9,0.6,1.4,0.8
	c0.2,0.1,0.4,0.3,0.7,0.4c0.7,0.4,1.5,0.8,2.3,1.1l0,0c9.1,4.1,20.9,4.1,30,0L376.3,74.8c2.8-1.3,6.5-1.3,9.3,0l289.9,129.6
	l32.6,14.6c9.1,4.1,20.9,4.1,30,0c0.7-0.3,1.3-0.6,1.9-1c0.1,0,0.1-0.1,0.2-0.1c0.3-0.2,0.6-0.3,0.8-0.5c0.4-0.2,0.8-0.5,1.2-0.7
	c0,0,0.1,0,0.1-0.1c0,0,0.1,0,0.1-0.1c0.3-0.2,0.5-0.4,0.7-0.5c0.2-0.2,0.5-0.3,0.7-0.5c0.1-0.1,0.2-0.2,0.3-0.3c0,0,0,0,0.1-0.1
	c0.2-0.2,0.5-0.4,0.7-0.6c0.2-0.2,0.4-0.4,0.6-0.6c0,0,0.1-0.1,0.1-0.1c0.1-0.1,0.1-0.1,0.2-0.2c0.2-0.2,0.4-0.4,0.6-0.7
	c0.1-0.1,0.2-0.2,0.3-0.4c0.1-0.1,0.1-0.2,0.2-0.3c0.1-0.1,0.1-0.2,0.2-0.2c0.2-0.2,0.3-0.5,0.5-0.7c0.1-0.1,0.2-0.3,0.3-0.4
	c0,0,0-0.1,0.1-0.1c0.1-0.1,0.1-0.2,0.2-0.3c0.1-0.2,0.3-0.5,0.4-0.7c0-0.1,0.1-0.2,0.2-0.3c0-0.1,0.1-0.1,0.1-0.2
	c0.1-0.1,0.1-0.3,0.2-0.4c0.1-0.2,0.2-0.5,0.3-0.7c0-0.1,0.1-0.2,0.1-0.3c0,0,0-0.1,0-0.1c0.1-0.2,0.1-0.4,0.1-0.6
	c0.1-0.2,0.1-0.5,0.2-0.7c0-0.1,0-0.1,0.1-0.2c0,0,0-0.1,0-0.1c0-0.2,0.1-0.4,0.1-0.7c0-0.2,0.1-0.5,0.1-0.7c0-0.1,0-0.1,0-0.2
	c0,0,0,0,0,0c0-0.3,0-0.5,0-0.8C750.2,203.6,750.2,203.3,750.2,203.1z"/>
<path d="M729.1,444.9h-61.6V209.5l34.7,15.5c12.8,5.7,29.2,5.7,42,0c10.6-4.7,16.9-12.7,16.9-21.2s-6.3-16.5-16.9-21.2l-83.3-37.2
	c-5-2.2-11.7-1.3-15,2c-3.3,3.4-2,7.9,3,10.1l83.3,37.2c4.6,2.1,7.2,5.4,7.2,9.1s-2.6,7-7.2,9.1c-5.5,2.4-12.5,2.4-18,0L391.7,68.7
	c-6.5-2.9-14.9-2.9-21.3,0L47.8,212.9c-5.5,2.4-12.5,2.4-18,0c-4.6-2.1-7.2-5.4-7.2-9.1s2.6-7,7.2-9.1l143.5-64.1h0l36.1-16.1
	L381,37.8l211.8,94.7c5,2.2,11.7,1.3,15-2c3.3-3.4,2-7.9-3-10.1L391.7,25c-6.5-2.9-14.9-2.9-21.3,0L265,72.1v-6.3h3.1
	c7.8,0,14.1-4.2,14.1-9.5V34.2c0-5.2-6.3-9.5-14.1-9.5H153.4c-7.8,0-14.1,4.2-14.1,9.5v22.1c0,5.2,6.3,9.5,14.1,9.5h3.1v54.8
	l-138.7,62c-10.6,4.7-16.9,12.7-16.9,21.2s6.3,16.5,16.9,21.2c6.4,2.9,13.7,4.3,21,4.3c7.3,0,14.6-1.4,21-4.3l34.7-15.5v129.9
	c0,4,4.9,7.3,10.8,7.3c6,0,10.8-3.3,10.8-7.3V199.8L381,81.5l264.8,118.3v245.1H116.2v-60.3c0-4-4.9-7.3-10.8-7.3
	c-6,0-10.8,3.3-10.8,7.3v60.3H32.9C14.8,444.9,0,454.9,0,467c0,12.2,14.8,22.1,32.9,22.1h696.2c18.1,0,32.9-9.9,32.9-22.1
	C762,454.9,747.2,444.9,729.1,444.9z M243.3,81.8l-65.1,29.1V65.8h65.1V81.8z M161,39.3h99.5v11.9h-6.4h-86.8H161L161,39.3L161,39.3
	z M729.1,474.6H32.9c-6.2,0-11.2-3.4-11.2-7.5c0-4.1,5-7.5,11.2-7.5h72.5h551.3h72.5c6.2,0,11.2,3.4,11.2,7.5
	C740.3,471.2,735.3,474.6,729.1,474.6z"/>
</svg>
