<?xml version="1.0" encoding="utf-8"?>
<!-- Generator: Adobe Illustrator 23.0.1, SVG Export Plug-In . SVG Version: 6.00 Build 0)  -->
<svg version="1.1" id="Capa_1" xmlns="http://www.w3.org/2000/svg" xmlns:xlink="http://www.w3.org/1999/xlink" x="0px" y="0px"
	 viewBox="0 0 612 512" style="enable-background:new 0 0 612 512;" xml:space="preserve">
<style type="text/css">
	.st0{fill:#FFB125;}
	.st1{fill:#FF901D;}
	.st2{fill:#E1EFFB;}
	.st3{fill:#CCDFED;}
	.st4{fill:#FF4C4C;}
	.st5{fill:#2D5872;}
	.st6{fill:#1D4859;}
	.st7{fill:#F33939;}
</style>
<rect x="134.4" y="49.8" class="st0" width="69.7" height="87"/>
<rect x="169.3" y="49.8" class="st1" width="34.8" height="87"/>
<path class="st0" d="M215.3,58.5h-92.1c-1.4,0-2.6-1-2.6-2.2V34.2c0-1.2,1.2-2.2,2.6-2.2h92.1c1.4,0,2.6,1,2.6,2.2v22.1
	C217.9,57.5,216.8,58.5,215.3,58.5z"/>
<polygon class="st2" points="527.3,186.8 305.9,63.6 84.6,186.8 84.6,478.8 527.4,478.8 527.4,186.8 "/>
<polygon class="st3" points="527.3,186.8 305.9,63.6 279.2,78.5 473.9,186.8 474,186.8 474,478.8 527.4,478.8 527.4,186.8 "/>
<path class="st4" d="M43.2,218.9l259-144.1c2.3-1.3,5.2-1.3,7.5,0l259,144.1c7.3,4.1,16.8,4.1,24.1,0l0,0c12.9-7.2,12.9-23.1,0-30.3
	L309.7,31.1c-2.3-1.3-5.2-1.3-7.5,0L19.2,188.6c-12.9,7.2-12.9,23.1,0,30.3l0,0C26.5,223,35.9,223,43.2,218.9z"/>
<path class="st5" d="M585.6,452.2H26.4c-9.8,0-17.7,6.6-17.7,14.8l0,0c0,8.2,7.9,14.8,17.7,14.8h559.2c9.8,0,17.7-6.6,17.7-14.8l0,0
	C603.3,458.9,595.4,452.2,585.6,452.2z"/>
<path class="st6" d="M603.2,465.7c0-0.1,0-0.2,0-0.3c-0.1-0.4-0.1-0.8-0.2-1.2c0-0.1-0.1-0.2-0.1-0.3c-0.1-0.3-0.2-0.6-0.3-1
	c0-0.1-0.1-0.2-0.1-0.4c-0.1-0.3-0.3-0.7-0.4-1c-0.1-0.2-0.2-0.3-0.2-0.5c-0.2-0.3-0.3-0.6-0.5-0.9c-3-4.7-8.9-7.9-15.6-7.9h-29.7v2
	c0,7.6-7.4,13.8-16.5,13.8h-513c-6.8,0-12.7-3.2-15.6-7.9c-1.4,2.2-2.2,4.8-2,7.6c0.4,8,8.6,14.2,18.2,14.2h529h29.7
	c9.8,0,17.7-6.6,17.7-14.8C603.3,466.6,603.3,466.1,603.2,465.7z"/>
<path class="st7" d="M602.5,203.1c0,0,0-0.1,0-0.1c0,0,0,0,0,0c0-0.5-0.1-0.9-0.1-1.4c0-0.1,0-0.2,0-0.3c-0.1-0.5-0.2-1-0.3-1.6
	c0-0.1,0-0.1-0.1-0.2c-0.2-0.5-0.3-1.1-0.5-1.6c0,0,0,0,0,0c-0.2-0.5-0.5-1-0.7-1.5c0-0.1-0.1-0.1-0.1-0.2c-0.2-0.4-0.4-0.8-0.7-1.1
	c0,0,0,0,0,0l0,0c-0.1-0.1-0.1-0.2-0.2-0.3c-0.1-0.1-0.1-0.2-0.2-0.2c-0.3-0.5-0.7-0.9-1.1-1.4c0,0,0,0,0,0c0,0,0,0,0,0
	c-1.5-1.7-3.3-3.2-5.6-4.5L566.6,174l-1.6,2c-4.5,5.6-11.8,8.7-19.3,8.7L309.7,53.4c-2.3-1.3-5.2-1.3-7.5,0l-259,144.1
	c-7.3,4.1-16.8,4.1-24.1,0l0,0c-2.2-1.3-4.1-2.8-5.6-4.5c-0.5,0.6-1,1.3-1.5,2c0,0,0,0,0,0c-0.2,0.2-0.3,0.5-0.4,0.8
	c-0.1,0.2-0.2,0.4-0.4,0.6c-0.2,0.4-0.3,0.7-0.5,1.1c-0.1,0.2-0.2,0.4-0.2,0.5c-0.2,0.5-0.3,0.9-0.5,1.4c0,0.1-0.1,0.2-0.1,0.2
	c-0.2,0.6-0.3,1.1-0.4,1.7c0,0.2,0,0.4-0.1,0.6c0,0.4-0.1,0.8-0.1,1.2c0,0.2,0,0.5,0,0.7c0,0.3,0,0.7,0,1c0,0.2,0.1,0.5,0.1,0.7
	c0,0.3,0.1,0.7,0.1,1c0,0.3,0.1,0.5,0.2,0.7c0.1,0.3,0.1,0.6,0.2,0.9c0.1,0.3,0.2,0.5,0.2,0.7c0.1,0.3,0.2,0.6,0.4,0.9
	c0.1,0.2,0.2,0.5,0.3,0.7c0.1,0.3,0.3,0.6,0.5,0.9c0.1,0.2,0.3,0.5,0.4,0.7c0.2,0.3,0.4,0.6,0.6,0.9c0.2,0.2,0.3,0.4,0.5,0.7
	c0.2,0.3,0.5,0.6,0.7,0.8c0.2,0.2,0.4,0.4,0.5,0.6c0.3,0.3,0.6,0.6,0.9,0.8c0.2,0.2,0.4,0.4,0.6,0.5c0.3,0.3,0.7,0.6,1.1,0.8
	c0.2,0.1,0.4,0.3,0.6,0.4c0.6,0.4,1.2,0.8,1.8,1.1l0,0c7.3,4.1,16.8,4.1,24.1,0l259-144.2c2.3-1.3,5.2-1.3,7.5,0l232.8,129.6
	l26.2,14.6c7.3,4.1,16.8,4.1,24.1,0c0.5-0.3,1.1-0.6,1.6-1c0,0,0.1-0.1,0.1-0.1c0.2-0.2,0.4-0.3,0.7-0.5c0.3-0.2,0.6-0.5,0.9-0.7
	c0,0,0.1,0,0.1-0.1c0,0,0,0,0.1-0.1c0.2-0.2,0.4-0.4,0.6-0.5c0.2-0.2,0.4-0.3,0.5-0.5c0.1-0.1,0.2-0.2,0.3-0.3c0,0,0,0,0.1-0.1
	c0.2-0.2,0.4-0.4,0.5-0.6c0.2-0.2,0.3-0.4,0.5-0.6c0,0,0.1-0.1,0.1-0.1c0-0.1,0.1-0.1,0.1-0.2c0.2-0.2,0.3-0.4,0.5-0.7
	c0.1-0.1,0.2-0.2,0.3-0.4c0.1-0.1,0.1-0.2,0.2-0.3c0-0.1,0.1-0.2,0.1-0.2c0.1-0.2,0.3-0.5,0.4-0.7c0.1-0.1,0.2-0.3,0.3-0.4
	c0,0,0-0.1,0.1-0.1c0.1-0.1,0.1-0.2,0.2-0.3c0.1-0.2,0.2-0.5,0.3-0.7c0-0.1,0.1-0.2,0.1-0.3c0-0.1,0.1-0.1,0.1-0.2
	c0.1-0.1,0.1-0.3,0.1-0.4c0.1-0.2,0.2-0.5,0.2-0.7c0-0.1,0.1-0.2,0.1-0.3c0,0,0-0.1,0-0.1c0-0.2,0.1-0.4,0.1-0.6
	c0.1-0.2,0.1-0.5,0.2-0.7c0-0.1,0-0.1,0-0.2c0,0,0-0.1,0-0.1c0-0.2,0-0.4,0.1-0.7c0-0.2,0.1-0.5,0.1-0.7c0-0.1,0-0.1,0-0.2
	c0,0,0,0,0,0c0-0.3,0-0.5,0-0.8C602.5,203.6,602.5,203.3,602.5,203.1z"/>
<path d="M585.6,444.9h-49.5V209.5l27.9,15.5c10.2,5.7,23.5,5.7,33.7,0c8.5-4.7,13.6-12.7,13.6-21.2s-5.1-16.5-13.6-21.2l-66.9-37.2
	c-4-2.2-9.4-1.3-12.1,2c-2.7,3.4-1.6,7.9,2.4,10.1l66.9,37.2c3.7,2.1,5.8,5.4,5.8,9.1s-2.1,7-5.8,9.1c-4.4,2.4-10,2.4-14.4,0
	l-259-144.1c-5.2-2.9-11.9-2.9-17.1,0l-259,144.1c-4.4,2.4-10.1,2.4-14.4,0c-3.7-2.1-5.8-5.4-5.8-9.1s2.1-7,5.8-9.1l115.3-64.1h0
	l29-16.1L306,37.8l170.1,94.7c4,2.2,9.4,1.3,12.1-2c2.7-3.4,1.6-7.9-2.4-10.1L314.6,25c-5.2-2.9-11.9-2.9-17.1,0l-84.6,47.1v-6.3
	h2.5c6.2,0,11.3-4.2,11.3-9.5V34.2c0-5.2-5.1-9.5-11.3-9.5h-92.1c-6.2,0-11.3,4.2-11.3,9.5v22.1c0,5.2,5.1,9.5,11.3,9.5h2.5v54.8
	l-111.4,62c-8.5,4.7-13.6,12.7-13.6,21.2s5.1,16.5,13.6,21.2c5.1,2.9,11,4.3,16.9,4.3c5.9,0,11.7-1.4,16.9-4.3l27.9-15.5v129.9
	c0,4,3.9,7.3,8.7,7.3c4.8,0,8.7-3.3,8.7-7.3V199.8L306,81.5l212.7,118.4v245.1H93.3v-60.3c0-4-3.9-7.3-8.7-7.3
	c-4.8,0-8.7,3.3-8.7,7.3v60.3H26.4C11.8,444.9,0,454.9,0,467c0,12.2,11.8,22.1,26.4,22.1h559.2c14.6,0,26.4-9.9,26.4-22.1
	C612,454.9,600.2,444.9,585.6,444.9z M195.4,81.8l-52.3,29.1V65.8h52.3V81.8z M129.3,39.3h79.9v11.9h-5.1h-69.7h-5.1L129.3,39.3
	L129.3,39.3z M585.6,474.6H26.4c-5,0-9-3.4-9-7.5c0-4.1,4-7.5,9-7.5h58.2h442.7h58.2c5,0,9,3.4,9,7.5
	C594.6,471.2,590.5,474.6,585.6,474.6z"/>
</svg>
