<?xml version="1.0" encoding="utf-8"?>
<!-- Generator: Adobe Illustrator 23.0.1, SVG Export Plug-In . SVG Version: 6.00 Build 0)  -->
<svg version="1.1" id="Capa_1" xmlns="http://www.w3.org/2000/svg" xmlns:xlink="http://www.w3.org/1999/xlink" x="0px" y="0px"
	 viewBox="0 0 562 512" style="enable-background:new 0 0 562 512;" xml:space="preserve">
<style type="text/css">
	.st0{fill:#FFB125;}
	.st1{fill:#FF901D;}
	.st2{fill:#E1EFFB;}
	.st3{fill:#CCDFED;}
	.st4{fill:#FF4C4C;}
	.st5{fill:#2D5872;}
	.st6{fill:#1D4859;}
	.st7{fill:#F33939;}
</style>
<rect x="123.4" y="49.8" class="st0" width="64" height="87"/>
<rect x="155.4" y="49.8" class="st1" width="32" height="87"/>
<path class="st0" d="M197.7,58.5h-84.6c-1.3,0-2.4-1-2.4-2.2V34.2c0-1.2,1.1-2.2,2.4-2.2h84.6c1.3,0,2.4,1,2.4,2.2v22.1
	C200.1,57.6,199.1,58.5,197.7,58.5z"/>
<polygon class="st2" points="484.2,186.8 281,63.6 77.7,186.8 77.7,478.8 484.3,478.8 484.3,186.8 "/>
<polygon class="st3" points="484.2,186.8 281,63.6 256.4,78.5 435.2,186.8 435.2,186.8 435.2,478.8 484.3,478.8 484.3,186.8 "/>
<path class="st4" d="M39.7,218.9L277.6,74.8c2.1-1.3,4.8-1.3,6.9,0l237.9,144.1c6.7,4.1,15.4,4.1,22.1,0l0,0
	c11.9-7.2,11.9-23.1,0-30.3l-260-157.5c-2.1-1.3-4.8-1.3-6.9,0l-260,157.5c-11.9,7.2-11.9,23.1,0,30.3l0,0
	C24.3,223,33,223,39.7,218.9z"/>
<path class="st5" d="M537.7,452.2H24.3c-9,0-16.3,6.6-16.3,14.8l0,0c0,8.2,7.3,14.8,16.3,14.8h513.5c9,0,16.3-6.6,16.3-14.8l0,0
	C554,458.9,546.7,452.2,537.7,452.2z"/>
<path class="st6" d="M553.9,465.7c0-0.1,0-0.2,0-0.3c-0.1-0.4-0.1-0.8-0.2-1.2c0-0.1-0.1-0.2-0.1-0.3c-0.1-0.3-0.2-0.6-0.3-1
	c0-0.1-0.1-0.2-0.1-0.4c-0.1-0.3-0.3-0.7-0.4-1c-0.1-0.2-0.1-0.3-0.2-0.5c-0.2-0.3-0.3-0.6-0.5-0.9c-2.7-4.7-8.1-7.9-14.4-7.9h-27.2
	v2c0,7.6-6.8,13.8-15.2,13.8H24.3c-6.2,0-11.6-3.2-14.4-7.9c-1.3,2.2-2,4.8-1.9,7.6c0.4,8,7.9,14.2,16.7,14.2h485.8h27.2
	c9,0,16.3-6.6,16.3-14.8C554,466.6,554,466.1,553.9,465.7z"/>
<path class="st7" d="M553.3,203.1c0,0,0-0.1,0-0.1c0,0,0,0,0,0c0-0.5-0.1-0.9-0.1-1.4c0-0.1,0-0.2,0-0.3c-0.1-0.5-0.2-1-0.3-1.6
	c0-0.1,0-0.1-0.1-0.2c-0.1-0.5-0.3-1.1-0.5-1.6c0,0,0,0,0,0c-0.2-0.5-0.4-1-0.7-1.5c0-0.1-0.1-0.1-0.1-0.2c-0.2-0.4-0.4-0.8-0.6-1.1
	c0,0,0,0,0,0l0,0c-0.1-0.1-0.1-0.2-0.2-0.3c0-0.1-0.1-0.2-0.1-0.2c-0.3-0.5-0.6-0.9-1-1.4c0,0,0,0,0,0c0,0,0,0,0,0
	c-1.3-1.7-3-3.2-5.1-4.5L520.3,174l-1.5,2c-4.1,5.6-10.9,8.7-17.7,8.7L284.4,53.4c-2.1-1.3-4.8-1.3-6.9,0L39.7,197.6
	c-6.7,4.1-15.4,4.1-22.1,0l0,0c-2.1-1.3-3.8-2.8-5.1-4.5c-0.5,0.6-0.9,1.3-1.3,2c0,0,0,0,0,0c-0.1,0.2-0.3,0.5-0.4,0.8
	c-0.1,0.2-0.2,0.4-0.3,0.6c-0.2,0.4-0.3,0.7-0.5,1.1c-0.1,0.2-0.2,0.4-0.2,0.5c-0.2,0.5-0.3,0.9-0.4,1.4c0,0.1-0.1,0.2-0.1,0.2
	c-0.1,0.6-0.3,1.1-0.3,1.7c0,0.2,0,0.4-0.1,0.6c0,0.4-0.1,0.8-0.1,1.2c0,0.2,0,0.5,0,0.7c0,0.3,0,0.7,0,1c0,0.2,0,0.5,0.1,0.7
	c0,0.3,0.1,0.7,0.1,1c0,0.3,0.1,0.5,0.1,0.7c0.1,0.3,0.1,0.6,0.2,0.9c0.1,0.3,0.1,0.5,0.2,0.7c0.1,0.3,0.2,0.6,0.3,0.9
	c0.1,0.2,0.2,0.5,0.3,0.7c0.1,0.3,0.3,0.6,0.4,0.9c0.1,0.2,0.2,0.5,0.4,0.7c0.2,0.3,0.3,0.6,0.5,0.9c0.1,0.2,0.3,0.4,0.4,0.7
	c0.2,0.3,0.4,0.6,0.6,0.8c0.2,0.2,0.3,0.4,0.5,0.6c0.2,0.3,0.5,0.6,0.8,0.8c0.2,0.2,0.4,0.4,0.5,0.5c0.3,0.3,0.7,0.6,1,0.8
	c0.2,0.1,0.3,0.3,0.5,0.4c0.5,0.4,1.1,0.8,1.7,1.1l0,0c6.7,4.1,15.4,4.1,22.1,0L277.6,74.8c2.1-1.3,4.8-1.3,6.9,0l213.8,129.6
	l24.1,14.6c6.7,4.1,15.4,4.1,22.1,0c0.5-0.3,1-0.6,1.4-1c0,0,0.1-0.1,0.1-0.1c0.2-0.2,0.4-0.3,0.6-0.5c0.3-0.2,0.6-0.5,0.9-0.7
	c0,0,0,0,0.1-0.1c0,0,0,0,0.1-0.1c0.2-0.2,0.4-0.4,0.5-0.5c0.2-0.2,0.3-0.3,0.5-0.5c0.1-0.1,0.2-0.2,0.2-0.3c0,0,0,0,0-0.1
	c0.2-0.2,0.3-0.4,0.5-0.6c0.2-0.2,0.3-0.4,0.5-0.6c0,0,0-0.1,0.1-0.1c0-0.1,0.1-0.1,0.1-0.2c0.2-0.2,0.3-0.4,0.4-0.7
	c0.1-0.1,0.2-0.2,0.3-0.4c0.1-0.1,0.1-0.2,0.2-0.3c0-0.1,0.1-0.2,0.1-0.2c0.1-0.2,0.3-0.5,0.4-0.7c0.1-0.1,0.2-0.3,0.2-0.4
	c0,0,0-0.1,0-0.1c0.1-0.1,0.1-0.2,0.1-0.3c0.1-0.2,0.2-0.5,0.3-0.7c0-0.1,0.1-0.2,0.1-0.3c0-0.1,0.1-0.1,0.1-0.2
	c0.1-0.1,0.1-0.3,0.1-0.4c0.1-0.2,0.2-0.5,0.2-0.7c0-0.1,0.1-0.2,0.1-0.3c0,0,0-0.1,0-0.1c0-0.2,0.1-0.4,0.1-0.6
	c0.1-0.2,0.1-0.5,0.1-0.7c0-0.1,0-0.1,0-0.2c0,0,0-0.1,0-0.1c0-0.2,0-0.4,0.1-0.7c0-0.2,0.1-0.5,0.1-0.7c0-0.1,0-0.1,0-0.2
	c0,0,0,0,0,0c0-0.3,0-0.5,0-0.8C553.3,203.6,553.3,203.3,553.3,203.1z"/>
<path d="M537.7,444.9h-45.5V209.5l25.6,15.5c9.4,5.7,21.6,5.7,31,0c7.8-4.7,12.5-12.7,12.5-21.2s-4.7-16.5-12.5-21.2l-61.4-37.2
	c-3.7-2.2-8.6-1.3-11.1,2c-2.4,3.4-1.4,7.9,2.2,10.1l61.4,37.2c3.4,2.1,5.3,5.4,5.3,9.1s-1.9,7-5.3,9.1c-4,2.4-9.2,2.4-13.3,0
	L288.9,68.7c-4.8-2.9-11-2.9-15.7,0L35.3,212.9c-4,2.4-9.2,2.4-13.3,0c-3.4-2.1-5.3-5.4-5.3-9.1s1.9-7,5.3-9.1l105.8-64.1h0
	l26.6-16.1L281,37.8l156.2,94.7c3.7,2.2,8.6,1.3,11.1-2c2.4-3.4,1.4-7.9-2.2-10.1L288.9,25c-4.8-2.9-11-2.9-15.7,0l-77.7,47.1v-6.3
	h2.3c5.7,0,10.4-4.2,10.4-9.5V34.2c0-5.2-4.7-9.5-10.4-9.5h-84.6c-5.7,0-10.4,4.2-10.4,9.5v22.1c0,5.2,4.7,9.5,10.4,9.5h2.3v54.8
	l-102.3,62c-7.8,4.7-12.5,12.7-12.5,21.2s4.7,16.5,12.5,21.2c4.7,2.9,10.1,4.3,15.5,4.3c5.4,0,10.8-1.4,15.5-4.3l25.6-15.5v129.9
	c0,4,3.6,7.3,8,7.3c4.4,0,8-3.3,8-7.3V199.8L281,81.5l195.3,118.3v245.1H85.7v-60.3c0-4-3.6-7.3-8-7.3c-4.4,0-8,3.3-8,7.3v60.3H24.3
	C10.9,444.9,0,454.9,0,467c0,12.2,10.9,22.1,24.3,22.1h513.5c13.4,0,24.3-9.9,24.3-22.1C562,454.9,551.1,444.9,537.7,444.9z
	 M179.4,81.8l-48,29.1V65.8h48V81.8z M118.7,39.3h73.4v11.9h-4.7h-64h-4.7L118.7,39.3L118.7,39.3z M537.7,474.6H24.3
	c-4.6,0-8.3-3.4-8.3-7.5c0-4.1,3.7-7.5,8.3-7.5h53.5h406.6h53.5c4.6,0,8.3,3.4,8.3,7.5C546,471.2,542.3,474.6,537.7,474.6z"/>
</svg>
