<?xml version="1.0" encoding="utf-8"?>
<!-- Generator: Adobe Illustrator 23.0.1, SVG Export Plug-In . SVG Version: 6.00 Build 0)  -->
<svg version="1.1" id="Capa_1" xmlns="http://www.w3.org/2000/svg" xmlns:xlink="http://www.w3.org/1999/xlink" x="0px" y="0px"
	 viewBox="0 0 662 512" style="enable-background:new 0 0 662 512;" xml:space="preserve">
<style type="text/css">
	.st0{fill:#FFB125;}
	.st1{fill:#FF901D;}
	.st2{fill:#E1EFFB;}
	.st3{fill:#CCDFED;}
	.st4{fill:#FF4C4C;}
	.st5{fill:#2D5872;}
	.st6{fill:#1D4859;}
	.st7{fill:#F33939;}
</style>
<rect x="145.4" y="49.8" class="st0" width="75.4" height="87"/>
<rect x="183.1" y="49.8" class="st1" width="37.7" height="87"/>
<path class="st0" d="M232.9,58.5h-99.7c-1.6,0-2.8-1-2.8-2.2V34.2c0-1.2,1.3-2.2,2.8-2.2h99.7c1.6,0,2.8,1,2.8,2.2v22.1
	C235.7,57.5,234.5,58.5,232.9,58.5z"/>
<polygon class="st2" points="570.4,186.8 330.9,63.6 91.5,186.8 91.5,478.8 570.5,478.8 570.5,186.8 "/>
<polygon class="st3" points="570.4,186.8 330.9,63.6 302.1,78.5 512.6,186.8 512.7,186.8 512.7,478.8 570.5,478.8 570.5,186.8 "/>
<path class="st4" d="M46.8,218.9L327,74.8c2.5-1.3,5.6-1.3,8.1,0l280.2,144.1c7.9,4.1,18.2,4.1,26,0l0,0c14-7.2,14-23.1,0-30.3
	L335,31.1c-2.5-1.3-5.6-1.3-8.1,0L20.7,188.6c-14,7.2-14,23.1,0,30.3l0,0C28.6,223,38.9,223,46.8,218.9z"/>
<path class="st5" d="M633.4,452.2H28.6c-10.6,0-19.2,6.6-19.2,14.8l0,0c0,8.2,8.6,14.8,19.2,14.8h604.9c10.6,0,19.2-6.6,19.2-14.8
	l0,0C652.6,458.9,644,452.2,633.4,452.2z"/>
<path class="st6" d="M652.5,465.7c0-0.1,0-0.2,0-0.3c-0.1-0.4-0.1-0.8-0.2-1.2c0-0.1-0.1-0.2-0.1-0.3c-0.1-0.3-0.2-0.6-0.3-1
	c0-0.1-0.1-0.2-0.1-0.4c-0.1-0.3-0.3-0.7-0.5-1c-0.1-0.2-0.2-0.3-0.3-0.5c-0.2-0.3-0.4-0.6-0.6-0.9c-3.2-4.7-9.6-7.9-16.9-7.9h-32.1
	v2c0,7.6-8,13.8-17.9,13.8H28.6c-7.3,0-13.7-3.2-16.9-7.9c-1.5,2.2-2.4,4.8-2.2,7.6c0.4,8,9.3,14.2,19.7,14.2h572.2h32.1
	c10.6,0,19.2-6.6,19.2-14.8C652.6,466.6,652.5,466.1,652.5,465.7z"/>
<path class="st7" d="M651.7,203.1c0,0,0-0.1,0-0.1c0,0,0,0,0,0c0-0.5-0.1-0.9-0.2-1.4c0-0.1,0-0.2,0-0.3c-0.1-0.5-0.2-1-0.4-1.6
	c0-0.1,0-0.1-0.1-0.2c-0.2-0.5-0.4-1.1-0.6-1.6c0,0,0,0,0,0c-0.2-0.5-0.5-1-0.8-1.5c0-0.1-0.1-0.1-0.1-0.2c-0.2-0.4-0.5-0.8-0.7-1.1
	c0,0,0,0,0,0l0,0c-0.1-0.1-0.1-0.2-0.2-0.3c-0.1-0.1-0.1-0.2-0.2-0.2c-0.4-0.5-0.8-0.9-1.2-1.4c0,0,0,0,0,0c0,0,0,0,0,0
	c-1.6-1.7-3.6-3.2-6-4.5L612.9,174l-1.7,2c-4.8,5.6-12.8,8.7-20.9,8.7L335,53.4c-2.5-1.3-5.6-1.3-8.1,0L46.8,197.6
	c-7.9,4.1-18.2,4.1-26,0l0,0c-2.4-1.3-4.4-2.8-6-4.5c-0.6,0.6-1.1,1.3-1.6,2c0,0,0,0,0,0c-0.2,0.2-0.3,0.5-0.5,0.8
	c-0.1,0.2-0.3,0.4-0.4,0.6c-0.2,0.4-0.4,0.7-0.5,1.1c-0.1,0.2-0.2,0.4-0.3,0.5c-0.2,0.5-0.4,0.9-0.5,1.4c0,0.1-0.1,0.2-0.1,0.2
	c-0.2,0.6-0.3,1.1-0.4,1.7c0,0.2,0,0.4-0.1,0.6c-0.1,0.4-0.1,0.8-0.1,1.2c0,0.2,0,0.5,0,0.7c0,0.3,0,0.7,0,1c0,0.2,0.1,0.5,0.1,0.7
	c0,0.3,0.1,0.7,0.1,1c0,0.3,0.1,0.5,0.2,0.7c0.1,0.3,0.2,0.6,0.3,0.9c0.1,0.3,0.2,0.5,0.3,0.7c0.1,0.3,0.2,0.6,0.4,0.9
	c0.1,0.2,0.2,0.5,0.4,0.7c0.2,0.3,0.3,0.6,0.5,0.9c0.1,0.2,0.3,0.5,0.4,0.7c0.2,0.3,0.4,0.6,0.6,0.9c0.2,0.2,0.3,0.4,0.5,0.7
	c0.2,0.3,0.5,0.6,0.8,0.8c0.2,0.2,0.4,0.4,0.6,0.6c0.3,0.3,0.6,0.6,0.9,0.8c0.2,0.2,0.4,0.4,0.6,0.5c0.4,0.3,0.8,0.6,1.2,0.8
	c0.2,0.1,0.4,0.3,0.6,0.4c0.6,0.4,1.3,0.8,2,1.1l0,0c7.9,4.1,18.2,4.1,26,0L327,74.8c2.5-1.3,5.6-1.3,8.1,0l251.8,129.6l28.4,14.6
	c7.9,4.1,18.2,4.1,26,0c0.6-0.3,1.2-0.6,1.7-1c0.1,0,0.1-0.1,0.2-0.1c0.3-0.2,0.5-0.3,0.7-0.5c0.3-0.2,0.7-0.5,1-0.7
	c0,0,0.1,0,0.1-0.1c0,0,0,0,0.1-0.1c0.2-0.2,0.4-0.4,0.6-0.5c0.2-0.2,0.4-0.3,0.6-0.5c0.1-0.1,0.2-0.2,0.3-0.3c0,0,0,0,0.1-0.1
	c0.2-0.2,0.4-0.4,0.6-0.6c0.2-0.2,0.4-0.4,0.5-0.6c0,0,0.1-0.1,0.1-0.1c0.1-0.1,0.1-0.1,0.1-0.2c0.2-0.2,0.4-0.4,0.5-0.7
	c0.1-0.1,0.2-0.2,0.3-0.4c0.1-0.1,0.1-0.2,0.2-0.3c0.1-0.1,0.1-0.2,0.1-0.2c0.2-0.2,0.3-0.5,0.4-0.7c0.1-0.1,0.2-0.3,0.3-0.4
	c0,0,0-0.1,0.1-0.1c0.1-0.1,0.1-0.2,0.2-0.3c0.1-0.2,0.2-0.5,0.4-0.7c0-0.1,0.1-0.2,0.1-0.3c0-0.1,0.1-0.1,0.1-0.2
	c0.1-0.1,0.1-0.3,0.2-0.4c0.1-0.2,0.2-0.5,0.3-0.7c0-0.1,0.1-0.2,0.1-0.3c0,0,0-0.1,0-0.1c0.1-0.2,0.1-0.4,0.1-0.6
	c0.1-0.2,0.1-0.5,0.2-0.7c0-0.1,0-0.1,0-0.2c0,0,0-0.1,0-0.1c0-0.2,0-0.4,0.1-0.7c0-0.2,0.1-0.5,0.1-0.7c0-0.1,0-0.1,0-0.2
	c0,0,0,0,0,0c0-0.3,0-0.5,0-0.8C651.7,203.6,651.7,203.3,651.7,203.1z"/>
<path d="M633.4,444.9h-53.5V209.5L610,225c11.1,5.7,25.4,5.7,36.5,0c9.2-4.7,14.7-12.7,14.7-21.2s-5.5-16.5-14.7-21.2l-72.3-37.2
	c-4.3-2.2-10.2-1.3-13.1,2c-2.9,3.4-1.7,7.9,2.6,10.1l72.3,37.2c4,2.1,6.3,5.4,6.3,9.1s-2.3,7-6.3,9.1c-4.7,2.4-10.9,2.4-15.6,0
	L340.3,68.7c-5.6-2.9-12.9-2.9-18.5,0L41.6,212.9c-4.7,2.4-10.9,2.4-15.6,0c-4-2.1-6.3-5.4-6.3-9.1s2.3-7,6.3-9.1l124.7-64.1h0
	l31.3-16.1l149-76.7l184,94.7c4.3,2.2,10.2,1.3,13.1-2c2.9-3.4,1.7-7.9-2.6-10.1L340.3,25c-5.6-2.9-12.9-2.9-18.5,0l-91.5,47.1v-6.3
	h2.7c6.8,0,12.2-4.2,12.2-9.5V34.2c0-5.2-5.5-9.5-12.2-9.5h-99.7c-6.8,0-12.2,4.2-12.2,9.5v22.1c0,5.2,5.5,9.5,12.2,9.5h2.7v54.8
	l-120.5,62c-9.2,4.7-14.7,12.7-14.7,21.2s5.5,16.5,14.7,21.2c5.5,2.9,11.9,4.3,18.2,4.3c6.3,0,12.7-1.4,18.2-4.3l30.1-15.5v129.9
	c0,4,4.2,7.3,9.4,7.3c5.2,0,9.4-3.3,9.4-7.3V199.8L331,81.5l230,118.4v245.1H101v-60.3c0-4-4.2-7.3-9.4-7.3c-5.2,0-9.4,3.3-9.4,7.3
	v60.3H28.6C12.8,444.9,0,454.9,0,467c0,12.2,12.8,22.1,28.6,22.1h604.9c15.8,0,28.6-9.9,28.6-22.1
	C662,454.9,649.2,444.9,633.4,444.9z M211.4,81.8l-56.5,29.1V65.8h56.5V81.8z M139.9,39.3h86.5v11.9h-5.5h-75.4h-5.5L139.9,39.3
	L139.9,39.3z M633.4,474.6H28.6c-5.4,0-9.7-3.4-9.7-7.5c0-4.1,4.4-7.5,9.7-7.5h63h478.9h63c5.4,0,9.7,3.4,9.7,7.5
	C643.2,471.2,638.8,474.6,633.4,474.6z"/>
</svg>
