<?xml version="1.0" encoding="utf-8"?>
<!-- Generator: Adobe Illustrator 23.0.1, SVG Export Plug-In . SVG Version: 6.00 Build 0)  -->
<svg version="1.1" id="Capa_1" xmlns="http://www.w3.org/2000/svg" xmlns:xlink="http://www.w3.org/1999/xlink" x="0px" y="0px"
	 viewBox="0 0 512 512" style="enable-background:new 0 0 512 512;" xml:space="preserve">
<style type="text/css">
	.st0{fill:#E8679C;}
	.st1{fill:#D65C94;}
	.st2{fill:#AF8A82;}
	.st3{fill:#A07C75;}
	.st4{fill:#927266;}
	.st5{fill:#2D5872;}
	.st6{fill:#1D4859;}
	.st7{fill:#FF7BAC;}
	.st8{fill:#FFB125;}
	.st9{fill:#FFFFFF;}
	.st10{fill:#77DD00;}
	.st11{fill:#6EC102;}
	.st12{fill:#E1EFFB;}
</style>
<rect x="306.6" y="237" class="st0" width="175.5" height="219.9"/>
<rect x="437.6" y="237" class="st1" width="44.5" height="219.9"/>
<path class="st2" d="M483.1,179.4c-0.6-2-2.4-3.3-4.5-3.3H300.8c-2.1,0-3.9,1.4-4.5,3.3L274.7,252v14.4c0,3,2.4,5.5,5.5,5.5h219.1
	c3,0,5.5-2.4,5.5-5.5V252L483.1,179.4z"/>
<path class="st3" d="M478.7,176.1h-44.5c2.1,0,3.9,1.4,4.5,3.3l12.1,40.8c3.3,10.9-4.9,21.9-16.4,21.9H277.7l0,0l-2.9,25.4
	c0.5,2.5,2.7,4.4,5.3,4.4h219.1c3,0,5.5-2.4,5.5-5.5V252l-21.6-72.7C482.5,177.4,480.7,176.1,478.7,176.1z"/>
<path class="st4" d="M499.3,271.9H280.2c-3,0-5.5-2.4-5.5-5.5V252h230v14.4C504.7,269.5,502.3,271.9,499.3,271.9z"/>
<path class="st5" d="M432.1,337h-55.4c-12.2,0-22.1,9.9-22.1,22.1v93.6h99.6v-93.6C454.2,346.9,444.3,337,432.1,337z"/>
<rect x="354.6" y="367" class="st6" width="99.6" height="30"/>
<rect x="354.6" y="397" class="st5" width="99.6" height="30"/>
<rect x="354.6" y="427" class="st6" width="99.6" height="30"/>
<rect x="23.3" y="129.6" class="st7" width="303.3" height="327.3"/>
<rect x="283.1" y="129.6" class="st0" width="43.6" height="327.3"/>
<path class="st8" d="M213.8,456.9h-82.4V332c0-3.6,2.9-6.5,6.5-6.5h69.5c3.6,0,6.5,2.9,6.5,6.5V456.9z"/>
<g>
	<path class="st9" d="M90.9,401.7H58.3c-4,0-7.2-3.2-7.2-7.2v-55.1c0-4,3.2-7.2,7.2-7.2h32.6c4,0,7.2,3.2,7.2,7.2v55.1
		C98.1,398.5,94.9,401.7,90.9,401.7z"/>
	<path class="st9" d="M286.9,401.7h-32.6c-4,0-7.2-3.2-7.2-7.2v-55.1c0-4,3.2-7.2,7.2-7.2h32.6c4,0,7.2,3.2,7.2,7.2v55.1
		C294.1,398.5,290.9,401.7,286.9,401.7z"/>
	<path class="st9" d="M90.9,241.6H58.3c-4,0-7.2-3.2-7.2-7.2v-55.2c0-4,3.2-7.2,7.2-7.2h32.6c4,0,7.2,3.2,7.2,7.2v55.1
		C98.1,238.3,94.9,241.6,90.9,241.6z"/>
	<path class="st9" d="M286.9,241.6h-32.6c-4,0-7.2-3.2-7.2-7.2v-55.2c0-4,3.2-7.2,7.2-7.2h32.6c4,0,7.2,3.2,7.2,7.2v55.1
		C294.1,238.3,290.9,241.6,286.9,241.6z"/>
	<path class="st9" d="M188.9,241.6h-32.6c-4,0-7.2-3.2-7.2-7.2v-55.2c0-4,3.2-7.2,7.2-7.2h32.6c4,0,7.2,3.2,7.2,7.2v55.1
		C196.1,238.3,192.9,241.6,188.9,241.6z"/>
</g>
<path class="st2" d="M313.1,46.2c-0.7-2.2-2.7-3.7-5-3.7H37.1c-2.3,0-4.4,1.5-5,3.7L7.6,128.7v17.7c0,1.6,1.3,3,3,3h324.1
	c1.6,0,3-1.3,3-3v-17.7L313.1,46.2z"/>
<path class="st3" d="M337.7,137v-8.3l-2.6-8.8l-1.4-4.6l-20.6-69c-0.5-1.7-1.8-2.9-3.3-3.5c-0.3-0.1-0.5-0.2-0.8-0.2
	c-0.3,0-0.6-0.1-0.9-0.1h-45c2.3,0,4.4,1.5,5,3.7l8,27c6.8,23-10.4,46-34.3,46H10.4l-0.2,0.6l-2.6,8.8l0,0v17.7c0,1.6,1.3,3,3,3
	h324.1c0.6,0,1.2-0.2,1.7-0.5c0.2-0.1,0.3-0.2,0.4-0.4c0.5-0.5,0.9-1.3,0.9-2.1L337.7,137L337.7,137z"/>
<path class="st4" d="M334.7,149.4H10.5c-1.6,0-3-1.3-3-3v-17.7h330.1v17.7C337.7,148.1,336.3,149.4,334.7,149.4z"/>
<path class="st10" d="M483.3,444.4H19.8c-6.9,0-12.6,5.6-12.6,12.6l0,0c0,6.9,5.6,12.6,12.6,12.6h463.4c6.9,0,12.6-5.6,12.6-12.6
	l0,0C495.8,450,490.2,444.4,483.3,444.4z"/>
<path class="st11" d="M493.5,464.3c0.1-0.2,0.2-0.3,0.3-0.5c0.1-0.2,0.2-0.3,0.3-0.5c0.1-0.2,0.2-0.3,0.3-0.5
	c0.1-0.2,0.2-0.4,0.3-0.5c0.1-0.2,0.2-0.4,0.2-0.5c0.1-0.2,0.1-0.4,0.2-0.6c0.1-0.2,0.1-0.4,0.2-0.6c0.1-0.2,0.1-0.4,0.1-0.6
	c0-0.2,0.1-0.4,0.1-0.6c0-0.2,0.1-0.4,0.1-0.6c0-0.2,0.1-0.4,0.1-0.6l0,0l0,0c0-0.4,0.1-0.8,0.1-1.3c0-0.3,0-0.7-0.1-1v-0.2
	c0-0.1,0-0.1,0-0.2c0-0.2,0-0.3-0.1-0.5c0-0.3-0.1-0.6-0.2-1c0-0.2-0.1-0.3-0.1-0.5c-0.1-0.4-0.2-0.7-0.4-1.1c0-0.1,0-0.1-0.1-0.2
	c-0.2-0.4-0.4-0.8-0.6-1.2c0,0,0-0.1-0.1-0.1c0,0,0,0,0,0c-2.1-3.9-6.3-6.6-11-6.6h-32l0,0c0,7.3-5.9,13.2-13.2,13.2H19.8
	c-4.8,0-8.9-2.7-11.1-6.6c-1.1,2-1.7,4.4-1.5,7c0.5,6.6,6.3,11.6,12.9,11.6h431.1h32c0.4,0,0.8,0,1.2-0.1c0.1,0,0.3,0,0.4-0.1
	c0.3,0,0.5-0.1,0.8-0.1c0.2,0,0.3-0.1,0.5-0.1c0.2-0.1,0.5-0.1,0.7-0.2c0.2,0,0.3-0.1,0.5-0.2c0.2-0.1,0.4-0.1,0.6-0.2
	c0.2-0.1,0.3-0.1,0.5-0.2c0.2-0.1,0.4-0.2,0.6-0.3c0.2-0.1,0.3-0.2,0.5-0.3c0.2-0.1,0.4-0.2,0.5-0.3c0.2-0.1,0.3-0.2,0.5-0.3
	c0.2-0.1,0.3-0.2,0.5-0.4c0.1-0.1,0.3-0.2,0.4-0.4c0.2-0.1,0.3-0.3,0.5-0.4c0.1-0.1,0.3-0.3,0.4-0.4c0.1-0.1,0.3-0.3,0.4-0.4
	c0.1-0.1,0.2-0.3,0.4-0.4C493.2,464.6,493.3,464.4,493.5,464.3z"/>
<g>
	<path class="st12" d="M90.9,172H74.6v69.6h16.3c4,0,7.2-3.2,7.2-7.2v-55.2C98.1,175.2,94.9,172,90.9,172z"/>
	<path class="st12" d="M90.9,332.1H74.6v69.6h16.3c4,0,7.2-3.2,7.2-7.2v-55.1C98.1,335.3,94.9,332.1,90.9,332.1z"/>
	<path class="st12" d="M188.9,172h-16.3v69.6h16.3c4,0,7.2-3.2,7.2-7.2v-55.2C196.1,175.2,192.9,172,188.9,172z"/>
	<path class="st12" d="M286.9,172h-16.3v69.6h16.3c4,0,7.2-3.2,7.2-7.2v-55.2C294.1,175.2,290.9,172,286.9,172z"/>
	<path class="st12" d="M286.9,332.2h-16.3v69.6h16.3c4,0,7.2-3.2,7.2-7.2v-55.1C294.1,335.4,290.9,332.2,286.9,332.2z"/>
</g>
<path d="M190.8,376.5c-4,0-7.3,3.2-7.3,7.3v15c0,4,3.2,7.3,7.3,7.3s7.3-3.2,7.3-7.3v-15C198.1,379.7,194.8,376.5,190.8,376.5z"/>
<path d="M511.9,251.1c0-0.1,0-0.1,0-0.2c0-0.3-0.1-0.6-0.2-0.9c0,0,0,0,0,0l0,0c0,0,0-0.1,0-0.1l-21.6-72.5c-1.5-5-6.2-8.5-11.4-8.5
	h-53.5c-4,0-7.3,3.2-7.3,7.3s3.2,7.3,7.3,7.3h51.6l18.3,61.5H333.9v-61.5h46.2c4,0,7.3-3.2,7.3-7.3s-3.2-7.3-7.3-7.3h-46.2v-12.1
	h0.8c5.6,0,10.2-4.6,10.2-10.2v-17.7c0-0.3,0-0.6-0.1-0.9c0-0.1,0-0.1,0-0.2c0-0.3-0.1-0.6-0.2-0.9c0,0,0,0,0,0l0,0c0,0,0-0.1,0-0.1
	L320,44.2c-1.6-5.3-6.5-8.9-12-8.9H37.1c-5.5,0-10.4,3.7-12,8.9L0.6,126.5c0,0,0,0.1,0,0.1l0,0c0,0,0,0,0,0
	c-0.1,0.3-0.1,0.6-0.2,0.9c0,0.1,0,0.1,0,0.2c0,0.3-0.1,0.6-0.1,0.9v17.7c0,5.6,4.6,10.2,10.2,10.2H16v182.2c0,4,3.2,7.3,7.3,7.3
	s7.3-3.2,7.3-7.3V156.7h288.8v19.4v76v19.9v165.2h-98.3V332c0-7.6-6.2-13.7-13.7-13.7h-69.5c-7.6,0-13.7,6.2-13.7,13.7v105.1H30.5
	V384c0-4-3.2-7.3-7.3-7.3S16,380,16,384v53.5c-9.1,1.8-16,9.8-16,19.4c0,10.9,8.9,19.8,19.8,19.8h463.4c10.9,0,19.8-8.9,19.8-19.8
	c0-8.8-5.8-16.3-13.7-18.8V279.2h9.9c7,0,12.7-5.7,12.7-12.7V252C512,251.7,512,251.4,511.9,251.1z M333.9,279.2h141v157.9h-13.4
	V427v-30v-30v-7.9c0-16.2-13.2-29.4-29.4-29.4h-55.4c-16.2,0-29.4,13.2-29.4,29.4v7.9v30v30v10.2h-13.5L333.9,279.2L333.9,279.2z
	 M361.9,419.7v-15.5H447v15.5H361.9z M447,434.2v2.9h-85.1v-2.9H447z M361.9,389.7v-15.5H447v15.5H361.9z M361.9,359.7v-0.6
	c0-8.2,6.7-14.9,14.9-14.9h55.4c8.2,0,14.9,6.7,14.9,14.9v0.6H361.9z M38.6,49.7h267.9l21.4,71.7H17.3L38.6,49.7z M23.3,142.2h-8.5
	V136h315.6v6.2h-3.8H23.3z M138.6,332.8h67.9v104.3h-67.9V332.8z M483.3,462.3H19.8c-2.9,0-5.3-2.4-5.3-5.3s2.4-5.3,5.3-5.3h3.5
	h108.1h82.4h112.8h28h99.6h27.9h1.1c2.9,0,5.3,2.4,5.3,5.3S486.2,462.3,483.3,462.3z M497.5,264.7h-15.4H333.9v-5.4h163.6
	L497.5,264.7L497.5,264.7z"/>
<path d="M43.8,394.5c0,8,6.5,14.5,14.5,14.5h32.6c8,0,14.5-6.5,14.5-14.5v-55.1c0-8-6.5-14.5-14.5-14.5H58.3
	c-8,0-14.5,6.5-14.5,14.5L43.8,394.5L43.8,394.5z M90.9,339.3l0,55.1l-32.6,0l0-55.1L90.9,339.3z"/>
<path d="M239.8,394.5c0,8,6.5,14.5,14.5,14.5h32.6c8,0,14.5-6.5,14.5-14.5v-55.1c0-8-6.5-14.5-14.5-14.5h-32.6
	c-8,0-14.5,6.5-14.5,14.5L239.8,394.5L239.8,394.5z M286.9,339.3l0,55.1l-32.6,0l0-55.1L286.9,339.3z"/>
<path d="M58.3,248.8h32.6c8,0,14.5-6.5,14.5-14.5v-55.2c0-8-6.5-14.5-14.5-14.5H58.3c-8,0-14.5,6.5-14.5,14.5v55.1
	C43.8,242.3,50.3,248.8,58.3,248.8z M90.9,179.2l0,55.1l-32.6,0l0-55.1L90.9,179.2z"/>
<path d="M254.3,248.8h32.6c8,0,14.5-6.5,14.5-14.5v-55.2c0-8-6.5-14.5-14.5-14.5h-32.6c-8,0-14.5,6.5-14.5,14.5v55.1
	C239.8,242.3,246.3,248.8,254.3,248.8z M286.9,179.2l0,55.1l-32.6,0l0-55.1L286.9,179.2z"/>
<path d="M188.9,248.8c8,0,14.5-6.5,14.5-14.5v-55.2c0-8-6.5-14.5-14.5-14.5h-32.6c-8,0-14.5,6.5-14.5,14.5v55.1
	c0,8,6.5,14.5,14.5,14.5L188.9,248.8L188.9,248.8z M188.9,179.2l0,55.1l-32.6,0l0-55.1L188.9,179.2z"/>
</svg>
