<?xml version="1.0" encoding="utf-8"?>
<!-- Generator: Adobe Illustrator 23.0.1, SVG Export Plug-In . SVG Version: 6.00 Build 0)  -->
<svg version="1.1" id="Capa_1" xmlns="http://www.w3.org/2000/svg" xmlns:xlink="http://www.w3.org/1999/xlink" x="0px" y="0px"
	 viewBox="0 0 512 512" style="enable-background:new 0 0 512 512;" xml:space="preserve">
<style type="text/css">
	.st0{fill:#FFB125;}
	.st1{fill:#FF901D;}
	.st2{fill:#E1EFFB;}
	.st3{fill:#CCDFED;}
	.st4{fill:#FF4C4C;}
	.st5{fill:#2D5872;}
	.st6{fill:#1D4859;}
	.st7{fill:#F33939;}
</style>
<rect x="112.5" y="49.8" class="st0" width="58.3" height="87"/>
<rect x="141.6" y="49.8" class="st1" width="29.1" height="87"/>
<path class="st0" d="M180.1,58.5h-77.1c-1.2,0-2.2-1-2.2-2.2V34.2c0-1.2,1-2.2,2.2-2.2h77.1c1.2,0,2.2,1,2.2,2.2v22.1
	C182.3,57.5,181.3,58.5,180.1,58.5z"/>
<polygon class="st2" points="441.1,186.8 256,63.6 70.8,186.8 70.8,478.8 441.2,478.8 441.2,186.8 "/>
<polygon class="st3" points="441.1,186.8 256,63.6 233.6,78.5 396.4,186.8 396.5,186.8 396.5,478.8 441.2,478.8 441.2,186.8 "/>
<path class="st4" d="M36.2,218.9L252.9,74.8c1.9-1.3,4.4-1.3,6.3,0l216.7,144.1c6.1,4.1,14,4.1,20.1,0l0,0
	c10.8-7.2,10.8-23.1,0-30.3L259.1,31.1c-1.9-1.3-4.4-1.3-6.3,0L16,188.6c-10.8,7.2-10.8,23.1,0,30.3l0,0
	C22.1,223,30.1,223,36.2,218.9z"/>
<path class="st5" d="M489.9,452.2H22.1c-8.2,0-14.8,6.6-14.8,14.8l0,0c0,8.2,6.6,14.8,14.8,14.8h467.8c8.2,0,14.8-6.6,14.8-14.8l0,0
	C504.7,458.9,498.1,452.2,489.9,452.2z"/>
<path class="st6" d="M504.6,465.7c0-0.1,0-0.2,0-0.3c0-0.4-0.1-0.8-0.2-1.2c0-0.1,0-0.2-0.1-0.3c-0.1-0.3-0.2-0.6-0.2-1
	c0-0.1-0.1-0.2-0.1-0.4c-0.1-0.3-0.2-0.7-0.4-1c-0.1-0.2-0.1-0.3-0.2-0.5c-0.1-0.3-0.3-0.6-0.4-0.9c-2.5-4.7-7.4-7.9-13.1-7.9h-24.8
	v2c0,7.6-6.2,13.8-13.8,13.8H22.1c-5.7,0-10.6-3.2-13.1-7.9c-1.2,2.2-1.8,4.8-1.7,7.6c0.3,8,7.2,14.2,15.2,14.2h442.6h24.8
	c8.2,0,14.8-6.6,14.8-14.8C504.7,466.6,504.7,466.1,504.6,465.7z"/>
<path class="st7" d="M504.1,203.1c0,0,0-0.1,0-0.1c0,0,0,0,0,0c0-0.5-0.1-0.9-0.1-1.4c0-0.1,0-0.2,0-0.3c-0.1-0.5-0.2-1-0.3-1.6
	c0-0.1,0-0.1,0-0.2c-0.1-0.5-0.3-1.1-0.4-1.6c0,0,0,0,0,0c-0.2-0.5-0.4-1-0.6-1.5c0-0.1-0.1-0.1-0.1-0.2c-0.2-0.4-0.4-0.8-0.6-1.1
	c0,0,0,0,0,0l0,0c-0.1-0.1-0.1-0.2-0.2-0.3c0-0.1-0.1-0.2-0.1-0.2c-0.3-0.5-0.6-0.9-0.9-1.4c0,0,0,0,0,0c0,0,0,0,0,0
	c-1.2-1.7-2.8-3.2-4.7-4.5L474,174l-1.3,2c-3.7,5.6-9.9,8.7-16.2,8.7L259.1,53.4c-1.9-1.3-4.4-1.3-6.3,0L36.2,197.6
	c-6.1,4.1-14,4.1-20.1,0l0,0c-1.9-1.3-3.4-2.8-4.7-4.5c-0.5,0.6-0.9,1.3-1.2,2c0,0,0,0,0,0c-0.1,0.2-0.2,0.5-0.4,0.8
	c-0.1,0.2-0.2,0.4-0.3,0.6c-0.2,0.4-0.3,0.7-0.4,1.1c-0.1,0.2-0.1,0.4-0.2,0.5c-0.2,0.5-0.3,0.9-0.4,1.4c0,0.1,0,0.2-0.1,0.2
	c-0.1,0.6-0.2,1.1-0.3,1.7c0,0.2,0,0.4,0,0.6c0,0.4-0.1,0.8-0.1,1.2c0,0.2,0,0.5,0,0.7c0,0.3,0,0.7,0,1c0,0.2,0,0.5,0.1,0.7
	c0,0.3,0.1,0.7,0.1,1c0,0.3,0.1,0.5,0.1,0.7c0.1,0.3,0.1,0.6,0.2,0.9c0.1,0.3,0.1,0.5,0.2,0.7c0.1,0.3,0.2,0.6,0.3,0.9
	c0.1,0.2,0.2,0.5,0.3,0.7c0.1,0.3,0.3,0.6,0.4,0.9c0.1,0.2,0.2,0.5,0.3,0.7c0.2,0.3,0.3,0.6,0.5,0.9c0.1,0.2,0.3,0.4,0.4,0.7
	c0.2,0.3,0.4,0.6,0.6,0.8c0.2,0.2,0.3,0.4,0.5,0.6c0.2,0.3,0.5,0.6,0.7,0.8c0.2,0.2,0.3,0.4,0.5,0.5c0.3,0.3,0.6,0.6,0.9,0.8
	c0.2,0.1,0.3,0.3,0.5,0.4c0.5,0.4,1,0.8,1.5,1.1l0,0c6.1,4.1,14,4.1,20.1,0L252.9,74.8c1.9-1.3,4.4-1.3,6.3,0l194.8,129.6l21.9,14.6
	c6.1,4.1,14,4.1,20.1,0c0.5-0.3,0.9-0.6,1.3-1c0,0,0.1-0.1,0.1-0.1c0.2-0.2,0.4-0.3,0.6-0.5c0.3-0.2,0.5-0.5,0.8-0.7
	c0,0,0,0,0.1-0.1c0,0,0,0,0.1-0.1c0.2-0.2,0.3-0.4,0.5-0.5c0.1-0.2,0.3-0.3,0.4-0.5c0.1-0.1,0.2-0.2,0.2-0.3c0,0,0,0,0-0.1
	c0.2-0.2,0.3-0.4,0.5-0.6c0.1-0.2,0.3-0.4,0.4-0.6c0,0,0-0.1,0.1-0.1c0-0.1,0.1-0.1,0.1-0.2c0.1-0.2,0.3-0.4,0.4-0.7
	c0.1-0.1,0.2-0.2,0.2-0.4c0-0.1,0.1-0.2,0.1-0.3c0-0.1,0.1-0.2,0.1-0.2c0.1-0.2,0.2-0.5,0.3-0.7c0.1-0.1,0.1-0.3,0.2-0.4
	c0,0,0-0.1,0-0.1c0-0.1,0.1-0.2,0.1-0.3c0.1-0.2,0.2-0.5,0.3-0.7c0-0.1,0.1-0.2,0.1-0.3c0-0.1,0-0.1,0.1-0.2c0-0.1,0.1-0.3,0.1-0.4
	c0.1-0.2,0.1-0.5,0.2-0.7c0-0.1,0.1-0.2,0.1-0.3c0,0,0-0.1,0-0.1c0-0.2,0.1-0.4,0.1-0.6c0-0.2,0.1-0.5,0.1-0.7c0-0.1,0-0.1,0-0.2
	c0,0,0-0.1,0-0.1c0-0.2,0-0.4,0.1-0.7c0-0.2,0.1-0.5,0.1-0.7c0-0.1,0-0.1,0-0.2c0,0,0,0,0,0c0-0.3,0-0.5,0-0.8
	C504.1,203.6,504.1,203.3,504.1,203.1z"/>
<path d="M489.9,444.9h-41.4V209.5l23.3,15.5c8.6,5.7,19.6,5.7,28.2,0c7.1-4.7,11.4-12.7,11.4-21.2s-4.2-16.5-11.4-21.2l-56-37.2
	c-3.4-2.2-7.9-1.3-10.1,2c-2.2,3.4-1.3,7.9,2,10.1l56,37.2c3.1,2.1,4.9,5.4,4.9,9.1s-1.8,7-4.9,9.1c-3.7,2.4-8.4,2.4-12.1,0
	L263.2,68.7c-4.4-2.9-10-2.9-14.3,0L32.1,212.9c-3.7,2.4-8.4,2.4-12.1,0c-3.1-2.1-4.9-5.4-4.9-9.1s1.8-7,4.9-9.1l96.4-64.1h0
	l24.2-16.1L256,37.8l142.3,94.7c3.4,2.2,7.9,1.3,10.1-2c2.2-3.4,1.3-7.9-2-10.1L263.2,25c-4.4-2.9-10-2.9-14.3,0L178,72.1v-6.3h2.1
	c5.2,0,9.5-4.2,9.5-9.5V34.2c0-5.2-4.2-9.5-9.5-9.5h-77.1c-5.2,0-9.5,4.2-9.5,9.5v22.1c0,5.2,4.2,9.5,9.5,9.5h2.1v54.8l-93.2,62
	c-7.1,4.7-11.4,12.7-11.4,21.2S4.9,220.3,12,225c4.3,2.9,9.2,4.3,14.1,4.3c4.9,0,9.8-1.4,14.1-4.3l23.3-15.5v129.9
	c0,4,3.3,7.3,7.3,7.3c4,0,7.3-3.3,7.3-7.3V199.8L256,81.5l177.9,118.4v245.1H78.1v-60.3c0-4-3.3-7.3-7.3-7.3c-4,0-7.3,3.3-7.3,7.3
	v60.3H22.1C9.9,444.9,0,454.9,0,467c0,12.2,9.9,22.1,22.1,22.1h467.8c12.2,0,22.1-9.9,22.1-22.1C512,454.9,502.1,444.9,489.9,444.9z
	 M163.5,81.8l-43.7,29.1V65.8h43.7V81.8z M108.2,39.3H175v11.9h-4.3h-58.3h-4.3L108.2,39.3L108.2,39.3z M489.9,474.6H22.1
	c-4.1,0-7.5-3.4-7.5-7.5c0-4.1,3.4-7.5,7.5-7.5h48.7h370.4h48.7c4.1,0,7.5,3.4,7.5,7.5C497.4,471.2,494.1,474.6,489.9,474.6z"/>
</svg>
