<?xml version="1.0" encoding="utf-8"?>
<!-- Generator: Adobe Illustrator 23.0.1, SVG Export Plug-In . SVG Version: 6.00 Build 0)  -->
<svg version="1.1" id="Capa_1" xmlns="http://www.w3.org/2000/svg" xmlns:xlink="http://www.w3.org/1999/xlink" x="0px" y="0px"
	 viewBox="0 0 712 512" style="enable-background:new 0 0 712 512;" xml:space="preserve">
<style type="text/css">
	.st0{fill:#FFB125;}
	.st1{fill:#FF901D;}
	.st2{fill:#E1EFFB;}
	.st3{fill:#CCDFED;}
	.st4{fill:#FF4C4C;}
	.st5{fill:#2D5872;}
	.st6{fill:#1D4859;}
	.st7{fill:#F33939;}
</style>
<rect x="156.4" y="49.8" class="st0" width="81.1" height="87"/>
<rect x="196.9" y="49.8" class="st1" width="40.5" height="87"/>
<path class="st0" d="M250.5,58.5H143.3c-1.7,0-3-1-3-2.2V34.2c0-1.2,1.4-2.2,3-2.2h107.2c1.7,0,3,1,3,2.2v22.1
	C253.5,57.5,252.2,58.5,250.5,58.5z"/>
<polygon class="st2" points="613.4,186.8 355.9,63.6 98.5,186.8 98.5,478.8 613.5,478.8 613.5,186.8 "/>
<polygon class="st3" points="613.4,186.8 355.9,63.6 324.9,78.5 551.3,186.8 551.4,186.8 551.4,478.8 613.5,478.8 613.5,186.8 "/>
<path class="st4" d="M50.3,218.9L351.6,74.8c2.6-1.3,6.1-1.3,8.7,0l301.3,144.1c8.5,4.1,19.5,4.1,28,0l0,0c15-7.2,15-23.1,0-30.3
	L360.4,31.1c-2.6-1.3-6.1-1.3-8.7,0L22.3,188.6c-15,7.2-15,23.1,0,30.3l0,0C30.8,223,41.8,223,50.3,218.9z"/>
<path class="st5" d="M681.3,452.2H30.7c-11.4,0-20.6,6.6-20.6,14.8l0,0c0,8.2,9.2,14.8,20.6,14.8h650.5c11.4,0,20.6-6.6,20.6-14.8
	l0,0C701.9,458.9,692.6,452.2,681.3,452.2z"/>
<path class="st6" d="M701.8,465.7c0-0.1,0-0.2,0-0.3c-0.1-0.4-0.2-0.8-0.3-1.2c0-0.1-0.1-0.2-0.1-0.3c-0.1-0.3-0.2-0.6-0.3-1
	c-0.1-0.1-0.1-0.2-0.1-0.4c-0.2-0.3-0.3-0.7-0.5-1c-0.1-0.2-0.2-0.3-0.3-0.5c-0.2-0.3-0.4-0.6-0.6-0.9c-3.5-4.7-10.3-7.9-18.2-7.9
	h-34.5v2c0,7.6-8.6,13.8-19.2,13.8H30.7c-7.9,0-14.7-3.2-18.2-7.9c-1.7,2.2-2.5,4.8-2.4,7.6c0.5,8,10,14.2,21.2,14.2h615.5h34.5
	c11.4,0,20.6-6.6,20.6-14.8C701.9,466.6,701.8,466.1,701.8,465.7z"/>
<path class="st7" d="M701,203.1c0,0,0-0.1,0-0.1c0,0,0,0,0,0c0-0.5-0.1-0.9-0.2-1.4c0-0.1,0-0.2-0.1-0.3c-0.1-0.5-0.2-1-0.4-1.6
	c0-0.1,0-0.1-0.1-0.2c-0.2-0.5-0.4-1.1-0.6-1.6c0,0,0,0,0,0c-0.2-0.5-0.5-1-0.8-1.5c0-0.1-0.1-0.1-0.1-0.2c-0.2-0.4-0.5-0.8-0.8-1.1
	c0,0,0,0,0,0l0,0c-0.1-0.1-0.2-0.2-0.2-0.3c-0.1-0.1-0.1-0.2-0.2-0.2c-0.4-0.5-0.8-0.9-1.3-1.4c0,0,0,0,0,0c0,0,0,0,0,0
	c-1.7-1.7-3.9-3.2-6.5-4.5L659.2,174l-1.9,2c-5.2,5.6-13.7,8.7-22.5,8.7L360.4,53.4c-2.6-1.3-6.1-1.3-8.7,0L50.3,197.6
	c-8.5,4.1-19.5,4.1-28,0l0,0c-2.6-1.3-4.8-2.8-6.5-4.5c-0.6,0.6-1.2,1.3-1.7,2c0,0,0,0,0,0c-0.2,0.2-0.3,0.5-0.5,0.8
	c-0.1,0.2-0.3,0.4-0.4,0.6c-0.2,0.4-0.4,0.7-0.6,1.1c-0.1,0.2-0.2,0.4-0.3,0.5c-0.2,0.5-0.4,0.9-0.6,1.4c0,0.1-0.1,0.2-0.1,0.2
	c-0.2,0.6-0.3,1.1-0.4,1.7c0,0.2,0,0.4-0.1,0.6c-0.1,0.4-0.1,0.8-0.1,1.2c0,0.2,0,0.5,0,0.7c0,0.3,0,0.7,0,1c0,0.2,0.1,0.5,0.1,0.7
	c0,0.3,0.1,0.7,0.2,1c0.1,0.3,0.1,0.5,0.2,0.7c0.1,0.3,0.2,0.6,0.3,0.9c0.1,0.3,0.2,0.5,0.3,0.7c0.1,0.3,0.3,0.6,0.4,0.9
	c0.1,0.2,0.2,0.5,0.4,0.7c0.2,0.3,0.3,0.6,0.5,0.9c0.2,0.2,0.3,0.5,0.5,0.7c0.2,0.3,0.4,0.6,0.7,0.9c0.2,0.2,0.4,0.4,0.6,0.7
	c0.3,0.3,0.5,0.6,0.8,0.8c0.2,0.2,0.4,0.4,0.6,0.6c0.3,0.3,0.7,0.6,1,0.8c0.2,0.2,0.4,0.4,0.7,0.5c0.4,0.3,0.8,0.6,1.3,0.8
	c0.2,0.1,0.4,0.3,0.6,0.4c0.7,0.4,1.4,0.8,2.1,1.1l0,0c8.5,4.1,19.5,4.1,28,0L351.6,74.8c2.6-1.3,6.1-1.3,8.7,0l270.8,129.6
	l30.5,14.6c8.5,4.1,19.5,4.1,28,0c0.6-0.3,1.2-0.6,1.8-1c0.1,0,0.1-0.1,0.2-0.1c0.3-0.2,0.5-0.3,0.8-0.5c0.4-0.2,0.8-0.5,1.1-0.7
	c0,0,0.1,0,0.1-0.1c0,0,0.1,0,0.1-0.1c0.2-0.2,0.5-0.4,0.7-0.5c0.2-0.2,0.4-0.3,0.6-0.5c0.1-0.1,0.2-0.2,0.3-0.3c0,0,0,0,0.1-0.1
	c0.2-0.2,0.4-0.4,0.6-0.6c0.2-0.2,0.4-0.4,0.6-0.6c0,0,0.1-0.1,0.1-0.1c0.1-0.1,0.1-0.1,0.2-0.2c0.2-0.2,0.4-0.4,0.6-0.7
	c0.1-0.1,0.2-0.2,0.3-0.4c0.1-0.1,0.1-0.2,0.2-0.3c0.1-0.1,0.1-0.2,0.2-0.2c0.2-0.2,0.3-0.5,0.5-0.7c0.1-0.1,0.2-0.3,0.3-0.4
	c0,0,0-0.1,0.1-0.1c0.1-0.1,0.1-0.2,0.2-0.3c0.1-0.2,0.3-0.5,0.4-0.7c0-0.1,0.1-0.2,0.1-0.3c0-0.1,0.1-0.1,0.1-0.2
	c0.1-0.1,0.1-0.3,0.2-0.4c0.1-0.2,0.2-0.5,0.3-0.7c0-0.1,0.1-0.2,0.1-0.3c0,0,0-0.1,0-0.1c0.1-0.2,0.1-0.4,0.1-0.6
	c0.1-0.2,0.1-0.5,0.2-0.7c0-0.1,0-0.1,0.1-0.2c0,0,0-0.1,0-0.1c0-0.2,0.1-0.4,0.1-0.7c0-0.2,0.1-0.5,0.1-0.7c0-0.1,0-0.1,0-0.2
	c0,0,0,0,0,0c0-0.3,0-0.5,0-0.8C701,203.6,701,203.3,701,203.1z"/>
<path d="M681.3,444.9h-57.6V209.5l32.4,15.5c11.9,5.7,27.3,5.7,39.2,0c9.9-4.7,15.8-12.7,15.8-21.2s-5.9-16.5-15.8-21.2l-77.8-37.2
	c-4.7-2.2-10.9-1.3-14,2c-3.1,3.4-1.8,7.9,2.8,10.1l77.8,37.2c4.3,2.1,6.8,5.4,6.8,9.1s-2.5,7-6.8,9.1c-5.1,2.4-11.7,2.4-16.8,0
	L366,68.7c-6.1-2.9-13.9-2.9-19.9,0L44.7,212.9c-5.1,2.4-11.7,2.4-16.8,0c-4.3-2.1-6.8-5.4-6.8-9.1s2.5-7,6.8-9.1L162,130.6h0
	l33.7-16.1L356,37.8l197.9,94.7c4.7,2.2,10.9,1.3,14-2c3.1-3.4,1.8-7.9-2.8-10.1L366,25c-6.1-2.9-13.9-2.9-19.9,0l-98.4,47.1v-6.3
	h2.9c7.3,0,13.2-4.2,13.2-9.5V34.2c0-5.2-5.9-9.5-13.2-9.5H143.3c-7.3,0-13.2,4.2-13.2,9.5v22.1c0,5.2,5.9,9.5,13.2,9.5h2.9v54.8
	l-129.6,62c-9.9,4.7-15.8,12.7-15.8,21.2s5.9,16.5,15.8,21.2c6,2.9,12.8,4.3,19.6,4.3c6.8,0,13.7-1.4,19.6-4.3l32.4-15.5v129.9
	c0,4,4.5,7.3,10.1,7.3c5.6,0,10.1-3.3,10.1-7.3V199.8L356,81.5l247.4,118.4v245.1H108.6v-60.3c0-4-4.5-7.3-10.1-7.3
	c-5.6,0-10.1,3.3-10.1,7.3v60.3H30.7C13.8,444.9,0,454.9,0,467c0,12.2,13.8,22.1,30.7,22.1h650.5c16.9,0,30.7-9.9,30.7-22.1
	C712,454.9,698.2,444.9,681.3,444.9z M227.3,81.8l-60.8,29.1V65.8h60.8V81.8z M150.4,39.3h93v11.9h-6h-81.1h-6L150.4,39.3
	L150.4,39.3z M681.3,474.6H30.7c-5.8,0-10.5-3.4-10.5-7.5c0-4.1,4.7-7.5,10.5-7.5h67.7h515.1h67.7c5.8,0,10.5,3.4,10.5,7.5
	C691.7,471.2,687,474.6,681.3,474.6z"/>
</svg>
