<svg width="140" height="110" viewBox="0 0 140 110" fill="none" xmlns="http://www.w3.org/2000/svg">
<rect x="3.49976" y="68.5" width="78" height="5" stroke="currentColor"/>
<rect x="57.4998" y="73.5" width="21" height="19" stroke="currentColor"/>
<path d="M57.9998 82H77.9998" stroke="currentColor"/>
<rect x="7.49976" y="73.5" width="50" height="8" stroke="currentColor"/>
<rect x="7.49976" y="81.5" width="2" height="28" stroke="currentColor"/>
<rect x="75.4998" y="92.5" width="3" height="17" stroke="currentColor"/>
<rect x="21.4998" y="38.5" width="41" height="22" stroke="currentColor"/>
<rect x="39.4998" y="60.5" width="5" height="6" stroke="currentColor"/>
<rect x="33.4998" y="66.5" width="16" height="2" stroke="currentColor"/>
<path d="M21.9998 59H62.9998" stroke="currentColor"/>
<rect x="89.4998" y="0.5" width="36" height="109" stroke="currentColor"/>
<rect x="92.4998" y="3.5" width="30" height="69" stroke="currentColor"/>
<rect x="92.4998" y="74.5" width="30" height="15" stroke="currentColor"/>
<rect x="92.4998" y="91.5" width="30" height="15" stroke="currentColor"/>
<path d="M91.9998 18H123" stroke="currentColor"/>
<path d="M91.9998 33H123" stroke="currentColor"/>
<path d="M91.9998 47H123" stroke="currentColor"/>
<path d="M105 85H110" stroke="currentColor"/>
<path d="M105 102H110" stroke="currentColor"/>
</svg>
