<svg width="261" height="45" viewBox="0 0 261 45" fill="none" xmlns="http://www.w3.org/2000/svg">
<g clip-path="url(#clip0_504_17)">
<path d="M169.101 44.1284C169.101 44.6105 169.487 45 169.966 45C170.445 45 170.832 44.6105 170.832 44.1284V0.871628C170.832 0.389452 170.445 0 169.966 0C169.487 0 169.101 0.389452 169.101 0.871628V44.1284Z" fill="black"/>
<path d="M191.327 28.0078C191.525 28.0078 191.686 28.1701 191.686 28.3695V37.6374C191.686 38.1196 192.073 38.5091 192.552 38.5091H194.803C195.282 38.5091 195.668 38.1196 195.668 37.6374V7.36235C195.668 6.88017 195.282 6.49072 194.803 6.49072H192.552C192.073 6.49072 191.686 6.88017 191.686 7.36235V23.6312C191.686 23.8305 191.525 23.9928 191.327 23.9928H185.6C185.402 23.9928 185.241 23.8305 185.241 23.6312V7.36235C185.241 6.88017 184.854 6.49072 184.375 6.49072H182.124C181.645 6.49072 181.259 6.88017 181.259 7.36235V37.6328C181.259 38.115 181.645 38.5044 182.124 38.5044H184.375C184.854 38.5044 185.241 38.115 185.241 37.6328V28.3648C185.241 28.1655 185.402 28.0032 185.6 28.0032H191.327V28.0078ZM52.6484 10.7376V37.6374C52.6484 38.1196 52.2617 38.5091 51.7829 38.5091H49.5317C49.0529 38.5091 48.6662 38.1196 48.6662 37.6374V11.229C48.6662 10.8257 48.3439 10.5011 47.9434 10.5011H42.58C42.3821 10.5011 42.2209 10.6634 42.2209 10.8628V37.6328C42.2209 38.115 41.8342 38.5044 41.3554 38.5044H39.1042C38.6254 38.5044 38.2387 38.115 38.2387 37.6328V7.72862C38.2387 7.04708 38.7911 6.49072 39.4679 6.49072H48.436C50.7563 6.49072 52.6484 8.39625 52.6484 10.7376ZM33.5291 10.7376V37.6374C33.5291 38.1196 33.1423 38.5091 32.6636 38.5091H30.4123C29.9335 38.5091 29.5468 38.1196 29.5468 37.6374V28.3695C29.5468 28.1701 29.3857 28.0078 29.1877 28.0078H23.4607C23.2627 28.0078 23.1016 28.1701 23.1016 28.3695V37.6374C23.1016 38.1196 22.7149 38.5091 22.2361 38.5091H19.9848C19.5061 38.5091 19.1193 38.1196 19.1193 37.6374V10.7376C19.1193 8.39625 21.0115 6.49072 23.3364 6.49072H29.312C31.6369 6.49072 33.5291 8.39625 33.5291 10.7376ZM28.824 10.5011H23.8198C23.4192 10.5011 23.097 10.8257 23.097 11.229V23.6312C23.097 23.8305 23.2581 23.9928 23.4561 23.9928H29.1877C29.3857 23.9928 29.5468 23.8305 29.5468 23.6312V11.229C29.5468 10.8303 29.2246 10.5011 28.824 10.5011ZM71.7678 10.7376V34.2622C71.7678 36.6035 69.8756 38.5091 67.5507 38.5091H61.5751C59.2502 38.5091 57.358 36.6035 57.358 34.2622V10.7376C57.358 8.39625 59.2502 6.49072 61.5751 6.49072H67.5507C69.8756 6.49072 71.7678 8.39625 71.7678 10.7376ZM67.0627 10.5011H62.0584C61.6579 10.5011 61.3357 10.8257 61.3357 11.229V33.7708C61.3357 34.1741 61.6579 34.4987 62.0584 34.4987H67.0627C67.4633 34.4987 67.7855 34.1741 67.7855 33.7708V11.229C67.7855 10.8303 67.4633 10.5011 67.0627 10.5011ZM110.006 10.7376V37.6374C110.006 38.1196 109.62 38.5091 109.141 38.5091H106.89C106.411 38.5091 106.024 38.1196 106.024 37.6374V28.3695C106.024 28.1701 105.863 28.0078 105.665 28.0078H99.938C99.7401 28.0078 99.579 28.1701 99.579 28.3695V37.6374C99.579 38.1196 99.1922 38.5091 98.7134 38.5091H96.4622C95.9834 38.5091 95.5967 38.1196 95.5967 37.6374V10.7376C95.5967 8.39625 97.4889 6.49072 99.8137 6.49072H105.789C108.114 6.49072 110.006 8.39625 110.006 10.7376ZM105.301 10.5011H100.297C99.8966 10.5011 99.5744 10.8257 99.5744 11.229V23.6312C99.5744 23.8305 99.7355 23.9928 99.9335 23.9928H105.66C105.858 23.9928 106.02 23.8305 106.02 23.6312V11.229C106.024 10.8303 105.697 10.5011 105.301 10.5011ZM158.673 10.7376V37.6374C158.673 38.1196 158.286 38.5091 157.807 38.5091H155.556C155.077 38.5091 154.69 38.1196 154.69 37.6374V28.3695C154.69 28.1701 154.529 28.0078 154.331 28.0078H148.604C148.406 28.0078 148.245 28.1701 148.245 28.3695V37.6374C148.245 38.1196 147.858 38.5091 147.38 38.5091H145.128C144.65 38.5091 144.263 38.1196 144.263 37.6374V10.7376C144.263 8.39625 146.155 6.49072 148.48 6.49072H154.456C156.78 6.49072 158.673 8.39625 158.673 10.7376ZM153.968 10.5011H148.963C148.563 10.5011 148.241 10.8257 148.241 11.229V23.6312C148.241 23.8305 148.402 23.9928 148.6 23.9928H154.327C154.525 23.9928 154.686 23.8305 154.686 23.6312V11.229C154.69 10.8303 154.364 10.5011 153.968 10.5011ZM135.336 6.49072C135.336 6.49072 120.788 6.49072 115.941 6.49072C115.264 6.49072 114.711 7.04708 114.711 7.72862C114.711 15.207 114.711 37.6374 114.711 37.6374C114.711 38.1196 115.098 38.5091 115.577 38.5091H117.828C118.307 38.5091 118.694 38.1196 118.694 37.6374V10.8674C118.694 10.668 118.855 10.5058 119.053 10.5058H124.78C124.978 10.5058 125.139 10.668 125.139 10.8674V37.6374C125.139 38.1196 125.526 38.5091 126.004 38.5091H128.256C128.734 38.5091 129.121 38.1196 129.121 37.6374V10.8674C129.121 10.668 129.282 10.5058 129.48 10.5058H134.844C135.244 10.5058 135.566 10.8303 135.566 11.2337V37.6421C135.566 38.1242 135.953 38.5137 136.432 38.5137H138.683C139.162 38.5137 139.549 38.1242 139.549 37.6421C139.549 37.6421 139.549 17.4695 139.549 10.7422C139.553 8.39624 137.661 6.49072 135.336 6.49072ZM14.4097 10.7376V23.761C14.4097 26.1023 12.5176 28.0078 10.1927 28.0078H4.34133C4.14337 28.0078 3.98224 28.1701 3.98224 28.3695V37.6374C3.98224 38.1196 3.59553 38.5091 3.11674 38.5091H0.865506C0.386717 38.5091 0 38.1196 0 37.6374V7.72862C0 7.04708 0.552448 6.49072 1.2292 6.49072H10.1973C12.5176 6.49072 14.4097 8.39625 14.4097 10.7376ZM3.98224 23.6358C3.98224 23.8352 4.14337 23.9974 4.34133 23.9974H9.70469C10.1052 23.9974 10.4275 23.6729 10.4275 23.2695V11.229C10.4275 10.8257 10.1052 10.5011 9.70469 10.5011H4.34133C4.14337 10.5011 3.98224 10.6634 3.98224 10.8628V23.6358ZM88.7878 27.4932C88.6359 27.6462 88.6589 27.878 88.7878 28.0078L90.528 29.7604C90.7582 29.9922 90.8871 30.3028 90.8871 30.632V37.6328C90.8871 38.115 90.5004 38.5044 90.0216 38.5044H87.7704C87.2916 38.5044 86.9049 38.115 86.9049 37.6328V31.5036C86.9049 31.4062 86.868 31.3135 86.799 31.2486L83.6822 28.1098C83.6132 28.0403 83.5211 28.0032 83.429 28.0032H80.8187C80.6207 28.0032 80.4596 28.1655 80.4596 28.3648V37.6328C80.4596 38.115 80.0729 38.5044 79.5941 38.5044H77.3429C76.8641 38.5044 76.4774 38.115 76.4774 37.6328V7.72862C76.4774 7.04708 77.0298 6.49072 77.7066 6.49072H86.6747C88.9996 6.49072 90.8917 8.39625 90.8917 10.7376V24.869C90.8917 25.1982 90.7674 25.5089 90.5372 25.7407L88.7878 27.4932ZM80.455 23.6358C80.455 23.8352 80.6161 23.9974 80.8141 23.9974H86.1775C86.5734 23.9974 86.9003 23.6729 86.9003 23.2695V11.229C86.9003 10.8257 86.578 10.5011 86.1775 10.5011H80.8141C80.6161 10.5011 80.455 10.6634 80.455 10.8628V23.6358ZM214.788 10.7376V34.2622C214.788 36.6035 212.895 38.5091 210.571 38.5091H204.59C202.265 38.5091 200.373 36.6035 200.373 34.2622V10.7376C200.373 8.39625 202.265 6.49072 204.59 6.49072H210.566C212.895 6.49072 214.788 8.39625 214.788 10.7376ZM210.083 10.5011H205.078C204.678 10.5011 204.356 10.8257 204.356 11.229V33.7708C204.356 34.1741 204.678 34.4987 205.078 34.4987H210.083C210.483 34.4987 210.805 34.1741 210.805 33.7708V11.229C210.805 10.8303 210.479 10.5011 210.083 10.5011ZM230.896 6.49072H218.581C218.102 6.49072 217.716 6.88017 217.716 7.36235V9.6295C217.716 10.1117 218.102 10.5011 218.581 10.5011H222.568C222.766 10.5011 222.927 10.6634 222.927 10.8628V37.6328C222.927 38.115 223.314 38.5044 223.793 38.5044H226.044C226.523 38.5044 226.909 38.115 226.909 37.6328V10.8674C226.909 10.668 227.07 10.5058 227.268 10.5058H230.896C231.375 10.5058 231.762 10.1163 231.762 9.63414V7.36698C231.762 6.88481 231.375 6.49072 230.896 6.49072ZM244.491 38.5091C244.97 38.5091 245.356 38.1196 245.356 37.6374V35.3703C245.356 34.8881 244.97 34.4987 244.491 34.4987H239.27C239.072 34.4987 238.911 34.3364 238.911 34.137V28.3695C238.911 28.1701 239.072 28.0078 239.27 28.0078H242.023C242.502 28.0078 242.889 27.6184 242.889 27.1362V24.869C242.889 24.3869 242.502 23.9974 242.023 23.9974H239.27C239.072 23.9974 238.911 23.8352 238.911 23.6358V10.8674C238.911 10.668 239.072 10.5058 239.27 10.5058H244.491C244.97 10.5058 245.356 10.1163 245.356 9.63414V7.36698C245.356 6.88481 244.97 6.49536 244.491 6.49536H236.158C235.481 6.49536 234.929 7.05172 234.929 7.73325V37.2758C234.929 37.9573 235.481 38.5137 236.158 38.5137H244.491V38.5091ZM260.135 38.5091C260.613 38.5091 261 38.1196 261 37.6374V35.3703C261 34.8881 260.613 34.4987 260.135 34.4987H254.914C254.716 34.4987 254.555 34.3364 254.555 34.137V7.36235C254.555 6.88017 254.168 6.49072 253.689 6.49072H251.438C250.959 6.49072 250.573 6.88017 250.573 7.36235V37.2712C250.573 37.9527 251.125 38.5091 251.802 38.5091H260.135Z" fill="#EB6209"/>
</g>
<defs>
<clipPath id="clip0_504_17">
<rect width="261" height="45" fill="white"/>
</clipPath>
</defs>
</svg>
