<svg width="512" height="512" viewBox="0 0 512 512" fill="none" xmlns="http://www.w3.org/2000/svg">
<path d="M468.4 504.5H43.6C40.8 504.5 38.5 502.2 38.5 499.4V259.5H473.3V499.4C473.4 502.2 471.2 504.5 468.4 504.5Z" fill="#F6E5CB"/>
<path d="M468.4 504.5H438.5V259.5H473.5V499.4C473.4 502.2 471.2 504.5 468.4 504.5Z" fill="#ECD4B2"/>
<path d="M214.8 99.4H128.6L113.9 259.1H113.8C113.8 285.4 135.1 306.6 161.3 306.6C187.4 306.6 208.6 285.5 208.8 259.4L214.8 99.4Z" fill="#D7DCDD"/>
<path d="M296.8 99.4H214.8L208.9 259.5H209C209 285.3 229.9 306.3 255.8 306.3C281.7 306.3 302.6 285.4 302.6 259.5L296.8 99.4Z" fill="#647999"/>
<path d="M454.7 103.4C454.2 101.1 452.2 99.5 449.8 99.5H382.9L395.8 259.6C395.8 285.4 416.7 306.4 442.6 306.4C457.5 306.4 470.7 299.5 479.3 288.6C487.6 278.1 490.4 264.3 487.5 251.2L454.7 103.4Z" fill="#647999"/>
<path d="M479.3 288.5C470.7 299.3 457.5 306.3 442.6 306.3C438.3 306.3 434.2 305.7 430.3 304.7C440.1 302 448.6 296.3 454.7 288.6C463 278.1 465.8 264.3 462.9 251.2L430.1 103.4C429.6 101.1 427.6 99.5 425.2 99.5H449.8C452.2 99.5 454.2 101.1 454.7 103.4L487.5 251.2C490.4 264.2 487.6 278 479.3 288.5Z" fill="#4F6784"/>
<path d="M382.9 99.4H296.7L302.6 259.5C302.6 285.3 323.5 306.3 349.4 306.3C375.3 306.3 396.2 285.4 396.2 259.5L382.9 99.4Z" fill="#D7DCDD"/>
<path d="M128.6 99.4H62.2C59.9 99.4 57.8 101 57.3 103.3L24.7 250.7C19.3 275.1 34.5 299.8 59 304.8C62 305.4 65 305.7 68.2 305.7C93.4 305.7 113.8 285.3 113.8 260.1L128.6 99.4Z" fill="#647999"/>
<path d="M423.3 63H88.7C85.9 63 83.7 60.8 83.7 58V12.5C83.7 9.7 85.9 7.5 88.7 7.5H423.3C426.1 7.5 428.3 9.7 428.3 12.5V58C428.3 60.8 426.1 63 423.3 63Z" fill="#647999"/>
<path d="M423.3 63H396.2V7.5H423.3C426.1 7.5 428.3 9.7 428.3 12.5V58C428.3 60.8 426.1 63 423.3 63Z" fill="#4F6784"/>
<path d="M137.6 401.2H76.6C73.8 401.2 71.6 399 71.6 396.2V348.2C71.6 345.4 73.8 343.2 76.6 343.2H137.6C140.4 343.2 142.6 345.4 142.6 348.2V396.2C142.6 399 140.4 401.2 137.6 401.2Z" fill="#9FE0FE"/>
<path d="M433.4 401.2H372.4C369.6 401.2 367.4 399 367.4 396.2V348.2C367.4 345.4 369.6 343.2 372.4 343.2H433.4C436.2 343.2 438.4 345.4 438.4 348.2V396.2C438.4 399 436.2 401.2 433.4 401.2Z" fill="#9FE0FE"/>
<path d="M433.4 401.2H413.4V343.1H433.4C436.2 343.1 438.4 345.3 438.4 348.1V396.1C438.4 399 436.2 401.2 433.4 401.2Z" fill="#7ED0ED"/>
<path d="M137.6 401.2H117.6V343.1H137.6C140.4 343.1 142.6 345.3 142.6 348.1V396.1C142.6 399 140.4 401.2 137.6 401.2Z" fill="#7ED0ED"/>
<path d="M180 504.5V413.2C180 371.2 214 337.2 256 337.2C298 337.2 332 371.2 332 413.2V504.5H180Z" fill="#F27979"/>
<path d="M332 413.2V504.5H303.5V413.2C303.5 392.2 295 373.2 281.2 359.5C270.6 348.9 257 341.5 241.7 338.6C246.3 337.7 251.1 337.3 256 337.3C277 337.3 296 345.8 309.7 359.6C323.5 373.2 332 392.2 332 413.2Z" fill="#CE5F5F"/>
<path d="M137.6 335.7H76.6C69.7 335.7 64.1 341.3 64.1 348.2V396.2C64.1 403.1 69.7 408.7 76.6 408.7H137.6C144.5 408.7 150.1 403.1 150.1 396.2V348.2C150.1 341.3 144.5 335.7 137.6 335.7ZM135.1 393.7H79.1V350.7H135.1V393.7Z" fill="black"/>
<path d="M433.4 335.7H372.4C365.5 335.7 359.9 341.3 359.9 348.2V396.2C359.9 403.1 365.5 408.7 372.4 408.7H433.4C440.3 408.7 445.9 403.1 445.9 396.2V348.2C445.9 341.3 440.3 335.7 433.4 335.7ZM430.9 393.7H374.9V350.7H430.9V393.7Z" fill="black"/>
<path d="M496.8 258.7C496.8 258.7 496.8 258.6 496.8 258.7C496.8 258.4 496.7 258.1 496.7 257.9L462 101.7C460.7 95.9 455.7 91.9 449.8 91.9H396.9V70.6H423.3C430.2 70.6 435.8 65 435.8 58.1V12.5C435.8 5.6 430.2 0 423.3 0H88.7C81.8 0 76.2 5.6 76.2 12.5V58C76.2 64.9 81.8 70.5 88.7 70.5H115.1V91.8H62.2C56.3 91.8 51.3 95.8 50 101.6L15.3 257.9C15.2 258.1 15.2 258.4 15.2 258.6V258.7C15.2 259 15.2 259.2 15.2 259.5C15.2 274.4 21.3 288 31.1 297.8V499.3C31.1 506.2 36.7 511.9 43.7 511.9H468.4C475.3 511.9 481 506.2 481 499.3V297.9C490.8 288.1 496.9 274.5 496.9 259.6C496.9 259.2 496.9 259 496.8 258.7ZM447.8 106.9L480 252H402.8L391.1 107H447.8V106.9ZM91.2 55.5V15H420.8V55.5H359.2C355 55.5 351.7 58.9 351.7 63C351.7 67.1 355.1 70.5 359.2 70.5H381.8V91.8H297.6C297.2 91.8 296.8 91.7 296.4 91.7C296.2 91.7 295.9 91.7 295.7 91.8H215.3C215.1 91.8 214.9 91.8 214.7 91.8C214.5 91.8 214.3 91.8 214.1 91.8H130.1V70.6H304.7C308.9 70.6 312.2 67.2 312.2 63.1C312.2 59 308.8 55.6 304.7 55.6C304.8 55.5 91.2 55.5 91.2 55.5ZM387.8 267C384.3 285.1 368.3 298.7 349.3 298.7C330.3 298.7 314.3 285 310.8 267H387.8ZM309.8 252L304.6 107H376L387.7 252H309.8ZM216.7 252L222 107H289.5L294.7 252H216.7ZM294.3 267C290.8 285.1 274.8 298.7 255.8 298.7C236.8 298.7 220.8 285 217.3 267H294.3ZM122.1 252L135.5 107H207L201.7 252H122.1ZM200.6 267C197.1 285.1 181.1 298.7 162.1 298.7C143.1 298.7 127.1 285 123.6 267H200.6ZM64.2 106.9H120.4L107 252H32L64.2 106.9ZM30.9 267H108C104.5 285.1 88.5 298.7 69.5 298.7C50.5 298.7 34.4 285.1 30.9 267ZM465.9 496.9H339.5V413.1C339.5 367.1 302 329.6 256 329.6C246.6 329.6 237.3 331.2 228.4 334.3C224.5 335.7 222.4 340 223.8 343.9C225.2 347.8 229.5 349.9 233.4 348.5C240.6 346 248.3 344.7 256 344.7C293.8 344.7 324.5 375.4 324.5 413.2V497H187.5V413.2C187.5 401.5 190.5 390 196.1 379.9C198.1 376.3 196.8 371.7 193.2 369.7C189.6 367.7 185 369 183 372.6C176.1 384.9 172.5 399 172.5 413.2V497H46.1V308.5C53.2 311.9 61.1 313.8 69.4 313.8C89 313.8 106.2 303.4 115.7 287.8C125.2 303.4 142.4 313.8 162 313.8C181.9 313.8 199.4 303 208.8 286.9C218.2 303 235.7 313.8 255.6 313.8C275.5 313.8 292.9 303 302.4 287C311.9 303 329.3 313.8 349.2 313.8C369 313.8 386.4 303.1 395.8 287.3C405.3 303.2 422.6 313.8 442.4 313.8C450.7 313.8 458.7 311.9 465.7 308.5L465.9 496.9ZM442.6 298.7C423.5 298.7 407.6 285 404.1 267H481.2C477.6 285.1 461.7 298.7 442.6 298.7Z" fill="black"/>
</svg>
