<svg width="512" height="512" viewBox="0 0 512 512" fill="none" xmlns="http://www.w3.org/2000/svg">
<path d="M151.3 303.7L152.1 303.3L180.2 287.8L230.2 260.4V260.3C221.5 265.1 210.3 261.1 206.9 251.2C204.4 243.7 207.9 235.6 214.8 231.8L258.2 208.3C258.3 208.3 258.3 208.3 258.4 208.2L268.3 202.6C292.4 189 322.7 198 336.1 221.4L366.5 275.6C380.1 299.9 371.3 330.7 346.7 344L340.3 347.5L286.2 377.3L279.3 381.1L235.9 405.1C228.2 409.4 218.4 406.7 214 399C210.5 392.9 211.4 385.5 215.7 380.4L210.9 383C203.2 387.3 193.3 384.3 188.6 376.3C184.8 369.8 185.7 361.9 190.2 356.7L187.8 358.1C180.1 362.4 170.2 359.4 165.6 351.4C161.8 344.9 162.7 337 167.3 331.8L167.1 331.9C159.4 336.2 149.6 333.5 145.2 325.8C140.6 318.1 143.4 308.1 151.3 303.7Z" fill="#FFC477"/>
<path d="M361.2 310L360.4 309.6L332.3 294.1L258.3 253.4V253.3C267 258.1 278.2 254.1 281.6 244.2C284.1 236.7 280.6 228.6 273.7 224.8L252.7 213.1C252.6 213.1 252.6 213.1 252.5 213L242.6 207.4C218.5 193.8 187.9 202.4 174.4 226.5L144 280.7C130.4 305 139.2 335.8 163.8 349.1L170.2 352.6L234.7 388.3L241.6 392.1L276.7 411.4C284.4 415.7 294.2 413 298.6 405.3C302.1 399.2 301.2 391.8 296.9 386.7L301.7 389.3C309.4 393.6 319.3 390.6 324 382.6C327.8 376.1 326.9 368.2 322.4 363L324.8 364.4C332.5 368.7 342.4 365.7 347 357.7C350.8 351.2 349.9 343.3 345.3 338.1L345.5 338.2C353.2 342.5 363 339.8 367.4 332.1C372 324.5 369.2 314.4 361.2 310Z" fill="#FFB655"/>
<path d="M250 386.9C245.6 379.2 235.8 376.5 228.1 380.8L227.4 381.2C232.9 376.2 234.5 367.9 230.6 361.1C226.2 353.4 216.4 350.7 208.7 355L195.5 362.3C201.9 357.5 203.8 348.5 199.7 341.4C195.3 333.7 185.5 331 177.8 335.3L170 339.6C175 334.6 176.3 326.6 172.6 320.1C168.2 312.4 158.4 309.7 150.7 314L142.4 318.7L141.6 319.1C133.7 323.5 130.9 333.5 135.4 341.4C139.8 349.1 149.6 351.8 157.3 347.5L157.5 347.4C152.7 352.5 151.6 360.3 155.2 366.6C159.6 374.3 169.4 377 177.1 372.7L190.3 365.4C183.9 370.3 181.9 379.2 186.1 386.4C190.5 394.1 200.3 396.8 208 392.5L216.3 387.9C210.5 392.9 208.9 401.4 212.8 408.3C217.2 416 227 418.7 234.7 414.4L243.8 409.3C251.7 404.8 254.5 394.8 250 386.9Z" fill="#FFC477"/>
<path d="M336.4 221.8C322.9 197.7 292.3 189.1 268.2 202.7L258.3 208.3C258.2 208.3 258.2 208.3 258.1 208.4L203.7 238C195.9 242.3 193.1 252.2 197.4 260C201.7 267.8 211.6 270.6 219.4 266.3L248.3 251.3L249 251.5C251.1 255.1 268.2 281.7 299.5 264.3L344.5 236L336.4 221.8Z" fill="#FFDAAA"/>
<path d="M183.9 214.4C183.7 215.6 183.3 216.8 182.7 217.9L145.4 284C144.3 286 142.6 287.5 140.6 288.3C137.8 289.5 134.4 289.5 131.5 287.8L109.2 275.2L89.6 264.2L87.2 262.9L13 221C9.7 219.1 7.6 215.6 7.6 211.8V125.4C7.6 117.3 16.3 112.2 23.3 116.2L134.5 179L136.6 180.2L156.4 191.4L178.8 204.1C182.6 206.2 184.5 210.4 183.9 214.4Z" fill="#C6C5CA"/>
<path d="M136.5 180.2C136.3 180.5 136.2 180.9 136 181.2L89.9 263.9C89.8 264.1 89.7 264.2 89.6 264.3C85.2 271.6 75.8 274.1 68.4 270L13 239.1C9.7 237.2 7.6 233.7 7.6 229.9V109.4C7.6 101.3 16.2 96.3 23.3 100.2L123.9 156.4L129.9 159.8C137.2 163.8 140 172.7 136.5 180.2Z" fill="#2D2D30"/>
<path d="M123.9 156.3L80.2 234.7C80.1 234.9 80 235 79.9 235.1C75.5 242.4 66.1 244.9 58.7 240.8L7.6 212.3V109.4C7.6 101.3 16.2 96.3 23.3 100.2L123.9 156.3Z" fill="#57565C"/>
<path d="M504.4 122.4V208.8C504.4 212.6 502.4 216.1 499 218L422.4 261.3L400.5 273.7L380.6 284.9C377.4 286.7 373.6 286.6 370.6 284.9C369 284 367.7 282.7 366.7 281L342.2 237.6L329.4 215C328.7 213.7 328.3 212.4 328.1 211V210.9C327.7 207 329.6 203.1 333.2 201L353.3 189.6L375.2 177.2L375.4 177.1L488.6 113.2C495.7 109.2 504.4 114.3 504.4 122.4Z" fill="#96C8EF"/>
<path d="M504.4 106.3V226.8C504.4 230.6 502.3 234.1 499 236L443.6 266.9C436.1 271.1 426.7 268.5 422.4 261.2C422.3 261.1 422.2 260.9 422.1 260.8L376 178.1C375.8 177.8 375.6 177.4 375.5 177.1C372 169.7 374.8 160.7 382.1 156.6L387.4 153.6L488.7 97.1C495.7 93.1 504.4 98.2 504.4 106.3Z" fill="#3D9AE2"/>
<path d="M504.4 106.3V209.1L452.6 238C445.1 242.2 435.7 239.6 431.4 232.3C431.3 232.2 431.2 232 431.1 231.9L387.4 153.6L488.7 97.1C495.7 93.1 504.4 98.2 504.4 106.3Z" fill="#5AAAE7"/>
<path d="M136.5 180.2L89.6 264.3L109.2 275.3L156.4 191.4L136.5 180.2Z" fill="#ACABB1"/>
<path d="M422.4 261.2L400.5 273.6L353.3 189.6L375.5 177.1L422.4 261.2Z" fill="#78B9EB"/>
<path d="M493.8 88.1C490.7 88.1 487.7 88.9 485 90.4L420.1 126.6C416.4 128.6 415.1 133.3 417.2 136.9C419.3 140.5 423.9 141.9 427.5 139.8L492.4 103.6C492.9 103.3 493.3 103.2 493.8 103.2C495 103.2 496.8 104.1 496.8 106.2V226.7C496.8 227.8 496.2 228.7 495.3 229.3L467.7 244.7C464 246.7 462.7 251.4 464.8 255C466.2 257.5 468.8 258.9 471.4 258.9C472.7 258.9 473.9 258.6 475.1 257.9L502.7 242.5C508.4 239.3 512 233.2 512 226.7V106.3C512 96.3 503.9 88.1 493.8 88.1Z" fill="#020202"/>
<path d="M451.5 262.5C450.3 260.4 448.2 259 445.8 258.7C443 258.3 441.2 259.9 438.8 260.8C437.9 261.1 436.9 261.3 435.9 261.3C433 261.3 430.3 259.8 428.9 257.3L382.3 173.8C381.8 172.7 381.5 171.5 381.5 170.4C381.5 167.4 383.1 164.7 385.7 163.2L400.9 154.7C404.6 152.7 405.9 148 403.8 144.4C401.7 140.8 397.1 139.4 393.5 141.5L378.3 150C370.9 154.1 366.3 162 366.3 170.5C366.3 171.5 366.4 172.5 366.5 173.5L329.4 194.4C327.5 195.4 325.9 196.8 324.6 198.4C307.1 186.8 283.9 185.1 264.5 196.1L254.6 201.7L254.5 201.8C254.5 201.8 254.5 201.8 254.4 201.8L249.5 204.5C248.9 203 247.8 201.8 246.3 200.9C232.9 193.3 217.3 191.4 202.4 195.6C197.5 197 192.8 199 188.5 201.5L145.3 176.6C145.4 175.6 145.5 174.6 145.5 173.6C145.5 165.1 140.9 157.3 133.5 153.1L70.2 117.8C66.5 115.8 61.9 117.1 59.9 120.7C57.9 124.4 59.2 129 62.8 131L126.1 166.3C128.7 167.7 130.3 170.5 130.3 173.5C130.3 174.7 130 175.9 129.5 176.9C129.4 177.1 129.3 177.3 129.2 177.4L83.1 260C83 260.1 83 260.2 82.9 260.3C81.4 262.7 78.7 264.3 75.9 264.3C74.5 264.3 73.2 263.9 71.9 263.3L34.7 242.5C31 240.5 26.4 241.8 24.4 245.4C22.4 249.1 23.7 253.7 27.3 255.7L64.5 276.5C68 278.4 71.9 279.5 75.9 279.5C81.5 279.5 86.9 277.4 91.1 273.9L130.6 295.8C129.4 303.1 129.6 310.5 131.3 317.8C129.1 320.4 127.4 323.5 126.5 326.9C124.8 333.1 125.6 339.6 128.8 345.2C132.5 351.5 138.7 355.4 145.5 356.3C145 361.2 146.1 366.1 148.6 370.4C153 378 161.1 382.3 169.3 382.3C171.7 382.3 174.1 381.9 176.4 381.2C176.8 384.3 177.8 387.4 179.4 390.2C183.8 397.8 191.9 402.1 200.1 402.1C201.1 402.1 202.1 402 203.1 401.9C203.3 405.4 204.3 408.9 206.2 412.1C210.6 419.7 218.6 424 226.9 424C230.8 424 234.8 423 238.4 421L247.4 415.9C250.6 414.1 253.3 411.7 255.3 408.8L272.9 418.3C276.5 420.3 280.4 421.3 284.3 421.3C292.6 421.3 300.6 417 305 409.4C306.8 406.2 307.9 402.7 308.1 399.2C316.8 399.5 325.6 395 330.3 386.7C332.6 382.8 333.7 378.4 333.7 374.1C341.5 373.5 349.1 369.1 353.4 361.7C355.9 357.4 357 352.5 356.7 347.8C363.7 346.8 370.1 342.7 373.8 336.2C376.7 331.2 377.7 325.4 376.5 319.8C376.9 319.2 377.2 318.6 377.4 317.9C379.9 310.2 380.7 302.1 379.9 294.2L420.5 271C424.7 274.5 430.1 276.6 435.7 276.6C439.7 276.6 443.6 275.6 447.1 273.6L448.4 272.9C452.3 270.8 453.6 266.1 451.5 262.5ZM271.9 209.3C272 209.3 272 209.2 272.1 209.2C292.2 197.9 318 205 329.5 225.1L334.2 233.5L295.5 257.9C284.8 263.8 275.5 264.3 267 259.3C260.1 255.3 256.2 249 255.4 247.7C254.4 246 252.7 244.7 250.7 244.2L250 244C248.2 243.5 246.3 243.8 244.6 244.6L215.7 259.6C215.6 259.6 215.6 259.7 215.5 259.7C213.5 260.8 211.2 261.1 209 260.4C206.8 259.8 204.9 258.3 203.8 256.3C201.5 252.2 203 246.9 207.1 244.6L271.9 209.3ZM135.4 281L100 261.4L139.5 190.7L176 211.7C172.9 215 170.2 218.8 167.9 222.9L137.4 277C136.7 278.3 136 279.6 135.4 281ZM142.1 337.6C140.9 335.6 140.6 333.2 141.3 331C141.9 328.8 143.4 326.9 145.4 325.8L154.5 320.7C155.8 320 157.2 319.6 158.6 319.6C161.6 319.6 164.5 321.2 166.1 323.9C167.2 325.8 167.5 327.9 166.9 329.8C166.3 331.9 164.8 333.7 162.6 335L153.6 340.1C149.9 342.1 144.6 341.9 142.1 337.6ZM173.5 366C169.4 368.3 164.2 366.8 161.9 362.8C160.7 360.8 160.4 358.4 161.1 356.2C161.7 354.1 163.1 352.3 164.9 351.2L181.6 341.9C182.9 341.2 184.3 340.8 185.7 340.8C188.7 340.8 191.6 342.4 193.2 345.1C194.4 347.1 194.6 349.5 194 351.7C193.4 353.9 191.9 355.8 189.9 356.9L173.5 366ZM204.3 385.8C200.2 388.1 195 386.6 192.7 382.6C191.6 380.7 191.3 378.5 191.9 376.3C192.5 374 194.1 372 196.2 370.9L212.6 361.8C214 361.1 215.4 360.7 216.8 360.7C219.7 360.7 222.4 362.2 224 365C225.2 367 225.4 369.4 224.8 371.6C224.2 373.8 222.7 375.7 220.7 376.8L204.3 385.8ZM244.3 397.3C243.7 399.5 242.2 401.4 240.1 402.5L231.1 407.6C227 409.9 221.8 408.4 219.5 404.4C218.1 402 218.3 399.8 218.7 398.4C219.3 396.1 220.9 394.1 223.1 392.9L232.2 387.8C233.6 387 235.1 386.6 236.5 386.6C239.3 386.6 241.9 388 243.4 390.7C244.6 392.7 244.9 395.1 244.3 397.3ZM360.8 328.5C358.5 332.5 353.3 334 349.2 331.7L349 331.6C345.8 329.8 341.7 330.6 339.4 333.5C337.1 336.4 337.2 340.5 339.6 343.3C342.1 346.2 342.4 350.5 340.4 354.1C337.9 358.5 332.5 360.2 328.4 358L326 356.6C322.8 354.8 318.7 355.6 316.4 358.5C314.1 361.4 314.2 365.5 316.6 368.3C319.1 371.2 319.4 375.5 317.4 379.1C314.9 383.5 309.5 385.2 305.4 383L300.6 380.4C297.4 378.6 293.4 379.4 291 382.2C288.6 385 288.7 389.1 291.1 391.9C293.5 394.7 293.8 398.6 292 401.8C289.7 405.8 284.5 407.3 280.3 405L259.8 393.9C259.6 390.2 258.6 386.6 256.7 383.3C253.1 377 247 373 240.3 371.9C240.9 366.9 239.8 361.9 237.3 357.5C231.6 347.5 220 343.3 209.5 346.8C209.1 343.6 208.1 340.6 206.5 337.7C201.5 329 191.8 324.7 182.4 326C182.1 322.7 181.1 319.4 179.4 316.4C173 305.2 158.5 301.2 147.1 307.5L145.4 308.4C144.8 300.1 146.6 291.9 150.7 284.5L181.1 230.3C186.7 220.4 195.7 213.3 206.7 210.2C216.3 207.5 226.3 208.3 235.3 212.2L200 231.4C188.5 237.8 184.4 252.3 190.7 263.8C193.8 269.3 198.8 273.4 205 275.1C211.1 276.8 217.5 276.1 223 273.1L246.3 261C253.1 269.5 264.5 277.8 279.3 277.8C281.4 277.8 283.7 277.6 286 277.2L357.6 316.6C359.6 317.7 361.1 319.6 361.7 321.8C362.3 324.1 362 326.5 360.8 328.5ZM365.1 303.5C365 303.5 365 303.4 364.9 303.4L304.5 270.2L341.6 246.8L359.8 279.3C364 286.7 365.8 295.1 365.1 303.5ZM376.4 278.7C375.5 276.3 374.4 274 373.1 271.8L342.7 217.5C340.8 214.1 338.6 211.1 336.1 208.3C336.3 208 336.6 207.7 336.9 207.5L372.5 187.4L412.1 258.3L376.4 278.7Z" fill="#020202"/>
<path d="M386.9 264.2C391.153 264.2 394.6 260.753 394.6 256.5C394.6 252.247 391.153 248.8 386.9 248.8C382.647 248.8 379.2 252.247 379.2 256.5C379.2 260.753 382.647 264.2 386.9 264.2Z" fill="#020202"/>
<path d="M46.7 113.2C48.7 109.5 47.4 104.9 43.8 102.9L27 93.5C24.3 92 21.2 91.2 18.2 91.2C8.1 91.2 0 99.4 0 109.4V229.9C0 230.8 0.1 231.7 0.2 232.7C0.8 236.5 4 239.1 7.7 239.1C8.1 239.1 8.5 239.1 8.9 239C13.1 238.4 15.9 234.5 15.3 230.3C15.3 230.2 15.3 230 15.3 229.9V109.4C15.3 107.4 17.1 106.4 18.3 106.4C18.8 106.4 19.3 106.5 19.7 106.8L36.5 116.2C40 118.2 44.6 116.9 46.7 113.2Z" fill="#020202"/>
<path d="M125.1 267.3C129.353 267.3 132.8 263.853 132.8 259.6C132.8 255.347 129.353 251.9 125.1 251.9C120.847 251.9 117.4 255.347 117.4 259.6C117.4 263.853 120.847 267.3 125.1 267.3Z" fill="#020202"/>
</svg>
