<svg width="512" height="512" viewBox="0 0 512 512" fill="none" xmlns="http://www.w3.org/2000/svg">
<path d="M370.7 179V144H311.1V179C236 193 179.1 258.8 179.1 338C179.1 339.2 179.2 340.3 179.2 341.5H180.4C189.3 341.5 195.5 345.7 196.6 357.7L206.3 427.8C235.3 471.2 284.8 499.8 340.9 499.8C430.2 499.8 502.7 427.4 502.7 338C502.7 258.8 445.8 193 370.7 179Z" fill="#FF7D5F"/>
<path d="M225.9 427.7L216.2 357.6C215.1 345.7 209 341.4 200 341.4H198.8C198.8 340.2 198.7 339.1 198.7 337.9C198.7 258.7 255.6 192.9 330.7 178.9V143.9H311.2V178.9C236.1 192.9 179.2 258.7 179.2 337.9C179.2 339.1 179.3 340.2 179.3 341.4H180.5C189.4 341.4 195.6 345.6 196.7 357.6L206.4 427.7C235.4 471.1 284.9 499.7 341 499.7C344.3 499.7 347.5 499.6 350.7 499.4C298.6 496.3 253.2 468.6 225.9 427.7Z" fill="#FF9D8D"/>
<path d="M219.3 502.7H157.4L144.1 492.3L129.7 502.7H10.4L22.7 431.8H207L219.3 502.7Z" fill="#FF7D5F"/>
<path d="M22.7 431.8L10.4 502.7H29.3L41.7 431.8H22.7Z" fill="#FF9D8D"/>
<path d="M196.7 357.6C195.6 345.7 189.5 341.4 180.5 341.4H133.8V28.2C133.8 17.8 125.3 9.29999 114.9 9.29999C104.4 9.29999 96.0001 17.8 96.0001 28.2V341.5H49.2001C40.3001 341.5 33.5001 345.7 33.0001 357.7L22.7001 431.9H207L196.7 357.6Z" fill="#8EC0D6"/>
<path d="M124.3 11.9C121.5 10.3 118.3 9.29999 114.8 9.29999C104.3 9.29999 95.9 17.8 95.9 28.2V341.5H114.8V28.2C114.8 21.2 118.7 15.2 124.3 11.9Z" fill="#A9D2E0"/>
<path d="M68.1001 341.4H49.2001C40.3001 341.4 33.5001 345.6 33.0001 357.6L22.7001 431.8H41.6001L51.9001 357.6C52.4001 345.7 59.2001 341.4 68.1001 341.4Z" fill="#A9D2E0"/>
<path d="M85.9001 502.7V468.9C85.9001 465.3 83.0001 462.3 79.3001 462.3C75.7001 462.3 72.7001 465.3 72.7001 468.9V502.7H85.9001Z" fill="#F7664D"/>
<path d="M52.8 502.7V468.9C52.8 465.3 49.8 462.3 46.2 462.3C42.6 462.3 39.6 465.3 39.6 468.9V502.7H52.8Z" fill="#F7664D"/>
<path d="M117.4 502.7V468.9C117.4 465.3 114.5 462.3 110.8 462.3C107.2 462.3 104.2 465.3 104.2 468.9V502.7H117.4Z" fill="#F7664D"/>
<path d="M190.1 502.7V468.9C190.1 465.3 187.2 462.3 183.5 462.3C179.9 462.3 176.9 465.3 176.9 468.9V502.7H190.1Z" fill="#F7664D"/>
<path d="M471.6 338C471.6 410.1 413.1 468.6 341 468.6C268.9 468.6 210.4 410.1 210.4 338C210.4 265.9 268.9 207.4 341 207.4C413.1 207.4 471.6 265.8 471.6 338Z" fill="#F4F4F4"/>
<path d="M239.6 338C239.6 270.8 290.3 215.5 355.6 208.3C350.8 207.8 345.9 207.4 340.9 207.4C268.8 207.4 210.3 265.9 210.3 338C210.3 410.1 268.8 468.6 340.9 468.6C345.9 468.6 350.7 468.3 355.6 467.7C290.4 460.4 239.6 405.2 239.6 338Z" fill="#F9F9F9"/>
<path d="M378.2 114.6H370.2V90H311.6V114.7H303.6C295.5 114.7 288.9 121.3 288.9 129.4C288.9 137.5 295.5 144.1 303.6 144.1H378.1C386.2 144.1 392.8 137.5 392.8 129.4C392.9 121.2 386.3 114.6 378.2 114.6Z" fill="#8EC0D6"/>
<path d="M311.7 129.3C311.7 121.2 318.3 114.6 326.4 114.6H334.4V90H311.8V114.7H303.8C295.7 114.7 289.1 121.3 289.1 129.4C289.1 137.5 295.7 144.1 303.8 144.1H326.4C318.2 144 311.7 137.4 311.7 129.3Z" fill="#A9D2E0"/>
<path d="M341 350.7H262.6C257.5 350.7 253.3 346.6 253.3 341.4C253.3 336.3 257.4 332.1 262.6 332.1H331.7V247.2C331.7 242.1 335.8 237.9 341 237.9C346.1 237.9 350.3 242 350.3 247.2V341.4C350.2 346.6 346.1 350.7 341 350.7Z" fill="#8EC0D6"/>
<path d="M341 477.8C263.9 477.8 201.1 415.1 201.1 337.9C201.1 260.8 263.8 198 341 198C418.1 198 480.9 260.7 480.9 337.9C480.8 415.1 418.1 477.8 341 477.8ZM341 216.6C274.1 216.6 219.6 271 219.6 338C219.6 404.9 274 459.4 341 459.4C407.9 459.4 462.4 405 462.4 338C462.3 271.1 407.9 216.6 341 216.6Z" fill="#161616"/>
<path d="M378.2 153.2H303.7C290.5 153.2 279.8 142.5 279.8 129.3C279.8 116.1 290.5 105.4 303.7 105.4H378.2C391.4 105.4 402.1 116.1 402.1 129.3C402.1 142.5 391.4 153.2 378.2 153.2ZM303.7 123.9C300.7 123.9 298.3 126.3 298.3 129.3C298.3 132.3 300.7 134.7 303.7 134.7H378.2C381.2 134.7 383.6 132.3 383.6 129.3C383.6 126.3 381.2 123.9 378.2 123.9H303.7Z" fill="#161616"/>
<path d="M370.3 123.8H311.7C306.6 123.8 302.4 119.7 302.4 114.5V90C302.4 84.9 306.5 80.7 311.7 80.7H370.3C375.4 80.7 379.6 84.8 379.6 90V114.6C379.5 119.7 375.4 123.8 370.3 123.8ZM320.9 105.3H361V99.2H320.9V105.3Z" fill="#161616"/>
<path d="M219.3 512H157.4C155.3 512 153.3 511.3 151.7 510L143.9 503.9L135.1 510.3C133.5 511.4 131.6 512 129.7 512H10.4C7.69999 512 5.09999 510.8 3.29999 508.7C1.49999 506.6 0.799988 503.9 1.29999 501.2L13.6 430.3C14.4 425.9 18.2 422.6 22.7 422.6H207C211.5 422.6 215.3 425.8 216.1 430.3L228.4 501.2C228.9 503.9 228.1 506.7 226.4 508.7C224.6 510.8 222 512 219.3 512ZM160.6 493.5H208.3L199.2 441.1H30.5L21.4 493.5H126.7L138.8 484.8C142.1 482.4 146.7 482.5 149.9 485L160.6 493.5Z" fill="#161616"/>
<path d="M207 441.1H22.7C20 441.1 17.5 439.9 15.7 437.9C13.9 435.9 13.1 433.2 13.5 430.6L23.7 356.8C24.5 341.4 34 332.2 49.1 332.2H86.6V317.8C86.6 312.7 90.7 308.5 95.9 308.5C101 308.5 105.2 312.6 105.2 317.8V341.4C105.2 346.5 101.1 350.7 95.9 350.7H49.2C44.5 350.7 42.5 351.7 42.3 358C42.3 358.3 42.3 358.6 42.2 358.9L33.4 422.6H196.4L187.6 358.9C186.9 351.1 184.5 350.7 180.6 350.7H133.9C128.8 350.7 124.6 346.6 124.6 341.4V28.2C124.6 22.9 120.3 18.5 114.9 18.5C109.6 18.5 105.2 22.8 105.2 28.2V270.9C105.2 276 101.1 280.2 95.9 280.2C90.8 280.2 86.6 276.1 86.6 270.9V28.2C86.7 12.6 99.3 0 114.8 0C130.4 0 143 12.6 143 28.2V332.2H180.5C195.2 332.2 204.5 341.2 205.9 356.8L216.1 430.5C216.5 433.2 215.7 435.8 213.9 437.8C212.2 439.9 209.6 441.1 207 441.1Z" fill="#161616"/>
<path d="M341 509C283.8 509 230.6 480.5 198.7 432.9C197.9 431.7 197.4 430.4 197.2 429L187.5 358.9C186.8 351.1 184.4 350.7 180.5 350.7H179.3C174.3 350.7 170.2 346.7 170 341.6V340.4C170 339.6 169.9 338.8 169.9 338C169.9 258.3 225 189.4 301.9 171.5V144C301.9 138.9 306 134.7 311.2 134.7H370.8C375.9 134.7 380.1 138.8 380.1 144V171.5C399.9 176.1 418.7 184.4 436.1 196C440.3 198.8 441.5 204.6 438.6 208.8C435.8 213 430 214.2 425.8 211.3C408.4 199.6 389.3 191.8 369.2 188.1C364.8 187.3 361.6 183.5 361.6 179V153.2H320.6V179C320.6 183.5 317.4 187.3 313 188.1C242.5 201.2 190.9 261.8 188.7 333.2C198.7 336 204.9 344.2 206.1 356.8L215.4 424.3C243.9 465.8 290.8 490.5 341.1 490.5C425.2 490.5 493.6 422.1 493.6 338C493.6 302.7 481.2 268.3 458.7 241C455.4 237.1 456 231.2 459.9 228C463.8 224.7 469.7 225.3 472.9 229.2C498.1 259.8 512 298.4 512 338C512 432.3 435.3 509 341 509Z" fill="#161616"/>
<path d="M85.9 502.7V468.9C85.9 465.3 83 462.3 79.3 462.3C75.7 462.3 72.7 465.3 72.7 468.9V502.7H85.9Z" fill="#161616"/>
<path d="M52.8 502.7V468.9C52.8 465.3 49.8 462.3 46.2 462.3C42.6 462.3 39.6 465.3 39.6 468.9V502.7H52.8Z" fill="#161616"/>
<path d="M117.4 502.7V468.9C117.4 465.3 114.5 462.3 110.8 462.3C107.2 462.3 104.2 465.3 104.2 468.9V502.7H117.4Z" fill="#161616"/>
<path d="M190.1 502.7V468.9C190.1 465.3 187.2 462.3 183.5 462.3C179.9 462.3 176.9 465.3 176.9 468.9V502.7H190.1Z" fill="#161616"/>
<path d="M341 350.7H262.6C257.5 350.7 253.3 346.6 253.3 341.4C253.3 336.3 257.4 332.1 262.6 332.1H331.7V247.2C331.7 242.1 335.8 237.9 341 237.9C346.1 237.9 350.3 242 350.3 247.2V341.4C350.2 346.6 346.1 350.7 341 350.7Z" fill="#161616"/>
<defs>
<clipPath id="clip0">
<rect width="512" height="512" fill="white"/>
</clipPath>
</defs>
</svg>
