<svg width="159" height="95" viewBox="0 0 159 95" fill="none" xmlns="http://www.w3.org/2000/svg">
<rect x="0.5" y="5.74414" width="61" height="19" stroke="currentColor"/>
<rect x="19.5508" y="58.277" width="19.4554" height="4.06564" stroke="currentColor"/>
<path d="M23.6069 88.5054L25.3672 62.3919H32.5189L34.8063 88.3909C35.0952 91.6746 32.5074 94.5 29.211 94.5C25.9602 94.5 23.3883 91.7488 23.6069 88.5054Z" stroke="currentColor"/>
<path d="M62 13.2441C68.6274 13.2441 74 18.6167 74 25.2441C74 31.8716 69.5 36.2441 62 37.2441L40.0368 39.3696C34.911 39.8657 31 44.1734 31 49.3231L31 58.5305" stroke="currentColor"/>
<path d="M62 16.2441C66.9706 16.2441 71 20.2736 71 25.2441C71 30.2147 67.5 33.2441 62 34.2441L37.8736 36.7277C32.2642 37.3052 28 42.0309 28 47.6699V58.4763" stroke="currentColor"/>
</svg>
