<svg width="512" height="512" viewBox="0 0 512 512" fill="none" xmlns="http://www.w3.org/2000/svg">
<path d="M108 299.3V387C108 392.6 112.5 397.1 118.1 397.1C123.7 397.1 128.2 392.6 128.2 387V348.5C128.2 342.9 132.7 338.4 138.3 338.4C143.9 338.4 148.4 342.9 148.4 348.5V358.6C148.4 364.2 152.9 368.6 158.5 368.6C164.1 368.6 168.6 364.1 168.6 358.6V331.8C168.6 326.2 173.1 321.7 178.7 321.7C184.3 321.7 188.8 326.2 188.8 331.8V338.5C188.8 344.1 193.3 348.6 198.9 348.6C204.5 348.6 209 344.1 209 338.5V299.3H108Z" fill="#EF5A50"/>
<path d="M171.9 436.7C171.9 443.2 166.6 448.5 160.1 448.5C153.6 448.5 148.3 443.2 148.3 436.7V419C148.3 412.5 153.6 407.2 160.1 407.2C166.6 407.2 171.9 412.5 171.9 419V436.7Z" fill="#EF5A50"/>
<path d="M371.4 249.3H351.8V276.8H371.4C374.2 276.8 376.4 274.5 376.4 271.8V254.3C376.4 251.6 374.2 249.3 371.4 249.3Z" fill="#78A7AF"/>
<path d="M351.8 289.3C351.8 294.8 347.3 299.3 341.8 299.3H102.7C97.2 299.3 92.7 294.8 92.7 289.3V236.9C92.7 231.4 97.2 226.9 102.7 226.9H341.8C347.3 226.9 351.8 231.4 351.8 236.9V289.3Z" fill="#E6E9ED"/>
<g opacity="0.1">
<path opacity="0.1" d="M125 289.3V236.9C125 231.4 129.5 226.9 135 226.9H102.7C97.2 226.9 92.7 231.4 92.7 236.9V289.3C92.7 294.8 97.2 299.3 102.7 299.3H135C129.5 299.3 125 294.8 125 289.3Z" fill="black"/>
</g>
<path d="M249.7 499.5C249.7 502.3 247.4 504.5 244.7 504.5H217.2C214.4 504.5 212.2 502.2 212.2 499.5V419.6C212.2 416.8 214.5 414.6 217.2 414.6H244.7C247.5 414.6 249.7 416.9 249.7 419.6V499.5Z" fill="#78A7AF"/>
<g opacity="0.1">
<path opacity="0.1" d="M234 499.5V419.6C234 416.8 236.3 414.6 239 414.6H217.3C214.5 414.6 212.3 416.9 212.3 419.6V499.5C212.3 502.3 214.6 504.5 217.3 504.5H239C236.3 504.5 234 502.3 234 499.5Z" fill="black"/>
</g>
<path d="M225.6 226.8V245.5C225.6 251.3 230.3 256 236.1 256C241.9 256 246.6 251.3 246.6 245.5V238.5C246.6 232.7 251.3 228 257.1 228C262.9 228 267.6 232.7 267.6 238.5V266.6C267.6 272.4 272.3 277.1 278.1 277.1C283.9 277.1 288.6 272.4 288.6 266.6V256.1C288.6 250.3 293.3 245.6 299.1 245.6C304.9 245.6 309.6 250.3 309.6 256.1V257.9C309.6 263.7 314.3 268.4 320.1 268.4C325.9 268.4 330.6 263.7 330.6 257.9V226.9L225.6 226.8Z" fill="#FB8276"/>
<path d="M388.2 184C386.7 184 385.5 183.1 385 181.7C379.8 165 376.2 161.4 359.5 156.2C358.1 155.8 357.2 154.5 357.2 153C357.2 151.5 358.1 150.3 359.5 149.8C376.2 144.6 379.8 141 385 124.3C385.4 122.9 386.7 122 388.2 122C389.7 122 390.9 122.9 391.4 124.3C396.6 141 400.2 144.6 416.9 149.8C418.3 150.2 419.2 151.5 419.2 153C419.2 154.5 418.3 155.7 416.9 156.2C400.2 161.4 396.6 165 391.4 181.7C391 183.1 389.7 184 388.2 184Z" fill="#FFBB4A"/>
<path d="M140.2 61.6C138.9 61.6 137.8 60.8 137.4 59.6C132.9 45 129.7 41.9 115.1 37.3C113.9 36.9 113.1 35.8 113.1 34.5C113.1 33.2 113.9 32.1 115.1 31.7C129.7 27.2 132.8 24 137.4 9.40002C137.8 8.20002 138.9 7.40002 140.2 7.40002C141.5 7.40002 142.6 8.20002 143 9.40002C147.5 24 150.7 27.1 165.3 31.7C166.5 32.1 167.3 33.2 167.3 34.5C167.3 35.8 166.5 36.9 165.3 37.3C150.7 41.8 147.6 45 143 59.6C142.6 60.8 141.5 61.6 140.2 61.6Z" fill="#FFBB4A"/>
<path d="M167.9 58.6V136.2C167.9 140.3 171.3 143.7 175.4 143.7C179.5 143.7 182.9 140.3 182.9 136.2V58.6C182.9 54.5 179.5 51.1 175.4 51.1C171.3 51.1 167.9 54.4 167.9 58.6Z" fill="black"/>
<path d="M383.9 255.6V254.3C383.9 247.4 378.3 241.8 371.4 241.8H359.3V236.8C359.3 227.2 351.4 219.3 341.8 219.3H334.1V79C334.1 74.9 330.7 71.5 326.6 71.5C322.5 71.5 319.1 74.9 319.1 79V219.3H272.8V79C272.8 74.9 269.4 71.5 265.3 71.5C261.2 71.5 257.8 74.9 257.8 79V219.3H225.5H182.9V173C182.9 168.9 179.5 165.5 175.4 165.5C171.3 165.5 167.9 168.9 167.9 173V219.3H125.7V79C125.7 74.9 122.3 71.5 118.2 71.5C114.1 71.5 110.7 74.9 110.7 79V219.3H102.7C93.1 219.3 85.2 227.2 85.2 236.8V289.2C85.2 298.1 91.9 305.4 100.5 306.5V387C100.5 396.7 108.4 404.6 118.1 404.6C127.8 404.6 135.7 396.7 135.7 387V348.5C135.7 347.1 136.8 345.9 138.3 345.9C139.8 345.9 140.9 347 140.9 348.5V358.6C140.9 368.3 148.8 376.1 158.5 376.1C168.2 376.1 176.1 368.2 176.1 358.6V331.8C176.1 330.4 177.2 329.2 178.7 329.2C180.1 329.2 181.3 330.3 181.3 331.8V338.5C181.3 348.2 189.2 356.1 198.9 356.1C208.6 356.1 216.5 348.2 216.5 338.5V306.8H279.5C283.6 306.8 287 303.4 287 299.3C287 295.2 283.6 291.8 279.5 291.8H102.7C101.3 291.8 100.2 290.7 100.2 289.3V236.9C100.2 235.5 101.3 234.4 102.7 234.4H218.1V245.6C218.1 255.5 226.2 263.6 236.1 263.6C246 263.6 254.1 255.5 254.1 245.6V238.6C254.1 236.9 255.5 235.6 257.1 235.6C258.8 235.6 260.1 237 260.1 238.6V266.7C260.1 276.6 268.2 284.7 278.1 284.7C288 284.7 296.1 276.6 296.1 266.7V256.2C296.1 254.5 297.5 253.2 299.1 253.2C300.8 253.2 302.1 254.6 302.1 256.2V258C302.1 267.9 310.2 276 320.1 276C330 276 338.1 267.9 338.1 258V234.5H341.4C342.8 234.5 343.9 235.6 343.9 237V289.4C343.9 290.8 342.8 291.9 341.4 291.9H314C309.9 291.9 306.5 295.3 306.5 299.4C306.5 303.5 309.9 306.9 314 306.9H341.8C351.4 306.9 359.3 299 359.3 289.4V284.4H371.4C378.3 284.4 383.9 278.8 383.9 271.9V270.7C385 271 385.8 272 385.8 273.1V325.2C385.8 326.6 384.7 327.7 383.3 327.7H241C231.4 327.7 223.5 335.6 223.5 345.2V407.1H217.3C210.4 407.1 204.8 412.7 204.8 419.6V499.5C204.8 506.4 210.4 512 217.3 512H244.8C251.7 512 257.3 506.4 257.3 499.5V479C257.3 474.9 253.9 471.5 249.8 471.5C245.7 471.5 242.3 474.9 242.3 479V497H219.8V422.1H242.3V448C242.3 452.1 245.7 455.5 249.8 455.5C253.9 455.5 257.3 452.1 257.3 448V419.6C257.3 412.7 251.7 407.1 244.8 407.1H238.6V345.2C238.6 343.8 239.7 342.7 241.1 342.7H383.4C393 342.7 400.9 334.8 400.9 325.2V273.1C400.8 263.6 393.3 255.9 383.9 255.6ZM115.5 306.8H201V338.5C201 339.9 199.9 341.1 198.4 341.1C196.9 341.1 195.8 340 195.8 338.5V331.8C195.8 322.1 187.9 314.2 178.2 314.2C168.5 314.2 160.6 322.1 160.6 331.8V358.6C160.6 360 159.5 361.1 158 361.1C156.5 361.1 155.4 360 155.4 358.6V348.5C155.4 338.8 147.5 330.9 137.8 330.9C128.1 330.9 120.2 338.8 120.2 348.5V387C120.2 388.4 119.1 389.6 117.6 389.6C116.2 389.6 115 388.5 115 387L115.5 306.8ZM239.2 238.5V245.5C239.2 247.2 237.8 248.5 236.2 248.5C234.6 248.5 233.2 247.1 233.2 245.5V234.3H239.8C239.3 235.7 239.2 237.1 239.2 238.5ZM323.5 257.8C323.5 259.5 322.1 260.8 320.5 260.8C318.8 260.8 317.5 259.4 317.5 257.8V256C317.5 246.1 309.4 238 299.5 238C289.6 238 281.5 246.1 281.5 256V266.5C281.5 268.2 280.1 269.5 278.5 269.5C276.8 269.5 275.5 268.1 275.5 266.5V238.4C275.5 237 275.3 235.6 275 234.2H323.7V257.8H323.5ZM368.9 269.3H359.3V256.8H368.9V269.3Z" fill="black"/>
<path d="M160.1 399.8C149.5 399.8 140.8 408.4 140.8 419.1V436.7C140.8 447.3 149.4 456 160.1 456C170.8 456 179.4 447.4 179.4 436.7V419C179.4 408.4 170.8 399.8 160.1 399.8ZM164.4 436.7C164.4 439 162.5 441 160.1 441C157.7 441 155.8 439.1 155.8 436.7V419C155.8 416.7 157.7 414.7 160.1 414.7C162.5 414.7 164.4 416.6 164.4 419V436.7Z" fill="black"/>
<path d="M419.2 142.7C404.8 138.2 403.1 136.5 398.6 122.1C397.2 117.5 393 114.5 388.3 114.5C383.6 114.5 379.4 117.6 378 122.1C373.5 136.5 371.8 138.2 357.4 142.7C352.8 144.1 349.8 148.3 349.8 153C349.8 157.8 352.9 161.9 357.4 163.3C371.8 167.8 373.5 169.5 378 183.9C379.4 188.5 383.6 191.5 388.3 191.5C393.1 191.5 397.2 188.4 398.6 183.9C403.1 169.5 404.8 167.8 419.2 163.3C423.8 161.9 426.8 157.7 426.8 153C426.8 148.2 423.7 144.1 419.2 142.7ZM388.2 168.7C384.6 161 380.2 156.6 372.5 153C380.2 149.4 384.6 145 388.2 137.3C391.8 145 396.2 149.4 403.9 153C396.2 156.6 391.8 161 388.2 168.7Z" fill="black"/>
<path d="M113 44.5C125.2 48.3 126.5 49.6 130.3 61.8C131.7 66.2 135.7 69.1 140.2 69.1C144.8 69.1 148.8 66.2 150.1 61.8C153.9 49.6 155.2 48.3 167.4 44.5C171.8 43.1 174.7 39.2 174.7 34.6C174.7 30 171.8 26 167.4 24.7C155.2 20.9 153.9 19.6 150.1 7.39998C148.7 2.99998 144.8 0.0999756 140.2 0.0999756C135.6 0.0999756 131.6 2.99998 130.3 7.39998C126.5 19.6 125.2 20.9 113 24.7C108.6 26.1 105.7 30.1 105.7 34.6C105.7 39.1 108.6 43.1 113 44.5ZM140.2 23C143 28.3 146.5 31.8 151.8 34.6C146.5 37.4 143 40.9 140.2 46.2C137.4 40.9 133.9 37.4 128.6 34.6C134 31.8 137.4 28.3 140.2 23Z" fill="black"/>
</svg>
