<svg width="512" height="512" viewBox="0 0 512 512" fill="none" xmlns="http://www.w3.org/2000/svg">
<g clip-path="url(#clip0)">
<path d="M161.7 285.3L125.4 472.2L141.4 504.5L241.4 331.3L161.7 285.3Z" fill="#BA1956"/>
<path d="M137.5 271.3L37.5 444.5L109.4 439.9L125.4 472.2L215.4 316.3L137.5 271.3Z" fill="#FF0F47"/>
<path d="M350.3 285.3L386.6 472.2L370.6 504.5L270.6 331.3L350.3 285.3Z" fill="#742466"/>
<path d="M374.5 271.3L474.5 444.5L402.6 439.9L386.6 472.2L296.6 316.3L374.5 271.3Z" fill="#BA1956"/>
<path d="M256 7.5V364.5C354.6 364.5 434.5 284.6 434.5 186C434.5 87.4 354.6 7.5 256 7.5Z" fill="#FF4F42"/>
<path d="M404.5 186C404.5 87.4 338 7.5 256 7.5C157.4 7.5 77.5 87.4 77.5 186C77.5 284.6 157.4 364.5 256 364.5C338 364.5 404.5 284.6 404.5 186Z" fill="#FF7040"/>
<path d="M256 67.5V304.5C321.4 304.5 374.5 251.4 374.5 186C374.5 120.6 321.4 67.5 256 67.5Z" fill="#FFEBCE"/>
<path d="M344.5 186C344.5 120.6 304.9 67.5 256 67.5C190.6 67.5 137.5 120.6 137.5 186C137.5 251.4 190.6 304.5 256 304.5C304.9 304.5 344.5 251.4 344.5 186Z" fill="white"/>
<path d="M331 158.8L279.2 151.3L256 104.3L236 175.6L256 222.6L302.4 247L293.5 195.4L331 158.8Z" fill="#FFC46C"/>
<path d="M232.8 151.3L181 158.8L218.5 195.4L209.6 247L256 222.6V104.3L232.8 151.3Z" fill="#FFD89D"/>
<path d="M481 440.8L414.2 325.1C412.1 321.5 407.5 320.3 404 322.4C400.5 324.5 399.2 329.1 401.3 332.6L461 436.1L403 432.4C400 432.2 397.1 433.8 395.8 436.6L370 488.7L299.7 366.9C381.3 347.1 442 273.5 442 186C442 83.4 358.6 0 256 0C153.4 0 70 83.4 70 186C70 230 85.3 270.4 110.9 302.3L31 440.8C29.6 443.2 29.7 446.2 31.1 448.5C32.5 450.8 35.2 452.2 38 452L105 447.7L134.7 507.9C135.9 510.4 138.4 512 141.2 512.1C141.3 512.1 141.4 512.1 141.4 512.1C144.1 512.1 146.6 510.7 147.9 508.3L214.6 392.7C216.7 389.1 215.4 384.5 211.9 382.5C208.3 380.4 203.7 381.7 201.7 385.2L142 488.6L116.2 436.5C114.9 433.8 112 432.1 109 432.3L51 436L121.4 314.1C155.3 349.8 203.1 372 256 372C265.6 372 275 371.3 284.2 369.9L364.1 508.3C365.4 510.6 367.9 512.1 370.6 512.1C370.7 512.1 370.8 512.1 370.8 512.1C373.6 512 376.1 510.4 377.3 507.9L407 447.7L474 452C476.8 452.2 479.4 450.8 480.9 448.5C482.4 446.1 482.4 443.1 481 440.8ZM85 186C85 91.7 161.7 15 256 15C350.3 15 427 91.7 427 186C427 280.3 350.3 357 256 357C161.7 357 85 280.3 85 186Z" fill="black"/>
<path d="M355.7 108.9C353.2 105.6 348.5 105 345.2 107.6C341.9 110.1 341.3 114.8 343.9 118.1C359 137.7 367 161.2 367 186C367 247.2 317.2 297 256 297C194.8 297 145 247.2 145 186C145 124.8 194.8 75 256 75C280.8 75 304.3 83 323.9 98.2C327.2 100.7 331.9 100.1 334.4 96.9C336.9 93.6 336.3 88.9 333.1 86.4C310.9 69.1 284.2 60 256 60C186.5 60 130 116.5 130 186C130 255.5 186.5 312 256 312C325.5 312 382 255.5 382 186C382 157.8 372.9 131.1 355.7 108.9Z" fill="black"/>
<path d="M284.2 144.4L262.7 101C261.4 98.4 258.8 96.8 256 96.8C253.1 96.8 250.5 98.4 249.3 101L227.9 144.4L180 151.4C177.2 151.8 174.8 153.8 173.9 156.5C173 159.2 173.8 162.2 175.8 164.2L210.5 198L202.3 245.7C201.8 248.5 203 251.4 205.3 253C207.6 254.7 210.7 254.9 213.2 253.6L256.1 231.1L299 253.6C300.1 254.2 301.3 254.5 302.5 254.5C304.1 254.5 305.6 254 306.9 253.1C309.2 251.4 310.4 248.6 309.9 245.8L301.7 198.1L336.4 164.3C338.4 162.3 339.2 159.3 338.3 156.6C337.4 153.9 335.1 151.9 332.2 151.5L284.2 144.4ZM288.3 190C286.5 191.7 285.7 194.2 286.1 196.6L292.4 233.2L259.5 216C258.4 215.4 257.2 215.1 256 215.1C254.8 215.1 253.6 215.4 252.5 216L219.6 233.3L225.9 196.7C226.3 194.3 225.5 191.8 223.7 190.1L197.1 164L233.9 158.7C236.3 158.3 238.5 156.8 239.5 154.6L255.9 121.3L272.4 154.6C273.5 156.8 275.6 158.3 278 158.7L314.8 164L288.3 190Z" fill="black"/>
</g>
<defs>
<clipPath id="clip0">
<rect width="512" height="512" fill="white"/>
</clipPath>
</defs>
</svg>
