<svg width="512" height="512" viewBox="0 0 512 512" fill="none" xmlns="http://www.w3.org/2000/svg">
<path d="M306.7 82.2H222.6V140.9H306.7V82.2Z" fill="#FF5948"/>
<path d="M243.5 82.2H222.6V140.9H243.5V82.2Z" fill="#D44A3C"/>
<path d="M417.4 82.2H333.3V140.9H417.4V82.2Z" fill="#FF5948"/>
<path d="M354.2 82.2H333.3V140.9H354.2V82.2Z" fill="#D44A3C"/>
<path d="M471.6 164.1H40.3999V429.8H471.6V164.1Z" fill="#CCA38D"/>
<path d="M61.2999 164.1H40.3999V429.8H61.2999V164.1Z" fill="#A68472"/>
<path d="M438.9 201.4H199.6V429.8H438.9V201.4Z" fill="#5E5456"/>
<path d="M438.9 201.4H199.6V243.2H438.9V201.4Z" fill="#FF5948"/>
<path d="M168.1 243.2H84V429.8H168.1V243.2Z" fill="#FF5948"/>
<path d="M104.9 243.2H84V429.8H104.9V243.2Z" fill="#D44A3C"/>
<path d="M52.5999 225.8H8.69995V311.5H52.5999V225.8Z" fill="#FF5948"/>
<path d="M491.9 130.3H20.1001V180.5H491.9V130.3Z" fill="#FFD359"/>
<path d="M41.0001 130.3H20.1001V180.5H41.0001V130.3Z" fill="#DB9840"/>
<path d="M307.5 429.8H235.1C234.5 429.8 233.9 429.3 233.9 428.6V353.3C233.9 352.7 234.4 352.1 235.1 352.1H307.5C308.1 352.1 308.7 352.6 308.7 353.3V428.6C308.7 429.3 308.1 429.8 307.5 429.8Z" fill="#CCA38D"/>
<path d="M254.8 428.6V353.3C254.8 352.7 255.3 352.1 256 352.1H235.1C234.5 352.1 233.9 352.6 233.9 353.3V428.6C233.9 429.2 234.4 429.8 235.1 429.8H256C255.3 429.8 254.8 429.3 254.8 428.6Z" fill="#A68472"/>
<path d="M402.9 429.8H330.5C329.9 429.8 329.3 429.3 329.3 428.6V353.3C329.3 352.7 329.8 352.1 330.5 352.1H402.9C403.5 352.1 404.1 352.6 404.1 353.3V428.6C404.1 429.3 403.6 429.8 402.9 429.8Z" fill="#CCA38D"/>
<path d="M350.3 428.6V353.3C350.3 352.7 350.8 352.1 351.5 352.1H330.6C330 352.1 329.4 352.6 329.4 353.3V428.6C329.4 429.2 329.9 429.8 330.6 429.8H351.5C350.8 429.8 350.3 429.3 350.3 428.6Z" fill="#A68472"/>
<path d="M402.9 352.1H330.5C329.9 352.1 329.3 351.6 329.3 350.9V275.6C329.3 275 329.8 274.4 330.5 274.4H402.9C403.5 274.4 404.1 274.9 404.1 275.6V351C404.1 351.6 403.6 352.1 402.9 352.1Z" fill="#CCA38D"/>
<path d="M350.3 351V275.7C350.3 275.1 350.8 274.5 351.5 274.5H330.6C330 274.5 329.4 275 329.4 275.7V351C329.4 351.6 329.9 352.2 330.6 352.2H351.5C350.8 352.1 350.3 351.6 350.3 351Z" fill="#A68472"/>
<path d="M283.2 96.5H245.6C241.3 96.5 237.8 100 237.8 104.3C237.8 108.6 241.3 112.1 245.6 112.1H283.2C287.5 112.1 291 108.6 291 104.3C291 100 287.5 96.5 283.2 96.5Z" fill="black"/>
<path d="M393.9 96.5H356.3C352 96.5 348.5 100 348.5 104.3C348.5 108.6 352 112.1 356.3 112.1H393.9C398.2 112.1 401.7 108.6 401.7 104.3C401.7 100 398.3 96.5 393.9 96.5Z" fill="black"/>
<path d="M143.5 331.3C147.808 331.3 151.3 327.808 151.3 323.5C151.3 319.192 147.808 315.7 143.5 315.7C139.192 315.7 135.7 319.192 135.7 323.5C135.7 327.808 139.192 331.3 143.5 331.3Z" fill="black"/>
<path d="M504.2 422.1H479.5V291.6C479.5 287.3 476 283.8 471.7 283.8C467.4 283.8 463.9 287.3 463.9 291.6V422.2H446.8V243.2V201.4C446.8 197.1 443.3 193.6 439 193.6H199.6C195.3 193.6 191.8 197.1 191.8 201.4V243.2V422.2H176V243.2C176 238.9 172.5 235.4 168.2 235.4H84C79.7 235.4 76.2 238.9 76.2 243.2V422.2H48.3V319.3H52.6C56.9 319.3 60.4 315.8 60.4 311.5V225.7C60.4 221.4 56.9 217.9 52.6 217.9H48.3V188.3H463.8V252.8C463.8 257.1 467.3 260.6 471.6 260.6C475.9 260.6 479.4 257.1 479.4 252.8V188.3H491.9C496.2 188.3 499.7 184.8 499.7 180.5V130.3C499.7 126 496.2 122.5 491.9 122.5H425.3V82C425.3 77.7 421.8 74.2 417.5 74.2H333.4C329.1 74.2 325.6 77.7 325.6 82V122.3H314.6V82C314.6 77.7 311.1 74.2 306.8 74.2H222.7C218.4 74.2 214.9 77.7 214.9 82V122.3H151.5C147.2 122.3 143.7 125.8 143.7 130.1C143.7 134.4 147.2 137.9 151.5 137.9H222.7H222.8H222.9H306.8H306.9H307H333.5H333.6H333.7H417.6H417.7H417.8H484V172.4H471.6H471.5H471.4H40.4H40.3H40.2H28V137.9H110.8C115.1 137.9 118.6 134.4 118.6 130.1C118.6 125.8 115.1 122.3 110.8 122.3H20.1C15.8 122.3 12.3 125.8 12.3 130.1V180.3C12.3 184.6 15.8 188.1 20.1 188.1H32.6V217.7H8.7C4.4 217.7 0.9 221.2 0.9 225.5V249C0.9 253.3 4.4 256.8 8.7 256.8C13 256.8 16.5 253.3 16.5 249V233.4H44.7V303.5H16.5V286.2C16.5 281.9 13 278.4 8.7 278.4C4.4 278.4 0.9 281.9 0.9 286.2V311.4C0.9 315.7 4.4 319.2 8.7 319.2H32.6V422H7.8C3.5 422 0 425.5 0 429.8C0 434.1 3.5 437.6 7.8 437.6H84H168.1H199.6H235.1H307.5H330.6H403H438.9H504.2C508.5 437.6 512 434.1 512 429.8C512 425.6 508.5 422.1 504.2 422.1ZM341.1 89.9H409.5V122.4H341.1V89.9ZM230.4 89.9H298.8V122.4H230.4V89.9ZM377.6 391.1L396.3 371.7V410.5L377.6 391.1ZM385.7 422.1H347.8L366.7 402.4L385.7 422.1ZM366.7 379.8L347.7 360.1H385.6L366.7 379.8ZM347.8 344.4L366.8 324.7L385.8 344.4H347.8ZM355.8 391.1L337.1 410.5V371.7L355.8 391.1ZM396.3 332.8L377.6 313.4L396.3 294V332.8ZM366.7 302L347.7 282.3H385.6L366.7 302ZM355.8 313.3L337.1 332.7V293.9L355.8 313.3ZM252.3 422.1L271.2 402.4L290.1 422.1H252.3ZM300.8 410.5L282.1 391.1L300.8 371.7V410.5ZM271.3 379.8L252.3 360.1H290.2L271.3 379.8ZM260.4 391.1L241.7 410.5V371.7L260.4 391.1ZM207.4 230.1H431V235.3H207.4V230.1ZM431 209.2V214.4H207.4V209.2H431ZM207.4 251H431V422.1H411.9V353.4C411.9 353.2 411.9 353 411.9 352.9C411.9 352.8 411.9 352.7 411.9 352.6C411.9 352.5 411.9 352.3 411.9 352.2C411.9 352.1 411.9 351.9 411.9 351.8C411.9 351.7 411.9 351.6 411.9 351.5C411.9 351.3 411.9 351.1 411.9 351V275.6C411.9 275.4 411.9 275.2 411.9 275.1C412.1 272.8 411.3 270.5 409.5 268.8C407.8 267.2 405.6 266.5 403.5 266.6C403.3 266.6 403.1 266.6 402.9 266.6H330.5C330.3 266.6 330.1 266.6 329.9 266.6C327.8 266.4 325.6 267.2 323.9 268.8C322.1 270.5 321.3 272.8 321.5 275.1C321.5 275.3 321.5 275.5 321.5 275.6V351C321.5 351.2 321.5 351.4 321.5 351.5C321.5 351.6 321.5 351.7 321.5 351.8C321.5 351.9 321.5 352.1 321.5 352.2C321.5 352.3 321.5 352.5 321.5 352.6C321.5 352.7 321.5 352.8 321.5 352.9C321.5 353.1 321.5 353.3 321.5 353.4V422.1H316.5V353.4C316.5 353.2 316.5 353 316.5 352.9C316.7 350.6 315.9 348.3 314.1 346.6C312.4 345 310.2 344.3 308.1 344.4C307.9 344.4 307.7 344.4 307.5 344.4H235.1C234.9 344.4 234.7 344.4 234.5 344.4C232.4 344.2 230.2 345 228.5 346.6C226.7 348.3 225.9 350.6 226.1 352.9C226.1 353.1 226.1 353.3 226.1 353.4V422.1H207.4V251ZM91.9 251H160.3V422.1H91.9V251Z" fill="black"/>
</svg>
