<svg width="219" height="79" viewBox="0 0 219 79" fill="none" xmlns="http://www.w3.org/2000/svg">
<g clip-path="url(#clip0_504_5)">
<path d="M201.059 43.1627H187.425C182.668 43.1627 178.105 45.0503 174.74 48.4103C171.376 51.7703 169.485 56.3276 169.484 61.0798V79H201.059C203.435 79.0309 205.793 78.5903 207.996 77.7037C210.2 76.8171 212.205 75.5021 213.896 73.8352C215.587 72.1682 216.93 70.1824 217.846 67.993C218.762 65.8036 219.234 63.4543 219.234 61.0813C219.234 58.7084 218.762 56.359 217.846 54.1696C216.93 51.9803 215.587 49.9945 213.896 48.3275C212.205 46.6605 210.2 45.3456 207.996 44.459C205.793 43.5723 203.435 43.1317 201.059 43.1627" fill="#FFB81C"/>
<path d="M20.9798 59.8303H13.6825C13.0741 59.7775 12.5076 59.4988 12.0948 59.0492C11.6821 58.5996 11.4531 58.0117 11.4531 57.4017C11.4531 56.7917 11.6821 56.2039 12.0948 55.7543C12.5076 55.3046 13.0741 55.0259 13.6825 54.9732H26.5137V51.0119H13.6825C11.9891 51.0119 10.365 51.6838 9.16758 52.8799C7.97015 54.0759 7.29743 55.6981 7.29743 57.3895C7.29743 59.081 7.97015 60.7032 9.16758 61.8992C10.365 63.0953 11.9891 63.7672 13.6825 63.7672H20.9798C21.3268 63.7553 21.6726 63.8133 21.9967 63.9377C22.3208 64.0621 22.6165 64.2504 22.8662 64.4914C23.1159 64.7324 23.3145 65.0211 23.4501 65.3403C23.5857 65.6596 23.6556 66.0028 23.6556 66.3496C23.6556 66.6964 23.5857 67.0397 23.4501 67.3589C23.3145 67.6782 23.1159 67.9669 22.8662 68.2079C22.6165 68.4489 22.3208 68.6372 21.9967 68.7616C21.6726 68.886 21.3268 68.944 20.9798 68.9321H7.6025V72.8934H20.9798C22.7137 72.8934 24.3765 72.2054 25.6026 70.9808C26.8286 69.7561 27.5174 68.0952 27.5174 66.3633C27.5174 64.6315 26.8286 62.9705 25.6026 61.7459C24.3765 60.5213 22.7137 59.8333 20.9798 59.8333V59.8303ZM73.8727 73.3291C73.3612 73.3293 72.8572 73.2062 72.4036 72.9701C71.95 72.734 71.5602 72.392 71.2674 71.9731L60.9164 57.2463L60.1659 56.1189V72.8781H56.2V53.7756C56.2026 53.1001 56.42 52.4429 56.8208 51.8988C57.2216 51.3547 57.7852 50.9518 58.4301 50.7484C59.075 50.545 59.768 50.5515 60.409 50.767C61.05 50.9825 61.6058 51.3958 61.9963 51.9474L72.3473 66.6711L73.0978 67.8016V51.0241H77.0637V70.1387C77.0671 70.8185 76.8519 71.4814 76.45 72.0299C76.048 72.5785 75.4803 72.9836 74.8306 73.1859C74.5177 73.2845 74.1916 73.3348 73.8635 73.3352L73.8727 73.3291ZM36.2698 68.9443V63.7794H50.0742V59.8181H36.2698V54.9732H50.6844V51.0119H36.0868C35.035 51.0119 34.0262 51.4292 33.2825 52.1721C32.5387 52.915 32.1209 53.9226 32.1209 54.9732V68.9443C32.1209 69.9949 32.5387 71.0024 33.2825 71.7453C34.0262 72.4882 35.035 72.9055 36.0868 72.9055H51.0352V68.9443H36.2698ZM156.412 51.0241H160.546V72.8903H156.412V51.0241ZM127.778 51.0241H122.909L117.607 59.7115H112.342V51.0241H108.208V72.8903H112.342V63.6575H117.479L123.51 72.8903H128.62L121.012 61.6829L127.778 51.0241V51.0241ZM141.69 50.5822C141.059 50.5814 140.443 50.767 139.919 51.1158C139.394 51.4645 138.985 51.9606 138.743 52.5415L130.265 72.8903H134.667L136.726 67.6066H146.684L148.743 72.8903H153.145L144.649 52.5446C144.407 51.9632 143.998 51.4666 143.473 51.1178C142.949 50.769 142.332 50.5836 141.702 50.5853L141.69 50.5822ZM138.309 63.6575L141.702 55.0768L145.097 63.6575H138.309ZM98.4795 51.0241V64.1968C98.4795 68.4628 95.9658 69.7091 92.6405 69.7091C89.3153 69.7091 86.8015 68.4506 86.8015 64.1968V51.0241H82.6739V64.1968C82.6739 70.9005 87.0364 73.6277 92.6466 73.6277C98.2569 73.6277 102.619 70.9158 102.619 64.1968V51.0241H98.4795ZM53.5154 17.0089H41.3523C40.1283 16.912 38.9859 16.358 38.1527 15.4572C37.3195 14.5564 36.8568 13.3751 36.8568 12.1487C36.8568 10.9224 37.3195 9.74104 38.1527 8.84027C38.9859 7.93949 40.1283 7.38544 41.3523 7.28856H62.155L66.8957 -0.000185297H41.3523C38.1264 -0.000185297 35.0327 1.27979 32.7517 3.55815C30.4707 5.83652 29.1892 8.92664 29.1892 12.1487C29.1892 15.3708 30.4707 18.461 32.7517 20.7393C35.0327 23.0177 38.1264 24.2977 41.3523 24.2977H53.5154C54.1645 24.2814 54.8102 24.3951 55.4146 24.632C56.019 24.8688 56.5698 25.2241 57.0346 25.6769C57.4994 26.1297 57.8687 26.6708 58.121 27.2683C58.3732 27.8659 58.5031 28.5078 58.5031 29.1563C58.5031 29.8048 58.3732 30.4467 58.121 31.0443C57.8687 31.6419 57.4994 32.183 57.0346 32.6357C56.5698 33.0885 56.019 33.4438 55.4146 33.6807C54.8102 33.9175 54.1645 34.0312 53.5154 34.015H20.6778C18.9038 34.0417 17.1423 33.7158 15.4956 33.0563C13.849 32.3967 12.35 31.4167 11.0861 30.1731C9.82217 28.9296 8.81845 27.4474 8.13333 25.8128C7.44822 24.1782 7.0954 22.4238 7.0954 20.6518C7.0954 18.8797 7.44822 17.1253 8.13333 15.4907C8.81845 13.8561 9.82217 12.3739 11.0861 11.1304C12.35 9.88685 13.849 8.90679 15.4956 8.24724C17.1423 7.58768 18.9038 7.2618 20.6778 7.28856H25.6687L30.4064 -0.000185297H20.6778C17.9414 -0.0333853 15.2257 0.476269 12.688 1.49923C10.1503 2.5222 7.84117 4.03812 5.89442 5.95913C3.94766 7.88013 2.40203 10.168 1.34713 12.6901C0.292221 15.2122 -0.250977 17.9184 -0.250977 20.6518C-0.250977 23.3851 0.292221 26.0913 1.34713 28.6134C2.40203 31.1355 3.94766 33.4234 5.89442 35.3444C7.84117 37.2654 10.1503 38.7813 12.688 39.8043C15.2257 40.8273 17.9414 41.3369 20.6778 41.3037H53.5154C55.1287 41.3292 56.731 41.0339 58.2289 40.4349C59.7268 39.8359 61.0904 38.9452 62.2403 37.8147C63.3902 36.6841 64.3034 35.3364 64.9268 33.8499C65.5501 32.3634 65.8711 30.7679 65.8711 29.1563C65.8711 27.5447 65.5501 25.9492 64.9268 24.4627C64.3034 22.9762 63.3902 21.6285 62.2403 20.498C61.0904 19.3675 59.7268 18.4768 58.2289 17.8777C56.731 17.2787 55.1287 16.9834 53.5154 17.0089" fill="#101820"/>
<path d="M128.684 17.2073L124.074 24.298H126.491C127.14 24.2817 127.785 24.3954 128.39 24.6323C128.994 24.8691 129.545 25.2244 130.01 25.6772C130.474 26.13 130.844 26.6711 131.096 27.2686C131.348 27.8662 131.478 28.5081 131.478 29.1566C131.478 29.8051 131.348 30.447 131.096 31.0446C130.844 31.6422 130.474 32.1833 130.01 32.636C129.545 33.0888 128.994 33.4441 128.39 33.681C127.785 33.9178 127.14 34.0315 126.491 34.0153H117.756L113.016 41.304H126.491C129.524 41.3014 132.447 40.1667 134.686 38.1226C136.925 36.0785 138.319 33.2725 138.593 30.2551C138.868 27.2377 138.004 24.2267 136.171 21.8128C134.337 19.3989 131.667 17.7563 128.684 17.2073" fill="#FFB81C"/>
<path d="M147.168 -0.000185297H139.871L135.146 7.28856H147.18C148.954 7.2618 150.716 7.58768 152.363 8.24724C154.009 8.90679 155.508 9.88685 156.772 11.1304C158.036 12.3739 159.04 13.8561 159.725 15.4907C160.41 17.1253 160.763 18.8797 160.763 20.6518C160.763 22.4238 160.41 24.1782 159.725 25.8128C159.04 27.4474 158.036 28.9296 156.772 30.1731C155.508 31.4167 154.009 32.3967 152.363 33.0563C150.716 33.7158 148.954 34.0417 147.18 34.015H142.177L137.44 41.3037H147.168C149.905 41.3369 152.62 40.8273 155.158 39.8043C157.696 38.7813 160.005 37.2654 161.952 35.3444C163.898 33.4234 165.444 31.1355 166.499 28.6134C167.554 26.0913 168.097 23.3851 168.097 20.6518C168.097 17.9184 167.554 15.2122 166.499 12.6901C165.444 10.168 163.898 7.88013 161.952 5.95913C160.005 4.03812 157.696 2.5222 155.158 1.49923C152.62 0.476269 149.905 -0.0333853 147.168 -0.000185297" fill="#FFB81C"/>
<path d="M98.6439 7.28874L103.382 0H91.3162L86.5784 7.28874H98.6439ZM102.167 29.158C102.167 27.5618 101.853 25.9813 101.241 24.5067C100.629 23.0321 99.7322 21.6924 98.6017 20.5642C97.4713 19.4359 96.1294 18.5413 94.6526 17.9313C93.1759 17.3213 91.5933 17.0079 89.9952 17.0091H80.2605L75.657 24.0967C76.3797 24.2288 77.1127 24.2961 77.8474 24.2978H89.9952C90.6443 24.2816 91.29 24.3953 91.8944 24.6321C92.4988 24.869 93.0496 25.2243 93.5144 25.6771C93.9792 26.1298 94.3486 26.671 94.6008 27.2685C94.853 27.8661 94.9829 28.508 94.9829 29.1565C94.9829 29.805 94.853 30.4469 94.6008 31.0445C94.3486 31.642 93.9792 32.1831 93.5144 32.6359C93.0496 33.0887 92.4988 33.444 91.8944 33.6808C91.29 33.9177 90.6443 34.0314 89.9952 34.0151H69.2017L64.4609 41.3039H89.9952C91.593 41.3051 93.1754 40.9918 94.6519 40.382C96.1285 39.7722 97.4703 38.8778 98.6007 37.7499C99.7311 36.6219 100.628 35.2826 101.24 33.8084C101.852 32.3342 102.167 30.7539 102.167 29.158ZM105.688 34.0151L100.95 41.3039H113.016L117.757 34.0151H105.688ZM102.167 12.1489C102.167 15.371 103.449 18.4611 105.73 20.7395C108.011 23.0179 111.105 24.2978 114.331 24.2978H124.074L128.684 17.2072C127.96 17.076 127.226 17.0097 126.491 17.0091H114.331C113.659 17.0622 112.984 16.976 112.348 16.7559C111.711 16.5357 111.127 16.1864 110.633 15.7299C110.138 15.2734 109.743 14.7196 109.473 14.1033C109.203 13.487 109.064 12.8216 109.064 12.1489C109.064 11.4762 109.203 10.8108 109.473 10.1945C109.743 9.57822 110.138 9.0244 110.633 8.5679C111.127 8.11141 111.711 7.7621 112.348 7.54196C112.984 7.32181 113.659 7.2356 114.331 7.28874H135.145L139.871 0H114.331C111.105 0 108.011 1.27997 105.73 3.55834C103.449 5.8367 102.167 8.92683 102.167 12.1489" fill="#D50032"/>
<path d="M75.6565 24.0967L80.2661 17.0091H77.8469C77.1755 17.0622 76.5004 16.976 75.864 16.7559C75.2276 16.5357 74.6437 16.1864 74.149 15.7299C73.6543 15.2734 73.2596 14.7196 72.9896 14.1033C72.7196 13.4871 72.5802 12.8216 72.5802 12.1489C72.5802 11.4762 72.7196 10.8108 72.9896 10.1945C73.2596 9.57822 73.6543 9.02441 74.149 8.56791C74.6437 8.11141 75.2276 7.7621 75.864 7.54196C76.5004 7.32182 77.1755 7.2356 77.8469 7.28874H86.578L91.3157 0H77.8408C74.8082 0.00487585 71.8868 1.14113 69.6495 3.18596C67.4122 5.23079 66.0203 8.03668 65.7468 11.0534C65.4734 14.0701 66.3381 17.0801 68.1713 19.4931C70.0045 21.906 72.6741 23.5479 75.6565 24.0967V24.0967ZM193.291 68.9414V72.8874H182.699C181.65 72.8875 180.644 72.4722 179.9 71.7326C179.157 70.993 178.737 69.9894 178.733 68.9414V51.0243H182.867V68.9414H193.291ZM210.744 51.0243V55.1531H203.764V72.8905H199.63V55.1531H192.651V51.0243H210.744ZM172.668 70.2151C172.669 70.8126 172.492 71.3969 172.16 71.8939C171.828 72.391 171.356 72.7785 170.804 73.0074C170.251 73.2364 169.643 73.2964 169.056 73.18C168.469 73.0636 167.93 72.7759 167.508 72.3534C167.085 71.9309 166.797 71.3926 166.68 70.8065C166.563 70.2205 166.624 69.6131 166.853 69.0612C167.082 68.5093 167.47 68.0377 167.968 67.7061C168.465 67.3745 169.05 67.1978 169.648 67.1984C170.449 67.1984 171.217 67.5163 171.784 68.082C172.35 68.6477 172.668 69.415 172.668 70.2151" fill="#101820"/>
<path d="M185.995 28.7314H178.758L178.737 12.5298L185.979 19.7485L185.995 28.7314V28.7314ZM212.105 28.1921L206.995 33.3082L178.88 5.29287L178.728 5.14356L178.722 0.0365656L207.505 0L207.514 7.22475L191.08 7.24913L212.105 28.1921V28.1921Z" fill="#FFB81C"/>
</g>
<defs>
<clipPath id="clip0_504_5">
<rect width="219" height="79" fill="white"/>
</clipPath>
</defs>
</svg>
