<?xml version="1.0" encoding="UTF-8" standalone="no"?>
<svg
   xmlns:dc="http://purl.org/dc/elements/1.1/"
   xmlns:cc="http://creativecommons.org/ns#"
   xmlns:rdf="http://www.w3.org/1999/02/22-rdf-syntax-ns#"
   xmlns:svg="http://www.w3.org/2000/svg"
   xmlns="http://www.w3.org/2000/svg"
   xmlns:sodipodi="http://sodipodi.sourceforge.net/DTD/sodipodi-0.dtd"
   xmlns:inkscape="http://www.inkscape.org/namespaces/inkscape"
   width="140"
   height="110"
   viewBox="0 0 140 110"
   fill="none"
   version="1.1"
   id="svg2189"
   sodipodi:docname="shop.svg"
   inkscape:version="1.0.1 (3bc2e813f5, 2020-09-07)">
  <metadata
     id="metadata2195">
    <rdf:RDF>
      <cc:Work
         rdf:about="">
        <dc:format>image/svg+xml</dc:format>
        <dc:type
           rdf:resource="http://purl.org/dc/dcmitype/StillImage" />
      </cc:Work>
    </rdf:RDF>
  </metadata>
  <defs
     id="defs2193" />
  <sodipodi:namedview
     pagecolor="#ffffff"
     bordercolor="#666666"
     borderopacity="1"
     objecttolerance="10"
     gridtolerance="10"
     guidetolerance="10"
     inkscape:pageopacity="0"
     inkscape:pageshadow="2"
     inkscape:window-width="1920"
     inkscape:window-height="1051"
     id="namedview2191"
     showgrid="false"
     inkscape:zoom="4"
     inkscape:cx="171.80103"
     inkscape:cy="132.5518"
     inkscape:window-x="0"
     inkscape:window-y="0"
     inkscape:window-maximized="1"
     inkscape:current-layer="svg2189" />
  <rect
     x="5.49976"
     y="0.5"
     width="7"
     height="109"
     stroke="currentColor"
     id="rect2127" />
  <rect
     x="56.3992"
     y="0.5"
     width="7"
     height="109"
     stroke="currentColor"
     id="rect2139" />
  <rect
     x="70.4534"
     y="69.5"
     width="60"
     height="40"
     stroke="currentColor"
     id="rect2141" />
  <path
     d="M70.4534 76H130.453"
     stroke="currentColor"
     id="path2143" />
  <rect
     x="56.3889"
     y="69.5"
     width="3.00001"
     height="43.889"
     transform="rotate(90 56.3889 69.5)"
     stroke="currentColor"
     id="rect2145" />
  <rect
     x="56.3889"
     y="47.5"
     width="3.00001"
     height="43.889"
     transform="rotate(90 56.3889 47.5)"
     stroke="currentColor"
     id="rect2147" />
  <rect
     x="56.3889"
     y="25.5"
     width="3.00001"
     height="43.889"
     transform="rotate(90 56.3889 25.5)"
     stroke="currentColor"
     id="rect2149" />
  <rect
     x="56.3889"
     y="91.5"
     width="3.00001"
     height="43.889"
     transform="rotate(90 56.3889 91.5)"
     stroke="currentColor"
     id="rect2151" />
  <rect
     x="16.4534"
     y="17.5"
     width="6"
     height="8"
     stroke="currentColor"
     id="rect2153" />
  <rect
     x="16.4534"
     y="39.5"
     width="6"
     height="8"
     stroke="currentColor"
     id="rect2155" />
  <rect
     x="16.4534"
     y="61.5"
     width="16"
     height="8"
     stroke="currentColor"
     id="rect2157" />
  <rect
     x="16.4534"
     y="83.5"
     width="6"
     height="8"
     stroke="currentColor"
     id="rect2159" />
  <rect
     x="16.4534"
     y="75.5"
     width="6"
     height="8"
     stroke="currentColor"
     id="rect2161" />
  <rect
     x="36.4534"
     y="17.5"
     width="6"
     height="8"
     stroke="currentColor"
     id="rect2163" />
  <rect
     x="36.4534"
     y="39.5"
     width="6"
     height="8"
     stroke="currentColor"
     id="rect2165" />
  <rect
     x="36.4534"
     y="61.5"
     width="16"
     height="8"
     stroke="currentColor"
     id="rect2167" />
  <rect
     x="36.4534"
     y="83.5"
     width="6"
     height="8"
     stroke="currentColor"
     id="rect2169" />
  <rect
     x="36.4534"
     y="75.5"
     width="6"
     height="8"
     stroke="currentColor"
     id="rect2171" />
  <rect
     x="26.4534"
     y="17.5"
     width="6"
     height="8"
     stroke="currentColor"
     id="rect2173" />
  <rect
     x="26.4534"
     y="39.5"
     width="6"
     height="8"
     stroke="currentColor"
     id="rect2175" />
  <rect
     x="26.4534"
     y="83.5"
     width="6"
     height="8"
     stroke="currentColor"
     id="rect2177" />
  <rect
     x="26.4534"
     y="75.5"
     width="6"
     height="8"
     stroke="currentColor"
     id="rect2179" />
  <rect
     x="46.4534"
     y="17.5"
     width="6"
     height="8"
     stroke="currentColor"
     id="rect2181" />
  <rect
     x="46.4534"
     y="39.5"
     width="6"
     height="8"
     stroke="currentColor"
     id="rect2183" />
  <rect
     x="46.4534"
     y="83.5"
     width="6"
     height="8"
     stroke="currentColor"
     id="rect2185" />
  <rect
     x="46.4534"
     y="75.5"
     width="6"
     height="8"
     stroke="currentColor"
     id="rect2187" />
  <path
     id="circle2129-3"
     style="stroke:currentColor"
     d="m 90.545773,64.477104 a 7,7 0 0 0 -6.613281,5 h 13.414062 a 7,7 0 0 0 -6.707031,-5 7,7 0 0 0 -0.09375,0 z" />
  <path
     id="circle2129-3-6-7"
     style="stroke:currentColor"
     d="m 108.35773,64.470772 a 7,7 0 0 0 -6.61327,5 h 13.41405 a 7,7 0 0 0 -6.70703,-5 7,7 0 0 0 -0.0937,0 z" />
  <path
     id="circle2129-3-6-7-6"
     style="stroke:currentColor"
     d="m 120.70539,64.470772 a 7,7 0 0 1 6.61328,5 h -12.16016 a 7,7 0 0 0 -0.6289,-1.462891 7,7 0 0 1 6.08203,-3.537109 7,7 0 0 1 0.0937,0 z" />
  <path
     id="circle2129-3-2"
     style="stroke:currentColor"
     d="m 81.537961,64.506404 a 7,7 0 0 0 -6.613281,5 h 13.414062 a 7,7 0 0 0 -0.0098,-0.0293 h -4.39645 a 7,7 0 0 1 2.185547,-3.341794 7,7 0 0 0 -4.486328,-1.628906 7,7 0 0 0 -0.09375,0 z" />
  <path
     id="circle2129-3-7"
     style="stroke:currentColor"
     d="m 99.382751,64.470772 c -1.617394,0.02235 -3.022456,0.604144 -4.259383,1.646485 1.039898,0.87917 1.646107,2.042563 2.034773,3.347656 h -4.386718 l -0.002,0.0059 h 13.226567 l -0.002,-0.0059 h -4.38671 c 0.38867,-1.305093 1.14956,-2.468485 2.18945,-3.347656 -1.23692,-1.04234 -2.79666,-1.624138 -4.414055,-1.646485 z"
     sodipodi:nodetypes="ccccccccccc" />
</svg>
