<svg width="512" height="512" viewBox="0 0 512 512" fill="none" xmlns="http://www.w3.org/2000/svg">
<g clip-path="url(#clip0)">
<path d="M376.9 232.4H130.8V279.6H376.9V232.4Z" fill="#705B5B"/>
<path d="M165.8 232.4H130.8V279.6H165.8V232.4Z" fill="#614F4F"/>
<path d="M84 364.5H26.8C16.3 364.5 7.80005 356 7.80005 345.5V166.5C7.80005 156 16.3 147.5 26.8 147.5H84V364.5Z" fill="#826B6B"/>
<path d="M28.7001 345.5V166.5C28.7001 156 37.2001 147.5 47.7001 147.5H26.8C16.3 147.5 7.80005 156 7.80005 166.5V345.5C7.80005 356 16.3 364.5 26.8 364.5H47.7001C37.2001 364.5 28.7001 356 28.7001 345.5Z" fill="#705B5B"/>
<path d="M140.7 357.7H114.9V154.3H140.7C143 154.3 144.9 156.2 144.9 158.5V353.5C144.9 355.8 143 357.7 140.7 357.7Z" fill="#FFDC7B"/>
<path d="M428 364.5H485.1C495.6 364.5 504.1 356 504.1 345.5V166.5C504.1 156 495.6 147.5 485.1 147.5H428V364.5Z" fill="#826B6B"/>
<path d="M459.3 147.5H428V364.5H459.3V147.5Z" fill="#705B5B"/>
<path d="M371.3 357.7H397.1V154.3H371.3C369 154.3 367.1 156.2 367.1 158.5V353.5C367.1 355.8 369 357.7 371.3 357.7Z" fill="#FFDC7B"/>
<path d="M102.2 385H92.4C82.1 385 73.8 376.7 73.8 366.4V145.6C73.8 135.3 82.1 127 92.4 127H102.2C112.5 127 120.8 135.3 120.8 145.6V366.4C120.8 376.7 112.4 385 102.2 385Z" fill="#6DD0E3"/>
<path d="M94.4 366.4V145.6C94.4 137.2 100 130.1 107.6 127.8C105.9 127.3 104 127 102.2 127H92.4C82.1 127 73.8 135.3 73.8 145.6V366.4C73.8 376.7 82.1 385 92.4 385H102.2C104.1 385 105.9 384.7 107.6 384.2C100 381.9 94.4 374.8 94.4 366.4Z" fill="#34A4BA"/>
<path d="M409.8 385H419.7C430 385 438.3 376.7 438.3 366.4V145.6C438.3 135.3 430 127 419.7 127H409.8C399.5 127 391.2 135.3 391.2 145.6V366.4C391.2 376.7 399.6 385 409.8 385Z" fill="#6DD0E3"/>
<path d="M412.1 366.4V145.6C412.1 137.2 417.6 130.1 425.2 127.8C423.5 127.3 421.6 127 419.7 127H409.8C399.5 127 391.2 135.3 391.2 145.6V366.4C391.2 376.7 399.5 385 409.8 385H419.7C421.6 385 423.5 384.7 425.2 384.2C417.6 381.9 412.1 374.8 412.1 366.4Z" fill="#34A4BA"/>
<path d="M485.2 139.7H445.5C442.8 127.9 432.3 119.2 419.7 119.2H409.8C395.2 119.2 383.3 131.1 383.3 145.7V146.6H371.2C364.6 146.6 359.2 152 359.2 158.6V224.6H232C227.7 224.6 224.2 228.1 224.2 232.4C224.2 236.7 227.7 240.2 232 240.2H359.3V271.8H152.7V240.2H181.8C186.1 240.2 189.6 236.7 189.6 232.4C189.6 228.1 186.1 224.6 181.8 224.6H152.7V158.6C152.7 152 147.3 146.6 140.7 146.6H128.6V145.7C128.6 131.1 116.7 119.2 102.1 119.2H92.2C79.6 119.2 69.1 128 66.4 139.7H26.8C12 139.7 0 151.7 0 166.5V270.1C0 274.4 3.5 277.9 7.8 277.9C12.1 277.9 15.6 274.4 15.6 270.1V166.5C15.6 160.3 20.6 155.3 26.8 155.3H65.8V356.6H26.8C20.6 356.6 15.6 351.6 15.6 345.4V321.2C15.6 316.9 12.1 313.4 7.8 313.4C3.5 313.4 0 317 0 321.3V345.5C0 360.3 12 372.3 26.8 372.3H66.5C69.2 384.1 79.7 392.8 92.3 392.8H102.2C116.8 392.8 128.7 380.9 128.7 366.3V365.4H140.8C147.4 365.4 152.8 360 152.8 353.4V287.4H359.4V297C359.4 301.3 362.9 304.8 367.2 304.8C371.5 304.8 375 301.3 375 297V162.2H383.4V349.9H375V342C375 337.7 371.5 334.2 367.2 334.2C362.9 334.2 359.4 337.7 359.4 342V353.5C359.4 360.1 364.8 365.5 371.4 365.5H383.5V366.4C383.5 381 395.4 392.9 410 392.9H419.9C432.5 392.9 443 384.1 445.7 372.4H485.4C500.2 372.4 512.2 360.4 512.2 345.6V166.6C512 151.7 500 139.7 485.2 139.7ZM102.2 377.2H92.3C86.3 377.2 81.5 372.4 81.5 366.4V364.5V147.5V145.6C81.5 139.6 86.3 134.8 92.3 134.8H102.2C108.2 134.8 113 139.6 113 145.6V154.3C113 154.3 113 154.3 113 154.4C113 154.5 113 154.4 113 154.5V357.7C113 357.7 113 357.7 113 357.8C113 357.9 113 357.8 113 357.9V366.6C113 372.4 108.1 377.2 102.2 377.2ZM137 349.8H128.6V162.2H137V349.8ZM419.7 377.2H409.8C403.8 377.2 399 372.4 399 366.4V357.7C399 357.7 399 357.7 399 357.6C399 357.5 399 357.6 399 357.5V154.4C399 154.4 399 154.4 399 154.3C399 154.2 399 154.3 399 154.2V145.5C399 139.5 403.8 134.7 409.8 134.7H419.7C425.7 134.7 430.5 139.5 430.5 145.5V147.4V364.4V366.3C430.5 372.4 425.7 377.2 419.7 377.2ZM496.3 345.5C496.3 351.7 491.3 356.7 485.1 356.7H446.1V155.3H485.1C491.3 155.3 496.3 160.3 496.3 166.5V345.5Z" fill="black"/>
</g>
<defs>
<clipPath id="clip0">
<rect width="512" height="512" fill="white"/>
</clipPath>
</defs>
</svg>
