<svg width="91" height="91" viewBox="0 0 91 91" fill="none" xmlns="http://www.w3.org/2000/svg">
<path d="M19.8137 39.7088C15.2249 53.7089 22.9352 68.8716 37.0132 73.5063C39.6971 74.392 42.5035 74.8479 45.3291 74.8572V73.8249C42.6754 73.8276 39.9796 73.4194 37.3245 72.5465C23.8876 68.1172 16.5439 53.5615 20.9619 40.0946C24.5064 29.2861 34.5552 22.4223 45.3291 22.4105V21.3782C34.031 21.3387 23.5001 28.4619 19.8137 39.7088Z" fill="#1E738A"/>
<path d="M53.3434 23.6889C66.7803 28.1156 74.124 42.6739 69.7059 56.1408C66.1589 66.9519 56.1075 73.8183 45.3296 73.8249V74.8572C56.629 74.9019 67.1678 67.7762 70.8568 56.52C75.4443 42.5252 67.7314 27.3637 53.6561 22.7278C50.9686 21.8421 48.1586 21.3867 45.3296 21.3782V22.4105C47.9846 22.4078 50.6857 22.8147 53.3434 23.6889Z" fill="#44A8B3"/>
<path d="M37.5776 71.7736C24.5624 67.4852 17.4564 53.389 21.7287 40.3421C25.1615 29.8747 34.8936 23.2387 45.3299 23.2308V22.4105C34.556 22.4223 24.5072 29.2861 20.9628 40.0946C16.5447 53.5615 23.8885 68.1172 37.3253 72.5465C39.9804 73.4194 42.6762 73.8276 45.3299 73.8249V73.0047C42.7603 73.006 40.1486 72.6202 37.5776 71.7736Z" fill="#1E738A"/>
<path d="M69.7059 56.1408C74.124 42.674 66.7803 28.1156 53.3434 23.689C50.757 22.838 48.0517 22.4065 45.3296 22.4105V23.2308C47.9019 23.2281 50.5149 23.6139 53.0898 24.4618C66.1063 28.7436 73.2176 42.8478 68.9413 55.8893C65.5072 66.3581 55.7685 72.9994 45.3296 73.0047V73.825C56.1075 73.8184 66.1589 66.952 69.7059 56.1408Z" fill="#44A8B3"/>
<path d="M54.4325 30.7041L55.9117 28.1326C56.1324 27.7442 56.6277 27.6139 57.014 27.8364C57.3989 28.0576 57.5368 28.5553 57.3161 28.9424L55.8303 31.5125C55.6083 31.9009 55.1117 32.0378 54.7267 31.8087C54.3405 31.5862 54.2118 31.0912 54.4325 30.7041ZM61.8958 37.5955L64.4642 36.1142C64.8517 35.8864 65.3496 36.0194 65.569 36.4105C65.6219 36.5023 65.6563 36.6036 65.6701 36.7087C65.6839 36.8138 65.6769 36.9206 65.6494 37.023C65.6219 37.1254 65.5746 37.2213 65.5101 37.3053C65.4456 37.3893 65.3651 37.4597 65.2734 37.5125L62.7064 39.0004C62.5826 39.0705 62.4428 39.1075 62.3006 39.1077C62.1584 39.1079 62.0185 39.0714 61.8945 39.0017C61.7789 38.9267 61.6777 38.8305 61.6028 38.7028C61.3808 38.317 61.5109 37.8167 61.8958 37.5955ZM68.6983 48.117C68.6983 48.5594 68.3383 48.9267 67.889 48.9254L64.9305 48.9267C64.7808 48.928 64.6481 48.8872 64.5233 48.8174C64.4003 48.7463 64.2985 48.6437 64.2281 48.5202C64.1577 48.3966 64.1213 48.2566 64.1226 48.1143C64.1213 47.6706 64.4852 47.3033 64.9266 47.3033L67.893 47.3059C68.3357 47.3046 68.701 47.6654 68.6983 48.117ZM65.5664 59.8261C65.3457 60.2118 64.8491 60.3448 64.4642 60.1223L61.8984 58.6384C61.7132 58.5298 61.5782 58.3522 61.5228 58.1444C61.4675 57.9365 61.4962 57.7152 61.6028 57.5285C61.8249 57.1414 62.3201 57.0097 62.7116 57.2336L65.2708 58.7214C65.657 58.9426 65.7923 59.4403 65.5664 59.8261ZM57.0192 68.3949C56.7591 68.5463 56.453 68.5345 56.2073 68.3949C56.0891 68.3265 55.9906 68.2264 55.9144 68.1L54.4351 65.5259C54.3819 65.4339 54.3473 65.3322 54.3334 65.2268C54.3194 65.1213 54.3264 65.0142 54.3538 64.9114C54.3813 64.8087 54.4287 64.7123 54.4934 64.628C54.558 64.5437 54.6387 64.473 54.7307 64.4199C55.1169 64.1961 55.6069 64.3343 55.8342 64.7214L57.3161 67.2876C57.5342 67.68 57.4041 68.1737 57.0192 68.3949ZM45.3309 24.6974C45.7815 24.6987 46.1428 25.0661 46.1441 25.5112L46.1415 28.4828C46.1428 28.9266 45.7828 29.2926 45.3335 29.29L45.3296 29.2887V46.4514C46.6525 46.4514 47.7272 47.5271 47.7272 48.853C47.7272 50.1802 46.6525 51.2559 45.3296 51.2559V66.944L45.3362 66.9426C45.7841 66.9466 46.1415 67.3113 46.1415 67.755L46.1428 70.7215C46.1415 71.1705 45.7815 71.5378 45.3388 71.5312L45.3296 71.5299V73.0046C55.7685 72.9993 65.5072 66.3581 68.9413 55.8892C73.2176 42.8477 66.1063 28.7435 53.0898 24.4617C50.5149 23.6138 47.9019 23.2281 45.3296 23.2307V24.6974H45.3309Z" fill="#E4F6FA"/>
<path d="M29.0646 38.7015C29.0122 38.7943 28.942 38.8757 28.858 38.9411C28.774 39.0065 28.6779 39.0545 28.5753 39.0824C28.4727 39.1104 28.3655 39.1176 28.2601 39.1037C28.1546 39.0899 28.053 39.0552 27.961 39.0017L25.3953 37.5139C25.0104 37.2913 24.8737 36.7936 25.101 36.4092C25.3217 36.0207 25.8157 35.8917 26.2032 36.1116L28.7703 37.5955C29.1552 37.818 29.284 38.3197 29.0646 38.7015ZM28.769 58.6384L26.2032 60.121C25.9431 60.2724 25.6383 60.2592 25.3913 60.121C25.2744 60.0525 25.1719 59.9577 25.0971 59.83C24.8763 59.4376 25.0064 58.9452 25.3926 58.7227L27.9597 57.2349C28.3459 57.0124 28.8438 57.1453 29.0658 57.5298C29.2879 57.9169 29.1552 58.4159 28.769 58.6384ZM33.6482 27.839C34.037 27.6112 34.5323 27.7495 34.753 28.1353L36.2323 30.708C36.4543 31.0938 36.3242 31.5875 35.938 31.8101C35.6845 31.9628 35.3744 31.9483 35.1327 31.8114C35.0145 31.7455 34.9094 31.6402 34.8345 31.5125L33.3552 28.941C33.1332 28.5539 33.2632 28.0615 33.6482 27.839ZM36.2362 65.5299L34.7543 68.1026C34.5323 68.491 34.0384 68.6214 33.6521 68.3989C33.2672 68.1777 33.1306 67.68 33.3578 67.2863L34.8371 64.7214C35.0578 64.3343 35.5544 64.1974 35.9393 64.4265C36.3269 64.649 36.4569 65.1441 36.2362 65.5299ZM22.3697 48.82C22.132 48.6778 21.9651 48.4198 21.9691 48.1183C21.9691 47.6746 22.329 47.3085 22.7796 47.3085L25.7395 47.3098C26.1862 47.3111 26.5461 47.6706 26.5461 48.1156C26.546 48.33 26.4615 48.5357 26.3109 48.6881C26.1604 48.8404 25.956 48.9271 25.7421 48.9293L22.7744 48.9307C22.6286 48.9267 22.4932 48.8911 22.3697 48.82ZM21.7273 40.342C17.4551 53.3889 24.5611 67.4851 37.5762 71.7735C40.1472 72.6201 42.7589 73.0059 45.3286 73.0046V71.5299C45.1814 71.5299 45.0474 71.4891 44.9318 71.4246C44.809 71.3542 44.7071 71.2524 44.6365 71.1295C44.5658 71.0067 44.529 70.8672 44.5299 70.7254V67.755C44.5233 67.3087 44.8819 66.9466 45.3286 66.944V51.2559C44.003 51.2559 42.931 50.1802 42.931 48.853C42.931 47.5271 44.003 46.4514 45.3286 46.4514V29.2887C45.1828 29.286 45.0488 29.2518 44.9266 29.182C44.6875 29.0398 44.522 28.7817 44.5246 28.4789V25.5137C44.5259 25.0634 44.8872 24.7001 45.3286 24.6974V23.2307C34.8923 23.2386 25.1601 29.8746 21.7273 40.342Z" fill="#E4F6FA"/>
<path d="M65.2708 58.7214L62.7116 57.2336C62.3201 57.0097 61.8249 57.1414 61.6028 57.5285C61.4962 57.7152 61.4675 57.9366 61.5228 58.1444C61.5782 58.3523 61.7132 58.5298 61.8984 58.6384L64.4642 60.1223C64.8491 60.3448 65.3457 60.2119 65.5664 59.8261C65.7923 59.4403 65.657 58.9426 65.2708 58.7214ZM64.1226 48.1144C64.1213 48.2566 64.1577 48.3967 64.2281 48.5202C64.2985 48.6437 64.4003 48.7463 64.5233 48.8175C64.6481 48.8872 64.7808 48.928 64.9305 48.9267L67.889 48.9254C68.3383 48.9267 68.6983 48.5594 68.6983 48.117C68.6991 48.0106 68.6787 47.9051 68.6386 47.8067C68.5984 47.7082 68.5392 47.6186 68.4643 47.5432C68.3894 47.4678 68.3004 47.408 68.2023 47.3673C68.1043 47.3266 67.9991 47.3057 67.893 47.3059L64.9266 47.3033C64.4852 47.3033 64.1213 47.6706 64.1226 48.1144ZM55.8342 64.7214C55.6069 64.3343 55.1169 64.1961 54.7307 64.4199C54.6387 64.473 54.558 64.5437 54.4934 64.628C54.4287 64.7124 54.3813 64.8087 54.3538 64.9114C54.3264 65.0142 54.3194 65.1213 54.3334 65.2268C54.3473 65.3322 54.3819 65.4339 54.4351 65.5259L55.9144 68.1C55.9906 68.2264 56.0891 68.3265 56.2073 68.395C56.453 68.5345 56.7591 68.5464 57.0192 68.395C57.4041 68.1738 57.5342 67.68 57.3161 67.2876L55.8342 64.7214ZM61.8945 39.0017C62.0185 39.0714 62.1584 39.1079 62.3006 39.1077C62.4428 39.1075 62.5826 39.0705 62.7064 39.0004L65.2734 37.5126C65.3651 37.4598 65.4456 37.3893 65.5101 37.3053C65.5746 37.2213 65.6219 37.1254 65.6494 37.023C65.6769 36.9207 65.6839 36.8138 65.6701 36.7087C65.6563 36.6036 65.6219 36.5023 65.569 36.4105C65.3496 36.0194 64.8517 35.8865 64.4642 36.1143L61.8958 37.5955C61.5109 37.8167 61.3808 38.3171 61.6028 38.7028C61.6777 38.8306 61.7789 38.9267 61.8945 39.0017ZM46.1428 70.7215L46.1415 67.755C46.1415 67.3113 45.7841 66.9466 45.3362 66.9427L45.3296 66.944V71.5299L45.3388 71.5312C45.7815 71.5378 46.1415 71.1705 46.1428 70.7215Z" fill="#1E738A"/>
<path d="M44.5303 67.7551V70.7255C44.5295 70.8673 44.5663 71.0068 44.6369 71.1296C44.7076 71.2525 44.8095 71.3543 44.9323 71.4247C45.0479 71.4892 45.1819 71.53 45.3291 71.53V66.9441C44.8824 66.9467 44.5238 67.3088 44.5303 67.7551ZM54.7262 31.8088C55.1111 32.0379 55.6077 31.901 55.8298 31.5126L57.3156 28.9425C57.5363 28.5554 57.3984 28.0577 57.0134 27.8365C56.6272 27.614 56.1319 27.7443 55.9112 28.1327L54.4319 30.7042C54.2112 31.0913 54.34 31.5863 54.7262 31.8088ZM35.9398 64.4266C35.5549 64.1975 35.0583 64.3344 34.8376 64.7215L33.3583 67.2864C33.131 67.6801 33.2677 68.1778 33.6526 68.399C34.0388 68.6215 34.5328 68.4912 34.7548 68.1027L36.2367 65.53C36.4574 65.1442 36.3273 64.6491 35.9398 64.4266ZM46.141 28.483L46.1436 25.5113C46.1425 25.2956 46.0564 25.089 45.9041 24.9366C45.7518 24.7842 45.5456 24.6983 45.3304 24.6975H45.3291V29.2888L45.333 29.2901C45.7823 29.2927 46.1423 28.9267 46.141 28.483Z" fill="#1E738A"/>
<path d="M44.5253 25.5138V28.479C44.5227 28.7818 44.6882 29.0399 44.9273 29.1821C45.0495 29.2518 45.1835 29.2861 45.3293 29.2887V24.6975C44.8879 24.7001 44.5266 25.0635 44.5253 25.5138ZM27.9604 57.2349L25.3934 58.7228C25.0071 58.9453 24.8771 59.4377 25.0978 59.8301C25.1727 59.9578 25.2751 60.0526 25.392 60.1211C25.639 60.2593 25.9438 60.2725 26.204 60.1211L28.7697 58.6385C29.1559 58.416 29.2886 57.917 29.0666 57.5299C28.8445 57.1454 28.3466 57.0124 27.9604 57.2349ZM34.8352 31.5126C34.9101 31.6403 35.0152 31.7456 35.1334 31.8114C35.3751 31.9484 35.6852 31.9629 35.9387 31.8101C36.325 31.5876 36.455 31.0939 36.233 30.7081L34.7537 28.1353C34.533 27.7495 34.0378 27.6113 33.6489 27.8391C33.264 28.0616 33.1339 28.554 33.3559 28.9411L34.8352 31.5126ZM26.5468 48.1157C26.5468 47.6707 26.1869 47.3112 25.7402 47.3099L22.7804 47.3086C22.3297 47.3086 21.9698 47.6746 21.9698 48.1183C21.9659 48.4199 22.1327 48.6779 22.3705 48.8201C22.4939 48.8912 22.6293 48.9268 22.7751 48.9307L25.7428 48.9294C26.1869 48.9241 26.5455 48.5647 26.5468 48.1157ZM25.1017 36.4092C24.8744 36.7937 25.0111 37.2914 25.396 37.5139L27.9617 39.0018C28.348 39.2256 28.8433 39.0939 29.0653 38.7016C29.2847 38.3197 29.1559 37.8181 28.771 37.5955L26.204 36.1117C25.8164 35.8918 25.3224 36.0208 25.1017 36.4092Z" fill="#1E738A"/>
<path d="M68.7502 27.6771L71.308 25.3032L68.2077 22.4026L65.751 24.6764C66.8269 25.6165 67.8293 26.6172 68.7502 27.6771Z" fill="#E94E1B"/>
<path d="M68.7509 27.6771C67.7892 26.6606 66.7501 25.6915 65.6452 24.7751L65.7516 24.6764L65.7201 24.6474C64.3722 23.4743 62.9139 22.3946 61.3296 21.4413C57.1821 18.9436 52.6852 17.5295 48.1699 17.1174C47.2227 17.0305 46.2755 16.9884 45.3296 16.991V21.3781C48.0884 21.3874 50.8933 21.8179 53.6561 22.7277C67.7314 27.3637 75.4443 42.5251 70.8568 56.52C67.1678 67.7761 56.629 74.9019 45.3296 74.8571V79.2377C55.8565 79.2271 66.1221 73.8525 71.942 64.15C79.0598 52.2869 77.3585 37.5797 68.7509 27.6771Z" fill="#1E738A"/>
<path d="M37.0133 73.5062C22.9353 68.8715 15.2249 53.7088 19.8138 39.7087C23.5002 28.4618 34.0311 21.3386 45.3292 21.3781V16.991C44.3794 16.9923 43.4322 17.0384 42.4915 17.1253C32.9867 18.0075 24.0125 23.2504 18.7182 32.076C9.87938 46.8069 14.6312 65.9288 29.3266 74.786C34.3438 77.8091 39.8719 79.2429 45.3292 79.2377V74.8571C42.5717 74.8466 39.7708 74.416 37.0133 73.5062Z" fill="#368FA7"/>
<path d="M68.7503 27.6771C67.8294 26.6172 66.827 25.6165 65.7511 24.6764L65.6447 24.7752C66.7495 25.6916 67.7887 26.6607 68.7503 27.6771ZM45.3291 16.991V13.9904H45.0952V13.943H44.2347V13.9746H43.0708V13.943H42.2089V13.9456H42.4888L42.4914 17.1254C43.4321 17.0385 44.3792 16.9924 45.3291 16.991ZM48.2837 13.943H49.1455H48.2837ZM39.0205 13.943L41.0463 13.9443V13.943H39.0205ZM47.1197 13.943H46.2579V13.9904H45.3291V16.991C46.275 16.9884 47.2222 17.0306 48.1694 17.1175L48.1733 14.0062L47.1197 14.0049V13.943ZM50.3095 13.943H51.6363H50.3095ZM46.2579 7.78886V13.943H47.1197V7.80339H48.2823L48.2837 13.943H49.1455L49.1442 7.82049H50.3068L50.3095 13.943H51.6363L51.635 7.74148H45.3291V7.78757L46.2579 7.78886Z" fill="#1E738A"/>
<path d="M41.0448 7.7573H42.2075L42.2088 13.943H43.0706L43.0693 7.77312H44.232L44.2346 13.943H45.0951V7.78758H45.3289V7.74149H39.019H40.183L40.1843 13.943H39.0204H41.0462L41.0448 7.7573Z" fill="#1E738A"/>
<path d="M40.183 7.74148H39.019L39.0204 13.943H40.1843L40.183 7.74148ZM41.0462 13.9588H42.2088V13.9456L41.0462 13.9443V13.9588Z" fill="#368FA7"/>
<path d="M41.0474 13.943V13.9443L42.21 13.9456V13.943H41.0474Z" fill="#72D1E4"/>
<path d="M41.0454 7.7572L41.0467 13.9429H42.2094L42.208 7.7572H41.0454ZM43.0712 13.9745H44.2352V13.9429H43.0712V13.9745Z" fill="#368FA7"/>
<path d="M43.0688 7.77307L43.0702 13.9429H44.2341L44.2315 7.77307H43.0688ZM45.0946 13.9429V13.9904H45.3285V13.9429H45.0946Z" fill="#368FA7"/>
<path d="M46.2584 13.9429H45.3296V13.9904H46.2584V13.9429ZM45.3296 7.78753H45.0957V13.9429H45.3296V7.78753Z" fill="#368FA7"/>
<path d="M46.2584 13.9429V7.78878L45.3296 7.7875V13.9429H46.2584ZM48.1738 14.0061H48.2842V13.9429H48.1738V14.0061Z" fill="#368FA7"/>
<path d="M47.1191 13.943V14.0049L48.1728 14.0062V13.943H48.2831H47.1191ZM48.2818 7.8034H47.1191V13.943H48.2831L48.2818 7.8034ZM49.1449 14.0207H50.3089V13.943H49.1449V14.0207ZM49.1449 13.943H50.3089H49.1449ZM50.3063 7.8205H49.1436L49.1449 13.943H50.3089L50.3063 7.8205Z" fill="#368FA7"/>
<path d="M46.7505 48.9307H43.9062V32.03C43.9062 31.2426 44.5421 30.604 45.329 30.604C46.1133 30.604 46.7505 31.2426 46.7505 32.03V48.9307Z" fill="#E94E1B"/>
<path d="M47.7272 48.8531C47.7272 47.5272 46.6525 46.4515 45.3296 46.4515V51.256C46.6525 51.256 47.7272 50.1803 47.7272 48.8531Z" fill="#337B86"/>
<path d="M45.3287 46.4515C44.0032 46.4515 42.9312 47.5272 42.9312 48.8531C42.9312 50.1803 44.0032 51.256 45.3287 51.256V46.4515Z" fill="#44A8B3"/>
<path d="M45.2122 90.5703C20.2815 90.5703 0 70.2436 0 45.2585C0 26.6067 11.1642 10.0852 28.4411 3.16476L29.9046 6.83298C14.1319 13.1503 3.9412 28.2327 3.9412 45.2585C3.9412 68.0658 22.4557 86.6203 45.2122 86.6203C67.9687 86.6203 86.4832 68.0658 86.4832 45.2585C86.4832 38.6831 84.9908 32.4 82.0467 26.5816L85.5622 24.7962C88.7888 31.1728 90.4244 38.0577 90.4244 45.2585C90.4244 70.2436 70.1416 90.5703 45.2122 90.5703Z" fill="#E94E1B"/>
<path d="M29.9054 6.83298L28.4419 3.16477C29.2926 2.82412 30.1535 2.50971 31.0234 2.22202L32.2583 5.97187C31.4621 6.23652 30.6779 6.52225 29.9054 6.83298ZM52.4228 4.52226C50.7467 4.22697 49.054 4.03521 47.3544 3.94814L47.5541 0.00342178C49.417 0.0995369 51.2851 0.31024 53.1086 0.632824L52.4228 4.52226ZM37.19 4.67495L36.4294 0.798693C38.2542 0.439243 40.1171 0.190411 41.9694 0.0600605L42.2466 3.99951C40.5571 4.11933 38.8559 4.3471 37.19 4.67495ZM62.1497 7.52687C60.5985 6.82633 59.0053 6.22299 57.3795 5.72037L58.5382 1.9455C60.3144 2.49323 62.0748 3.16082 63.7682 3.92449L62.1497 7.52687ZM70.8453 12.8383C69.5114 11.7774 68.1136 10.7999 66.6598 9.91133L68.7131 6.53937C70.2975 7.50711 71.8398 8.58544 73.2954 9.74411L70.8453 12.8383ZM77.9881 20.1155C76.9521 18.7617 75.8342 17.4729 74.6407 16.2564L77.4508 13.4874C78.7585 14.8185 79.9826 16.2296 81.1161 17.7126L77.9881 20.1155ZM82.0475 26.5803C81.6692 25.8325 81.2685 25.0978 80.8468 24.3775L84.2467 22.3775C84.7091 23.1689 85.1479 23.976 85.5631 24.7962L82.0475 26.5803Z" fill="#E94E1B"/>
<path d="M26.4208 17.9614L16.2065 1.9192L33.7751 1.94022L26.4208 17.9614Z" fill="#E94E1B"/>
</svg>
