<svg width="140" height="110" viewBox="0 0 140 110" fill="none" xmlns="http://www.w3.org/2000/svg">
<rect x="5.49976" y="0.5" width="7" height="109" stroke="currentColor"/>
<rect x="126.5" y="0.5" width="7" height="109" stroke="currentColor"/>
<rect x="96.4998" y="77.5" width="20" height="14" stroke="currentColor"/>
<rect x="45.4998" y="11.5" width="20" height="14" stroke="currentColor"/>
<rect x="91.4998" y="11.5" width="20" height="14" stroke="currentColor"/>
<rect x="52.4998" y="59.5" width="26" height="10" stroke="currentColor"/>
<rect x="73.4998" y="77.5" width="20" height="14" stroke="currentColor"/>
<rect x="22.4998" y="11.5" width="20" height="14" stroke="currentColor"/>
<rect x="68.4998" y="11.5" width="20" height="14" stroke="currentColor"/>
<rect x="33.4998" y="33.5" width="84" height="14" stroke="currentColor"/>
<rect x="22.4998" y="59.5" width="26" height="10" stroke="currentColor"/>
<rect x="22.4998" y="52.5" width="11" height="7" stroke="currentColor"/>
<rect x="22.4998" y="84.5" width="11" height="7" stroke="currentColor"/>
<rect x="126.5" y="25.5" width="3.00001" height="114" transform="rotate(90 126.5 25.5)" stroke="currentColor"/>
<rect x="126.5" y="47.5" width="3.00001" height="114" transform="rotate(90 126.5 47.5)" stroke="currentColor"/>
<rect x="126.5" y="69.5" width="3.00001" height="114" transform="rotate(90 126.5 69.5)" stroke="currentColor"/>
<rect x="126.5" y="91.5" width="3.00001" height="114" transform="rotate(90 126.5 91.5)" stroke="currentColor"/>
</svg>
