<svg width="145" height="69" viewBox="0 0 145 69" fill="none" xmlns="http://www.w3.org/2000/svg">
<path fill-rule="evenodd" clip-rule="evenodd" d="M6.94827 52.1291H138.052C141.873 52.1291 145 54.9474 145 58.3906V58.3913C145 61.8353 141.873 64.6536 138.052 64.6536H6.94827C3.12725 64.6536 0 61.8357 0 58.3913V58.3906C0 54.9467 3.12649 52.1291 6.94827 52.1291Z" fill="#63B231"/>
<path fill-rule="evenodd" clip-rule="evenodd" d="M15.4428 56.3915H129.557C132.883 56.3915 135.605 59.0489 135.605 62.2947V62.2955C135.605 65.542 132.883 68.1987 129.557 68.1987H15.4428C12.1172 68.1987 9.39502 65.5428 9.39502 62.2955V62.2947C9.39502 59.0482 12.1164 56.3915 15.4428 56.3915Z" fill="#595A5C"/>
<path fill-rule="evenodd" clip-rule="evenodd" d="M16.9795 56.563H130.339V21.8801H16.9795V56.563Z" fill="#224855"/>
<path fill-rule="evenodd" clip-rule="evenodd" d="M101.783 21.88H130.338V56.563H101.783V21.88Z" fill="#1E404C"/>
<path fill-rule="evenodd" clip-rule="evenodd" d="M34.5352 56.563H112.783V21.8801H34.5352V56.563Z" fill="#193036"/>
<path fill-rule="evenodd" clip-rule="evenodd" d="M15.3667 21.8799H131.951V19.0221H15.3667V21.8799Z" fill="#E1E0DE"/>
<path fill-rule="evenodd" clip-rule="evenodd" d="M36.7642 17.8247L73.5641 1.99133L110.363 17.8247L110.365 56.563H36.7642V17.8247Z" fill="#327283"/>
<path d="M110.363 19.4871H108.485L73.4689 4.4205L38.4529 19.4871H36.7642V17.9522L72.8139 2.35431L73.4689 2.07305L74.1233 2.35431L110.363 17.9586V19.4871Z" fill="#275867"/>
<path fill-rule="evenodd" clip-rule="evenodd" d="M53.7905 54.1978H93.3829V27.8897H53.7905V54.1978Z" fill="#224855"/>
<path fill-rule="evenodd" clip-rule="evenodd" d="M54.9873 53.4028H92.1867V28.6849H54.9873V53.4028Z" fill="#141C1E"/>
<path fill-rule="evenodd" clip-rule="evenodd" d="M33.311 17.8247L72.9097 0.691957L73.5641 0.410065L74.2192 0.691957L114.008 17.8247H108.58L73.5641 2.75814L38.5481 17.8247H33.311Z" fill="#F7F7F7"/>
<path d="M92.1861 53.4028H79.6235L60.9434 34.6754H92.1861V53.4028Z" fill="#141818"/>
<path fill-rule="evenodd" clip-rule="evenodd" d="M94.9336 27.8896H108.1V53.7668H94.9336V27.8896Z" fill="#224855"/>
<path fill-rule="evenodd" clip-rule="evenodd" d="M95.46 28.5211H99.1471V32.9392H95.46V28.5211Z" fill="#E1E0DE"/>
<path fill-rule="evenodd" clip-rule="evenodd" d="M95.46 33.5703H99.1471V37.9885H95.46V33.5703Z" fill="#BBBAB8"/>
<path fill-rule="evenodd" clip-rule="evenodd" d="M95.46 38.6188H99.1471V43.0376H95.46V38.6188Z" fill="#E1E0DE"/>
<path fill-rule="evenodd" clip-rule="evenodd" d="M95.46 43.6689H99.1471V48.0862H95.46V43.6689Z" fill="#D0D0CE"/>
<path fill-rule="evenodd" clip-rule="evenodd" d="M95.46 48.7177H99.1471V53.1362H95.46V48.7177ZM99.6733 28.5209H103.36V32.939H99.6733V28.5209Z" fill="#E1E0DE"/>
<path fill-rule="evenodd" clip-rule="evenodd" d="M99.6733 33.5703H103.36V37.9885H99.6733V33.5703Z" fill="#F7F7F7"/>
<path fill-rule="evenodd" clip-rule="evenodd" d="M99.6733 38.6188H103.36V43.0376H99.6733V38.6188Z" fill="#E1E0DE"/>
<path fill-rule="evenodd" clip-rule="evenodd" d="M99.6733 43.6689H103.36V48.0862H99.6733V43.6689Z" fill="#F7F7F7"/>
<path fill-rule="evenodd" clip-rule="evenodd" d="M99.6733 48.7177H103.36V53.1362H99.6733V48.7177Z" fill="#BBBAB8"/>
<path fill-rule="evenodd" clip-rule="evenodd" d="M103.887 28.5211H107.574V32.9392H103.887V28.5211Z" fill="#F7F7F7"/>
<path fill-rule="evenodd" clip-rule="evenodd" d="M103.887 33.5703H107.574V37.9885H103.887V33.5703Z" fill="#E1E0DE"/>
<path fill-rule="evenodd" clip-rule="evenodd" d="M103.887 38.6188H107.574V43.0376H103.887V38.6188Z" fill="#D0D0CE"/>
<path fill-rule="evenodd" clip-rule="evenodd" d="M103.887 43.669H107.574V48.0863H103.887V43.669ZM103.887 48.7177H107.574V53.1362H103.887V48.7177Z" fill="#E1E0DE"/>
<path fill-rule="evenodd" clip-rule="evenodd" d="M54.9873 34.6755H92.1867V28.6851H54.9873V34.6755Z" fill="#F7F7F7"/>
<path fill-rule="evenodd" clip-rule="evenodd" d="M90.1226 33.2418V33.8826H74.7361V33.2418H90.1226ZM90.1226 32.3865V33.0452H74.7361V32.3865H90.1226ZM74.7361 31.5498H90.1226V32.1905H74.7361V31.5498ZM72.4364 33.2418V33.8826H57.0498V33.2418H72.4364ZM72.4364 32.3865V33.0452H57.0498V32.3865H72.4364ZM57.0498 31.5498H72.4364V32.1905H57.0498V31.5498ZM90.1226 30.6831V31.3239H74.7361V30.6831H90.1226ZM90.1226 29.8285V30.4877H74.7361V29.8285H90.1226ZM74.7361 28.991H90.1226V29.6318H74.7361V28.991ZM72.4364 30.6831V31.3239H57.0498V30.6831H72.4364ZM72.4364 29.8285V30.4877H57.0498V29.8285H72.4364ZM57.0498 28.991H72.4364V29.6318H57.0498V28.991Z" fill="#E1E0DE"/>
<path d="M54.9873 34.6755H92.1867V28.6851H54.9873V34.6755Z" fill="#D1D1CF"/>
<path d="M90.1226 33.8826H74.7361V33.2418H90.1226V33.8826ZM72.4364 33.8826H60.1525L59.5133 33.2418H72.4364V33.8826ZM90.1226 33.0452H74.7361V32.3865H90.1226V33.0452ZM72.4364 33.0452H59.3178L58.6609 32.3865H72.4364V33.0452ZM90.1226 32.1905H74.7361V31.5498H90.1226V32.1905ZM72.4364 32.1905H58.4647L57.8256 31.5498H72.4364V32.1905ZM90.1226 31.3239H74.7361V30.6831H90.1226V31.3239ZM72.4364 31.3239H57.6008L57.0498 30.7722V30.6831H72.4364V31.3239ZM90.1226 30.4877H74.7361V29.8285H90.1226V30.4877ZM72.4364 30.4877H57.0498V29.8285H72.4364V30.4877ZM90.1226 29.6318H74.7361V28.991H90.1226V29.6318ZM72.4364 29.6318H57.0498V28.991H72.4364V29.6318Z" fill="#BCBBB9"/>
<path fill-rule="evenodd" clip-rule="evenodd" d="M53.0825 29.0488H94.0912V26.3412H53.0825V29.0488Z" fill="white"/>
<path fill-rule="evenodd" clip-rule="evenodd" d="M38.9805 27.8896H52.1476V53.7668H38.9805V27.8896Z" fill="#224855"/>
<path fill-rule="evenodd" clip-rule="evenodd" d="M39.5068 28.5211H43.1935V32.9392H39.5068V28.5211Z" fill="#E1E0DE"/>
<path fill-rule="evenodd" clip-rule="evenodd" d="M39.5068 33.5703H43.1935V37.9885H39.5068V33.5703Z" fill="#D0D0CE"/>
<path fill-rule="evenodd" clip-rule="evenodd" d="M39.5068 38.6188H43.1935V43.0376H39.5068V38.6188Z" fill="#E1E0DE"/>
<path fill-rule="evenodd" clip-rule="evenodd" d="M39.5068 43.6689H43.1935V48.0862H39.5068V43.6689Z" fill="#BBBAB8"/>
<path fill-rule="evenodd" clip-rule="evenodd" d="M39.5068 48.7177H43.1935V53.1362H39.5068V48.7177Z" fill="#E1E0DE"/>
<path fill-rule="evenodd" clip-rule="evenodd" d="M43.7207 28.5211H47.4076V32.9392H43.7207V28.5211Z" fill="#F7F7F7"/>
<path fill-rule="evenodd" clip-rule="evenodd" d="M43.7207 33.5702H47.4076V37.9885H43.7207V33.5702ZM43.7207 38.6188H47.4076V43.0376H43.7207V38.6188Z" fill="#E1E0DE"/>
<path fill-rule="evenodd" clip-rule="evenodd" d="M43.7207 43.6689H47.4076V48.0862H43.7207V43.6689Z" fill="#F7F7F7"/>
<path fill-rule="evenodd" clip-rule="evenodd" d="M43.7207 48.7177H47.4076V53.1362H43.7207V48.7177Z" fill="#E1E0DE"/>
<path fill-rule="evenodd" clip-rule="evenodd" d="M47.9341 28.5211H51.6207V32.9392H47.9341V28.5211Z" fill="#BBBAB8"/>
<path fill-rule="evenodd" clip-rule="evenodd" d="M47.9341 33.5703H51.6207V37.9885H47.9341V33.5703Z" fill="#F7F7F7"/>
<path fill-rule="evenodd" clip-rule="evenodd" d="M47.9341 38.6188H51.6207V43.0376H47.9341V38.6188Z" fill="#E1E0DE"/>
<path fill-rule="evenodd" clip-rule="evenodd" d="M47.9341 43.6689H51.6207V48.0862H47.9341V43.6689Z" fill="#D0D0CE"/>
<path fill-rule="evenodd" clip-rule="evenodd" d="M47.9341 48.7177H51.6207V53.1362H47.9341V48.7177Z" fill="#BBBAB8"/>
<path fill-rule="evenodd" clip-rule="evenodd" d="M49.9561 23.968H97.1726V15.0842H49.9561V23.968Z" fill="white"/>
<path fill-rule="evenodd" clip-rule="evenodd" d="M94.5417 20.3203C94.5303 20.0448 94.4541 19.8214 94.3138 19.6521C94.1729 19.4822 93.9768 19.397 93.7242 19.397C93.4373 19.397 93.2189 19.4778 93.0698 19.6388C92.9206 19.7998 92.8317 20.0269 92.8032 20.3203H94.5417ZM92.7943 21.1749C92.8178 21.5198 92.9384 21.7705 93.1561 21.9258C93.3744 22.081 93.6607 22.1587 94.0168 22.1587C94.2116 22.1587 94.4109 22.1396 94.6147 22.102C94.8184 22.0651 95.012 22.0117 95.1961 21.943C95.2589 22.0581 95.3135 22.1962 95.3592 22.3572C95.4056 22.5176 95.4309 22.6906 95.4373 22.8746C94.9892 23.047 94.4846 23.1335 93.9222 23.1335C93.509 23.1335 93.1548 23.0756 92.859 22.9611C92.5632 22.8459 92.3227 22.6862 92.1361 22.4819C91.9494 22.2777 91.8117 22.0346 91.7229 21.7527C91.634 21.4708 91.5896 21.1634 91.5896 20.8294C91.5896 20.5016 91.6353 20.1937 91.7273 19.9067C91.8187 19.619 91.9552 19.3683 92.1361 19.1558C92.317 18.9426 92.541 18.7746 92.807 18.6505C93.0742 18.5271 93.3858 18.4654 93.7413 18.4654C94.051 18.4654 94.3265 18.5195 94.5671 18.6295C94.8083 18.7384 95.0139 18.8879 95.1828 19.0775C95.3522 19.2678 95.4798 19.4937 95.5661 19.7559C95.6518 20.0174 95.695 20.2974 95.695 20.5965C95.695 20.7059 95.6906 20.8141 95.6823 20.9204C95.6734 21.0266 95.6633 21.1113 95.6518 21.1749H92.7943ZM88.7231 21.0884C88.4019 20.9967 88.1512 20.8599 87.9703 20.6786C87.7894 20.4972 87.6993 20.2255 87.6993 19.8634C87.6993 19.4256 87.8554 19.0839 88.1684 18.8364C88.4813 18.5895 88.9072 18.4654 89.4461 18.4654C89.6701 18.4654 89.891 18.4857 90.1094 18.5258C90.3271 18.5659 90.548 18.6264 90.7714 18.7072C90.76 18.8567 90.7314 19.012 90.6857 19.173C90.64 19.334 90.5854 19.4746 90.5219 19.5961C90.3848 19.5382 90.2325 19.488 90.0662 19.4447C89.8993 19.4014 89.7247 19.3798 89.5406 19.3798C89.3458 19.3798 89.1941 19.4103 89.0849 19.4701C88.9757 19.5312 88.9211 19.6267 88.9211 19.7597C88.9211 19.8863 88.9599 19.9754 89.0379 20.0269C89.1147 20.0785 89.2252 20.1281 89.3686 20.1739L89.8593 20.3203C90.0199 20.3667 90.1652 20.4221 90.2941 20.4889C90.4236 20.5545 90.5334 20.6366 90.6254 20.7345C90.7174 20.8325 90.7892 20.9528 90.8406 21.0973C90.892 21.2411 90.918 21.4161 90.918 21.6235C90.918 21.8361 90.8736 22.0346 90.7847 22.2191C90.6959 22.403 90.567 22.5628 90.3975 22.6977C90.2281 22.8332 90.023 22.9395 89.7818 23.0171C89.5406 23.0947 89.2683 23.1335 88.9643 23.1335C88.8266 23.1335 88.7003 23.1291 88.586 23.1208C88.4705 23.1119 88.3607 23.0979 88.254 23.0769C88.148 23.0572 88.044 23.033 87.9405 23.0037C87.837 22.9751 87.7253 22.9382 87.6047 22.8917C87.6161 22.7365 87.6434 22.5799 87.686 22.4215C87.7291 22.2637 87.785 22.1097 87.8542 21.9595C88.044 22.0346 88.2229 22.0912 88.3918 22.1281C88.5613 22.1657 88.7377 22.1841 88.9211 22.1841C89.0018 22.1841 89.0894 22.1771 89.1839 22.1631C89.2785 22.1479 89.3661 22.1224 89.4461 22.0855C89.5267 22.0473 89.594 21.999 89.6486 21.9385C89.7031 21.878 89.7304 21.7991 89.7304 21.7011C89.7304 21.5631 89.6885 21.4638 89.606 21.4027C89.5222 21.3429 89.4061 21.2901 89.2569 21.2436L88.7231 21.0884ZM82.862 18.5685C83.0689 18.5347 83.2727 18.5169 83.4733 18.5169C83.6738 18.5169 83.8776 18.5347 84.0845 18.5685V20.9331C84.0845 21.1685 84.1029 21.3633 84.1404 21.5153C84.1778 21.6681 84.2349 21.789 84.3124 21.8781C84.389 21.9669 84.4888 22.0325 84.6005 22.0677C84.7154 22.1052 84.85 22.1237 85.0049 22.1237C85.2175 22.1237 85.3952 22.1039 85.5387 22.0639V18.5685C85.7456 18.5347 85.9462 18.5169 86.1417 18.5169C86.3416 18.5169 86.546 18.5347 86.7523 18.5685V22.8574C86.5688 22.9204 86.3264 22.9827 86.0249 23.0432C85.724 23.103 85.4098 23.1335 85.0829 23.1335C84.7897 23.1335 84.5085 23.1106 84.2387 23.0648C83.9696 23.0184 83.7329 22.9204 83.5291 22.7715C83.3254 22.6219 83.1635 22.403 83.0429 22.1154C82.9223 21.8271 82.862 21.4453 82.862 20.9681V18.5685ZM79.8324 22.2013C80.1536 22.2013 80.3847 22.0823 80.5249 21.8437C80.6658 21.6051 80.7363 21.2608 80.7363 20.8128C80.7363 20.3636 80.6658 20.0199 80.5249 19.7813C80.3847 19.5427 80.1536 19.4231 79.8324 19.4231C79.517 19.4231 79.2891 19.5427 79.1482 19.7813C79.0073 20.0199 78.9368 20.3636 78.9368 20.8128C78.9368 21.2608 79.0073 21.6051 79.1482 21.8437C79.2891 22.0823 79.517 22.2013 79.8324 22.2013ZM79.8324 23.1335C79.4706 23.1335 79.1565 23.0744 78.8899 22.9566C78.6233 22.8383 78.4024 22.6747 78.2272 22.4648C78.052 22.2548 77.92 22.0091 77.8311 21.7266C77.7423 21.4453 77.6978 21.1399 77.6978 20.8128C77.6978 20.4845 77.7423 20.1765 77.8311 19.8895C77.92 19.6012 78.052 19.3531 78.2272 19.1431C78.4024 18.9331 78.6233 18.7676 78.8899 18.6461C79.1565 18.5258 79.4706 18.4654 79.8324 18.4654C80.1936 18.4654 80.5091 18.5258 80.7795 18.6461C81.0492 18.7676 81.2726 18.9331 81.4504 19.1431C81.6281 19.3531 81.7601 19.6012 81.8464 19.8895C81.9328 20.1765 81.9759 20.4845 81.9759 20.8128C81.9759 21.1399 81.9328 21.4453 81.8464 21.7266C81.7601 22.0091 81.6281 22.2548 81.4504 22.4648C81.2726 22.6747 81.0492 22.8383 80.7795 22.9566C80.5091 23.0744 80.1936 23.1335 79.8324 23.1335ZM72.8866 16.7224C72.9843 16.7053 73.0846 16.6938 73.1881 16.6874C73.2909 16.6824 73.3918 16.6792 73.4889 16.6792C73.5867 16.6792 73.687 16.6824 73.7904 16.6874C73.8939 16.6938 73.9967 16.7053 74.1002 16.7224V19.0953C74.1402 19.0432 74.1935 18.9814 74.2595 18.9102C74.3255 18.8376 74.4074 18.7689 74.5051 18.7021C74.6023 18.6365 74.7197 18.5805 74.8574 18.5347C74.9952 18.4883 75.1532 18.4654 75.3309 18.4654C75.8248 18.4654 76.1986 18.6035 76.4544 18.8796C76.7096 19.1558 76.8371 19.5898 76.8371 20.1828V23.0387C76.7337 23.0559 76.6309 23.0674 76.5274 23.0731C76.3268 23.0842 76.1257 23.0842 75.925 23.0731C75.8216 23.0674 75.7181 23.0559 75.6153 23.0387V20.5106C75.6153 20.2 75.5658 19.9614 75.4687 19.794C75.3709 19.6267 75.2046 19.544 74.9691 19.544C74.872 19.544 74.7711 19.5586 74.6683 19.5872C74.5648 19.6159 74.4715 19.6719 74.3884 19.7559C74.3052 19.8386 74.2367 19.955 74.1821 20.1046C74.1275 20.2541 74.1002 20.4495 74.1002 20.6913V23.0387C73.9967 23.0559 73.8939 23.0674 73.7904 23.0731C73.5913 23.084 73.3917 23.084 73.1925 23.0731C73.0916 23.0674 72.99 23.0559 72.8866 23.0387V16.7224ZM70.7869 20.3203C70.7755 20.0448 70.6987 19.8214 70.5584 19.6521C70.4181 19.4822 70.2214 19.397 69.9687 19.397C69.6818 19.397 69.4641 19.4778 69.315 19.6388C69.1652 19.7998 69.0763 20.0269 69.0477 20.3203H70.7869ZM69.0395 21.1749C69.0623 21.5198 69.1829 21.7705 69.4006 21.9258C69.619 22.081 69.9053 22.1587 70.2613 22.1587C70.4568 22.1587 70.6561 22.1396 70.8599 22.102C71.0636 22.0651 71.2572 22.0117 71.4407 21.943C71.5035 22.0581 71.5581 22.1962 71.6044 22.3572C71.6501 22.5176 71.6755 22.6906 71.6819 22.8746C71.2337 23.047 70.7291 23.1335 70.1668 23.1335C69.7536 23.1335 69.3994 23.0756 69.1036 22.9611C68.8084 22.8459 68.5672 22.6862 68.3806 22.4819C68.1947 22.2777 68.0569 22.0346 67.9674 21.7527C67.8792 21.4708 67.8341 21.1634 67.8341 20.8294C67.8341 20.5016 67.8805 20.1937 67.9719 19.9067C68.0639 19.619 68.1997 19.3683 68.3806 19.1558C68.5615 18.9426 68.7856 18.7746 69.0522 18.6505C69.3194 18.5271 69.6304 18.4654 69.9859 18.4654C70.2956 18.4654 70.5711 18.5195 70.8123 18.6295C71.0535 18.7384 71.2585 18.8879 71.4273 19.0775C71.5968 19.2678 71.7244 19.4937 71.8107 19.7559C71.897 20.0174 71.9402 20.2974 71.9402 20.5965C71.9402 20.7059 71.9358 20.8141 71.9269 20.9204C71.918 21.0266 71.9085 21.1113 71.897 21.1749H69.0395ZM64.736 18.5685C64.8223 18.5513 64.9036 18.5392 64.981 18.5303C65.0585 18.5214 65.1429 18.5169 65.2349 18.5169C65.3212 18.5169 65.4057 18.5226 65.4888 18.5347C65.572 18.5456 65.6538 18.5602 65.7344 18.5774L65.7814 18.7021C65.796 18.7568 65.8087 18.8147 65.8201 18.8752C65.8316 18.9356 65.8417 18.9961 65.8506 19.0565C65.8588 19.117 65.8665 19.1672 65.8715 19.2073C65.9985 19.0292 66.1534 18.8694 66.3368 18.7282C66.5202 18.5882 66.75 18.5169 67.0255 18.5169C67.0826 18.5169 67.1486 18.5195 67.2229 18.5258C67.2978 18.5315 67.3524 18.5398 67.3866 18.5513C67.3981 18.6092 67.407 18.6754 67.4127 18.7505C67.4184 18.8249 67.4209 18.9025 67.4209 18.9833C67.4209 19.0807 67.4171 19.187 67.4082 19.3022C67.4 19.4173 67.3841 19.5261 67.3606 19.6299C67.2978 19.619 67.2273 19.6127 67.1505 19.6127H67.0077C66.9106 19.6127 66.8014 19.6235 66.6808 19.6432C66.5602 19.663 66.446 19.7164 66.3368 19.8029C66.2276 19.8895 66.1369 20.0187 66.0658 20.1911C65.994 20.3636 65.9579 20.6054 65.9579 20.9159V23.0387C65.855 23.0559 65.7516 23.0674 65.6481 23.0731C65.449 23.084 65.2494 23.084 65.0502 23.0731C64.9493 23.0674 64.8446 23.0559 64.736 23.0387V18.5685ZM62.4637 20.0963C62.4637 19.9582 62.4408 19.8456 62.3945 19.7597C62.3488 19.6738 62.286 19.6057 62.2053 19.5567C62.1254 19.5077 62.0263 19.4746 61.9083 19.4581C61.7909 19.4409 61.6601 19.432 61.5173 19.432C61.2069 19.432 60.8768 19.4924 60.5271 19.6127C60.4471 19.4631 60.3862 19.3225 60.3462 19.1902C60.3062 19.0578 60.2859 18.9 60.2859 18.7155C60.5385 18.6295 60.7912 18.5659 61.0438 18.5258C61.2958 18.4857 61.5313 18.4654 61.749 18.4654C62.3462 18.4654 62.8121 18.6092 63.1479 18.8968C63.4837 19.1844 63.6513 19.6445 63.6513 20.2777V22.8656C63.4507 22.9293 63.2069 22.9897 62.9201 23.047C62.6325 23.1043 62.3088 23.1335 61.947 23.1335C61.6544 23.1335 61.3865 23.1074 61.1422 23.0559C60.8984 23.0037 60.689 22.9172 60.5144 22.7969C60.3392 22.676 60.204 22.5208 60.1095 22.3305C60.0149 22.1415 59.9673 21.908 59.9673 21.6324C59.9673 21.3556 60.0263 21.1246 60.1444 20.9375C60.2618 20.7505 60.4135 20.6009 60.6001 20.4889C60.7867 20.3763 60.9949 20.2961 61.224 20.2471C61.4538 20.1981 61.683 20.1739 61.9127 20.1739C62.079 20.1739 62.2625 20.1828 62.4637 20.2V20.0963ZM62.4637 20.9846C62.3945 20.9738 62.3202 20.963 62.2396 20.9547C62.1596 20.9465 62.0879 20.942 62.0244 20.942C61.7439 20.942 61.5211 20.9923 61.358 21.0928C61.1942 21.1933 61.1123 21.3556 61.1123 21.5802C61.1123 21.7298 61.1441 21.845 61.2069 21.9258C61.2697 22.006 61.3466 22.0651 61.4348 22.102C61.5243 22.1396 61.6188 22.1631 61.7191 22.1714C61.8194 22.1797 61.907 22.1841 61.9819 22.1841C62.0676 22.1841 62.1539 22.1771 62.2396 22.1631C62.3259 22.1479 62.4002 22.1351 62.4637 22.1237V20.9846ZM52.0234 16.8255C52.2302 16.7912 52.4653 16.774 52.7291 16.774C52.8322 16.774 52.9371 16.7772 53.0432 16.7829C53.1496 16.7886 53.2539 16.8026 53.3573 16.8255L54.244 21.4937L55.3112 16.8255C55.4259 16.809 55.532 16.7956 55.6297 16.7874C55.7272 16.7784 55.8276 16.774 55.931 16.774C56.1033 16.774 56.2895 16.7912 56.4904 16.8255L57.6009 21.6146L58.4871 16.8255C58.6648 16.7912 58.8489 16.774 59.038 16.774C59.1529 16.774 59.2646 16.7797 59.3738 16.7912C59.483 16.8026 59.589 16.8147 59.6924 16.8255L58.2034 23.0298C57.9964 23.0648 57.7816 23.0814 57.5577 23.0814C57.3398 23.0814 57.1015 23.0648 56.8434 23.0298L55.8534 18.8968L54.7865 23.0298C54.6484 23.0419 54.5266 23.0527 54.4202 23.0648C54.3144 23.0756 54.1981 23.0814 54.0719 23.0814C53.8941 23.0814 53.702 23.0648 53.4952 23.0298L52.0234 16.8255Z" fill="#D0D0CE"/>
<path fill-rule="evenodd" clip-rule="evenodd" d="M94.2472 19.9397C94.2358 19.6635 94.1596 19.4408 94.0187 19.2709C93.8784 19.101 93.6817 19.0164 93.429 19.0164C93.1428 19.0164 92.9244 19.0965 92.7753 19.2575C92.6261 19.4185 92.5373 19.6463 92.5087 19.9397H94.2472ZM92.4998 20.7936C92.5226 21.1385 92.6433 21.3893 92.861 21.5445C93.0793 21.6998 93.3662 21.7774 93.7217 21.7774C93.9172 21.7774 94.1165 21.759 94.3202 21.7208C94.524 21.6839 94.7176 21.6311 94.901 21.5617C94.9638 21.6769 95.0184 21.815 95.0647 21.976C95.1104 22.1369 95.1365 22.3094 95.1422 22.4933C94.6947 22.6664 94.1895 22.7529 93.6271 22.7529C93.2145 22.7529 92.8603 22.6957 92.5645 22.5798C92.2688 22.4647 92.0276 22.3049 91.8416 22.1013C91.655 21.897 91.5172 21.654 91.4284 21.3721C91.3395 21.0902 91.2951 20.7828 91.2951 20.4481C91.2951 20.121 91.3408 19.813 91.4322 19.5254C91.5242 19.2378 91.6607 18.9877 91.8416 18.7752C92.0218 18.562 92.2459 18.3934 92.5125 18.2699C92.7797 18.1458 93.0907 18.0848 93.4468 18.0848C93.7566 18.0848 94.032 18.1395 94.2726 18.2483C94.5138 18.3577 94.7188 18.5073 94.8883 18.6975C95.0571 18.8865 95.1853 19.1131 95.271 19.3746C95.3574 19.6361 95.4005 19.9168 95.4005 20.2159C95.4005 20.3247 95.3961 20.4328 95.3872 20.5391C95.3789 20.646 95.3688 20.7306 95.3574 20.7936H92.4998ZM88.4286 20.7077C88.1075 20.6155 87.8561 20.4787 87.6758 20.2979C87.4949 20.1166 87.4048 19.8442 87.4048 19.4822C87.4048 19.045 87.561 18.7026 87.8739 18.4557C88.1862 18.2082 88.6127 18.0848 89.1516 18.0848C89.3757 18.0848 89.5965 18.1045 89.8143 18.1446C90.0326 18.1853 90.2535 18.2457 90.4775 18.3266C90.4661 18.4755 90.4369 18.6307 90.3906 18.7917C90.3455 18.9534 90.2909 19.094 90.2275 19.2149C90.0897 19.157 89.938 19.1067 89.7711 19.0641C89.6048 19.0208 89.4302 18.9992 89.2462 18.9992C89.0513 18.9992 88.899 19.0291 88.7898 19.0895C88.6813 19.15 88.6267 19.2467 88.6267 19.3791C88.6267 19.5051 88.6654 19.5948 88.7428 19.6463C88.8203 19.6979 88.9307 19.7469 89.0742 19.7927L89.5648 19.9397C89.7254 19.9855 89.8708 20.0421 89.9996 20.1077C90.1285 20.1745 90.2395 20.2566 90.3309 20.3539C90.423 20.4513 90.4941 20.5722 90.5461 20.716C90.5975 20.8598 90.6235 21.0354 90.6235 21.2429C90.6235 21.4554 90.5791 21.654 90.4902 21.8379C90.4007 22.0218 90.2719 22.1815 90.1031 22.317C89.9336 22.4519 89.7279 22.5588 89.4874 22.6358C89.2462 22.7135 88.9739 22.7529 88.6698 22.7529C88.5321 22.7529 88.4058 22.7485 88.2909 22.7396C88.176 22.7307 88.0656 22.7167 87.9596 22.6969C87.8536 22.6759 87.7488 22.6517 87.6454 22.6231C87.5426 22.5945 87.4302 22.5569 87.3096 22.5111C87.321 22.3559 87.3483 22.1987 87.3915 22.0402C87.4347 21.8824 87.4905 21.7284 87.5591 21.5789C87.7488 21.654 87.9278 21.71 88.0973 21.7475C88.2668 21.7844 88.4432 21.8035 88.6267 21.8035C88.7073 21.8035 88.7942 21.7965 88.8895 21.7819C88.984 21.7679 89.0716 21.7418 89.1516 21.7042C89.2322 21.6673 89.2995 21.6177 89.3541 21.5579C89.4087 21.4974 89.4353 21.4179 89.4353 21.3205C89.4353 21.1824 89.3941 21.0832 89.3109 21.0227C89.2278 20.9623 89.1116 20.9088 88.9624 20.863L88.4286 20.7077ZM82.5675 18.1878C82.7738 18.1535 82.9776 18.1363 83.1781 18.1363C83.3794 18.1363 83.5831 18.1535 83.7894 18.1878V20.5525C83.7894 20.7886 83.8084 20.982 83.8452 21.1347C83.8827 21.2874 83.9405 21.4077 84.0173 21.4974C84.0947 21.5865 84.1912 21.6495 84.3061 21.6871C84.421 21.724 84.5555 21.7431 84.7104 21.7431C84.923 21.7431 85.1007 21.7227 85.2442 21.6826V18.1878C85.4505 18.1535 85.6517 18.1363 85.8466 18.1363C86.0478 18.1363 86.2509 18.1535 86.4578 18.1878V22.4768C86.2744 22.5404 86.0319 22.6015 85.7304 22.6619C85.4289 22.7224 85.1147 22.7529 84.7878 22.7529C84.4952 22.7529 84.214 22.7294 83.9449 22.6836C83.6751 22.6377 83.4384 22.5404 83.234 22.3902C83.0309 22.2407 82.8684 22.0218 82.7478 21.7342C82.6272 21.4472 82.5675 21.0641 82.5675 20.5868V18.1878ZM79.538 21.8207C79.8591 21.8207 80.0902 21.7011 80.2305 21.4624C80.3714 21.2238 80.4412 20.8802 80.4412 20.4316C80.4412 19.9829 80.3714 19.6387 80.2305 19.4001C80.0902 19.1614 79.8591 19.0424 79.538 19.0424C79.2219 19.0424 78.994 19.1614 78.8537 19.4001C78.7128 19.6387 78.643 19.9829 78.643 20.4316C78.643 20.8802 78.7128 21.2238 78.8537 21.4624C78.994 21.7011 79.2219 21.8207 79.538 21.8207ZM79.538 22.7529C79.1762 22.7529 78.862 22.6937 78.5954 22.5754C78.3282 22.4577 78.1073 22.2941 77.9321 22.0841C77.7576 21.8741 77.6255 21.6279 77.5367 21.3466C77.4478 21.0641 77.4027 20.7593 77.4027 20.4316C77.4027 20.1032 77.4478 19.7959 77.5367 19.5082C77.6255 19.2206 77.7576 18.9718 77.9321 18.7618C78.1073 18.5518 78.3282 18.3864 78.5954 18.2655C78.862 18.1446 79.1762 18.0848 79.538 18.0848C79.8991 18.0848 80.2146 18.1446 80.4844 18.2655C80.7541 18.3864 80.9782 18.5518 81.1559 18.7618C81.3336 18.9718 81.4656 19.2206 81.552 19.5082C81.6377 19.7959 81.6808 20.1032 81.6808 20.4316C81.6808 20.7593 81.6377 21.0641 81.552 21.3466C81.4656 21.6279 81.3336 21.8741 81.1559 22.0841C80.9782 22.2941 80.7541 22.4577 80.4844 22.5754C80.2146 22.6937 79.8991 22.7529 79.538 22.7529ZM72.5915 16.3412C72.6892 16.324 72.7895 16.3126 72.893 16.3075C72.9964 16.3011 73.0967 16.2986 73.1945 16.2986C73.2916 16.2986 73.3925 16.3011 73.4953 16.3075C73.5988 16.3126 73.7023 16.324 73.8051 16.3412V18.7147C73.8457 18.6625 73.8984 18.6008 73.9644 18.5289C74.0304 18.457 74.1123 18.3877 74.21 18.3221C74.3078 18.2553 74.4252 18.1993 74.563 18.1535C74.7007 18.1077 74.8581 18.0848 75.0358 18.0848C75.5296 18.0848 75.9041 18.2222 76.1593 18.4984C76.4151 18.7752 76.5427 19.2092 76.5427 19.8016V22.6575C76.4392 22.6753 76.3358 22.6861 76.2323 22.6925C76.1295 22.6982 76.0285 22.7014 75.9314 22.7014C75.8337 22.7014 75.7334 22.6982 75.6299 22.6925C75.5265 22.6861 75.4236 22.6753 75.3202 22.6575V20.1299C75.3202 19.8188 75.2719 19.5801 75.1742 19.4134C75.0764 19.2467 74.9101 19.1633 74.6747 19.1633C74.5769 19.1633 74.4766 19.1773 74.3738 19.206C74.2703 19.2346 74.177 19.2912 74.0939 19.3746C74.0107 19.458 73.9415 19.5744 73.887 19.724C73.8324 19.8735 73.8051 20.0695 73.8051 20.3107V22.6575C73.7023 22.6753 73.5988 22.6861 73.4953 22.6925C73.3925 22.6982 73.2916 22.7014 73.1945 22.7014C73.0967 22.7014 72.9983 22.6982 72.8974 22.6925C72.7971 22.6861 72.6949 22.6753 72.5915 22.6575V16.3412ZM70.4918 19.9397C70.4804 19.6635 70.4042 19.4408 70.2633 19.2709C70.123 19.101 69.9269 19.0164 69.6743 19.0164C69.3874 19.0164 69.169 19.0965 69.0198 19.2575C68.8707 19.4185 68.7818 19.6463 68.7533 19.9397H70.4918ZM68.7444 20.7936C68.7672 21.1385 68.8878 21.3893 69.1062 21.5445C69.3239 21.6998 69.6108 21.7774 69.9669 21.7774C70.1617 21.7774 70.361 21.759 70.5654 21.7208C70.7685 21.6839 70.9621 21.6311 71.1462 21.5617C71.209 21.6769 71.2636 21.815 71.3093 21.976C71.3557 22.1369 71.381 22.3094 71.3868 22.4933C70.9393 22.6664 70.434 22.7529 69.8723 22.7529C69.4591 22.7529 69.1049 22.6957 68.8091 22.5798C68.514 22.4647 68.2728 22.3049 68.0862 22.1013C67.8995 21.897 67.7618 21.654 67.673 21.3721C67.5841 21.0902 67.5397 20.7828 67.5397 20.4481C67.5397 20.121 67.5854 19.813 67.6774 19.5254C67.7688 19.2378 67.9053 18.9877 68.0862 18.7752C68.2671 18.562 68.4905 18.3934 68.7571 18.2699C69.0243 18.1458 69.3359 18.0848 69.6914 18.0848C70.0011 18.0848 70.2766 18.1395 70.5178 18.2483C70.7584 18.3577 70.9634 18.5073 71.1329 18.6975C71.3023 18.8865 71.4299 19.1131 71.5162 19.3746C71.6019 19.6361 71.6451 19.9168 71.6451 20.2159C71.6451 20.3247 71.6407 20.4328 71.6324 20.5391C71.6235 20.646 71.6134 20.7306 71.6019 20.7936H68.7444ZM64.4415 18.1878C64.5272 18.1707 64.6091 18.1579 64.6865 18.149C64.764 18.1407 64.8484 18.1363 64.9404 18.1363C65.0261 18.1363 65.1112 18.1414 65.1943 18.1535C65.2775 18.1649 65.3594 18.1796 65.4393 18.1967L65.4869 18.3221C65.5009 18.3768 65.5142 18.4335 65.5257 18.4939C65.5371 18.555 65.5472 18.6155 65.5555 18.6753C65.5644 18.7357 65.5714 18.786 65.5771 18.8267C65.7034 18.6479 65.8583 18.4882 66.0423 18.3476C66.2258 18.2069 66.4549 18.1363 66.7304 18.1363C66.7881 18.1363 66.8541 18.1395 66.9284 18.1446C67.0033 18.1503 67.0579 18.1592 67.0922 18.1707C67.1036 18.2279 67.1125 18.2947 67.1176 18.3692C67.1239 18.4437 67.1264 18.5219 67.1264 18.6021C67.1264 18.7001 67.122 18.8064 67.1138 18.9215C67.1049 19.0367 67.089 19.1462 67.0661 19.2493C67.0033 19.2378 66.9329 19.2321 66.8554 19.2321H66.7132C66.6155 19.2321 66.507 19.2422 66.3864 19.262C66.2658 19.2823 66.1509 19.3352 66.0423 19.4217C65.9332 19.5082 65.843 19.6374 65.7707 19.8105C65.6989 19.9829 65.6634 20.2248 65.6634 20.5353V22.6575C65.5609 22.6748 65.4574 22.6864 65.3536 22.6925C65.2502 22.6982 65.1499 22.7014 65.0521 22.7014C64.9544 22.7014 64.8554 22.6982 64.7551 22.6925C64.6548 22.6861 64.5501 22.6753 64.4415 22.6575V18.1878ZM62.1686 19.715C62.1686 19.577 62.1457 19.4656 62.1 19.3791C62.0565 19.2953 61.9911 19.2249 61.9109 19.1754C61.8303 19.1271 61.7319 19.094 61.6138 19.0768C61.4957 19.0596 61.3656 19.0507 61.2222 19.0507C60.9124 19.0507 60.5824 19.1112 60.2326 19.2321C60.152 19.0825 60.0917 18.9413 60.0517 18.8089C60.0118 18.6765 59.9914 18.5187 59.9914 18.3342C60.2381 18.2498 60.4914 18.1864 60.7487 18.1446C61.0013 18.1045 61.2368 18.0848 61.4545 18.0848C62.0511 18.0848 62.5177 18.2279 62.8534 18.5156C63.1886 18.8038 63.3568 19.2639 63.3568 19.8964V22.4857C63.1556 22.548 62.9118 22.6085 62.6249 22.6664C62.3387 22.7243 62.0143 22.7529 61.6525 22.7529C61.3599 22.7529 61.0914 22.7268 60.8477 22.6753C60.604 22.6231 60.3945 22.5372 60.2193 22.4157C60.0469 22.298 59.9077 22.1378 59.815 21.9505C59.7204 21.7602 59.6728 21.5273 59.6728 21.2512C59.6728 20.9756 59.7318 20.7434 59.8493 20.5563C59.9667 20.3692 60.119 20.2203 60.3056 20.1077C60.4922 19.9963 60.7004 19.9155 60.9296 19.8659C61.1593 19.8175 61.3885 19.7927 61.6183 19.7927C61.7846 19.7927 61.968 19.8016 62.1686 19.8188V19.715ZM62.1686 20.604C62.1 20.5926 62.0257 20.5824 61.9451 20.5741C61.8645 20.5652 61.7934 20.5607 61.73 20.5607C61.4488 20.5607 61.2266 20.611 61.0629 20.7122C60.8991 20.8127 60.8179 20.9756 60.8179 21.199C60.8179 21.3492 60.849 21.4637 60.9124 21.5445C60.9753 21.6253 61.0514 21.6839 61.1403 21.7208C61.2298 21.759 61.3237 21.7819 61.4247 21.7908C61.5249 21.7991 61.6125 21.8035 61.6868 21.8035C61.7731 21.8035 61.8588 21.7965 61.9451 21.7819C62.0315 21.7679 62.1057 21.7545 62.1686 21.7431V20.604ZM51.7285 16.4449C51.9353 16.4106 52.1706 16.3927 52.4345 16.3927C52.5376 16.3927 52.6425 16.3959 52.7486 16.4016C52.8547 16.408 52.9593 16.422 53.063 16.4449L53.9494 21.1131L55.0162 16.4449C55.1313 16.4277 55.2377 16.415 55.3351 16.4061C55.4326 16.3972 55.533 16.3927 55.6364 16.3927C55.8087 16.3927 55.9949 16.4106 56.1957 16.4449L57.3062 21.234L58.1926 16.4449C58.3703 16.4106 58.5538 16.3927 58.7436 16.3927C58.8578 16.3927 58.9702 16.3991 59.0787 16.4106C59.1879 16.422 59.2945 16.4335 59.3973 16.4449L57.9089 22.6486C57.702 22.6836 57.4867 22.7014 57.2631 22.7014C57.0449 22.7014 56.8069 22.6836 56.5488 22.6486L55.5587 18.5156L54.4916 22.6486C54.3538 22.6607 54.232 22.6721 54.1256 22.6836C54.0195 22.6957 53.9035 22.7014 53.7773 22.7014C53.5993 22.7014 53.4074 22.6836 53.2006 22.6486L51.7285 16.4449Z" fill="#224855"/>
<path d="M49.9561 25.293H97.1726V23.9681H49.9561V25.293Z" fill="#275867"/>
<path fill-rule="evenodd" clip-rule="evenodd" d="M68.2894 37.7307H61.958V43.116H68.2894V37.7307Z" fill="#7C784D"/>
<path fill-rule="evenodd" clip-rule="evenodd" d="M68.3002 37.7308H61.958V38.9182H68.3002V37.7308Z" fill="#9E9050"/>
<path fill-rule="evenodd" clip-rule="evenodd" d="M68.4455 37.6459H61.8018V38.5999H68.4455V37.6459Z" fill="#C1B466"/>
<path fill-rule="evenodd" clip-rule="evenodd" d="M61.5187 37.7307H55.1875V43.116H61.5187V37.7307Z" fill="#7C784D"/>
<path fill-rule="evenodd" clip-rule="evenodd" d="M61.5295 37.7308H55.1875V38.9182H61.5295V37.7308Z" fill="#9E9050"/>
<path fill-rule="evenodd" clip-rule="evenodd" d="M61.6748 37.6459H55.0312V38.5999H61.6748V37.6459Z" fill="#C1B466"/>
<path fill-rule="evenodd" clip-rule="evenodd" d="M68.2894 42.9243H61.958V48.3091H68.2894V42.9243Z" fill="#7C784D"/>
<path fill-rule="evenodd" clip-rule="evenodd" d="M68.3002 42.9242H61.958V44.1116H68.3002V42.9242Z" fill="#9E9050"/>
<path fill-rule="evenodd" clip-rule="evenodd" d="M68.4455 42.8397H61.8018V43.7935H68.4455V42.8397Z" fill="#C1B466"/>
<path fill-rule="evenodd" clip-rule="evenodd" d="M61.5187 42.9243H55.1875V48.3091H61.5187V42.9243Z" fill="#7C784D"/>
<path fill-rule="evenodd" clip-rule="evenodd" d="M61.5295 42.9242H55.1875V44.1116H61.5295V42.9242Z" fill="#9E9050"/>
<path fill-rule="evenodd" clip-rule="evenodd" d="M61.6748 42.8397H55.0312V43.7935H61.6748V42.8397Z" fill="#C1B466"/>
<path fill-rule="evenodd" clip-rule="evenodd" d="M68.2894 48.0132H61.958V53.3984H68.2894V48.0132Z" fill="#7C784D"/>
<path fill-rule="evenodd" clip-rule="evenodd" d="M68.3002 48.0133H61.958V49.2007H68.3002V48.0133Z" fill="#9E9050"/>
<path fill-rule="evenodd" clip-rule="evenodd" d="M68.4455 47.9286H61.8018V48.8826H68.4455V47.9286Z" fill="#C1B466"/>
<path fill-rule="evenodd" clip-rule="evenodd" d="M61.5187 48.0132H55.1875V53.3984H61.5187V48.0132Z" fill="#7C784D"/>
<path fill-rule="evenodd" clip-rule="evenodd" d="M61.5295 48.0133H55.1875V49.2007H61.5295V48.0133Z" fill="#9E9050"/>
<path fill-rule="evenodd" clip-rule="evenodd" d="M61.6748 47.9286H55.0312V48.8826H61.6748V47.9286Z" fill="#C1B466"/>
<path fill-rule="evenodd" clip-rule="evenodd" d="M114.556 26.4496H127.724V52.3269H114.556V26.4496Z" fill="#193036"/>
<path fill-rule="evenodd" clip-rule="evenodd" d="M115.083 27.0809H118.77V31.499H115.083V27.0809Z" fill="#D0D0CE"/>
<path fill-rule="evenodd" clip-rule="evenodd" d="M115.083 32.1303H118.77V36.5483H115.083V32.1303Z" fill="#BBBAB8"/>
<path fill-rule="evenodd" clip-rule="evenodd" d="M115.083 37.1796H118.77V41.5977H115.083V37.1796Z" fill="#AEAEAC"/>
<path fill-rule="evenodd" clip-rule="evenodd" d="M115.083 42.2287H118.77V46.6462H115.083V42.2287Z" fill="#D0D0CE"/>
<path fill-rule="evenodd" clip-rule="evenodd" d="M115.083 47.2782H118.77V51.6963H115.083V47.2782ZM119.297 27.0808H122.983V31.4989H119.297V27.0808Z" fill="#AEAEAC"/>
<path fill-rule="evenodd" clip-rule="evenodd" d="M119.296 32.1303H122.983V36.5483H119.296V32.1303Z" fill="#D0D0CE"/>
<path fill-rule="evenodd" clip-rule="evenodd" d="M119.296 37.1796H122.983V41.5977H119.296V37.1796Z" fill="#E1E0DE"/>
<path fill-rule="evenodd" clip-rule="evenodd" d="M119.296 42.2287H122.983V46.6462H119.296V42.2287Z" fill="#D0D0CE"/>
<path fill-rule="evenodd" clip-rule="evenodd" d="M119.296 47.2782H122.983V51.6963H119.296V47.2782Z" fill="#BBBAB8"/>
<path fill-rule="evenodd" clip-rule="evenodd" d="M123.511 27.0809H127.197V31.499H123.511V27.0809Z" fill="#D0D0CE"/>
<path fill-rule="evenodd" clip-rule="evenodd" d="M123.511 32.1303H127.197V36.5483H123.511V32.1303Z" fill="#E1E0DE"/>
<path fill-rule="evenodd" clip-rule="evenodd" d="M123.511 37.1796H127.197V41.5977H123.511V37.1796Z" fill="#D0D0CE"/>
<path fill-rule="evenodd" clip-rule="evenodd" d="M123.511 42.2287H127.197V46.6462H123.511V42.2287Z" fill="#AEAEAC"/>
<path fill-rule="evenodd" clip-rule="evenodd" d="M123.511 47.2782H127.197V51.6963H123.511V47.2782Z" fill="#D0D0CE"/>
<path fill-rule="evenodd" clip-rule="evenodd" d="M32.7624 52.3269H19.5952V26.4496H32.7624V52.3269Z" fill="#193036"/>
<path fill-rule="evenodd" clip-rule="evenodd" d="M32.2357 51.6963H28.5488V47.2782H32.2357V51.6963Z" fill="#D0D0CE"/>
<path fill-rule="evenodd" clip-rule="evenodd" d="M32.2357 46.6462H28.5488V42.2287H32.2357V46.6462Z" fill="#BBBAB8"/>
<path fill-rule="evenodd" clip-rule="evenodd" d="M32.2357 41.5977H28.5488V37.1796H32.2357V41.5977Z" fill="#AEAEAC"/>
<path fill-rule="evenodd" clip-rule="evenodd" d="M32.2357 36.5483H28.5488V32.1303H32.2357V36.5483Z" fill="#D0D0CE"/>
<path fill-rule="evenodd" clip-rule="evenodd" d="M32.2359 31.4989H28.549V27.0808H32.2359V31.4989ZM28.0223 51.6963H24.3359V47.2782H28.0223V51.6963Z" fill="#AEAEAC"/>
<path fill-rule="evenodd" clip-rule="evenodd" d="M28.0223 46.6462H24.3359V42.2287H28.0223V46.6462Z" fill="#D0D0CE"/>
<path fill-rule="evenodd" clip-rule="evenodd" d="M28.0223 41.5977H24.3359V37.1796H28.0223V41.5977Z" fill="#E1E0DE"/>
<path fill-rule="evenodd" clip-rule="evenodd" d="M28.0223 36.5483H24.3359V32.1303H28.0223V36.5483Z" fill="#D0D0CE"/>
<path fill-rule="evenodd" clip-rule="evenodd" d="M28.0223 31.499H24.3359V27.0809H28.0223V31.499Z" fill="#BBBAB8"/>
<path fill-rule="evenodd" clip-rule="evenodd" d="M23.8089 51.6963H20.1226V47.2782H23.8089V51.6963Z" fill="#D0D0CE"/>
<path fill-rule="evenodd" clip-rule="evenodd" d="M23.8089 46.6462H20.1226V42.2287H23.8089V46.6462Z" fill="#E1E0DE"/>
<path fill-rule="evenodd" clip-rule="evenodd" d="M23.8089 41.5977H20.1226V37.1796H23.8089V41.5977Z" fill="#D0D0CE"/>
<path fill-rule="evenodd" clip-rule="evenodd" d="M23.8089 36.5483H20.1226V32.1303H23.8089V36.5483Z" fill="#AEAEAC"/>
<path fill-rule="evenodd" clip-rule="evenodd" d="M23.8089 31.499H20.1226V27.0809H23.8089V31.499Z" fill="#D0D0CE"/>
<path d="M55.6609 63.666H25.2373L25.2256 63.6539L25.9667 61.4001L43.1597 61.1721L45.5486 57.0461L45.9828 56.5632H48.5611L55.6609 63.666Z" fill="url(#paint0_linear_37:6981)"/>
<path d="M48.5612 56.563H45.9829L47.2037 55.2056L48.5612 56.563Z" fill="url(#paint1_linear_37:6981)"/>
<path fill-rule="evenodd" clip-rule="evenodd" d="M25.2256 61.1917H27.6934V63.666H25.2256V61.1917Z" fill="#D4BB5F"/>
<path fill-rule="evenodd" clip-rule="evenodd" d="M25.2256 61.1915H27.6934V62.6245H25.2256V61.1915Z" fill="#BFA754"/>
<path fill-rule="evenodd" clip-rule="evenodd" d="M44.7588 61.1917H47.2263V63.666H44.7588V61.1917Z" fill="#D4BB5F"/>
<path fill-rule="evenodd" clip-rule="evenodd" d="M44.7588 61.1915H47.2263V62.6245H44.7588V61.1915Z" fill="#BFA754"/>
<path fill-rule="evenodd" clip-rule="evenodd" d="M25.2256 61.1911H47.2262V62.2461H25.2256V61.1911Z" fill="#E4D77C"/>
<path fill-rule="evenodd" clip-rule="evenodd" d="M39.6655 55.302H32.7856V61.1538H39.6655V55.302Z" fill="#D4BB5F"/>
<path fill-rule="evenodd" clip-rule="evenodd" d="M39.6772 55.3017H32.7856V56.5923H39.6772V55.3017Z" fill="#BFA754"/>
<path fill-rule="evenodd" clip-rule="evenodd" d="M39.8358 55.2095H32.6162V56.2461H39.8358V55.2095Z" fill="#E4D77C"/>
<path fill-rule="evenodd" clip-rule="evenodd" d="M39.2696 56.7247H36.9258V57.7905H39.2696V56.7247Z" fill="#E2ECF5"/>
<path fill-rule="evenodd" clip-rule="evenodd" d="M37.3464 56.8616H37.0972V57.6538H37.3464V56.8616ZM37.7907 56.8616H37.5417V57.6538H37.7907V56.8616ZM38.2503 56.8616H38.0012V57.6538H38.2503V56.8616ZM38.6711 56.8616H38.4222V57.6538H38.6711V56.8616ZM39.0981 56.8616H38.8489V57.6538H39.0981V56.8616Z" fill="#7B7D83"/>
<path fill-rule="evenodd" clip-rule="evenodd" d="M47.0234 55.302H40.1436V61.1538H47.0234V55.302Z" fill="#D4BB5F"/>
<path fill-rule="evenodd" clip-rule="evenodd" d="M47.0351 55.3017H40.1436V56.5923H47.0351V55.3017Z" fill="#BFA754"/>
<path fill-rule="evenodd" clip-rule="evenodd" d="M47.1929 55.2095H39.9736V56.2461H47.1929V55.2095Z" fill="#E4D77C"/>
<path fill-rule="evenodd" clip-rule="evenodd" d="M46.6275 56.7247H44.2837V57.7905H46.6275V56.7247Z" fill="#E2ECF5"/>
<path fill-rule="evenodd" clip-rule="evenodd" d="M44.7048 56.8616H44.4556V57.6538H44.7048V56.8616ZM45.1491 56.8616H44.9001V57.6538H45.1491V56.8616ZM45.6087 56.8616H45.3594V57.6538H45.6087V56.8616ZM46.0293 56.8616H45.7804V57.6538H46.0293V56.8616ZM46.4562 56.8616H46.2073V57.6538H46.4562V56.8616Z" fill="#7B7D83"/>
<path fill-rule="evenodd" clip-rule="evenodd" d="M32.3078 55.302H25.4282V61.1538H32.3078V55.302Z" fill="#D4BB5F"/>
<path fill-rule="evenodd" clip-rule="evenodd" d="M32.3197 55.3017H25.4282V56.5923H32.3197V55.3017Z" fill="#BFA754"/>
<path fill-rule="evenodd" clip-rule="evenodd" d="M32.4781 55.2095H25.2588V56.2461H32.4781V55.2095Z" fill="#E4D77C"/>
<path fill-rule="evenodd" clip-rule="evenodd" d="M31.9121 56.7247H29.5688V57.7905H31.9121V56.7247Z" fill="#E2ECF5"/>
<path fill-rule="evenodd" clip-rule="evenodd" d="M29.9892 56.8616H29.7402V57.6538H29.9892V56.8616ZM30.4337 56.8616H30.1845V57.6538H30.4337V56.8616ZM30.8932 56.8616H30.644V57.6538H30.8932V56.8616ZM31.3139 56.8616H31.065V57.6538H31.3139V56.8616ZM31.7409 56.8616H31.492V57.6538H31.7409V56.8616Z" fill="#7B7D83"/>
<path fill-rule="evenodd" clip-rule="evenodd" d="M39.6655 49.3035H32.7856V55.1553H39.6655V49.3035Z" fill="#D4BB5F"/>
<path fill-rule="evenodd" clip-rule="evenodd" d="M39.6772 49.3034H32.7856V50.594H39.6772V49.3034Z" fill="#BFA754"/>
<path fill-rule="evenodd" clip-rule="evenodd" d="M39.8358 49.2122H32.6162V50.2488H39.8358V49.2122Z" fill="#E4D77C"/>
<path fill-rule="evenodd" clip-rule="evenodd" d="M39.2696 50.7271H36.9258V51.7925H39.2696V50.7271Z" fill="#E2ECF5"/>
<path fill-rule="evenodd" clip-rule="evenodd" d="M37.3464 50.8626H37.0972V51.6555H37.3464V50.8626ZM37.7907 50.8626H37.5417V51.6555H37.7907V50.8626ZM38.2503 50.8626H38.0012V51.6555H38.2503V50.8626ZM38.6711 50.8626H38.4222V51.6555H38.6711V50.8626ZM39.0981 50.8626H38.8489V51.6555H39.0981V50.8626Z" fill="#7B7D83"/>
<path fill-rule="evenodd" clip-rule="evenodd" d="M47.0234 49.3035H40.1436V55.1553H47.0234V49.3035Z" fill="#D4BB5F"/>
<path fill-rule="evenodd" clip-rule="evenodd" d="M47.0351 49.3034H40.1436V50.594H47.0351V49.3034Z" fill="#BFA754"/>
<path fill-rule="evenodd" clip-rule="evenodd" d="M47.1929 49.2122H39.9736V50.2488H47.1929V49.2122Z" fill="#E4D77C"/>
<path fill-rule="evenodd" clip-rule="evenodd" d="M46.6275 50.7271H44.2837V51.7925H46.6275V50.7271Z" fill="#E2ECF5"/>
<path fill-rule="evenodd" clip-rule="evenodd" d="M44.7048 50.8626H44.4556V51.6555H44.7048V50.8626ZM45.1491 50.8626H44.9001V51.6555H45.1491V50.8626ZM45.6087 50.8626H45.3594V51.6555H45.6087V50.8626ZM46.0293 50.8626H45.7804V51.6555H46.0293V50.8626ZM46.4562 50.8626H46.2073V51.6555H46.4562V50.8626Z" fill="#7B7D83"/>
<path fill-rule="evenodd" clip-rule="evenodd" d="M32.3078 49.3035H25.4282V55.1553H32.3078V49.3035Z" fill="#D4BB5F"/>
<path fill-rule="evenodd" clip-rule="evenodd" d="M32.3197 49.3034H25.4282V50.594H32.3197V49.3034Z" fill="#BFA754"/>
<path fill-rule="evenodd" clip-rule="evenodd" d="M32.4781 49.2122H25.2588V50.2488H32.4781V49.2122Z" fill="#E4D77C"/>
<path fill-rule="evenodd" clip-rule="evenodd" d="M31.9121 50.7271H29.5688V51.7925H31.9121V50.7271Z" fill="#E2ECF5"/>
<path fill-rule="evenodd" clip-rule="evenodd" d="M29.9892 50.8626H29.7402V51.6555H29.9892V50.8626ZM30.4337 50.8626H30.1845V51.6555H30.4337V50.8626ZM30.8932 50.8626H30.644V51.6555H30.8932V50.8626ZM31.3139 50.8626H31.065V51.6555H31.3139V50.8626ZM31.7409 50.8626H31.492V51.6555H31.7409V50.8626Z" fill="#7B7D83"/>
<path fill-rule="evenodd" clip-rule="evenodd" d="M92.137 42.8194H85.8062V48.2046H92.137V42.8194Z" fill="#7C784D"/>
<path fill-rule="evenodd" clip-rule="evenodd" d="M92.1477 42.8194H85.8062V44.0068H92.1477V42.8194Z" fill="#9E9050"/>
<path fill-rule="evenodd" clip-rule="evenodd" d="M92.293 42.7354H85.6499V43.6887H92.293V42.7354Z" fill="#C1B466"/>
<path fill-rule="evenodd" clip-rule="evenodd" d="M85.366 42.8194H79.0352V48.2046H85.366V42.8194Z" fill="#7C784D"/>
<path fill-rule="evenodd" clip-rule="evenodd" d="M85.3768 42.8194H79.0352V44.0068H85.3768V42.8194Z" fill="#9E9050"/>
<path fill-rule="evenodd" clip-rule="evenodd" d="M85.5225 42.7354H78.8794V43.6887H85.5225V42.7354Z" fill="#C1B466"/>
<path fill-rule="evenodd" clip-rule="evenodd" d="M92.137 48.0132H85.8062V53.3984H92.137V48.0132Z" fill="#7C784D"/>
<path fill-rule="evenodd" clip-rule="evenodd" d="M92.1477 48.0133H85.8062V49.2007H92.1477V48.0133Z" fill="#9E9050"/>
<path fill-rule="evenodd" clip-rule="evenodd" d="M92.293 47.9286H85.6499V48.8826H92.293V47.9286Z" fill="#C1B466"/>
<path fill-rule="evenodd" clip-rule="evenodd" d="M85.366 48.0132H79.0352V53.3984H85.366V48.0132Z" fill="#7C784D"/>
<path fill-rule="evenodd" clip-rule="evenodd" d="M85.3768 48.0133H79.0352V49.2007H85.3768V48.0133Z" fill="#9E9050"/>
<path fill-rule="evenodd" clip-rule="evenodd" d="M85.5225 47.9286H78.8794V48.8826H85.5225V47.9286Z" fill="#C1B466"/>
<path fill-rule="evenodd" clip-rule="evenodd" d="M92.5268 52.706H86.4683V57.8596H92.5268V52.706Z" fill="#D4BB5F"/>
<path fill-rule="evenodd" clip-rule="evenodd" d="M92.5369 52.7061H86.4683V53.8418H92.5369V52.7061Z" fill="#BFA754"/>
<path fill-rule="evenodd" clip-rule="evenodd" d="M92.6758 52.6253H86.3184V53.5378H92.6758V52.6253Z" fill="#E4D77C"/>
<path fill-rule="evenodd" clip-rule="evenodd" d="M92.1779 53.9591H90.1138V54.8977H92.1779V53.9591Z" fill="#E2ECF5"/>
<path fill-rule="evenodd" clip-rule="evenodd" d="M90.4841 54.0794H90.2651V54.7776H90.4841V54.0794ZM90.8764 54.0794H90.6568V54.7776H90.8764V54.0794ZM91.2807 54.0794H91.0611V54.7776H91.2807V54.0794ZM91.6514 54.0794H91.4318V54.7776H91.6514V54.0794ZM92.0271 54.0794H91.8075V54.7776H92.0271V54.0794Z" fill="#7B7D83"/>
<path fill-rule="evenodd" clip-rule="evenodd" d="M99.0064 52.706H92.9473V57.8596H99.0064V52.706Z" fill="#D4BB5F"/>
<path fill-rule="evenodd" clip-rule="evenodd" d="M99.0159 52.7061H92.9473V53.8418H99.0159V52.7061Z" fill="#BFA754"/>
<path fill-rule="evenodd" clip-rule="evenodd" d="M99.1559 52.6253H92.7979V53.5378H99.1559V52.6253Z" fill="#E4D77C"/>
<path fill-rule="evenodd" clip-rule="evenodd" d="M98.6574 53.9591H96.5933V54.8977H98.6574V53.9591Z" fill="#E2ECF5"/>
<path fill-rule="evenodd" clip-rule="evenodd" d="M96.9638 54.0794H96.7441V54.7776H96.9638V54.0794ZM97.3554 54.0794H97.1358V54.7776H97.3554V54.0794ZM97.7597 54.0794H97.5407V54.7776H97.7597V54.0794ZM98.1304 54.0794H97.9108V54.7776H98.1304V54.0794ZM98.5062 54.0794H98.2872V54.7776H98.5062V54.0794Z" fill="#7B7D83"/>
<path fill-rule="evenodd" clip-rule="evenodd" d="M86.0474 52.706H79.9883V57.8596H86.0474V52.706Z" fill="#D4BB5F"/>
<path fill-rule="evenodd" clip-rule="evenodd" d="M86.0576 52.7061H79.9883V53.8418H86.0576V52.7061Z" fill="#BFA754"/>
<path fill-rule="evenodd" clip-rule="evenodd" d="M86.1963 52.6253H79.8389V53.5378H86.1963V52.6253Z" fill="#E4D77C"/>
<path fill-rule="evenodd" clip-rule="evenodd" d="M85.6978 53.9591H83.6343V54.8977H85.6978V53.9591Z" fill="#E2ECF5"/>
<path fill-rule="evenodd" clip-rule="evenodd" d="M84.0046 54.0794H83.7856V54.7776H84.0046V54.0794ZM84.3963 54.0794H84.1766V54.7776H84.3963V54.0794ZM84.8006 54.0794H84.5816V54.7776H84.8006V54.0794ZM85.1713 54.0794H84.9523V54.7776H85.1713V54.0794ZM85.547 54.0794H85.328V54.7776H85.547V54.0794Z" fill="#7B7D83"/>
<path fill-rule="evenodd" clip-rule="evenodd" d="M92.5268 47.4233H86.4683V52.5769H92.5268V47.4233Z" fill="#D4BB5F"/>
<path fill-rule="evenodd" clip-rule="evenodd" d="M92.5369 47.4234H86.4683V48.5598H92.5369V47.4234Z" fill="#BFA754"/>
<path fill-rule="evenodd" clip-rule="evenodd" d="M92.6758 47.3427H86.3184V48.2556H92.6758V47.3427Z" fill="#E4D77C"/>
<path fill-rule="evenodd" clip-rule="evenodd" d="M92.1779 48.6768H90.1138V49.6147H92.1779V48.6768Z" fill="#E2ECF5"/>
<path fill-rule="evenodd" clip-rule="evenodd" d="M90.4841 48.7966H90.2651V49.4954H90.4841V48.7966ZM90.8764 48.7966H90.6568V49.4954H90.8764V48.7966ZM91.2807 48.7966H91.0611V49.4954H91.2807V48.7966ZM91.6514 48.7966H91.4318V49.4954H91.6514V48.7966ZM92.0271 48.7966H91.8075V49.4954H92.0271V48.7966Z" fill="#7B7D83"/>
<path fill-rule="evenodd" clip-rule="evenodd" d="M99.0064 47.4233H92.9473V52.5769H99.0064V47.4233Z" fill="#D4BB5F"/>
<path fill-rule="evenodd" clip-rule="evenodd" d="M99.0159 47.4234H92.9473V48.5598H99.0159V47.4234Z" fill="#BFA754"/>
<path fill-rule="evenodd" clip-rule="evenodd" d="M99.1559 47.3427H92.7979V48.2556H99.1559V47.3427Z" fill="#E4D77C"/>
<path fill-rule="evenodd" clip-rule="evenodd" d="M98.6574 48.6768H96.5933V49.6147H98.6574V48.6768Z" fill="#E2ECF5"/>
<path fill-rule="evenodd" clip-rule="evenodd" d="M96.9638 48.7966H96.7441V49.4954H96.9638V48.7966ZM97.3554 48.7966H97.1358V49.4954H97.3554V48.7966ZM97.7597 48.7966H97.5407V49.4954H97.7597V48.7966ZM98.1304 48.7966H97.9108V49.4954H98.1304V48.7966ZM98.5062 48.7966H98.2872V49.4954H98.5062V48.7966Z" fill="#7B7D83"/>
<path fill-rule="evenodd" clip-rule="evenodd" d="M86.0474 47.4233H79.9883V52.5769H86.0474V47.4233Z" fill="#D4BB5F"/>
<path fill-rule="evenodd" clip-rule="evenodd" d="M86.0576 47.4234H79.9883V48.5598H86.0576V47.4234Z" fill="#BFA754"/>
<path fill-rule="evenodd" clip-rule="evenodd" d="M86.1963 47.3427H79.8389V48.2556H86.1963V47.3427Z" fill="#E4D77C"/>
<path fill-rule="evenodd" clip-rule="evenodd" d="M85.6978 48.6768H83.6343V49.6147H85.6978V48.6768Z" fill="#E2ECF5"/>
<path fill-rule="evenodd" clip-rule="evenodd" d="M84.0046 48.7966H83.7856V49.4954H84.0046V48.7966ZM84.3963 48.7966H84.1766V49.4954H84.3963V48.7966ZM84.8006 48.7966H84.5816V49.4954H84.8006V48.7966ZM85.1713 48.7966H84.9523V49.4954H85.1713V48.7966ZM85.547 48.7966H85.328V49.4954H85.547V48.7966Z" fill="#7B7D83"/>
<path fill-rule="evenodd" clip-rule="evenodd" d="M112.074 48.5941L116.252 48.6189C117.72 48.6284 118.209 49.9108 118.209 50.8454V51.1864C118.209 52.4248 116.533 53.438 114.484 53.438H112.074V48.5941Z" fill="#55BFD1"/>
<path fill-rule="evenodd" clip-rule="evenodd" d="M79.1433 57.8941H122.767C123.138 57.8941 123.441 58.1208 123.441 58.3958V61.9662C123.441 62.2411 123.138 62.467 122.767 62.467H79.1433C78.7726 62.467 78.4692 62.2416 78.4692 61.9662V58.3958C78.4692 58.1201 78.772 57.8941 79.1433 57.8941Z" fill="#3F4348"/>
<path fill-rule="evenodd" clip-rule="evenodd" d="M123.441 60.1807V61.9662C123.441 62.2411 123.138 62.467 122.767 62.467H79.1433C78.7726 62.467 78.4692 62.2416 78.4692 61.9662V60.1807H123.441Z" fill="#2A2C2D"/>
<path fill-rule="evenodd" clip-rule="evenodd" d="M123.758 56.9004V58.9359C123.758 59.4005 123.379 59.7815 122.915 59.7815H120.283L119.166 58.4504C119.028 58.2856 118.795 58.2078 118.58 58.2078H112.074V49.9476H120.884C122.465 49.9476 123.758 51.2439 123.758 52.829V56.9004Z" fill="#55BFD1"/>
<path fill-rule="evenodd" clip-rule="evenodd" d="M123.758 56.9004V58.9359C123.758 59.4005 123.379 59.7815 122.915 59.7815H120.283L119.166 58.4504C119.028 58.2856 118.795 58.2078 118.58 58.2078H112.074V54.8641H123.758V56.9004Z" fill="#2E858A"/>
<path fill-rule="evenodd" clip-rule="evenodd" d="M121.938 50.3378H123.27C123.517 50.3378 123.719 50.5408 123.719 50.7889V51.2503C123.719 51.4978 123.517 51.7009 123.27 51.7009H121.938C121.691 51.7009 121.489 51.4978 121.489 51.2503V50.7889C121.489 50.5408 121.691 50.3378 121.938 50.3378Z" fill="#55BFD1"/>
<path fill-rule="evenodd" clip-rule="evenodd" d="M118.291 51.2935H121.649C121.847 51.2935 122.009 51.4551 122.009 51.6537V54.8481C122.009 55.0459 121.844 55.2425 121.649 55.2082L118.291 54.6164C118.097 54.5821 117.932 54.454 117.932 54.2554V51.6537C117.932 51.4551 118.093 51.2935 118.291 51.2935ZM122.899 51.6223H123.492C123.668 52.0002 123.758 52.4121 123.758 52.8289V55.0969L122.899 54.9447C122.704 54.9109 122.54 54.7832 122.54 54.5846V51.9818C122.54 51.7847 122.701 51.6223 122.899 51.6223Z" fill="#EEF8F9"/>
<path fill-rule="evenodd" clip-rule="evenodd" d="M79.0752 52.8005H110.445V57.8701H79.0752V52.8005Z" fill="#FAFDFC"/>
<path fill-rule="evenodd" clip-rule="evenodd" d="M110.445 55.3357V57.8701H79.0752V55.3357H110.445Z" fill="#BABABB"/>
<path d="M113.424 64.8027H103.958L101.677 62.5152L101.681 62.4669H111.085L113.424 64.8027Z" fill="url(#paint2_linear_37:6981)"/>
<path d="M108.796 60.1807H101.896L101.899 60.155L103.732 58.8848L106.629 58.7812L108.692 60.0774L108.796 60.1807Z" fill="url(#paint3_linear_37:6981)"/>
<path d="M111.085 62.467H101.682L101.896 60.1807H108.796L111.085 62.467Z" fill="url(#paint4_linear_37:6981)"/>
<path fill-rule="evenodd" clip-rule="evenodd" d="M105.183 59.3143C106.694 59.3143 107.92 60.5425 107.92 62.0583C107.92 63.5741 106.694 64.8027 105.183 64.8027C103.671 64.8027 102.445 63.5741 102.445 62.0583C102.445 60.5425 103.671 59.3143 105.183 59.3143Z" fill="#2A2C2D"/>
<path fill-rule="evenodd" clip-rule="evenodd" d="M105.183 60.9779C105.778 60.9779 106.26 61.462 106.26 62.0584C106.26 62.6552 105.778 63.1389 105.183 63.1389C104.588 63.1389 104.104 62.6552 104.104 62.0584C104.104 61.462 104.588 60.9779 105.183 60.9779Z" fill="#4D565D"/>
<path fill-rule="evenodd" clip-rule="evenodd" d="M101.659 62.5087V60.1764L101.676 60.0631L101.762 59.9913L103.482 58.5513L103.564 58.4832H106.802L106.884 58.5513L108.604 59.9913L108.69 60.0631L108.707 60.1764V62.5087L108.123 62.592L108.139 60.3726L106.587 59.073H103.779L102.227 60.3726L102.243 62.592L101.659 62.5087Z" fill="#4D565D"/>
<path d="M92.4773 64.8027H83.0122L80.731 62.5152L80.7354 62.4669H90.1383L92.4773 64.8027Z" fill="url(#paint5_linear_37:6981)"/>
<path d="M87.8492 60.1807H80.9497L80.9522 60.155L82.7854 58.8848L85.6823 58.7812L87.7458 60.0774L87.8492 60.1807Z" fill="url(#paint6_linear_37:6981)"/>
<path d="M90.1383 62.467H80.7354L80.9499 60.1807H87.8494L90.1383 62.467Z" fill="url(#paint7_linear_37:6981)"/>
<path fill-rule="evenodd" clip-rule="evenodd" d="M84.2361 59.3143C85.7481 59.3143 86.9737 60.5425 86.9737 62.0583C86.9737 63.5741 85.7481 64.8027 84.2361 64.8027C82.7242 64.8027 81.4985 63.5741 81.4985 62.0583C81.4985 60.5425 82.7242 59.3143 84.2361 59.3143Z" fill="#2A2C2D"/>
<path fill-rule="evenodd" clip-rule="evenodd" d="M84.236 60.9779C84.8314 60.9779 85.3137 61.462 85.3137 62.0584C85.3137 62.6552 84.8314 63.1389 84.236 63.1389C83.6406 63.1389 83.1582 62.6552 83.1582 62.0584C83.1582 61.462 83.6406 60.9779 84.236 60.9779Z" fill="#4D565D"/>
<path fill-rule="evenodd" clip-rule="evenodd" d="M80.7129 62.5087V60.1764L80.7294 60.0631L80.8151 59.9913L82.5358 58.5513L82.6171 58.4832H85.8555L85.9367 58.5513L87.6568 59.9913L87.7432 60.0631L87.7597 60.1764V62.5087L87.1763 62.592L87.1929 60.3726L85.6403 59.073H82.8323L81.2797 60.3726L81.2962 62.592L80.7129 62.5087Z" fill="#4D565D"/>
<path d="M125.454 64.8027H115.988L113.707 62.5152L113.711 62.4669H122.767C122.873 62.4669 122.974 62.4483 123.064 62.4153L125.454 64.8027Z" fill="url(#paint8_linear_37:6981)"/>
<path d="M120.826 60.1807H113.927L113.929 60.155L115.762 58.8848L118.659 58.7812L120.723 60.0774L120.826 60.1807Z" fill="url(#paint9_linear_37:6981)"/>
<path d="M122.767 62.467H113.711L113.927 60.1807H120.826L123.064 62.4154C122.974 62.4484 122.873 62.467 122.767 62.467Z" fill="url(#paint10_linear_37:6981)"/>
<path fill-rule="evenodd" clip-rule="evenodd" d="M117.213 59.3143C118.725 59.3143 119.951 60.5425 119.951 62.0583C119.951 63.5741 118.725 64.8027 117.213 64.8027C115.701 64.8027 114.476 63.5741 114.476 62.0583C114.476 60.5425 115.701 59.3143 117.213 59.3143Z" fill="#2A2C2D"/>
<path fill-rule="evenodd" clip-rule="evenodd" d="M117.213 60.9779C117.809 60.9779 118.29 61.462 118.29 62.0584C118.29 62.6552 117.809 63.1389 117.213 63.1389C116.618 63.1389 116.135 62.6552 116.135 62.0584C116.135 61.462 116.618 60.9779 117.213 60.9779Z" fill="#4D565D"/>
<path fill-rule="evenodd" clip-rule="evenodd" d="M113.689 62.5087V60.1764L113.705 60.0631L113.792 59.9913L115.512 58.5513L115.594 58.4832H118.832L118.913 58.5513L120.634 59.9913L120.72 60.0631L120.736 60.1764V62.5087L120.153 62.592L120.169 60.3726L118.617 59.073H115.809L114.256 60.3726L114.273 62.592L113.689 62.5087Z" fill="#4D565D"/>
<path d="M78.1216 62.9966H60.7414L60.7344 62.9901L61.1577 61.7028L69.2582 56.9004L69.7279 56.5631H71.8244L78.1216 62.9966Z" fill="url(#paint11_linear_37:6981)"/>
<path d="M71.8245 56.563H69.728L70.9594 55.6798L71.8245 56.563Z" fill="url(#paint12_linear_37:6981)"/>
<path fill-rule="evenodd" clip-rule="evenodd" d="M64.3566 49.0398C63.5683 49.0398 63.0726 49.7291 63.0174 50.5784L62.5534 57.722L69.9169 57.7429L69.4326 50.5167C69.3755 49.6679 68.9724 49.0398 68.1847 49.0398H64.3566ZM64.1097 48.5098H68.3802C69.2847 48.5098 69.9626 49.295 70.0242 50.2483L70.5573 58.4563H61.9326L62.4652 50.2483C62.5178 49.2938 63.2053 48.5098 64.1097 48.5098Z" fill="#224855"/>
<path fill-rule="evenodd" clip-rule="evenodd" d="M62.4742 56.1779H70.0161C70.3519 56.1779 70.6261 56.4529 70.6261 56.7894V60.5833C70.6261 60.9199 70.3519 61.1956 70.0161 61.1956H62.4742C62.1385 61.1956 61.8643 60.9199 61.8643 60.5833V56.7894C61.8643 56.4529 62.1385 56.1779 62.4742 56.1779Z" fill="#1C3E4A"/>
<path fill-rule="evenodd" clip-rule="evenodd" d="M63.5454 56.7044H69.1564V61.6501H63.5454V56.7044Z" fill="#2A2C2D"/>
<path fill-rule="evenodd" clip-rule="evenodd" d="M64.8887 59.7587H67.8135V60.4077H64.8887V59.7587Z" fill="#34383B"/>
<path fill-rule="evenodd" clip-rule="evenodd" d="M61.5728 61.4844H71.1299V61.0478H61.5728V61.4844Z" fill="#222323"/>
<path fill-rule="evenodd" clip-rule="evenodd" d="M72.1098 51.3037H66.6777V55.9241H72.1098V51.3037Z" fill="#D4BB5F"/>
<path fill-rule="evenodd" clip-rule="evenodd" d="M72.1186 51.3037H66.6777V52.3223H72.1186V51.3037Z" fill="#BFA754"/>
<path fill-rule="evenodd" clip-rule="evenodd" d="M72.2445 51.231H66.5439V52.0498H72.2445V51.231Z" fill="#E4D77C"/>
<path fill-rule="evenodd" clip-rule="evenodd" d="M71.797 52.4269H69.9468V53.2688H71.797V52.4269Z" fill="#E2ECF5"/>
<path fill-rule="evenodd" clip-rule="evenodd" d="M70.2788 52.535H70.082V53.1611H70.2788V52.535ZM70.6304 52.535H70.433V53.1611H70.6304V52.535ZM70.9929 52.535H70.7961V53.1611H70.9929V52.535ZM71.3248 52.535H71.1281V53.1611H71.3248V52.535ZM71.6619 52.535H71.4651V53.1611H71.6619V52.535Z" fill="#7B7D83"/>
<path fill-rule="evenodd" clip-rule="evenodd" d="M66.3007 51.3037H60.8687V55.9241H66.3007V51.3037Z" fill="#D4BB5F"/>
<path fill-rule="evenodd" clip-rule="evenodd" d="M66.3096 51.3037H60.8687V52.3223H66.3096V51.3037Z" fill="#BFA754"/>
<path fill-rule="evenodd" clip-rule="evenodd" d="M66.4349 51.231H60.7344V52.0498H66.4349V51.231Z" fill="#E4D77C"/>
<path fill-rule="evenodd" clip-rule="evenodd" d="M65.9879 52.4269H64.1377V53.2688H65.9879V52.4269Z" fill="#E2ECF5"/>
<path fill-rule="evenodd" clip-rule="evenodd" d="M64.4697 52.535H64.2729V53.1611H64.4697V52.535ZM64.8207 52.535H64.624V53.1611H64.8207V52.535ZM65.1832 52.535H64.9864V53.1611H65.1832V52.535ZM65.5157 52.535H65.319V53.1611H65.5157V52.535ZM65.8528 52.535H65.656V53.1611H65.8528V52.535Z" fill="#7B7D83"/>
<path fill-rule="evenodd" clip-rule="evenodd" d="M63.8481 56.2817H64.7444V62.0229H63.8481V56.2817ZM67.9574 56.2817H68.853V62.0229H67.9574V56.2817Z" fill="#34383B"/>
<path fill-rule="evenodd" clip-rule="evenodd" d="M61.2687 59.536H61.8691C61.9602 59.5362 62.0474 59.5725 62.1118 59.637C62.1761 59.7015 62.2124 59.789 62.2125 59.8802V62.6523C62.2125 62.8417 62.0583 62.9966 61.8691 62.9966H61.2687C61.0802 62.9966 60.9253 62.8417 60.9253 62.6523V59.8802C60.9253 59.6906 61.0802 59.536 61.2687 59.536ZM62.6816 59.536H63.2814C63.3724 59.5362 63.4597 59.5725 63.524 59.637C63.5884 59.7015 63.6246 59.789 63.6248 59.8802V62.6523C63.6248 62.8417 63.4706 62.9966 63.2814 62.9966H62.6816C62.4924 62.9966 62.3376 62.8417 62.3376 62.6523V59.8802C62.3376 59.6906 62.4924 59.536 62.6816 59.536ZM69.4205 59.536H70.021C70.2095 59.536 70.3644 59.6906 70.3644 59.8802V62.6523C70.3644 62.8417 70.2095 62.9966 70.021 62.9966H69.4205C69.2314 62.9966 69.0771 62.8417 69.0771 62.6523V59.8802C69.0773 59.789 69.1135 59.7015 69.1779 59.637C69.2423 59.5725 69.3295 59.5362 69.4205 59.536ZM70.8328 59.536H71.4326C71.6224 59.536 71.7766 59.6906 71.7766 59.8802V62.6523C71.7766 62.8417 71.6224 62.9966 71.4326 62.9966H70.8328C70.6437 62.9966 70.4888 62.8417 70.4888 62.6523V59.8802C70.4888 59.6906 70.6437 59.536 70.8328 59.536Z" fill="#2A2C2D"/>
<path fill-rule="evenodd" clip-rule="evenodd" d="M64.8887 58.4768H67.8135V59.2144H64.8887V58.4768ZM64.8887 57.196H67.8135V57.9678H64.8887V57.196Z" fill="#34383B"/>
<path fill-rule="evenodd" clip-rule="evenodd" d="M63.8483 56.2815H64.7446L65.0905 56.9313L63.4814 56.9517L63.8483 56.2815ZM67.9576 56.2815H68.8532L69.1839 56.941L67.6478 56.9517L67.9576 56.2815Z" fill="#656D72"/>
<path fill-rule="evenodd" clip-rule="evenodd" d="M60.7778 56.1621H62.0619V57.4495H60.7778V56.1621Z" fill="#D4BB5F"/>
<path fill-rule="evenodd" clip-rule="evenodd" d="M60.7778 56.1623H62.0619V56.9075H60.7778V56.1623Z" fill="#BFA754"/>
<path fill-rule="evenodd" clip-rule="evenodd" d="M70.9448 56.1621H72.2295V57.4495H70.9448V56.1621Z" fill="#D4BB5F"/>
<path fill-rule="evenodd" clip-rule="evenodd" d="M70.9448 56.1623H72.2295V56.9075H70.9448V56.1623Z" fill="#BFA754"/>
<path fill-rule="evenodd" clip-rule="evenodd" d="M60.7778 55.9314H72.2296V56.7109H60.7778V55.9314Z" fill="#E4D77C"/>
<defs>
<linearGradient id="paint0_linear_37:6981" x1="38.2182" y1="53.9068" x2="49.7453" y2="103.71" gradientUnits="userSpaceOnUse">
<stop stop-color="#3B3B3C"/>
<stop offset="1" stop-color="#595A5C"/>
</linearGradient>
<linearGradient id="paint1_linear_37:6981" x1="38.2183" y1="53.9067" x2="49.7453" y2="103.71" gradientUnits="userSpaceOnUse">
<stop stop-color="#224954"/>
<stop offset="1" stop-color="#327283"/>
</linearGradient>
<linearGradient id="paint2_linear_37:6981" x1="106.896" y1="60.8354" x2="108.489" y2="67.7184" gradientUnits="userSpaceOnUse">
<stop stop-color="#3B3B3C"/>
<stop offset="1" stop-color="#595A5C"/>
</linearGradient>
<linearGradient id="paint3_linear_37:6981" x1="106.896" y1="60.8354" x2="108.489" y2="67.7184" gradientUnits="userSpaceOnUse">
<stop stop-color="#2A2C2E"/>
<stop offset="1" stop-color="#3F4348"/>
</linearGradient>
<linearGradient id="paint4_linear_37:6981" x1="106.896" y1="60.8355" x2="108.489" y2="67.7185" gradientUnits="userSpaceOnUse">
<stop stop-color="#1E1E1E"/>
<stop offset="1" stop-color="#2A2B2D"/>
</linearGradient>
<linearGradient id="paint5_linear_37:6981" x1="86.0152" y1="61.1092" x2="87.4856" y2="67.4624" gradientUnits="userSpaceOnUse">
<stop stop-color="#3B3B3C"/>
<stop offset="1" stop-color="#595A5C"/>
</linearGradient>
<linearGradient id="paint6_linear_37:6981" x1="86.0149" y1="61.1092" x2="87.4854" y2="67.4624" gradientUnits="userSpaceOnUse">
<stop stop-color="#2A2C2E"/>
<stop offset="1" stop-color="#3F4348"/>
</linearGradient>
<linearGradient id="paint7_linear_37:6981" x1="86.0151" y1="61.1093" x2="87.4856" y2="67.4625" gradientUnits="userSpaceOnUse">
<stop stop-color="#1E1E1E"/>
<stop offset="1" stop-color="#2A2B2D"/>
</linearGradient>
<linearGradient id="paint8_linear_37:6981" x1="118.931" y1="60.8443" x2="120.524" y2="67.7273" gradientUnits="userSpaceOnUse">
<stop stop-color="#3B3B3C"/>
<stop offset="1" stop-color="#595A5C"/>
</linearGradient>
<linearGradient id="paint9_linear_37:6981" x1="118.931" y1="60.8443" x2="120.524" y2="67.7274" gradientUnits="userSpaceOnUse">
<stop stop-color="#2A2C2E"/>
<stop offset="1" stop-color="#3F4348"/>
</linearGradient>
<linearGradient id="paint10_linear_37:6981" x1="118.931" y1="60.8444" x2="120.524" y2="67.7275" gradientUnits="userSpaceOnUse">
<stop stop-color="#1E1E1E"/>
<stop offset="1" stop-color="#2A2B2D"/>
</linearGradient>
<linearGradient id="paint11_linear_37:6981" x1="68.4789" y1="58.8483" x2="70.9128" y2="69.3642" gradientUnits="userSpaceOnUse">
<stop stop-color="#3B3B3C"/>
<stop offset="1" stop-color="#595A5C"/>
</linearGradient>
<linearGradient id="paint12_linear_37:6981" x1="68.4791" y1="58.8482" x2="70.913" y2="69.3641" gradientUnits="userSpaceOnUse">
<stop stop-color="#224954"/>
<stop offset="1" stop-color="#327283"/>
</linearGradient>
</defs>
</svg>
