<svg width="284" height="584" viewBox="0 0 284 584" fill="none" xmlns="http://www.w3.org/2000/svg">
<path d="M43.4517 378.398H85.0619L91.6731 322.165H38.1025L43.4517 378.398Z" fill="#E94E1B"/>
<path d="M37.2241 325.68H92.551V322.165H37.2241V325.68Z" fill="#D94919"/>
<path d="M92.8331 343.253L63.9422 328.386C62.712 327.756 62.3169 326.195 63.0868 325.057L63.1724 324.935C63.8527 323.928 65.2091 323.623 66.2561 324.245L94.3078 340.891L92.8331 343.253Z" fill="#3C3C3B"/>
<path d="M84.6474 378.398H43.0575L38.1025 325.68H39.0342C47.7116 351.156 64.2957 367.06 84.6474 378.398Z" fill="#D4491B"/>
<path d="M38.9807 325.68H38.3624L38.1025 322.165C38.3816 323.359 38.6743 324.532 38.9807 325.68Z" fill="#C64519"/>
<path d="M284 584H208.219L114.506 423.209H176.256L284 584Z" fill="#F39200"/>
<path d="M92.6296 410.029C92.6131 410.534 92.5513 411.022 92.5513 411.531C92.5513 437.875 114.176 459.233 140.85 459.233C167.529 459.233 189.154 437.875 189.154 411.531C189.154 411.022 189.092 410.534 189.076 410.029H92.6296Z" fill="#F9B233"/>
<path d="M185.922 210.818C186.638 210.974 187.416 210.802 188.009 210.284C188.993 209.416 189.088 207.92 188.223 206.937L25.2335 21.8944C24.3648 20.9078 22.8662 20.8132 21.8822 21.6806C20.8983 22.5439 20.8036 24.0403 21.6681 25.0228L184.658 210.07C185.004 210.461 185.449 210.711 185.922 210.818Z" fill="#575756"/>
<path d="M80.2563 378.398H124.154C125.271 373.782 125.41 369.175 124.154 364.579C118.35 359.023 110.776 356.683 101.491 357.454C98.7449 361.844 91.2575 365.721 85.9498 368.041C82.4894 369.554 80.2563 372.919 80.2563 376.643V378.398Z" fill="#3C3C3B"/>
<path d="M160.173 378.398H193.44C193.912 370.919 192.734 365.2 190.979 360.206C185.387 356.911 177.969 357.754 169.047 362.004L164.037 365.654C161.613 367.423 160.173 370.272 160.173 373.305V378.398Z" fill="#3C3C3B"/>
<path d="M118.897 229.63C118.897 229.63 119.673 229.672 121.055 229.713C126.192 229.921 139.809 230.457 152.811 230.909C167.363 231.449 181.144 231.86 181.226 231.569C183.954 223.855 183.343 210.823 180.775 199.559L141.848 188.258L140.786 187.926L127.784 186.855L121.138 220.596L120.284 223.897C120.038 224.972 119.792 226.043 119.509 227.073L119.304 228.065C119.14 228.601 119.021 229.095 118.897 229.63Z" fill="#006080"/>
<path d="M149.635 229.622C149.705 230.132 149.775 230.642 149.849 231.153C150.3 234.378 150.729 237.537 151.134 240.619C153.636 259.485 155.598 275.738 160.47 289.656L163.675 289.429L185.358 287.874C188.157 264.75 185.478 245.473 181.761 231.21V231.202C174.37 223.131 164.521 223.131 153.541 227.796V227.808C153.004 228.022 152.468 228.256 151.931 228.507C151.171 228.861 150.407 229.231 149.635 229.622Z" fill="#006080"/>
<path d="M160.173 290.38C163.152 311.271 163.852 334.176 167.494 354.594C167.971 357.228 168.494 359.821 169.074 362.369C172.531 363.026 175.7 362.048 178.844 361.07C182.782 359.846 186.683 358.621 191.078 360.602C195.42 336.76 194.412 298.64 184.976 288.601C177.453 280.387 173.416 283.35 163.272 288.753C162.296 289.275 161.263 289.822 160.173 290.38Z" fill="#006080"/>
<path d="M109.237 280.531L113.114 281.763L127.477 286.222L132.948 287.898C133.273 287.244 133.601 286.63 133.967 285.975C141.68 271.081 147.558 254.346 150.782 240.93C151.554 237.615 152.207 234.465 152.659 231.64L152.778 230.862C152.901 230.207 152.983 229.552 153.065 228.897L153.148 228.082C150.494 221.127 144.251 219.364 136.661 219.364C133.519 219.364 130.172 219.653 126.701 220.019C125.966 220.101 125.235 220.184 124.5 220.266C123.358 220.39 122.212 220.513 121.07 220.633H120.947C120.705 221.74 120.458 222.844 120.216 223.906C119.969 224.973 119.723 226.035 119.44 227.057L119.234 228.041C119.07 228.572 118.951 229.062 118.828 229.593C116.951 237.285 115.156 244.488 113.644 251.36L113.562 251.566C111.361 261.424 109.726 270.591 109.319 279.304C109.278 279.716 109.237 280.124 109.237 280.531Z" fill="#006080"/>
<path d="M102.22 357.087C109.364 360.169 117.653 359.195 124.494 364.34C124.74 363.736 124.986 363.119 125.216 362.478C133.933 339.511 140.314 297.004 133.772 286.254V286.241C132.549 284.121 131.375 282.436 130.164 281.134C126.217 276.868 121.911 276.654 114.546 278.327C113.02 278.668 111.353 279.095 109.541 279.593L109.481 279.605C107.806 303.378 101.95 334.272 102.22 357.087Z" fill="#006080"/>
<path d="M160.227 289.656C155.159 275.841 153.113 259.706 150.513 240.985C150.517 240.976 150.517 240.968 150.521 240.96C151.329 237.671 152.013 234.545 152.486 231.742L152.61 230.97C152.739 230.325 152.825 229.675 152.911 229.029L169.833 230.194C169.042 230.925 168.294 231.726 167.615 232.6C160.179 242.084 159.161 260.196 163.274 285.235L163.463 288.038C162.445 288.556 161.366 289.1 160.227 289.656Z" fill="#035570"/>
<path d="M167.198 354.675C163.703 334.239 163.032 311.315 160.173 290.406C161.219 289.846 162.211 289.299 163.147 288.777L163.237 290.179L167.198 354.675Z" fill="#035570"/>
<path d="M133.995 286.141V286.129C132.748 284.005 131.549 282.318 130.314 281.013C138.422 264.91 144.006 247.226 140.765 231.106C140.563 230.122 140.337 229.126 140.065 228.151L151.64 228.994L153.139 229.101H153.147C153.065 229.752 152.983 230.406 152.859 231.056L152.74 231.834C152.287 234.657 151.632 237.806 150.858 241.118C150.854 241.127 150.854 241.135 150.85 241.143C150.85 241.131 150.845 241.123 150.845 241.11C147.617 254.547 141.724 271.256 133.995 286.129V286.141Z" fill="#035570"/>
<path d="M125.045 362.583C131.532 334.203 133.601 306.252 126.971 286.772L127.266 286.24C128.225 284.477 129.159 282.677 130.069 280.869C131.298 282.178 132.491 283.87 133.732 286V286.013C135.638 289.113 136.466 294.842 136.462 301.984C136.457 319.714 131.356 346.137 125.045 362.583Z" fill="#035570"/>
<path d="M180.372 196.52C189.534 195.734 199.576 192.787 210.35 188.049C212.612 187.061 214.907 185.991 217.231 184.846C219.496 183.721 221.012 181.505 221.216 179.013C222.782 160.431 219.954 144.284 214.79 128.864L202.853 145.003L202.624 145.524L180.372 196.52Z" fill="#006080"/>
<path d="M183.885 195.641C185.012 194.023 186.139 192.356 187.258 190.648C196.228 176.994 204.658 160.893 209.791 147.316L202.266 180.32L210.231 187.703C200.866 191.748 192.051 194.473 183.885 195.641Z" fill="#035570"/>
<path d="M84.6434 89.414C85.4754 88.7667 86.1055 87.6989 87.1558 87.5794C88.0825 87.4722 88.8857 88.1689 89.557 88.8162C91.8923 91.0713 94.2276 93.3265 96.5671 95.5775C97.2261 96.2166 97.9427 97.004 97.8027 97.911C97.6832 98.7067 96.9501 99.2427 96.2788 99.6879C95.4468 100.236 94.5406 100.805 93.548 100.743C92.7037 100.694 91.9624 100.195 91.2663 99.7127C88.4697 97.775 85.6648 95.8332 83.0659 93.6316C82.5881 93.2276 82.0815 92.7534 82.0198 92.1268C81.9497 91.4671 82.411 90.857 82.9506 90.4653C83.486 90.0736 84.1162 89.8221 84.6434 89.414Z" fill="#EDBB86"/>
<path d="M92.6327 102.05C89.9393 102.07 89.4965 101.832 87.8772 100.074C85.11 97.0778 84.3066 96.0612 81.5353 92.7603C80.781 95.1639 79.1576 96.6209 79.4035 99.1275C79.6577 101.712 80.9613 104.058 82.2322 106.318C83.667 108.862 85.1306 111.438 87.2132 113.475C89.6114 115.817 92.6942 117.299 95.7156 118.744C96.2567 119.003 96.8347 119.266 97.4291 119.184C98.081 119.089 98.5935 118.591 99.0116 118.085C101.307 115.295 102.033 111.52 102.185 107.903C102.275 105.836 102.18 103.688 101.27 101.832C99.1755 97.5594 93.7724 95.1474 91.202 91.1468C90.7387 90.4265 90.2878 89.5581 89.4597 89.3605C88.7013 89.1836 87.9059 89.7022 87.578 90.406C87.25 91.1139 87.3197 91.9453 87.5575 92.6862C88.0576 94.2585 89.2424 95.4973 90.2714 96.7856C91.2963 98.078 92.7762 100.403 92.6327 102.05Z" fill="#FFC990"/>
<path d="M172.468 106.876L192.69 114.806L199.692 94.6484L182.789 85.8111L172.468 106.876Z" fill="#FFC990"/>
<path d="M165.495 93.7072C165.682 95.5201 166.513 97.1622 168.355 98.0726L172.402 100.003C173.763 100.528 175.501 100.788 177.384 100.743H177.397C182.557 100.556 188.851 97.9791 191.789 92.0163L192.004 92.1139L192.066 92.1423C195.062 93.5284 198.174 98.7474 199.962 96.0932C201.94 93.1626 207.824 90.4149 210.377 86.5251C219.614 68.1205 207.642 63.1698 200.802 59.601C195.153 56.9631 188.45 56.7924 182.553 60.8123C180.802 61.9992 179.114 63.5641 177.546 65.5517C176.735 66.58 175.977 67.6977 175.224 68.9456C175.005 70.3397 174.959 71.5795 174.959 71.5795L174.02 72.307L169.832 75.5425C168.798 76.4083 168.814 77.9894 169.853 78.8714L171.355 80.2696C170.726 81.4931 166.596 88.0371 166.596 88.0371C165.798 89.6467 165.268 91.7765 165.495 93.7072Z" fill="#FFC990"/>
<path d="M194.477 74.0209C193.162 77.5389 190.518 81.9797 187.767 87.8623C189.52 88.9663 189.52 88.9663 191.478 90.0786C193.039 89.4195 197.657 86.7665 198.229 86.4328C197.187 87.2032 184.416 97.0075 197.567 100.748C200.579 98.6141 202.924 96.8345 204.861 95.2156C206.704 93.6543 208.135 92.2578 209.283 91.0055C212.091 87.9035 212.994 85.506 214.293 82.4411C218.319 72.8633 211.604 65.5718 204.016 58.5028C199.422 54.2474 189.01 55.4338 183.006 60.9662C191.216 63.3514 194.608 65.7036 195.233 68.9045C195.528 70.3957 195.197 72.0848 194.477 74.0209Z" fill="#131313"/>
<path d="M199.626 88.4598C198.047 91.4946 193.741 93.6269 191.82 92.5629C189.895 91.4946 191.389 89.1487 192.939 86.092C193.96 84.0732 194.957 80.9424 197.397 81.4787C199.529 81.9453 201.943 83.9991 199.626 88.4598Z" fill="#FFC990"/>
<path d="M174.225 72.6315L174.986 71.8417C174.986 71.8417 175.006 71.0474 175.103 69.9956C175.009 71.0518 174.986 71.8504 174.986 71.8504L174.228 72.6315H174.225Z" fill="#E6E6E6"/>
<path d="M192.179 78.782C186.005 77.0003 179.898 75.0698 174.225 72.2866H174.229L175.183 71.5668C175.183 71.5668 175.212 70.8308 175.33 69.8575C175.364 69.576 175.406 69.2783 175.456 68.9686C176.213 67.7299 176.99 66.6159 177.814 65.6024C178.331 65.892 178.852 66.1654 179.402 66.467C182.609 68.1723 192.116 72.6888 192.591 72.9141L192.604 72.9181L194.423 74.2494C193.843 75.6128 193.074 77.1129 192.179 78.782Z" fill="#E6B582"/>
<path d="M205.84 83.1752C201.221 81.6671 196.488 80.3803 191.789 79.0074C192.686 77.3067 193.457 75.7781 194.039 74.3888L204.9 82.4662L204.892 82.6179L205.309 82.7736L205.84 83.1752Z" fill="#121211"/>
<path d="M174.685 100.748C173.819 100.631 173.02 100.439 172.319 100.178L168.29 98.322C166.456 97.4469 165.628 95.8686 165.442 94.1262C166.514 94.849 167.746 95.3607 169.019 95.6615C170.276 95.9662 171.57 96.0834 172.872 96.0834C173.597 96.0834 174.326 96.0483 175.051 95.9819C177.075 95.8061 179.106 95.4467 180.956 94.6614C182.823 93.8918 184.52 92.6925 185.641 91.0829C184.594 93.0128 183.548 94.9662 182.192 96.7124C181.446 97.6813 180.602 98.5876 179.65 99.365C178.842 99.1502 178.092 98.9822 177.4 98.9822C176.481 98.9822 175.674 99.2791 175.002 100.15L174.685 100.748Z" fill="#E6B582"/>
<path d="M129.713 175.223C128.853 179.623 128.138 183.543 127.68 186.742L127.721 186.767C130.585 187.992 133.432 189.156 136.275 190.25C137.131 190.571 137.991 190.884 138.834 191.192C153.248 196.469 167.378 199.627 181.123 200.034C183.268 197.086 185.429 193.923 187.557 190.604C200.902 169.868 213.039 143.539 214.622 128.758C211.242 124.769 205.456 119.825 196.504 112.258L196.926 105.834C195.145 103.605 189.301 102.071 180.176 99.4431C178.205 98.8755 176.552 98.5712 175.341 100.22L172.812 105.209C159.91 103.062 154.984 103.708 146.181 104.892C145.409 108.121 142.173 120.87 138.573 135.832C138.015 138.172 137.429 140.57 136.867 142.98C134.238 154.092 131.589 165.743 129.713 175.223Z" fill="#006080"/>
<path d="M0 32.7845L6.58868 40.4175L44.7885 7.62894L38.1999 4.19617e-05L0 32.7845Z" fill="#575756"/>
<path d="M0 32.9016L1.94254 35.1456L40.3974 2.24401L38.455 0L0 32.9016Z" fill="#3C3C3B"/>
<path d="M92.5513 118.461C93.1471 132.908 97.3875 144.392 105.494 156.102C115.96 156.065 126.454 151.06 136.965 143.356C140.108 141.049 143.268 138.503 146.432 135.776C146.913 135.346 147.393 134.93 147.878 134.501L147.759 132.355L147.521 128.22L146.226 105.141C135.145 112.886 124.774 121.061 116.194 130.329L102.446 112.325C98.6161 113.299 95.3495 115.408 92.5513 118.461Z" fill="#006080"/>
<path d="M127.712 186.855H127.68C127.943 186.028 128.231 185.146 128.558 184.219C128.239 185.146 127.959 186.028 127.712 186.855Z" fill="#DCDCDC"/>
<path d="M120.654 220.243L127.573 186.855H127.59C127.59 186.863 127.59 186.867 127.59 186.871L127.633 186.896C130.592 188.12 133.535 189.283 136.474 190.376C137.349 190.692 138.229 191 139.096 191.308C136.166 194.919 131.208 202.803 124.22 219.877C123.033 220.001 121.841 220.124 120.654 220.243Z" fill="#035570"/>
<path d="M113.628 250.995C115.096 244.198 116.838 237.075 118.66 229.468C118.78 228.942 118.896 228.458 119.055 227.932L119.254 226.959C119.53 225.949 119.769 224.898 120.008 223.843C120.243 222.793 120.483 221.701 120.718 220.606H120.837C121.946 220.487 123.058 220.365 124.167 220.243C123.058 223.114 121.91 226.193 120.758 229.549C118.541 235.699 116.164 242.822 113.628 250.995Z" fill="#035570"/>
<path d="M133.827 156.981C134.121 155.771 134.419 154.556 134.718 153.338L134.722 153.342C134.419 154.561 134.121 155.775 133.827 156.981ZM136.16 147.571L136.155 147.563C136.544 146.015 136.933 144.467 137.326 142.935C137.331 142.931 137.335 142.927 137.34 142.923C136.947 144.467 136.553 146.015 136.16 147.571Z" fill="#DCDCDC"/>
<path d="M134.708 153.466L134.705 153.462C134.994 151.708 135.286 149.949 135.581 148.194L135.583 148.202C135.289 149.957 134.997 151.715 134.708 153.466Z" fill="#4D4D4C"/>
<path d="M105.724 156.102C97.4985 144.371 93.1744 132.848 92.5513 118.321L92.5638 118.342C93.1744 132.831 97.4859 144.351 105.724 156.102Z" fill="#DCDCDC"/>
<path d="M138.645 191.248C137.818 190.942 136.98 190.635 136.145 190.321C133.345 189.235 130.541 188.079 127.72 186.862L127.68 186.837C127.68 186.833 127.68 186.829 127.68 186.821C127.806 185.947 127.948 185.016 128.111 184.036C128.538 181.467 129.072 178.56 129.686 175.42C130.777 169.894 132.12 163.618 133.565 157.141C133.83 155.961 134.098 154.773 134.371 153.58C134.798 151.702 135.23 149.815 135.665 147.932C136.019 146.409 136.373 144.894 136.728 143.383C139.841 141.1 142.971 138.581 146.105 135.882C146.105 135.877 146.109 135.873 146.113 135.873C146.109 135.882 146.105 135.89 146.101 135.898C138.946 155.091 137.489 173.027 141.616 188.201L141.656 188.283C141.656 188.283 140.651 188.667 138.645 191.248ZM147.42 132.533V132.496L147.184 128.404C147.188 128.4 147.192 128.396 147.196 128.392C148.246 127.42 149.377 126.403 150.513 125.35C149.418 127.702 148.368 130.099 147.436 132.492C147.432 132.504 147.428 132.517 147.42 132.533Z" fill="#035570"/>
<path d="M105.51 156.102C97.3979 144.344 93.1525 132.818 92.5513 118.321L108.211 150.913C121.137 149.181 128.788 144.655 138.774 136.13C141.471 133.743 144.411 131.111 147.639 128.11L147.878 132.263V132.3C147.401 133.428 146.956 134.559 146.556 135.691C146.552 135.691 146.548 135.695 146.548 135.699C143.377 138.438 140.211 140.995 137.061 143.312C137.057 143.316 137.052 143.321 137.048 143.325C137.048 143.312 137.052 143.304 137.052 143.296C126.54 151.034 116.027 156.061 105.51 156.102Z" fill="#035570"/>
<path d="M192.667 69.7143L193.225 70.7618L194.597 73.3804L194.805 73.7598L194.866 73.8588L194.906 73.867L196.54 77.0053L204.946 94.5975C206.782 93.0345 208.208 91.6366 209.352 90.3829L209.161 90.1313L205.117 82.6714L203.476 79.5744L201.806 76.4279L196.955 67.3596L195.35 68.2586L194.031 68.972L192.667 69.7143Z" fill="#EDEDED"/>
<path d="M213.934 86.6898L213.971 86.6373C220.679 76.5762 219.788 64.3762 207.567 56.5105C197.325 49.9201 184.87 50.8119 176.892 62.7698L176.859 62.8264L213.934 86.6898Z" fill="#E94E1B"/>
<path d="M214.544 89.3257L171.59 60.5575L173.424 57.6946L216.378 86.4627L214.544 89.3257Z" fill="#C44217"/>
<path d="M193.545 63.3873L188.682 60.3306L184.763 66.0603L189.63 69.117L193.545 63.3873Z" fill="#C44217"/>
<path d="M211.109 74.8095L206.242 71.7528L202.327 77.4826L207.195 80.5392L211.109 74.8095Z" fill="#C44217"/>
<path d="M100.455 395.971H92.5513V204.427H100.455V395.971Z" fill="#F9B233"/>
<path d="M189.154 395.971H181.25V204.427H189.154V395.971Z" fill="#F9B233"/>
<path d="M250.628 246.602H34.5898V240.452H250.628V246.602Z" fill="#F9B233"/>
<path d="M250.628 286.141H34.5898V279.991H250.628V286.141Z" fill="#F9B233"/>
<path d="M255.854 210.578H26.73C23.3082 210.578 20.5386 207.823 20.5386 204.428C20.5386 201.032 23.3082 198.277 26.73 198.277H255.854C259.275 198.277 262.045 201.032 262.045 204.428C262.045 207.823 259.275 210.578 255.854 210.578Z" fill="#F39200"/>
<path d="M235.244 410.908H46.4653C37.4796 410.908 30.1987 403.622 30.1987 394.639V204.428H38.435V402.671H243.27V204.428H251.506V394.639C251.506 403.622 244.226 410.908 235.244 410.908Z" fill="#F39200"/>
<path d="M231.702 407.393H50.8818C41.882 407.393 34.5898 399.977 34.5898 390.833V378.398H247.994V390.833C247.994 399.977 240.701 407.393 231.702 407.393Z" fill="#F39200"/>
<path d="M111.043 410.029L110.994 410.965C110.994 427.432 124.56 440.782 141.29 440.782C158.023 440.782 171.59 427.432 171.59 410.965L171.54 410.029H111.043Z" fill="#F39200"/>
</svg>
