<svg width="123" height="120" viewBox="0 0 123 120" fill="none" xmlns="http://www.w3.org/2000/svg">
<path d="M35.2609 29.2511H3.4126V3.19208H35.2609V29.2511Z" fill="#B37B43"/>
<path d="M35.2609 3.72668H3.4126V3.19201H35.2609V3.72668Z" fill="#A56F3F"/>
<path d="M17.7043 28.2488H4.59326V4.19455H17.7043V28.2488Z" fill="#A1D3E5"/>
<path d="M17.7043 13.4109L4.59326 16.3893V4.19454H17.7043V13.4109Z" fill="#80C5D8"/>
<path d="M34.0798 28.2488H20.9688V4.19455H34.0798V28.2488Z" fill="#A1D3E5"/>
<path d="M34.0798 9.72186L20.9688 12.7002V4.1946H34.0798V9.72186Z" fill="#80C5D8"/>
<path d="M34.0797 28.2488H33.8548V4.43935H20.9687V4.19455H34.0797V28.2488ZM17.7043 28.2488H17.4793V4.43935H4.59326V4.19455H17.7043V28.2488Z" fill="#7BB8C9"/>
<path d="M19.9561 29.2511H18.7168V3.52763H19.9561V29.2511Z" fill="#C4834D"/>
<path d="M18.2051 29.2511H18.7172V3.19208H18.2051V29.2511ZM34.7487 29.2511H35.2611V3.19208H34.7487V29.2511Z" fill="#A56F3F"/>
<path d="M38.6729 0.278526H0V3.19197H38.6729V0.278526ZM38.6729 29.251H0V32.1644H38.6729V29.251Z" fill="#D1C6B6"/>
<path d="M70.4669 30.7079H50.9824V1.00699H70.4669V30.7079Z" fill="#82593D"/>
<path d="M68.2642 30.7079H69.8305L70.3097 30.4004V1.3145L69.8305 1.00699H68.2642V30.7079Z" fill="#775239"/>
<path d="M51.1824 30.4004L42.6191 31.7136V0.00131607L51.1824 1.31452V30.4004Z" fill="#D2D685"/>
<path d="M42.1631 31.4969L42.6192 31.7136V0.00131607L42.1631 0.27857V31.4969Z" fill="#B8C667"/>
<path d="M79.3291 31.4969L78.873 31.7136V0.00131607L79.3291 0.27857V31.4969Z" fill="#E2DF8F"/>
<path d="M69.7476 29.9647H51.7017V1.75032H69.7476V29.9647Z" fill="#966645"/>
<path d="M60.5239 30.1288H60.7248V1.58607H60.5239V30.1288Z" fill="#82593D"/>
<path d="M60.1669 29.6522H52.0322V2.06291H60.1669V29.6522ZM69.4165 29.6522H61.2818V2.06291H69.4165V29.6522Z" fill="#B1D4DD"/>
<path d="M60.1669 10.0814L52.0322 12.0521V2.06287H60.1669V10.0814ZM69.4165 7.98521L61.2818 9.79339V2.06287H69.4165V7.98521Z" fill="#96CAD6"/>
<path d="M70.8629 0.278637H50.5864V1.00708H70.8629V0.278637Z" fill="#B8C667"/>
<path d="M70.4668 30.7054H50.9824L50.3384 31.0309H71.1108L70.4668 30.7054Z" fill="#CCD381"/>
<path d="M71.1112 32.1644H50.3387V31.0308H71.1112V32.1644ZM50.8347 2.31859L43.3374 1.25209V0.883776L50.8347 1.97706V2.31859Z" fill="#B8C667"/>
<path d="M50.6538 2.15833L43.3374 1.10725V0.883874L50.8347 1.97716L50.6538 2.15833Z" fill="#AAB25B"/>
<path d="M50.8347 2.92773L43.3374 1.90911V1.5408L50.8347 2.5862V2.92773Z" fill="#B8C667"/>
<path d="M50.6538 2.76855L43.3374 1.76412V1.54073L50.8347 2.58613L50.6538 2.76855Z" fill="#AAB25B"/>
<path d="M50.8347 3.53674L43.3374 2.56601V2.1977L50.8347 3.19521V3.53674Z" fill="#B8C667"/>
<path d="M50.6538 3.37854L43.3374 2.42104V2.19766L50.8347 3.19517L50.6538 3.37854Z" fill="#AAB25B"/>
<path d="M50.8347 4.14575L43.3374 3.22292V2.8546L50.8347 3.80422V4.14575Z" fill="#B8C667"/>
<path d="M50.6538 3.98889L43.3374 3.07803V2.85464L50.8347 3.80427L50.6538 3.98889Z" fill="#AAB25B"/>
<path d="M50.8347 4.75439L43.3374 3.87976V3.51145L50.8347 4.41286V4.75439Z" fill="#B8C667"/>
<path d="M50.6538 4.59888L43.3374 3.73496V3.51157L50.8347 4.41299L50.6538 4.59888Z" fill="#AAB25B"/>
<path d="M50.8347 5.36353L43.3374 4.53679V4.16847L50.8347 5.02199V5.36353Z" fill="#B8C667"/>
<path d="M50.6538 5.20911L43.3374 4.39182V4.16844L50.8347 5.02196L50.6538 5.20911Z" fill="#AAB25B"/>
<path d="M50.8347 5.97253L43.3374 5.19399V4.82536L50.8347 5.631V5.97253Z" fill="#B8C667"/>
<path d="M50.6538 5.81909L43.3374 5.04875V4.82536L50.8347 5.631L50.6538 5.81909Z" fill="#AAB25B"/>
<path d="M50.8347 6.58167L43.3374 5.85102V5.48271L50.8347 6.24014V6.58167Z" fill="#B8C667"/>
<path d="M50.6538 6.42932L43.3374 5.70592V5.48254L50.8347 6.23996L50.6538 6.42932Z" fill="#AAB25B"/>
<path d="M50.8347 7.19055L43.3374 6.5078V6.13948L50.8347 6.84901V7.19055Z" fill="#B8C667"/>
<path d="M50.6538 7.03931L43.3374 6.36285V6.13947L50.8347 6.849L50.6538 7.03931Z" fill="#AAB25B"/>
<path d="M50.8347 7.79968L43.3374 7.16481V6.7965L50.8347 7.45815V7.79968Z" fill="#B8C667"/>
<path d="M50.6538 7.64966L43.3374 7.01984V6.79645L50.8347 7.45809L50.6538 7.64966Z" fill="#AAB25B"/>
<path d="M50.8347 8.40857L43.3374 7.8216V7.45329L50.8347 8.06704V8.40857Z" fill="#B8C667"/>
<path d="M50.6538 8.25964L43.3374 7.67677V7.45339L50.8347 8.06714L50.6538 8.25964Z" fill="#AAB25B"/>
<path d="M50.8347 9.0177L43.3374 8.47862V8.1103L50.8347 8.67616V9.0177Z" fill="#B8C667"/>
<path d="M50.6538 8.86987L43.3374 8.33363V8.11024L50.8347 8.6761L50.6538 8.86987Z" fill="#AAB25B"/>
<path d="M50.8347 9.62646L43.3374 9.1359V8.76727L50.8347 9.28524V9.62646Z" fill="#B8C667"/>
<path d="M50.6538 9.48022L43.3374 8.99061V8.76723L50.8347 9.2852L50.6538 9.48022Z" fill="#AAB25B"/>
<path d="M50.8347 10.2357L43.3374 9.79273V9.42441L50.8347 9.89419V10.2357Z" fill="#B8C667"/>
<path d="M50.6538 10.0902L43.3374 9.64785V9.42447L50.8347 9.89424L50.6538 10.0902Z" fill="#AAB25B"/>
<path d="M50.8347 10.8445L43.3374 10.4497V10.0814L50.8347 10.5029V10.8445Z" fill="#B8C667"/>
<path d="M50.6538 10.7004L43.3374 10.3047V10.0813L50.8347 10.5029L50.6538 10.7004Z" fill="#AAB25B"/>
<path d="M50.8347 11.4535L43.3374 11.1066V10.7383L50.8347 11.112V11.4535Z" fill="#B8C667"/>
<path d="M50.6538 11.3104L43.3374 10.9616V10.7383L50.8347 11.1119L50.6538 11.3104Z" fill="#AAB25B"/>
<path d="M50.8347 12.0625L43.3374 11.7635V11.3952L50.8347 11.721V12.0625Z" fill="#B8C667"/>
<path d="M50.6538 11.9207L43.3374 11.6185V11.3951L50.8347 11.7209L50.6538 11.9207Z" fill="#AAB25B"/>
<path d="M50.8347 12.6715L43.3374 12.4204V12.0521L50.8347 12.33V12.6715Z" fill="#B8C667"/>
<path d="M50.6538 12.5306L43.3374 12.2754V12.0521L50.8347 12.3299L50.6538 12.5306Z" fill="#AAB25B"/>
<path d="M50.8347 13.2806L43.3374 13.0774V12.7091L50.8347 12.9391V13.2806Z" fill="#B8C667"/>
<path d="M50.6538 13.141L43.3374 12.9324V12.709L50.8347 12.939L50.6538 13.141Z" fill="#AAB25B"/>
<path d="M50.8347 13.8895L43.3374 13.7345V13.3659L50.8347 13.548V13.8895Z" fill="#B8C667"/>
<path d="M50.6538 13.751L43.3374 13.5894V13.366L50.8347 13.5481L50.6538 13.751Z" fill="#AAB25B"/>
<path d="M50.8347 14.4987L43.3374 14.3915V14.0232L50.8347 14.1571V14.4987Z" fill="#B8C667"/>
<path d="M50.6538 14.3612L43.3374 14.2465V14.0231L50.8347 14.157L50.6538 14.3612Z" fill="#AAB25B"/>
<path d="M50.8347 15.1073L43.3374 15.0484V14.6798L50.8347 14.7658V15.1073Z" fill="#B8C667"/>
<path d="M50.6538 14.9712L43.3374 14.9035V14.6798L50.8347 14.7658L50.6538 14.9712Z" fill="#AAB25B"/>
<path d="M50.8347 15.7163L43.3374 15.7053V15.337L50.8347 15.3748V15.7163Z" fill="#B8C667"/>
<path d="M50.6538 15.5814L43.3374 15.5603V15.3369L50.8347 15.3747L50.6538 15.5814Z" fill="#AAB25B"/>
<path d="M50.8347 16.3254L43.3374 16.3623V15.994L50.8347 15.9839V16.3254Z" fill="#B8C667"/>
<path d="M50.6538 16.1918L43.3374 16.2173V15.9939L50.8347 15.9838L50.6538 16.1918Z" fill="#AAB25B"/>
<path d="M50.8347 16.9344L43.3374 17.0192V16.6509L50.8347 16.5929V16.9344Z" fill="#B8C667"/>
<path d="M50.6538 16.8017L43.3374 16.8741V16.6508L50.8347 16.5928L50.6538 16.8017Z" fill="#AAB25B"/>
<path d="M50.8347 17.5434L43.3374 17.6764V17.3078L50.8347 17.2019V17.5434Z" fill="#B8C667"/>
<path d="M50.6538 17.412L43.3374 17.5311V17.3077L50.8347 17.2019L50.6538 17.412Z" fill="#AAB25B"/>
<path d="M50.8347 18.1524L43.3374 18.3333V17.9646L50.8347 17.8109V18.1524Z" fill="#B8C667"/>
<path d="M50.6538 18.022L43.3374 18.1884V17.9647L50.8347 17.8109L50.6538 18.022Z" fill="#AAB25B"/>
<path d="M50.8347 18.7615L43.3374 18.9902V18.6216L50.8347 18.42V18.7615Z" fill="#B8C667"/>
<path d="M50.6538 18.6324L43.3374 18.8453V18.6216L50.8347 18.42L50.6538 18.6324Z" fill="#AAB25B"/>
<path d="M50.8347 19.3705L43.3374 19.6471V19.2788L50.8347 19.0289V19.3705Z" fill="#B8C667"/>
<path d="M50.6538 19.2423L43.3374 19.5022V19.2788L50.8347 19.029L50.6538 19.2423Z" fill="#AAB25B"/>
<path d="M50.8347 19.9792L43.3374 20.3041V19.9358L50.8347 19.638V19.9792Z" fill="#B8C667"/>
<path d="M50.6538 19.8526L43.3374 20.1592V19.9358L50.8347 19.6381L50.6538 19.8526Z" fill="#AAB25B"/>
<path d="M50.8347 20.5885L43.3374 20.9609V20.5926L50.8347 20.247V20.5885Z" fill="#B8C667"/>
<path d="M50.6538 20.4628L43.3374 20.816V20.5927L50.8347 20.247L50.6538 20.4628Z" fill="#AAB25B"/>
<path d="M50.8347 21.1974L43.3374 21.6183V21.2497L50.8347 20.8558V21.1974Z" fill="#B8C667"/>
<path d="M50.6538 21.0729L43.3374 21.473V21.2496L50.8347 20.8558L50.6538 21.0729Z" fill="#AAB25B"/>
<path d="M50.8347 21.8063L43.3374 22.2751V21.9065L50.8347 21.4648V21.8063Z" fill="#B8C667"/>
<path d="M50.6538 21.6832L43.3374 22.1302V21.9066L50.8347 21.4648L50.6538 21.6832Z" fill="#AAB25B"/>
<path d="M50.8347 22.4154L43.3374 22.9318V22.5634L50.8347 22.0738V22.4154Z" fill="#B8C667"/>
<path d="M50.6538 22.2931L43.3374 22.7871V22.5634L50.8347 22.0738L50.6538 22.2931Z" fill="#AAB25B"/>
<path d="M50.8347 23.0244L43.3374 23.589V23.2204L50.8347 22.6828V23.0244Z" fill="#B8C667"/>
<path d="M50.6538 22.9034L43.3374 23.4437V23.2203L50.8347 22.6828L50.6538 22.9034Z" fill="#AAB25B"/>
<path d="M50.8347 23.6335L43.3374 24.246V23.8777L50.8347 23.2919V23.6335Z" fill="#B8C667"/>
<path d="M50.6538 23.5134L43.3374 24.101V23.8776L50.8347 23.2919L50.6538 23.5134Z" fill="#AAB25B"/>
<path d="M50.8347 24.2424L43.3374 24.9028V24.5345L50.8347 23.9009V24.2424Z" fill="#B8C667"/>
<path d="M50.6538 24.1237L43.3374 24.7579V24.5345L50.8347 23.9009L50.6538 24.1237Z" fill="#AAB25B"/>
<path d="M50.8347 24.8514L43.3374 25.5597V25.1914L50.8347 24.5099V24.8514Z" fill="#B8C667"/>
<path d="M50.6538 24.7336L43.3374 25.4148V25.1914L50.8347 24.5099L50.6538 24.7336Z" fill="#AAB25B"/>
<path d="M50.8347 25.4602L43.3374 26.2167V25.8484L50.8347 25.1187V25.4602Z" fill="#B8C667"/>
<path d="M50.6538 25.344L43.3374 26.0718V25.8484L50.8347 25.1187L50.6538 25.344Z" fill="#AAB25B"/>
<path d="M50.8347 26.0692L43.3374 26.8735V26.5052L50.8347 25.7276V26.0692Z" fill="#B8C667"/>
<path d="M50.6538 25.9542L43.3374 26.7286V26.5053L50.8347 25.7277L50.6538 25.9542Z" fill="#AAB25B"/>
<path d="M50.8347 26.6782L43.3374 27.5308V27.1621L50.8347 26.3366V26.6782Z" fill="#B8C667"/>
<path d="M50.6538 26.5642L43.3374 27.3856V27.1622L50.8347 26.3368L50.6538 26.5642Z" fill="#AAB25B"/>
<path d="M50.8347 27.2873L43.3374 28.1877V27.8194L50.8347 26.9457V27.2873Z" fill="#B8C667"/>
<path d="M50.6538 27.1745L43.3374 28.0428V27.8195L50.8347 26.9458L50.6538 27.1745Z" fill="#AAB25B"/>
<path d="M50.8347 27.8962L43.3374 28.8446V28.4763L50.8347 27.5547V27.8962Z" fill="#B8C667"/>
<path d="M50.6538 27.7844L43.3374 28.6997V28.4763L50.8347 27.5548L50.6538 27.7844Z" fill="#AAB25B"/>
<path d="M50.8347 28.5052L43.3374 29.5015V29.1332L50.8347 28.1637V28.5052Z" fill="#B8C667"/>
<path d="M50.6538 28.3947L43.3374 29.3566V29.1332L50.8347 28.1637L50.6538 28.3947Z" fill="#AAB25B"/>
<path d="M50.8347 29.1143L43.3374 30.1584V29.7901L50.8347 28.7728V29.1143Z" fill="#B8C667"/>
<path d="M50.6538 29.0047L43.3374 30.0135V29.7902L50.8347 28.7728L50.6538 29.0047Z" fill="#AAB25B"/>
<path d="M50.8347 29.7233L43.3374 30.8153V30.447L50.8347 29.3817V29.7233Z" fill="#B8C667"/>
<path d="M50.6538 29.6149L43.3374 30.6704V30.447L50.8347 29.3818L50.6538 29.6149Z" fill="#AAB25B"/>
<path d="M70.3096 30.4004L78.8728 31.7136V0.00131607L70.3096 1.31452V30.4004Z" fill="#C9C779"/>
<path d="M68.4819 29.6522H69.4169V2.06291H68.4819V29.6522Z" fill="#93BAC1"/>
<path d="M69.4165 29.6522H69.221V2.26267H61.2818V2.06291H69.4165V29.6522ZM60.1669 29.6522H59.9711V2.26267H52.0322V2.06291H60.1669V29.6522Z" fill="#84ADAF"/>
<path d="M70.6577 2.31873L78.155 1.25222V0.883909L70.6577 1.9772V2.31873Z" fill="#B8C667"/>
<path d="M70.8386 2.15833L78.155 1.10725V0.883874L70.6577 1.97716L70.8386 2.15833Z" fill="#AAB25B"/>
<path d="M70.6577 2.92773L78.155 1.90911V1.5408L70.6577 2.5862V2.92773Z" fill="#B8C667"/>
<path d="M70.8386 2.76855L78.155 1.76412V1.54073L70.6577 2.58613L70.8386 2.76855Z" fill="#AAB25B"/>
<path d="M70.6577 3.53674L78.155 2.56601V2.1977L70.6577 3.19521V3.53674Z" fill="#B8C667"/>
<path d="M70.8386 3.37854L78.155 2.42104V2.19766L70.6577 3.19517L70.8386 3.37854Z" fill="#AAB25B"/>
<path d="M70.6577 4.14575L78.155 3.22292V2.8546L70.6577 3.80422V4.14575Z" fill="#B8C667"/>
<path d="M70.8386 3.98889L78.155 3.07803V2.85464L70.6577 3.80427L70.8386 3.98889Z" fill="#AAB25B"/>
<path d="M70.6577 4.75439L78.155 3.87976V3.51145L70.6577 4.41286V4.75439Z" fill="#B8C667"/>
<path d="M70.8386 4.59888L78.155 3.73496V3.51157L70.6577 4.41299L70.8386 4.59888Z" fill="#AAB25B"/>
<path d="M70.6577 5.36353L78.155 4.53679V4.16847L70.6577 5.02199V5.36353Z" fill="#B8C667"/>
<path d="M70.8386 5.20911L78.155 4.39182V4.16844L70.6577 5.02196L70.8386 5.20911Z" fill="#AAB25B"/>
<path d="M70.6577 5.97253L78.155 5.19399V4.82536L70.6577 5.631V5.97253Z" fill="#B8C667"/>
<path d="M70.8386 5.81909L78.155 5.04875V4.82536L70.6577 5.631L70.8386 5.81909Z" fill="#AAB25B"/>
<path d="M70.6577 6.58167L78.155 5.85102V5.48271L70.6577 6.24014V6.58167Z" fill="#B8C667"/>
<path d="M70.8386 6.42932L78.155 5.70592V5.48254L70.6577 6.23996L70.8386 6.42932Z" fill="#AAB25B"/>
<path d="M70.6577 7.19055L78.155 6.5078V6.13948L70.6577 6.84901V7.19055Z" fill="#B8C667"/>
<path d="M70.8386 7.03931L78.155 6.36285V6.13947L70.6577 6.849L70.8386 7.03931Z" fill="#AAB25B"/>
<path d="M70.6577 7.79968L78.155 7.16481V6.7965L70.6577 7.45815V7.79968Z" fill="#B8C667"/>
<path d="M70.8386 7.64966L78.155 7.01984V6.79645L70.6577 7.45809L70.8386 7.64966Z" fill="#AAB25B"/>
<path d="M70.6577 8.40857L78.155 7.8216V7.45329L70.6577 8.06704V8.40857Z" fill="#B8C667"/>
<path d="M70.8386 8.25964L78.155 7.67677V7.45339L70.6577 8.06714L70.8386 8.25964Z" fill="#AAB25B"/>
<path d="M70.6577 9.0177L78.155 8.47862V8.1103L70.6577 8.67616V9.0177Z" fill="#B8C667"/>
<path d="M70.8386 8.86987L78.155 8.33363V8.11024L70.6577 8.6761L70.8386 8.86987Z" fill="#AAB25B"/>
<path d="M70.6577 9.62646L78.155 9.1359V8.76727L70.6577 9.28524V9.62646Z" fill="#B8C667"/>
<path d="M70.8386 9.48022L78.155 8.99061V8.76723L70.6577 9.2852L70.8386 9.48022Z" fill="#AAB25B"/>
<path d="M70.6577 10.2357L78.155 9.79273V9.42441L70.6577 9.89419V10.2357Z" fill="#B8C667"/>
<path d="M70.8386 10.0902L78.155 9.64785V9.42447L70.6577 9.89424L70.8386 10.0902Z" fill="#AAB25B"/>
<path d="M70.6577 10.8445L78.155 10.4497V10.0814L70.6577 10.5029V10.8445Z" fill="#B8C667"/>
<path d="M70.8386 10.7004L78.155 10.3047V10.0813L70.6577 10.5029L70.8386 10.7004Z" fill="#AAB25B"/>
<path d="M70.6577 11.4535L78.155 11.1066V10.7383L70.6577 11.112V11.4535Z" fill="#B8C667"/>
<path d="M70.8386 11.3104L78.155 10.9616V10.7383L70.6577 11.1119L70.8386 11.3104Z" fill="#AAB25B"/>
<path d="M70.6577 12.0625L78.155 11.7635V11.3952L70.6577 11.721V12.0625Z" fill="#B8C667"/>
<path d="M70.8386 11.9207L78.155 11.6185V11.3951L70.6577 11.7209L70.8386 11.9207Z" fill="#AAB25B"/>
<path d="M70.6577 12.6715L78.155 12.4204V12.0521L70.6577 12.33V12.6715Z" fill="#B8C667"/>
<path d="M70.8386 12.5306L78.155 12.2754V12.0521L70.6577 12.3299L70.8386 12.5306Z" fill="#AAB25B"/>
<path d="M70.6577 13.2806L78.155 13.0774V12.7091L70.6577 12.9391V13.2806Z" fill="#B8C667"/>
<path d="M70.8386 13.141L78.155 12.9324V12.709L70.6577 12.939L70.8386 13.141Z" fill="#AAB25B"/>
<path d="M70.6577 13.8895L78.155 13.7345V13.3659L70.6577 13.548V13.8895Z" fill="#B8C667"/>
<path d="M70.8386 13.751L78.155 13.5894V13.366L70.6577 13.5481L70.8386 13.751Z" fill="#AAB25B"/>
<path d="M70.6577 14.4987L78.155 14.3915V14.0232L70.6577 14.1571V14.4987Z" fill="#B8C667"/>
<path d="M70.8386 14.3612L78.155 14.2465V14.0231L70.6577 14.157L70.8386 14.3612Z" fill="#AAB25B"/>
<path d="M70.6577 15.1073L78.155 15.0484V14.6798L70.6577 14.7658V15.1073Z" fill="#B8C667"/>
<path d="M70.8386 14.9712L78.155 14.9035V14.6798L70.6577 14.7658L70.8386 14.9712Z" fill="#AAB25B"/>
<path d="M70.6577 15.7163L78.155 15.7053V15.337L70.6577 15.3748V15.7163Z" fill="#B8C667"/>
<path d="M70.8386 15.5814L78.155 15.5603V15.3369L70.6577 15.3747L70.8386 15.5814Z" fill="#AAB25B"/>
<path d="M70.6577 16.3254L78.155 16.3623V15.994L70.6577 15.9839V16.3254Z" fill="#B8C667"/>
<path d="M70.8386 16.1918L78.155 16.2173V15.9939L70.6577 15.9838L70.8386 16.1918Z" fill="#AAB25B"/>
<path d="M70.6577 16.9344L78.155 17.0192V16.6509L70.6577 16.5929V16.9344Z" fill="#B8C667"/>
<path d="M70.8386 16.8017L78.155 16.8741V16.6508L70.6577 16.5928L70.8386 16.8017Z" fill="#AAB25B"/>
<path d="M70.6577 17.5434L78.155 17.6764V17.3078L70.6577 17.2019V17.5434Z" fill="#B8C667"/>
<path d="M70.8386 17.412L78.155 17.5311V17.3077L70.6577 17.2019L70.8386 17.412Z" fill="#AAB25B"/>
<path d="M70.6577 18.1524L78.155 18.3333V17.9646L70.6577 17.8109V18.1524Z" fill="#B8C667"/>
<path d="M70.8386 18.022L78.155 18.1884V17.9647L70.6577 17.8109L70.8386 18.022Z" fill="#AAB25B"/>
<path d="M70.6577 18.7615L78.155 18.9902V18.6216L70.6577 18.42V18.7615Z" fill="#B8C667"/>
<path d="M70.8386 18.6324L78.155 18.8453V18.6216L70.6577 18.42L70.8386 18.6324Z" fill="#AAB25B"/>
<path d="M70.6577 19.3705L78.155 19.6471V19.2788L70.6577 19.0289V19.3705Z" fill="#B8C667"/>
<path d="M70.8386 19.2423L78.155 19.5022V19.2788L70.6577 19.029L70.8386 19.2423Z" fill="#AAB25B"/>
<path d="M70.6577 19.9792L78.155 20.3041V19.9358L70.6577 19.638V19.9792Z" fill="#B8C667"/>
<path d="M70.8386 19.8526L78.155 20.1592V19.9358L70.6577 19.6381L70.8386 19.8526Z" fill="#AAB25B"/>
<path d="M70.6577 20.5885L78.155 20.9609V20.5926L70.6577 20.247V20.5885Z" fill="#B8C667"/>
<path d="M70.8386 20.4628L78.155 20.816V20.5927L70.6577 20.247L70.8386 20.4628Z" fill="#AAB25B"/>
<path d="M70.6577 21.1974L78.155 21.6183V21.2497L70.6577 20.8558V21.1974Z" fill="#B8C667"/>
<path d="M70.8386 21.0729L78.155 21.473V21.2496L70.6577 20.8558L70.8386 21.0729Z" fill="#AAB25B"/>
<path d="M70.6577 21.8063L78.155 22.2751V21.9065L70.6577 21.4648V21.8063Z" fill="#B8C667"/>
<path d="M70.8386 21.6832L78.155 22.1302V21.9066L70.6577 21.4648L70.8386 21.6832Z" fill="#AAB25B"/>
<path d="M70.6577 22.4154L78.155 22.9318V22.5634L70.6577 22.0738V22.4154Z" fill="#B8C667"/>
<path d="M70.8386 22.2931L78.155 22.7871V22.5634L70.6577 22.0738L70.8386 22.2931Z" fill="#AAB25B"/>
<path d="M70.6577 23.0244L78.155 23.589V23.2204L70.6577 22.6828V23.0244Z" fill="#B8C667"/>
<path d="M70.8386 22.9034L78.155 23.4437V23.2203L70.6577 22.6828L70.8386 22.9034Z" fill="#AAB25B"/>
<path d="M70.6577 23.6335L78.155 24.246V23.8777L70.6577 23.2919V23.6335Z" fill="#B8C667"/>
<path d="M70.8386 23.5134L78.155 24.101V23.8776L70.6577 23.2919L70.8386 23.5134Z" fill="#AAB25B"/>
<path d="M70.6577 24.2424L78.155 24.9028V24.5345L70.6577 23.9009V24.2424Z" fill="#B8C667"/>
<path d="M70.8386 24.1237L78.155 24.7579V24.5345L70.6577 23.9009L70.8386 24.1237Z" fill="#AAB25B"/>
<path d="M70.6577 24.8514L78.155 25.5597V25.1914L70.6577 24.5099V24.8514Z" fill="#B8C667"/>
<path d="M70.8386 24.7336L78.155 25.4148V25.1914L70.6577 24.5099L70.8386 24.7336Z" fill="#AAB25B"/>
<path d="M70.6577 25.4602L78.155 26.2167V25.8484L70.6577 25.1187V25.4602Z" fill="#B8C667"/>
<path d="M70.8386 25.344L78.155 26.0718V25.8484L70.6577 25.1187L70.8386 25.344Z" fill="#AAB25B"/>
<path d="M70.6577 26.0692L78.155 26.8735V26.5052L70.6577 25.7276V26.0692Z" fill="#B8C667"/>
<path d="M70.8386 25.9542L78.155 26.7286V26.5053L70.6577 25.7277L70.8386 25.9542Z" fill="#AAB25B"/>
<path d="M70.6577 26.6782L78.155 27.5308V27.1621L70.6577 26.3366V26.6782Z" fill="#B8C667"/>
<path d="M70.8386 26.5642L78.155 27.3856V27.1622L70.6577 26.3368L70.8386 26.5642Z" fill="#AAB25B"/>
<path d="M70.6577 27.2873L78.155 28.1877V27.8194L70.6577 26.9457V27.2873Z" fill="#B8C667"/>
<path d="M70.8386 27.1745L78.155 28.0428V27.8195L70.6577 26.9458L70.8386 27.1745Z" fill="#AAB25B"/>
<path d="M70.6577 27.8962L78.155 28.8446V28.4763L70.6577 27.5547V27.8962Z" fill="#B8C667"/>
<path d="M70.8386 27.7844L78.155 28.6997V28.4763L70.6577 27.5548L70.8386 27.7844Z" fill="#AAB25B"/>
<path d="M70.6577 28.5052L78.155 29.5015V29.1332L70.6577 28.1637V28.5052Z" fill="#B8C667"/>
<path d="M70.8386 28.3947L78.155 29.3566V29.1332L70.6577 28.1637L70.8386 28.3947Z" fill="#AAB25B"/>
<path d="M70.6577 29.1143L78.155 30.1584V29.7901L70.6577 28.7728V29.1143Z" fill="#B8C667"/>
<path d="M70.8386 29.0047L78.155 30.0135V29.7902L70.6577 28.7728L70.8386 29.0047Z" fill="#AAB25B"/>
<path d="M70.6577 29.7233L78.155 30.8153V30.447L70.6577 29.3817V29.7233Z" fill="#B8C667"/>
<path d="M70.8386 29.6149L78.155 30.6704V30.447L70.6577 29.3818L70.8386 29.6149Z" fill="#AAB25B"/>
<path d="M118.182 29.7284H85.4199V2.71503H118.182V29.7284Z" fill="#D8DADC"/>
<path d="M118.182 29.7284H117.09V5.41202H85.4199V2.71503H118.182V29.7284Z" fill="#AEAFB2"/>
<path d="M116.903 27.9546H86.6992V5.65245H116.903V27.9546Z" fill="#945A2F"/>
<path d="M101.948 27.9546H101.654V5.83834H101.948V27.9546Z" fill="#A3643A"/>
<path d="M86.7061 13.9923V13.7516H116.686V13.9923H86.7061Z" fill="#A3643A"/>
<path d="M116.248 13.4919H116.024V6.47347H102.151V6.25387H116.248V13.4919ZM101.359 13.4919H101.135V6.47347H87.2617V6.25387H101.359V13.4919Z" fill="#8FBCC6"/>
<path d="M101.359 27.353H87.2617V14.2859H101.359V27.353ZM116.248 27.353H102.151V14.2859H116.248V27.353Z" fill="#B1D4DD"/>
<path d="M101.359 13.492H87.2617V6.25388H101.359V13.492ZM116.248 13.492H102.151V6.25388H116.248V13.492ZM101.359 18.6326L87.2617 21.2146V14.2859H101.359V18.6326ZM116.248 16.0418L102.151 18.4571V14.2859H116.248V16.0418Z" fill="#96CAD6"/>
<path d="M120.845 31.3617H82.7305V28.6994H120.845V31.3617Z" fill="#8E6042"/>
<path d="M85.9735 4.20152V30.8655H83.4067V4.20152H85.9735ZM117.647 4.20152V30.8655H120.214V4.20152H117.647Z" fill="#8E6042"/>
<path d="M82.8804 2.33131L83.662 5.12817H119.934L120.716 2.58777C116.714 1.47778 110.286 0.726661 102.939 0.628675H99.6617C92.8967 0.718784 86.9107 1.3631 82.8804 2.33131Z" fill="#8E6042"/>
<path d="M86.1637 28.3421H83.2695V25.9318H86.1637V28.3421ZM86.1637 25.7742H83.2695V23.3643H86.1637V25.7742ZM86.1637 23.2064H83.2695V20.7965H86.1637V23.2064ZM86.1637 20.6389H83.2695V18.2287H86.1637V20.6389ZM86.1637 18.0711H83.2695V15.6609H86.1637V18.0711ZM86.1637 15.5033H83.2695V13.0934H86.1637V15.5033ZM86.1637 12.9355H83.2695V10.5255H86.1637V12.9355ZM86.1637 10.368H83.2695V7.95805H86.1637V10.368ZM86.1637 7.8002H83.2695V5.39024H86.1637V7.8002ZM117.456 28.3421H120.35V25.9318H117.456V28.3421ZM117.456 25.7742H120.35V23.3643H117.456V25.7742ZM117.456 23.2064H120.35V20.7965H117.456V23.2064ZM117.456 20.6389H120.35V18.2287H117.456V20.6389ZM117.456 18.0711H120.35V15.6609H117.456V18.0711ZM117.456 15.5033H120.35V13.0934H117.456V15.5033ZM117.456 12.9355H120.35V10.5255H117.456V12.9355ZM117.456 10.368H120.35V7.95805H117.456V10.368ZM117.456 7.8002H120.35V5.39024H117.456V7.8002ZM104.411 5.19616H99.1905L98.3033 0.216179H105.298L104.411 5.19616ZM93.964 0.806303C92.7146 0.883495 91.5098 0.980225 90.3572 1.09428L92.842 5.19616H95.7172L93.964 0.806303ZM90.0529 1.12453C88.8614 1.24646 87.7287 1.38761 86.6637 1.54515L89.6167 5.19616H92.5036L90.0529 1.12453ZM83.0421 2.20427C82.846 2.24806 82.6524 2.29217 82.4645 2.33722L83.2635 5.19616H86.132L83.0421 2.20427ZM86.3762 1.58799C85.2742 1.75624 84.2488 1.94244 83.3106 2.14503L86.4426 5.19616H89.3181L86.3762 1.58799ZM98.0436 0.628607C96.761 0.662004 95.5104 0.715252 94.2992 0.786457L96.0275 5.19616H98.9027L98.0436 0.628607ZM116.824 1.68567C115.782 1.51553 114.666 1.3624 113.486 1.22818L111.098 5.19616H113.985L116.824 1.68567ZM113.184 1.19415C112.047 1.06876 110.853 0.96069 109.611 0.872154L107.884 5.19616H110.76L113.184 1.19415ZM121.137 2.59937C120.888 2.53036 120.629 2.46263 120.361 2.39615L117.47 5.19616H120.338L121.137 2.59937ZM120.098 2.3325C119.193 2.11573 118.193 1.91472 117.108 1.73229L114.283 5.19616H117.159L120.098 2.3325ZM104.699 5.19616H107.574L109.278 0.849472C108.076 0.767239 106.832 0.703592 105.552 0.659168L104.699 5.19616ZM86.6742 32.1399H82.4478V28.5012H86.6742V32.1399ZM89.6838 31.5164H86.8598V28.5012H89.6838V31.5164ZM92.6833 31.5164H89.8593V28.5012H92.6833V31.5164ZM95.6828 31.5164H92.8588V28.5012H95.6828V31.5164ZM98.6822 31.5164H95.8583V28.5012H98.6822V31.5164ZM101.682 31.5164H98.8578V28.5012H101.682V31.5164ZM104.681 31.5164H101.857V28.5012H104.681V31.5164ZM107.681 31.5164H104.856V28.5012H107.681V31.5164ZM110.68 31.5164H107.856V28.5012H110.68V31.5164ZM113.679 31.5164H110.855V28.5012H113.679V31.5164ZM116.679 31.5164H113.855V28.5012H116.679V31.5164ZM121.086 32.1399H116.86V28.5012H121.086V32.1399Z" fill="#A5714A"/>
<path d="M116.248 27.353H116.024V14.5178H102.151V14.2982H116.248V27.353ZM101.359 27.353H101.135V14.5178H87.2617V14.2982H101.359V27.353Z" fill="#8FBCC6"/>
<path d="M28.4389 74.0634H10.2344V43.8492H28.4389V74.0634Z" fill="#EDEEEF"/>
<path d="M37.5781 73.5936L28.439 74.0634V43.8492L37.5781 45.0594V73.5936Z" fill="#F7F7F8"/>
<path d="M27.2913 52.6487H11.3818V44.9667H27.2913V52.6487Z" fill="#A4D1DD"/>
<path d="M27.2913 49.595L11.3818 55.4944V44.9667H27.2913V49.595Z" fill="#80C5D8"/>
<path d="M27.2913 74.0321H11.3818V67.5196H27.2913V74.0321Z" fill="#39373A"/>
<path d="M27.2913 58.3398H11.3818V52.6488H27.2913V58.3398Z" fill="#D8DADC"/>
<path d="M27.2911 58.3398H27.0483V52.6488H27.2911V58.3398Z" fill="#BEBEBF"/>
<path d="M11.3818 55.4944V52.6487H19.0367L11.3818 55.4944Z" fill="#D3D3D3"/>
<path d="M27.2913 67.5197H11.3818V59.348H27.2913V67.5197Z" fill="#D8DADC"/>
<path d="M27.2913 67.5197H27.0263V59.7261H11.3818V59.348H27.2913V67.5197Z" fill="#C3C5C8"/>
<path d="M26.8331 66.4982H11.8394V59.348H26.8331V66.4982Z" fill="#A4D1DD"/>
<path d="M26.8331 59.7H11.8394V59.348H26.8331V59.7ZM26.8331 58.3398H11.8394V53.5375H26.8331V58.3398Z" fill="#9FC8CE"/>
<path d="M11.8394 55.3451V53.5375H16.6542L11.8394 55.3451Z" fill="#80C5D8"/>
<path d="M27.2913 52.6487H27.0541V45.1715H11.3818V44.9667H27.2913V52.6487Z" fill="#90B4BA"/>
<path d="M26.8331 58.3398H26.5489L26.5278 53.7257H11.8394V53.5376H26.8331V58.3398Z" fill="#95BCBF"/>
<path d="M26.833 66.4982H26.5913V59.348H26.833V66.4982Z" fill="#90B4BA"/>
<path d="M36.4923 58.9712L28.9229 58.3892V45.058L36.4923 46.0117V58.9712ZM36.2715 72.8814L28.9229 73.2151V59.3669L36.2715 59.8871V72.8814Z" fill="#A4D1DD"/>
<path d="M36.2715 72.8815L35.9375 72.8966V60.1149L28.9229 59.6521V59.3669L36.2715 59.8871V72.8815Z" fill="#90B4BA"/>
<path d="M36.2715 73.66L36.5432 73.6465V59.8871H36.2715V73.66Z" fill="#C3C5C8"/>
<path d="M28.9229 49.0461V45.058L36.4923 46.0117V52.0144L28.9229 49.0461Z" fill="#80C5D8"/>
<path d="M36.4923 58.9712L35.9919 58.9535V46.1889L28.9229 45.2953V45.0581L36.4923 46.0118V58.9712Z" fill="#90B4BA"/>
<path d="M1.09473 73.5936L10.2339 74.0634V43.8505L1.09473 45.0594V73.5936Z" fill="#D8DADC"/>
<path d="M2.18066 58.9712L9.75001 58.3892V45.058L2.18066 46.0117V58.9712ZM2.40144 72.8814L9.75001 73.2151V59.3669L2.40144 59.8871V72.8814Z" fill="#A1CCD6"/>
<path d="M2.40137 72.8815L2.73548 72.8966V60.1149L9.74993 59.6521V59.3669L2.40137 59.8871V72.8815Z" fill="#90B4BA"/>
<path d="M2.40097 73.66L2.12939 73.6465V59.8871H2.40097V73.66Z" fill="#C3C5C8"/>
<path d="M9.75001 52.4171V45.058L2.18066 46.0118V55.4944L9.75001 52.4171Z" fill="#80C5D8"/>
<path d="M2.18066 58.9712L2.68093 58.9535V46.1889L9.75001 45.2953V45.0581L2.18066 46.0118V58.9712Z" fill="#90B4BA"/>
<path d="M29.3143 75.6897H9.3584V74.0116H29.3143V75.6897Z" fill="#EDEEEF"/>
<path d="M29.3145 75.6897L38.673 75.0224V73.5116L29.3145 74.0116V75.6897Z" fill="#F7F7F8"/>
<path d="M9.35844 75.6897L0 75.0224V73.5116L9.35844 74.0116V75.6897Z" fill="#D8DADC"/>
<path d="M71.3172 71.4095H50.1743V43.8492H71.3172V71.4095Z" fill="#F4B860"/>
<path d="M70.3392 71.4095H51.1523V44.663H70.3392V71.4095Z" fill="#EDEEEF"/>
<path d="M70.3392 71.4095H70.0286V45.008H51.1523V44.663H70.3392V71.4095Z" fill="#D8DADC"/>
<path d="M60.9597 71.4095H60.4097V44.8956H60.9597V71.4095Z" fill="#F7F7F8"/>
<path d="M60.271 71.4095H60.4092V44.663H60.271V71.4095Z" fill="#D8DADC"/>
<path d="M60.003 53.5208H51.9316V45.4755H60.003V53.5208Z" fill="#A1D3E5"/>
<path d="M60.003 50.407L51.9316 51.1953V45.4755H60.003V50.407Z" fill="#96CAD6"/>
<path d="M60.003 62.0913H51.9316V54.046H60.003V62.0913ZM60.003 70.6621H51.9316V62.6165H60.003V70.6621ZM69.5598 53.5208H61.4884V45.4755H69.5598V53.5208Z" fill="#A1D3E5"/>
<path d="M69.5602 49.4984L61.4888 50.2388V45.4756H69.5602V49.4984Z" fill="#96CAD6"/>
<path d="M69.5598 53.5208H69.3485V45.7124H61.4884V45.4755H69.5598V53.5208ZM60.003 53.5208H59.7917V45.7124H51.9316V45.4755H60.003V53.5208Z" fill="#93C4D1"/>
<path d="M69.5602 62.0913H61.4888V54.046H69.5602V62.0913Z" fill="#A1D3E5"/>
<path d="M69.5598 62.0913H69.3485V54.2833H61.4884V54.046H69.5598V62.0913ZM60.003 62.0913H59.7917V54.2833H51.9316V54.046H60.003V62.0913Z" fill="#93C4D1"/>
<path d="M69.5602 70.6621H61.4888V62.6165H69.5602V70.6621Z" fill="#A1D3E5"/>
<path d="M69.5598 70.6621H69.3485V62.8538H61.4884V62.6165H69.5598V70.6621ZM60.003 70.6621H59.7917V62.8538H51.9316V62.6165H60.003V70.6621Z" fill="#93C4D1"/>
<path d="M72.0974 71.4094H49.3945V73.5875H72.0974V71.4094Z" fill="#F7AF2C"/>
<path d="M69.2128 71.2503H52.2793V74.2901C52.2793 74.9751 52.8369 75.5305 53.5246 75.5305H67.9675C68.6552 75.5305 69.2128 74.9751 69.2128 74.2901V71.2503Z" fill="#7B6451"/>
<path d="M52.0595 71.0496C52.0924 71.2888 52.2351 71.5701 52.5033 71.583C52.6159 71.5884 52.7462 71.5802 52.8443 71.5188C52.8996 71.4841 52.9992 71.2352 52.9331 71.2069C52.9607 71.2188 53.1081 71.3376 53.1096 71.3515C53.1349 71.5893 53.1849 71.5626 53.4076 71.6076C53.8397 71.6952 54.0323 71.4378 54.4375 71.3505C54.335 71.8228 55.016 71.7526 55.294 71.8055C55.517 71.8483 55.7226 71.629 55.9307 71.6958C56.1569 71.768 56.0639 72.0245 56.1458 72.1795C56.2398 72.3569 56.5988 72.3704 56.773 72.4035C56.9742 72.4413 56.9982 72.3846 57.1317 72.2636C57.2443 72.1618 57.4676 72.0686 57.6223 72.107C57.7397 72.1363 57.7843 72.4485 57.869 72.538C58.2777 72.9697 58.822 72.4706 59.0776 72.1502C59.4638 71.6653 59.8826 72.5128 60.2191 72.5765C60.5149 72.6325 60.8343 71.9432 61.1165 71.8244C61.2958 71.7491 61.4818 71.8962 61.559 72.05C61.6656 72.2614 61.7687 72.3597 62.0072 72.4337C62.8125 72.6845 63.033 71.4258 63.8114 71.7009C63.9676 71.756 64.0872 71.8735 64.2605 71.9028C64.4414 71.9334 64.4791 71.7992 64.6031 71.7141C64.9323 71.4885 65.4119 71.3471 65.7946 71.4161C66.1953 71.4888 66.6499 71.4287 67.0569 71.4287C67.4567 71.4287 67.9777 71.3335 68.3493 71.4923C68.7299 71.6549 69.4251 71.8934 69.2571 71.1908C69.18 70.8678 68.9326 70.922 68.7276 70.7172C68.603 70.5928 68.2519 70.2692 68.0485 70.3852C67.8774 70.4828 67.8047 70.6394 67.5874 70.6621C67.3543 70.686 67.2195 70.6259 67.0294 70.4957C66.6897 70.2635 66.306 70.2308 65.9287 70.1174C65.5969 70.0178 65.6769 70.0984 65.5064 70.3464C65.3761 70.5354 65.1522 70.4983 64.9501 70.5046C64.7925 70.5096 64.6116 70.5468 64.4908 70.428C64.3383 70.2787 64.1609 70.0474 63.924 70.0499C63.5859 70.0534 63.1908 69.957 62.8599 70.0383C62.7296 70.0704 62.5813 70.2157 62.4639 70.2824C62.2976 70.3773 62.1255 70.4208 61.9392 70.4636C61.6039 70.5411 61.3863 70.5424 61.0501 70.4857C60.6518 70.4182 60.5396 70.5128 60.204 70.7437C59.9854 70.8943 59.6909 71.044 59.4221 71.0515C59.1956 71.0575 58.8597 71.1375 58.643 71.0726C57.9914 70.8763 57.4417 70.5619 56.7544 70.7796C56.4052 70.8902 56.0313 70.7818 55.6989 70.6621C55.474 70.5808 55.2336 70.4416 54.9891 70.4365C54.7025 70.4302 54.4735 70.7018 54.2119 70.7922C53.8131 70.9299 53.492 70.5046 53.078 70.6816C52.9025 70.7566 52.7715 70.888 52.5858 70.8596C52.4685 70.842 52.0301 70.8344 52.0595 71.0496Z" fill="#4FAC25"/>
<path d="M51.9614 71.1433C51.9886 71.2769 52.4049 71.1471 52.4947 71.1556C52.6769 71.1732 52.5358 71.4458 52.4906 71.4117C52.3014 71.269 53.1574 71.3251 53.151 71.373C53.1308 71.5245 53.6356 71.4297 53.7947 71.5022C54.1667 71.6714 53.7795 71.1468 53.9519 71.0743C54.081 71.0198 54.3504 71.3834 54.5143 71.4146C54.8366 71.476 54.7474 71.7032 54.494 71.5901C54.6908 71.678 55.0675 71.8673 54.8761 71.4896C54.5757 70.8972 55.2883 71.5063 55.3145 71.3692C55.3588 71.1357 56.0474 71.7432 56.1477 71.7296C56.4564 71.6887 56.5269 71.7766 56.7164 71.9786C56.7613 72.0264 57.1655 71.8721 57.1377 71.913C57.0969 71.9729 56.9144 71.9266 56.9131 71.9278C56.989 71.8402 57.4186 71.9546 57.5366 71.9366C57.6444 71.9203 58.0673 71.5349 58.1347 71.5869C58.142 71.5926 57.757 71.8686 57.7244 71.8992C57.5919 72.0239 57.9794 72.3034 58.1008 72.247C58.3482 72.1323 58.2583 71.8651 58.5816 72.0655C58.9065 72.2668 58.7515 71.9628 59.0314 71.9899C59.5928 72.0444 60.066 72.218 60.5107 71.7649C60.6233 71.6502 60.8077 71.6673 60.9456 71.6011C61.0228 71.5639 61.056 71.7454 61.0728 71.7829C61.2186 72.1106 61.5618 71.724 61.7256 71.8837C61.7544 71.9118 61.5036 72.0504 61.54 72.12C61.59 72.2161 61.7952 72.2917 61.8939 72.3125C62.0214 72.3393 62.1185 72.155 62.2456 72.1566C62.4161 72.1585 62.5344 72.0201 62.7413 72.0356C62.9352 72.0501 62.9829 72.0507 63.0326 71.8572C63.0535 71.7753 63.2768 71.741 63.3413 71.7133C63.5434 71.6266 63.217 71.2312 63.1715 71.24C63.2781 71.2195 63.4368 71.3506 63.5393 71.3768C63.6864 71.4146 63.8414 71.402 63.9885 71.3799C64.127 71.3591 64.2905 71.3868 64.4152 71.4495C64.4721 71.4782 64.5546 71.6304 64.6062 71.6358C64.6907 71.6439 64.7764 71.523 64.8517 71.4946C65.0092 71.4354 65.154 71.4499 65.3084 71.3702C65.5668 71.2369 65.8869 71.2274 66.033 71.5271C66.1602 71.7879 66.5072 71.3374 66.7425 71.5349C67.1366 71.8658 66.9661 71.3147 67.3204 71.3147C67.6281 71.3147 67.9704 71.3711 68.2731 71.3368C68.3825 71.3241 68.5688 71.3103 68.6574 71.3805C68.6786 71.3976 68.8731 71.6922 68.9234 71.6024C68.9538 71.5479 68.8522 71.4795 68.9003 71.4124C68.9335 71.3657 69.0727 71.3742 69.1186 71.3714C69.1584 71.3692 69.5569 71.3787 69.5601 71.3305C69.5645 71.2608 68.9651 71.2492 69.0474 71.1386C69.0847 71.0885 69.3305 70.9801 69.3083 70.9092C69.266 70.7753 68.9965 70.6464 68.8921 70.5516C68.6197 70.3049 68.3151 70.4902 67.9881 70.5116C67.7373 70.528 67.8562 71.1405 67.5421 70.9987C67.3131 70.8957 67.1837 70.7469 66.9364 70.6959C66.7612 70.6597 66.8241 70.4835 66.7552 70.3632C66.6881 70.2463 66.3512 70.3071 66.2491 70.3232C65.9925 70.3638 66.0536 70.8131 65.9733 70.7797C65.8395 70.7239 65.7408 70.603 65.6253 70.5195C65.4286 70.3767 65.5804 70.5907 65.5788 70.6203C65.5779 70.6367 65.2679 70.4189 65.2103 70.4741C65.1224 70.5585 65.0047 70.8276 64.8719 70.6354C64.8001 70.5314 64.795 70.3396 64.6483 70.4391C64.4718 70.5592 64.3152 70.7198 64.1156 70.568C63.9799 70.4649 63.1379 70.1735 63.0275 70.3534C62.9099 70.5456 62.82 70.522 62.6176 70.6048C62.5202 70.6445 62.2431 70.6143 62.1871 70.6581C62.1289 70.7035 61.942 71.0308 61.8958 70.8263C61.8506 70.6244 61.7513 70.5793 61.5824 70.4615C61.2445 70.2255 61.1614 71.0519 60.9994 71.0333C60.9222 71.0245 60.6613 70.7318 60.6714 70.7274C60.4364 70.8295 60.3159 70.8345 60.0575 70.7636C59.8924 70.7183 59.7965 70.8254 59.7181 70.975C59.6618 71.0825 59.9262 71.2684 59.974 71.2545C59.7867 71.3097 59.6681 71.0598 59.5081 71.0598C59.3758 71.0598 59.0823 71.1704 59.0061 71.2488C58.6559 71.6083 58.0932 70.8739 57.7346 71.109C57.5109 71.2551 57.4885 70.9432 57.2971 70.8452C57.1529 70.7715 56.7806 70.682 56.6111 70.666C56.4051 70.6464 56.5952 70.9955 56.3533 70.9574C56.0882 70.9155 56.0841 71.3572 55.9174 71.3298C55.8247 71.3144 55.8184 70.9804 55.7466 70.9092C55.6194 70.7829 55.1061 70.7759 54.9252 70.7397C54.706 70.6956 54.3837 70.8736 54.2255 71.022C53.9668 71.264 53.8842 71.0021 53.597 71.0784C53.3917 71.1329 53.5916 70.8172 53.6125 70.7296C53.6672 70.4999 53.2311 70.7334 53.1482 70.7523C52.9192 70.8052 52.9666 71.0976 52.7386 71.1509C52.6677 71.136 51.9649 71.1609 51.9614 71.1433Z" fill="#98C000"/>
<path d="M56.4464 70.877C56.3968 70.8669 56.3749 71.1524 56.5546 71.1524C56.6625 71.1524 56.7716 71.4545 56.9035 71.5018C56.9911 71.5333 57.068 71.4678 57.2157 71.4596C57.5851 71.4397 57.6968 71.1382 57.4573 71.1284C57.2176 71.1184 57.1379 71.4057 56.9981 71.3364C56.8583 71.2671 56.8228 71.2469 56.7627 71.2173C56.7029 71.1874 56.5764 71.2551 56.4366 71.3049C56.3316 71.1527 56.4964 70.8868 56.4464 70.877ZM61.9412 71.4114C62.0712 71.4353 62.1509 70.8279 62.2319 70.8105C62.3189 70.7919 62.4577 70.9889 62.582 70.9785C62.7193 70.9671 62.6636 70.8931 62.7272 70.791C62.7747 70.7151 63.2308 70.8568 63.2988 70.7377C63.368 70.6174 63.1862 70.394 63.2776 70.4063C63.3978 70.4227 63.5958 70.44 63.6353 70.4737C63.7052 70.5336 63.7514 70.6265 63.9209 70.5966C63.9905 70.5843 64.1319 70.4306 64.2461 70.4296C64.4112 70.428 64.4485 70.4699 64.4229 70.4816C64.3802 70.5014 64.5472 70.6139 64.6472 70.6735C64.7468 70.7333 64.4738 71.0758 64.334 71.1659C64.2521 71.2192 64.0712 71.4567 63.8918 71.3877C63.7656 71.3392 63.6521 71.2778 63.5116 71.2406C63.3722 71.2037 63.3026 70.8452 63.2251 70.8597C63.1141 70.8805 63.0122 70.871 62.9006 70.9003C62.7108 70.9501 62.91 71.1927 63.0097 71.3918C63.071 71.5141 62.9512 71.5506 62.8028 71.5563C62.7092 71.5598 62.5991 71.3462 62.4913 71.3443C62.2113 71.3399 62.3138 71.2775 62.1841 71.2104C62.0541 71.1432 61.983 71.7088 61.7733 71.7683C61.5635 71.8279 61.7755 71.5223 61.7853 71.4593C61.7954 71.3959 61.1397 71.3985 61.0796 71.3288C61.0198 71.2592 61.2264 70.7585 61.2861 70.7085C61.3364 70.6665 61.5876 70.9807 61.7113 71.044C61.7872 71.0828 61.8387 71.3925 61.9412 71.4114Z" fill="#4FAC25"/>
<path d="M64.4549 70.2412C64.3113 70.2563 64.2325 70.3348 64.0604 70.2412C63.8884 70.1476 64.0759 70.0386 64.0604 69.9451C64.0446 69.8518 64.2793 69.7737 64.3261 69.8518C64.3733 69.9296 64.4742 69.8814 64.4549 69.8197C64.4356 69.7582 64.5453 69.6335 64.6077 69.6804C64.6703 69.727 64.7955 69.7582 64.8737 69.7425C64.9521 69.727 64.8423 69.9454 64.7174 69.9763C64.5922 70.0074 64.7611 70.055 64.831 70.0352C64.9009 70.0153 64.9708 69.9356 64.9809 69.866C64.9907 69.7963 65.1305 69.8364 65.1305 69.906C65.1305 69.9756 65.1207 70.0254 65.2004 70.055C65.2804 70.0849 65.1906 70.3613 65.0207 70.2828C64.8509 70.2044 64.7411 70.1946 64.7712 70.2441C64.8009 70.2938 64.8708 70.3635 64.861 70.4233C64.8509 70.4829 64.781 70.493 64.681 70.4829C64.5814 70.4731 64.5384 70.5594 64.4549 70.4863C64.3714 70.4133 64.5235 70.234 64.4549 70.2412Z" fill="#C4001D"/>
<path d="M64.521 69.9457C64.521 69.9457 64.6804 69.9158 64.7171 69.9763C64.7535 70.0371 64.751 70.1647 64.6709 70.1647C64.5909 70.1647 64.4546 70.1647 64.4546 70.0516C64.4546 70.0068 64.521 69.9457 64.521 69.9457Z" fill="#F7AF2C"/>
<path d="M54.4994 70.758C54.6433 70.7473 54.735 70.8103 54.8875 70.6874C55.0399 70.5645 54.8356 70.4908 54.834 70.3963C54.8324 70.3014 54.5876 70.2668 54.5554 70.3519C54.5234 70.4369 54.4156 70.4076 54.4231 70.3433C54.431 70.2794 54.3007 70.1764 54.2476 70.2337C54.1945 70.2907 54.0771 70.344 53.9971 70.3427C53.9174 70.3411 54.0645 70.5365 54.1932 70.5447C54.3219 70.5525 54.1644 70.6297 54.092 70.6228C54.0199 70.6159 53.9367 70.55 53.9142 70.4832C53.8918 70.4164 53.7614 70.4807 53.7741 70.5494C53.7867 70.6178 53.8054 70.665 53.732 70.7085C53.659 70.7523 53.7972 71.0078 53.9503 70.9004C54.103 70.7929 54.2093 70.7633 54.1888 70.8175C54.1682 70.872 54.1122 70.953 54.1328 71.0097C54.1533 71.0667 54.2239 71.0639 54.3203 71.0365C54.4168 71.0088 54.4747 71.086 54.5433 70.9993C54.6123 70.9124 54.4304 70.7633 54.4994 70.758Z" fill="#C4001D"/>
<path d="M54.3805 70.4791C54.3805 70.4791 54.2182 70.4785 54.1933 70.5447C54.1683 70.6105 54.1942 70.7356 54.2726 70.7214C54.3514 70.7072 54.4855 70.6827 54.465 70.5715C54.457 70.5273 54.3805 70.4791 54.3805 70.4791Z" fill="#F7AF2C"/>
<path d="M59.1274 70.7685C59.2662 70.7292 59.2413 70.876 59.3953 70.8306C59.5832 70.7755 59.4051 70.6403 59.4959 70.5357C59.5582 70.4642 59.3709 70.4135 59.1546 70.5789C59.0822 70.634 59.079 70.4976 59.0942 70.4349C59.1097 70.3722 58.9926 70.2547 58.9329 70.3051C58.8734 70.3555 58.7504 70.3946 58.6716 70.3839C58.5925 70.3731 58.6577 70.5609 58.7845 70.5842C58.9114 70.6076 58.8035 70.6888 58.7323 70.6731C58.6615 70.6576 58.5865 70.5827 58.5723 70.5137C58.5581 70.4447 58.4208 70.4932 58.4252 70.5628C58.4296 70.6321 58.4426 70.6813 58.3648 70.7159C58.287 70.7506 58.3939 71.0206 58.5584 70.9321C58.7228 70.8432 58.832 70.8265 58.8051 70.8782C58.7785 70.9296 58.713 71.0033 58.7266 71.0625C58.7402 71.1214 58.8108 71.1268 58.9098 71.1107C59.0088 71.0947 59.104 71.0783 59.1827 71.0001C59.2615 70.9223 58.9499 70.8186 59.1274 70.7685Z" fill="#C4001D"/>
<path d="M59.0363 70.5648C59.0363 70.5648 58.875 70.5449 58.8424 70.6076C58.8098 70.6703 58.8206 70.7976 58.9003 70.7926C58.98 70.7875 59.116 70.7793 59.109 70.6662C59.1062 70.6218 59.0363 70.5648 59.0363 70.5648Z" fill="#F7AF2C"/>
<path d="M59.7974 71.3503C59.676 71.4281 59.6573 71.28 59.5229 71.3679C59.359 71.4747 59.5688 71.5529 59.5121 71.6792C59.4732 71.7658 59.6674 71.7605 59.8265 71.5396C59.88 71.4659 59.9224 71.5957 59.9259 71.66C59.9297 71.7246 60.0758 71.8033 60.1182 71.7381C60.1606 71.6726 60.2668 71.5998 60.3456 71.5875C60.4243 71.5749 60.3073 71.4139 60.1792 71.4281C60.0511 71.4423 60.1308 71.3332 60.2033 71.3279C60.276 71.3222 60.3693 71.3726 60.4028 71.4344C60.4367 71.4965 60.5537 71.4108 60.5294 71.3452C60.505 71.28 60.4784 71.2368 60.543 71.1811C60.6075 71.1256 60.4269 70.8978 60.295 71.0301C60.1631 71.1625 60.0634 71.2097 60.0742 71.1527C60.085 71.0957 60.1261 71.0062 60.096 70.9536C60.066 70.901 59.9967 70.9161 59.9066 70.9599C59.8164 71.004 59.7301 71.0472 59.6772 71.1445C59.6247 71.2419 59.9527 71.2513 59.7974 71.3503Z" fill="#E60004"/>
<path d="M59.9438 71.5192C59.9438 71.5192 60.1039 71.4918 60.1168 71.4224C60.1301 71.3531 60.083 71.2344 60.008 71.2621C59.9331 71.2895 59.8053 71.3368 59.8448 71.4429C59.8603 71.4848 59.9438 71.5192 59.9438 71.5192Z" fill="#F7AF2C"/>
<path d="M61.9174 70.9331C61.8184 71.0377 61.9266 71.1728 61.7349 71.2135C61.5429 71.2541 61.6568 71.0692 61.4322 71.0594C61.337 71.0553 61.4844 70.7935 61.573 70.8159C61.7922 70.872 61.839 70.7403 61.6495 70.7084C61.5009 70.6832 61.5556 70.5339 61.6337 70.5288C61.7118 70.5235 61.8115 70.4731 61.8716 70.4208C62.019 70.2929 62.0218 70.4973 61.9823 70.5742C61.9234 70.6883 62.0477 70.6542 62.0759 70.6281C62.129 70.5783 62.117 70.4617 62.0791 70.4025C62.0411 70.3433 62.1733 70.2828 62.2189 70.3354C62.2644 70.3883 62.2894 70.4328 62.3694 70.4035C62.4498 70.3741 62.5301 70.7828 62.3451 70.7554C62.0639 70.7138 62.0531 70.8011 62.1082 70.8193C62.1635 70.8376 62.321 70.8512 62.3523 70.9031C62.3837 70.9548 62.3372 71.0077 62.2549 71.0651C62.1727 71.1221 62.1439 71.2207 62.0329 71.2195C61.9222 71.2179 61.9646 70.8833 61.9174 70.9331Z" fill="#E73324"/>
<path d="M61.7825 70.7608C61.8047 70.7139 61.9037 70.6172 61.9707 70.6395C62.0381 70.6619 62.1001 70.7781 62.0394 70.8298C61.9786 70.8818 61.8752 70.97 61.8012 70.8843C61.7721 70.8503 61.7604 70.8078 61.7825 70.7608Z" fill="#F7AF2C"/>
<path d="M67.3719 70.5688C67.2279 70.56 67.1932 70.7295 67.0388 70.6088C66.8844 70.4885 67.0998 70.4567 66.9635 70.2787C66.9056 70.2034 67.202 70.1482 67.2412 70.2301C67.339 70.4337 67.4706 70.3852 67.3734 70.2197C67.2972 70.0899 67.4475 70.0361 67.5016 70.0925C67.5556 70.1489 67.6584 70.1927 67.7372 70.2049C67.9305 70.2358 67.7745 70.3691 67.6901 70.388C67.5645 70.4163 67.6704 70.4894 67.7087 70.4942C67.7808 70.5027 67.8631 70.4189 67.8846 70.3521C67.9058 70.285 68.037 70.347 68.0257 70.4157C68.014 70.4844 67.9959 70.532 68.0699 70.5745C68.1436 70.617 67.8808 70.9406 67.7831 70.7818C67.6347 70.5402 67.5607 70.5877 67.5819 70.6416C67.6034 70.6955 67.6939 70.8247 67.6739 70.8817C67.6543 70.939 67.5838 70.9375 67.4867 70.9113C67.3899 70.8848 67.2956 70.9264 67.2257 70.8407C67.1555 70.755 67.4408 70.5729 67.3719 70.5688Z" fill="#E73324"/>
<path d="M67.4181 70.3549C67.4684 70.3417 67.6063 70.3552 67.6326 70.4211C67.6585 70.4869 67.6085 70.6085 67.5298 70.5956C67.451 70.5824 67.3166 70.56 67.3353 70.4485C67.3425 70.4044 67.3678 70.3685 67.4181 70.3549Z" fill="#F7AF2C"/>
<path d="M55.6518 70.6499C55.5433 70.5554 55.4117 70.6678 55.3637 70.4785C55.3159 70.2894 55.5057 70.3956 55.5073 70.1716C55.5079 70.0768 55.7758 70.2138 55.7565 70.3027C55.7087 70.5232 55.8425 70.5648 55.8675 70.3751C55.8871 70.2258 56.039 70.2749 56.0472 70.3525C56.0551 70.43 56.1095 70.5273 56.1642 70.5853C56.298 70.7274 56.093 70.7378 56.0146 70.7012C55.8976 70.647 55.9365 70.7696 55.964 70.7964C56.0156 70.8474 56.132 70.8314 56.1902 70.7913C56.2483 70.7513 56.3138 70.8805 56.2626 70.9278C56.2113 70.975 56.1677 71.0015 56.2 71.0803C56.2322 71.159 55.8251 71.2545 55.846 71.0692C55.8773 70.7876 55.7894 70.78 55.773 70.8358C55.7568 70.8915 55.7489 71.0484 55.698 71.0818C55.6474 71.1149 55.5927 71.0705 55.5319 70.9908C55.4715 70.9111 55.3719 70.8862 55.369 70.7756C55.3662 70.665 55.7037 70.6952 55.6518 70.6499Z" fill="#E60004"/>
<path d="M55.82 70.5093C55.8678 70.5295 55.9687 70.6243 55.9488 70.6921C55.9289 70.7601 55.8147 70.826 55.7603 70.7674C55.7062 70.7088 55.6135 70.6092 55.697 70.5323C55.7299 70.5021 55.772 70.4889 55.82 70.5093Z" fill="#F7AF2C"/>
<path d="M119.582 118.613H84.2139V87.8623H119.582V118.613Z" fill="#DBDBDB"/>
<path d="M84.2139 92.0968V97.4672C84.2905 97.2968 84.3302 97.1123 84.3303 96.9257C84.3303 97.6305 84.7668 98.2019 85.3054 98.2019C85.8438 98.2019 86.2806 97.6305 86.2806 96.9257H117.021C117.021 97.6305 117.595 98.2019 118.302 98.2019C119.009 98.2019 119.582 97.6305 119.582 96.9257V92.0968H84.2139Z" fill="#C3C5C8"/>
<path d="M118.358 117.934H85.4375V88.6129H118.358V117.934Z" fill="#97D3DD"/>
<path d="M118.358 105.7L85.4375 109.521V88.6129H118.358V105.7Z" fill="#96CAD6"/>
<path d="M118.359 117.934H118.105V88.6129H118.359V117.934Z" fill="#7FB6BF"/>
<path d="M85.4375 91.8983V97.9902C85.9132 97.9054 86.2804 97.373 86.2804 96.7268C86.2804 97.432 86.8258 98.0035 87.4988 98.0035C88.1716 98.0035 88.7172 97.432 88.7172 96.7268C88.7172 97.432 89.1537 98.0035 89.6924 98.0035C90.2307 98.0035 90.6675 97.432 90.6675 96.7268C90.6675 97.432 91.2129 98.0035 91.8859 98.0035C92.5587 98.0035 93.1043 97.432 93.1043 96.7268C93.1043 97.432 93.5408 98.0035 94.0795 98.0035C94.6178 98.0035 95.0546 97.432 95.0546 96.7268C95.0546 97.432 95.5999 98.0035 96.273 98.0035C96.9458 98.0035 97.4914 97.432 97.4914 96.7268C97.4914 97.432 97.9279 98.0035 98.4666 98.0035C99.0049 98.0035 99.4417 97.432 99.4417 96.7268C99.4417 97.432 99.987 98.0035 100.66 98.0035C101.333 98.0035 101.879 97.432 101.879 96.7268C101.879 97.432 102.315 98.0035 102.854 98.0035C103.392 98.0035 103.829 97.432 103.829 96.7268C103.829 97.432 104.374 98.0035 105.047 98.0035C105.72 98.0035 106.266 97.432 106.266 96.7268C106.266 97.432 106.702 98.0035 107.241 98.0035C107.779 98.0035 108.216 97.432 108.216 96.7268C108.216 97.432 108.761 98.0035 109.434 98.0035C110.107 98.0035 110.653 97.432 110.653 96.7268C110.653 97.432 111.089 98.0035 111.628 98.0035C112.166 98.0035 112.603 97.432 112.603 96.7268C112.603 97.432 113.155 98.0035 113.835 98.0035C114.516 98.0035 115.068 97.432 115.068 96.7268H115.069C115.069 97.432 115.506 98.0035 116.044 98.0035C116.583 98.0035 117.02 97.432 117.02 96.7268H117.021C117.021 97.432 117.595 98.0035 118.302 98.0035C118.321 98.0035 118.339 98.0013 118.358 98.0007V91.8983H85.4375Z" fill="#84AEB7"/>
<path d="M120.948 118.613H82.8477V120H120.948V118.613Z" fill="#EDEEEF"/>
<path d="M122.998 90.7273H80.7979L83.2435 86.8816H120.553L122.998 90.7273Z" fill="#E60004"/>
<path d="M120.469 90.7273H118.484L116.562 86.8816H118.316L120.469 90.7273ZM116.074 90.7273H114.089L112.676 86.8816H114.431L116.074 90.7273ZM111.68 90.7273H109.695L108.791 86.8816H110.546L111.68 90.7273ZM107.285 90.7273H105.3L104.906 86.8816H106.661L107.285 90.7273ZM102.891 90.7273H100.906L101.021 86.8816H102.776L102.891 90.7273ZM98.4964 90.7273H96.5116L97.1356 86.8816H98.8905L98.4964 90.7273ZM94.1017 90.7273H92.1169L93.2505 86.8816H95.0053L94.1017 90.7273ZM89.7073 90.7273H87.7225L89.3657 86.8816H91.1202L89.7073 90.7273ZM85.3129 90.7273H83.3281L85.4802 86.8816H87.2351L85.3129 90.7273Z" fill="#F7F7F8"/>
<path d="M122.998 95.5558H80.7979V90.7273H122.998V95.5558Z" fill="#C4001D"/>
<path d="M85.3092 95.5558H83.3589V90.7273H85.3092V95.5558ZM89.6963 95.5558H87.746V90.7273H89.6963V95.5558ZM94.0834 95.5558H92.1331V90.7273H94.0834V95.5558ZM98.4705 95.5558H96.5202V90.7273H98.4705V95.5558ZM102.858 95.5558H100.907V90.7273H102.858V95.5558ZM107.245 95.5558H105.294V90.7273H107.245V95.5558ZM111.632 95.5558H109.681V90.7273H111.632V95.5558ZM116.019 95.5558H114.069V90.7273H116.019V95.5558ZM120.437 95.5558H118.484V90.7273H120.437V95.5558Z" fill="#D8DADC"/>
<path d="M83.3612 95.5557C83.3612 96.2608 82.7874 96.8324 82.0795 96.8324C81.3716 96.8324 80.7979 96.2608 80.7979 95.5557C80.7979 94.8509 81.3716 94.2793 82.0795 94.2793C82.7874 94.2793 83.3612 94.8509 83.3612 95.5557ZM87.746 95.5557C87.746 96.2608 87.2007 96.8324 86.5276 96.8324C85.8549 96.8324 85.3093 96.2608 85.3093 95.5557C85.3093 94.8509 85.8549 94.2793 86.5276 94.2793C87.2007 94.2793 87.746 94.8509 87.746 95.5557Z" fill="#C4001D"/>
<path d="M85.3092 95.5557C85.3092 96.2608 84.8727 96.8324 84.334 96.8324C83.7957 96.8324 83.3589 96.2608 83.3589 95.5557C83.3589 94.8509 83.7957 94.2793 84.334 94.2793C84.8727 94.2793 85.3092 94.8509 85.3092 95.5557Z" fill="#D8DADC"/>
<path d="M92.1336 95.5557C92.1336 96.2608 91.5883 96.8324 90.9152 96.8324C90.2424 96.8324 89.6968 96.2608 89.6968 95.5557C89.6968 94.8509 90.2424 94.2793 90.9152 94.2793C91.5883 94.2793 92.1336 94.8509 92.1336 95.5557Z" fill="#C4001D"/>
<path d="M89.6964 95.5557C89.6964 96.2608 89.2599 96.8324 88.7212 96.8324C88.1829 96.8324 87.7461 96.2608 87.7461 95.5557C87.7461 94.8509 88.1829 94.2793 88.7212 94.2793C89.2599 94.2793 89.6964 94.8509 89.6964 95.5557Z" fill="#D8DADC"/>
<path d="M96.5203 95.5557C96.5203 96.2608 95.975 96.8324 95.3019 96.8324C94.6291 96.8324 94.0835 96.2608 94.0835 95.5557C94.0835 94.8509 94.6291 94.2793 95.3019 94.2793C95.975 94.2793 96.5203 94.8509 96.5203 95.5557Z" fill="#C4001D"/>
<path d="M94.0836 95.5557C94.0836 96.2608 93.6471 96.8324 93.1085 96.8324C92.5698 96.8324 92.1333 96.2608 92.1333 95.5557C92.1333 94.8509 92.5698 94.2793 93.1085 94.2793C93.6471 94.2793 94.0836 94.8509 94.0836 95.5557Z" fill="#D8DADC"/>
<path d="M100.908 95.5557C100.908 96.2608 100.362 96.8324 99.6891 96.8324C99.0163 96.8324 98.4707 96.2608 98.4707 95.5557C98.4707 94.8509 99.0163 94.2793 99.6891 94.2793C100.362 94.2793 100.908 94.8509 100.908 95.5557Z" fill="#C4001D"/>
<path d="M98.4708 95.5557C98.4708 96.2608 98.0343 96.8324 97.4957 96.8324C96.957 96.8324 96.5205 96.2608 96.5205 95.5557C96.5205 94.8509 96.957 94.2793 97.4957 94.2793C98.0343 94.2793 98.4708 94.8509 98.4708 95.5557Z" fill="#D8DADC"/>
<path d="M105.295 95.5557C105.295 96.2608 104.749 96.8324 104.076 96.8324C103.404 96.8324 102.858 96.2608 102.858 95.5557C102.858 94.8509 103.404 94.2793 104.076 94.2793C104.749 94.2793 105.295 94.8509 105.295 95.5557Z" fill="#C4001D"/>
<path d="M102.858 95.5557C102.858 96.2608 102.421 96.8324 101.882 96.8324C101.344 96.8324 100.907 96.2608 100.907 95.5557C100.907 94.8509 101.344 94.2793 101.882 94.2793C102.421 94.2793 102.858 94.8509 102.858 95.5557Z" fill="#D8DADC"/>
<path d="M109.681 95.5557C109.681 96.2608 109.136 96.8324 108.463 96.8324C107.79 96.8324 107.245 96.2608 107.245 95.5557C107.245 94.8509 107.79 94.2793 108.463 94.2793C109.136 94.2793 109.681 94.8509 109.681 95.5557Z" fill="#C4001D"/>
<path d="M107.245 95.5557C107.245 96.2608 106.808 96.8324 106.27 96.8324C105.731 96.8324 105.294 96.2608 105.294 95.5557C105.294 94.8509 105.731 94.2793 106.27 94.2793C106.808 94.2793 107.245 94.8509 107.245 95.5557Z" fill="#D8DADC"/>
<path d="M114.069 95.5557C114.069 96.2608 113.523 96.8324 112.85 96.8324C112.177 96.8324 111.632 96.2608 111.632 95.5557C111.632 94.8509 112.177 94.2793 112.85 94.2793C113.523 94.2793 114.069 94.8509 114.069 95.5557Z" fill="#C4001D"/>
<path d="M111.632 95.5557C111.632 96.2608 111.195 96.8324 110.657 96.8324C110.118 96.8324 109.682 96.2608 109.682 95.5557C109.682 94.8509 110.118 94.2793 110.657 94.2793C111.195 94.2793 111.632 94.8509 111.632 95.5557Z" fill="#D8DADC"/>
<path d="M118.484 95.5557C118.484 96.2608 117.932 96.8324 117.251 96.8324C116.571 96.8324 116.019 96.2608 116.019 95.5557C116.019 94.8509 116.571 94.2793 117.251 94.2793C117.932 94.2793 118.484 94.8509 118.484 95.5557Z" fill="#C4001D"/>
<path d="M116.019 95.5557C116.019 96.2608 115.583 96.8324 115.044 96.8324C114.505 96.8324 114.069 96.2608 114.069 95.5557C114.069 94.8509 114.505 94.2793 115.044 94.2793C115.583 94.2793 116.019 94.8509 116.019 95.5557Z" fill="#D8DADC"/>
<path d="M122.998 95.5557C122.998 96.2608 122.425 96.8324 121.718 96.8324C121.01 96.8324 120.437 96.2608 120.437 95.5557C120.437 94.8509 121.01 94.2793 121.718 94.2793C122.425 94.2793 122.998 94.8509 122.998 95.5557Z" fill="#C4001D"/>
<path d="M120.436 95.5557C120.436 96.2608 119.999 96.8324 119.461 96.8324C118.922 96.8324 118.485 96.2608 118.485 95.5557C118.485 94.8509 118.922 94.2793 119.461 94.2793C119.999 94.2793 120.436 94.8509 120.436 95.5557Z" fill="#D8DADC"/>
<path d="M120.089 73.66H83.3032V60.0932C83.3032 50.0759 91.4559 41.9553 101.512 41.9553H101.88C111.937 41.9553 120.089 50.0759 120.089 60.0932V73.66Z" fill="#EDEEEF"/>
<path d="M85.2759 60.0176C85.2759 51.0744 92.5543 43.8246 101.532 43.8246H101.861C110.839 43.8246 118.117 51.0744 118.117 60.0176H85.2759Z" fill="#A1D3E5"/>
<path d="M85.3135 58.9084C85.8857 50.4826 92.9284 43.8245 101.532 43.8245H101.86C106.911 43.8245 111.423 46.1186 114.405 49.7173C111.448 50.6496 86.9722 58.415 85.3135 58.9084Z" fill="#96CAD6"/>
<path d="M101.256 43.9818H101.584C110.509 43.9818 117.754 51.1471 117.838 60.0176H118.117C118.117 51.0744 110.839 43.8246 101.86 43.8246H101.532C98.5417 43.8246 95.7405 44.6296 93.3335 46.0329C95.6776 44.7273 98.3791 43.9818 101.256 43.9818Z" fill="#93C4D1"/>
<path d="M100.61 71.6215H85.2759V61.6798H100.61V71.6215ZM118.117 71.2828H102.783V61.3411H118.117V71.2828Z" fill="#A1D3E5"/>
<path d="M118.117 71.2828H117.838V61.6161H102.783V61.3411H118.117V71.2828ZM100.61 71.6215H100.331V61.9548H85.2759V61.6798H100.61V71.6215Z" fill="#93C4D1"/>
<path d="M52.7528 117.071L44.7349 103.238L52.7528 89.4039H68.7889L76.8072 103.238L68.7889 117.071H52.7528Z" fill="#D83D0E"/>
<path d="M66.9715 91.4119H54.5693V115.063H66.9715V91.4119Z" fill="#BF2A11"/>
<path d="M66.7233 91.4119H54.8184V114.777H66.7233V91.4119Z" fill="#39373A"/>
<path d="M68.1025 92.2362V114.239L74.4792 103.238L68.1025 92.2362Z" fill="#9BCFDD"/>
<path d="M68.1025 92.2362V98.825L71.382 97.8941L68.1025 92.2362Z" fill="#80C5D8"/>
<path d="M68.1025 92.2362V92.6458L74.3482 103.463L74.4792 103.238L68.1025 92.2362Z" fill="#7FB6BF"/>
<path d="M53.4386 92.2362L47.062 103.238L53.4386 114.239V92.2362Z" fill="#9BCFDD"/>
<path d="M53.4383 92.2362L47.5972 102.314L53.4383 100.746V92.2362Z" fill="#80C5D8"/>
<path d="M53.4384 92.2362L53.2056 92.6375V113.838L53.4384 114.239V92.2362Z" fill="#7FB6BF"/>
<path d="M65.9578 95.3849H55.5831L53.2852 111.09H68.2557L65.9578 95.3849Z" fill="#F45422"/>
<path d="M67.8565 111.691H53.6742L53.2852 111.09H68.2557L67.8565 111.691Z" fill="#C62F10"/>
<path d="M65.3891 95.8273H56.1518L54.3027 110.196H67.2382L65.3891 95.8273Z" fill="#ACDAE2"/>
<path d="M66.4559 98.788L65.958 95.3848H55.5833L55.0854 98.788H66.4559Z" fill="#D83D0E"/>
<path d="M65.7904 98.9474L65.389 95.8273H56.1517L55.75 98.9474H65.7904Z" fill="#80C5D8"/>
<path d="M65.3894 95.8273H56.1521L56.1265 96.0254L65.2261 96.0544L66.9718 110.196H67.2385L65.3894 95.8273Z" fill="#7FB6BF"/>
<path d="M15.9848 118.613H3.83057V92.8744C3.83057 89.5647 6.52419 86.8815 9.84697 86.8815H9.96839C13.2912 86.8815 15.9848 89.5647 15.9848 92.8744V118.613Z" fill="#945A2F"/>
<path d="M9.96807 86.8815H9.84664C9.83452 86.8815 9.82253 86.8824 9.81055 86.8824C13.1165 86.902 15.7907 89.5768 15.7907 92.8744V118.613H15.9845V92.8744C15.9845 89.5647 13.2908 86.8815 9.96807 86.8815Z" fill="#7F4D2A"/>
<path d="M14.8616 117.452H4.95361V92.9276C4.95361 90.2297 7.14944 88.0422 9.85815 88.0422H9.95725C12.6658 88.0422 14.8616 90.2297 14.8616 92.9276V117.452Z" fill="#B1D4DD"/>
<path d="M4.95361 99.584V92.9278C4.95361 90.2299 7.14944 88.0423 9.85815 88.0423H9.95725C12.6658 88.0423 14.8616 90.2299 14.8616 92.9278V96.2117L4.95361 99.584Z" fill="#80C5D8"/>
<path d="M9.95736 88.0422H9.85827C9.83799 88.0422 9.818 88.0437 9.79785 88.0437C12.4786 88.0762 14.6419 90.2499 14.6419 92.9276V117.452H14.8617V92.9276C14.8617 90.2297 12.6659 88.0422 9.95736 88.0422Z" fill="#90B4BA"/>
<path d="M12.2665 93.3235V104.668H10.1188V93.3235H12.2665ZM9.47463 104.668H7.41286V93.3235H9.47463V104.668ZM13.2034 89.2673C13.1234 89.1968 13.0411 89.1289 12.9565 89.0638L10.0166 92.6323V88.0439C9.99666 88.0439 9.97714 88.0423 9.95725 88.0423H9.85815C9.76377 88.0423 9.67024 88.0458 9.57705 88.0512V92.6323L6.72455 89.17C6.64225 89.2381 6.56292 89.3095 6.48546 89.3829L9.23741 92.723H4.9588C4.95599 92.791 4.95361 92.8591 4.95361 92.9278V93.3235H7.06356V104.668H4.95361V104.976H7.06356V117.452H7.41286V104.976H9.47463V117.452H10.1188V104.976H12.2665V117.452H12.6158V104.976H14.8616V104.668H12.6158V93.3235H14.8616V92.9278C14.8616 92.8591 14.8593 92.791 14.8564 92.723H10.3562L13.2034 89.2673Z" fill="#90B4BA"/>
<path d="M15.2924 93.2266H4.52246V92.6265H15.2924V93.2266ZM15.2924 104.88H4.52246V104.571H15.2924V104.88Z" fill="#945A2F"/>
<path d="M9.58539 117.797V92.9268H10.2296V117.797H9.58539V117.797ZM9.68781 92.9268V87.1979H10.1273V92.9268H9.68781ZM12.3773 117.797V92.9573H12.7265V117.797H12.3773ZM7.17432 117.797V92.9573H7.52361V117.797H7.17432Z" fill="#945A2F"/>
<path d="M9.6875 93.0691L13.4726 88.4748H13.8872L10.102 93.0691H9.6875Z" fill="#945A2F"/>
<path d="M10.1274 93.0691L6.34228 88.4748H5.92773L9.71285 93.0691H10.1274ZM34.8424 118.613H22.6883V92.8744C22.6883 89.5647 25.3819 86.8815 28.7047 86.8815H28.8261C32.1487 86.8815 34.8424 89.5647 34.8424 92.8744V118.613Z" fill="#945A2F"/>
<path d="M28.8261 86.8815H28.7047C28.6926 86.8815 28.6806 86.8824 28.6685 86.8824C31.9745 86.902 34.6488 89.5768 34.6488 92.8744V118.613H34.8424V92.8744C34.8424 89.5647 32.1491 86.8815 28.8261 86.8815Z" fill="#7F4D2A"/>
<path d="M33.7191 117.452H23.811V92.9276C23.811 90.2297 26.0069 88.0422 28.7155 88.0422H28.8145C31.5232 88.0422 33.7191 90.2297 33.7191 92.9276V117.452Z" fill="#B1D4DD"/>
<path d="M23.811 99.584V92.9278C23.811 90.2299 26.0069 88.0423 28.7155 88.0423H28.8145C31.5232 88.0423 33.7191 90.2299 33.7191 92.9278V96.2117L23.811 99.584Z" fill="#80C5D8"/>
<path d="M28.8147 88.0422H28.7157C28.6954 88.0422 28.6754 88.0437 28.6553 88.0437C31.3359 88.0762 33.4995 90.2499 33.4995 92.9276V117.452H33.7193V92.9276C33.7193 90.2297 31.5234 88.0422 28.8147 88.0422Z" fill="#90B4BA"/>
<path d="M31.1239 93.3235V104.668H28.9763V93.3235H31.1239ZM28.332 104.668H26.2703V93.3235H28.332V104.668ZM32.0608 89.2673C31.9807 89.1967 31.8985 89.129 31.8141 89.0638L28.8739 92.6323V88.0439C28.854 88.0439 28.8344 88.0423 28.8145 88.0423H28.7155C28.6212 88.0423 28.5275 88.0458 28.4345 88.0512V92.6323L25.5819 89.17C25.4997 89.2381 25.4203 89.3095 25.3428 89.3829L28.0948 92.723H23.8162C23.8134 92.791 23.811 92.8591 23.811 92.9278V93.3235H25.921V104.668H23.811V104.976H25.921V117.452H26.2703V104.976H28.332V117.452H28.9763V104.976H31.1239V117.452H31.4732V104.976H33.7191V104.668H31.4732V93.3235H33.7191V92.9278C33.7191 92.8591 33.7166 92.791 33.7138 92.723H29.2136L32.0608 89.2673Z" fill="#90B4BA"/>
<path d="M34.1499 93.2266H23.3799V92.6265H34.1499V93.2266ZM34.1499 104.88H23.3799V104.571H34.1499V104.88Z" fill="#945A2F"/>
<path d="M28.4428 117.797V92.9268H29.087V117.797H28.4428V117.797ZM28.5452 92.9268V87.1979H28.9847V92.9268H28.5452ZM31.2346 117.797V92.9573H31.5839V117.797H31.2346ZM26.0317 117.797V92.9573H26.381V117.797H26.0317Z" fill="#945A2F"/>
<path d="M28.5449 93.0691L32.33 88.4748H32.7444L28.9594 93.0691H28.5449Z" fill="#945A2F"/>
<path d="M28.9846 93.0692L25.1995 88.4749H24.785L28.5701 93.0692H28.9846ZM36.8132 118.578H1.85938V119.965H36.8132V118.578Z" fill="#945A2F"/>
</svg>
