<svg width="27" height="15" viewBox="0 0 27 15" fill="none" xmlns="http://www.w3.org/2000/svg">
<path fill-rule="evenodd" clip-rule="evenodd" d="M23.3802 1.95199C20.6852 4.62758 13.8917 11.3369 13.691 11.5212C13.6011 11.6037 13.5153 11.6713 13.5003 11.6713C13.4544 11.6713 13.0971 11.3208 7.31079 5.6007C4.23151 2.55664 1.68774 0.0618607 1.65798 0.0567477C1.62528 0.0510965 1.28699 0.363764 0.801923 0.847919L0 1.64844L1.12253 2.75894C1.73995 3.36971 3.92322 5.52569 5.97426 7.54997C8.02531 9.57425 10.5575 12.0786 11.6015 13.1152L13.4995 15L15.3138 13.1994C16.3116 12.2092 18.8062 9.74288 20.8572 7.7188C22.9082 5.69472 25.1294 3.50056 25.7932 2.84287L27 1.64706L26.1732 0.823531L25.3464 0L23.3802 1.95199Z" fill="currentColor"/>
</svg>
