<svg width="30" height="30" viewBox="0 0 30 30" fill="none" xmlns="http://www.w3.org/2000/svg">
<path d="M28.3333 13.8333C28.9267 13.8333 29.4173 14.2768 29.4906 14.8502L29.4999 15.0131C29.4935 15.6006 29.0523 16.0845 28.4831 16.1572L28.319 16.1667H16.6667H16.1667V16.6667V28.3333C16.1667 28.9267 15.7232 29.4173 15.1498 29.4906L14.9869 29.4999C14.3994 29.4935 13.9155 29.0524 13.8428 28.4831L13.8333 28.319V16.6667V16.1667H13.3333H1.66667C1.07321 16.1667 0.582661 15.7232 0.509476 15.1498L0.500073 14.9868C0.506571 14.3994 0.947717 13.9155 1.51684 13.8428L1.68102 13.8333H13.3333H13.8333V13.3333V1.66667C13.8333 1.07321 14.2768 0.582661 14.8502 0.509476L15.0132 0.500073C15.6006 0.506571 16.0845 0.947703 16.1572 1.51681L16.1667 1.68103V13.3333V13.8333H16.6667H28.3333Z" fill="currentColor" stroke="currentColor"/>
</svg>
