<svg width="24" height="24" viewBox="0 0 24 24" fill="none" xmlns="http://www.w3.org/2000/svg">
<path fill-rule="evenodd" clip-rule="evenodd" d="M2.42121 0.107221C1.26428 0.429365 0.410216 1.29433 0.0981669 2.4598C0.0186494 2.75678 0 4.57211 0 11.9972C0 19.4223 0.0186494 21.2376 0.0981669 21.5346C0.414842 22.7171 1.27441 23.576 2.45792 23.8924C2.74545 23.9693 3.80759 23.9908 7.35893 23.9914L11.8928 23.9923V19.7005V15.4086H10.6813C9.59217 15.4086 9.4559 15.3947 9.33137 15.2703C9.20868 15.1477 9.1868 14.9609 9.13922 13.6307C9.06404 11.527 9.00882 11.5993 10.6926 11.596L11.8786 11.5937L11.91 9.66787C11.9385 7.92135 11.9568 7.69422 12.1069 7.2285C12.5596 5.82386 13.4285 4.90402 14.758 4.42186C15.2917 4.22833 15.3588 4.22209 17.1673 4.19766C18.85 4.17499 19.041 4.18475 19.1681 4.29964C19.2972 4.41643 19.3086 4.54123 19.3086 5.84059V7.25454L19.1151 7.40655C18.9401 7.54419 18.8227 7.55864 17.88 7.55864C16.692 7.55864 16.2652 7.65907 15.9716 8.00763C15.6877 8.34481 15.6383 8.66688 15.6379 10.1814L15.6374 11.5937H17.3662H19.095L19.2752 11.7738C19.4923 11.9907 19.4922 11.9408 19.277 13.7179C19.123 14.9897 19.0864 15.1594 18.9412 15.2769C18.7959 15.3945 18.6096 15.4086 17.2079 15.4086H15.6374V19.7043V24L18.5927 23.9778L21.548 23.9556L22.1168 23.6842C22.8622 23.3286 23.3434 22.8477 23.6994 22.1029L23.971 21.5346L23.9937 12.254C24.0107 5.32307 23.9945 2.87116 23.9298 2.56985C23.671 1.36454 22.7668 0.427751 21.548 0.101939C21.0271 -0.037307 2.92225 -0.0323183 2.42121 0.107221Z" fill="currentColor"/>
</svg>
