<svg width="170" height="52" viewBox="0 0 170 52" fill="none" xmlns="http://www.w3.org/2000/svg">
<path d="M39.0544 42.7629C39.0544 43.592 38.3359 44.3263 36.7175 44.3263C35.7315 44.3263 34.792 43.9766 34.3228 43.4792L34.495 43.2694C34.9257 43.715 35.778 44.0635 36.7073 44.0635C38.1149 44.0635 38.7371 43.4781 38.7371 42.7708C38.7371 40.8149 34.5132 41.9767 34.5132 39.7151C34.5132 38.894 35.2022 38.1439 36.8025 38.1439C37.5403 38.1439 38.2872 38.3627 38.7847 38.7022L38.6408 38.938C38.1047 38.5804 37.4145 38.4055 36.8116 38.4055C35.4516 38.4055 34.8294 38.9989 34.8294 39.7151C34.8316 41.6801 39.0544 40.5442 39.0544 42.7629ZM36.6506 37.6803L35.4629 36.6933H35.8176L36.8524 37.4795L37.8871 36.6933H38.2418L37.0541 37.6803H36.6506Z" fill="white"/>
<path d="M44.8676 39.7591L42.5975 44.2902H42.2813L40.0112 39.7591H40.3558L42.4434 43.9676L44.531 39.7591H44.8676Z" fill="white"/>
<path d="M49.7808 41.3563V44.2902H49.4748V43.3822C49.1688 43.9496 48.5364 44.3162 47.6263 44.3162C46.5055 44.3162 45.8447 43.8007 45.8447 43.0415C45.8447 42.3783 46.3049 41.8019 47.6547 41.8019H49.4646V41.3563C49.4646 40.4573 48.9376 39.9858 47.9323 39.9858C47.2138 39.9858 46.5814 40.2306 46.1609 40.5972L45.9887 40.3874C46.4681 39.9768 47.1855 39.7242 47.9425 39.7242C49.1291 39.7242 49.7808 40.2915 49.7808 41.3563ZM49.4646 42.9806V42.0376H47.6547C46.5723 42.0376 46.1609 42.4573 46.1609 43.0246C46.1609 43.671 46.7163 44.0725 47.6456 44.0725C48.5647 44.0725 49.1586 43.6789 49.4646 42.9806Z" fill="white"/>
<path d="M54.5687 39.7242V40.0118H54.4826C53.3232 40.0118 52.6443 40.719 52.6443 41.8809V44.2902H52.3281V39.7591H52.6341V40.851C52.9209 40.1347 53.5918 39.7242 54.5687 39.7242Z" fill="white"/>
<path d="M55.8223 42.0207C55.8223 40.6762 56.8661 39.7242 58.2646 39.7242C59.6722 39.7242 60.707 40.6762 60.707 42.0207C60.707 43.3653 59.6722 44.3173 58.2646 44.3173C56.8672 44.3162 55.8223 43.3653 55.8223 42.0207ZM60.3907 42.0207C60.3907 40.816 59.4807 39.9949 58.2646 39.9949C57.0485 39.9949 56.1385 40.816 56.1385 42.0207C56.1385 43.2254 57.0485 44.0556 58.2646 44.0556C59.4807 44.0545 60.3907 43.2254 60.3907 42.0207Z" fill="white"/>
<path d="M61.981 43.7138L62.134 43.4871C62.508 43.7928 63.1778 44.0635 63.9541 44.0635C65.075 44.0635 65.5249 43.6789 65.5249 43.1205C65.5249 41.6891 62.1634 42.702 62.1634 40.9288C62.1634 40.2825 62.738 39.7242 63.9836 39.7242C64.5967 39.7242 65.2665 39.908 65.6496 40.1866L65.4864 40.4133C65.084 40.1257 64.5185 39.9858 63.9734 39.9858C62.9386 39.9858 62.4887 40.3964 62.4887 40.9198C62.4887 42.3952 65.8411 41.4003 65.8411 43.1205C65.8411 43.8278 65.1996 44.3173 63.945 44.3173C63.1302 44.3162 62.364 44.0635 61.981 43.7138Z" fill="white"/>
<path d="M75.512 42.0286C75.512 43.3732 74.458 44.3162 73.0798 44.3162C72.1222 44.3162 71.3175 43.8447 70.9446 43.0765V45.9845H70.6284V39.7591H70.9344V40.9988C71.3084 40.2047 72.1029 39.7242 73.0798 39.7242C74.4591 39.7242 75.512 40.675 75.512 42.0286ZM75.1969 42.0286C75.1969 40.8239 74.2868 39.9937 73.0708 39.9937C71.8547 39.9937 70.9446 40.8228 70.9446 42.0286C70.9446 43.2333 71.8547 44.0545 73.0708 44.0545C74.2868 44.0545 75.1969 43.2344 75.1969 42.0286Z" fill="white"/>
<path d="M79.7924 39.7242V40.0118H79.7062C78.5468 40.0118 77.868 40.719 77.868 41.8809V44.2902H77.5518V39.7591H77.8578V40.851C78.1456 40.1347 78.8154 39.7242 79.7924 39.7242Z" fill="white"/>
<path d="M81.0469 42.0207C81.0469 40.6762 82.0907 39.7242 83.4892 39.7242C84.8968 39.7242 85.9315 40.6762 85.9315 42.0207C85.9315 43.3653 84.8968 44.3173 83.4892 44.3173C82.0907 44.3162 81.0469 43.3653 81.0469 42.0207ZM85.6153 42.0207C85.6153 40.816 84.7053 39.9949 83.4892 39.9949C82.2731 39.9949 81.3631 40.816 81.3631 42.0207C81.3631 43.2254 82.2731 44.0556 83.4892 44.0556C84.7053 44.0545 85.6153 43.2254 85.6153 42.0207Z" fill="white"/>
<path d="M88.3728 38.991V39.7591H90.0104V40.0129H88.3728V44.2914H88.0566V40.0129H87.1182V39.7591H88.0566V38.956C88.0566 38.2488 88.5167 37.7863 89.3304 37.7863C89.6942 37.7863 90.0773 37.8822 90.3164 38.092L90.1532 38.3108C89.9424 38.136 89.6557 38.0401 89.3486 38.0401C88.6992 38.039 88.3728 38.3706 88.3728 38.991Z" fill="white"/>
<path d="M95.4981 42.0636H91.1405C91.1597 43.2423 92.0891 44.0545 93.3527 44.0545C94.0044 44.0545 94.6164 43.8356 94.9995 43.3822L95.2012 43.574C94.7513 44.0624 94.0803 44.3162 93.3527 44.3162C91.8873 44.3162 90.8345 43.3642 90.8345 42.0196C90.8345 40.675 91.8307 39.723 93.1714 39.723C94.4929 39.723 95.4981 40.657 95.4981 41.9846V42.0636ZM91.1507 41.8278H95.2023C95.1253 40.763 94.2923 39.9858 93.1714 39.9858C92.0403 39.9858 91.2175 40.763 91.1507 41.8278Z" fill="white"/>
<path d="M96.772 43.7138L96.925 43.4871C97.299 43.7928 97.9688 44.0635 98.7451 44.0635C99.866 44.0635 100.316 43.6789 100.316 43.1205C100.316 41.6891 96.9544 42.702 96.9544 40.9288C96.9544 40.2825 97.529 39.7242 98.7734 39.7242C99.3866 39.7242 100.056 39.908 100.439 40.1866L100.276 40.4133C99.8739 40.1257 99.3084 39.9858 98.7632 39.9858C97.7285 39.9858 97.2786 40.3964 97.2786 40.9198C97.2786 42.3952 100.631 41.4003 100.631 43.1205C100.631 43.8278 99.9895 44.3173 98.7349 44.3173C97.9212 44.3162 97.155 44.0635 96.772 43.7138Z" fill="white"/>
<path d="M102.354 38.2916C102.354 38.1348 102.498 38.004 102.671 38.004C102.843 38.004 102.987 38.1348 102.987 38.2837C102.987 38.4405 102.843 38.5714 102.671 38.5714C102.497 38.5714 102.354 38.4405 102.354 38.2916ZM102.517 39.7591H102.833V44.2902H102.517V39.7591Z" fill="white"/>
<path d="M104.873 42.0207C104.873 40.6762 105.917 39.7242 107.315 39.7242C108.723 39.7242 109.758 40.6762 109.758 42.0207C109.758 43.3653 108.723 44.3173 107.315 44.3173C105.917 44.3162 104.873 43.3653 104.873 42.0207ZM109.442 42.0207C109.442 40.816 108.531 39.9949 107.315 39.9949C106.099 39.9949 105.189 40.816 105.189 42.0207C105.189 43.2254 106.099 44.0556 107.315 44.0556C108.531 44.0545 109.442 43.2254 109.442 42.0207Z" fill="white"/>
<path d="M116.145 41.6271V44.2902H115.829V41.6451C115.829 40.5622 115.196 39.9949 114.114 39.9949C112.869 39.9949 112.113 40.7281 112.113 41.8459V44.2902H111.796V39.7591H112.102V40.8679C112.419 40.1697 113.137 39.7242 114.142 39.7242C115.36 39.7242 116.145 40.3784 116.145 41.6271Z" fill="white"/>
<path d="M122.159 41.3563V44.2902H121.853V43.3822C121.547 43.9496 120.914 44.3162 120.004 44.3162C118.883 44.3162 118.223 43.8007 118.223 43.0415C118.223 42.3783 118.683 41.8019 120.033 41.8019H121.843V41.3563C121.843 40.4573 121.316 39.9858 120.31 39.9858C119.592 39.9858 118.959 40.2306 118.539 40.5972L118.367 40.3874C118.845 39.9768 119.563 39.7242 120.32 39.7242C121.507 39.7242 122.159 40.2915 122.159 41.3563ZM121.843 42.9806V42.0376H120.033C118.95 42.0376 118.539 42.4573 118.539 43.0246C118.539 43.671 119.094 44.0725 120.024 44.0725C120.943 44.0725 121.537 43.6789 121.843 42.9806Z" fill="white"/>
<path d="M124.707 37.8122H125.023V44.2914H124.707V37.8122Z" fill="white"/>
<path d="M131.094 41.3563V44.2902H130.788V43.3822C130.482 43.9496 129.849 44.3162 128.939 44.3162C127.818 44.3162 127.158 43.8007 127.158 43.0415C127.158 42.3783 127.618 41.8019 128.968 41.8019H130.778V41.3563C130.778 40.4573 130.251 39.9858 129.245 39.9858C128.527 39.9858 127.894 40.2306 127.474 40.5972L127.302 40.3874C127.78 39.9768 128.498 39.7242 129.256 39.7242C130.442 39.7242 131.094 40.2915 131.094 41.3563ZM130.778 42.9806V42.0376H128.968C127.885 42.0376 127.474 42.4573 127.474 43.0246C127.474 43.671 128.029 44.0725 128.959 44.0725C129.877 44.0725 130.47 43.6789 130.778 42.9806Z" fill="white"/>
<path d="M133.477 38.2916C133.477 38.1348 133.621 38.004 133.793 38.004C133.966 38.004 134.109 38.1348 134.109 38.2837C134.109 38.4405 133.966 38.5714 133.793 38.5714C133.621 38.5714 133.477 38.4405 133.477 38.2916ZM133.64 39.7591H133.956V44.2902H133.64V39.7591Z" fill="white"/>
<path d="M5.42725 22.8191C5.42725 16.446 10.3436 11.8856 16.9589 11.8856C20.6309 11.8856 23.6955 13.2143 25.6992 15.6305L22.5429 18.5305C21.1171 16.8994 19.3265 16.0535 17.2015 16.0535C13.2257 16.0535 10.4037 18.8317 10.4037 22.8191C10.4037 26.8054 13.2257 29.5847 17.2015 29.5847C19.3253 29.5847 21.116 28.7387 22.5429 27.0784L25.6992 29.9784C23.6966 32.425 20.6309 33.7538 16.9295 33.7538C10.3436 33.7526 5.42725 29.1922 5.42725 22.8191Z" fill="#F5F6F6"/>
<path d="M30.6748 12.2487H35.5912V29.4042H46.2423V33.3905H30.6748V12.2487Z" fill="#F5F6F6"/>
<path d="M67.1204 29.464V33.3905H50.6724V12.2487H66.726V16.1753H55.5582V20.7661H65.4204V24.572H55.5582V29.4651H67.1204V29.464Z" fill="#F5F6F6"/>
<path d="M86.6934 28.8605H76.8311L74.9498 33.3905H69.9121L79.38 12.2487H84.2352L93.7337 33.3905H88.5747L86.6934 28.8605ZM85.1453 25.145L81.777 17.0506L78.4087 25.145H85.1453Z" fill="#F5F6F6"/>
<path d="M117.099 12.2487V33.3905H113.063L102.472 20.5541V33.3905H97.6172V12.2487H101.684L112.244 25.0852V12.2487H117.099Z" fill="#F5F6F6"/>
<path d="M137.864 22.5303H142.355V31.1075C140.018 32.8593 136.802 33.7955 133.767 33.7955C127.09 33.7955 122.175 29.235 122.175 22.8619C122.175 16.4888 127.091 11.9284 133.858 11.9284C137.59 11.9284 140.687 13.1974 142.749 15.5831L139.593 18.4831C138.045 16.852 136.255 16.0974 134.101 16.0974C129.973 16.0974 127.151 18.8463 127.151 22.8631C127.151 26.82 129.973 29.6287 134.04 29.6287C135.375 29.6287 136.619 29.3873 137.864 28.7229V22.5303Z" fill="url(#paint0_linear_61:13)"/>
<path d="M162.143 17.5875L162.145 17.5864C162.131 17.5649 162.117 17.5458 162.102 17.5255C161.482 16.5667 160.74 15.5752 159.867 14.5363C158.597 12.8579 157.122 11.9713 155.601 11.9713C154.058 11.9713 152.498 12.8895 151.097 14.6198C147.891 18.4583 146.462 21.6426 146.462 24.942C146.462 29.9118 150.524 33.9545 155.517 33.9545C160.511 33.9545 164.573 29.9118 164.573 24.942C164.573 22.5315 163.808 20.1785 162.143 17.5875ZM147.493 24.942C147.493 21.8987 148.85 18.9174 151.895 15.2695C153.099 13.7828 154.381 12.9966 155.601 12.9966C156.711 12.9966 157.784 13.6181 158.795 14.8409C158.502 14.7461 158.207 14.6818 157.907 14.648C156.557 14.498 155.233 14.9931 154.08 16.0783C150.724 19.2366 148.025 24.07 150.509 28.1635C151.561 29.8961 153.236 30.6777 154.772 30.6777C155.436 30.6777 156.074 30.5311 156.623 30.2536C158.335 29.3873 159.596 27.1156 158.002 23.3357C157.688 22.342 157.09 21.2546 156.184 20.0183C156.69 19.5276 157.233 19.3776 157.802 19.5761C159.156 20.0499 160.598 22.4751 160.599 26.0338C160.6 28.0417 159.775 29.9321 158.337 31.2192C157.054 32.3663 155.453 32.9078 153.823 32.7442C150.21 31.9704 147.493 28.7658 147.493 24.942ZM155.517 20.8541C156.688 22.4954 157.237 23.8049 157.237 24.942C157.237 25.8861 156.465 26.6531 155.517 26.6531C154.569 26.6531 153.798 25.8849 153.798 24.942C153.798 23.8049 154.347 22.4965 155.517 20.8541ZM158.665 32.2863C158.787 32.1892 158.908 32.09 159.026 31.984C160.682 30.5018 161.632 28.3327 161.63 26.0338C161.629 22.4367 160.163 19.3145 158.143 18.6072C157.231 18.288 156.303 18.5136 155.559 19.1938C153.676 20.9196 152.764 23.4429 152.764 24.9408C152.764 26.4501 153.999 27.6784 155.515 27.6784C156.399 27.6784 157.186 27.2611 157.69 26.6148C157.656 28.0225 156.984 28.9181 156.153 29.3377C154.751 30.0472 152.586 29.6028 151.39 27.6322C148.591 23.0221 153.728 17.8199 154.786 16.8239C155.712 15.9519 156.751 15.5526 157.791 15.6677C159.036 15.8064 160.258 16.6659 161.239 18.0917C162.814 20.5304 163.538 22.721 163.538 24.9397C163.541 28.2334 161.53 31.0658 158.665 32.2863Z" fill="url(#paint1_linear_61:13)"/>
<defs>
<linearGradient id="paint0_linear_61:13" x1="122.174" y1="22.8624" x2="142.749" y2="22.8624" gradientUnits="userSpaceOnUse">
<stop stop-color="#71C9C1"/>
<stop offset="1" stop-color="#46C7F0"/>
</linearGradient>
<linearGradient id="paint1_linear_61:13" x1="159.783" y1="12.4833" x2="152.2" y2="34.4809" gradientUnits="userSpaceOnUse">
<stop stop-color="#71C9C1"/>
<stop offset="1" stop-color="#46C7F0"/>
</linearGradient>
</defs>
</svg>
